G04 #@! TF.GenerationSoftware,KiCad,Pcbnew,(6.0.5-0)*
G04 #@! TF.CreationDate,2022-09-21T23:51:35-04:00*
G04 #@! TF.ProjectId,pico_ducky_pcb,7069636f-5f64-4756-936b-795f7063622e,rev?*
G04 #@! TF.SameCoordinates,Original*
G04 #@! TF.FileFunction,Legend,Bot*
G04 #@! TF.FilePolarity,Positive*
%FSLAX46Y46*%
G04 Gerber Fmt 4.6, Leading zero omitted, Abs format (unit mm)*
G04 Created by KiCad (PCBNEW (6.0.5-0)) date 2022-09-21 23:51:35*
%MOMM*%
%LPD*%
G01*
G04 APERTURE LIST*
G04 Aperture macros list*
%AMRoundRect*
0 Rectangle with rounded corners*
0 $1 Rounding radius*
0 $2 $3 $4 $5 $6 $7 $8 $9 X,Y pos of 4 corners*
0 Add a 4 corners polygon primitive as box body*
4,1,4,$2,$3,$4,$5,$6,$7,$8,$9,$2,$3,0*
0 Add four circle primitives for the rounded corners*
1,1,$1+$1,$2,$3*
1,1,$1+$1,$4,$5*
1,1,$1+$1,$6,$7*
1,1,$1+$1,$8,$9*
0 Add four rect primitives between the rounded corners*
20,1,$1+$1,$2,$3,$4,$5,0*
20,1,$1+$1,$4,$5,$6,$7,0*
20,1,$1+$1,$6,$7,$8,$9,0*
20,1,$1+$1,$8,$9,$2,$3,0*%
G04 Aperture macros list end*
%ADD10C,0.010000*%
%ADD11C,0.100000*%
%ADD12C,0.120000*%
%ADD13C,0.711200*%
%ADD14C,2.600000*%
%ADD15RoundRect,0.140000X0.170000X-0.140000X0.170000X0.140000X-0.170000X0.140000X-0.170000X-0.140000X0*%
%ADD16RoundRect,0.100000X0.130000X0.100000X-0.130000X0.100000X-0.130000X-0.100000X0.130000X-0.100000X0*%
%ADD17RoundRect,0.140000X-0.140000X-0.170000X0.140000X-0.170000X0.140000X0.170000X-0.140000X0.170000X0*%
%ADD18RoundRect,0.135000X-0.185000X0.135000X-0.185000X-0.135000X0.185000X-0.135000X0.185000X0.135000X0*%
%ADD19RoundRect,0.100000X-0.130000X-0.100000X0.130000X-0.100000X0.130000X0.100000X-0.130000X0.100000X0*%
%ADD20R,0.300000X0.450000*%
%ADD21RoundRect,0.150000X0.587500X0.150000X-0.587500X0.150000X-0.587500X-0.150000X0.587500X-0.150000X0*%
%ADD22RoundRect,0.100000X0.100000X-0.130000X0.100000X0.130000X-0.100000X0.130000X-0.100000X-0.130000X0*%
%ADD23RoundRect,0.140000X0.140000X0.170000X-0.140000X0.170000X-0.140000X-0.170000X0.140000X-0.170000X0*%
%ADD24RoundRect,0.135000X0.185000X-0.135000X0.185000X0.135000X-0.185000X0.135000X-0.185000X-0.135000X0*%
G04 APERTURE END LIST*
D10*
G36*
X81436377Y-60100640D02*
G01*
X81477682Y-60118280D01*
X81509802Y-60147670D01*
X81532736Y-60188810D01*
X81546500Y-60241690D01*
X81551093Y-60306350D01*
X81551093Y-60613930D01*
X81212576Y-60613930D01*
X81212576Y-60299830D01*
X81213843Y-60267560D01*
X81217642Y-60237990D01*
X81223959Y-60211130D01*
X81232825Y-60186990D01*
X81244223Y-60165570D01*
X81258139Y-60146850D01*
X81274344Y-60130950D01*
X81292593Y-60117920D01*
X81312872Y-60107800D01*
X81335181Y-60100570D01*
X81359518Y-60096220D01*
X81385901Y-60094770D01*
X81436377Y-60100640D01*
G37*
X81436377Y-60100640D02*
X81477682Y-60118280D01*
X81509802Y-60147670D01*
X81532736Y-60188810D01*
X81546500Y-60241690D01*
X81551093Y-60306350D01*
X81551093Y-60613930D01*
X81212576Y-60613930D01*
X81212576Y-60299830D01*
X81213843Y-60267560D01*
X81217642Y-60237990D01*
X81223959Y-60211130D01*
X81232825Y-60186990D01*
X81244223Y-60165570D01*
X81258139Y-60146850D01*
X81274344Y-60130950D01*
X81292593Y-60117920D01*
X81312872Y-60107800D01*
X81335181Y-60100570D01*
X81359518Y-60096220D01*
X81385901Y-60094770D01*
X81436377Y-60100640D01*
G36*
X81164435Y-59144756D02*
G01*
X81195532Y-59150112D01*
X81223654Y-59157589D01*
X81248831Y-59167202D01*
X81271033Y-59178936D01*
X81290289Y-59192791D01*
X81306570Y-59208568D01*
X81319907Y-59226055D01*
X81330267Y-59245266D01*
X81337668Y-59266201D01*
X81342108Y-59288860D01*
X81343588Y-59313228D01*
X81342032Y-59339046D01*
X81337347Y-59362819D01*
X81329550Y-59384517D01*
X81318625Y-59404171D01*
X81304587Y-59421779D01*
X81287436Y-59437313D01*
X81267477Y-59450679D01*
X81245032Y-59461772D01*
X81220099Y-59470577D01*
X81192679Y-59477108D01*
X81162772Y-59481334D01*
X81130408Y-59483303D01*
X81130408Y-59141521D01*
X81164435Y-59144756D01*
G37*
X81164435Y-59144756D02*
X81195532Y-59150112D01*
X81223654Y-59157589D01*
X81248831Y-59167202D01*
X81271033Y-59178936D01*
X81290289Y-59192791D01*
X81306570Y-59208568D01*
X81319907Y-59226055D01*
X81330267Y-59245266D01*
X81337668Y-59266201D01*
X81342108Y-59288860D01*
X81343588Y-59313228D01*
X81342032Y-59339046D01*
X81337347Y-59362819D01*
X81329550Y-59384517D01*
X81318625Y-59404171D01*
X81304587Y-59421779D01*
X81287436Y-59437313D01*
X81267477Y-59450679D01*
X81245032Y-59461772D01*
X81220099Y-59470577D01*
X81192679Y-59477108D01*
X81162772Y-59481334D01*
X81130408Y-59483303D01*
X81130408Y-59141521D01*
X81164435Y-59144756D01*
G36*
X80360892Y-61266920D02*
G01*
X80322760Y-61257760D01*
X80286505Y-61242750D01*
X80253058Y-61222240D01*
X80223227Y-61196770D01*
X80197760Y-61166940D01*
X80177252Y-61133490D01*
X80162238Y-61097240D01*
X80153082Y-61059110D01*
X80150000Y-61020000D01*
X80150000Y-59796123D01*
X80590887Y-59796123D01*
X80590887Y-60066280D01*
X81026236Y-60332380D01*
X81026236Y-60613930D01*
X80590887Y-60613930D01*
X80590887Y-60854000D01*
X81737448Y-60854000D01*
X81737448Y-60281120D01*
X81734991Y-60215360D01*
X81727637Y-60154810D01*
X81715369Y-60099450D01*
X81698203Y-60049300D01*
X81676123Y-60004329D01*
X81649146Y-59964580D01*
X81617590Y-59930507D01*
X81581747Y-59902629D01*
X81541632Y-59880947D01*
X81497260Y-59865474D01*
X81448599Y-59856182D01*
X81395667Y-59853084D01*
X81356436Y-59854976D01*
X81319037Y-59860683D01*
X81283469Y-59870174D01*
X81249731Y-59883464D01*
X81217825Y-59900554D01*
X81187750Y-59921443D01*
X81160254Y-59945568D01*
X81136099Y-59972347D01*
X81115240Y-60001796D01*
X81097708Y-60033920D01*
X81083502Y-60068710D01*
X81072623Y-60106170D01*
X81035193Y-60082080D01*
X80590887Y-59796123D01*
X80150000Y-59796123D01*
X80150000Y-59313228D01*
X80574606Y-59313228D01*
X80577872Y-59376857D01*
X80587683Y-59435375D01*
X80604010Y-59488796D01*
X80626868Y-59537090D01*
X80656271Y-59580287D01*
X80692206Y-59618389D01*
X80734396Y-59650951D01*
X80782568Y-59677608D01*
X80836737Y-59698329D01*
X80896902Y-59713130D01*
X80963049Y-59722011D01*
X81035193Y-59724971D01*
X81105078Y-59721965D01*
X81169348Y-59712947D01*
X81228033Y-59697917D01*
X81281104Y-59676876D01*
X81328574Y-59649822D01*
X81370428Y-59616756D01*
X81406241Y-59578167D01*
X81435538Y-59534557D01*
X81458319Y-59485942D01*
X81474600Y-59432308D01*
X81484366Y-59373638D01*
X81487616Y-59309963D01*
X81484122Y-59249248D01*
X81473639Y-59193508D01*
X81471350Y-59186851D01*
X81456183Y-59142742D01*
X81431738Y-59096935D01*
X81400305Y-59056118D01*
X81361899Y-59020259D01*
X81316733Y-58989696D01*
X81265097Y-58964672D01*
X81206976Y-58945217D01*
X81142371Y-58931316D01*
X81071280Y-58922969D01*
X80993689Y-58920192D01*
X80987189Y-58920192D01*
X80987189Y-59484920D01*
X80946082Y-59483593D01*
X80908469Y-59479625D01*
X80874365Y-59473018D01*
X80843771Y-59463756D01*
X80816687Y-59451854D01*
X80793097Y-59437313D01*
X80773077Y-59420330D01*
X80756705Y-59401104D01*
X80743979Y-59379634D01*
X80734869Y-59355938D01*
X80729422Y-59329998D01*
X80727606Y-59301830D01*
X80730521Y-59263896D01*
X80739264Y-59230938D01*
X80753836Y-59202953D01*
X80774252Y-59179943D01*
X80800497Y-59161907D01*
X80832556Y-59148845D01*
X80813849Y-58933208D01*
X80740759Y-58969768D01*
X80680945Y-59017025D01*
X80634421Y-59074993D01*
X80601187Y-59143688D01*
X80581259Y-59223094D01*
X80574606Y-59313228D01*
X80150000Y-59313228D01*
X80150000Y-58563472D01*
X80590887Y-58563472D01*
X81471350Y-58878383D01*
X81471350Y-58636699D01*
X80979041Y-58482921D01*
X80962088Y-58477916D01*
X80938361Y-58471065D01*
X80907843Y-58462368D01*
X80870535Y-58451808D01*
X80775595Y-58425136D01*
X80788123Y-58421947D01*
X80803458Y-58417812D01*
X80821585Y-58412731D01*
X80842505Y-58406688D01*
X80866248Y-58399715D01*
X80892783Y-58391780D01*
X80932135Y-58379558D01*
X80994315Y-58359767D01*
X81079337Y-58332363D01*
X81187170Y-58297374D01*
X81317831Y-58254787D01*
X81471350Y-58204616D01*
X81471350Y-57965370D01*
X80902548Y-58175122D01*
X80590887Y-58290050D01*
X80590887Y-58563472D01*
X80150000Y-58563472D01*
X80150000Y-57519940D01*
X80572165Y-57519940D01*
X80574530Y-57579420D01*
X80581610Y-57634690D01*
X80593420Y-57685740D01*
X80609961Y-57732600D01*
X80631216Y-57775250D01*
X80657202Y-57813700D01*
X80687628Y-57847550D01*
X80722250Y-57876370D01*
X80761053Y-57900170D01*
X80804037Y-57918960D01*
X80851202Y-57932720D01*
X80902548Y-57941460D01*
X80922903Y-57708720D01*
X80872427Y-57697400D01*
X80831122Y-57678080D01*
X80799002Y-57650750D01*
X80776068Y-57615410D01*
X80762289Y-57572090D01*
X80757712Y-57520760D01*
X80758841Y-57494380D01*
X80762228Y-57470040D01*
X80767874Y-57447730D01*
X80775793Y-57427460D01*
X80785956Y-57409210D01*
X80798392Y-57393000D01*
X80813147Y-57379090D01*
X80830313Y-57367690D01*
X80849860Y-57358820D01*
X80871817Y-57352490D01*
X80896155Y-57348690D01*
X80922903Y-57347440D01*
X80947394Y-57348960D01*
X80969916Y-57353570D01*
X80990439Y-57361260D01*
X81008963Y-57372020D01*
X81025519Y-57385860D01*
X81040060Y-57402770D01*
X81052496Y-57422690D01*
X81062674Y-57445610D01*
X81070578Y-57471520D01*
X81076239Y-57500410D01*
X81079626Y-57532280D01*
X81080756Y-57567130D01*
X81080756Y-57646890D01*
X81265479Y-57646890D01*
X81265479Y-57572020D01*
X81266592Y-57540550D01*
X81269949Y-57511810D01*
X81275534Y-57485760D01*
X81283377Y-57462440D01*
X81293433Y-57441830D01*
X81305746Y-57423920D01*
X81320135Y-57408750D01*
X81336447Y-57396340D01*
X81354666Y-57386680D01*
X81374823Y-57379790D01*
X81396902Y-57375650D01*
X81420889Y-57374280D01*
X81443640Y-57375380D01*
X81464697Y-57378660D01*
X81484061Y-57384140D01*
X81501715Y-57391810D01*
X81517691Y-57401680D01*
X81531973Y-57413740D01*
X81544272Y-57427900D01*
X81554343Y-57444070D01*
X81562186Y-57462260D01*
X81567770Y-57482460D01*
X81571127Y-57504680D01*
X81572256Y-57528900D01*
X81571173Y-57551740D01*
X81567908Y-57573070D01*
X81562491Y-57592880D01*
X81554892Y-57611170D01*
X81545126Y-57627960D01*
X81533194Y-57643230D01*
X81519263Y-57656700D01*
X81503531Y-57668130D01*
X81485999Y-57677500D01*
X81466635Y-57684810D01*
X81445486Y-57690070D01*
X81422522Y-57693260D01*
X81438803Y-57921930D01*
X81486380Y-57913540D01*
X81530386Y-57900330D01*
X81570822Y-57882260D01*
X81607703Y-57859370D01*
X81640982Y-57831630D01*
X81670706Y-57799070D01*
X81696326Y-57762280D01*
X81717276Y-57721930D01*
X81733572Y-57678020D01*
X81745215Y-57630520D01*
X81752203Y-57579460D01*
X81754538Y-57524820D01*
X81752280Y-57467070D01*
X81745535Y-57413660D01*
X81734290Y-57364620D01*
X81718542Y-57319940D01*
X81698294Y-57279630D01*
X81673560Y-57243680D01*
X81644843Y-57212720D01*
X81612662Y-57187390D01*
X81577032Y-57167690D01*
X81537939Y-57153620D01*
X81495383Y-57145180D01*
X81449377Y-57142360D01*
X81414633Y-57144110D01*
X81382010Y-57149360D01*
X81351523Y-57158140D01*
X81323157Y-57170390D01*
X81296912Y-57186170D01*
X81272787Y-57205440D01*
X81251028Y-57228010D01*
X81231833Y-57253670D01*
X81215216Y-57282440D01*
X81201178Y-57314280D01*
X81189719Y-57349240D01*
X81180838Y-57387290D01*
X81177588Y-57387290D01*
X81170874Y-57345040D01*
X81161078Y-57306150D01*
X81148199Y-57270630D01*
X81132208Y-57238480D01*
X81113104Y-57209700D01*
X81090918Y-57184280D01*
X81066092Y-57162520D01*
X81039069Y-57144730D01*
X81009863Y-57130870D01*
X80978461Y-57120980D01*
X80944861Y-57115050D01*
X80909064Y-57113060D01*
X80857382Y-57116010D01*
X80809790Y-57124830D01*
X80766241Y-57139520D01*
X80726782Y-57160090D01*
X80691382Y-57186530D01*
X80660056Y-57218870D01*
X80633200Y-57256600D01*
X80611227Y-57299330D01*
X80594138Y-57347030D01*
X80581931Y-57399680D01*
X80574606Y-57457330D01*
X80572165Y-57519940D01*
X80150000Y-57519940D01*
X80150000Y-57020000D01*
X80153082Y-56980890D01*
X80162238Y-56942760D01*
X80177252Y-56906510D01*
X80197760Y-56873060D01*
X80223227Y-56843230D01*
X80253058Y-56817760D01*
X80286505Y-56797250D01*
X80322760Y-56782240D01*
X80360892Y-56773080D01*
X80400000Y-56770000D01*
X81900000Y-56770000D01*
X81939108Y-56773080D01*
X81977240Y-56782240D01*
X82013495Y-56797250D01*
X82046942Y-56817760D01*
X82076773Y-56843230D01*
X82102240Y-56873060D01*
X82122748Y-56906510D01*
X82137762Y-56942760D01*
X82146918Y-56980890D01*
X82150000Y-57020000D01*
X82150000Y-61020000D01*
X82146918Y-61059110D01*
X82137762Y-61097240D01*
X82122748Y-61133490D01*
X82102240Y-61166940D01*
X82076773Y-61196770D01*
X82046942Y-61222240D01*
X82013495Y-61242750D01*
X81977240Y-61257760D01*
X81939108Y-61266920D01*
X81900000Y-61270000D01*
X80400000Y-61270000D01*
X80360892Y-61266920D01*
G37*
X80360892Y-61266920D02*
X80322760Y-61257760D01*
X80286505Y-61242750D01*
X80253058Y-61222240D01*
X80223227Y-61196770D01*
X80197760Y-61166940D01*
X80177252Y-61133490D01*
X80162238Y-61097240D01*
X80153082Y-61059110D01*
X80150000Y-61020000D01*
X80150000Y-59796123D01*
X80590887Y-59796123D01*
X80590887Y-60066280D01*
X81026236Y-60332380D01*
X81026236Y-60613930D01*
X80590887Y-60613930D01*
X80590887Y-60854000D01*
X81737448Y-60854000D01*
X81737448Y-60281120D01*
X81734991Y-60215360D01*
X81727637Y-60154810D01*
X81715369Y-60099450D01*
X81698203Y-60049300D01*
X81676123Y-60004329D01*
X81649146Y-59964580D01*
X81617590Y-59930507D01*
X81581747Y-59902629D01*
X81541632Y-59880947D01*
X81497260Y-59865474D01*
X81448599Y-59856182D01*
X81395667Y-59853084D01*
X81356436Y-59854976D01*
X81319037Y-59860683D01*
X81283469Y-59870174D01*
X81249731Y-59883464D01*
X81217825Y-59900554D01*
X81187750Y-59921443D01*
X81160254Y-59945568D01*
X81136099Y-59972347D01*
X81115240Y-60001796D01*
X81097708Y-60033920D01*
X81083502Y-60068710D01*
X81072623Y-60106170D01*
X81035193Y-60082080D01*
X80590887Y-59796123D01*
X80150000Y-59796123D01*
X80150000Y-59313228D01*
X80574606Y-59313228D01*
X80577872Y-59376857D01*
X80587683Y-59435375D01*
X80604010Y-59488796D01*
X80626868Y-59537090D01*
X80656271Y-59580287D01*
X80692206Y-59618389D01*
X80734396Y-59650951D01*
X80782568Y-59677608D01*
X80836737Y-59698329D01*
X80896902Y-59713130D01*
X80963049Y-59722011D01*
X81035193Y-59724971D01*
X81105078Y-59721965D01*
X81169348Y-59712947D01*
X81228033Y-59697917D01*
X81281104Y-59676876D01*
X81328574Y-59649822D01*
X81370428Y-59616756D01*
X81406241Y-59578167D01*
X81435538Y-59534557D01*
X81458319Y-59485942D01*
X81474600Y-59432308D01*
X81484366Y-59373638D01*
X81487616Y-59309963D01*
X81484122Y-59249248D01*
X81473639Y-59193508D01*
X81471350Y-59186851D01*
X81456183Y-59142742D01*
X81431738Y-59096935D01*
X81400305Y-59056118D01*
X81361899Y-59020259D01*
X81316733Y-58989696D01*
X81265097Y-58964672D01*
X81206976Y-58945217D01*
X81142371Y-58931316D01*
X81071280Y-58922969D01*
X80993689Y-58920192D01*
X80987189Y-58920192D01*
X80987189Y-59484920D01*
X80946082Y-59483593D01*
X80908469Y-59479625D01*
X80874365Y-59473018D01*
X80843771Y-59463756D01*
X80816687Y-59451854D01*
X80793097Y-59437313D01*
X80773077Y-59420330D01*
X80756705Y-59401104D01*
X80743979Y-59379634D01*
X80734869Y-59355938D01*
X80729422Y-59329998D01*
X80727606Y-59301830D01*
X80730521Y-59263896D01*
X80739264Y-59230938D01*
X80753836Y-59202953D01*
X80774252Y-59179943D01*
X80800497Y-59161907D01*
X80832556Y-59148845D01*
X80813849Y-58933208D01*
X80740759Y-58969768D01*
X80680945Y-59017025D01*
X80634421Y-59074993D01*
X80601187Y-59143688D01*
X80581259Y-59223094D01*
X80574606Y-59313228D01*
X80150000Y-59313228D01*
X80150000Y-58563472D01*
X80590887Y-58563472D01*
X81471350Y-58878383D01*
X81471350Y-58636699D01*
X80979041Y-58482921D01*
X80962088Y-58477916D01*
X80938361Y-58471065D01*
X80907843Y-58462368D01*
X80870535Y-58451808D01*
X80775595Y-58425136D01*
X80788123Y-58421947D01*
X80803458Y-58417812D01*
X80821585Y-58412731D01*
X80842505Y-58406688D01*
X80866248Y-58399715D01*
X80892783Y-58391780D01*
X80932135Y-58379558D01*
X80994315Y-58359767D01*
X81079337Y-58332363D01*
X81187170Y-58297374D01*
X81317831Y-58254787D01*
X81471350Y-58204616D01*
X81471350Y-57965370D01*
X80902548Y-58175122D01*
X80590887Y-58290050D01*
X80590887Y-58563472D01*
X80150000Y-58563472D01*
X80150000Y-57519940D01*
X80572165Y-57519940D01*
X80574530Y-57579420D01*
X80581610Y-57634690D01*
X80593420Y-57685740D01*
X80609961Y-57732600D01*
X80631216Y-57775250D01*
X80657202Y-57813700D01*
X80687628Y-57847550D01*
X80722250Y-57876370D01*
X80761053Y-57900170D01*
X80804037Y-57918960D01*
X80851202Y-57932720D01*
X80902548Y-57941460D01*
X80922903Y-57708720D01*
X80872427Y-57697400D01*
X80831122Y-57678080D01*
X80799002Y-57650750D01*
X80776068Y-57615410D01*
X80762289Y-57572090D01*
X80757712Y-57520760D01*
X80758841Y-57494380D01*
X80762228Y-57470040D01*
X80767874Y-57447730D01*
X80775793Y-57427460D01*
X80785956Y-57409210D01*
X80798392Y-57393000D01*
X80813147Y-57379090D01*
X80830313Y-57367690D01*
X80849860Y-57358820D01*
X80871817Y-57352490D01*
X80896155Y-57348690D01*
X80922903Y-57347440D01*
X80947394Y-57348960D01*
X80969916Y-57353570D01*
X80990439Y-57361260D01*
X81008963Y-57372020D01*
X81025519Y-57385860D01*
X81040060Y-57402770D01*
X81052496Y-57422690D01*
X81062674Y-57445610D01*
X81070578Y-57471520D01*
X81076239Y-57500410D01*
X81079626Y-57532280D01*
X81080756Y-57567130D01*
X81080756Y-57646890D01*
X81265479Y-57646890D01*
X81265479Y-57572020D01*
X81266592Y-57540550D01*
X81269949Y-57511810D01*
X81275534Y-57485760D01*
X81283377Y-57462440D01*
X81293433Y-57441830D01*
X81305746Y-57423920D01*
X81320135Y-57408750D01*
X81336447Y-57396340D01*
X81354666Y-57386680D01*
X81374823Y-57379790D01*
X81396902Y-57375650D01*
X81420889Y-57374280D01*
X81443640Y-57375380D01*
X81464697Y-57378660D01*
X81484061Y-57384140D01*
X81501715Y-57391810D01*
X81517691Y-57401680D01*
X81531973Y-57413740D01*
X81544272Y-57427900D01*
X81554343Y-57444070D01*
X81562186Y-57462260D01*
X81567770Y-57482460D01*
X81571127Y-57504680D01*
X81572256Y-57528900D01*
X81571173Y-57551740D01*
X81567908Y-57573070D01*
X81562491Y-57592880D01*
X81554892Y-57611170D01*
X81545126Y-57627960D01*
X81533194Y-57643230D01*
X81519263Y-57656700D01*
X81503531Y-57668130D01*
X81485999Y-57677500D01*
X81466635Y-57684810D01*
X81445486Y-57690070D01*
X81422522Y-57693260D01*
X81438803Y-57921930D01*
X81486380Y-57913540D01*
X81530386Y-57900330D01*
X81570822Y-57882260D01*
X81607703Y-57859370D01*
X81640982Y-57831630D01*
X81670706Y-57799070D01*
X81696326Y-57762280D01*
X81717276Y-57721930D01*
X81733572Y-57678020D01*
X81745215Y-57630520D01*
X81752203Y-57579460D01*
X81754538Y-57524820D01*
X81752280Y-57467070D01*
X81745535Y-57413660D01*
X81734290Y-57364620D01*
X81718542Y-57319940D01*
X81698294Y-57279630D01*
X81673560Y-57243680D01*
X81644843Y-57212720D01*
X81612662Y-57187390D01*
X81577032Y-57167690D01*
X81537939Y-57153620D01*
X81495383Y-57145180D01*
X81449377Y-57142360D01*
X81414633Y-57144110D01*
X81382010Y-57149360D01*
X81351523Y-57158140D01*
X81323157Y-57170390D01*
X81296912Y-57186170D01*
X81272787Y-57205440D01*
X81251028Y-57228010D01*
X81231833Y-57253670D01*
X81215216Y-57282440D01*
X81201178Y-57314280D01*
X81189719Y-57349240D01*
X81180838Y-57387290D01*
X81177588Y-57387290D01*
X81170874Y-57345040D01*
X81161078Y-57306150D01*
X81148199Y-57270630D01*
X81132208Y-57238480D01*
X81113104Y-57209700D01*
X81090918Y-57184280D01*
X81066092Y-57162520D01*
X81039069Y-57144730D01*
X81009863Y-57130870D01*
X80978461Y-57120980D01*
X80944861Y-57115050D01*
X80909064Y-57113060D01*
X80857382Y-57116010D01*
X80809790Y-57124830D01*
X80766241Y-57139520D01*
X80726782Y-57160090D01*
X80691382Y-57186530D01*
X80660056Y-57218870D01*
X80633200Y-57256600D01*
X80611227Y-57299330D01*
X80594138Y-57347030D01*
X80581931Y-57399680D01*
X80574606Y-57457330D01*
X80572165Y-57519940D01*
X80150000Y-57519940D01*
X80150000Y-57020000D01*
X80153082Y-56980890D01*
X80162238Y-56942760D01*
X80177252Y-56906510D01*
X80197760Y-56873060D01*
X80223227Y-56843230D01*
X80253058Y-56817760D01*
X80286505Y-56797250D01*
X80322760Y-56782240D01*
X80360892Y-56773080D01*
X80400000Y-56770000D01*
X81900000Y-56770000D01*
X81939108Y-56773080D01*
X81977240Y-56782240D01*
X82013495Y-56797250D01*
X82046942Y-56817760D01*
X82076773Y-56843230D01*
X82102240Y-56873060D01*
X82122748Y-56906510D01*
X82137762Y-56942760D01*
X82146918Y-56980890D01*
X82150000Y-57020000D01*
X82150000Y-61020000D01*
X82146918Y-61059110D01*
X82137762Y-61097240D01*
X82122748Y-61133490D01*
X82102240Y-61166940D01*
X82076773Y-61196770D01*
X82046942Y-61222240D01*
X82013495Y-61242750D01*
X81977240Y-61257760D01*
X81939108Y-61266920D01*
X81900000Y-61270000D01*
X80400000Y-61270000D01*
X80360892Y-61266920D01*
G36*
X90716567Y-65143461D02*
G01*
X90768188Y-65165494D01*
X90808349Y-65202240D01*
X90837020Y-65253660D01*
X90854232Y-65319780D01*
X90859969Y-65400590D01*
X90859969Y-65785080D01*
X90436813Y-65785080D01*
X90436813Y-65392440D01*
X90438400Y-65352090D01*
X90443145Y-65315140D01*
X90451049Y-65281570D01*
X90462127Y-65251400D01*
X90476364Y-65224610D01*
X90493774Y-65201220D01*
X90514037Y-65181318D01*
X90536834Y-65165052D01*
X90562179Y-65152387D01*
X90590072Y-65143354D01*
X90620498Y-65137922D01*
X90653472Y-65136121D01*
X90716567Y-65143461D01*
G37*
X90716567Y-65143461D02*
X90768188Y-65165494D01*
X90808349Y-65202240D01*
X90837020Y-65253660D01*
X90854232Y-65319780D01*
X90859969Y-65400590D01*
X90859969Y-65785080D01*
X90436813Y-65785080D01*
X90436813Y-65392440D01*
X90438400Y-65352090D01*
X90443145Y-65315140D01*
X90451049Y-65281570D01*
X90462127Y-65251400D01*
X90476364Y-65224610D01*
X90493774Y-65201220D01*
X90514037Y-65181318D01*
X90536834Y-65165052D01*
X90562179Y-65152387D01*
X90590072Y-65143354D01*
X90620498Y-65137922D01*
X90653472Y-65136121D01*
X90716567Y-65143461D01*
G36*
X89320890Y-66686920D02*
G01*
X89282760Y-66677760D01*
X89246510Y-66662750D01*
X89213060Y-66642240D01*
X89183230Y-66616770D01*
X89157760Y-66586940D01*
X89137250Y-66553490D01*
X89122240Y-66517240D01*
X89113080Y-66479110D01*
X89110000Y-66440000D01*
X89110000Y-64762800D01*
X89659698Y-64762800D01*
X89659698Y-65100507D01*
X90203903Y-65433130D01*
X90203903Y-65785080D01*
X89659698Y-65785080D01*
X89659698Y-66085140D01*
X91092895Y-66085140D01*
X91092895Y-65369050D01*
X91089828Y-65286850D01*
X91080642Y-65211160D01*
X91065307Y-65141965D01*
X91043853Y-65079267D01*
X91016250Y-65023069D01*
X90982528Y-64973371D01*
X90943069Y-64930784D01*
X90898284Y-64895933D01*
X90848144Y-64868833D01*
X90792663Y-64849485D01*
X90731841Y-64837873D01*
X90665679Y-64833997D01*
X90616638Y-64836378D01*
X90569900Y-64843488D01*
X90525436Y-64855359D01*
X90483260Y-64871976D01*
X90443374Y-64893339D01*
X90405776Y-64919462D01*
X90371414Y-64949598D01*
X90341216Y-64983076D01*
X90315139Y-65019895D01*
X90293228Y-65060041D01*
X90275482Y-65103528D01*
X90261871Y-65150342D01*
X90033004Y-65003049D01*
X89659698Y-64762800D01*
X89110000Y-64762800D01*
X89110000Y-64061536D01*
X89639358Y-64061536D01*
X89642074Y-64150114D01*
X89650207Y-64232068D01*
X89663772Y-64307432D01*
X89682754Y-64376172D01*
X89707168Y-64438306D01*
X89736999Y-64493833D01*
X89772354Y-64542936D01*
X89813293Y-64585828D01*
X89859832Y-64622495D01*
X89911956Y-64652967D01*
X89969680Y-64677198D01*
X90033004Y-64695234D01*
X90080810Y-64405332D01*
X90044570Y-64393949D01*
X90011810Y-64379453D01*
X89982513Y-64361844D01*
X89956710Y-64341138D01*
X89934371Y-64317319D01*
X89915511Y-64290403D01*
X89899810Y-64260068D01*
X89886978Y-64226087D01*
X89876983Y-64188428D01*
X89869857Y-64147092D01*
X89865569Y-64102079D01*
X89864150Y-64053403D01*
X89869460Y-63957365D01*
X89885391Y-63878782D01*
X89911956Y-63817670D01*
X89949142Y-63774015D01*
X89996948Y-63747816D01*
X90055374Y-63739088D01*
X90075134Y-63740095D01*
X90093688Y-63743101D01*
X90111068Y-63748121D01*
X90127258Y-63755140D01*
X90142257Y-63764173D01*
X90156082Y-63775205D01*
X90168929Y-63788068D01*
X90181060Y-63802549D01*
X90192443Y-63818693D01*
X90203094Y-63836454D01*
X90213012Y-63855878D01*
X90222198Y-63876920D01*
X90231323Y-63902143D01*
X90241073Y-63934049D01*
X90251449Y-63972669D01*
X90262435Y-64017972D01*
X90274047Y-64069974D01*
X90286285Y-64128660D01*
X90298431Y-64179532D01*
X90309738Y-64224958D01*
X90320236Y-64264966D01*
X90329910Y-64299558D01*
X90338760Y-64328718D01*
X90346801Y-64352445D01*
X90354659Y-64373136D01*
X90362945Y-64393140D01*
X90371703Y-64412458D01*
X90380920Y-64431104D01*
X90390579Y-64449079D01*
X90400695Y-64466382D01*
X90411392Y-64482908D01*
X90422790Y-64498578D01*
X90434905Y-64513410D01*
X90447723Y-64527402D01*
X90461242Y-64540540D01*
X90475463Y-64552839D01*
X90490478Y-64564268D01*
X90506332Y-64574811D01*
X90523025Y-64584485D01*
X90540573Y-64593290D01*
X90558959Y-64601209D01*
X90578201Y-64608259D01*
X90598358Y-64614316D01*
X90619460Y-64619276D01*
X90641525Y-64623136D01*
X90664550Y-64625883D01*
X90688537Y-64627546D01*
X90713485Y-64628095D01*
X90775726Y-64624036D01*
X90832900Y-64611875D01*
X90885009Y-64591596D01*
X90932067Y-64563215D01*
X90974075Y-64526731D01*
X91011016Y-64482130D01*
X91042556Y-64429777D01*
X91068374Y-64370069D01*
X91088455Y-64302976D01*
X91102783Y-64228513D01*
X91111389Y-64146696D01*
X91114257Y-64057477D01*
X91111938Y-63972333D01*
X91104995Y-63894559D01*
X91093414Y-63824155D01*
X91077194Y-63761136D01*
X91056335Y-63705488D01*
X91030837Y-63657224D01*
X91000015Y-63615262D01*
X90963149Y-63578611D01*
X90920226Y-63547224D01*
X90871261Y-63521131D01*
X90860992Y-63517246D01*
X90816253Y-63500318D01*
X90755187Y-63484785D01*
X90715515Y-63775724D01*
X90745101Y-63784452D01*
X90772140Y-63795774D01*
X90796630Y-63809659D01*
X90818588Y-63826124D01*
X90837997Y-63845151D01*
X90854858Y-63866758D01*
X90869171Y-63891294D01*
X90880859Y-63919126D01*
X90889968Y-63950284D01*
X90896469Y-63984739D01*
X90900359Y-64022504D01*
X90901672Y-64063566D01*
X90896911Y-64146863D01*
X90882675Y-64214994D01*
X90858947Y-64268003D01*
X90825714Y-64305875D01*
X90783004Y-64328596D01*
X90730789Y-64336164D01*
X90712707Y-64335355D01*
X90695739Y-64332944D01*
X90679916Y-64328916D01*
X90665222Y-64323286D01*
X90651656Y-64316038D01*
X90639221Y-64307188D01*
X90627654Y-64296735D01*
X90616683Y-64284742D01*
X90606292Y-64271192D01*
X90596511Y-64256101D01*
X90587310Y-64239438D01*
X90578704Y-64221235D01*
X90570037Y-64198987D01*
X90560684Y-64170270D01*
X90550598Y-64135038D01*
X90539825Y-64093305D01*
X90528335Y-64045072D01*
X90516143Y-63990339D01*
X90501754Y-63924772D01*
X90487731Y-63865735D01*
X90474059Y-63813215D01*
X90460769Y-63767240D01*
X90447845Y-63727781D01*
X90435287Y-63694852D01*
X90422576Y-63666212D01*
X90409179Y-63639631D01*
X90395110Y-63615125D01*
X90380355Y-63592679D01*
X90364929Y-63572294D01*
X90348846Y-63553968D01*
X90331863Y-63537351D01*
X90313796Y-63522092D01*
X90294677Y-63508192D01*
X90274459Y-63495649D01*
X90253188Y-63484449D01*
X90230834Y-63474622D01*
X90207366Y-63466230D01*
X90182754Y-63459363D01*
X90156967Y-63454023D01*
X90130035Y-63450208D01*
X90101928Y-63447919D01*
X90072677Y-63447156D01*
X90005248Y-63451490D01*
X89943328Y-63464506D01*
X89886917Y-63486188D01*
X89836013Y-63516553D01*
X89790618Y-63555601D01*
X89750732Y-63603300D01*
X89716705Y-63659406D01*
X89688857Y-63723615D01*
X89667205Y-63795927D01*
X89651733Y-63876356D01*
X89642455Y-63964902D01*
X89639358Y-64061536D01*
X89110000Y-64061536D01*
X89110000Y-62912050D01*
X89659698Y-62912050D01*
X90860992Y-62912050D01*
X90860992Y-63374860D01*
X91092895Y-63374860D01*
X91092895Y-62148130D01*
X90860992Y-62148130D01*
X90860992Y-62611980D01*
X89659698Y-62611980D01*
X89659698Y-62912050D01*
X89110000Y-62912050D01*
X89110000Y-61940000D01*
X89113080Y-61900890D01*
X89122240Y-61862760D01*
X89137250Y-61826510D01*
X89157760Y-61793060D01*
X89183230Y-61763230D01*
X89213060Y-61737760D01*
X89246510Y-61717250D01*
X89282760Y-61702240D01*
X89320890Y-61693080D01*
X89360000Y-61690000D01*
X91360000Y-61690000D01*
X91399110Y-61693080D01*
X91437240Y-61702240D01*
X91473490Y-61717250D01*
X91506940Y-61737760D01*
X91536770Y-61763230D01*
X91562240Y-61793060D01*
X91582750Y-61826510D01*
X91597760Y-61862760D01*
X91606920Y-61900890D01*
X91610000Y-61940000D01*
X91610000Y-66440000D01*
X91606920Y-66479110D01*
X91597760Y-66517240D01*
X91582750Y-66553490D01*
X91562240Y-66586940D01*
X91536770Y-66616770D01*
X91506940Y-66642240D01*
X91473490Y-66662750D01*
X91437240Y-66677760D01*
X91399110Y-66686920D01*
X91360000Y-66690000D01*
X89360000Y-66690000D01*
X89320890Y-66686920D01*
G37*
X89320890Y-66686920D02*
X89282760Y-66677760D01*
X89246510Y-66662750D01*
X89213060Y-66642240D01*
X89183230Y-66616770D01*
X89157760Y-66586940D01*
X89137250Y-66553490D01*
X89122240Y-66517240D01*
X89113080Y-66479110D01*
X89110000Y-66440000D01*
X89110000Y-64762800D01*
X89659698Y-64762800D01*
X89659698Y-65100507D01*
X90203903Y-65433130D01*
X90203903Y-65785080D01*
X89659698Y-65785080D01*
X89659698Y-66085140D01*
X91092895Y-66085140D01*
X91092895Y-65369050D01*
X91089828Y-65286850D01*
X91080642Y-65211160D01*
X91065307Y-65141965D01*
X91043853Y-65079267D01*
X91016250Y-65023069D01*
X90982528Y-64973371D01*
X90943069Y-64930784D01*
X90898284Y-64895933D01*
X90848144Y-64868833D01*
X90792663Y-64849485D01*
X90731841Y-64837873D01*
X90665679Y-64833997D01*
X90616638Y-64836378D01*
X90569900Y-64843488D01*
X90525436Y-64855359D01*
X90483260Y-64871976D01*
X90443374Y-64893339D01*
X90405776Y-64919462D01*
X90371414Y-64949598D01*
X90341216Y-64983076D01*
X90315139Y-65019895D01*
X90293228Y-65060041D01*
X90275482Y-65103528D01*
X90261871Y-65150342D01*
X90033004Y-65003049D01*
X89659698Y-64762800D01*
X89110000Y-64762800D01*
X89110000Y-64061536D01*
X89639358Y-64061536D01*
X89642074Y-64150114D01*
X89650207Y-64232068D01*
X89663772Y-64307432D01*
X89682754Y-64376172D01*
X89707168Y-64438306D01*
X89736999Y-64493833D01*
X89772354Y-64542936D01*
X89813293Y-64585828D01*
X89859832Y-64622495D01*
X89911956Y-64652967D01*
X89969680Y-64677198D01*
X90033004Y-64695234D01*
X90080810Y-64405332D01*
X90044570Y-64393949D01*
X90011810Y-64379453D01*
X89982513Y-64361844D01*
X89956710Y-64341138D01*
X89934371Y-64317319D01*
X89915511Y-64290403D01*
X89899810Y-64260068D01*
X89886978Y-64226087D01*
X89876983Y-64188428D01*
X89869857Y-64147092D01*
X89865569Y-64102079D01*
X89864150Y-64053403D01*
X89869460Y-63957365D01*
X89885391Y-63878782D01*
X89911956Y-63817670D01*
X89949142Y-63774015D01*
X89996948Y-63747816D01*
X90055374Y-63739088D01*
X90075134Y-63740095D01*
X90093688Y-63743101D01*
X90111068Y-63748121D01*
X90127258Y-63755140D01*
X90142257Y-63764173D01*
X90156082Y-63775205D01*
X90168929Y-63788068D01*
X90181060Y-63802549D01*
X90192443Y-63818693D01*
X90203094Y-63836454D01*
X90213012Y-63855878D01*
X90222198Y-63876920D01*
X90231323Y-63902143D01*
X90241073Y-63934049D01*
X90251449Y-63972669D01*
X90262435Y-64017972D01*
X90274047Y-64069974D01*
X90286285Y-64128660D01*
X90298431Y-64179532D01*
X90309738Y-64224958D01*
X90320236Y-64264966D01*
X90329910Y-64299558D01*
X90338760Y-64328718D01*
X90346801Y-64352445D01*
X90354659Y-64373136D01*
X90362945Y-64393140D01*
X90371703Y-64412458D01*
X90380920Y-64431104D01*
X90390579Y-64449079D01*
X90400695Y-64466382D01*
X90411392Y-64482908D01*
X90422790Y-64498578D01*
X90434905Y-64513410D01*
X90447723Y-64527402D01*
X90461242Y-64540540D01*
X90475463Y-64552839D01*
X90490478Y-64564268D01*
X90506332Y-64574811D01*
X90523025Y-64584485D01*
X90540573Y-64593290D01*
X90558959Y-64601209D01*
X90578201Y-64608259D01*
X90598358Y-64614316D01*
X90619460Y-64619276D01*
X90641525Y-64623136D01*
X90664550Y-64625883D01*
X90688537Y-64627546D01*
X90713485Y-64628095D01*
X90775726Y-64624036D01*
X90832900Y-64611875D01*
X90885009Y-64591596D01*
X90932067Y-64563215D01*
X90974075Y-64526731D01*
X91011016Y-64482130D01*
X91042556Y-64429777D01*
X91068374Y-64370069D01*
X91088455Y-64302976D01*
X91102783Y-64228513D01*
X91111389Y-64146696D01*
X91114257Y-64057477D01*
X91111938Y-63972333D01*
X91104995Y-63894559D01*
X91093414Y-63824155D01*
X91077194Y-63761136D01*
X91056335Y-63705488D01*
X91030837Y-63657224D01*
X91000015Y-63615262D01*
X90963149Y-63578611D01*
X90920226Y-63547224D01*
X90871261Y-63521131D01*
X90860992Y-63517246D01*
X90816253Y-63500318D01*
X90755187Y-63484785D01*
X90715515Y-63775724D01*
X90745101Y-63784452D01*
X90772140Y-63795774D01*
X90796630Y-63809659D01*
X90818588Y-63826124D01*
X90837997Y-63845151D01*
X90854858Y-63866758D01*
X90869171Y-63891294D01*
X90880859Y-63919126D01*
X90889968Y-63950284D01*
X90896469Y-63984739D01*
X90900359Y-64022504D01*
X90901672Y-64063566D01*
X90896911Y-64146863D01*
X90882675Y-64214994D01*
X90858947Y-64268003D01*
X90825714Y-64305875D01*
X90783004Y-64328596D01*
X90730789Y-64336164D01*
X90712707Y-64335355D01*
X90695739Y-64332944D01*
X90679916Y-64328916D01*
X90665222Y-64323286D01*
X90651656Y-64316038D01*
X90639221Y-64307188D01*
X90627654Y-64296735D01*
X90616683Y-64284742D01*
X90606292Y-64271192D01*
X90596511Y-64256101D01*
X90587310Y-64239438D01*
X90578704Y-64221235D01*
X90570037Y-64198987D01*
X90560684Y-64170270D01*
X90550598Y-64135038D01*
X90539825Y-64093305D01*
X90528335Y-64045072D01*
X90516143Y-63990339D01*
X90501754Y-63924772D01*
X90487731Y-63865735D01*
X90474059Y-63813215D01*
X90460769Y-63767240D01*
X90447845Y-63727781D01*
X90435287Y-63694852D01*
X90422576Y-63666212D01*
X90409179Y-63639631D01*
X90395110Y-63615125D01*
X90380355Y-63592679D01*
X90364929Y-63572294D01*
X90348846Y-63553968D01*
X90331863Y-63537351D01*
X90313796Y-63522092D01*
X90294677Y-63508192D01*
X90274459Y-63495649D01*
X90253188Y-63484449D01*
X90230834Y-63474622D01*
X90207366Y-63466230D01*
X90182754Y-63459363D01*
X90156967Y-63454023D01*
X90130035Y-63450208D01*
X90101928Y-63447919D01*
X90072677Y-63447156D01*
X90005248Y-63451490D01*
X89943328Y-63464506D01*
X89886917Y-63486188D01*
X89836013Y-63516553D01*
X89790618Y-63555601D01*
X89750732Y-63603300D01*
X89716705Y-63659406D01*
X89688857Y-63723615D01*
X89667205Y-63795927D01*
X89651733Y-63876356D01*
X89642455Y-63964902D01*
X89639358Y-64061536D01*
X89110000Y-64061536D01*
X89110000Y-62912050D01*
X89659698Y-62912050D01*
X90860992Y-62912050D01*
X90860992Y-63374860D01*
X91092895Y-63374860D01*
X91092895Y-62148130D01*
X90860992Y-62148130D01*
X90860992Y-62611980D01*
X89659698Y-62611980D01*
X89659698Y-62912050D01*
X89110000Y-62912050D01*
X89110000Y-61940000D01*
X89113080Y-61900890D01*
X89122240Y-61862760D01*
X89137250Y-61826510D01*
X89157760Y-61793060D01*
X89183230Y-61763230D01*
X89213060Y-61737760D01*
X89246510Y-61717250D01*
X89282760Y-61702240D01*
X89320890Y-61693080D01*
X89360000Y-61690000D01*
X91360000Y-61690000D01*
X91399110Y-61693080D01*
X91437240Y-61702240D01*
X91473490Y-61717250D01*
X91506940Y-61737760D01*
X91536770Y-61763230D01*
X91562240Y-61793060D01*
X91582750Y-61826510D01*
X91597760Y-61862760D01*
X91606920Y-61900890D01*
X91610000Y-61940000D01*
X91610000Y-66440000D01*
X91606920Y-66479110D01*
X91597760Y-66517240D01*
X91582750Y-66553490D01*
X91562240Y-66586940D01*
X91536770Y-66616770D01*
X91506940Y-66642240D01*
X91473490Y-66662750D01*
X91437240Y-66677760D01*
X91399110Y-66686920D01*
X91360000Y-66690000D01*
X89360000Y-66690000D01*
X89320890Y-66686920D01*
G36*
X84029161Y-65329190D02*
G01*
X84056703Y-65334310D01*
X84081148Y-65342860D01*
X84102464Y-65354820D01*
X84120698Y-65370220D01*
X84135805Y-65389020D01*
X84148241Y-65411190D01*
X84158418Y-65436650D01*
X84166322Y-65465430D01*
X84171983Y-65497510D01*
X84175371Y-65532910D01*
X84176500Y-65571600D01*
X84176500Y-65913370D01*
X83821504Y-65913370D01*
X83821504Y-65569560D01*
X83822725Y-65529110D01*
X83826417Y-65492550D01*
X83832567Y-65459830D01*
X83841157Y-65431010D01*
X83852220Y-65406040D01*
X83865755Y-65384960D01*
X83881731Y-65367390D01*
X83900163Y-65353020D01*
X83921068Y-65341840D01*
X83944414Y-65333860D01*
X83970232Y-65329060D01*
X83998491Y-65327480D01*
X84029161Y-65329190D01*
G37*
X84029161Y-65329190D02*
X84056703Y-65334310D01*
X84081148Y-65342860D01*
X84102464Y-65354820D01*
X84120698Y-65370220D01*
X84135805Y-65389020D01*
X84148241Y-65411190D01*
X84158418Y-65436650D01*
X84166322Y-65465430D01*
X84171983Y-65497510D01*
X84175371Y-65532910D01*
X84176500Y-65571600D01*
X84176500Y-65913370D01*
X83821504Y-65913370D01*
X83821504Y-65569560D01*
X83822725Y-65529110D01*
X83826417Y-65492550D01*
X83832567Y-65459830D01*
X83841157Y-65431010D01*
X83852220Y-65406040D01*
X83865755Y-65384960D01*
X83881731Y-65367390D01*
X83900163Y-65353020D01*
X83921068Y-65341840D01*
X83944414Y-65333860D01*
X83970232Y-65329060D01*
X83998491Y-65327480D01*
X84029161Y-65329190D01*
G36*
X83459901Y-65252080D02*
G01*
X83510255Y-65276160D01*
X83549409Y-65316280D01*
X83577394Y-65372450D01*
X83594179Y-65444680D01*
X83599763Y-65532940D01*
X83599763Y-65913370D01*
X83188829Y-65913370D01*
X83188829Y-65521750D01*
X83190279Y-65475760D01*
X83194643Y-65434110D01*
X83201921Y-65396770D01*
X83212114Y-65363750D01*
X83225206Y-65335060D01*
X83241212Y-65310690D01*
X83260133Y-65290320D01*
X83281953Y-65273680D01*
X83306688Y-65260720D01*
X83334337Y-65251460D01*
X83364900Y-65245900D01*
X83398363Y-65244060D01*
X83459901Y-65252080D01*
G37*
X83459901Y-65252080D02*
X83510255Y-65276160D01*
X83549409Y-65316280D01*
X83577394Y-65372450D01*
X83594179Y-65444680D01*
X83599763Y-65532940D01*
X83599763Y-65913370D01*
X83188829Y-65913370D01*
X83188829Y-65521750D01*
X83190279Y-65475760D01*
X83194643Y-65434110D01*
X83201921Y-65396770D01*
X83212114Y-65363750D01*
X83225206Y-65335060D01*
X83241212Y-65310690D01*
X83260133Y-65290320D01*
X83281953Y-65273680D01*
X83306688Y-65260720D01*
X83334337Y-65251460D01*
X83364900Y-65245900D01*
X83398363Y-65244060D01*
X83459901Y-65252080D01*
G36*
X83763795Y-63659860D02*
G01*
X83832750Y-63669015D01*
X83896135Y-63684274D01*
X83953966Y-63705636D01*
X84006212Y-63733102D01*
X84052904Y-63766671D01*
X84093156Y-63805749D01*
X84126085Y-63849740D01*
X84151704Y-63898660D01*
X84170000Y-63952477D01*
X84180971Y-64011224D01*
X84184633Y-64074883D01*
X84181001Y-64139474D01*
X84170106Y-64198983D01*
X84151948Y-64253396D01*
X84126543Y-64302728D01*
X84093858Y-64346978D01*
X84053926Y-64386148D01*
X84007493Y-64419700D01*
X83955324Y-64447170D01*
X83897417Y-64468530D01*
X83833772Y-64483790D01*
X83764390Y-64492940D01*
X83689271Y-64496000D01*
X83613405Y-64492870D01*
X83543092Y-64483500D01*
X83478349Y-64467890D01*
X83419160Y-64446040D01*
X83365541Y-64417930D01*
X83317491Y-64383599D01*
X83276002Y-64343850D01*
X83242052Y-64299569D01*
X83215654Y-64250726D01*
X83196794Y-64197335D01*
X83185472Y-64139413D01*
X83181703Y-64076913D01*
X83185380Y-64012338D01*
X83196397Y-63952874D01*
X83214769Y-63898522D01*
X83240480Y-63849298D01*
X83273530Y-63805169D01*
X83313936Y-63766168D01*
X83361101Y-63732751D01*
X83414415Y-63705422D01*
X83473894Y-63684152D01*
X83539537Y-63668969D01*
X83611330Y-63659860D01*
X83689271Y-63656808D01*
X83763795Y-63659860D01*
G37*
X83763795Y-63659860D02*
X83832750Y-63669015D01*
X83896135Y-63684274D01*
X83953966Y-63705636D01*
X84006212Y-63733102D01*
X84052904Y-63766671D01*
X84093156Y-63805749D01*
X84126085Y-63849740D01*
X84151704Y-63898660D01*
X84170000Y-63952477D01*
X84180971Y-64011224D01*
X84184633Y-64074883D01*
X84181001Y-64139474D01*
X84170106Y-64198983D01*
X84151948Y-64253396D01*
X84126543Y-64302728D01*
X84093858Y-64346978D01*
X84053926Y-64386148D01*
X84007493Y-64419700D01*
X83955324Y-64447170D01*
X83897417Y-64468530D01*
X83833772Y-64483790D01*
X83764390Y-64492940D01*
X83689271Y-64496000D01*
X83613405Y-64492870D01*
X83543092Y-64483500D01*
X83478349Y-64467890D01*
X83419160Y-64446040D01*
X83365541Y-64417930D01*
X83317491Y-64383599D01*
X83276002Y-64343850D01*
X83242052Y-64299569D01*
X83215654Y-64250726D01*
X83196794Y-64197335D01*
X83185472Y-64139413D01*
X83181703Y-64076913D01*
X83185380Y-64012338D01*
X83196397Y-63952874D01*
X83214769Y-63898522D01*
X83240480Y-63849298D01*
X83273530Y-63805169D01*
X83313936Y-63766168D01*
X83361101Y-63732751D01*
X83414415Y-63705422D01*
X83473894Y-63684152D01*
X83539537Y-63668969D01*
X83611330Y-63659860D01*
X83689271Y-63656808D01*
X83763795Y-63659860D01*
G36*
X83763795Y-62077390D02*
G01*
X83832750Y-62086540D01*
X83896135Y-62101800D01*
X83953966Y-62123160D01*
X84006212Y-62150630D01*
X84052904Y-62184200D01*
X84093156Y-62223280D01*
X84126085Y-62267270D01*
X84151704Y-62316170D01*
X84170000Y-62370000D01*
X84180971Y-62428735D01*
X84184633Y-62492394D01*
X84181001Y-62556985D01*
X84170106Y-62616494D01*
X84151948Y-62670907D01*
X84126543Y-62720254D01*
X84093858Y-62764504D01*
X84053926Y-62803659D01*
X84007493Y-62837228D01*
X83955324Y-62864678D01*
X83897417Y-62886041D01*
X83833772Y-62901300D01*
X83764390Y-62910455D01*
X83689271Y-62913507D01*
X83613405Y-62910378D01*
X83543092Y-62901025D01*
X83478349Y-62885400D01*
X83419160Y-62863549D01*
X83365541Y-62835458D01*
X83317491Y-62801110D01*
X83276002Y-62761376D01*
X83242052Y-62717080D01*
X83215654Y-62668237D01*
X83196794Y-62614862D01*
X83185472Y-62556924D01*
X83181703Y-62494439D01*
X83185380Y-62429864D01*
X83196397Y-62370400D01*
X83214769Y-62316050D01*
X83240480Y-62266810D01*
X83273530Y-62222680D01*
X83313936Y-62183680D01*
X83361101Y-62150260D01*
X83414415Y-62122930D01*
X83473894Y-62101660D01*
X83539537Y-62086480D01*
X83611330Y-62077370D01*
X83689271Y-62074330D01*
X83763795Y-62077390D01*
G37*
X83763795Y-62077390D02*
X83832750Y-62086540D01*
X83896135Y-62101800D01*
X83953966Y-62123160D01*
X84006212Y-62150630D01*
X84052904Y-62184200D01*
X84093156Y-62223280D01*
X84126085Y-62267270D01*
X84151704Y-62316170D01*
X84170000Y-62370000D01*
X84180971Y-62428735D01*
X84184633Y-62492394D01*
X84181001Y-62556985D01*
X84170106Y-62616494D01*
X84151948Y-62670907D01*
X84126543Y-62720254D01*
X84093858Y-62764504D01*
X84053926Y-62803659D01*
X84007493Y-62837228D01*
X83955324Y-62864678D01*
X83897417Y-62886041D01*
X83833772Y-62901300D01*
X83764390Y-62910455D01*
X83689271Y-62913507D01*
X83613405Y-62910378D01*
X83543092Y-62901025D01*
X83478349Y-62885400D01*
X83419160Y-62863549D01*
X83365541Y-62835458D01*
X83317491Y-62801110D01*
X83276002Y-62761376D01*
X83242052Y-62717080D01*
X83215654Y-62668237D01*
X83196794Y-62614862D01*
X83185472Y-62556924D01*
X83181703Y-62494439D01*
X83185380Y-62429864D01*
X83196397Y-62370400D01*
X83214769Y-62316050D01*
X83240480Y-62266810D01*
X83273530Y-62222680D01*
X83313936Y-62183680D01*
X83361101Y-62150260D01*
X83414415Y-62122930D01*
X83473894Y-62101660D01*
X83539537Y-62086480D01*
X83611330Y-62077370D01*
X83689271Y-62074330D01*
X83763795Y-62077390D01*
G36*
X82627258Y-66661220D02*
G01*
X82589128Y-66652060D01*
X82552878Y-66637050D01*
X82519428Y-66616540D01*
X82489598Y-66591070D01*
X82464128Y-66561240D01*
X82443618Y-66527790D01*
X82428608Y-66491540D01*
X82419448Y-66453410D01*
X82416368Y-66414300D01*
X82416368Y-66213450D01*
X82966066Y-66213450D01*
X84399263Y-66213450D01*
X84399263Y-65557370D01*
X84396745Y-65473430D01*
X84389146Y-65396580D01*
X84376512Y-65326840D01*
X84358797Y-65264180D01*
X84336046Y-65208630D01*
X84308214Y-65160150D01*
X84275453Y-65118970D01*
X84237871Y-65085270D01*
X84195436Y-65059060D01*
X84148180Y-65040350D01*
X84096101Y-65029120D01*
X84039171Y-65025370D01*
X83999559Y-65027250D01*
X83962038Y-65032890D01*
X83926652Y-65042290D01*
X83893388Y-65055440D01*
X83862230Y-65072350D01*
X83833192Y-65093030D01*
X83806734Y-65117530D01*
X83783296Y-65145970D01*
X83762895Y-65178340D01*
X83745500Y-65214620D01*
X83731126Y-65254850D01*
X83719789Y-65298990D01*
X83711092Y-65243310D01*
X83698595Y-65192240D01*
X83689271Y-65165685D01*
X83682283Y-65145780D01*
X83662157Y-65103920D01*
X83638216Y-65066660D01*
X83610445Y-65034020D01*
X83579179Y-65006200D01*
X83544725Y-64983440D01*
X83507082Y-64965740D01*
X83466249Y-64953090D01*
X83422212Y-64945500D01*
X83374971Y-64942970D01*
X83312334Y-64947050D01*
X83254610Y-64959250D01*
X83201799Y-64979590D01*
X83153902Y-65008080D01*
X83110933Y-65044700D01*
X83072862Y-65089460D01*
X83040224Y-65141440D01*
X83013536Y-65199760D01*
X82992769Y-65264410D01*
X82977937Y-65335380D01*
X82969026Y-65412700D01*
X82966066Y-65496330D01*
X82966066Y-66213450D01*
X82416368Y-66213450D01*
X82416368Y-64076913D01*
X82945726Y-64076913D01*
X82951250Y-64185433D01*
X82967821Y-64285836D01*
X82995439Y-64378121D01*
X83034105Y-64462320D01*
X83083818Y-64538380D01*
X83144578Y-64606360D01*
X83214952Y-64664960D01*
X83293489Y-64712880D01*
X83380189Y-64750180D01*
X83475053Y-64776800D01*
X83578081Y-64792780D01*
X83689271Y-64798100D01*
X83800004Y-64792790D01*
X83902315Y-64776860D01*
X83996202Y-64750300D01*
X84081666Y-64713110D01*
X84158723Y-64665310D01*
X84227357Y-64606870D01*
X84286409Y-64538980D01*
X84334733Y-64462760D01*
X84372316Y-64378259D01*
X84399156Y-64285440D01*
X84415254Y-64184320D01*
X84420625Y-64074883D01*
X84415208Y-63965432D01*
X84398927Y-63864266D01*
X84371797Y-63771386D01*
X84333833Y-63686776D01*
X84285005Y-63610452D01*
X84225328Y-63542398D01*
X84156190Y-63483804D01*
X84078966Y-63435876D01*
X83993669Y-63398599D01*
X83900285Y-63371972D01*
X83798814Y-63355996D01*
X83689271Y-63350671D01*
X83616197Y-63353128D01*
X83546083Y-63360498D01*
X83478975Y-63372796D01*
X83414873Y-63389993D01*
X83353746Y-63412118D01*
X83295625Y-63439157D01*
X83241228Y-63470758D01*
X83191255Y-63506616D01*
X83145723Y-63546716D01*
X83104631Y-63591043D01*
X83067964Y-63639611D01*
X83035738Y-63692422D01*
X83008241Y-63748879D01*
X82985734Y-63808373D01*
X82968233Y-63870935D01*
X82955720Y-63936547D01*
X82948228Y-64005212D01*
X82945726Y-64076913D01*
X82416368Y-64076913D01*
X82416368Y-62494439D01*
X82945726Y-62494439D01*
X82951250Y-62602944D01*
X82967821Y-62703347D01*
X82995439Y-62795648D01*
X83034105Y-62879830D01*
X83083818Y-62955911D01*
X83144578Y-63023873D01*
X83214952Y-63082467D01*
X83293489Y-63130395D01*
X83380189Y-63167687D01*
X83475053Y-63194314D01*
X83578081Y-63210290D01*
X83689271Y-63215615D01*
X83800004Y-63210305D01*
X83902315Y-63194375D01*
X83996202Y-63167810D01*
X84081666Y-63130624D01*
X84158723Y-63082818D01*
X84227357Y-63024392D01*
X84286409Y-62956491D01*
X84334733Y-62880288D01*
X84372316Y-62795770D01*
X84399156Y-62702951D01*
X84415254Y-62601831D01*
X84420625Y-62492394D01*
X84415208Y-62382940D01*
X84398927Y-62281780D01*
X84371797Y-62188900D01*
X84333833Y-62104290D01*
X84285005Y-62027960D01*
X84225328Y-61959910D01*
X84167360Y-61910777D01*
X84156190Y-61901310D01*
X84078966Y-61853390D01*
X83993669Y-61816090D01*
X83900285Y-61789470D01*
X83798814Y-61773490D01*
X83689271Y-61768170D01*
X83616197Y-61770620D01*
X83546083Y-61777990D01*
X83478975Y-61790290D01*
X83414873Y-61807500D01*
X83353746Y-61829630D01*
X83295625Y-61856670D01*
X83241228Y-61888280D01*
X83191255Y-61924130D01*
X83145723Y-61964230D01*
X83104631Y-62008550D01*
X83067964Y-62057140D01*
X83035738Y-62109930D01*
X83008241Y-62166390D01*
X82985734Y-62225900D01*
X82968233Y-62288450D01*
X82955720Y-62354060D01*
X82948228Y-62422723D01*
X82945726Y-62494439D01*
X82416368Y-62494439D01*
X82416368Y-61232350D01*
X82966066Y-61232350D01*
X84167360Y-61232350D01*
X84167360Y-61695150D01*
X84399263Y-61695150D01*
X84399263Y-60468440D01*
X84167360Y-60468440D01*
X84167360Y-60932270D01*
X82966066Y-60932270D01*
X82966066Y-61232350D01*
X82416368Y-61232350D01*
X82416368Y-60414300D01*
X82419448Y-60375190D01*
X82428608Y-60337060D01*
X82443618Y-60300810D01*
X82464128Y-60267360D01*
X82489598Y-60237530D01*
X82519428Y-60212060D01*
X82552878Y-60191550D01*
X82589128Y-60176540D01*
X82627258Y-60167380D01*
X82666368Y-60164300D01*
X84666368Y-60164300D01*
X84705478Y-60167380D01*
X84743608Y-60176540D01*
X84779858Y-60191550D01*
X84813308Y-60212060D01*
X84843138Y-60237530D01*
X84868608Y-60267360D01*
X84889118Y-60300810D01*
X84904128Y-60337060D01*
X84913288Y-60375190D01*
X84916368Y-60414300D01*
X84916368Y-66414300D01*
X84913288Y-66453410D01*
X84904128Y-66491540D01*
X84889118Y-66527790D01*
X84868608Y-66561240D01*
X84843138Y-66591070D01*
X84813308Y-66616540D01*
X84779858Y-66637050D01*
X84743608Y-66652060D01*
X84705478Y-66661220D01*
X84666368Y-66664300D01*
X82666368Y-66664300D01*
X82627258Y-66661220D01*
G37*
X82627258Y-66661220D02*
X82589128Y-66652060D01*
X82552878Y-66637050D01*
X82519428Y-66616540D01*
X82489598Y-66591070D01*
X82464128Y-66561240D01*
X82443618Y-66527790D01*
X82428608Y-66491540D01*
X82419448Y-66453410D01*
X82416368Y-66414300D01*
X82416368Y-66213450D01*
X82966066Y-66213450D01*
X84399263Y-66213450D01*
X84399263Y-65557370D01*
X84396745Y-65473430D01*
X84389146Y-65396580D01*
X84376512Y-65326840D01*
X84358797Y-65264180D01*
X84336046Y-65208630D01*
X84308214Y-65160150D01*
X84275453Y-65118970D01*
X84237871Y-65085270D01*
X84195436Y-65059060D01*
X84148180Y-65040350D01*
X84096101Y-65029120D01*
X84039171Y-65025370D01*
X83999559Y-65027250D01*
X83962038Y-65032890D01*
X83926652Y-65042290D01*
X83893388Y-65055440D01*
X83862230Y-65072350D01*
X83833192Y-65093030D01*
X83806734Y-65117530D01*
X83783296Y-65145970D01*
X83762895Y-65178340D01*
X83745500Y-65214620D01*
X83731126Y-65254850D01*
X83719789Y-65298990D01*
X83711092Y-65243310D01*
X83698595Y-65192240D01*
X83689271Y-65165685D01*
X83682283Y-65145780D01*
X83662157Y-65103920D01*
X83638216Y-65066660D01*
X83610445Y-65034020D01*
X83579179Y-65006200D01*
X83544725Y-64983440D01*
X83507082Y-64965740D01*
X83466249Y-64953090D01*
X83422212Y-64945500D01*
X83374971Y-64942970D01*
X83312334Y-64947050D01*
X83254610Y-64959250D01*
X83201799Y-64979590D01*
X83153902Y-65008080D01*
X83110933Y-65044700D01*
X83072862Y-65089460D01*
X83040224Y-65141440D01*
X83013536Y-65199760D01*
X82992769Y-65264410D01*
X82977937Y-65335380D01*
X82969026Y-65412700D01*
X82966066Y-65496330D01*
X82966066Y-66213450D01*
X82416368Y-66213450D01*
X82416368Y-64076913D01*
X82945726Y-64076913D01*
X82951250Y-64185433D01*
X82967821Y-64285836D01*
X82995439Y-64378121D01*
X83034105Y-64462320D01*
X83083818Y-64538380D01*
X83144578Y-64606360D01*
X83214952Y-64664960D01*
X83293489Y-64712880D01*
X83380189Y-64750180D01*
X83475053Y-64776800D01*
X83578081Y-64792780D01*
X83689271Y-64798100D01*
X83800004Y-64792790D01*
X83902315Y-64776860D01*
X83996202Y-64750300D01*
X84081666Y-64713110D01*
X84158723Y-64665310D01*
X84227357Y-64606870D01*
X84286409Y-64538980D01*
X84334733Y-64462760D01*
X84372316Y-64378259D01*
X84399156Y-64285440D01*
X84415254Y-64184320D01*
X84420625Y-64074883D01*
X84415208Y-63965432D01*
X84398927Y-63864266D01*
X84371797Y-63771386D01*
X84333833Y-63686776D01*
X84285005Y-63610452D01*
X84225328Y-63542398D01*
X84156190Y-63483804D01*
X84078966Y-63435876D01*
X83993669Y-63398599D01*
X83900285Y-63371972D01*
X83798814Y-63355996D01*
X83689271Y-63350671D01*
X83616197Y-63353128D01*
X83546083Y-63360498D01*
X83478975Y-63372796D01*
X83414873Y-63389993D01*
X83353746Y-63412118D01*
X83295625Y-63439157D01*
X83241228Y-63470758D01*
X83191255Y-63506616D01*
X83145723Y-63546716D01*
X83104631Y-63591043D01*
X83067964Y-63639611D01*
X83035738Y-63692422D01*
X83008241Y-63748879D01*
X82985734Y-63808373D01*
X82968233Y-63870935D01*
X82955720Y-63936547D01*
X82948228Y-64005212D01*
X82945726Y-64076913D01*
X82416368Y-64076913D01*
X82416368Y-62494439D01*
X82945726Y-62494439D01*
X82951250Y-62602944D01*
X82967821Y-62703347D01*
X82995439Y-62795648D01*
X83034105Y-62879830D01*
X83083818Y-62955911D01*
X83144578Y-63023873D01*
X83214952Y-63082467D01*
X83293489Y-63130395D01*
X83380189Y-63167687D01*
X83475053Y-63194314D01*
X83578081Y-63210290D01*
X83689271Y-63215615D01*
X83800004Y-63210305D01*
X83902315Y-63194375D01*
X83996202Y-63167810D01*
X84081666Y-63130624D01*
X84158723Y-63082818D01*
X84227357Y-63024392D01*
X84286409Y-62956491D01*
X84334733Y-62880288D01*
X84372316Y-62795770D01*
X84399156Y-62702951D01*
X84415254Y-62601831D01*
X84420625Y-62492394D01*
X84415208Y-62382940D01*
X84398927Y-62281780D01*
X84371797Y-62188900D01*
X84333833Y-62104290D01*
X84285005Y-62027960D01*
X84225328Y-61959910D01*
X84167360Y-61910777D01*
X84156190Y-61901310D01*
X84078966Y-61853390D01*
X83993669Y-61816090D01*
X83900285Y-61789470D01*
X83798814Y-61773490D01*
X83689271Y-61768170D01*
X83616197Y-61770620D01*
X83546083Y-61777990D01*
X83478975Y-61790290D01*
X83414873Y-61807500D01*
X83353746Y-61829630D01*
X83295625Y-61856670D01*
X83241228Y-61888280D01*
X83191255Y-61924130D01*
X83145723Y-61964230D01*
X83104631Y-62008550D01*
X83067964Y-62057140D01*
X83035738Y-62109930D01*
X83008241Y-62166390D01*
X82985734Y-62225900D01*
X82968233Y-62288450D01*
X82955720Y-62354060D01*
X82948228Y-62422723D01*
X82945726Y-62494439D01*
X82416368Y-62494439D01*
X82416368Y-61232350D01*
X82966066Y-61232350D01*
X84167360Y-61232350D01*
X84167360Y-61695150D01*
X84399263Y-61695150D01*
X84399263Y-60468440D01*
X84167360Y-60468440D01*
X84167360Y-60932270D01*
X82966066Y-60932270D01*
X82966066Y-61232350D01*
X82416368Y-61232350D01*
X82416368Y-60414300D01*
X82419448Y-60375190D01*
X82428608Y-60337060D01*
X82443618Y-60300810D01*
X82464128Y-60267360D01*
X82489598Y-60237530D01*
X82519428Y-60212060D01*
X82552878Y-60191550D01*
X82589128Y-60176540D01*
X82627258Y-60167380D01*
X82666368Y-60164300D01*
X84666368Y-60164300D01*
X84705478Y-60167380D01*
X84743608Y-60176540D01*
X84779858Y-60191550D01*
X84813308Y-60212060D01*
X84843138Y-60237530D01*
X84868608Y-60267360D01*
X84889118Y-60300810D01*
X84904128Y-60337060D01*
X84913288Y-60375190D01*
X84916368Y-60414300D01*
X84916368Y-66414300D01*
X84913288Y-66453410D01*
X84904128Y-66491540D01*
X84889118Y-66527790D01*
X84868608Y-66561240D01*
X84843138Y-66591070D01*
X84813308Y-66616540D01*
X84779858Y-66637050D01*
X84743608Y-66652060D01*
X84705478Y-66661220D01*
X84666368Y-66664300D01*
X82666368Y-66664300D01*
X82627258Y-66661220D01*
D11*
X80628571Y-44986666D02*
X80652380Y-44962857D01*
X80676190Y-44891428D01*
X80676190Y-44843809D01*
X80652380Y-44772380D01*
X80604761Y-44724761D01*
X80557142Y-44700952D01*
X80461904Y-44677142D01*
X80390476Y-44677142D01*
X80295238Y-44700952D01*
X80247619Y-44724761D01*
X80200000Y-44772380D01*
X80176190Y-44843809D01*
X80176190Y-44891428D01*
X80200000Y-44962857D01*
X80223809Y-44986666D01*
X80676190Y-45462857D02*
X80676190Y-45177142D01*
X80676190Y-45320000D02*
X80176190Y-45320000D01*
X80247619Y-45272380D01*
X80295238Y-45224761D01*
X80319047Y-45177142D01*
X88383333Y-61378571D02*
X88407142Y-61402380D01*
X88478571Y-61426190D01*
X88526190Y-61426190D01*
X88597619Y-61402380D01*
X88645238Y-61354761D01*
X88669047Y-61307142D01*
X88692857Y-61211904D01*
X88692857Y-61140476D01*
X88669047Y-61045238D01*
X88645238Y-60997619D01*
X88597619Y-60950000D01*
X88526190Y-60926190D01*
X88478571Y-60926190D01*
X88407142Y-60950000D01*
X88383333Y-60973809D01*
X88097619Y-61140476D02*
X88145238Y-61116666D01*
X88169047Y-61092857D01*
X88192857Y-61045238D01*
X88192857Y-61021428D01*
X88169047Y-60973809D01*
X88145238Y-60950000D01*
X88097619Y-60926190D01*
X88002380Y-60926190D01*
X87954761Y-60950000D01*
X87930952Y-60973809D01*
X87907142Y-61021428D01*
X87907142Y-61045238D01*
X87930952Y-61092857D01*
X87954761Y-61116666D01*
X88002380Y-61140476D01*
X88097619Y-61140476D01*
X88145238Y-61164285D01*
X88169047Y-61188095D01*
X88192857Y-61235714D01*
X88192857Y-61330952D01*
X88169047Y-61378571D01*
X88145238Y-61402380D01*
X88097619Y-61426190D01*
X88002380Y-61426190D01*
X87954761Y-61402380D01*
X87930952Y-61378571D01*
X87907142Y-61330952D01*
X87907142Y-61235714D01*
X87930952Y-61188095D01*
X87954761Y-61164285D01*
X88002380Y-61140476D01*
X82433333Y-49248571D02*
X82457142Y-49272380D01*
X82528571Y-49296190D01*
X82576190Y-49296190D01*
X82647619Y-49272380D01*
X82695238Y-49224761D01*
X82719047Y-49177142D01*
X82742857Y-49081904D01*
X82742857Y-49010476D01*
X82719047Y-48915238D01*
X82695238Y-48867619D01*
X82647619Y-48820000D01*
X82576190Y-48796190D01*
X82528571Y-48796190D01*
X82457142Y-48820000D01*
X82433333Y-48843809D01*
X82004761Y-48796190D02*
X82100000Y-48796190D01*
X82147619Y-48820000D01*
X82171428Y-48843809D01*
X82219047Y-48915238D01*
X82242857Y-49010476D01*
X82242857Y-49200952D01*
X82219047Y-49248571D01*
X82195238Y-49272380D01*
X82147619Y-49296190D01*
X82052380Y-49296190D01*
X82004761Y-49272380D01*
X81980952Y-49248571D01*
X81957142Y-49200952D01*
X81957142Y-49081904D01*
X81980952Y-49034285D01*
X82004761Y-49010476D01*
X82052380Y-48986666D01*
X82147619Y-48986666D01*
X82195238Y-49010476D01*
X82219047Y-49034285D01*
X82242857Y-49081904D01*
X93143333Y-49016190D02*
X93310000Y-48778095D01*
X93429047Y-49016190D02*
X93429047Y-48516190D01*
X93238571Y-48516190D01*
X93190952Y-48540000D01*
X93167142Y-48563809D01*
X93143333Y-48611428D01*
X93143333Y-48682857D01*
X93167142Y-48730476D01*
X93190952Y-48754285D01*
X93238571Y-48778095D01*
X93429047Y-48778095D01*
X92857619Y-48730476D02*
X92905238Y-48706666D01*
X92929047Y-48682857D01*
X92952857Y-48635238D01*
X92952857Y-48611428D01*
X92929047Y-48563809D01*
X92905238Y-48540000D01*
X92857619Y-48516190D01*
X92762380Y-48516190D01*
X92714761Y-48540000D01*
X92690952Y-48563809D01*
X92667142Y-48611428D01*
X92667142Y-48635238D01*
X92690952Y-48682857D01*
X92714761Y-48706666D01*
X92762380Y-48730476D01*
X92857619Y-48730476D01*
X92905238Y-48754285D01*
X92929047Y-48778095D01*
X92952857Y-48825714D01*
X92952857Y-48920952D01*
X92929047Y-48968571D01*
X92905238Y-48992380D01*
X92857619Y-49016190D01*
X92762380Y-49016190D01*
X92714761Y-48992380D01*
X92690952Y-48968571D01*
X92667142Y-48920952D01*
X92667142Y-48825714D01*
X92690952Y-48778095D01*
X92714761Y-48754285D01*
X92762380Y-48730476D01*
X86601428Y-52948571D02*
X86625238Y-52972380D01*
X86696666Y-52996190D01*
X86744285Y-52996190D01*
X86815714Y-52972380D01*
X86863333Y-52924761D01*
X86887142Y-52877142D01*
X86910952Y-52781904D01*
X86910952Y-52710476D01*
X86887142Y-52615238D01*
X86863333Y-52567619D01*
X86815714Y-52520000D01*
X86744285Y-52496190D01*
X86696666Y-52496190D01*
X86625238Y-52520000D01*
X86601428Y-52543809D01*
X86125238Y-52996190D02*
X86410952Y-52996190D01*
X86268095Y-52996190D02*
X86268095Y-52496190D01*
X86315714Y-52567619D01*
X86363333Y-52615238D01*
X86410952Y-52639047D01*
X85672857Y-52496190D02*
X85910952Y-52496190D01*
X85934761Y-52734285D01*
X85910952Y-52710476D01*
X85863333Y-52686666D01*
X85744285Y-52686666D01*
X85696666Y-52710476D01*
X85672857Y-52734285D01*
X85649047Y-52781904D01*
X85649047Y-52900952D01*
X85672857Y-52948571D01*
X85696666Y-52972380D01*
X85744285Y-52996190D01*
X85863333Y-52996190D01*
X85910952Y-52972380D01*
X85934761Y-52948571D01*
X84330952Y-46096190D02*
X84330952Y-46500952D01*
X84307142Y-46548571D01*
X84283333Y-46572380D01*
X84235714Y-46596190D01*
X84140476Y-46596190D01*
X84092857Y-46572380D01*
X84069047Y-46548571D01*
X84045238Y-46500952D01*
X84045238Y-46096190D01*
X83545238Y-46596190D02*
X83830952Y-46596190D01*
X83688095Y-46596190D02*
X83688095Y-46096190D01*
X83735714Y-46167619D01*
X83783333Y-46215238D01*
X83830952Y-46239047D01*
X90747619Y-52013809D02*
X90795238Y-51990000D01*
X90842857Y-51942380D01*
X90914285Y-51870952D01*
X90961904Y-51847142D01*
X91009523Y-51847142D01*
X90985714Y-51966190D02*
X91033333Y-51942380D01*
X91080952Y-51894761D01*
X91104761Y-51799523D01*
X91104761Y-51632857D01*
X91080952Y-51537619D01*
X91033333Y-51490000D01*
X90985714Y-51466190D01*
X90890476Y-51466190D01*
X90842857Y-51490000D01*
X90795238Y-51537619D01*
X90771428Y-51632857D01*
X90771428Y-51799523D01*
X90795238Y-51894761D01*
X90842857Y-51942380D01*
X90890476Y-51966190D01*
X90985714Y-51966190D01*
X90295238Y-51966190D02*
X90580952Y-51966190D01*
X90438095Y-51966190D02*
X90438095Y-51466190D01*
X90485714Y-51537619D01*
X90533333Y-51585238D01*
X90580952Y-51609047D01*
X89693333Y-53368571D02*
X89717142Y-53392380D01*
X89788571Y-53416190D01*
X89836190Y-53416190D01*
X89907619Y-53392380D01*
X89955238Y-53344761D01*
X89979047Y-53297142D01*
X90002857Y-53201904D01*
X90002857Y-53130476D01*
X89979047Y-53035238D01*
X89955238Y-52987619D01*
X89907619Y-52940000D01*
X89836190Y-52916190D01*
X89788571Y-52916190D01*
X89717142Y-52940000D01*
X89693333Y-52963809D01*
X89455238Y-53416190D02*
X89360000Y-53416190D01*
X89312380Y-53392380D01*
X89288571Y-53368571D01*
X89240952Y-53297142D01*
X89217142Y-53201904D01*
X89217142Y-53011428D01*
X89240952Y-52963809D01*
X89264761Y-52940000D01*
X89312380Y-52916190D01*
X89407619Y-52916190D01*
X89455238Y-52940000D01*
X89479047Y-52963809D01*
X89502857Y-53011428D01*
X89502857Y-53130476D01*
X89479047Y-53178095D01*
X89455238Y-53201904D01*
X89407619Y-53225714D01*
X89312380Y-53225714D01*
X89264761Y-53201904D01*
X89240952Y-53178095D01*
X89217142Y-53130476D01*
X86071428Y-50098571D02*
X86095238Y-50122380D01*
X86166666Y-50146190D01*
X86214285Y-50146190D01*
X86285714Y-50122380D01*
X86333333Y-50074761D01*
X86357142Y-50027142D01*
X86380952Y-49931904D01*
X86380952Y-49860476D01*
X86357142Y-49765238D01*
X86333333Y-49717619D01*
X86285714Y-49670000D01*
X86214285Y-49646190D01*
X86166666Y-49646190D01*
X86095238Y-49670000D01*
X86071428Y-49693809D01*
X85595238Y-50146190D02*
X85880952Y-50146190D01*
X85738095Y-50146190D02*
X85738095Y-49646190D01*
X85785714Y-49717619D01*
X85833333Y-49765238D01*
X85880952Y-49789047D01*
X85285714Y-49646190D02*
X85238095Y-49646190D01*
X85190476Y-49670000D01*
X85166666Y-49693809D01*
X85142857Y-49741428D01*
X85119047Y-49836666D01*
X85119047Y-49955714D01*
X85142857Y-50050952D01*
X85166666Y-50098571D01*
X85190476Y-50122380D01*
X85238095Y-50146190D01*
X85285714Y-50146190D01*
X85333333Y-50122380D01*
X85357142Y-50098571D01*
X85380952Y-50050952D01*
X85404761Y-49955714D01*
X85404761Y-49836666D01*
X85380952Y-49741428D01*
X85357142Y-49693809D01*
X85333333Y-49670000D01*
X85285714Y-49646190D01*
X89873333Y-53978571D02*
X89897142Y-54002380D01*
X89968571Y-54026190D01*
X90016190Y-54026190D01*
X90087619Y-54002380D01*
X90135238Y-53954761D01*
X90159047Y-53907142D01*
X90182857Y-53811904D01*
X90182857Y-53740476D01*
X90159047Y-53645238D01*
X90135238Y-53597619D01*
X90087619Y-53550000D01*
X90016190Y-53526190D01*
X89968571Y-53526190D01*
X89897142Y-53550000D01*
X89873333Y-53573809D01*
X89682857Y-53573809D02*
X89659047Y-53550000D01*
X89611428Y-53526190D01*
X89492380Y-53526190D01*
X89444761Y-53550000D01*
X89420952Y-53573809D01*
X89397142Y-53621428D01*
X89397142Y-53669047D01*
X89420952Y-53740476D01*
X89706666Y-54026190D01*
X89397142Y-54026190D01*
X86591428Y-53648571D02*
X86615238Y-53672380D01*
X86686666Y-53696190D01*
X86734285Y-53696190D01*
X86805714Y-53672380D01*
X86853333Y-53624761D01*
X86877142Y-53577142D01*
X86900952Y-53481904D01*
X86900952Y-53410476D01*
X86877142Y-53315238D01*
X86853333Y-53267619D01*
X86805714Y-53220000D01*
X86734285Y-53196190D01*
X86686666Y-53196190D01*
X86615238Y-53220000D01*
X86591428Y-53243809D01*
X86115238Y-53696190D02*
X86400952Y-53696190D01*
X86258095Y-53696190D02*
X86258095Y-53196190D01*
X86305714Y-53267619D01*
X86353333Y-53315238D01*
X86400952Y-53339047D01*
X85639047Y-53696190D02*
X85924761Y-53696190D01*
X85781904Y-53696190D02*
X85781904Y-53196190D01*
X85829523Y-53267619D01*
X85877142Y-53315238D01*
X85924761Y-53339047D01*
X83113333Y-41266190D02*
X83280000Y-41028095D01*
X83399047Y-41266190D02*
X83399047Y-40766190D01*
X83208571Y-40766190D01*
X83160952Y-40790000D01*
X83137142Y-40813809D01*
X83113333Y-40861428D01*
X83113333Y-40932857D01*
X83137142Y-40980476D01*
X83160952Y-41004285D01*
X83208571Y-41028095D01*
X83399047Y-41028095D01*
X82875238Y-41266190D02*
X82780000Y-41266190D01*
X82732380Y-41242380D01*
X82708571Y-41218571D01*
X82660952Y-41147142D01*
X82637142Y-41051904D01*
X82637142Y-40861428D01*
X82660952Y-40813809D01*
X82684761Y-40790000D01*
X82732380Y-40766190D01*
X82827619Y-40766190D01*
X82875238Y-40790000D01*
X82899047Y-40813809D01*
X82922857Y-40861428D01*
X82922857Y-40980476D01*
X82899047Y-41028095D01*
X82875238Y-41051904D01*
X82827619Y-41075714D01*
X82732380Y-41075714D01*
X82684761Y-41051904D01*
X82660952Y-41028095D01*
X82637142Y-40980476D01*
D12*
X80240000Y-46607836D02*
X80240000Y-46392164D01*
X80960000Y-46607836D02*
X80960000Y-46392164D01*
X82242164Y-47810000D02*
X82457836Y-47810000D01*
X82242164Y-48530000D02*
X82457836Y-48530000D01*
X92670000Y-49916359D02*
X92670000Y-50223641D01*
X93430000Y-49916359D02*
X93430000Y-50223641D01*
X81450000Y-45600000D02*
X81450000Y-47150000D01*
X83250000Y-47150000D02*
X83250000Y-45850000D01*
X91970000Y-54530000D02*
X91320000Y-54530000D01*
X91970000Y-51410000D02*
X93645000Y-51410000D01*
X91970000Y-51410000D02*
X91320000Y-51410000D01*
X91970000Y-54530000D02*
X92620000Y-54530000D01*
X89607836Y-55140000D02*
X89392164Y-55140000D01*
X89607836Y-55860000D02*
X89392164Y-55860000D01*
X82430000Y-41813641D02*
X82430000Y-41506359D01*
X81670000Y-41813641D02*
X81670000Y-41506359D01*
%LPC*%
D13*
X81750000Y-63699999D03*
X81750000Y-65700001D03*
X92250000Y-63699999D03*
X92250000Y-65700001D03*
D14*
X89250000Y-42245000D03*
X84650000Y-42245000D03*
D15*
X80600000Y-46980000D03*
X80600000Y-46020000D03*
D16*
X88620000Y-60500000D03*
X87980000Y-60500000D03*
D17*
X81870000Y-48170000D03*
X82830000Y-48170000D03*
D18*
X93050000Y-49560000D03*
X93050000Y-50580000D03*
D19*
X85960000Y-54200000D03*
X86600000Y-54200000D03*
D20*
X81850000Y-45800000D03*
X82350000Y-45800000D03*
X82850000Y-45800000D03*
X82850000Y-47200000D03*
X81850000Y-47200000D03*
D21*
X92907500Y-52020000D03*
X92907500Y-53920000D03*
X91032500Y-52970000D03*
D16*
X89620000Y-54500000D03*
X88980000Y-54500000D03*
D22*
X85750000Y-49140000D03*
X85750000Y-48500000D03*
D23*
X89980000Y-55500000D03*
X89020000Y-55500000D03*
D19*
X85960000Y-55050000D03*
X86600000Y-55050000D03*
D24*
X82050000Y-42170000D03*
X82050000Y-41150000D03*
M02*
