G04 #@! TF.GenerationSoftware,KiCad,Pcbnew,(6.0.5-0)*
G04 #@! TF.CreationDate,2022-09-21T23:51:35-04:00*
G04 #@! TF.ProjectId,pico_ducky_pcb,7069636f-5f64-4756-936b-795f7063622e,rev?*
G04 #@! TF.SameCoordinates,Original*
G04 #@! TF.FileFunction,Copper,L3,Inr*
G04 #@! TF.FilePolarity,Positive*
%FSLAX46Y46*%
G04 Gerber Fmt 4.6, Leading zero omitted, Abs format (unit mm)*
G04 Created by KiCad (PCBNEW (6.0.5-0)) date 2022-09-21 23:51:35*
%MOMM*%
%LPD*%
G01*
G04 APERTURE LIST*
G04 #@! TA.AperFunction,ComponentPad*
%ADD10C,0.600000*%
G04 #@! TD*
G04 #@! TA.AperFunction,ComponentPad*
%ADD11C,2.600000*%
G04 #@! TD*
G04 #@! TA.AperFunction,ViaPad*
%ADD12C,0.600000*%
G04 #@! TD*
G04 #@! TA.AperFunction,ViaPad*
%ADD13C,0.800000*%
G04 #@! TD*
G04 APERTURE END LIST*
D10*
X85825000Y-58000000D03*
X88375000Y-59275000D03*
X88375000Y-58000000D03*
X85825000Y-56725000D03*
X88375000Y-56725000D03*
X87100000Y-56725000D03*
X87100000Y-59275000D03*
X87100000Y-58000000D03*
X85825000Y-59275000D03*
D11*
X89250000Y-42245000D03*
X84650000Y-42245000D03*
D12*
X93550000Y-65860000D03*
X91500000Y-46620000D03*
X87100000Y-63030000D03*
X85950000Y-55750000D03*
X91500000Y-47870000D03*
X84000000Y-51500000D03*
D13*
X82350000Y-45070000D03*
D12*
X87625000Y-66205000D03*
X92750000Y-47870000D03*
X82495000Y-57685000D03*
X85150000Y-49130000D03*
X88585000Y-66380000D03*
X81150000Y-62335000D03*
X91700000Y-54110000D03*
X84000000Y-50500000D03*
X92750000Y-44120000D03*
X81700000Y-53100000D03*
X81680000Y-54180000D03*
X90450000Y-54470000D03*
X92750000Y-46620000D03*
X84000000Y-49500000D03*
X90800000Y-51080000D03*
X91700000Y-57800000D03*
X85420000Y-62960000D03*
X80440000Y-48480000D03*
D13*
X81220000Y-41150000D03*
D12*
X92750000Y-45370000D03*
X81950000Y-44170000D03*
X80950000Y-44170000D03*
X92350000Y-49520000D03*
X80950000Y-45070000D03*
X89800000Y-51700000D03*
X92750000Y-60870000D03*
X91700000Y-59600000D03*
X84550000Y-47020000D03*
X92250000Y-52730000D03*
X83550000Y-47020000D03*
X87300000Y-53650000D03*
X87300000Y-60500000D03*
X82695000Y-55835000D03*
X81700000Y-55050000D03*
X82495000Y-59695000D03*
X84050000Y-47770000D03*
X86080000Y-47870000D03*
X89000000Y-53700000D03*
X86900000Y-55750000D03*
X92350000Y-50570000D03*
X83160000Y-54560000D03*
X81467500Y-56327500D03*
X87610000Y-47070000D03*
X87610000Y-48620000D03*
X88500000Y-46660000D03*
X88100000Y-50510000D03*
X84890723Y-53300980D03*
X84900000Y-55550000D03*
X91480000Y-56200000D03*
X93050000Y-54720000D03*
G04 #@! TA.AperFunction,Conductor*
G36*
X93841621Y-40120502D02*
G01*
X93888114Y-40174158D01*
X93899500Y-40226500D01*
X93899500Y-65382974D01*
X93879498Y-65451095D01*
X93825842Y-65497588D01*
X93755568Y-65507692D01*
X93716297Y-65495241D01*
X93710703Y-65492391D01*
X93675304Y-65474354D01*
X93665515Y-65472804D01*
X93665513Y-65472803D01*
X93559793Y-65456059D01*
X93550000Y-65454508D01*
X93540207Y-65456059D01*
X93434487Y-65472803D01*
X93434485Y-65472804D01*
X93424696Y-65474354D01*
X93311658Y-65531950D01*
X93221950Y-65621658D01*
X93164354Y-65734696D01*
X93162804Y-65744485D01*
X93162803Y-65744487D01*
X93151365Y-65816708D01*
X93144508Y-65860000D01*
X93164354Y-65985304D01*
X93221950Y-66098342D01*
X93311658Y-66188050D01*
X93424696Y-66245646D01*
X93434485Y-66247196D01*
X93434487Y-66247197D01*
X93540207Y-66263941D01*
X93550000Y-66265492D01*
X93559793Y-66263941D01*
X93665513Y-66247197D01*
X93665515Y-66247196D01*
X93675304Y-66245646D01*
X93716297Y-66224759D01*
X93786074Y-66211655D01*
X93851859Y-66238355D01*
X93892765Y-66296383D01*
X93899500Y-66337026D01*
X93899500Y-66874000D01*
X93879498Y-66942121D01*
X93825842Y-66988614D01*
X93773500Y-67000000D01*
X91187196Y-67000000D01*
X91119075Y-66979998D01*
X91090361Y-66952877D01*
X91085490Y-66937888D01*
X91071950Y-66928050D01*
X91062112Y-66914510D01*
X91046195Y-66909338D01*
X91032654Y-66899500D01*
X88936082Y-66899500D01*
X88867961Y-66879498D01*
X88821468Y-66825842D01*
X88811364Y-66755568D01*
X88840858Y-66690988D01*
X88846987Y-66684405D01*
X88913050Y-66618342D01*
X88970646Y-66505304D01*
X88980260Y-66444607D01*
X88988941Y-66389793D01*
X88990492Y-66380000D01*
X88970646Y-66254696D01*
X88913050Y-66141658D01*
X88823342Y-66051950D01*
X88710304Y-65994354D01*
X88700515Y-65992804D01*
X88700513Y-65992803D01*
X88594793Y-65976059D01*
X88585000Y-65974508D01*
X88575207Y-65976059D01*
X88469487Y-65992803D01*
X88469485Y-65992804D01*
X88459696Y-65994354D01*
X88346658Y-66051950D01*
X88256950Y-66141658D01*
X88252450Y-66150490D01*
X88246617Y-66158518D01*
X88245508Y-66157712D01*
X88203843Y-66201826D01*
X88134928Y-66218892D01*
X88067727Y-66195991D01*
X88023575Y-66140393D01*
X88015876Y-66112718D01*
X88012197Y-66089488D01*
X88012197Y-66089487D01*
X88010646Y-66079696D01*
X87953050Y-65966658D01*
X87863342Y-65876950D01*
X87750304Y-65819354D01*
X87740515Y-65817804D01*
X87740513Y-65817803D01*
X87634793Y-65801059D01*
X87625000Y-65799508D01*
X87615207Y-65801059D01*
X87509487Y-65817803D01*
X87509485Y-65817804D01*
X87499696Y-65819354D01*
X87386658Y-65876950D01*
X87296950Y-65966658D01*
X87239354Y-66079696D01*
X87237804Y-66089485D01*
X87237803Y-66089487D01*
X87222193Y-66188050D01*
X87219508Y-66205000D01*
X87221059Y-66214793D01*
X87227602Y-66256101D01*
X87239354Y-66330304D01*
X87296950Y-66443342D01*
X87386658Y-66533050D01*
X87499696Y-66590646D01*
X87509485Y-66592196D01*
X87509487Y-66592197D01*
X87615207Y-66608941D01*
X87625000Y-66610492D01*
X87634793Y-66608941D01*
X87740513Y-66592197D01*
X87740515Y-66592196D01*
X87750304Y-66590646D01*
X87863342Y-66533050D01*
X87953050Y-66443342D01*
X87957551Y-66434509D01*
X87963383Y-66426482D01*
X87964492Y-66427288D01*
X88006157Y-66383174D01*
X88075072Y-66366108D01*
X88142273Y-66389009D01*
X88186425Y-66444607D01*
X88194124Y-66472281D01*
X88199354Y-66505304D01*
X88256950Y-66618342D01*
X88323013Y-66684405D01*
X88357039Y-66746717D01*
X88351974Y-66817532D01*
X88309427Y-66874368D01*
X88242907Y-66899179D01*
X88233918Y-66899500D01*
X82967346Y-66899500D01*
X82953805Y-66909338D01*
X82937888Y-66914510D01*
X82928050Y-66928050D01*
X82914510Y-66937888D01*
X82910023Y-66951697D01*
X82858521Y-66991414D01*
X82812804Y-67000000D01*
X80226500Y-67000000D01*
X80158379Y-66979998D01*
X80111886Y-66926342D01*
X80100500Y-66874000D01*
X80100500Y-65735247D01*
X81189780Y-65735247D01*
X81219895Y-65884603D01*
X81289066Y-66020359D01*
X81392196Y-66132512D01*
X81399498Y-66137040D01*
X81399500Y-66137041D01*
X81421193Y-66150491D01*
X81521687Y-66212800D01*
X81529936Y-66215196D01*
X81529937Y-66215197D01*
X81542656Y-66218892D01*
X81668000Y-66255307D01*
X81675365Y-66255848D01*
X81676505Y-66255932D01*
X81676516Y-66255932D01*
X81678812Y-66256101D01*
X81788165Y-66256101D01*
X81792410Y-66255519D01*
X81792417Y-66255519D01*
X81892443Y-66241817D01*
X81892446Y-66241816D01*
X81900952Y-66240651D01*
X82004156Y-66195991D01*
X82032894Y-66183555D01*
X82032895Y-66183555D01*
X82040783Y-66180141D01*
X82067485Y-66158518D01*
X82152513Y-66089664D01*
X82152514Y-66089663D01*
X82159191Y-66084256D01*
X82164167Y-66077254D01*
X82164169Y-66077252D01*
X82242475Y-65967064D01*
X82247451Y-65960062D01*
X82277650Y-65876182D01*
X82296154Y-65824786D01*
X82296154Y-65824784D01*
X82299062Y-65816708D01*
X82305044Y-65735247D01*
X91689780Y-65735247D01*
X91719895Y-65884603D01*
X91789066Y-66020359D01*
X91892196Y-66132512D01*
X91899498Y-66137040D01*
X91899500Y-66137041D01*
X91921193Y-66150491D01*
X92021687Y-66212800D01*
X92029936Y-66215196D01*
X92029937Y-66215197D01*
X92042656Y-66218892D01*
X92168000Y-66255307D01*
X92175365Y-66255848D01*
X92176505Y-66255932D01*
X92176516Y-66255932D01*
X92178812Y-66256101D01*
X92288165Y-66256101D01*
X92292410Y-66255519D01*
X92292417Y-66255519D01*
X92392443Y-66241817D01*
X92392446Y-66241816D01*
X92400952Y-66240651D01*
X92504156Y-66195991D01*
X92532894Y-66183555D01*
X92532895Y-66183555D01*
X92540783Y-66180141D01*
X92567485Y-66158518D01*
X92652513Y-66089664D01*
X92652514Y-66089663D01*
X92659191Y-66084256D01*
X92664167Y-66077254D01*
X92664169Y-66077252D01*
X92742475Y-65967064D01*
X92747451Y-65960062D01*
X92777650Y-65876182D01*
X92796154Y-65824786D01*
X92796154Y-65824784D01*
X92799062Y-65816708D01*
X92810220Y-65664755D01*
X92780105Y-65515399D01*
X92710934Y-65379643D01*
X92607804Y-65267490D01*
X92600502Y-65262962D01*
X92600500Y-65262961D01*
X92485614Y-65191729D01*
X92485615Y-65191729D01*
X92478313Y-65187202D01*
X92470064Y-65184806D01*
X92470063Y-65184805D01*
X92338340Y-65146537D01*
X92338341Y-65146537D01*
X92332000Y-65144695D01*
X92324635Y-65144154D01*
X92323495Y-65144070D01*
X92323484Y-65144070D01*
X92321188Y-65143901D01*
X92211835Y-65143901D01*
X92207590Y-65144483D01*
X92207583Y-65144483D01*
X92107557Y-65158185D01*
X92107554Y-65158186D01*
X92099048Y-65159351D01*
X91959217Y-65219861D01*
X91840809Y-65315746D01*
X91835833Y-65322748D01*
X91835831Y-65322750D01*
X91757525Y-65432938D01*
X91752549Y-65439940D01*
X91700938Y-65583294D01*
X91700310Y-65591852D01*
X91700309Y-65591855D01*
X91698121Y-65621658D01*
X91689780Y-65735247D01*
X82305044Y-65735247D01*
X82310220Y-65664755D01*
X82280105Y-65515399D01*
X82210934Y-65379643D01*
X82107804Y-65267490D01*
X82100502Y-65262962D01*
X82100500Y-65262961D01*
X81985614Y-65191729D01*
X81985615Y-65191729D01*
X81978313Y-65187202D01*
X81970064Y-65184806D01*
X81970063Y-65184805D01*
X81838340Y-65146537D01*
X81838341Y-65146537D01*
X81832000Y-65144695D01*
X81824635Y-65144154D01*
X81823495Y-65144070D01*
X81823484Y-65144070D01*
X81821188Y-65143901D01*
X81711835Y-65143901D01*
X81707590Y-65144483D01*
X81707583Y-65144483D01*
X81607557Y-65158185D01*
X81607554Y-65158186D01*
X81599048Y-65159351D01*
X81459217Y-65219861D01*
X81340809Y-65315746D01*
X81335833Y-65322748D01*
X81335831Y-65322750D01*
X81257525Y-65432938D01*
X81252549Y-65439940D01*
X81200938Y-65583294D01*
X81200310Y-65591852D01*
X81200309Y-65591855D01*
X81198121Y-65621658D01*
X81189780Y-65735247D01*
X80100500Y-65735247D01*
X80100500Y-63735245D01*
X81189780Y-63735245D01*
X81219895Y-63884601D01*
X81289066Y-64020357D01*
X81392196Y-64132510D01*
X81399498Y-64137038D01*
X81399500Y-64137039D01*
X81460288Y-64174729D01*
X81521687Y-64212798D01*
X81529936Y-64215194D01*
X81529937Y-64215195D01*
X81605812Y-64237238D01*
X81668000Y-64255305D01*
X81675365Y-64255846D01*
X81676505Y-64255930D01*
X81676516Y-64255930D01*
X81678812Y-64256099D01*
X81788165Y-64256099D01*
X81792410Y-64255517D01*
X81792417Y-64255517D01*
X81892443Y-64241815D01*
X81892446Y-64241814D01*
X81900952Y-64240649D01*
X82040783Y-64180139D01*
X82159191Y-64084254D01*
X82164167Y-64077252D01*
X82164169Y-64077250D01*
X82242475Y-63967062D01*
X82247451Y-63960060D01*
X82299062Y-63816706D01*
X82305044Y-63735245D01*
X91689780Y-63735245D01*
X91719895Y-63884601D01*
X91789066Y-64020357D01*
X91892196Y-64132510D01*
X91899498Y-64137038D01*
X91899500Y-64137039D01*
X91960288Y-64174729D01*
X92021687Y-64212798D01*
X92029936Y-64215194D01*
X92029937Y-64215195D01*
X92105812Y-64237238D01*
X92168000Y-64255305D01*
X92175365Y-64255846D01*
X92176505Y-64255930D01*
X92176516Y-64255930D01*
X92178812Y-64256099D01*
X92288165Y-64256099D01*
X92292410Y-64255517D01*
X92292417Y-64255517D01*
X92392443Y-64241815D01*
X92392446Y-64241814D01*
X92400952Y-64240649D01*
X92540783Y-64180139D01*
X92659191Y-64084254D01*
X92664167Y-64077252D01*
X92664169Y-64077250D01*
X92742475Y-63967062D01*
X92747451Y-63960060D01*
X92799062Y-63816706D01*
X92810220Y-63664753D01*
X92780105Y-63515397D01*
X92710934Y-63379641D01*
X92697924Y-63365492D01*
X92613622Y-63273815D01*
X92607804Y-63267488D01*
X92600502Y-63262960D01*
X92600500Y-63262959D01*
X92485614Y-63191727D01*
X92485615Y-63191727D01*
X92478313Y-63187200D01*
X92470064Y-63184804D01*
X92470063Y-63184803D01*
X92338340Y-63146535D01*
X92338341Y-63146535D01*
X92332000Y-63144693D01*
X92324635Y-63144152D01*
X92323495Y-63144068D01*
X92323484Y-63144068D01*
X92321188Y-63143899D01*
X92211835Y-63143899D01*
X92207590Y-63144481D01*
X92207583Y-63144481D01*
X92107557Y-63158183D01*
X92107554Y-63158184D01*
X92099048Y-63159349D01*
X92091165Y-63162760D01*
X92091166Y-63162760D01*
X91992739Y-63205353D01*
X91959217Y-63219859D01*
X91952537Y-63225268D01*
X91952536Y-63225269D01*
X91890688Y-63275353D01*
X91840809Y-63315744D01*
X91835833Y-63322746D01*
X91835831Y-63322748D01*
X91773011Y-63411145D01*
X91752549Y-63439938D01*
X91700938Y-63583292D01*
X91689780Y-63735245D01*
X82305044Y-63735245D01*
X82310220Y-63664753D01*
X82280105Y-63515397D01*
X82210934Y-63379641D01*
X82197924Y-63365492D01*
X82113622Y-63273815D01*
X82107804Y-63267488D01*
X82100502Y-63262960D01*
X82100500Y-63262959D01*
X81985614Y-63191727D01*
X81985615Y-63191727D01*
X81978313Y-63187200D01*
X81970064Y-63184804D01*
X81970063Y-63184803D01*
X81838340Y-63146535D01*
X81838341Y-63146535D01*
X81832000Y-63144693D01*
X81824635Y-63144152D01*
X81823495Y-63144068D01*
X81823484Y-63144068D01*
X81821188Y-63143899D01*
X81711835Y-63143899D01*
X81707590Y-63144481D01*
X81707583Y-63144481D01*
X81607557Y-63158183D01*
X81607554Y-63158184D01*
X81599048Y-63159349D01*
X81591165Y-63162760D01*
X81591166Y-63162760D01*
X81492739Y-63205353D01*
X81459217Y-63219859D01*
X81452537Y-63225268D01*
X81452536Y-63225269D01*
X81390688Y-63275353D01*
X81340809Y-63315744D01*
X81335833Y-63322746D01*
X81335831Y-63322748D01*
X81273011Y-63411145D01*
X81252549Y-63439938D01*
X81200938Y-63583292D01*
X81189780Y-63735245D01*
X80100500Y-63735245D01*
X80100500Y-62960000D01*
X85014508Y-62960000D01*
X85034354Y-63085304D01*
X85091950Y-63198342D01*
X85181658Y-63288050D01*
X85294696Y-63345646D01*
X85304485Y-63347196D01*
X85304487Y-63347197D01*
X85410207Y-63363941D01*
X85420000Y-63365492D01*
X85429793Y-63363941D01*
X85535513Y-63347197D01*
X85535515Y-63347196D01*
X85545304Y-63345646D01*
X85658342Y-63288050D01*
X85748050Y-63198342D01*
X85805646Y-63085304D01*
X85814405Y-63030000D01*
X86694508Y-63030000D01*
X86696059Y-63039793D01*
X86712548Y-63143899D01*
X86714354Y-63155304D01*
X86771950Y-63268342D01*
X86861658Y-63358050D01*
X86974696Y-63415646D01*
X86984485Y-63417196D01*
X86984487Y-63417197D01*
X87090207Y-63433941D01*
X87100000Y-63435492D01*
X87109793Y-63433941D01*
X87215513Y-63417197D01*
X87215515Y-63417196D01*
X87225304Y-63415646D01*
X87338342Y-63358050D01*
X87428050Y-63268342D01*
X87485646Y-63155304D01*
X87487453Y-63143899D01*
X87503941Y-63039793D01*
X87505492Y-63030000D01*
X87485646Y-62904696D01*
X87428050Y-62791658D01*
X87338342Y-62701950D01*
X87225304Y-62644354D01*
X87215515Y-62642804D01*
X87215513Y-62642803D01*
X87109793Y-62626059D01*
X87100000Y-62624508D01*
X87090207Y-62626059D01*
X86984487Y-62642803D01*
X86984485Y-62642804D01*
X86974696Y-62644354D01*
X86861658Y-62701950D01*
X86771950Y-62791658D01*
X86714354Y-62904696D01*
X86694508Y-63030000D01*
X85814405Y-63030000D01*
X85825492Y-62960000D01*
X85805646Y-62834696D01*
X85748050Y-62721658D01*
X85658342Y-62631950D01*
X85545304Y-62574354D01*
X85535515Y-62572804D01*
X85535513Y-62572803D01*
X85429793Y-62556059D01*
X85420000Y-62554508D01*
X85410207Y-62556059D01*
X85304487Y-62572803D01*
X85304485Y-62572804D01*
X85294696Y-62574354D01*
X85181658Y-62631950D01*
X85091950Y-62721658D01*
X85034354Y-62834696D01*
X85014508Y-62960000D01*
X80100500Y-62960000D01*
X80100500Y-62335000D01*
X80744508Y-62335000D01*
X80764354Y-62460304D01*
X80821950Y-62573342D01*
X80911658Y-62663050D01*
X81024696Y-62720646D01*
X81034485Y-62722196D01*
X81034487Y-62722197D01*
X81140207Y-62738941D01*
X81150000Y-62740492D01*
X81159793Y-62738941D01*
X81265513Y-62722197D01*
X81265515Y-62722196D01*
X81275304Y-62720646D01*
X81388342Y-62663050D01*
X81478050Y-62573342D01*
X81535646Y-62460304D01*
X81555492Y-62335000D01*
X81535646Y-62209696D01*
X81478050Y-62096658D01*
X81388342Y-62006950D01*
X81275304Y-61949354D01*
X81265515Y-61947804D01*
X81265513Y-61947803D01*
X81159793Y-61931059D01*
X81150000Y-61929508D01*
X81140207Y-61931059D01*
X81034487Y-61947803D01*
X81034485Y-61947804D01*
X81024696Y-61949354D01*
X80911658Y-62006950D01*
X80821950Y-62096658D01*
X80764354Y-62209696D01*
X80744508Y-62335000D01*
X80100500Y-62335000D01*
X80100500Y-59275000D01*
X85419508Y-59275000D01*
X85439354Y-59400304D01*
X85496950Y-59513342D01*
X85586658Y-59603050D01*
X85699696Y-59660646D01*
X85709485Y-59662196D01*
X85709487Y-59662197D01*
X85815207Y-59678941D01*
X85825000Y-59680492D01*
X85834793Y-59678941D01*
X85940513Y-59662197D01*
X85940515Y-59662196D01*
X85950304Y-59660646D01*
X86063342Y-59603050D01*
X86153050Y-59513342D01*
X86210646Y-59400304D01*
X86230492Y-59275000D01*
X86694508Y-59275000D01*
X86714354Y-59400304D01*
X86771950Y-59513342D01*
X86861658Y-59603050D01*
X86974696Y-59660646D01*
X86984485Y-59662196D01*
X86984487Y-59662197D01*
X87090207Y-59678941D01*
X87100000Y-59680492D01*
X87109793Y-59678941D01*
X87215513Y-59662197D01*
X87215515Y-59662196D01*
X87225304Y-59660646D01*
X87338342Y-59603050D01*
X87428050Y-59513342D01*
X87485646Y-59400304D01*
X87505492Y-59275000D01*
X87969508Y-59275000D01*
X87989354Y-59400304D01*
X88046950Y-59513342D01*
X88136658Y-59603050D01*
X88249696Y-59660646D01*
X88259485Y-59662196D01*
X88259487Y-59662197D01*
X88365207Y-59678941D01*
X88375000Y-59680492D01*
X88384793Y-59678941D01*
X88490513Y-59662197D01*
X88490515Y-59662196D01*
X88500304Y-59660646D01*
X88613342Y-59603050D01*
X88703050Y-59513342D01*
X88760646Y-59400304D01*
X88780492Y-59275000D01*
X88760646Y-59149696D01*
X88703050Y-59036658D01*
X88613342Y-58946950D01*
X88500304Y-58889354D01*
X88490515Y-58887804D01*
X88490513Y-58887803D01*
X88384793Y-58871059D01*
X88375000Y-58869508D01*
X88365207Y-58871059D01*
X88259487Y-58887803D01*
X88259485Y-58887804D01*
X88249696Y-58889354D01*
X88136658Y-58946950D01*
X88046950Y-59036658D01*
X87989354Y-59149696D01*
X87969508Y-59275000D01*
X87505492Y-59275000D01*
X87485646Y-59149696D01*
X87428050Y-59036658D01*
X87338342Y-58946950D01*
X87225304Y-58889354D01*
X87215515Y-58887804D01*
X87215513Y-58887803D01*
X87109793Y-58871059D01*
X87100000Y-58869508D01*
X87090207Y-58871059D01*
X86984487Y-58887803D01*
X86984485Y-58887804D01*
X86974696Y-58889354D01*
X86861658Y-58946950D01*
X86771950Y-59036658D01*
X86714354Y-59149696D01*
X86694508Y-59275000D01*
X86230492Y-59275000D01*
X86210646Y-59149696D01*
X86153050Y-59036658D01*
X86063342Y-58946950D01*
X85950304Y-58889354D01*
X85940515Y-58887804D01*
X85940513Y-58887803D01*
X85834793Y-58871059D01*
X85825000Y-58869508D01*
X85815207Y-58871059D01*
X85709487Y-58887803D01*
X85709485Y-58887804D01*
X85699696Y-58889354D01*
X85586658Y-58946950D01*
X85496950Y-59036658D01*
X85439354Y-59149696D01*
X85419508Y-59275000D01*
X80100500Y-59275000D01*
X80100500Y-57685000D01*
X82089508Y-57685000D01*
X82109354Y-57810304D01*
X82166950Y-57923342D01*
X82256658Y-58013050D01*
X82369696Y-58070646D01*
X82379485Y-58072196D01*
X82379487Y-58072197D01*
X82485207Y-58088941D01*
X82495000Y-58090492D01*
X82504793Y-58088941D01*
X82610513Y-58072197D01*
X82610515Y-58072196D01*
X82620304Y-58070646D01*
X82733342Y-58013050D01*
X82746392Y-58000000D01*
X85419508Y-58000000D01*
X85439354Y-58125304D01*
X85496950Y-58238342D01*
X85586658Y-58328050D01*
X85699696Y-58385646D01*
X85709485Y-58387196D01*
X85709487Y-58387197D01*
X85815207Y-58403941D01*
X85825000Y-58405492D01*
X85834793Y-58403941D01*
X85940513Y-58387197D01*
X85940515Y-58387196D01*
X85950304Y-58385646D01*
X86063342Y-58328050D01*
X86153050Y-58238342D01*
X86210646Y-58125304D01*
X86230492Y-58000000D01*
X86694508Y-58000000D01*
X86714354Y-58125304D01*
X86771950Y-58238342D01*
X86861658Y-58328050D01*
X86974696Y-58385646D01*
X86984485Y-58387196D01*
X86984487Y-58387197D01*
X87090207Y-58403941D01*
X87100000Y-58405492D01*
X87109793Y-58403941D01*
X87215513Y-58387197D01*
X87215515Y-58387196D01*
X87225304Y-58385646D01*
X87338342Y-58328050D01*
X87428050Y-58238342D01*
X87485646Y-58125304D01*
X87505492Y-58000000D01*
X87969508Y-58000000D01*
X87989354Y-58125304D01*
X88046950Y-58238342D01*
X88136658Y-58328050D01*
X88249696Y-58385646D01*
X88259485Y-58387196D01*
X88259487Y-58387197D01*
X88365207Y-58403941D01*
X88375000Y-58405492D01*
X88384793Y-58403941D01*
X88490513Y-58387197D01*
X88490515Y-58387196D01*
X88500304Y-58385646D01*
X88613342Y-58328050D01*
X88703050Y-58238342D01*
X88760646Y-58125304D01*
X88780492Y-58000000D01*
X88778941Y-57990207D01*
X88762197Y-57884487D01*
X88762196Y-57884485D01*
X88760646Y-57874696D01*
X88722586Y-57800000D01*
X91294508Y-57800000D01*
X91296059Y-57809793D01*
X91306339Y-57874696D01*
X91314354Y-57925304D01*
X91371950Y-58038342D01*
X91461658Y-58128050D01*
X91574696Y-58185646D01*
X91584485Y-58187196D01*
X91584487Y-58187197D01*
X91690207Y-58203941D01*
X91700000Y-58205492D01*
X91709793Y-58203941D01*
X91815513Y-58187197D01*
X91815515Y-58187196D01*
X91825304Y-58185646D01*
X91938342Y-58128050D01*
X92028050Y-58038342D01*
X92085646Y-57925304D01*
X92093662Y-57874696D01*
X92103941Y-57809793D01*
X92105492Y-57800000D01*
X92085646Y-57674696D01*
X92028050Y-57561658D01*
X91938342Y-57471950D01*
X91825304Y-57414354D01*
X91815515Y-57412804D01*
X91815513Y-57412803D01*
X91709793Y-57396059D01*
X91700000Y-57394508D01*
X91690207Y-57396059D01*
X91584487Y-57412803D01*
X91584485Y-57412804D01*
X91574696Y-57414354D01*
X91461658Y-57471950D01*
X91371950Y-57561658D01*
X91314354Y-57674696D01*
X91294508Y-57800000D01*
X88722586Y-57800000D01*
X88703050Y-57761658D01*
X88613342Y-57671950D01*
X88500304Y-57614354D01*
X88490515Y-57612804D01*
X88490513Y-57612803D01*
X88384793Y-57596059D01*
X88375000Y-57594508D01*
X88365207Y-57596059D01*
X88259487Y-57612803D01*
X88259485Y-57612804D01*
X88249696Y-57614354D01*
X88136658Y-57671950D01*
X88046950Y-57761658D01*
X87989354Y-57874696D01*
X87987804Y-57884485D01*
X87987803Y-57884487D01*
X87971059Y-57990207D01*
X87969508Y-58000000D01*
X87505492Y-58000000D01*
X87503941Y-57990207D01*
X87487197Y-57884487D01*
X87487196Y-57884485D01*
X87485646Y-57874696D01*
X87428050Y-57761658D01*
X87338342Y-57671950D01*
X87225304Y-57614354D01*
X87215515Y-57612804D01*
X87215513Y-57612803D01*
X87109793Y-57596059D01*
X87100000Y-57594508D01*
X87090207Y-57596059D01*
X86984487Y-57612803D01*
X86984485Y-57612804D01*
X86974696Y-57614354D01*
X86861658Y-57671950D01*
X86771950Y-57761658D01*
X86714354Y-57874696D01*
X86712804Y-57884485D01*
X86712803Y-57884487D01*
X86696059Y-57990207D01*
X86694508Y-58000000D01*
X86230492Y-58000000D01*
X86228941Y-57990207D01*
X86212197Y-57884487D01*
X86212196Y-57884485D01*
X86210646Y-57874696D01*
X86153050Y-57761658D01*
X86063342Y-57671950D01*
X85950304Y-57614354D01*
X85940515Y-57612804D01*
X85940513Y-57612803D01*
X85834793Y-57596059D01*
X85825000Y-57594508D01*
X85815207Y-57596059D01*
X85709487Y-57612803D01*
X85709485Y-57612804D01*
X85699696Y-57614354D01*
X85586658Y-57671950D01*
X85496950Y-57761658D01*
X85439354Y-57874696D01*
X85437804Y-57884485D01*
X85437803Y-57884487D01*
X85421059Y-57990207D01*
X85419508Y-58000000D01*
X82746392Y-58000000D01*
X82823050Y-57923342D01*
X82880646Y-57810304D01*
X82900492Y-57685000D01*
X82880646Y-57559696D01*
X82823050Y-57446658D01*
X82733342Y-57356950D01*
X82620304Y-57299354D01*
X82610515Y-57297804D01*
X82610513Y-57297803D01*
X82504793Y-57281059D01*
X82495000Y-57279508D01*
X82485207Y-57281059D01*
X82379487Y-57297803D01*
X82379485Y-57297804D01*
X82369696Y-57299354D01*
X82256658Y-57356950D01*
X82166950Y-57446658D01*
X82109354Y-57559696D01*
X82089508Y-57685000D01*
X80100500Y-57685000D01*
X80100500Y-56327500D01*
X81062008Y-56327500D01*
X81063559Y-56337293D01*
X81070984Y-56384170D01*
X81081854Y-56452804D01*
X81139450Y-56565842D01*
X81229158Y-56655550D01*
X81342196Y-56713146D01*
X81351985Y-56714696D01*
X81351987Y-56714697D01*
X81457707Y-56731441D01*
X81467500Y-56732992D01*
X81477293Y-56731441D01*
X81517961Y-56725000D01*
X85419508Y-56725000D01*
X85439354Y-56850304D01*
X85496950Y-56963342D01*
X85586658Y-57053050D01*
X85699696Y-57110646D01*
X85709485Y-57112196D01*
X85709487Y-57112197D01*
X85815207Y-57128941D01*
X85825000Y-57130492D01*
X85834793Y-57128941D01*
X85940513Y-57112197D01*
X85940515Y-57112196D01*
X85950304Y-57110646D01*
X86063342Y-57053050D01*
X86153050Y-56963342D01*
X86210646Y-56850304D01*
X86230492Y-56725000D01*
X86210646Y-56599696D01*
X86153050Y-56486658D01*
X86063342Y-56396950D01*
X86020475Y-56375108D01*
X85968860Y-56326359D01*
X85951794Y-56257444D01*
X85974695Y-56190243D01*
X86030293Y-56146091D01*
X86057967Y-56138392D01*
X86065512Y-56137197D01*
X86065513Y-56137197D01*
X86075304Y-56135646D01*
X86188342Y-56078050D01*
X86278050Y-55988342D01*
X86312733Y-55920273D01*
X86361481Y-55868658D01*
X86430396Y-55851592D01*
X86497598Y-55874493D01*
X86537267Y-55920273D01*
X86571950Y-55988342D01*
X86661658Y-56078050D01*
X86774696Y-56135646D01*
X86784485Y-56137196D01*
X86784487Y-56137197D01*
X86849248Y-56147454D01*
X86913401Y-56177867D01*
X86950928Y-56238135D01*
X86949914Y-56309124D01*
X86910681Y-56368296D01*
X86886740Y-56384170D01*
X86861658Y-56396950D01*
X86771950Y-56486658D01*
X86714354Y-56599696D01*
X86694508Y-56725000D01*
X86714354Y-56850304D01*
X86771950Y-56963342D01*
X86861658Y-57053050D01*
X86974696Y-57110646D01*
X86984485Y-57112196D01*
X86984487Y-57112197D01*
X87090207Y-57128941D01*
X87100000Y-57130492D01*
X87109793Y-57128941D01*
X87215513Y-57112197D01*
X87215515Y-57112196D01*
X87225304Y-57110646D01*
X87338342Y-57053050D01*
X87428050Y-56963342D01*
X87485646Y-56850304D01*
X87505492Y-56725000D01*
X87969508Y-56725000D01*
X87989354Y-56850304D01*
X88046950Y-56963342D01*
X88136658Y-57053050D01*
X88249696Y-57110646D01*
X88259485Y-57112196D01*
X88259487Y-57112197D01*
X88365207Y-57128941D01*
X88375000Y-57130492D01*
X88384793Y-57128941D01*
X88490513Y-57112197D01*
X88490515Y-57112196D01*
X88500304Y-57110646D01*
X88613342Y-57053050D01*
X88703050Y-56963342D01*
X88760646Y-56850304D01*
X88780492Y-56725000D01*
X88760646Y-56599696D01*
X88703050Y-56486658D01*
X88613342Y-56396950D01*
X88500304Y-56339354D01*
X88490515Y-56337804D01*
X88490513Y-56337803D01*
X88384793Y-56321059D01*
X88375000Y-56319508D01*
X88365207Y-56321059D01*
X88259487Y-56337803D01*
X88259485Y-56337804D01*
X88249696Y-56339354D01*
X88136658Y-56396950D01*
X88046950Y-56486658D01*
X87989354Y-56599696D01*
X87969508Y-56725000D01*
X87505492Y-56725000D01*
X87485646Y-56599696D01*
X87428050Y-56486658D01*
X87338342Y-56396950D01*
X87225304Y-56339354D01*
X87215515Y-56337804D01*
X87215513Y-56337803D01*
X87150752Y-56327546D01*
X87086599Y-56297133D01*
X87049072Y-56236865D01*
X87049599Y-56200000D01*
X91074508Y-56200000D01*
X91076059Y-56209793D01*
X91076407Y-56211987D01*
X91094354Y-56325304D01*
X91151950Y-56438342D01*
X91241658Y-56528050D01*
X91354696Y-56585646D01*
X91364485Y-56587196D01*
X91364487Y-56587197D01*
X91470207Y-56603941D01*
X91480000Y-56605492D01*
X91489793Y-56603941D01*
X91595513Y-56587197D01*
X91595515Y-56587196D01*
X91605304Y-56585646D01*
X91718342Y-56528050D01*
X91808050Y-56438342D01*
X91865646Y-56325304D01*
X91883594Y-56211987D01*
X91883941Y-56209793D01*
X91885492Y-56200000D01*
X91876954Y-56146091D01*
X91867197Y-56084487D01*
X91867196Y-56084485D01*
X91865646Y-56074696D01*
X91808050Y-55961658D01*
X91718342Y-55871950D01*
X91605304Y-55814354D01*
X91595515Y-55812804D01*
X91595513Y-55812803D01*
X91489793Y-55796059D01*
X91480000Y-55794508D01*
X91470207Y-55796059D01*
X91364487Y-55812803D01*
X91364485Y-55812804D01*
X91354696Y-55814354D01*
X91241658Y-55871950D01*
X91151950Y-55961658D01*
X91094354Y-56074696D01*
X91092804Y-56084485D01*
X91092803Y-56084487D01*
X91083046Y-56146091D01*
X91074508Y-56200000D01*
X87049599Y-56200000D01*
X87050086Y-56165876D01*
X87089319Y-56106704D01*
X87113260Y-56090830D01*
X87116541Y-56089158D01*
X87138342Y-56078050D01*
X87228050Y-55988342D01*
X87285646Y-55875304D01*
X87295300Y-55814354D01*
X87303941Y-55759793D01*
X87305492Y-55750000D01*
X87303941Y-55740207D01*
X87287197Y-55634487D01*
X87287196Y-55634485D01*
X87285646Y-55624696D01*
X87228050Y-55511658D01*
X87138342Y-55421950D01*
X87025304Y-55364354D01*
X87015515Y-55362804D01*
X87015513Y-55362803D01*
X86909793Y-55346059D01*
X86900000Y-55344508D01*
X86890207Y-55346059D01*
X86784487Y-55362803D01*
X86784485Y-55362804D01*
X86774696Y-55364354D01*
X86661658Y-55421950D01*
X86571950Y-55511658D01*
X86552414Y-55550000D01*
X86537267Y-55579727D01*
X86488519Y-55631342D01*
X86419604Y-55648408D01*
X86352402Y-55625507D01*
X86312733Y-55579727D01*
X86297586Y-55550000D01*
X86278050Y-55511658D01*
X86188342Y-55421950D01*
X86075304Y-55364354D01*
X86065515Y-55362804D01*
X86065513Y-55362803D01*
X85959793Y-55346059D01*
X85950000Y-55344508D01*
X85940207Y-55346059D01*
X85834487Y-55362803D01*
X85834485Y-55362804D01*
X85824696Y-55364354D01*
X85711658Y-55421950D01*
X85621950Y-55511658D01*
X85564354Y-55624696D01*
X85562804Y-55634485D01*
X85562803Y-55634487D01*
X85546059Y-55740207D01*
X85544508Y-55750000D01*
X85546059Y-55759793D01*
X85554701Y-55814354D01*
X85564354Y-55875304D01*
X85621950Y-55988342D01*
X85711658Y-56078050D01*
X85750794Y-56097991D01*
X85754525Y-56099892D01*
X85806140Y-56148641D01*
X85823206Y-56217556D01*
X85800305Y-56284757D01*
X85744707Y-56328909D01*
X85717033Y-56336608D01*
X85709488Y-56337803D01*
X85709487Y-56337803D01*
X85699696Y-56339354D01*
X85586658Y-56396950D01*
X85496950Y-56486658D01*
X85439354Y-56599696D01*
X85419508Y-56725000D01*
X81517961Y-56725000D01*
X81583013Y-56714697D01*
X81583015Y-56714696D01*
X81592804Y-56713146D01*
X81705842Y-56655550D01*
X81795550Y-56565842D01*
X81853146Y-56452804D01*
X81864017Y-56384170D01*
X81871441Y-56337293D01*
X81872992Y-56327500D01*
X81871441Y-56317707D01*
X81854697Y-56211987D01*
X81854696Y-56211985D01*
X81853146Y-56202196D01*
X81795550Y-56089158D01*
X81705842Y-55999450D01*
X81592804Y-55941854D01*
X81583015Y-55940304D01*
X81583013Y-55940303D01*
X81477293Y-55923559D01*
X81467500Y-55922008D01*
X81457707Y-55923559D01*
X81351987Y-55940303D01*
X81351985Y-55940304D01*
X81342196Y-55941854D01*
X81229158Y-55999450D01*
X81139450Y-56089158D01*
X81081854Y-56202196D01*
X81080304Y-56211985D01*
X81080303Y-56211987D01*
X81063559Y-56317707D01*
X81062008Y-56327500D01*
X80100500Y-56327500D01*
X80100500Y-55550000D01*
X84494508Y-55550000D01*
X84496059Y-55559793D01*
X84506339Y-55624696D01*
X84514354Y-55675304D01*
X84571950Y-55788342D01*
X84661658Y-55878050D01*
X84774696Y-55935646D01*
X84784485Y-55937196D01*
X84784487Y-55937197D01*
X84890207Y-55953941D01*
X84900000Y-55955492D01*
X84909793Y-55953941D01*
X85015513Y-55937197D01*
X85015515Y-55937196D01*
X85025304Y-55935646D01*
X85138342Y-55878050D01*
X85228050Y-55788342D01*
X85285646Y-55675304D01*
X85293662Y-55624696D01*
X85303941Y-55559793D01*
X85305492Y-55550000D01*
X85285646Y-55424696D01*
X85228050Y-55311658D01*
X85138342Y-55221950D01*
X85025304Y-55164354D01*
X85015515Y-55162804D01*
X85015513Y-55162803D01*
X84909793Y-55146059D01*
X84900000Y-55144508D01*
X84890207Y-55146059D01*
X84784487Y-55162803D01*
X84784485Y-55162804D01*
X84774696Y-55164354D01*
X84661658Y-55221950D01*
X84571950Y-55311658D01*
X84514354Y-55424696D01*
X84494508Y-55550000D01*
X80100500Y-55550000D01*
X80100500Y-54180000D01*
X81274508Y-54180000D01*
X81294354Y-54305304D01*
X81351950Y-54418342D01*
X81441658Y-54508050D01*
X81554696Y-54565646D01*
X81564485Y-54567196D01*
X81564487Y-54567197D01*
X81670207Y-54583941D01*
X81680000Y-54585492D01*
X81689793Y-54583941D01*
X81795513Y-54567197D01*
X81795515Y-54567196D01*
X81805304Y-54565646D01*
X81816385Y-54560000D01*
X82754508Y-54560000D01*
X82756059Y-54569793D01*
X82761499Y-54604137D01*
X82774354Y-54685304D01*
X82831950Y-54798342D01*
X82921658Y-54888050D01*
X83034696Y-54945646D01*
X83044485Y-54947196D01*
X83044487Y-54947197D01*
X83150207Y-54963941D01*
X83160000Y-54965492D01*
X83169793Y-54963941D01*
X83275513Y-54947197D01*
X83275515Y-54947196D01*
X83285304Y-54945646D01*
X83398342Y-54888050D01*
X83488050Y-54798342D01*
X83545646Y-54685304D01*
X83558502Y-54604137D01*
X83563941Y-54569793D01*
X83565492Y-54560000D01*
X83555545Y-54497197D01*
X83551238Y-54470000D01*
X90044508Y-54470000D01*
X90046059Y-54479793D01*
X90059657Y-54565646D01*
X90064354Y-54595304D01*
X90121950Y-54708342D01*
X90211658Y-54798050D01*
X90324696Y-54855646D01*
X90334485Y-54857196D01*
X90334487Y-54857197D01*
X90440207Y-54873941D01*
X90450000Y-54875492D01*
X90459793Y-54873941D01*
X90565513Y-54857197D01*
X90565515Y-54857196D01*
X90575304Y-54855646D01*
X90688342Y-54798050D01*
X90766392Y-54720000D01*
X92644508Y-54720000D01*
X92646059Y-54729793D01*
X92657583Y-54802550D01*
X92664354Y-54845304D01*
X92721950Y-54958342D01*
X92811658Y-55048050D01*
X92924696Y-55105646D01*
X92934485Y-55107196D01*
X92934487Y-55107197D01*
X93040207Y-55123941D01*
X93050000Y-55125492D01*
X93059793Y-55123941D01*
X93165513Y-55107197D01*
X93165515Y-55107196D01*
X93175304Y-55105646D01*
X93288342Y-55048050D01*
X93378050Y-54958342D01*
X93435646Y-54845304D01*
X93442418Y-54802550D01*
X93453941Y-54729793D01*
X93455492Y-54720000D01*
X93435646Y-54594696D01*
X93378050Y-54481658D01*
X93288342Y-54391950D01*
X93175304Y-54334354D01*
X93165515Y-54332804D01*
X93165513Y-54332803D01*
X93059793Y-54316059D01*
X93050000Y-54314508D01*
X93040207Y-54316059D01*
X92934487Y-54332803D01*
X92934485Y-54332804D01*
X92924696Y-54334354D01*
X92811658Y-54391950D01*
X92721950Y-54481658D01*
X92664354Y-54594696D01*
X92644508Y-54720000D01*
X90766392Y-54720000D01*
X90778050Y-54708342D01*
X90835646Y-54595304D01*
X90840344Y-54565646D01*
X90853941Y-54479793D01*
X90855492Y-54470000D01*
X90850432Y-54438050D01*
X90837197Y-54354487D01*
X90837196Y-54354485D01*
X90835646Y-54344696D01*
X90778050Y-54231658D01*
X90688342Y-54141950D01*
X90625637Y-54110000D01*
X91294508Y-54110000D01*
X91296059Y-54119793D01*
X91304701Y-54174354D01*
X91314354Y-54235304D01*
X91371950Y-54348342D01*
X91461658Y-54438050D01*
X91574696Y-54495646D01*
X91584485Y-54497196D01*
X91584487Y-54497197D01*
X91690207Y-54513941D01*
X91700000Y-54515492D01*
X91709793Y-54513941D01*
X91815513Y-54497197D01*
X91815515Y-54497196D01*
X91825304Y-54495646D01*
X91938342Y-54438050D01*
X92028050Y-54348342D01*
X92085646Y-54235304D01*
X92095300Y-54174354D01*
X92103941Y-54119793D01*
X92105492Y-54110000D01*
X92101430Y-54084354D01*
X92087197Y-53994487D01*
X92087196Y-53994485D01*
X92085646Y-53984696D01*
X92028050Y-53871658D01*
X91938342Y-53781950D01*
X91825304Y-53724354D01*
X91815515Y-53722804D01*
X91815513Y-53722803D01*
X91709793Y-53706059D01*
X91700000Y-53704508D01*
X91690207Y-53706059D01*
X91584487Y-53722803D01*
X91584485Y-53722804D01*
X91574696Y-53724354D01*
X91461658Y-53781950D01*
X91371950Y-53871658D01*
X91314354Y-53984696D01*
X91312804Y-53994485D01*
X91312803Y-53994487D01*
X91298570Y-54084354D01*
X91294508Y-54110000D01*
X90625637Y-54110000D01*
X90575304Y-54084354D01*
X90565515Y-54082804D01*
X90565513Y-54082803D01*
X90459793Y-54066059D01*
X90450000Y-54064508D01*
X90440207Y-54066059D01*
X90334487Y-54082803D01*
X90334485Y-54082804D01*
X90324696Y-54084354D01*
X90211658Y-54141950D01*
X90121950Y-54231658D01*
X90064354Y-54344696D01*
X90062804Y-54354485D01*
X90062803Y-54354487D01*
X90049568Y-54438050D01*
X90044508Y-54470000D01*
X83551238Y-54470000D01*
X83547197Y-54444487D01*
X83547196Y-54444485D01*
X83545646Y-54434696D01*
X83488050Y-54321658D01*
X83398342Y-54231950D01*
X83285304Y-54174354D01*
X83275515Y-54172804D01*
X83275513Y-54172803D01*
X83169793Y-54156059D01*
X83160000Y-54154508D01*
X83150207Y-54156059D01*
X83044487Y-54172803D01*
X83044485Y-54172804D01*
X83034696Y-54174354D01*
X82921658Y-54231950D01*
X82831950Y-54321658D01*
X82774354Y-54434696D01*
X82772804Y-54444485D01*
X82772803Y-54444487D01*
X82764455Y-54497197D01*
X82754508Y-54560000D01*
X81816385Y-54560000D01*
X81918342Y-54508050D01*
X82008050Y-54418342D01*
X82065646Y-54305304D01*
X82085492Y-54180000D01*
X82070548Y-54085646D01*
X82067197Y-54064487D01*
X82067196Y-54064485D01*
X82065646Y-54054696D01*
X82008050Y-53941658D01*
X81918342Y-53851950D01*
X81805304Y-53794354D01*
X81795515Y-53792804D01*
X81795513Y-53792803D01*
X81689793Y-53776059D01*
X81680000Y-53774508D01*
X81670207Y-53776059D01*
X81564487Y-53792803D01*
X81564485Y-53792804D01*
X81554696Y-53794354D01*
X81441658Y-53851950D01*
X81351950Y-53941658D01*
X81294354Y-54054696D01*
X81292804Y-54064485D01*
X81292803Y-54064487D01*
X81289452Y-54085646D01*
X81274508Y-54180000D01*
X80100500Y-54180000D01*
X80100500Y-53100000D01*
X81294508Y-53100000D01*
X81296059Y-53109793D01*
X81308045Y-53185467D01*
X81314354Y-53225304D01*
X81371950Y-53338342D01*
X81461658Y-53428050D01*
X81574696Y-53485646D01*
X81584485Y-53487196D01*
X81584487Y-53487197D01*
X81690207Y-53503941D01*
X81700000Y-53505492D01*
X81709793Y-53503941D01*
X81815513Y-53487197D01*
X81815515Y-53487196D01*
X81825304Y-53485646D01*
X81938342Y-53428050D01*
X82028050Y-53338342D01*
X82047087Y-53300980D01*
X84485231Y-53300980D01*
X84486782Y-53310773D01*
X84489750Y-53329509D01*
X84505077Y-53426284D01*
X84562673Y-53539322D01*
X84652381Y-53629030D01*
X84765419Y-53686626D01*
X84775208Y-53688176D01*
X84775210Y-53688177D01*
X84880930Y-53704921D01*
X84890723Y-53706472D01*
X84900516Y-53704921D01*
X84931587Y-53700000D01*
X88594508Y-53700000D01*
X88614354Y-53825304D01*
X88671950Y-53938342D01*
X88761658Y-54028050D01*
X88874696Y-54085646D01*
X88884485Y-54087196D01*
X88884487Y-54087197D01*
X88990207Y-54103941D01*
X89000000Y-54105492D01*
X89009793Y-54103941D01*
X89115513Y-54087197D01*
X89115515Y-54087196D01*
X89125304Y-54085646D01*
X89238342Y-54028050D01*
X89328050Y-53938342D01*
X89385646Y-53825304D01*
X89405492Y-53700000D01*
X89385646Y-53574696D01*
X89328050Y-53461658D01*
X89238342Y-53371950D01*
X89125304Y-53314354D01*
X89115515Y-53312804D01*
X89115513Y-53312803D01*
X89009793Y-53296059D01*
X89000000Y-53294508D01*
X88990207Y-53296059D01*
X88884487Y-53312803D01*
X88884485Y-53312804D01*
X88874696Y-53314354D01*
X88761658Y-53371950D01*
X88671950Y-53461658D01*
X88614354Y-53574696D01*
X88594508Y-53700000D01*
X84931587Y-53700000D01*
X85006236Y-53688177D01*
X85006238Y-53688176D01*
X85016027Y-53686626D01*
X85129065Y-53629030D01*
X85218773Y-53539322D01*
X85276369Y-53426284D01*
X85291697Y-53329509D01*
X85294664Y-53310773D01*
X85296215Y-53300980D01*
X85284229Y-53225304D01*
X85277920Y-53185467D01*
X85277919Y-53185465D01*
X85276369Y-53175676D01*
X85218773Y-53062638D01*
X85129065Y-52972930D01*
X85016027Y-52915334D01*
X85006238Y-52913784D01*
X85006236Y-52913783D01*
X84900516Y-52897039D01*
X84890723Y-52895488D01*
X84880930Y-52897039D01*
X84775210Y-52913783D01*
X84775208Y-52913784D01*
X84765419Y-52915334D01*
X84652381Y-52972930D01*
X84562673Y-53062638D01*
X84505077Y-53175676D01*
X84503527Y-53185465D01*
X84503526Y-53185467D01*
X84497217Y-53225304D01*
X84485231Y-53300980D01*
X82047087Y-53300980D01*
X82085646Y-53225304D01*
X82091956Y-53185467D01*
X82103941Y-53109793D01*
X82105492Y-53100000D01*
X82103941Y-53090207D01*
X82087197Y-52984487D01*
X82087196Y-52984485D01*
X82085646Y-52974696D01*
X82028050Y-52861658D01*
X81938342Y-52771950D01*
X81825304Y-52714354D01*
X81815515Y-52712804D01*
X81815513Y-52712803D01*
X81709793Y-52696059D01*
X81700000Y-52694508D01*
X81690207Y-52696059D01*
X81584487Y-52712803D01*
X81584485Y-52712804D01*
X81574696Y-52714354D01*
X81461658Y-52771950D01*
X81371950Y-52861658D01*
X81314354Y-52974696D01*
X81312804Y-52984485D01*
X81312803Y-52984487D01*
X81296059Y-53090207D01*
X81294508Y-53100000D01*
X80100500Y-53100000D01*
X80100500Y-51500000D01*
X83594508Y-51500000D01*
X83614354Y-51625304D01*
X83671950Y-51738342D01*
X83761658Y-51828050D01*
X83874696Y-51885646D01*
X83884485Y-51887196D01*
X83884487Y-51887197D01*
X83990207Y-51903941D01*
X84000000Y-51905492D01*
X84009793Y-51903941D01*
X84115513Y-51887197D01*
X84115515Y-51887196D01*
X84125304Y-51885646D01*
X84238342Y-51828050D01*
X84328050Y-51738342D01*
X84385646Y-51625304D01*
X84405492Y-51500000D01*
X84399338Y-51461145D01*
X84387197Y-51384487D01*
X84387196Y-51384485D01*
X84385646Y-51374696D01*
X84328050Y-51261658D01*
X84238342Y-51171950D01*
X84125304Y-51114354D01*
X84126294Y-51112412D01*
X84078894Y-51080000D01*
X90394508Y-51080000D01*
X90396059Y-51089793D01*
X90410182Y-51178961D01*
X90414354Y-51205304D01*
X90471950Y-51318342D01*
X90561658Y-51408050D01*
X90674696Y-51465646D01*
X90684485Y-51467196D01*
X90684487Y-51467197D01*
X90790207Y-51483941D01*
X90800000Y-51485492D01*
X90809793Y-51483941D01*
X90915513Y-51467197D01*
X90915515Y-51467196D01*
X90925304Y-51465646D01*
X91038342Y-51408050D01*
X91128050Y-51318342D01*
X91185646Y-51205304D01*
X91189819Y-51178961D01*
X91203941Y-51089793D01*
X91205492Y-51080000D01*
X91185646Y-50954696D01*
X91128050Y-50841658D01*
X91038342Y-50751950D01*
X90925304Y-50694354D01*
X90915515Y-50692804D01*
X90915513Y-50692803D01*
X90809793Y-50676059D01*
X90800000Y-50674508D01*
X90790207Y-50676059D01*
X90684487Y-50692803D01*
X90684485Y-50692804D01*
X90674696Y-50694354D01*
X90561658Y-50751950D01*
X90471950Y-50841658D01*
X90414354Y-50954696D01*
X90394508Y-51080000D01*
X84078894Y-51080000D01*
X84078542Y-51079759D01*
X84050905Y-51014362D01*
X84063012Y-50944405D01*
X84111019Y-50892100D01*
X84125068Y-50885683D01*
X84125304Y-50885646D01*
X84238342Y-50828050D01*
X84328050Y-50738342D01*
X84385646Y-50625304D01*
X84403908Y-50510000D01*
X87694508Y-50510000D01*
X87714354Y-50635304D01*
X87771950Y-50748342D01*
X87861658Y-50838050D01*
X87974696Y-50895646D01*
X87984485Y-50897196D01*
X87984487Y-50897197D01*
X88090207Y-50913941D01*
X88100000Y-50915492D01*
X88109793Y-50913941D01*
X88215513Y-50897197D01*
X88215515Y-50897196D01*
X88225304Y-50895646D01*
X88338342Y-50838050D01*
X88428050Y-50748342D01*
X88485646Y-50635304D01*
X88495989Y-50570000D01*
X91944508Y-50570000D01*
X91964354Y-50695304D01*
X92021950Y-50808342D01*
X92111658Y-50898050D01*
X92224696Y-50955646D01*
X92234485Y-50957196D01*
X92234487Y-50957197D01*
X92340207Y-50973941D01*
X92350000Y-50975492D01*
X92359793Y-50973941D01*
X92465513Y-50957197D01*
X92465515Y-50957196D01*
X92475304Y-50955646D01*
X92588342Y-50898050D01*
X92678050Y-50808342D01*
X92735646Y-50695304D01*
X92755492Y-50570000D01*
X92735646Y-50444696D01*
X92678050Y-50331658D01*
X92588342Y-50241950D01*
X92475304Y-50184354D01*
X92465515Y-50182804D01*
X92465513Y-50182803D01*
X92381197Y-50169449D01*
X92350582Y-50154936D01*
X92318803Y-50169449D01*
X92234487Y-50182803D01*
X92234485Y-50182804D01*
X92224696Y-50184354D01*
X92111658Y-50241950D01*
X92021950Y-50331658D01*
X91964354Y-50444696D01*
X91944508Y-50570000D01*
X88495989Y-50570000D01*
X88505492Y-50510000D01*
X88485646Y-50384696D01*
X88428050Y-50271658D01*
X88338342Y-50181950D01*
X88225304Y-50124354D01*
X88215515Y-50122804D01*
X88215513Y-50122803D01*
X88109793Y-50106059D01*
X88100000Y-50104508D01*
X88090207Y-50106059D01*
X87984487Y-50122803D01*
X87984485Y-50122804D01*
X87974696Y-50124354D01*
X87861658Y-50181950D01*
X87771950Y-50271658D01*
X87714354Y-50384696D01*
X87694508Y-50510000D01*
X84403908Y-50510000D01*
X84405492Y-50500000D01*
X84385646Y-50374696D01*
X84328050Y-50261658D01*
X84238342Y-50171950D01*
X84125304Y-50114354D01*
X84126294Y-50112412D01*
X84078542Y-50079759D01*
X84050905Y-50014362D01*
X84063012Y-49944405D01*
X84111019Y-49892100D01*
X84125068Y-49885683D01*
X84125304Y-49885646D01*
X84238342Y-49828050D01*
X84328050Y-49738342D01*
X84385646Y-49625304D01*
X84405492Y-49500000D01*
X84398848Y-49458050D01*
X84387197Y-49384487D01*
X84387196Y-49384485D01*
X84385646Y-49374696D01*
X84328050Y-49261658D01*
X84238342Y-49171950D01*
X84156011Y-49130000D01*
X84744508Y-49130000D01*
X84746059Y-49139793D01*
X84752263Y-49178961D01*
X84764354Y-49255304D01*
X84821950Y-49368342D01*
X84911658Y-49458050D01*
X85024696Y-49515646D01*
X85034485Y-49517196D01*
X85034487Y-49517197D01*
X85140207Y-49533941D01*
X85150000Y-49535492D01*
X85159793Y-49533941D01*
X85247815Y-49520000D01*
X91944508Y-49520000D01*
X91946059Y-49529793D01*
X91959636Y-49615513D01*
X91964354Y-49645304D01*
X92021950Y-49758342D01*
X92111658Y-49848050D01*
X92224696Y-49905646D01*
X92234485Y-49907196D01*
X92234487Y-49907197D01*
X92318803Y-49920551D01*
X92349418Y-49935064D01*
X92381197Y-49920551D01*
X92465513Y-49907197D01*
X92465515Y-49907196D01*
X92475304Y-49905646D01*
X92588342Y-49848050D01*
X92678050Y-49758342D01*
X92735646Y-49645304D01*
X92740365Y-49615513D01*
X92753941Y-49529793D01*
X92755492Y-49520000D01*
X92735646Y-49394696D01*
X92678050Y-49281658D01*
X92588342Y-49191950D01*
X92475304Y-49134354D01*
X92465515Y-49132804D01*
X92465513Y-49132803D01*
X92359793Y-49116059D01*
X92350000Y-49114508D01*
X92340207Y-49116059D01*
X92234487Y-49132803D01*
X92234485Y-49132804D01*
X92224696Y-49134354D01*
X92111658Y-49191950D01*
X92021950Y-49281658D01*
X91964354Y-49394696D01*
X91944508Y-49520000D01*
X85247815Y-49520000D01*
X85265513Y-49517197D01*
X85265515Y-49517196D01*
X85275304Y-49515646D01*
X85388342Y-49458050D01*
X85478050Y-49368342D01*
X85535646Y-49255304D01*
X85547738Y-49178961D01*
X85553941Y-49139793D01*
X85555492Y-49130000D01*
X85535646Y-49004696D01*
X85478050Y-48891658D01*
X85388342Y-48801950D01*
X85275304Y-48744354D01*
X85265515Y-48742804D01*
X85265513Y-48742803D01*
X85159793Y-48726059D01*
X85150000Y-48724508D01*
X85140207Y-48726059D01*
X85034487Y-48742803D01*
X85034485Y-48742804D01*
X85024696Y-48744354D01*
X84911658Y-48801950D01*
X84821950Y-48891658D01*
X84764354Y-49004696D01*
X84744508Y-49130000D01*
X84156011Y-49130000D01*
X84125304Y-49114354D01*
X84115515Y-49112804D01*
X84115513Y-49112803D01*
X84009793Y-49096059D01*
X84000000Y-49094508D01*
X83990207Y-49096059D01*
X83884487Y-49112803D01*
X83884485Y-49112804D01*
X83874696Y-49114354D01*
X83761658Y-49171950D01*
X83671950Y-49261658D01*
X83614354Y-49374696D01*
X83612804Y-49384485D01*
X83612803Y-49384487D01*
X83601152Y-49458050D01*
X83594508Y-49500000D01*
X83614354Y-49625304D01*
X83671950Y-49738342D01*
X83761658Y-49828050D01*
X83873367Y-49884969D01*
X83874696Y-49885646D01*
X83873706Y-49887588D01*
X83921458Y-49920241D01*
X83949095Y-49985638D01*
X83936988Y-50055595D01*
X83888981Y-50107900D01*
X83874932Y-50114317D01*
X83874696Y-50114354D01*
X83761658Y-50171950D01*
X83671950Y-50261658D01*
X83614354Y-50374696D01*
X83594508Y-50500000D01*
X83614354Y-50625304D01*
X83671950Y-50738342D01*
X83761658Y-50828050D01*
X83873367Y-50884969D01*
X83874696Y-50885646D01*
X83873706Y-50887588D01*
X83921458Y-50920241D01*
X83949095Y-50985638D01*
X83936988Y-51055595D01*
X83888981Y-51107900D01*
X83874932Y-51114317D01*
X83874696Y-51114354D01*
X83761658Y-51171950D01*
X83671950Y-51261658D01*
X83614354Y-51374696D01*
X83612804Y-51384485D01*
X83612803Y-51384487D01*
X83600662Y-51461145D01*
X83594508Y-51500000D01*
X80100500Y-51500000D01*
X80100500Y-48962121D01*
X80120502Y-48894000D01*
X80174158Y-48847507D01*
X80244432Y-48837403D01*
X80283704Y-48849855D01*
X80305861Y-48861145D01*
X80305865Y-48861146D01*
X80314696Y-48865646D01*
X80324485Y-48867196D01*
X80324487Y-48867197D01*
X80430207Y-48883941D01*
X80440000Y-48885492D01*
X80449793Y-48883941D01*
X80555513Y-48867197D01*
X80555515Y-48867196D01*
X80565304Y-48865646D01*
X80678342Y-48808050D01*
X80768050Y-48718342D01*
X80818158Y-48620000D01*
X87204508Y-48620000D01*
X87206059Y-48629793D01*
X87220084Y-48718342D01*
X87224354Y-48745304D01*
X87281950Y-48858342D01*
X87371658Y-48948050D01*
X87484696Y-49005646D01*
X87494485Y-49007196D01*
X87494487Y-49007197D01*
X87600207Y-49023941D01*
X87610000Y-49025492D01*
X87619793Y-49023941D01*
X87725513Y-49007197D01*
X87725515Y-49007196D01*
X87735304Y-49005646D01*
X87848342Y-48948050D01*
X87938050Y-48858342D01*
X87995646Y-48745304D01*
X87999917Y-48718342D01*
X88013941Y-48629793D01*
X88015492Y-48620000D01*
X87995646Y-48494696D01*
X87938050Y-48381658D01*
X87848342Y-48291950D01*
X87735304Y-48234354D01*
X87725515Y-48232804D01*
X87725513Y-48232803D01*
X87619793Y-48216059D01*
X87610000Y-48214508D01*
X87600207Y-48216059D01*
X87494487Y-48232803D01*
X87494485Y-48232804D01*
X87484696Y-48234354D01*
X87371658Y-48291950D01*
X87281950Y-48381658D01*
X87224354Y-48494696D01*
X87204508Y-48620000D01*
X80818158Y-48620000D01*
X80825646Y-48605304D01*
X80845492Y-48480000D01*
X80843941Y-48470207D01*
X80827197Y-48364487D01*
X80827196Y-48364485D01*
X80825646Y-48354696D01*
X80768050Y-48241658D01*
X80678342Y-48151950D01*
X80565304Y-48094354D01*
X80555515Y-48092804D01*
X80555513Y-48092803D01*
X80449793Y-48076059D01*
X80440000Y-48074508D01*
X80430207Y-48076059D01*
X80324487Y-48092803D01*
X80324485Y-48092804D01*
X80314696Y-48094354D01*
X80305865Y-48098854D01*
X80305861Y-48098855D01*
X80283704Y-48110145D01*
X80213927Y-48123250D01*
X80148142Y-48096550D01*
X80107235Y-48038523D01*
X80100500Y-47997879D01*
X80100500Y-47870000D01*
X91094508Y-47870000D01*
X91114354Y-47995304D01*
X91171950Y-48108342D01*
X91261658Y-48198050D01*
X91374696Y-48255646D01*
X91384485Y-48257196D01*
X91384487Y-48257197D01*
X91490207Y-48273941D01*
X91500000Y-48275492D01*
X91509793Y-48273941D01*
X91615513Y-48257197D01*
X91615515Y-48257196D01*
X91625304Y-48255646D01*
X91738342Y-48198050D01*
X91828050Y-48108342D01*
X91885646Y-47995304D01*
X91905492Y-47870000D01*
X92344508Y-47870000D01*
X92364354Y-47995304D01*
X92421950Y-48108342D01*
X92511658Y-48198050D01*
X92624696Y-48255646D01*
X92634485Y-48257196D01*
X92634487Y-48257197D01*
X92740207Y-48273941D01*
X92750000Y-48275492D01*
X92759793Y-48273941D01*
X92865513Y-48257197D01*
X92865515Y-48257196D01*
X92875304Y-48255646D01*
X92988342Y-48198050D01*
X93078050Y-48108342D01*
X93135646Y-47995304D01*
X93155492Y-47870000D01*
X93135646Y-47744696D01*
X93078050Y-47631658D01*
X92988342Y-47541950D01*
X92875304Y-47484354D01*
X92865515Y-47482804D01*
X92865513Y-47482803D01*
X92759793Y-47466059D01*
X92750000Y-47464508D01*
X92740207Y-47466059D01*
X92634487Y-47482803D01*
X92634485Y-47482804D01*
X92624696Y-47484354D01*
X92511658Y-47541950D01*
X92421950Y-47631658D01*
X92364354Y-47744696D01*
X92344508Y-47870000D01*
X91905492Y-47870000D01*
X91885646Y-47744696D01*
X91828050Y-47631658D01*
X91738342Y-47541950D01*
X91625304Y-47484354D01*
X91615515Y-47482804D01*
X91615513Y-47482803D01*
X91509793Y-47466059D01*
X91500000Y-47464508D01*
X91490207Y-47466059D01*
X91384487Y-47482803D01*
X91384485Y-47482804D01*
X91374696Y-47484354D01*
X91261658Y-47541950D01*
X91171950Y-47631658D01*
X91114354Y-47744696D01*
X91094508Y-47870000D01*
X80100500Y-47870000D01*
X80100500Y-47070000D01*
X87204508Y-47070000D01*
X87224354Y-47195304D01*
X87281950Y-47308342D01*
X87371658Y-47398050D01*
X87484696Y-47455646D01*
X87494485Y-47457196D01*
X87494487Y-47457197D01*
X87600207Y-47473941D01*
X87610000Y-47475492D01*
X87619793Y-47473941D01*
X87725513Y-47457197D01*
X87725515Y-47457196D01*
X87735304Y-47455646D01*
X87848342Y-47398050D01*
X87938050Y-47308342D01*
X87995646Y-47195304D01*
X88015492Y-47070000D01*
X88013941Y-47060207D01*
X88013941Y-47050289D01*
X88016069Y-47050289D01*
X88023507Y-46992736D01*
X88069230Y-46938423D01*
X88137058Y-46917451D01*
X88205458Y-46936479D01*
X88227951Y-46954343D01*
X88261658Y-46988050D01*
X88374696Y-47045646D01*
X88384485Y-47047196D01*
X88384487Y-47047197D01*
X88490207Y-47063941D01*
X88500000Y-47065492D01*
X88509793Y-47063941D01*
X88615513Y-47047197D01*
X88615515Y-47047196D01*
X88625304Y-47045646D01*
X88738342Y-46988050D01*
X88828050Y-46898342D01*
X88885646Y-46785304D01*
X88890583Y-46754137D01*
X88903941Y-46669793D01*
X88905492Y-46660000D01*
X88899157Y-46620000D01*
X91094508Y-46620000D01*
X91096059Y-46629793D01*
X91104701Y-46684354D01*
X91114354Y-46745304D01*
X91171950Y-46858342D01*
X91261658Y-46948050D01*
X91374696Y-47005646D01*
X91384485Y-47007196D01*
X91384487Y-47007197D01*
X91490207Y-47023941D01*
X91500000Y-47025492D01*
X91509793Y-47023941D01*
X91615513Y-47007197D01*
X91615515Y-47007196D01*
X91625304Y-47005646D01*
X91738342Y-46948050D01*
X91828050Y-46858342D01*
X91885646Y-46745304D01*
X91895300Y-46684354D01*
X91903941Y-46629793D01*
X91905492Y-46620000D01*
X92344508Y-46620000D01*
X92346059Y-46629793D01*
X92354701Y-46684354D01*
X92364354Y-46745304D01*
X92421950Y-46858342D01*
X92511658Y-46948050D01*
X92624696Y-47005646D01*
X92634485Y-47007196D01*
X92634487Y-47007197D01*
X92740207Y-47023941D01*
X92750000Y-47025492D01*
X92759793Y-47023941D01*
X92865513Y-47007197D01*
X92865515Y-47007196D01*
X92875304Y-47005646D01*
X92988342Y-46948050D01*
X93078050Y-46858342D01*
X93135646Y-46745304D01*
X93145300Y-46684354D01*
X93153941Y-46629793D01*
X93155492Y-46620000D01*
X93143532Y-46544487D01*
X93137197Y-46504487D01*
X93137196Y-46504485D01*
X93135646Y-46494696D01*
X93078050Y-46381658D01*
X92988342Y-46291950D01*
X92875304Y-46234354D01*
X92865515Y-46232804D01*
X92865513Y-46232803D01*
X92759793Y-46216059D01*
X92750000Y-46214508D01*
X92740207Y-46216059D01*
X92634487Y-46232803D01*
X92634485Y-46232804D01*
X92624696Y-46234354D01*
X92511658Y-46291950D01*
X92421950Y-46381658D01*
X92364354Y-46494696D01*
X92362804Y-46504485D01*
X92362803Y-46504487D01*
X92356468Y-46544487D01*
X92344508Y-46620000D01*
X91905492Y-46620000D01*
X91893532Y-46544487D01*
X91887197Y-46504487D01*
X91887196Y-46504485D01*
X91885646Y-46494696D01*
X91828050Y-46381658D01*
X91738342Y-46291950D01*
X91625304Y-46234354D01*
X91615515Y-46232804D01*
X91615513Y-46232803D01*
X91509793Y-46216059D01*
X91500000Y-46214508D01*
X91490207Y-46216059D01*
X91384487Y-46232803D01*
X91384485Y-46232804D01*
X91374696Y-46234354D01*
X91261658Y-46291950D01*
X91171950Y-46381658D01*
X91114354Y-46494696D01*
X91112804Y-46504485D01*
X91112803Y-46504487D01*
X91106468Y-46544487D01*
X91094508Y-46620000D01*
X88899157Y-46620000D01*
X88885646Y-46534696D01*
X88828050Y-46421658D01*
X88738342Y-46331950D01*
X88625304Y-46274354D01*
X88615515Y-46272804D01*
X88615513Y-46272803D01*
X88509793Y-46256059D01*
X88500000Y-46254508D01*
X88490207Y-46256059D01*
X88384487Y-46272803D01*
X88384485Y-46272804D01*
X88374696Y-46274354D01*
X88261658Y-46331950D01*
X88171950Y-46421658D01*
X88114354Y-46534696D01*
X88094508Y-46660000D01*
X88096059Y-46669793D01*
X88096059Y-46679711D01*
X88093931Y-46679711D01*
X88086493Y-46737264D01*
X88040770Y-46791577D01*
X87972942Y-46812549D01*
X87904542Y-46793521D01*
X87882049Y-46775657D01*
X87848342Y-46741950D01*
X87735304Y-46684354D01*
X87725515Y-46682804D01*
X87725513Y-46682803D01*
X87619793Y-46666059D01*
X87610000Y-46664508D01*
X87600207Y-46666059D01*
X87494487Y-46682803D01*
X87494485Y-46682804D01*
X87484696Y-46684354D01*
X87371658Y-46741950D01*
X87281950Y-46831658D01*
X87224354Y-46944696D01*
X87222804Y-46954485D01*
X87222803Y-46954487D01*
X87214455Y-47007197D01*
X87204508Y-47070000D01*
X80100500Y-47070000D01*
X80100500Y-45070000D01*
X80544508Y-45070000D01*
X80546059Y-45079793D01*
X80555673Y-45140491D01*
X80564354Y-45195304D01*
X80621950Y-45308342D01*
X80711658Y-45398050D01*
X80824696Y-45455646D01*
X80834485Y-45457196D01*
X80834487Y-45457197D01*
X80940207Y-45473941D01*
X80950000Y-45475492D01*
X80959793Y-45473941D01*
X81065513Y-45457197D01*
X81065515Y-45457196D01*
X81075304Y-45455646D01*
X81188342Y-45398050D01*
X81278050Y-45308342D01*
X81335646Y-45195304D01*
X81344328Y-45140491D01*
X81353941Y-45079793D01*
X81355492Y-45070000D01*
X81341927Y-44984354D01*
X81337197Y-44954487D01*
X81337196Y-44954485D01*
X81335646Y-44944696D01*
X81278050Y-44831658D01*
X81188342Y-44741950D01*
X81169338Y-44732267D01*
X81117723Y-44683519D01*
X81100657Y-44614604D01*
X81123558Y-44547402D01*
X81169338Y-44507733D01*
X81179510Y-44502550D01*
X81179509Y-44502550D01*
X81188342Y-44498050D01*
X81278050Y-44408342D01*
X81335646Y-44295304D01*
X81337588Y-44296294D01*
X81370241Y-44248542D01*
X81435638Y-44220905D01*
X81505595Y-44233012D01*
X81557900Y-44281019D01*
X81564317Y-44295068D01*
X81564354Y-44295304D01*
X81621950Y-44408342D01*
X81711658Y-44498050D01*
X81824696Y-44555646D01*
X81834487Y-44557197D01*
X81834488Y-44557197D01*
X81850395Y-44559716D01*
X81871596Y-44563074D01*
X81935749Y-44593486D01*
X81973276Y-44653754D01*
X81972263Y-44724743D01*
X81946327Y-44770931D01*
X81927377Y-44792388D01*
X81866447Y-44922163D01*
X81865066Y-44931035D01*
X81847797Y-45041950D01*
X81844391Y-45063823D01*
X81845555Y-45072725D01*
X81845555Y-45072728D01*
X81846479Y-45079793D01*
X81862980Y-45205979D01*
X81920720Y-45337203D01*
X81926497Y-45344076D01*
X81926498Y-45344077D01*
X81965974Y-45391039D01*
X82012970Y-45446948D01*
X82132313Y-45526390D01*
X82269157Y-45569142D01*
X82278129Y-45569306D01*
X82278132Y-45569307D01*
X82343463Y-45570504D01*
X82412499Y-45571770D01*
X82421533Y-45569307D01*
X82542158Y-45536421D01*
X82542160Y-45536420D01*
X82550817Y-45534060D01*
X82672991Y-45459045D01*
X82753590Y-45370000D01*
X92344508Y-45370000D01*
X92346059Y-45379793D01*
X92358319Y-45457197D01*
X92364354Y-45495304D01*
X92421950Y-45608342D01*
X92511658Y-45698050D01*
X92624696Y-45755646D01*
X92634485Y-45757196D01*
X92634487Y-45757197D01*
X92740207Y-45773941D01*
X92750000Y-45775492D01*
X92759793Y-45773941D01*
X92865513Y-45757197D01*
X92865515Y-45757196D01*
X92875304Y-45755646D01*
X92988342Y-45698050D01*
X93078050Y-45608342D01*
X93135646Y-45495304D01*
X93141682Y-45457197D01*
X93153941Y-45379793D01*
X93155492Y-45370000D01*
X93146837Y-45315353D01*
X93137197Y-45254487D01*
X93137196Y-45254485D01*
X93135646Y-45244696D01*
X93078050Y-45131658D01*
X92988342Y-45041950D01*
X92875304Y-44984354D01*
X92865515Y-44982804D01*
X92865513Y-44982803D01*
X92759793Y-44966059D01*
X92750000Y-44964508D01*
X92740207Y-44966059D01*
X92634487Y-44982803D01*
X92634485Y-44982804D01*
X92624696Y-44984354D01*
X92511658Y-45041950D01*
X92421950Y-45131658D01*
X92364354Y-45244696D01*
X92362804Y-45254485D01*
X92362803Y-45254487D01*
X92353163Y-45315353D01*
X92344508Y-45370000D01*
X82753590Y-45370000D01*
X82769200Y-45352754D01*
X82831710Y-45223733D01*
X82855496Y-45082354D01*
X82855647Y-45070000D01*
X82840540Y-44964508D01*
X82836596Y-44936968D01*
X82836595Y-44936965D01*
X82835323Y-44928082D01*
X82775984Y-44797572D01*
X82728057Y-44741950D01*
X82688260Y-44695763D01*
X82688257Y-44695760D01*
X82682400Y-44688963D01*
X82562095Y-44610985D01*
X82424739Y-44569907D01*
X82415764Y-44569852D01*
X82415763Y-44569852D01*
X82409398Y-44569813D01*
X82400646Y-44569760D01*
X82332650Y-44549342D01*
X82286485Y-44495404D01*
X82276810Y-44425070D01*
X82289149Y-44386559D01*
X82331145Y-44304137D01*
X82335646Y-44295304D01*
X82337909Y-44281019D01*
X82353941Y-44179793D01*
X82355492Y-44170000D01*
X82347573Y-44120000D01*
X92344508Y-44120000D01*
X92346059Y-44129793D01*
X92360490Y-44220905D01*
X92364354Y-44245304D01*
X92421950Y-44358342D01*
X92511658Y-44448050D01*
X92624696Y-44505646D01*
X92634485Y-44507196D01*
X92634487Y-44507197D01*
X92740207Y-44523941D01*
X92750000Y-44525492D01*
X92759793Y-44523941D01*
X92865513Y-44507197D01*
X92865515Y-44507196D01*
X92875304Y-44505646D01*
X92988342Y-44448050D01*
X93078050Y-44358342D01*
X93135646Y-44245304D01*
X93139511Y-44220905D01*
X93153941Y-44129793D01*
X93155492Y-44120000D01*
X93153431Y-44106988D01*
X93137197Y-44004487D01*
X93137196Y-44004485D01*
X93135646Y-43994696D01*
X93078050Y-43881658D01*
X92988342Y-43791950D01*
X92875304Y-43734354D01*
X92865515Y-43732804D01*
X92865513Y-43732803D01*
X92759793Y-43716059D01*
X92750000Y-43714508D01*
X92740207Y-43716059D01*
X92634487Y-43732803D01*
X92634485Y-43732804D01*
X92624696Y-43734354D01*
X92511658Y-43791950D01*
X92421950Y-43881658D01*
X92364354Y-43994696D01*
X92362804Y-44004485D01*
X92362803Y-44004487D01*
X92346569Y-44106988D01*
X92344508Y-44120000D01*
X82347573Y-44120000D01*
X82343052Y-44091458D01*
X82337197Y-44054487D01*
X82337196Y-44054485D01*
X82335646Y-44044696D01*
X82278050Y-43931658D01*
X82188342Y-43841950D01*
X82075304Y-43784354D01*
X82065515Y-43782804D01*
X82065513Y-43782803D01*
X81959793Y-43766059D01*
X81950000Y-43764508D01*
X81940207Y-43766059D01*
X81834487Y-43782803D01*
X81834485Y-43782804D01*
X81824696Y-43784354D01*
X81711658Y-43841950D01*
X81621950Y-43931658D01*
X81564354Y-44044696D01*
X81562412Y-44043706D01*
X81529759Y-44091458D01*
X81464362Y-44119095D01*
X81394405Y-44106988D01*
X81342100Y-44058981D01*
X81335683Y-44044932D01*
X81335646Y-44044696D01*
X81278050Y-43931658D01*
X81188342Y-43841950D01*
X81075304Y-43784354D01*
X81065515Y-43782804D01*
X81065513Y-43782803D01*
X80959793Y-43766059D01*
X80950000Y-43764508D01*
X80940207Y-43766059D01*
X80834487Y-43782803D01*
X80834485Y-43782804D01*
X80824696Y-43784354D01*
X80711658Y-43841950D01*
X80621950Y-43931658D01*
X80564354Y-44044696D01*
X80562804Y-44054485D01*
X80562803Y-44054487D01*
X80556948Y-44091458D01*
X80544508Y-44170000D01*
X80546059Y-44179793D01*
X80562092Y-44281019D01*
X80564354Y-44295304D01*
X80621950Y-44408342D01*
X80711658Y-44498050D01*
X80720491Y-44502550D01*
X80720490Y-44502550D01*
X80730662Y-44507733D01*
X80782277Y-44556481D01*
X80799343Y-44625396D01*
X80776442Y-44692598D01*
X80730662Y-44732267D01*
X80711658Y-44741950D01*
X80621950Y-44831658D01*
X80564354Y-44944696D01*
X80562804Y-44954485D01*
X80562803Y-44954487D01*
X80558073Y-44984354D01*
X80544508Y-45070000D01*
X80100500Y-45070000D01*
X80100500Y-42210665D01*
X83245119Y-42210665D01*
X83245416Y-42215817D01*
X83245416Y-42215821D01*
X83250864Y-42310296D01*
X83258376Y-42440580D01*
X83259513Y-42445626D01*
X83259514Y-42445632D01*
X83281226Y-42541975D01*
X83309006Y-42665242D01*
X83310948Y-42670024D01*
X83310949Y-42670028D01*
X83348427Y-42762325D01*
X83395649Y-42878618D01*
X83515979Y-43074978D01*
X83666763Y-43249048D01*
X83843953Y-43396154D01*
X84042790Y-43512345D01*
X84257934Y-43594501D01*
X84263000Y-43595532D01*
X84263001Y-43595532D01*
X84363697Y-43616018D01*
X84483607Y-43640414D01*
X84613352Y-43645172D01*
X84708585Y-43648664D01*
X84708589Y-43648664D01*
X84713749Y-43648853D01*
X84718869Y-43648197D01*
X84718871Y-43648197D01*
X84788272Y-43639307D01*
X84942178Y-43619591D01*
X84947126Y-43618106D01*
X84947133Y-43618105D01*
X85157811Y-43554898D01*
X85157810Y-43554898D01*
X85162761Y-43553413D01*
X85369574Y-43452096D01*
X85557062Y-43318363D01*
X85720190Y-43155803D01*
X85778269Y-43074978D01*
X85851559Y-42972983D01*
X85854577Y-42968783D01*
X85956615Y-42762325D01*
X85987643Y-42660200D01*
X86022059Y-42546927D01*
X86022060Y-42546921D01*
X86023563Y-42541975D01*
X86053622Y-42313649D01*
X86055300Y-42245000D01*
X86052477Y-42210665D01*
X87845119Y-42210665D01*
X87845416Y-42215817D01*
X87845416Y-42215821D01*
X87850864Y-42310296D01*
X87858376Y-42440580D01*
X87859513Y-42445626D01*
X87859514Y-42445632D01*
X87881226Y-42541975D01*
X87909006Y-42665242D01*
X87910948Y-42670024D01*
X87910949Y-42670028D01*
X87948427Y-42762325D01*
X87995649Y-42878618D01*
X88115979Y-43074978D01*
X88266763Y-43249048D01*
X88443953Y-43396154D01*
X88642790Y-43512345D01*
X88857934Y-43594501D01*
X88863000Y-43595532D01*
X88863001Y-43595532D01*
X88963697Y-43616018D01*
X89083607Y-43640414D01*
X89213352Y-43645172D01*
X89308585Y-43648664D01*
X89308589Y-43648664D01*
X89313749Y-43648853D01*
X89318869Y-43648197D01*
X89318871Y-43648197D01*
X89388272Y-43639307D01*
X89542178Y-43619591D01*
X89547126Y-43618106D01*
X89547133Y-43618105D01*
X89757811Y-43554898D01*
X89757810Y-43554898D01*
X89762761Y-43553413D01*
X89969574Y-43452096D01*
X90157062Y-43318363D01*
X90320190Y-43155803D01*
X90378269Y-43074978D01*
X90451559Y-42972983D01*
X90454577Y-42968783D01*
X90556615Y-42762325D01*
X90587643Y-42660200D01*
X90622059Y-42546927D01*
X90622060Y-42546921D01*
X90623563Y-42541975D01*
X90653622Y-42313649D01*
X90655300Y-42245000D01*
X90636430Y-42015478D01*
X90580326Y-41792120D01*
X90519229Y-41651605D01*
X90490556Y-41585661D01*
X90490554Y-41585658D01*
X90488496Y-41580924D01*
X90411964Y-41462624D01*
X90366215Y-41391906D01*
X90366213Y-41391903D01*
X90363405Y-41387563D01*
X90342774Y-41364889D01*
X90211890Y-41221051D01*
X90211889Y-41221050D01*
X90208412Y-41217229D01*
X90204361Y-41214030D01*
X90204357Y-41214026D01*
X90031735Y-41077697D01*
X90031730Y-41077693D01*
X90027681Y-41074496D01*
X90023165Y-41072003D01*
X90023162Y-41072001D01*
X89830589Y-40965695D01*
X89830585Y-40965693D01*
X89826065Y-40963198D01*
X89821196Y-40961474D01*
X89821192Y-40961472D01*
X89613853Y-40888049D01*
X89613849Y-40888048D01*
X89608978Y-40886323D01*
X89603885Y-40885416D01*
X89603882Y-40885415D01*
X89492970Y-40865659D01*
X89382250Y-40845937D01*
X89295802Y-40844881D01*
X89157141Y-40843186D01*
X89157139Y-40843186D01*
X89151971Y-40843123D01*
X88924325Y-40877958D01*
X88705424Y-40949506D01*
X88501149Y-41055845D01*
X88316984Y-41194119D01*
X88157877Y-41360616D01*
X88028099Y-41550863D01*
X88025923Y-41555552D01*
X88025919Y-41555558D01*
X87933315Y-41755057D01*
X87931136Y-41759752D01*
X87869592Y-41981673D01*
X87845119Y-42210665D01*
X86052477Y-42210665D01*
X86036430Y-42015478D01*
X85980326Y-41792120D01*
X85919229Y-41651605D01*
X85890556Y-41585661D01*
X85890554Y-41585658D01*
X85888496Y-41580924D01*
X85811964Y-41462624D01*
X85766215Y-41391906D01*
X85766213Y-41391903D01*
X85763405Y-41387563D01*
X85742774Y-41364889D01*
X85611890Y-41221051D01*
X85611889Y-41221050D01*
X85608412Y-41217229D01*
X85604361Y-41214030D01*
X85604357Y-41214026D01*
X85431735Y-41077697D01*
X85431730Y-41077693D01*
X85427681Y-41074496D01*
X85423165Y-41072003D01*
X85423162Y-41072001D01*
X85230589Y-40965695D01*
X85230585Y-40965693D01*
X85226065Y-40963198D01*
X85221196Y-40961474D01*
X85221192Y-40961472D01*
X85013853Y-40888049D01*
X85013849Y-40888048D01*
X85008978Y-40886323D01*
X85003885Y-40885416D01*
X85003882Y-40885415D01*
X84892970Y-40865659D01*
X84782250Y-40845937D01*
X84695802Y-40844881D01*
X84557141Y-40843186D01*
X84557139Y-40843186D01*
X84551971Y-40843123D01*
X84324325Y-40877958D01*
X84105424Y-40949506D01*
X83901149Y-41055845D01*
X83716984Y-41194119D01*
X83557877Y-41360616D01*
X83428099Y-41550863D01*
X83425923Y-41555552D01*
X83425919Y-41555558D01*
X83333315Y-41755057D01*
X83331136Y-41759752D01*
X83269592Y-41981673D01*
X83245119Y-42210665D01*
X80100500Y-42210665D01*
X80100500Y-41143823D01*
X80714391Y-41143823D01*
X80715555Y-41152725D01*
X80715555Y-41152728D01*
X80716814Y-41162354D01*
X80732980Y-41285979D01*
X80790720Y-41417203D01*
X80796497Y-41424076D01*
X80796498Y-41424077D01*
X80803792Y-41432754D01*
X80882970Y-41526948D01*
X80918897Y-41550863D01*
X80971173Y-41585661D01*
X81002313Y-41606390D01*
X81139157Y-41649142D01*
X81148129Y-41649306D01*
X81148132Y-41649307D01*
X81213463Y-41650504D01*
X81282499Y-41651770D01*
X81291533Y-41649307D01*
X81412158Y-41616421D01*
X81412160Y-41616420D01*
X81420817Y-41614060D01*
X81542991Y-41539045D01*
X81639200Y-41432754D01*
X81701710Y-41303733D01*
X81725496Y-41162354D01*
X81725647Y-41150000D01*
X81705323Y-41008082D01*
X81645984Y-40877572D01*
X81616301Y-40843123D01*
X81558260Y-40775763D01*
X81558257Y-40775760D01*
X81552400Y-40768963D01*
X81432095Y-40690985D01*
X81294739Y-40649907D01*
X81285763Y-40649852D01*
X81285762Y-40649852D01*
X81225555Y-40649484D01*
X81151376Y-40649031D01*
X81013529Y-40688428D01*
X80892280Y-40764930D01*
X80797377Y-40872388D01*
X80736447Y-41002163D01*
X80735066Y-41011035D01*
X80724687Y-41077697D01*
X80714391Y-41143823D01*
X80100500Y-41143823D01*
X80100500Y-40226500D01*
X80120502Y-40158379D01*
X80174158Y-40111886D01*
X80226500Y-40100500D01*
X93773500Y-40100500D01*
X93841621Y-40120502D01*
G37*
G04 #@! TD.AperFunction*
M02*
