M48
; DRILL file {KiCad (6.0.5-0)} date Wednesday, November 02, 2022 at 01:33:36 am
; FORMAT={-:-/ absolute / metric / decimal}
; #@! TF.CreationDate,2022-11-02T01:33:36-04:00
; #@! TF.GenerationSoftware,Kicad,Pcbnew,(6.0.5-0)
; #@! TF.FileFunction,Plated,1,4,PTH
FMAT,2
METRIC
; #@! TA.AperFunction,Plated,PTH,ViaDrill
T1C0.350
; #@! TA.AperFunction,Plated,PTH,ComponentDrill
T2C0.350
; #@! TA.AperFunction,Plated,PTH,ViaDrill
T3C0.400
; #@! TA.AperFunction,Plated,PTH,ComponentDrill
T4C1.900
%
G90
G05
T1
X80.44Y-48.48
X80.95Y-44.17
X80.95Y-45.07
X81.15Y-62.335
X81.468Y-56.328
X81.68Y-54.18
X81.7Y-53.1
X81.7Y-55.05
X81.95Y-44.17
X82.495Y-57.685
X82.495Y-59.695
X82.695Y-55.835
X83.16Y-54.56
X83.55Y-47.02
X84.0Y-49.5
X84.0Y-50.5
X84.0Y-51.5
X84.05Y-47.77
X84.55Y-47.02
X84.891Y-53.301
X84.9Y-55.55
X85.15Y-49.13
X85.42Y-62.96
X85.95Y-55.75
X86.08Y-47.87
X86.9Y-55.75
X87.1Y-63.03
X87.3Y-53.65
X87.3Y-60.5
X87.625Y-66.205
X88.1Y-50.51
X88.5Y-46.66
X88.585Y-66.38
X89.0Y-53.7
X89.56Y-50.182
X89.8Y-51.7
X90.45Y-54.47
X91.5Y-46.62
X91.5Y-47.87
X91.7Y-54.11
X91.7Y-57.8
X91.7Y-59.6
X92.75Y-44.12
X92.75Y-45.37
X92.75Y-46.62
X92.75Y-47.87
X92.75Y-60.87
X93.55Y-65.86
T2
X85.825Y-56.725
X85.825Y-58.0
X85.825Y-59.275
X87.1Y-56.725
X87.1Y-58.0
X87.1Y-59.275
X88.375Y-56.725
X88.375Y-58.0
X88.375Y-59.275
T3
X82.35Y-45.07
T4
X84.65Y-42.245
X89.25Y-42.245
T0
M30
