G04 #@! TF.GenerationSoftware,KiCad,Pcbnew,(6.0.5-0)*
G04 #@! TF.CreationDate,2022-11-14T22:05:51-05:00*
G04 #@! TF.ProjectId,rp_ducky,72705f64-7563-46b7-992e-6b696361645f,rev?*
G04 #@! TF.SameCoordinates,Original*
G04 #@! TF.FileFunction,Copper,L1,Top*
G04 #@! TF.FilePolarity,Positive*
%FSLAX46Y46*%
G04 Gerber Fmt 4.6, Leading zero omitted, Abs format (unit mm)*
G04 Created by KiCad (PCBNEW (6.0.5-0)) date 2022-11-14 22:05:51*
%MOMM*%
%LPD*%
G01*
G04 APERTURE LIST*
G04 Aperture macros list*
%AMRoundRect*
0 Rectangle with rounded corners*
0 $1 Rounding radius*
0 $2 $3 $4 $5 $6 $7 $8 $9 X,Y pos of 4 corners*
0 Add a 4 corners polygon primitive as box body*
4,1,4,$2,$3,$4,$5,$6,$7,$8,$9,$2,$3,0*
0 Add four circle primitives for the rounded corners*
1,1,$1+$1,$2,$3*
1,1,$1+$1,$4,$5*
1,1,$1+$1,$6,$7*
1,1,$1+$1,$8,$9*
0 Add four rect primitives between the rounded corners*
20,1,$1+$1,$2,$3,$4,$5,0*
20,1,$1+$1,$4,$5,$6,$7,0*
20,1,$1+$1,$6,$7,$8,$9,0*
20,1,$1+$1,$8,$9,$2,$3,0*%
G04 Aperture macros list end*
G04 #@! TA.AperFunction,SMDPad,CuDef*
%ADD10RoundRect,0.100000X-0.100000X0.130000X-0.100000X-0.130000X0.100000X-0.130000X0.100000X0.130000X0*%
G04 #@! TD*
G04 #@! TA.AperFunction,SMDPad,CuDef*
%ADD11R,0.812800X0.508000*%
G04 #@! TD*
G04 #@! TA.AperFunction,SMDPad,CuDef*
%ADD12R,0.508000X0.889000*%
G04 #@! TD*
G04 #@! TA.AperFunction,SMDPad,CuDef*
%ADD13RoundRect,0.218750X-0.256250X0.218750X-0.256250X-0.218750X0.256250X-0.218750X0.256250X0.218750X0*%
G04 #@! TD*
G04 #@! TA.AperFunction,SMDPad,CuDef*
%ADD14RoundRect,0.125000X-0.250000X-0.125000X0.250000X-0.125000X0.250000X0.125000X-0.250000X0.125000X0*%
G04 #@! TD*
G04 #@! TA.AperFunction,SMDPad,CuDef*
%ADD15R,3.400000X4.300000*%
G04 #@! TD*
G04 #@! TA.AperFunction,SMDPad,CuDef*
%ADD16RoundRect,0.100000X0.100000X-0.130000X0.100000X0.130000X-0.100000X0.130000X-0.100000X-0.130000X0*%
G04 #@! TD*
G04 #@! TA.AperFunction,SMDPad,CuDef*
%ADD17RoundRect,0.100000X0.130000X0.100000X-0.130000X0.100000X-0.130000X-0.100000X0.130000X-0.100000X0*%
G04 #@! TD*
G04 #@! TA.AperFunction,SMDPad,CuDef*
%ADD18R,1.150000X1.000000*%
G04 #@! TD*
G04 #@! TA.AperFunction,SMDPad,CuDef*
%ADD19RoundRect,0.140000X0.170000X-0.140000X0.170000X0.140000X-0.170000X0.140000X-0.170000X-0.140000X0*%
G04 #@! TD*
G04 #@! TA.AperFunction,SMDPad,CuDef*
%ADD20RoundRect,0.050000X-0.387500X-0.050000X0.387500X-0.050000X0.387500X0.050000X-0.387500X0.050000X0*%
G04 #@! TD*
G04 #@! TA.AperFunction,SMDPad,CuDef*
%ADD21RoundRect,0.050000X-0.050000X-0.387500X0.050000X-0.387500X0.050000X0.387500X-0.050000X0.387500X0*%
G04 #@! TD*
G04 #@! TA.AperFunction,SMDPad,CuDef*
%ADD22RoundRect,0.144000X-1.456000X-1.456000X1.456000X-1.456000X1.456000X1.456000X-1.456000X1.456000X0*%
G04 #@! TD*
G04 #@! TA.AperFunction,ComponentPad*
%ADD23C,0.600000*%
G04 #@! TD*
G04 #@! TA.AperFunction,SMDPad,CuDef*
%ADD24RoundRect,0.135000X0.135000X0.185000X-0.135000X0.185000X-0.135000X-0.185000X0.135000X-0.185000X0*%
G04 #@! TD*
G04 #@! TA.AperFunction,SMDPad,CuDef*
%ADD25RoundRect,0.135000X0.185000X-0.135000X0.185000X0.135000X-0.185000X0.135000X-0.185000X-0.135000X0*%
G04 #@! TD*
G04 #@! TA.AperFunction,SMDPad,CuDef*
%ADD26RoundRect,0.140000X-0.170000X0.140000X-0.170000X-0.140000X0.170000X-0.140000X0.170000X0.140000X0*%
G04 #@! TD*
G04 #@! TA.AperFunction,SMDPad,CuDef*
%ADD27RoundRect,0.140000X0.140000X0.170000X-0.140000X0.170000X-0.140000X-0.170000X0.140000X-0.170000X0*%
G04 #@! TD*
G04 #@! TA.AperFunction,SMDPad,CuDef*
%ADD28RoundRect,0.135000X-0.185000X0.135000X-0.185000X-0.135000X0.185000X-0.135000X0.185000X0.135000X0*%
G04 #@! TD*
G04 #@! TA.AperFunction,SMDPad,CuDef*
%ADD29R,1.300000X1.700000*%
G04 #@! TD*
G04 #@! TA.AperFunction,ComponentPad*
%ADD30C,2.600000*%
G04 #@! TD*
G04 #@! TA.AperFunction,ViaPad*
%ADD31C,0.600000*%
G04 #@! TD*
G04 #@! TA.AperFunction,ViaPad*
%ADD32C,0.800000*%
G04 #@! TD*
G04 #@! TA.AperFunction,Conductor*
%ADD33C,0.200000*%
G04 #@! TD*
G04 #@! TA.AperFunction,Conductor*
%ADD34C,0.150000*%
G04 #@! TD*
G04 #@! TA.AperFunction,Conductor*
%ADD35C,0.300000*%
G04 #@! TD*
G04 APERTURE END LIST*
D10*
X91700000Y-54750000D03*
X91700000Y-55390000D03*
D11*
X81150001Y-62999998D03*
D12*
X83399999Y-64700000D03*
D11*
X81150001Y-66400002D03*
X82349999Y-66400002D03*
X82349999Y-62999998D03*
D13*
X92550000Y-50182500D03*
X92550000Y-51757500D03*
D14*
X81300000Y-48495000D03*
X81300000Y-49765000D03*
X81300000Y-51035000D03*
X81300000Y-52305000D03*
X86700000Y-52305000D03*
X86700000Y-51035000D03*
X86700000Y-49765000D03*
X86700000Y-48495000D03*
D15*
X84000000Y-50400000D03*
D16*
X88900000Y-52620000D03*
X88900000Y-51980000D03*
D17*
X90420000Y-53400000D03*
X89780000Y-53400000D03*
D18*
X86225000Y-65200000D03*
X87975000Y-65200000D03*
X87975000Y-63800000D03*
X86225000Y-63800000D03*
D10*
X82400000Y-54180000D03*
X82400000Y-54820000D03*
X82495000Y-58365000D03*
X82495000Y-59005000D03*
D19*
X89400000Y-66380000D03*
X89400000Y-65420000D03*
D20*
X83662500Y-55400000D03*
X83662500Y-55800000D03*
X83662500Y-56200000D03*
X83662500Y-56600000D03*
X83662500Y-57000000D03*
X83662500Y-57400000D03*
X83662500Y-57800000D03*
X83662500Y-58200000D03*
X83662500Y-58600000D03*
X83662500Y-59000000D03*
X83662500Y-59400000D03*
X83662500Y-59800000D03*
X83662500Y-60200000D03*
X83662500Y-60600000D03*
D21*
X84500000Y-61437500D03*
X84900000Y-61437500D03*
X85300000Y-61437500D03*
X85700000Y-61437500D03*
X86100000Y-61437500D03*
X86500000Y-61437500D03*
X86900000Y-61437500D03*
X87300000Y-61437500D03*
X87700000Y-61437500D03*
X88100000Y-61437500D03*
X88500000Y-61437500D03*
X88900000Y-61437500D03*
X89300000Y-61437500D03*
X89700000Y-61437500D03*
D20*
X90537500Y-60600000D03*
X90537500Y-60200000D03*
X90537500Y-59800000D03*
X90537500Y-59400000D03*
X90537500Y-59000000D03*
X90537500Y-58600000D03*
X90537500Y-58200000D03*
X90537500Y-57800000D03*
X90537500Y-57400000D03*
X90537500Y-57000000D03*
X90537500Y-56600000D03*
X90537500Y-56200000D03*
X90537500Y-55800000D03*
X90537500Y-55400000D03*
D21*
X89700000Y-54562500D03*
X89300000Y-54562500D03*
X88900000Y-54562500D03*
X88500000Y-54562500D03*
X88100000Y-54562500D03*
X87700000Y-54562500D03*
X87300000Y-54562500D03*
X86900000Y-54562500D03*
X86500000Y-54562500D03*
X86100000Y-54562500D03*
X85700000Y-54562500D03*
X85300000Y-54562500D03*
X84900000Y-54562500D03*
X84500000Y-54562500D03*
D22*
X87100000Y-58000000D03*
D23*
X85825000Y-58000000D03*
X88375000Y-59275000D03*
X88375000Y-58000000D03*
X85825000Y-56725000D03*
X88375000Y-56725000D03*
X87100000Y-56725000D03*
X87100000Y-59275000D03*
X87100000Y-58000000D03*
X85825000Y-59275000D03*
D11*
X92849999Y-66400002D03*
X91650001Y-62999998D03*
X92849999Y-62999998D03*
D12*
X90600001Y-64700000D03*
D11*
X91650001Y-66400002D03*
D24*
X92760000Y-61700000D03*
X91740000Y-61700000D03*
D25*
X89400000Y-64410000D03*
X89400000Y-63390000D03*
D10*
X91700000Y-58380000D03*
X91700000Y-59020000D03*
D26*
X84800000Y-63420000D03*
X84800000Y-64380000D03*
D16*
X88100000Y-52620000D03*
X88100000Y-51980000D03*
D27*
X90780000Y-52500000D03*
X89820000Y-52500000D03*
D28*
X80900000Y-53790000D03*
X80900000Y-54810000D03*
D29*
X83500000Y-44595000D03*
X86000000Y-44595000D03*
X88000000Y-44595000D03*
X90500000Y-44595000D03*
D30*
X89250000Y-42245000D03*
X84650000Y-42245000D03*
D24*
X91260000Y-50182500D03*
X90240000Y-50182500D03*
D31*
X91500000Y-46620000D03*
X87100000Y-63030000D03*
X89560000Y-50182500D03*
X85950000Y-55750000D03*
X91500000Y-47870000D03*
X84000000Y-51500000D03*
D32*
X82350000Y-45070000D03*
D31*
X87625000Y-66205000D03*
X92750000Y-47870000D03*
X82495000Y-57685000D03*
X85150000Y-49130000D03*
X88585000Y-66380000D03*
X81150000Y-62335000D03*
X91700000Y-54110000D03*
X84000000Y-50500000D03*
X92750000Y-44120000D03*
X81700000Y-53100000D03*
X81680000Y-54180000D03*
X90450000Y-54470000D03*
X92750000Y-46620000D03*
X84000000Y-49500000D03*
X93550000Y-65860000D03*
X91700000Y-57800000D03*
X85420000Y-62960000D03*
X80440000Y-48480000D03*
X92750000Y-45370000D03*
X81950000Y-44170000D03*
X80950000Y-44170000D03*
X80950000Y-45070000D03*
X89800000Y-51700000D03*
X92750000Y-60870000D03*
X91700000Y-59600000D03*
X84550000Y-47020000D03*
X83550000Y-47020000D03*
X87300000Y-53650000D03*
X87300000Y-60500000D03*
X82695000Y-55835000D03*
X81700000Y-55050000D03*
X82495000Y-59695000D03*
X84050000Y-47770000D03*
X86080000Y-47870000D03*
X89000000Y-53700000D03*
X86900000Y-55750000D03*
X83160000Y-54560000D03*
X81467500Y-56327500D03*
X88500000Y-46660000D03*
X88100000Y-50510000D03*
X84890723Y-53300980D03*
X84900000Y-55550000D03*
D33*
X86100000Y-59550000D02*
X85825000Y-59275000D01*
D34*
X92849999Y-66400002D02*
X93009998Y-66400002D01*
D35*
X91700000Y-57800000D02*
X91700000Y-58380000D01*
D34*
X92849999Y-66400002D02*
X91650001Y-66400002D01*
D33*
X89560000Y-50182500D02*
X90240000Y-50182500D01*
X81150000Y-62335000D02*
X81150001Y-62999998D01*
D34*
X93009998Y-66400002D02*
X93550000Y-65860000D01*
D33*
X86100000Y-61437500D02*
X86100000Y-59550000D01*
D34*
X81150001Y-62999998D02*
X82349999Y-62999998D01*
D35*
X86330000Y-63800000D02*
X87100000Y-63030000D01*
D34*
X84960000Y-63420000D02*
X85420000Y-62960000D01*
D35*
X86225000Y-63800000D02*
X86330000Y-63800000D01*
X90420000Y-54440000D02*
X90450000Y-54470000D01*
X81300000Y-52305000D02*
X81300000Y-52700000D01*
X82400000Y-54180000D02*
X81680000Y-54180000D01*
D33*
X91700000Y-54750000D02*
X91700000Y-54110000D01*
D35*
X89400000Y-66380000D02*
X88585000Y-66380000D01*
X90780000Y-52500000D02*
X90780000Y-53040000D01*
D34*
X84800000Y-63420000D02*
X84960000Y-63420000D01*
D35*
X87975000Y-65855000D02*
X87625000Y-66205000D01*
X82495000Y-58365000D02*
X82495000Y-57685000D01*
X90420000Y-53400000D02*
X90420000Y-54440000D01*
X87975000Y-65200000D02*
X87975000Y-65855000D01*
X81300000Y-52700000D02*
X81700000Y-53100000D01*
X90780000Y-53040000D02*
X90420000Y-53400000D01*
D33*
X83130000Y-55400000D02*
X82695000Y-55835000D01*
D35*
X89800000Y-52480000D02*
X89820000Y-52500000D01*
D33*
X89700000Y-54562500D02*
X89700000Y-53480000D01*
X91680000Y-59000000D02*
X91700000Y-59020000D01*
X91690000Y-55400000D02*
X91700000Y-55390000D01*
D35*
X89780000Y-52540000D02*
X89820000Y-52500000D01*
X81140000Y-55050000D02*
X80900000Y-54810000D01*
D33*
X89300000Y-54562500D02*
X89700000Y-54562500D01*
D35*
X82495000Y-59005000D02*
X82495000Y-59645000D01*
D34*
X92760000Y-61670000D02*
X92760000Y-60870000D01*
D33*
X90537500Y-59000000D02*
X91680000Y-59000000D01*
X90000000Y-55400000D02*
X89700000Y-55100000D01*
D35*
X81700000Y-55050000D02*
X82170000Y-55050000D01*
D33*
X87300000Y-53750000D02*
X87300000Y-53650000D01*
D35*
X91700000Y-59020000D02*
X91700000Y-59600000D01*
D33*
X90537500Y-55400000D02*
X90000000Y-55400000D01*
D35*
X86700000Y-48495000D02*
X86700000Y-48490000D01*
X81700000Y-55050000D02*
X81140000Y-55050000D01*
D33*
X89700000Y-55100000D02*
X89700000Y-54562500D01*
X83662500Y-55400000D02*
X83130000Y-55400000D01*
X87700000Y-54562500D02*
X87300000Y-54562500D01*
D35*
X89780000Y-53400000D02*
X89780000Y-52540000D01*
D33*
X82500000Y-59000000D02*
X82495000Y-59005000D01*
X90537500Y-55400000D02*
X91690000Y-55400000D01*
X87300000Y-61437500D02*
X87300000Y-60500000D01*
X89700000Y-53480000D02*
X89780000Y-53400000D01*
D35*
X82170000Y-55050000D02*
X82400000Y-54820000D01*
D33*
X83662500Y-59000000D02*
X82500000Y-59000000D01*
X87300000Y-54562500D02*
X87300000Y-53750000D01*
D35*
X89800000Y-51700000D02*
X89800000Y-52480000D01*
X86700000Y-48490000D02*
X86080000Y-47870000D01*
D33*
X89140000Y-60270000D02*
X89180000Y-60230000D01*
X87700000Y-61437500D02*
X87700000Y-60806416D01*
X89180000Y-60230000D02*
X89180000Y-56080000D01*
X86900000Y-55750000D02*
X88850000Y-55750000D01*
X88900000Y-53800000D02*
X89000000Y-53700000D01*
X88900000Y-54562500D02*
X88900000Y-55800000D01*
X88236416Y-60270000D02*
X89140000Y-60270000D01*
X88900000Y-54562500D02*
X88900000Y-53800000D01*
X89180000Y-56080000D02*
X88950000Y-55850000D01*
X87700000Y-60806416D02*
X88236416Y-60270000D01*
X88900000Y-55800000D02*
X88950000Y-55850000D01*
X86900000Y-55750000D02*
X86900000Y-54562500D01*
X88950000Y-55850000D02*
X88850000Y-55750000D01*
D34*
X83162500Y-54562500D02*
X83160000Y-54560000D01*
X81467500Y-56327500D02*
X80400000Y-55260000D01*
X81150001Y-66400002D02*
X82349999Y-66400002D01*
X81300000Y-48495000D02*
X81205000Y-48495000D01*
X80400000Y-49300000D02*
X80400000Y-53810000D01*
X80900000Y-53790000D02*
X80420000Y-53790000D01*
X81890000Y-61530577D02*
X81890000Y-56750000D01*
X81890000Y-56750000D02*
X81467500Y-56327500D01*
X80400000Y-55260000D02*
X80400000Y-53810000D01*
X84500000Y-54562500D02*
X83162500Y-54562500D01*
X83399999Y-64700000D02*
X83399999Y-63040576D01*
X80420000Y-53790000D02*
X80400000Y-53810000D01*
X81205000Y-48495000D02*
X80400000Y-49300000D01*
X83399999Y-65350002D02*
X83399999Y-64700000D01*
X83399999Y-63040576D02*
X81890000Y-61530577D01*
X82349999Y-66400002D02*
X83399999Y-65350002D01*
X90600001Y-64700000D02*
X91320000Y-64700000D01*
X88900000Y-62110000D02*
X89789998Y-62999998D01*
X91320000Y-64700000D02*
X91619879Y-64400121D01*
X89789998Y-62999998D02*
X91650001Y-62999998D01*
X91740000Y-62909999D02*
X91650001Y-62999998D01*
X91740000Y-61670000D02*
X91740000Y-62909999D01*
X91619879Y-64400121D02*
X91619879Y-63030120D01*
X91619879Y-63030120D02*
X91650001Y-62999998D01*
X92849999Y-62999998D02*
X91650001Y-62999998D01*
X88900000Y-61437500D02*
X88900000Y-62110000D01*
X88900000Y-48720000D02*
X86000000Y-45820000D01*
X86000000Y-45820000D02*
X86000000Y-44595000D01*
X88900000Y-51980000D02*
X88900000Y-48720000D01*
X88000000Y-46160000D02*
X88000000Y-44595000D01*
X88100000Y-50510000D02*
X88100000Y-51980000D01*
X88500000Y-46660000D02*
X88000000Y-46160000D01*
X85055202Y-62410000D02*
X86190000Y-62410000D01*
X86190000Y-62410000D02*
X86500000Y-62100000D01*
X84140000Y-64250000D02*
X84140000Y-63325202D01*
X84800000Y-64380000D02*
X84270000Y-64380000D01*
X84270000Y-64380000D02*
X84140000Y-64250000D01*
X84800000Y-64380000D02*
X85405000Y-64380000D01*
X85405000Y-64380000D02*
X86225000Y-65200000D01*
X84140000Y-63325202D02*
X85055202Y-62410000D01*
X86500000Y-62100000D02*
X86500000Y-61437500D01*
X89400000Y-64410000D02*
X88790000Y-63800000D01*
X89400000Y-64410000D02*
X89400000Y-65420000D01*
X88790000Y-63800000D02*
X87975000Y-63800000D01*
X87340000Y-62500000D02*
X86900000Y-62060000D01*
X89400000Y-63390000D02*
X88510000Y-62500000D01*
X88510000Y-62500000D02*
X87340000Y-62500000D01*
X86900000Y-62060000D02*
X86900000Y-61437500D01*
X88100000Y-52620000D02*
X88100000Y-54562500D01*
X88500000Y-53120000D02*
X89000000Y-52620000D01*
X88500000Y-54562500D02*
X88500000Y-53120000D01*
X81300000Y-49765000D02*
X81849520Y-50314520D01*
X81849520Y-52448542D02*
X82701958Y-53300980D01*
X81849520Y-50314520D02*
X81849520Y-52448542D01*
X82701958Y-53300980D02*
X84890723Y-53300980D01*
X84900000Y-55550000D02*
X84900000Y-54562500D01*
X85300000Y-54000000D02*
X85075480Y-53775480D01*
X83515489Y-53705489D02*
X81634428Y-53705489D01*
X83585480Y-53775480D02*
X83515489Y-53705489D01*
X80750480Y-52821541D02*
X80750480Y-51584520D01*
X85075480Y-53775480D02*
X83585480Y-53775480D01*
X80750480Y-51584520D02*
X81300000Y-51035000D01*
X85300000Y-54562500D02*
X85300000Y-54000000D01*
X81634428Y-53705489D02*
X80750480Y-52821541D01*
X85700000Y-53305000D02*
X85700000Y-54562500D01*
X86700000Y-52305000D02*
X85700000Y-53305000D01*
X86800000Y-53000000D02*
X86100000Y-53700000D01*
X87249520Y-51584520D02*
X87249520Y-52554065D01*
X87249520Y-52554065D02*
X86803585Y-53000000D01*
X86100000Y-53700000D02*
X86100000Y-54562500D01*
X86803585Y-53000000D02*
X86800000Y-53000000D01*
X86700000Y-51035000D02*
X87249520Y-51584520D01*
X87499040Y-50564040D02*
X87499040Y-52750960D01*
X87499040Y-52750960D02*
X86500000Y-53750000D01*
X86500000Y-53750000D02*
X86500000Y-54562500D01*
X86700000Y-49765000D02*
X87499040Y-50564040D01*
D33*
X91260000Y-50182500D02*
X92550000Y-50182500D01*
X90537500Y-56200000D02*
X92120000Y-56200000D01*
X92550000Y-55770000D02*
X92550000Y-51757500D01*
X92120000Y-56200000D02*
X92550000Y-55770000D01*
G04 #@! TA.AperFunction,Conductor*
G36*
X82512184Y-43588907D02*
G01*
X82548148Y-43638407D01*
X82552327Y-43680464D01*
X82550332Y-43697577D01*
X82550000Y-43703292D01*
X82550000Y-44474743D01*
X82531093Y-44532934D01*
X82481593Y-44568898D01*
X82436368Y-44572656D01*
X82431497Y-44571928D01*
X82424739Y-44569907D01*
X82344862Y-44569419D01*
X82288427Y-44569074D01*
X82288426Y-44569074D01*
X82281376Y-44569031D01*
X82274599Y-44570968D01*
X82274598Y-44570968D01*
X82150309Y-44606490D01*
X82150307Y-44606491D01*
X82143529Y-44608428D01*
X82022280Y-44684930D01*
X82017613Y-44690214D01*
X82017611Y-44690216D01*
X81932044Y-44787103D01*
X81932042Y-44787105D01*
X81927377Y-44792388D01*
X81866447Y-44922163D01*
X81844391Y-45063823D01*
X81862980Y-45205979D01*
X81920720Y-45337203D01*
X81933792Y-45352754D01*
X82008431Y-45441549D01*
X82008434Y-45441551D01*
X82012970Y-45446948D01*
X82132313Y-45526390D01*
X82220305Y-45553880D01*
X82262425Y-45567039D01*
X82262426Y-45567039D01*
X82269157Y-45569142D01*
X82340828Y-45570456D01*
X82405445Y-45571641D01*
X82405447Y-45571641D01*
X82412499Y-45571770D01*
X82478118Y-45553880D01*
X82539231Y-45556815D01*
X82586949Y-45595112D01*
X82594634Y-45609208D01*
X82594770Y-45609515D01*
X82604946Y-45624321D01*
X82671108Y-45690367D01*
X82685931Y-45700517D01*
X82772980Y-45739000D01*
X82787185Y-45742873D01*
X82802580Y-45744668D01*
X82808292Y-45745000D01*
X83334320Y-45745000D01*
X83347005Y-45740878D01*
X83350000Y-45736757D01*
X83350000Y-44544000D01*
X83368907Y-44485809D01*
X83418407Y-44449845D01*
X83449000Y-44445000D01*
X83551000Y-44445000D01*
X83609191Y-44463907D01*
X83645155Y-44513407D01*
X83650000Y-44544000D01*
X83650000Y-45729320D01*
X83654122Y-45742005D01*
X83658243Y-45745000D01*
X84051000Y-45745000D01*
X84109191Y-45763907D01*
X84145155Y-45813407D01*
X84150000Y-45844000D01*
X84150000Y-46201000D01*
X84131093Y-46259191D01*
X84081593Y-46295155D01*
X84051000Y-46300000D01*
X80199500Y-46300000D01*
X80141309Y-46281093D01*
X80105345Y-46231593D01*
X80100500Y-46201000D01*
X80100500Y-43669000D01*
X80119407Y-43610809D01*
X80168907Y-43574845D01*
X80199500Y-43570000D01*
X82453993Y-43570000D01*
X82512184Y-43588907D01*
G37*
G04 #@! TD.AperFunction*
G04 #@! TA.AperFunction,Conductor*
G36*
X93858691Y-43618907D02*
G01*
X93894655Y-43668407D01*
X93899500Y-43699000D01*
X93899500Y-48441000D01*
X93880593Y-48499191D01*
X93831093Y-48535155D01*
X93800500Y-48540000D01*
X89949000Y-48540000D01*
X89890809Y-48521093D01*
X89854845Y-48471593D01*
X89850000Y-48441000D01*
X89850000Y-45844000D01*
X89868907Y-45785809D01*
X89918407Y-45749845D01*
X89949000Y-45745000D01*
X90334320Y-45745000D01*
X90347005Y-45740878D01*
X90350000Y-45736757D01*
X90350000Y-45729320D01*
X90650000Y-45729320D01*
X90654122Y-45742005D01*
X90658243Y-45745000D01*
X91191639Y-45745000D01*
X91197485Y-45744654D01*
X91213353Y-45742766D01*
X91227519Y-45738872D01*
X91314514Y-45700230D01*
X91329321Y-45690054D01*
X91395367Y-45623892D01*
X91405517Y-45609069D01*
X91444000Y-45522020D01*
X91447873Y-45507815D01*
X91449668Y-45492420D01*
X91450000Y-45486708D01*
X91450000Y-44760680D01*
X91445878Y-44747995D01*
X91441757Y-44745000D01*
X90665680Y-44745000D01*
X90652995Y-44749122D01*
X90650000Y-44753243D01*
X90650000Y-45729320D01*
X90350000Y-45729320D01*
X90350000Y-44544000D01*
X90368907Y-44485809D01*
X90418407Y-44449845D01*
X90449000Y-44445000D01*
X91434320Y-44445000D01*
X91447005Y-44440878D01*
X91450000Y-44436757D01*
X91450000Y-43700426D01*
X91451234Y-43700426D01*
X91465540Y-43645620D01*
X91512840Y-43606807D01*
X91548916Y-43600000D01*
X93800500Y-43600000D01*
X93858691Y-43618907D01*
G37*
G04 #@! TD.AperFunction*
M02*
