G04 #@! TF.GenerationSoftware,KiCad,Pcbnew,(6.0.5-0)*
G04 #@! TF.CreationDate,2022-11-14T22:05:51-05:00*
G04 #@! TF.ProjectId,rp_ducky,72705f64-7563-46b7-992e-6b696361645f,rev?*
G04 #@! TF.SameCoordinates,Original*
G04 #@! TF.FileFunction,Paste,Top*
G04 #@! TF.FilePolarity,Positive*
%FSLAX46Y46*%
G04 Gerber Fmt 4.6, Leading zero omitted, Abs format (unit mm)*
G04 Created by KiCad (PCBNEW (6.0.5-0)) date 2022-11-14 22:05:51*
%MOMM*%
%LPD*%
G01*
G04 APERTURE LIST*
G04 Aperture macros list*
%AMRoundRect*
0 Rectangle with rounded corners*
0 $1 Rounding radius*
0 $2 $3 $4 $5 $6 $7 $8 $9 X,Y pos of 4 corners*
0 Add a 4 corners polygon primitive as box body*
4,1,4,$2,$3,$4,$5,$6,$7,$8,$9,$2,$3,0*
0 Add four circle primitives for the rounded corners*
1,1,$1+$1,$2,$3*
1,1,$1+$1,$4,$5*
1,1,$1+$1,$6,$7*
1,1,$1+$1,$8,$9*
0 Add four rect primitives between the rounded corners*
20,1,$1+$1,$2,$3,$4,$5,0*
20,1,$1+$1,$4,$5,$6,$7,0*
20,1,$1+$1,$6,$7,$8,$9,0*
20,1,$1+$1,$8,$9,$2,$3,0*%
G04 Aperture macros list end*
%ADD10RoundRect,0.079500X-0.100500X0.079500X-0.100500X-0.079500X0.100500X-0.079500X0.100500X0.079500X0*%
%ADD11R,0.812800X0.508000*%
%ADD12R,0.508000X0.889000*%
%ADD13RoundRect,0.218750X-0.256250X0.218750X-0.256250X-0.218750X0.256250X-0.218750X0.256250X0.218750X0*%
%ADD14RoundRect,0.250000X-0.435000X-0.615000X0.435000X-0.615000X0.435000X0.615000X-0.435000X0.615000X0*%
%ADD15RoundRect,0.125000X-0.250000X-0.125000X0.250000X-0.125000X0.250000X0.125000X-0.250000X0.125000X0*%
%ADD16RoundRect,0.079500X0.100500X-0.079500X0.100500X0.079500X-0.100500X0.079500X-0.100500X-0.079500X0*%
%ADD17RoundRect,0.079500X0.079500X0.100500X-0.079500X0.100500X-0.079500X-0.100500X0.079500X-0.100500X0*%
%ADD18R,1.150000X1.000000*%
%ADD19RoundRect,0.140000X0.170000X-0.140000X0.170000X0.140000X-0.170000X0.140000X-0.170000X-0.140000X0*%
%ADD20RoundRect,0.250000X-0.292217X-0.292217X0.292217X-0.292217X0.292217X0.292217X-0.292217X0.292217X0*%
%ADD21RoundRect,0.050000X-0.387500X-0.050000X0.387500X-0.050000X0.387500X0.050000X-0.387500X0.050000X0*%
%ADD22RoundRect,0.050000X-0.050000X-0.387500X0.050000X-0.387500X0.050000X0.387500X-0.050000X0.387500X0*%
%ADD23RoundRect,0.135000X0.135000X0.185000X-0.135000X0.185000X-0.135000X-0.185000X0.135000X-0.185000X0*%
%ADD24RoundRect,0.135000X0.185000X-0.135000X0.185000X0.135000X-0.185000X0.135000X-0.185000X-0.135000X0*%
%ADD25RoundRect,0.140000X-0.170000X0.140000X-0.170000X-0.140000X0.170000X-0.140000X0.170000X0.140000X0*%
%ADD26RoundRect,0.140000X0.140000X0.170000X-0.140000X0.170000X-0.140000X-0.170000X0.140000X-0.170000X0*%
%ADD27RoundRect,0.135000X-0.185000X0.135000X-0.185000X-0.135000X0.185000X-0.135000X0.185000X0.135000X0*%
%ADD28R,1.300000X1.700000*%
G04 APERTURE END LIST*
D10*
X91700000Y-54725000D03*
X91700000Y-55415000D03*
D11*
X81150001Y-62999998D03*
D12*
X83399999Y-64700000D03*
D11*
X81150001Y-66400002D03*
X82349999Y-66400002D03*
X82349999Y-62999998D03*
D13*
X92550000Y-50182500D03*
X92550000Y-51757500D03*
D14*
X83150000Y-49325000D03*
X84850000Y-49325000D03*
X84850000Y-51475000D03*
X83150000Y-51475000D03*
D15*
X81300000Y-48495000D03*
X81300000Y-49765000D03*
X81300000Y-51035000D03*
X81300000Y-52305000D03*
X86700000Y-52305000D03*
X86700000Y-51035000D03*
X86700000Y-49765000D03*
X86700000Y-48495000D03*
D16*
X88900000Y-51955000D03*
X88900000Y-52645000D03*
D17*
X90445000Y-53400000D03*
X89755000Y-53400000D03*
D18*
X86225000Y-65200000D03*
X87975000Y-65200000D03*
X87975000Y-63800000D03*
X86225000Y-63800000D03*
D10*
X82400000Y-54155000D03*
X82400000Y-54845000D03*
X82495000Y-58340000D03*
X82495000Y-59030000D03*
D19*
X89400000Y-66380000D03*
X89400000Y-65420000D03*
D20*
X87737500Y-58637500D03*
X87737500Y-57362500D03*
X86462500Y-57362500D03*
X86462500Y-58637500D03*
D21*
X83662500Y-55400000D03*
X83662500Y-55800000D03*
X83662500Y-56200000D03*
X83662500Y-56600000D03*
X83662500Y-57000000D03*
X83662500Y-57400000D03*
X83662500Y-57800000D03*
X83662500Y-58200000D03*
X83662500Y-58600000D03*
X83662500Y-59000000D03*
X83662500Y-59400000D03*
X83662500Y-59800000D03*
X83662500Y-60200000D03*
X83662500Y-60600000D03*
D22*
X84500000Y-61437500D03*
X84900000Y-61437500D03*
X85300000Y-61437500D03*
X85700000Y-61437500D03*
X86100000Y-61437500D03*
X86500000Y-61437500D03*
X86900000Y-61437500D03*
X87300000Y-61437500D03*
X87700000Y-61437500D03*
X88100000Y-61437500D03*
X88500000Y-61437500D03*
X88900000Y-61437500D03*
X89300000Y-61437500D03*
X89700000Y-61437500D03*
D21*
X90537500Y-60600000D03*
X90537500Y-60200000D03*
X90537500Y-59800000D03*
X90537500Y-59400000D03*
X90537500Y-59000000D03*
X90537500Y-58600000D03*
X90537500Y-58200000D03*
X90537500Y-57800000D03*
X90537500Y-57400000D03*
X90537500Y-57000000D03*
X90537500Y-56600000D03*
X90537500Y-56200000D03*
X90537500Y-55800000D03*
X90537500Y-55400000D03*
D22*
X89700000Y-54562500D03*
X89300000Y-54562500D03*
X88900000Y-54562500D03*
X88500000Y-54562500D03*
X88100000Y-54562500D03*
X87700000Y-54562500D03*
X87300000Y-54562500D03*
X86900000Y-54562500D03*
X86500000Y-54562500D03*
X86100000Y-54562500D03*
X85700000Y-54562500D03*
X85300000Y-54562500D03*
X84900000Y-54562500D03*
X84500000Y-54562500D03*
D11*
X92849999Y-66400002D03*
X91650001Y-62999998D03*
X92849999Y-62999998D03*
D12*
X90600001Y-64700000D03*
D11*
X91650001Y-66400002D03*
D23*
X92760000Y-61700000D03*
X91740000Y-61700000D03*
D24*
X89400000Y-64410000D03*
X89400000Y-63390000D03*
D10*
X91700000Y-59045000D03*
X91700000Y-58355000D03*
D25*
X84800000Y-63420000D03*
X84800000Y-64380000D03*
D16*
X88100000Y-51955000D03*
X88100000Y-52645000D03*
D26*
X90780000Y-52500000D03*
X89820000Y-52500000D03*
D27*
X80900000Y-53790000D03*
X80900000Y-54810000D03*
D28*
X83500000Y-44595000D03*
X86000000Y-44595000D03*
X88000000Y-44595000D03*
X90500000Y-44595000D03*
D23*
X91260000Y-50182500D03*
X90240000Y-50182500D03*
M02*
