G04 #@! TF.GenerationSoftware,KiCad,Pcbnew,(6.0.5-0)*
G04 #@! TF.CreationDate,2022-11-14T22:05:51-05:00*
G04 #@! TF.ProjectId,rp_ducky,72705f64-7563-46b7-992e-6b696361645f,rev?*
G04 #@! TF.SameCoordinates,Original*
G04 #@! TF.FileFunction,Legend,Top*
G04 #@! TF.FilePolarity,Positive*
%FSLAX46Y46*%
G04 Gerber Fmt 4.6, Leading zero omitted, Abs format (unit mm)*
G04 Created by KiCad (PCBNEW (6.0.5-0)) date 2022-11-14 22:05:51*
%MOMM*%
%LPD*%
G01*
G04 APERTURE LIST*
G04 Aperture macros list*
%AMRoundRect*
0 Rectangle with rounded corners*
0 $1 Rounding radius*
0 $2 $3 $4 $5 $6 $7 $8 $9 X,Y pos of 4 corners*
0 Add a 4 corners polygon primitive as box body*
4,1,4,$2,$3,$4,$5,$6,$7,$8,$9,$2,$3,0*
0 Add four circle primitives for the rounded corners*
1,1,$1+$1,$2,$3*
1,1,$1+$1,$4,$5*
1,1,$1+$1,$6,$7*
1,1,$1+$1,$8,$9*
0 Add four rect primitives between the rounded corners*
20,1,$1+$1,$2,$3,$4,$5,0*
20,1,$1+$1,$4,$5,$6,$7,0*
20,1,$1+$1,$6,$7,$8,$9,0*
20,1,$1+$1,$8,$9,$2,$3,0*%
G04 Aperture macros list end*
%ADD10C,0.100000*%
%ADD11C,0.150000*%
%ADD12C,0.120000*%
%ADD13RoundRect,0.100000X-0.100000X0.130000X-0.100000X-0.130000X0.100000X-0.130000X0.100000X0.130000X0*%
%ADD14C,0.711200*%
%ADD15R,0.812800X0.508000*%
%ADD16R,0.508000X0.889000*%
%ADD17RoundRect,0.218750X-0.256250X0.218750X-0.256250X-0.218750X0.256250X-0.218750X0.256250X0.218750X0*%
%ADD18RoundRect,0.125000X-0.250000X-0.125000X0.250000X-0.125000X0.250000X0.125000X-0.250000X0.125000X0*%
%ADD19R,3.400000X4.300000*%
%ADD20RoundRect,0.100000X0.100000X-0.130000X0.100000X0.130000X-0.100000X0.130000X-0.100000X-0.130000X0*%
%ADD21RoundRect,0.100000X0.130000X0.100000X-0.130000X0.100000X-0.130000X-0.100000X0.130000X-0.100000X0*%
%ADD22R,1.150000X1.000000*%
%ADD23RoundRect,0.140000X0.170000X-0.140000X0.170000X0.140000X-0.170000X0.140000X-0.170000X-0.140000X0*%
%ADD24RoundRect,0.050000X-0.387500X-0.050000X0.387500X-0.050000X0.387500X0.050000X-0.387500X0.050000X0*%
%ADD25RoundRect,0.050000X-0.050000X-0.387500X0.050000X-0.387500X0.050000X0.387500X-0.050000X0.387500X0*%
%ADD26RoundRect,0.144000X-1.456000X-1.456000X1.456000X-1.456000X1.456000X1.456000X-1.456000X1.456000X0*%
%ADD27RoundRect,0.135000X0.135000X0.185000X-0.135000X0.185000X-0.135000X-0.185000X0.135000X-0.185000X0*%
%ADD28RoundRect,0.135000X0.185000X-0.135000X0.185000X0.135000X-0.185000X0.135000X-0.185000X-0.135000X0*%
%ADD29RoundRect,0.140000X-0.170000X0.140000X-0.170000X-0.140000X0.170000X-0.140000X0.170000X0.140000X0*%
%ADD30RoundRect,0.140000X0.140000X0.170000X-0.140000X0.170000X-0.140000X-0.170000X0.140000X-0.170000X0*%
%ADD31RoundRect,0.135000X-0.185000X0.135000X-0.185000X-0.135000X0.185000X-0.135000X0.185000X0.135000X0*%
%ADD32R,1.300000X1.700000*%
%ADD33C,2.600000*%
G04 APERTURE END LIST*
D10*
X92451666Y-55578571D02*
X92427857Y-55602380D01*
X92356428Y-55626190D01*
X92308809Y-55626190D01*
X92237380Y-55602380D01*
X92189761Y-55554761D01*
X92165952Y-55507142D01*
X92142142Y-55411904D01*
X92142142Y-55340476D01*
X92165952Y-55245238D01*
X92189761Y-55197619D01*
X92237380Y-55150000D01*
X92308809Y-55126190D01*
X92356428Y-55126190D01*
X92427857Y-55150000D01*
X92451666Y-55173809D01*
X92618333Y-55126190D02*
X92927857Y-55126190D01*
X92761190Y-55316666D01*
X92832619Y-55316666D01*
X92880238Y-55340476D01*
X92904047Y-55364285D01*
X92927857Y-55411904D01*
X92927857Y-55530952D01*
X92904047Y-55578571D01*
X92880238Y-55602380D01*
X92832619Y-55626190D01*
X92689761Y-55626190D01*
X92642142Y-55602380D01*
X92618333Y-55578571D01*
D11*
X80948180Y-64700000D02*
X81186276Y-64700000D01*
X81091038Y-64938095D02*
X81186276Y-64700000D01*
X81091038Y-64461904D01*
X81376752Y-64842857D02*
X81186276Y-64700000D01*
X81376752Y-64557142D01*
D10*
X92180952Y-49296190D02*
X92180952Y-48796190D01*
X92300000Y-48796190D01*
X92371428Y-48820000D01*
X92419047Y-48867619D01*
X92442857Y-48915238D01*
X92466666Y-49010476D01*
X92466666Y-49081904D01*
X92442857Y-49177142D01*
X92419047Y-49224761D01*
X92371428Y-49272380D01*
X92300000Y-49296190D01*
X92180952Y-49296190D01*
X92942857Y-49296190D02*
X92657142Y-49296190D01*
X92800000Y-49296190D02*
X92800000Y-48796190D01*
X92752380Y-48867619D01*
X92704761Y-48915238D01*
X92657142Y-48939047D01*
X86369047Y-47096190D02*
X86369047Y-47500952D01*
X86392857Y-47548571D01*
X86416666Y-47572380D01*
X86464285Y-47596190D01*
X86559523Y-47596190D01*
X86607142Y-47572380D01*
X86630952Y-47548571D01*
X86654761Y-47500952D01*
X86654761Y-47096190D01*
X86869047Y-47143809D02*
X86892857Y-47120000D01*
X86940476Y-47096190D01*
X87059523Y-47096190D01*
X87107142Y-47120000D01*
X87130952Y-47143809D01*
X87154761Y-47191428D01*
X87154761Y-47239047D01*
X87130952Y-47310476D01*
X86845238Y-47596190D01*
X87154761Y-47596190D01*
X88966666Y-51496190D02*
X88800000Y-51258095D01*
X88680952Y-51496190D02*
X88680952Y-50996190D01*
X88871428Y-50996190D01*
X88919047Y-51020000D01*
X88942857Y-51043809D01*
X88966666Y-51091428D01*
X88966666Y-51162857D01*
X88942857Y-51210476D01*
X88919047Y-51234285D01*
X88871428Y-51258095D01*
X88680952Y-51258095D01*
X89133333Y-50996190D02*
X89466666Y-50996190D01*
X89252380Y-51496190D01*
X91246666Y-53618571D02*
X91222857Y-53642380D01*
X91151428Y-53666190D01*
X91103809Y-53666190D01*
X91032380Y-53642380D01*
X90984761Y-53594761D01*
X90960952Y-53547142D01*
X90937142Y-53451904D01*
X90937142Y-53380476D01*
X90960952Y-53285238D01*
X90984761Y-53237619D01*
X91032380Y-53190000D01*
X91103809Y-53166190D01*
X91151428Y-53166190D01*
X91222857Y-53190000D01*
X91246666Y-53213809D01*
X91413333Y-53166190D02*
X91746666Y-53166190D01*
X91532380Y-53666190D01*
X86051904Y-62638095D02*
X86051904Y-62876190D01*
X85885238Y-62376190D02*
X86051904Y-62638095D01*
X86218571Y-62376190D01*
X86647142Y-62876190D02*
X86361428Y-62876190D01*
X86504285Y-62876190D02*
X86504285Y-62376190D01*
X86456666Y-62447619D01*
X86409047Y-62495238D01*
X86361428Y-62519047D01*
X82316666Y-53638571D02*
X82292857Y-53662380D01*
X82221428Y-53686190D01*
X82173809Y-53686190D01*
X82102380Y-53662380D01*
X82054761Y-53614761D01*
X82030952Y-53567142D01*
X82007142Y-53471904D01*
X82007142Y-53400476D01*
X82030952Y-53305238D01*
X82054761Y-53257619D01*
X82102380Y-53210000D01*
X82173809Y-53186190D01*
X82221428Y-53186190D01*
X82292857Y-53210000D01*
X82316666Y-53233809D01*
X82769047Y-53186190D02*
X82530952Y-53186190D01*
X82507142Y-53424285D01*
X82530952Y-53400476D01*
X82578571Y-53376666D01*
X82697619Y-53376666D01*
X82745238Y-53400476D01*
X82769047Y-53424285D01*
X82792857Y-53471904D01*
X82792857Y-53590952D01*
X82769047Y-53638571D01*
X82745238Y-53662380D01*
X82697619Y-53686190D01*
X82578571Y-53686190D01*
X82530952Y-53662380D01*
X82507142Y-53638571D01*
X81546666Y-58863571D02*
X81522857Y-58887380D01*
X81451428Y-58911190D01*
X81403809Y-58911190D01*
X81332380Y-58887380D01*
X81284761Y-58839761D01*
X81260952Y-58792142D01*
X81237142Y-58696904D01*
X81237142Y-58625476D01*
X81260952Y-58530238D01*
X81284761Y-58482619D01*
X81332380Y-58435000D01*
X81403809Y-58411190D01*
X81451428Y-58411190D01*
X81522857Y-58435000D01*
X81546666Y-58458809D01*
X81975238Y-58577857D02*
X81975238Y-58911190D01*
X81856190Y-58387380D02*
X81737142Y-58744523D01*
X82046666Y-58744523D01*
X86628571Y-66648571D02*
X86604761Y-66672380D01*
X86533333Y-66696190D01*
X86485714Y-66696190D01*
X86414285Y-66672380D01*
X86366666Y-66624761D01*
X86342857Y-66577142D01*
X86319047Y-66481904D01*
X86319047Y-66410476D01*
X86342857Y-66315238D01*
X86366666Y-66267619D01*
X86414285Y-66220000D01*
X86485714Y-66196190D01*
X86533333Y-66196190D01*
X86604761Y-66220000D01*
X86628571Y-66243809D01*
X87104761Y-66696190D02*
X86819047Y-66696190D01*
X86961904Y-66696190D02*
X86961904Y-66196190D01*
X86914285Y-66267619D01*
X86866666Y-66315238D01*
X86819047Y-66339047D01*
X87533333Y-66196190D02*
X87438095Y-66196190D01*
X87390476Y-66220000D01*
X87366666Y-66243809D01*
X87319047Y-66315238D01*
X87295238Y-66410476D01*
X87295238Y-66600952D01*
X87319047Y-66648571D01*
X87342857Y-66672380D01*
X87390476Y-66696190D01*
X87485714Y-66696190D01*
X87533333Y-66672380D01*
X87557142Y-66648571D01*
X87580952Y-66600952D01*
X87580952Y-66481904D01*
X87557142Y-66434285D01*
X87533333Y-66410476D01*
X87485714Y-66386666D01*
X87390476Y-66386666D01*
X87342857Y-66410476D01*
X87319047Y-66434285D01*
X87295238Y-66481904D01*
X87734047Y-53281190D02*
X87734047Y-53685952D01*
X87757857Y-53733571D01*
X87781666Y-53757380D01*
X87829285Y-53781190D01*
X87924523Y-53781190D01*
X87972142Y-53757380D01*
X87995952Y-53733571D01*
X88019761Y-53685952D01*
X88019761Y-53281190D01*
X88210238Y-53281190D02*
X88519761Y-53281190D01*
X88353095Y-53471666D01*
X88424523Y-53471666D01*
X88472142Y-53495476D01*
X88495952Y-53519285D01*
X88519761Y-53566904D01*
X88519761Y-53685952D01*
X88495952Y-53733571D01*
X88472142Y-53757380D01*
X88424523Y-53781190D01*
X88281666Y-53781190D01*
X88234047Y-53757380D01*
X88210238Y-53733571D01*
D11*
X91956580Y-64700000D02*
X92194676Y-64700000D01*
X92099438Y-64938095D02*
X92194676Y-64700000D01*
X92099438Y-64461904D01*
X92385152Y-64842857D02*
X92194676Y-64700000D01*
X92385152Y-64557142D01*
D10*
X91766666Y-61126190D02*
X91600000Y-60888095D01*
X91480952Y-61126190D02*
X91480952Y-60626190D01*
X91671428Y-60626190D01*
X91719047Y-60650000D01*
X91742857Y-60673809D01*
X91766666Y-60721428D01*
X91766666Y-60792857D01*
X91742857Y-60840476D01*
X91719047Y-60864285D01*
X91671428Y-60888095D01*
X91480952Y-60888095D01*
X92219047Y-60626190D02*
X91980952Y-60626190D01*
X91957142Y-60864285D01*
X91980952Y-60840476D01*
X92028571Y-60816666D01*
X92147619Y-60816666D01*
X92195238Y-60840476D01*
X92219047Y-60864285D01*
X92242857Y-60911904D01*
X92242857Y-61030952D01*
X92219047Y-61078571D01*
X92195238Y-61102380D01*
X92147619Y-61126190D01*
X92028571Y-61126190D01*
X91980952Y-61102380D01*
X91957142Y-61078571D01*
X89666666Y-62896190D02*
X89500000Y-62658095D01*
X89380952Y-62896190D02*
X89380952Y-62396190D01*
X89571428Y-62396190D01*
X89619047Y-62420000D01*
X89642857Y-62443809D01*
X89666666Y-62491428D01*
X89666666Y-62562857D01*
X89642857Y-62610476D01*
X89619047Y-62634285D01*
X89571428Y-62658095D01*
X89380952Y-62658095D01*
X89833333Y-62396190D02*
X90142857Y-62396190D01*
X89976190Y-62586666D01*
X90047619Y-62586666D01*
X90095238Y-62610476D01*
X90119047Y-62634285D01*
X90142857Y-62681904D01*
X90142857Y-62800952D01*
X90119047Y-62848571D01*
X90095238Y-62872380D01*
X90047619Y-62896190D01*
X89904761Y-62896190D01*
X89857142Y-62872380D01*
X89833333Y-62848571D01*
X92508571Y-58888571D02*
X92484761Y-58912380D01*
X92413333Y-58936190D01*
X92365714Y-58936190D01*
X92294285Y-58912380D01*
X92246666Y-58864761D01*
X92222857Y-58817142D01*
X92199047Y-58721904D01*
X92199047Y-58650476D01*
X92222857Y-58555238D01*
X92246666Y-58507619D01*
X92294285Y-58460000D01*
X92365714Y-58436190D01*
X92413333Y-58436190D01*
X92484761Y-58460000D01*
X92508571Y-58483809D01*
X92984761Y-58936190D02*
X92699047Y-58936190D01*
X92841904Y-58936190D02*
X92841904Y-58436190D01*
X92794285Y-58507619D01*
X92746666Y-58555238D01*
X92699047Y-58579047D01*
X93151428Y-58436190D02*
X93460952Y-58436190D01*
X93294285Y-58626666D01*
X93365714Y-58626666D01*
X93413333Y-58650476D01*
X93437142Y-58674285D01*
X93460952Y-58721904D01*
X93460952Y-58840952D01*
X93437142Y-58888571D01*
X93413333Y-58912380D01*
X93365714Y-58936190D01*
X93222857Y-58936190D01*
X93175238Y-58912380D01*
X93151428Y-58888571D01*
X84263571Y-65358571D02*
X84239761Y-65382380D01*
X84168333Y-65406190D01*
X84120714Y-65406190D01*
X84049285Y-65382380D01*
X84001666Y-65334761D01*
X83977857Y-65287142D01*
X83954047Y-65191904D01*
X83954047Y-65120476D01*
X83977857Y-65025238D01*
X84001666Y-64977619D01*
X84049285Y-64930000D01*
X84120714Y-64906190D01*
X84168333Y-64906190D01*
X84239761Y-64930000D01*
X84263571Y-64953809D01*
X84739761Y-65406190D02*
X84454047Y-65406190D01*
X84596904Y-65406190D02*
X84596904Y-64906190D01*
X84549285Y-64977619D01*
X84501666Y-65025238D01*
X84454047Y-65049047D01*
X84930238Y-64953809D02*
X84954047Y-64930000D01*
X85001666Y-64906190D01*
X85120714Y-64906190D01*
X85168333Y-64930000D01*
X85192142Y-64953809D01*
X85215952Y-65001428D01*
X85215952Y-65049047D01*
X85192142Y-65120476D01*
X84906428Y-65406190D01*
X85215952Y-65406190D01*
X87916666Y-51496190D02*
X87750000Y-51258095D01*
X87630952Y-51496190D02*
X87630952Y-50996190D01*
X87821428Y-50996190D01*
X87869047Y-51020000D01*
X87892857Y-51043809D01*
X87916666Y-51091428D01*
X87916666Y-51162857D01*
X87892857Y-51210476D01*
X87869047Y-51234285D01*
X87821428Y-51258095D01*
X87630952Y-51258095D01*
X88345238Y-50996190D02*
X88250000Y-50996190D01*
X88202380Y-51020000D01*
X88178571Y-51043809D01*
X88130952Y-51115238D01*
X88107142Y-51210476D01*
X88107142Y-51400952D01*
X88130952Y-51448571D01*
X88154761Y-51472380D01*
X88202380Y-51496190D01*
X88297619Y-51496190D01*
X88345238Y-51472380D01*
X88369047Y-51448571D01*
X88392857Y-51400952D01*
X88392857Y-51281904D01*
X88369047Y-51234285D01*
X88345238Y-51210476D01*
X88297619Y-51186666D01*
X88202380Y-51186666D01*
X88154761Y-51210476D01*
X88130952Y-51234285D01*
X88107142Y-51281904D01*
X90518571Y-51948571D02*
X90494761Y-51972380D01*
X90423333Y-51996190D01*
X90375714Y-51996190D01*
X90304285Y-51972380D01*
X90256666Y-51924761D01*
X90232857Y-51877142D01*
X90209047Y-51781904D01*
X90209047Y-51710476D01*
X90232857Y-51615238D01*
X90256666Y-51567619D01*
X90304285Y-51520000D01*
X90375714Y-51496190D01*
X90423333Y-51496190D01*
X90494761Y-51520000D01*
X90518571Y-51543809D01*
X90994761Y-51996190D02*
X90709047Y-51996190D01*
X90851904Y-51996190D02*
X90851904Y-51496190D01*
X90804285Y-51567619D01*
X90756666Y-51615238D01*
X90709047Y-51639047D01*
X91423333Y-51662857D02*
X91423333Y-51996190D01*
X91304285Y-51472380D02*
X91185238Y-51829523D01*
X91494761Y-51829523D01*
X80396666Y-53316190D02*
X80230000Y-53078095D01*
X80110952Y-53316190D02*
X80110952Y-52816190D01*
X80301428Y-52816190D01*
X80349047Y-52840000D01*
X80372857Y-52863809D01*
X80396666Y-52911428D01*
X80396666Y-52982857D01*
X80372857Y-53030476D01*
X80349047Y-53054285D01*
X80301428Y-53078095D01*
X80110952Y-53078095D01*
X80587142Y-52863809D02*
X80610952Y-52840000D01*
X80658571Y-52816190D01*
X80777619Y-52816190D01*
X80825238Y-52840000D01*
X80849047Y-52863809D01*
X80872857Y-52911428D01*
X80872857Y-52959047D01*
X80849047Y-53030476D01*
X80563333Y-53316190D01*
X80872857Y-53316190D01*
X81323333Y-42606190D02*
X81323333Y-42963333D01*
X81299523Y-43034761D01*
X81251904Y-43082380D01*
X81180476Y-43106190D01*
X81132857Y-43106190D01*
X81823333Y-43106190D02*
X81537619Y-43106190D01*
X81680476Y-43106190D02*
X81680476Y-42606190D01*
X81632857Y-42677619D01*
X81585238Y-42725238D01*
X81537619Y-42749047D01*
X90666666Y-49596190D02*
X90500000Y-49358095D01*
X90380952Y-49596190D02*
X90380952Y-49096190D01*
X90571428Y-49096190D01*
X90619047Y-49120000D01*
X90642857Y-49143809D01*
X90666666Y-49191428D01*
X90666666Y-49262857D01*
X90642857Y-49310476D01*
X90619047Y-49334285D01*
X90571428Y-49358095D01*
X90380952Y-49358095D01*
X91142857Y-49596190D02*
X90857142Y-49596190D01*
X91000000Y-49596190D02*
X91000000Y-49096190D01*
X90952380Y-49167619D01*
X90904761Y-49215238D01*
X90857142Y-49239047D01*
D12*
X83350000Y-63922760D02*
X83350000Y-62769600D01*
X80150000Y-62770000D02*
X80150000Y-63200000D01*
X80560000Y-62769600D02*
X80150000Y-62769600D01*
X80150000Y-66230000D02*
X80150000Y-66630000D01*
X83343931Y-62769600D02*
X82956070Y-62769600D01*
X80150000Y-66630400D02*
X80560000Y-66630400D01*
X82950000Y-66630400D02*
X83337861Y-66630400D01*
X83350000Y-66630400D02*
X83350000Y-65477240D01*
X93285000Y-49485000D02*
X91815000Y-49485000D01*
X91815000Y-49485000D02*
X91815000Y-51770000D01*
X93285000Y-51770000D02*
X93285000Y-49485000D01*
X81000000Y-53010000D02*
X87000000Y-53010000D01*
X84000000Y-47790000D02*
X87000000Y-47790000D01*
X85450000Y-63100000D02*
X85450000Y-65900000D01*
X85450000Y-65900000D02*
X88750000Y-65900000D01*
X89040000Y-66007836D02*
X89040000Y-65792164D01*
X89760000Y-66007836D02*
X89760000Y-65792164D01*
X90710000Y-61610000D02*
X90710000Y-60960000D01*
X84140000Y-61610000D02*
X83490000Y-61610000D01*
X90710000Y-54390000D02*
X90710000Y-55040000D01*
X90060000Y-54390000D02*
X90710000Y-54390000D01*
X90060000Y-61610000D02*
X90710000Y-61610000D01*
X84140000Y-54390000D02*
X83490000Y-54390000D01*
X83490000Y-61610000D02*
X83490000Y-60960000D01*
X90656069Y-66630400D02*
X91043930Y-66630400D01*
X93850000Y-63170000D02*
X93850000Y-62770000D01*
X93850000Y-66630000D02*
X93850000Y-66200000D01*
X91050000Y-62769600D02*
X90662139Y-62769600D01*
X93440000Y-66630400D02*
X93850000Y-66630400D01*
X90650000Y-62769600D02*
X90650000Y-63922760D01*
X93850000Y-62769600D02*
X93440000Y-62769600D01*
X90650000Y-65477240D02*
X90650000Y-66630400D01*
X92403641Y-61320000D02*
X92096359Y-61320000D01*
X92403641Y-62080000D02*
X92096359Y-62080000D01*
X89020000Y-64053641D02*
X89020000Y-63746359D01*
X89780000Y-64053641D02*
X89780000Y-63746359D01*
X85160000Y-63792164D02*
X85160000Y-64007836D01*
X84440000Y-63792164D02*
X84440000Y-64007836D01*
X90407836Y-52140000D02*
X90192164Y-52140000D01*
X90407836Y-52860000D02*
X90192164Y-52860000D01*
X80520000Y-54146359D02*
X80520000Y-54453641D01*
X81280000Y-54146359D02*
X81280000Y-54453641D01*
X91610000Y-44745000D02*
X92290000Y-44745000D01*
X93060000Y-40005000D02*
X93060000Y-40405000D01*
X84300000Y-46520000D02*
X83700000Y-46520000D01*
X80940000Y-40005000D02*
X80940000Y-40405000D01*
X82390000Y-44745000D02*
X81710000Y-44745000D01*
X90903641Y-49802500D02*
X90596359Y-49802500D01*
X90903641Y-50562500D02*
X90596359Y-50562500D01*
%LPC*%
D13*
X91700000Y-54750000D03*
X91700000Y-55390000D03*
D14*
X81750000Y-63699999D03*
X81750000Y-65700001D03*
D15*
X81150001Y-62999998D03*
D16*
X83399999Y-64700000D03*
D15*
X81150001Y-66400002D03*
X82349999Y-66400002D03*
X82349999Y-62999998D03*
D17*
X92550000Y-50182500D03*
X92550000Y-51757500D03*
D18*
X81300000Y-48495000D03*
X81300000Y-49765000D03*
X81300000Y-51035000D03*
X81300000Y-52305000D03*
X86700000Y-52305000D03*
X86700000Y-51035000D03*
X86700000Y-49765000D03*
X86700000Y-48495000D03*
D19*
X84000000Y-50400000D03*
D20*
X88900000Y-52620000D03*
X88900000Y-51980000D03*
D21*
X90420000Y-53400000D03*
X89780000Y-53400000D03*
D22*
X86225000Y-65200000D03*
X87975000Y-65200000D03*
X87975000Y-63800000D03*
X86225000Y-63800000D03*
D13*
X82400000Y-54180000D03*
X82400000Y-54820000D03*
X82495000Y-58365000D03*
X82495000Y-59005000D03*
D23*
X89400000Y-66380000D03*
X89400000Y-65420000D03*
D24*
X83662500Y-55400000D03*
X83662500Y-55800000D03*
X83662500Y-56200000D03*
X83662500Y-56600000D03*
X83662500Y-57000000D03*
X83662500Y-57400000D03*
X83662500Y-57800000D03*
X83662500Y-58200000D03*
X83662500Y-58600000D03*
X83662500Y-59000000D03*
X83662500Y-59400000D03*
X83662500Y-59800000D03*
X83662500Y-60200000D03*
X83662500Y-60600000D03*
D25*
X84500000Y-61437500D03*
X84900000Y-61437500D03*
X85300000Y-61437500D03*
X85700000Y-61437500D03*
X86100000Y-61437500D03*
X86500000Y-61437500D03*
X86900000Y-61437500D03*
X87300000Y-61437500D03*
X87700000Y-61437500D03*
X88100000Y-61437500D03*
X88500000Y-61437500D03*
X88900000Y-61437500D03*
X89300000Y-61437500D03*
X89700000Y-61437500D03*
D24*
X90537500Y-60600000D03*
X90537500Y-60200000D03*
X90537500Y-59800000D03*
X90537500Y-59400000D03*
X90537500Y-59000000D03*
X90537500Y-58600000D03*
X90537500Y-58200000D03*
X90537500Y-57800000D03*
X90537500Y-57400000D03*
X90537500Y-57000000D03*
X90537500Y-56600000D03*
X90537500Y-56200000D03*
X90537500Y-55800000D03*
X90537500Y-55400000D03*
D25*
X89700000Y-54562500D03*
X89300000Y-54562500D03*
X88900000Y-54562500D03*
X88500000Y-54562500D03*
X88100000Y-54562500D03*
X87700000Y-54562500D03*
X87300000Y-54562500D03*
X86900000Y-54562500D03*
X86500000Y-54562500D03*
X86100000Y-54562500D03*
X85700000Y-54562500D03*
X85300000Y-54562500D03*
X84900000Y-54562500D03*
X84500000Y-54562500D03*
D26*
X87100000Y-58000000D03*
D14*
X92250000Y-63699999D03*
X92250000Y-65700001D03*
D15*
X92849999Y-66400002D03*
X91650001Y-62999998D03*
X92849999Y-62999998D03*
D16*
X90600001Y-64700000D03*
D15*
X91650001Y-66400002D03*
D27*
X92760000Y-61700000D03*
X91740000Y-61700000D03*
D28*
X89400000Y-64410000D03*
X89400000Y-63390000D03*
D13*
X91700000Y-58380000D03*
X91700000Y-59020000D03*
D29*
X84800000Y-63420000D03*
X84800000Y-64380000D03*
D20*
X88100000Y-52620000D03*
X88100000Y-51980000D03*
D30*
X90780000Y-52500000D03*
X89820000Y-52500000D03*
D31*
X80900000Y-53790000D03*
X80900000Y-54810000D03*
D32*
X83500000Y-44595000D03*
X86000000Y-44595000D03*
X88000000Y-44595000D03*
X90500000Y-44595000D03*
D33*
X89250000Y-42245000D03*
X84650000Y-42245000D03*
D27*
X91260000Y-50182500D03*
X90240000Y-50182500D03*
M02*
