G04 #@! TF.GenerationSoftware,KiCad,Pcbnew,(6.0.5-0)*
G04 #@! TF.CreationDate,2022-11-14T22:05:51-05:00*
G04 #@! TF.ProjectId,rp_ducky,72705f64-7563-46b7-992e-6b696361645f,rev?*
G04 #@! TF.SameCoordinates,Original*
G04 #@! TF.FileFunction,Copper,L2,Inr*
G04 #@! TF.FilePolarity,Positive*
%FSLAX46Y46*%
G04 Gerber Fmt 4.6, Leading zero omitted, Abs format (unit mm)*
G04 Created by KiCad (PCBNEW (6.0.5-0)) date 2022-11-14 22:05:51*
%MOMM*%
%LPD*%
G01*
G04 APERTURE LIST*
G04 #@! TA.AperFunction,ComponentPad*
%ADD10C,0.600000*%
G04 #@! TD*
G04 #@! TA.AperFunction,ComponentPad*
%ADD11C,2.600000*%
G04 #@! TD*
G04 #@! TA.AperFunction,ViaPad*
%ADD12C,0.600000*%
G04 #@! TD*
G04 #@! TA.AperFunction,ViaPad*
%ADD13C,0.800000*%
G04 #@! TD*
G04 APERTURE END LIST*
D10*
X85825000Y-58000000D03*
X88375000Y-59275000D03*
X88375000Y-58000000D03*
X85825000Y-56725000D03*
X88375000Y-56725000D03*
X87100000Y-56725000D03*
X87100000Y-59275000D03*
X87100000Y-58000000D03*
X85825000Y-59275000D03*
D11*
X89250000Y-42245000D03*
X84650000Y-42245000D03*
D12*
X91500000Y-46620000D03*
X87100000Y-63030000D03*
X89560000Y-50182500D03*
X85950000Y-55750000D03*
X91500000Y-47870000D03*
X84000000Y-51500000D03*
D13*
X82350000Y-45070000D03*
D12*
X87625000Y-66205000D03*
X92750000Y-47870000D03*
X82495000Y-57685000D03*
X85150000Y-49130000D03*
X88585000Y-66380000D03*
X81150000Y-62335000D03*
X91700000Y-54110000D03*
X84000000Y-50500000D03*
X92750000Y-44120000D03*
X81700000Y-53100000D03*
X81680000Y-54180000D03*
X90450000Y-54470000D03*
X92750000Y-46620000D03*
X84000000Y-49500000D03*
X93550000Y-65860000D03*
X91700000Y-57800000D03*
X85420000Y-62960000D03*
X80440000Y-48480000D03*
X92750000Y-45370000D03*
X81950000Y-44170000D03*
X80950000Y-44170000D03*
X80950000Y-45070000D03*
X89800000Y-51700000D03*
X92750000Y-60870000D03*
X91700000Y-59600000D03*
X84550000Y-47020000D03*
X83550000Y-47020000D03*
X87300000Y-53650000D03*
X87300000Y-60500000D03*
X82695000Y-55835000D03*
X81700000Y-55050000D03*
X82495000Y-59695000D03*
X84050000Y-47770000D03*
X86080000Y-47870000D03*
X89000000Y-53700000D03*
X86900000Y-55750000D03*
X83160000Y-54560000D03*
X81467500Y-56327500D03*
X88500000Y-46660000D03*
X88100000Y-50510000D03*
X84890723Y-53300980D03*
X84900000Y-55550000D03*
G04 #@! TA.AperFunction,Conductor*
G36*
X93841621Y-40120502D02*
G01*
X93888114Y-40174158D01*
X93899500Y-40226500D01*
X93899500Y-66874000D01*
X93879498Y-66942121D01*
X93825842Y-66988614D01*
X93773500Y-67000000D01*
X91187196Y-67000000D01*
X91119075Y-66979998D01*
X91090361Y-66952877D01*
X91085490Y-66937888D01*
X91071950Y-66928050D01*
X91062112Y-66914510D01*
X91046195Y-66909338D01*
X91032654Y-66899500D01*
X82967346Y-66899500D01*
X82953805Y-66909338D01*
X82937888Y-66914510D01*
X82928050Y-66928050D01*
X82914510Y-66937888D01*
X82910023Y-66951697D01*
X82858521Y-66991414D01*
X82812804Y-67000000D01*
X80226500Y-67000000D01*
X80158379Y-66979998D01*
X80111886Y-66926342D01*
X80100500Y-66874000D01*
X80100500Y-65735247D01*
X81189780Y-65735247D01*
X81219895Y-65884603D01*
X81289066Y-66020359D01*
X81392196Y-66132512D01*
X81399498Y-66137040D01*
X81399500Y-66137041D01*
X81460288Y-66174731D01*
X81521687Y-66212800D01*
X81529936Y-66215196D01*
X81529937Y-66215197D01*
X81605812Y-66237240D01*
X81668000Y-66255307D01*
X81675365Y-66255848D01*
X81676505Y-66255932D01*
X81676516Y-66255932D01*
X81678812Y-66256101D01*
X81788165Y-66256101D01*
X81792410Y-66255519D01*
X81792417Y-66255519D01*
X81892443Y-66241817D01*
X81892446Y-66241816D01*
X81900952Y-66240651D01*
X82040783Y-66180141D01*
X82159191Y-66084256D01*
X82164167Y-66077254D01*
X82164169Y-66077252D01*
X82242475Y-65967064D01*
X82247451Y-65960062D01*
X82299062Y-65816708D01*
X82305044Y-65735247D01*
X91689780Y-65735247D01*
X91719895Y-65884603D01*
X91789066Y-66020359D01*
X91892196Y-66132512D01*
X91899498Y-66137040D01*
X91899500Y-66137041D01*
X91960288Y-66174731D01*
X92021687Y-66212800D01*
X92029936Y-66215196D01*
X92029937Y-66215197D01*
X92105812Y-66237240D01*
X92168000Y-66255307D01*
X92175365Y-66255848D01*
X92176505Y-66255932D01*
X92176516Y-66255932D01*
X92178812Y-66256101D01*
X92288165Y-66256101D01*
X92292410Y-66255519D01*
X92292417Y-66255519D01*
X92392443Y-66241817D01*
X92392446Y-66241816D01*
X92400952Y-66240651D01*
X92540783Y-66180141D01*
X92659191Y-66084256D01*
X92664167Y-66077254D01*
X92664169Y-66077252D01*
X92742475Y-65967064D01*
X92747451Y-65960062D01*
X92799062Y-65816708D01*
X92810220Y-65664755D01*
X92780105Y-65515399D01*
X92710934Y-65379643D01*
X92607804Y-65267490D01*
X92600502Y-65262962D01*
X92600500Y-65262961D01*
X92485614Y-65191729D01*
X92485615Y-65191729D01*
X92478313Y-65187202D01*
X92470064Y-65184806D01*
X92470063Y-65184805D01*
X92338340Y-65146537D01*
X92338341Y-65146537D01*
X92332000Y-65144695D01*
X92324635Y-65144154D01*
X92323495Y-65144070D01*
X92323484Y-65144070D01*
X92321188Y-65143901D01*
X92211835Y-65143901D01*
X92207590Y-65144483D01*
X92207583Y-65144483D01*
X92107557Y-65158185D01*
X92107554Y-65158186D01*
X92099048Y-65159351D01*
X91959217Y-65219861D01*
X91840809Y-65315746D01*
X91835833Y-65322748D01*
X91835831Y-65322750D01*
X91757525Y-65432938D01*
X91752549Y-65439940D01*
X91700938Y-65583294D01*
X91689780Y-65735247D01*
X82305044Y-65735247D01*
X82310220Y-65664755D01*
X82280105Y-65515399D01*
X82210934Y-65379643D01*
X82107804Y-65267490D01*
X82100502Y-65262962D01*
X82100500Y-65262961D01*
X81985614Y-65191729D01*
X81985615Y-65191729D01*
X81978313Y-65187202D01*
X81970064Y-65184806D01*
X81970063Y-65184805D01*
X81838340Y-65146537D01*
X81838341Y-65146537D01*
X81832000Y-65144695D01*
X81824635Y-65144154D01*
X81823495Y-65144070D01*
X81823484Y-65144070D01*
X81821188Y-65143901D01*
X81711835Y-65143901D01*
X81707590Y-65144483D01*
X81707583Y-65144483D01*
X81607557Y-65158185D01*
X81607554Y-65158186D01*
X81599048Y-65159351D01*
X81459217Y-65219861D01*
X81340809Y-65315746D01*
X81335833Y-65322748D01*
X81335831Y-65322750D01*
X81257525Y-65432938D01*
X81252549Y-65439940D01*
X81200938Y-65583294D01*
X81189780Y-65735247D01*
X80100500Y-65735247D01*
X80100500Y-63735245D01*
X81189780Y-63735245D01*
X81219895Y-63884601D01*
X81289066Y-64020357D01*
X81392196Y-64132510D01*
X81399498Y-64137038D01*
X81399500Y-64137039D01*
X81460288Y-64174729D01*
X81521687Y-64212798D01*
X81529936Y-64215194D01*
X81529937Y-64215195D01*
X81605812Y-64237238D01*
X81668000Y-64255305D01*
X81675365Y-64255846D01*
X81676505Y-64255930D01*
X81676516Y-64255930D01*
X81678812Y-64256099D01*
X81788165Y-64256099D01*
X81792410Y-64255517D01*
X81792417Y-64255517D01*
X81892443Y-64241815D01*
X81892446Y-64241814D01*
X81900952Y-64240649D01*
X82040783Y-64180139D01*
X82159191Y-64084254D01*
X82164167Y-64077252D01*
X82164169Y-64077250D01*
X82242475Y-63967062D01*
X82247451Y-63960060D01*
X82299062Y-63816706D01*
X82305044Y-63735245D01*
X91689780Y-63735245D01*
X91719895Y-63884601D01*
X91789066Y-64020357D01*
X91892196Y-64132510D01*
X91899498Y-64137038D01*
X91899500Y-64137039D01*
X91960288Y-64174729D01*
X92021687Y-64212798D01*
X92029936Y-64215194D01*
X92029937Y-64215195D01*
X92105812Y-64237238D01*
X92168000Y-64255305D01*
X92175365Y-64255846D01*
X92176505Y-64255930D01*
X92176516Y-64255930D01*
X92178812Y-64256099D01*
X92288165Y-64256099D01*
X92292410Y-64255517D01*
X92292417Y-64255517D01*
X92392443Y-64241815D01*
X92392446Y-64241814D01*
X92400952Y-64240649D01*
X92540783Y-64180139D01*
X92659191Y-64084254D01*
X92664167Y-64077252D01*
X92664169Y-64077250D01*
X92742475Y-63967062D01*
X92747451Y-63960060D01*
X92799062Y-63816706D01*
X92810220Y-63664753D01*
X92780105Y-63515397D01*
X92710934Y-63379641D01*
X92607804Y-63267488D01*
X92600502Y-63262960D01*
X92600500Y-63262959D01*
X92485614Y-63191727D01*
X92485615Y-63191727D01*
X92478313Y-63187200D01*
X92470064Y-63184804D01*
X92470063Y-63184803D01*
X92338340Y-63146535D01*
X92338341Y-63146535D01*
X92332000Y-63144693D01*
X92324635Y-63144152D01*
X92323495Y-63144068D01*
X92323484Y-63144068D01*
X92321188Y-63143899D01*
X92211835Y-63143899D01*
X92207590Y-63144481D01*
X92207583Y-63144481D01*
X92107557Y-63158183D01*
X92107554Y-63158184D01*
X92099048Y-63159349D01*
X91959217Y-63219859D01*
X91840809Y-63315744D01*
X91835833Y-63322746D01*
X91835831Y-63322748D01*
X91757525Y-63432936D01*
X91752549Y-63439938D01*
X91700938Y-63583292D01*
X91689780Y-63735245D01*
X82305044Y-63735245D01*
X82310220Y-63664753D01*
X82280105Y-63515397D01*
X82210934Y-63379641D01*
X82107804Y-63267488D01*
X82100502Y-63262960D01*
X82100500Y-63262959D01*
X81985614Y-63191727D01*
X81985615Y-63191727D01*
X81978313Y-63187200D01*
X81970064Y-63184804D01*
X81970063Y-63184803D01*
X81838340Y-63146535D01*
X81838341Y-63146535D01*
X81832000Y-63144693D01*
X81824635Y-63144152D01*
X81823495Y-63144068D01*
X81823484Y-63144068D01*
X81821188Y-63143899D01*
X81711835Y-63143899D01*
X81707590Y-63144481D01*
X81707583Y-63144481D01*
X81607557Y-63158183D01*
X81607554Y-63158184D01*
X81599048Y-63159349D01*
X81459217Y-63219859D01*
X81340809Y-63315744D01*
X81335833Y-63322746D01*
X81335831Y-63322748D01*
X81257525Y-63432936D01*
X81252549Y-63439938D01*
X81200938Y-63583292D01*
X81189780Y-63735245D01*
X80100500Y-63735245D01*
X80100500Y-59695000D01*
X82089508Y-59695000D01*
X82109354Y-59820304D01*
X82166950Y-59933342D01*
X82256658Y-60023050D01*
X82369696Y-60080646D01*
X82379485Y-60082196D01*
X82379487Y-60082197D01*
X82485207Y-60098941D01*
X82495000Y-60100492D01*
X82504793Y-60098941D01*
X82610513Y-60082197D01*
X82610515Y-60082196D01*
X82620304Y-60080646D01*
X82733342Y-60023050D01*
X82756038Y-60000354D01*
X85464475Y-60000354D01*
X85467258Y-60004073D01*
X85621680Y-60061502D01*
X85635278Y-60064892D01*
X85800990Y-60087004D01*
X85814986Y-60087297D01*
X85981477Y-60072144D01*
X85995204Y-60069327D01*
X86154202Y-60017666D01*
X86166953Y-60011881D01*
X86173769Y-60007818D01*
X86180690Y-60000354D01*
X86739475Y-60000354D01*
X86742258Y-60004073D01*
X86896684Y-60061503D01*
X86903901Y-60063303D01*
X86965157Y-60099194D01*
X86997286Y-60162505D01*
X86990086Y-60233135D01*
X86977055Y-60256553D01*
X86971950Y-60261658D01*
X86914354Y-60374696D01*
X86894508Y-60500000D01*
X86896059Y-60509793D01*
X86902263Y-60548961D01*
X86914354Y-60625304D01*
X86971950Y-60738342D01*
X87061658Y-60828050D01*
X87174696Y-60885646D01*
X87184485Y-60887196D01*
X87184487Y-60887197D01*
X87290207Y-60903941D01*
X87300000Y-60905492D01*
X87309793Y-60903941D01*
X87415513Y-60887197D01*
X87415515Y-60887196D01*
X87425304Y-60885646D01*
X87456011Y-60870000D01*
X92344508Y-60870000D01*
X92364354Y-60995304D01*
X92421950Y-61108342D01*
X92511658Y-61198050D01*
X92624696Y-61255646D01*
X92634485Y-61257196D01*
X92634487Y-61257197D01*
X92740207Y-61273941D01*
X92750000Y-61275492D01*
X92759793Y-61273941D01*
X92865513Y-61257197D01*
X92865515Y-61257196D01*
X92875304Y-61255646D01*
X92988342Y-61198050D01*
X93078050Y-61108342D01*
X93135646Y-60995304D01*
X93155492Y-60870000D01*
X93148848Y-60828050D01*
X93137197Y-60754487D01*
X93137196Y-60754485D01*
X93135646Y-60744696D01*
X93078050Y-60631658D01*
X92988342Y-60541950D01*
X92875304Y-60484354D01*
X92865515Y-60482804D01*
X92865513Y-60482803D01*
X92759793Y-60466059D01*
X92750000Y-60464508D01*
X92740207Y-60466059D01*
X92634487Y-60482803D01*
X92634485Y-60482804D01*
X92624696Y-60484354D01*
X92511658Y-60541950D01*
X92421950Y-60631658D01*
X92364354Y-60744696D01*
X92362804Y-60754485D01*
X92362803Y-60754487D01*
X92351152Y-60828050D01*
X92344508Y-60870000D01*
X87456011Y-60870000D01*
X87538342Y-60828050D01*
X87628050Y-60738342D01*
X87685646Y-60625304D01*
X87697738Y-60548961D01*
X87703941Y-60509793D01*
X87705492Y-60500000D01*
X87685646Y-60374696D01*
X87628050Y-60261658D01*
X87538342Y-60171950D01*
X87529511Y-60167450D01*
X87529509Y-60167449D01*
X87520636Y-60162928D01*
X87469022Y-60114179D01*
X87451957Y-60045264D01*
X87453797Y-60028547D01*
X87458823Y-60000354D01*
X88014475Y-60000354D01*
X88017258Y-60004073D01*
X88171680Y-60061502D01*
X88185278Y-60064892D01*
X88350990Y-60087004D01*
X88364986Y-60087297D01*
X88531477Y-60072144D01*
X88545204Y-60069327D01*
X88704202Y-60017666D01*
X88716953Y-60011881D01*
X88723769Y-60007818D01*
X88733358Y-59997476D01*
X88729852Y-59989062D01*
X88387812Y-59647022D01*
X88373868Y-59639408D01*
X88372035Y-59639539D01*
X88365421Y-59643790D01*
X88021232Y-59987979D01*
X88014475Y-60000354D01*
X87458823Y-60000354D01*
X87459043Y-59999121D01*
X87454852Y-59989062D01*
X87112812Y-59647022D01*
X87098868Y-59639408D01*
X87097035Y-59639539D01*
X87090421Y-59643790D01*
X86746232Y-59987979D01*
X86739475Y-60000354D01*
X86180690Y-60000354D01*
X86183358Y-59997476D01*
X86179852Y-59989062D01*
X85837812Y-59647022D01*
X85823868Y-59639408D01*
X85822035Y-59639539D01*
X85815421Y-59643790D01*
X85471232Y-59987979D01*
X85464475Y-60000354D01*
X82756038Y-60000354D01*
X82823050Y-59933342D01*
X82880646Y-59820304D01*
X82900492Y-59695000D01*
X82890776Y-59633657D01*
X82882197Y-59579487D01*
X82882196Y-59579485D01*
X82880646Y-59569696D01*
X82823050Y-59456658D01*
X82733342Y-59366950D01*
X82620304Y-59309354D01*
X82610515Y-59307804D01*
X82610513Y-59307803D01*
X82504793Y-59291059D01*
X82495000Y-59289508D01*
X82485207Y-59291059D01*
X82379487Y-59307803D01*
X82379485Y-59307804D01*
X82369696Y-59309354D01*
X82256658Y-59366950D01*
X82166950Y-59456658D01*
X82109354Y-59569696D01*
X82107804Y-59579485D01*
X82107803Y-59579487D01*
X82099224Y-59633657D01*
X82089508Y-59695000D01*
X80100500Y-59695000D01*
X80100500Y-59270660D01*
X85012654Y-59270660D01*
X85028968Y-59437047D01*
X85031879Y-59450741D01*
X85084650Y-59609375D01*
X85090524Y-59622088D01*
X85091768Y-59624143D01*
X85102174Y-59633657D01*
X85110794Y-59629995D01*
X85452979Y-59287811D01*
X85460592Y-59273868D01*
X85460461Y-59272034D01*
X85456210Y-59265421D01*
X85112458Y-58921669D01*
X85100083Y-58914912D01*
X85094926Y-58918772D01*
X85094273Y-58920089D01*
X85037096Y-59077180D01*
X85033803Y-59090795D01*
X85012850Y-59256653D01*
X85012654Y-59270660D01*
X80100500Y-59270660D01*
X80100500Y-58638632D01*
X85551909Y-58638632D01*
X85552040Y-58640467D01*
X85556288Y-58647077D01*
X85825000Y-58915790D01*
X86449689Y-59540478D01*
X86463632Y-59548091D01*
X86465467Y-59547960D01*
X86472077Y-59543712D01*
X87010905Y-59004885D01*
X87073217Y-58970860D01*
X87144033Y-58975925D01*
X87189095Y-59004885D01*
X87724692Y-59540481D01*
X87738630Y-59548092D01*
X87740466Y-59547960D01*
X87747078Y-59543711D01*
X88014657Y-59276132D01*
X88739408Y-59276132D01*
X88739539Y-59277966D01*
X88743790Y-59284579D01*
X89087504Y-59628293D01*
X89099879Y-59635050D01*
X89103696Y-59632193D01*
X89115925Y-59600000D01*
X91294508Y-59600000D01*
X91296059Y-59609793D01*
X91301444Y-59643790D01*
X91314354Y-59725304D01*
X91371950Y-59838342D01*
X91461658Y-59928050D01*
X91574696Y-59985646D01*
X91584485Y-59987196D01*
X91584487Y-59987197D01*
X91690207Y-60003941D01*
X91700000Y-60005492D01*
X91709793Y-60003941D01*
X91815513Y-59987197D01*
X91815515Y-59987196D01*
X91825304Y-59985646D01*
X91938342Y-59928050D01*
X92028050Y-59838342D01*
X92085646Y-59725304D01*
X92098557Y-59643790D01*
X92103941Y-59609793D01*
X92105492Y-59600000D01*
X92085646Y-59474696D01*
X92028050Y-59361658D01*
X91938342Y-59271950D01*
X91825304Y-59214354D01*
X91815515Y-59212804D01*
X91815513Y-59212803D01*
X91709793Y-59196059D01*
X91700000Y-59194508D01*
X91690207Y-59196059D01*
X91584487Y-59212803D01*
X91584485Y-59212804D01*
X91574696Y-59214354D01*
X91461658Y-59271950D01*
X91371950Y-59361658D01*
X91314354Y-59474696D01*
X91294508Y-59600000D01*
X89115925Y-59600000D01*
X89160065Y-59483802D01*
X89163549Y-59470233D01*
X89187244Y-59301627D01*
X89187851Y-59293741D01*
X89188058Y-59278962D01*
X89187671Y-59271061D01*
X89168692Y-59101855D01*
X89165590Y-59088202D01*
X89110610Y-58930322D01*
X89107281Y-58923372D01*
X89098605Y-58915659D01*
X89089558Y-58919653D01*
X88747021Y-59262189D01*
X88739408Y-59276132D01*
X88014657Y-59276132D01*
X88375000Y-58915790D01*
X88640478Y-58650311D01*
X88648091Y-58636368D01*
X88647960Y-58634533D01*
X88643710Y-58627920D01*
X88104885Y-58089095D01*
X88070859Y-58026783D01*
X88072694Y-58001132D01*
X88739408Y-58001132D01*
X88739539Y-58002966D01*
X88743790Y-58009579D01*
X89087504Y-58353293D01*
X89099879Y-58360050D01*
X89103696Y-58357193D01*
X89160065Y-58208802D01*
X89163549Y-58195233D01*
X89187244Y-58026627D01*
X89187851Y-58018741D01*
X89188058Y-58003962D01*
X89187671Y-57996061D01*
X89168692Y-57826855D01*
X89165590Y-57813202D01*
X89110610Y-57655322D01*
X89107281Y-57648372D01*
X89098605Y-57640659D01*
X89089558Y-57644653D01*
X88747021Y-57987189D01*
X88739408Y-58001132D01*
X88072694Y-58001132D01*
X88075924Y-57955968D01*
X88104885Y-57910905D01*
X88375000Y-57640790D01*
X88640477Y-57375312D01*
X88648091Y-57361368D01*
X88647960Y-57359533D01*
X88643712Y-57352923D01*
X88016922Y-56726132D01*
X88739408Y-56726132D01*
X88739539Y-56727966D01*
X88743790Y-56734579D01*
X89087504Y-57078293D01*
X89099879Y-57085050D01*
X89103696Y-57082193D01*
X89160065Y-56933802D01*
X89163549Y-56920233D01*
X89187244Y-56751627D01*
X89187851Y-56743741D01*
X89188058Y-56728962D01*
X89187671Y-56721061D01*
X89168692Y-56551855D01*
X89165590Y-56538202D01*
X89110610Y-56380322D01*
X89107281Y-56373372D01*
X89098605Y-56365659D01*
X89089558Y-56369653D01*
X88747021Y-56712189D01*
X88739408Y-56726132D01*
X88016922Y-56726132D01*
X88015790Y-56725000D01*
X87750311Y-56459522D01*
X87736368Y-56451909D01*
X87734533Y-56452040D01*
X87727923Y-56456288D01*
X87459210Y-56725000D01*
X87189095Y-56995116D01*
X87126783Y-57029141D01*
X87055967Y-57024076D01*
X87010905Y-56995115D01*
X86740790Y-56725000D01*
X86475312Y-56459523D01*
X86461368Y-56451909D01*
X86459533Y-56452040D01*
X86452923Y-56456288D01*
X86184210Y-56725000D01*
X85825000Y-57084210D01*
X85559522Y-57349689D01*
X85551909Y-57363632D01*
X85552040Y-57365467D01*
X85556290Y-57372080D01*
X86095115Y-57910905D01*
X86129141Y-57973217D01*
X86124076Y-58044032D01*
X86095115Y-58089095D01*
X85825000Y-58359210D01*
X85559523Y-58624688D01*
X85551909Y-58638632D01*
X80100500Y-58638632D01*
X80100500Y-57995660D01*
X85012654Y-57995660D01*
X85028968Y-58162047D01*
X85031879Y-58175741D01*
X85084650Y-58334375D01*
X85090524Y-58347088D01*
X85091768Y-58349143D01*
X85102174Y-58358657D01*
X85110794Y-58354995D01*
X85452979Y-58012811D01*
X85460592Y-57998868D01*
X85460461Y-57997034D01*
X85456210Y-57990421D01*
X85112458Y-57646669D01*
X85100083Y-57639912D01*
X85094926Y-57643772D01*
X85094273Y-57645089D01*
X85037096Y-57802180D01*
X85033803Y-57815795D01*
X85012850Y-57981653D01*
X85012654Y-57995660D01*
X80100500Y-57995660D01*
X80100500Y-56327500D01*
X81062008Y-56327500D01*
X81063559Y-56337293D01*
X81069004Y-56371669D01*
X81081854Y-56452804D01*
X81139450Y-56565842D01*
X81229158Y-56655550D01*
X81342196Y-56713146D01*
X81351985Y-56714696D01*
X81351987Y-56714697D01*
X81457707Y-56731441D01*
X81467500Y-56732992D01*
X81477293Y-56731441D01*
X81545363Y-56720660D01*
X85012654Y-56720660D01*
X85028968Y-56887047D01*
X85031879Y-56900741D01*
X85084650Y-57059375D01*
X85090524Y-57072088D01*
X85091768Y-57074143D01*
X85102174Y-57083657D01*
X85110794Y-57079995D01*
X85452979Y-56737811D01*
X85460592Y-56723868D01*
X85460461Y-56722034D01*
X85456210Y-56715421D01*
X85112458Y-56371669D01*
X85100083Y-56364912D01*
X85094926Y-56368772D01*
X85094273Y-56370089D01*
X85037096Y-56527180D01*
X85033803Y-56540795D01*
X85012850Y-56706653D01*
X85012654Y-56720660D01*
X81545363Y-56720660D01*
X81583013Y-56714697D01*
X81583015Y-56714696D01*
X81592804Y-56713146D01*
X81705842Y-56655550D01*
X81795550Y-56565842D01*
X81853146Y-56452804D01*
X81865997Y-56371669D01*
X81871441Y-56337293D01*
X81872992Y-56327500D01*
X81871441Y-56317707D01*
X81854697Y-56211987D01*
X81854696Y-56211985D01*
X81853146Y-56202196D01*
X81795550Y-56089158D01*
X81705842Y-55999450D01*
X81592804Y-55941854D01*
X81583015Y-55940304D01*
X81583013Y-55940303D01*
X81477293Y-55923559D01*
X81467500Y-55922008D01*
X81457707Y-55923559D01*
X81351987Y-55940303D01*
X81351985Y-55940304D01*
X81342196Y-55941854D01*
X81229158Y-55999450D01*
X81139450Y-56089158D01*
X81081854Y-56202196D01*
X81080304Y-56211985D01*
X81080303Y-56211987D01*
X81063559Y-56317707D01*
X81062008Y-56327500D01*
X80100500Y-56327500D01*
X80100500Y-55835000D01*
X82289508Y-55835000D01*
X82291059Y-55844793D01*
X82307145Y-55946355D01*
X82309354Y-55960304D01*
X82366950Y-56073342D01*
X82456658Y-56163050D01*
X82569696Y-56220646D01*
X82579485Y-56222196D01*
X82579487Y-56222197D01*
X82685207Y-56238941D01*
X82695000Y-56240492D01*
X82704793Y-56238941D01*
X82810513Y-56222197D01*
X82810515Y-56222196D01*
X82820304Y-56220646D01*
X82933342Y-56163050D01*
X83023050Y-56073342D01*
X83059503Y-56001799D01*
X85466016Y-56001799D01*
X85469840Y-56010629D01*
X85812189Y-56352979D01*
X85826132Y-56360592D01*
X85827966Y-56360461D01*
X85834579Y-56356210D01*
X86177914Y-56012875D01*
X86184671Y-56000500D01*
X86180105Y-55994400D01*
X86174802Y-55991813D01*
X86017309Y-55935732D01*
X86003685Y-55932536D01*
X85837670Y-55912741D01*
X85823673Y-55912643D01*
X85657404Y-55930118D01*
X85643725Y-55933126D01*
X85485463Y-55987002D01*
X85474855Y-55991994D01*
X85466016Y-56001799D01*
X83059503Y-56001799D01*
X83080646Y-55960304D01*
X83082856Y-55946355D01*
X83098941Y-55844793D01*
X83100492Y-55835000D01*
X83088581Y-55759793D01*
X83082197Y-55719487D01*
X83082196Y-55719485D01*
X83080646Y-55709696D01*
X83023050Y-55596658D01*
X82976392Y-55550000D01*
X84494508Y-55550000D01*
X84496059Y-55559793D01*
X84506339Y-55624696D01*
X84514354Y-55675304D01*
X84571950Y-55788342D01*
X84661658Y-55878050D01*
X84774696Y-55935646D01*
X84784485Y-55937196D01*
X84784487Y-55937197D01*
X84890207Y-55953941D01*
X84900000Y-55955492D01*
X84909793Y-55953941D01*
X85015513Y-55937197D01*
X85015515Y-55937196D01*
X85025304Y-55935646D01*
X85138342Y-55878050D01*
X85228050Y-55788342D01*
X85247586Y-55750000D01*
X86494508Y-55750000D01*
X86496059Y-55759793D01*
X86509522Y-55844793D01*
X86514354Y-55875304D01*
X86571950Y-55988342D01*
X86661658Y-56078050D01*
X86774696Y-56135646D01*
X86784487Y-56137197D01*
X86784488Y-56137197D01*
X86847329Y-56147150D01*
X86916713Y-56182504D01*
X87087189Y-56352980D01*
X87101130Y-56360592D01*
X87102966Y-56360461D01*
X87109579Y-56356210D01*
X87452914Y-56012875D01*
X87458962Y-56001799D01*
X88016016Y-56001799D01*
X88019840Y-56010629D01*
X88362189Y-56352979D01*
X88376132Y-56360592D01*
X88377966Y-56360461D01*
X88384579Y-56356210D01*
X88727914Y-56012875D01*
X88734671Y-56000500D01*
X88730105Y-55994400D01*
X88724802Y-55991813D01*
X88567309Y-55935732D01*
X88553685Y-55932536D01*
X88387670Y-55912741D01*
X88373673Y-55912643D01*
X88207404Y-55930118D01*
X88193725Y-55933126D01*
X88035463Y-55987002D01*
X88024855Y-55991994D01*
X88016016Y-56001799D01*
X87458962Y-56001799D01*
X87459671Y-56000500D01*
X87455105Y-55994400D01*
X87449804Y-55991815D01*
X87375487Y-55965351D01*
X87318024Y-55923656D01*
X87292224Y-55857513D01*
X87293306Y-55826942D01*
X87303941Y-55759794D01*
X87303941Y-55759793D01*
X87305492Y-55750000D01*
X87297710Y-55700863D01*
X87287197Y-55634487D01*
X87287196Y-55634485D01*
X87285646Y-55624696D01*
X87228050Y-55511658D01*
X87138342Y-55421950D01*
X87025304Y-55364354D01*
X87015515Y-55362804D01*
X87015513Y-55362803D01*
X86909793Y-55346059D01*
X86900000Y-55344508D01*
X86890207Y-55346059D01*
X86784487Y-55362803D01*
X86784485Y-55362804D01*
X86774696Y-55364354D01*
X86661658Y-55421950D01*
X86571950Y-55511658D01*
X86514354Y-55624696D01*
X86512804Y-55634485D01*
X86512803Y-55634487D01*
X86502290Y-55700863D01*
X86494508Y-55750000D01*
X85247586Y-55750000D01*
X85285646Y-55675304D01*
X85293662Y-55624696D01*
X85303941Y-55559793D01*
X85305492Y-55550000D01*
X85290278Y-55453941D01*
X85287197Y-55434487D01*
X85287196Y-55434485D01*
X85285646Y-55424696D01*
X85228050Y-55311658D01*
X85138342Y-55221950D01*
X85025304Y-55164354D01*
X85015515Y-55162804D01*
X85015513Y-55162803D01*
X84909793Y-55146059D01*
X84900000Y-55144508D01*
X84890207Y-55146059D01*
X84784487Y-55162803D01*
X84784485Y-55162804D01*
X84774696Y-55164354D01*
X84661658Y-55221950D01*
X84571950Y-55311658D01*
X84514354Y-55424696D01*
X84512804Y-55434485D01*
X84512803Y-55434487D01*
X84509722Y-55453941D01*
X84494508Y-55550000D01*
X82976392Y-55550000D01*
X82933342Y-55506950D01*
X82820304Y-55449354D01*
X82810515Y-55447804D01*
X82810513Y-55447803D01*
X82704793Y-55431059D01*
X82695000Y-55429508D01*
X82685207Y-55431059D01*
X82579487Y-55447803D01*
X82579485Y-55447804D01*
X82569696Y-55449354D01*
X82456658Y-55506950D01*
X82366950Y-55596658D01*
X82309354Y-55709696D01*
X82307804Y-55719485D01*
X82307803Y-55719487D01*
X82301419Y-55759793D01*
X82289508Y-55835000D01*
X80100500Y-55835000D01*
X80100500Y-55050000D01*
X81294508Y-55050000D01*
X81296059Y-55059793D01*
X81312620Y-55164354D01*
X81314354Y-55175304D01*
X81371950Y-55288342D01*
X81461658Y-55378050D01*
X81574696Y-55435646D01*
X81584485Y-55437196D01*
X81584487Y-55437197D01*
X81690207Y-55453941D01*
X81700000Y-55455492D01*
X81709793Y-55453941D01*
X81815513Y-55437197D01*
X81815515Y-55437196D01*
X81825304Y-55435646D01*
X81938342Y-55378050D01*
X82028050Y-55288342D01*
X82085646Y-55175304D01*
X82087381Y-55164354D01*
X82103941Y-55059793D01*
X82105492Y-55050000D01*
X82103941Y-55040207D01*
X82087197Y-54934487D01*
X82087196Y-54934485D01*
X82085646Y-54924696D01*
X82028050Y-54811658D01*
X81938342Y-54721950D01*
X81825304Y-54664354D01*
X81815515Y-54662804D01*
X81815513Y-54662803D01*
X81709793Y-54646059D01*
X81700000Y-54644508D01*
X81690207Y-54646059D01*
X81584487Y-54662803D01*
X81584485Y-54662804D01*
X81574696Y-54664354D01*
X81461658Y-54721950D01*
X81371950Y-54811658D01*
X81314354Y-54924696D01*
X81312804Y-54934485D01*
X81312803Y-54934487D01*
X81296059Y-55040207D01*
X81294508Y-55050000D01*
X80100500Y-55050000D01*
X80100500Y-54560000D01*
X82754508Y-54560000D01*
X82756059Y-54569793D01*
X82767893Y-54644508D01*
X82774354Y-54685304D01*
X82831950Y-54798342D01*
X82921658Y-54888050D01*
X83034696Y-54945646D01*
X83044485Y-54947196D01*
X83044487Y-54947197D01*
X83150207Y-54963941D01*
X83160000Y-54965492D01*
X83169793Y-54963941D01*
X83275513Y-54947197D01*
X83275515Y-54947196D01*
X83285304Y-54945646D01*
X83398342Y-54888050D01*
X83488050Y-54798342D01*
X83545646Y-54685304D01*
X83552108Y-54644508D01*
X83563941Y-54569793D01*
X83565492Y-54560000D01*
X83545646Y-54434696D01*
X83488050Y-54321658D01*
X83398342Y-54231950D01*
X83285304Y-54174354D01*
X83275515Y-54172804D01*
X83275513Y-54172803D01*
X83169793Y-54156059D01*
X83160000Y-54154508D01*
X83150207Y-54156059D01*
X83044487Y-54172803D01*
X83044485Y-54172804D01*
X83034696Y-54174354D01*
X82921658Y-54231950D01*
X82831950Y-54321658D01*
X82774354Y-54434696D01*
X82754508Y-54560000D01*
X80100500Y-54560000D01*
X80100500Y-53300980D01*
X84485231Y-53300980D01*
X84505077Y-53426284D01*
X84562673Y-53539322D01*
X84652381Y-53629030D01*
X84765419Y-53686626D01*
X84775208Y-53688176D01*
X84775210Y-53688177D01*
X84880930Y-53704921D01*
X84890723Y-53706472D01*
X84900516Y-53704921D01*
X85006236Y-53688177D01*
X85006238Y-53688176D01*
X85016027Y-53686626D01*
X85087909Y-53650000D01*
X86894508Y-53650000D01*
X86896059Y-53659793D01*
X86903207Y-53704921D01*
X86914354Y-53775304D01*
X86971950Y-53888342D01*
X87061658Y-53978050D01*
X87174696Y-54035646D01*
X87184485Y-54037196D01*
X87184487Y-54037197D01*
X87290207Y-54053941D01*
X87300000Y-54055492D01*
X87309793Y-54053941D01*
X87415513Y-54037197D01*
X87415515Y-54037196D01*
X87425304Y-54035646D01*
X87538342Y-53978050D01*
X87628050Y-53888342D01*
X87685646Y-53775304D01*
X87696794Y-53704921D01*
X87697573Y-53700000D01*
X88594508Y-53700000D01*
X88614354Y-53825304D01*
X88671950Y-53938342D01*
X88761658Y-54028050D01*
X88874696Y-54085646D01*
X88884485Y-54087196D01*
X88884487Y-54087197D01*
X88990207Y-54103941D01*
X89000000Y-54105492D01*
X89009793Y-54103941D01*
X89115513Y-54087197D01*
X89115515Y-54087196D01*
X89125304Y-54085646D01*
X89238342Y-54028050D01*
X89328050Y-53938342D01*
X89385646Y-53825304D01*
X89405492Y-53700000D01*
X89385646Y-53574696D01*
X89328050Y-53461658D01*
X89238342Y-53371950D01*
X89125304Y-53314354D01*
X89115515Y-53312804D01*
X89115513Y-53312803D01*
X89009793Y-53296059D01*
X89000000Y-53294508D01*
X88990207Y-53296059D01*
X88884487Y-53312803D01*
X88884485Y-53312804D01*
X88874696Y-53314354D01*
X88761658Y-53371950D01*
X88671950Y-53461658D01*
X88614354Y-53574696D01*
X88594508Y-53700000D01*
X87697573Y-53700000D01*
X87703941Y-53659793D01*
X87705492Y-53650000D01*
X87685646Y-53524696D01*
X87628050Y-53411658D01*
X87538342Y-53321950D01*
X87425304Y-53264354D01*
X87415515Y-53262804D01*
X87415513Y-53262803D01*
X87309793Y-53246059D01*
X87300000Y-53244508D01*
X87290207Y-53246059D01*
X87184487Y-53262803D01*
X87184485Y-53262804D01*
X87174696Y-53264354D01*
X87061658Y-53321950D01*
X86971950Y-53411658D01*
X86914354Y-53524696D01*
X86894508Y-53650000D01*
X85087909Y-53650000D01*
X85129065Y-53629030D01*
X85218773Y-53539322D01*
X85276369Y-53426284D01*
X85296215Y-53300980D01*
X85290414Y-53264354D01*
X85277920Y-53185467D01*
X85277919Y-53185465D01*
X85276369Y-53175676D01*
X85218773Y-53062638D01*
X85129065Y-52972930D01*
X85016027Y-52915334D01*
X85006238Y-52913784D01*
X85006236Y-52913783D01*
X84900516Y-52897039D01*
X84890723Y-52895488D01*
X84880930Y-52897039D01*
X84775210Y-52913783D01*
X84775208Y-52913784D01*
X84765419Y-52915334D01*
X84652381Y-52972930D01*
X84562673Y-53062638D01*
X84505077Y-53175676D01*
X84503527Y-53185465D01*
X84503526Y-53185467D01*
X84491032Y-53264354D01*
X84485231Y-53300980D01*
X80100500Y-53300980D01*
X80100500Y-51700000D01*
X89394508Y-51700000D01*
X89414354Y-51825304D01*
X89471950Y-51938342D01*
X89561658Y-52028050D01*
X89674696Y-52085646D01*
X89684485Y-52087196D01*
X89684487Y-52087197D01*
X89790207Y-52103941D01*
X89800000Y-52105492D01*
X89809793Y-52103941D01*
X89915513Y-52087197D01*
X89915515Y-52087196D01*
X89925304Y-52085646D01*
X90038342Y-52028050D01*
X90128050Y-51938342D01*
X90185646Y-51825304D01*
X90205492Y-51700000D01*
X90185646Y-51574696D01*
X90128050Y-51461658D01*
X90038342Y-51371950D01*
X89925304Y-51314354D01*
X89915515Y-51312804D01*
X89915513Y-51312803D01*
X89809793Y-51296059D01*
X89800000Y-51294508D01*
X89790207Y-51296059D01*
X89684487Y-51312803D01*
X89684485Y-51312804D01*
X89674696Y-51314354D01*
X89561658Y-51371950D01*
X89471950Y-51461658D01*
X89414354Y-51574696D01*
X89394508Y-51700000D01*
X80100500Y-51700000D01*
X80100500Y-50510000D01*
X87694508Y-50510000D01*
X87714354Y-50635304D01*
X87771950Y-50748342D01*
X87861658Y-50838050D01*
X87974696Y-50895646D01*
X87984485Y-50897196D01*
X87984487Y-50897197D01*
X88090207Y-50913941D01*
X88100000Y-50915492D01*
X88109793Y-50913941D01*
X88215513Y-50897197D01*
X88215515Y-50897196D01*
X88225304Y-50895646D01*
X88338342Y-50838050D01*
X88428050Y-50748342D01*
X88485646Y-50635304D01*
X88505492Y-50510000D01*
X88485646Y-50384696D01*
X88428050Y-50271658D01*
X88338342Y-50181950D01*
X88225304Y-50124354D01*
X88215515Y-50122804D01*
X88215513Y-50122803D01*
X88109793Y-50106059D01*
X88100000Y-50104508D01*
X88090207Y-50106059D01*
X87984487Y-50122803D01*
X87984485Y-50122804D01*
X87974696Y-50124354D01*
X87861658Y-50181950D01*
X87771950Y-50271658D01*
X87714354Y-50384696D01*
X87694508Y-50510000D01*
X80100500Y-50510000D01*
X80100500Y-47020000D01*
X83144508Y-47020000D01*
X83146059Y-47029793D01*
X83148816Y-47047197D01*
X83164354Y-47145304D01*
X83221950Y-47258342D01*
X83311658Y-47348050D01*
X83424696Y-47405646D01*
X83434485Y-47407196D01*
X83434487Y-47407197D01*
X83540207Y-47423941D01*
X83550000Y-47425492D01*
X83559793Y-47423941D01*
X83569711Y-47423941D01*
X83569711Y-47427566D01*
X83622058Y-47434334D01*
X83676370Y-47480058D01*
X83697340Y-47547887D01*
X83683620Y-47606883D01*
X83670997Y-47631658D01*
X83664354Y-47644696D01*
X83644508Y-47770000D01*
X83664354Y-47895304D01*
X83721950Y-48008342D01*
X83811658Y-48098050D01*
X83924696Y-48155646D01*
X83934485Y-48157196D01*
X83934487Y-48157197D01*
X84040207Y-48173941D01*
X84050000Y-48175492D01*
X84059793Y-48173941D01*
X84165513Y-48157197D01*
X84165515Y-48157196D01*
X84175304Y-48155646D01*
X84288342Y-48098050D01*
X84378050Y-48008342D01*
X84435646Y-47895304D01*
X84439654Y-47870000D01*
X85674508Y-47870000D01*
X85694354Y-47995304D01*
X85751950Y-48108342D01*
X85841658Y-48198050D01*
X85954696Y-48255646D01*
X85964485Y-48257196D01*
X85964487Y-48257197D01*
X86070207Y-48273941D01*
X86080000Y-48275492D01*
X86089793Y-48273941D01*
X86195513Y-48257197D01*
X86195515Y-48257196D01*
X86205304Y-48255646D01*
X86318342Y-48198050D01*
X86408050Y-48108342D01*
X86465646Y-47995304D01*
X86485492Y-47870000D01*
X86465646Y-47744696D01*
X86408050Y-47631658D01*
X86318342Y-47541950D01*
X86205304Y-47484354D01*
X86195515Y-47482804D01*
X86195513Y-47482803D01*
X86089793Y-47466059D01*
X86080000Y-47464508D01*
X86070207Y-47466059D01*
X85964487Y-47482803D01*
X85964485Y-47482804D01*
X85954696Y-47484354D01*
X85841658Y-47541950D01*
X85751950Y-47631658D01*
X85694354Y-47744696D01*
X85674508Y-47870000D01*
X84439654Y-47870000D01*
X84455492Y-47770000D01*
X84435646Y-47644696D01*
X84429003Y-47631658D01*
X84416380Y-47606883D01*
X84403276Y-47537107D01*
X84429976Y-47471322D01*
X84488004Y-47430416D01*
X84530289Y-47426783D01*
X84530289Y-47423941D01*
X84540207Y-47423941D01*
X84550000Y-47425492D01*
X84559793Y-47423941D01*
X84665513Y-47407197D01*
X84665515Y-47407196D01*
X84675304Y-47405646D01*
X84788342Y-47348050D01*
X84878050Y-47258342D01*
X84935646Y-47145304D01*
X84951185Y-47047197D01*
X84953941Y-47029793D01*
X84955492Y-47020000D01*
X84943052Y-46941458D01*
X84937197Y-46904487D01*
X84937196Y-46904485D01*
X84935646Y-46894696D01*
X84878050Y-46781658D01*
X84788342Y-46691950D01*
X84725637Y-46660000D01*
X88094508Y-46660000D01*
X88114354Y-46785304D01*
X88171950Y-46898342D01*
X88261658Y-46988050D01*
X88374696Y-47045646D01*
X88384485Y-47047196D01*
X88384487Y-47047197D01*
X88490207Y-47063941D01*
X88500000Y-47065492D01*
X88509793Y-47063941D01*
X88615513Y-47047197D01*
X88615515Y-47047196D01*
X88625304Y-47045646D01*
X88738342Y-46988050D01*
X88828050Y-46898342D01*
X88885646Y-46785304D01*
X88905492Y-46660000D01*
X88901430Y-46634354D01*
X88887197Y-46544487D01*
X88887196Y-46544485D01*
X88885646Y-46534696D01*
X88828050Y-46421658D01*
X88738342Y-46331950D01*
X88625304Y-46274354D01*
X88615515Y-46272804D01*
X88615513Y-46272803D01*
X88509793Y-46256059D01*
X88500000Y-46254508D01*
X88490207Y-46256059D01*
X88384487Y-46272803D01*
X88384485Y-46272804D01*
X88374696Y-46274354D01*
X88261658Y-46331950D01*
X88171950Y-46421658D01*
X88114354Y-46534696D01*
X88112804Y-46544485D01*
X88112803Y-46544487D01*
X88098570Y-46634354D01*
X88094508Y-46660000D01*
X84725637Y-46660000D01*
X84675304Y-46634354D01*
X84665515Y-46632804D01*
X84665513Y-46632803D01*
X84559793Y-46616059D01*
X84550000Y-46614508D01*
X84540207Y-46616059D01*
X84434487Y-46632803D01*
X84434485Y-46632804D01*
X84424696Y-46634354D01*
X84311658Y-46691950D01*
X84221950Y-46781658D01*
X84164354Y-46894696D01*
X84162412Y-46893706D01*
X84129759Y-46941458D01*
X84064362Y-46969095D01*
X83994405Y-46956988D01*
X83942100Y-46908981D01*
X83935683Y-46894932D01*
X83935646Y-46894696D01*
X83878050Y-46781658D01*
X83788342Y-46691950D01*
X83675304Y-46634354D01*
X83665515Y-46632804D01*
X83665513Y-46632803D01*
X83559793Y-46616059D01*
X83550000Y-46614508D01*
X83540207Y-46616059D01*
X83434487Y-46632803D01*
X83434485Y-46632804D01*
X83424696Y-46634354D01*
X83311658Y-46691950D01*
X83221950Y-46781658D01*
X83164354Y-46894696D01*
X83162804Y-46904485D01*
X83162803Y-46904487D01*
X83156948Y-46941458D01*
X83144508Y-47020000D01*
X80100500Y-47020000D01*
X80100500Y-45070000D01*
X80544508Y-45070000D01*
X80564354Y-45195304D01*
X80621950Y-45308342D01*
X80711658Y-45398050D01*
X80824696Y-45455646D01*
X80834485Y-45457196D01*
X80834487Y-45457197D01*
X80940207Y-45473941D01*
X80950000Y-45475492D01*
X80959793Y-45473941D01*
X81065513Y-45457197D01*
X81065515Y-45457196D01*
X81075304Y-45455646D01*
X81188342Y-45398050D01*
X81278050Y-45308342D01*
X81335646Y-45195304D01*
X81355492Y-45070000D01*
X81335646Y-44944696D01*
X81278050Y-44831658D01*
X81188342Y-44741950D01*
X81169338Y-44732267D01*
X81117723Y-44683519D01*
X81100657Y-44614604D01*
X81123558Y-44547402D01*
X81169338Y-44507733D01*
X81179510Y-44502550D01*
X81179509Y-44502550D01*
X81188342Y-44498050D01*
X81278050Y-44408342D01*
X81335646Y-44295304D01*
X81337588Y-44296294D01*
X81370241Y-44248542D01*
X81435638Y-44220905D01*
X81505595Y-44233012D01*
X81557900Y-44281019D01*
X81564317Y-44295068D01*
X81564354Y-44295304D01*
X81621950Y-44408342D01*
X81711658Y-44498050D01*
X81824696Y-44555646D01*
X81834485Y-44557196D01*
X81834487Y-44557197D01*
X81940207Y-44573941D01*
X81950000Y-44575492D01*
X81959793Y-44573941D01*
X82065513Y-44557197D01*
X82065515Y-44557196D01*
X82075304Y-44555646D01*
X82188342Y-44498050D01*
X82278050Y-44408342D01*
X82335646Y-44295304D01*
X82337909Y-44281019D01*
X82353941Y-44179793D01*
X82355492Y-44170000D01*
X82343052Y-44091458D01*
X82337197Y-44054487D01*
X82337196Y-44054485D01*
X82335646Y-44044696D01*
X82278050Y-43931658D01*
X82188342Y-43841950D01*
X82075304Y-43784354D01*
X82065515Y-43782804D01*
X82065513Y-43782803D01*
X81959793Y-43766059D01*
X81950000Y-43764508D01*
X81940207Y-43766059D01*
X81834487Y-43782803D01*
X81834485Y-43782804D01*
X81824696Y-43784354D01*
X81711658Y-43841950D01*
X81621950Y-43931658D01*
X81564354Y-44044696D01*
X81562412Y-44043706D01*
X81529759Y-44091458D01*
X81464362Y-44119095D01*
X81394405Y-44106988D01*
X81342100Y-44058981D01*
X81335683Y-44044932D01*
X81335646Y-44044696D01*
X81278050Y-43931658D01*
X81188342Y-43841950D01*
X81075304Y-43784354D01*
X81065515Y-43782804D01*
X81065513Y-43782803D01*
X80959793Y-43766059D01*
X80950000Y-43764508D01*
X80940207Y-43766059D01*
X80834487Y-43782803D01*
X80834485Y-43782804D01*
X80824696Y-43784354D01*
X80711658Y-43841950D01*
X80621950Y-43931658D01*
X80564354Y-44044696D01*
X80562804Y-44054485D01*
X80562803Y-44054487D01*
X80556948Y-44091458D01*
X80544508Y-44170000D01*
X80546059Y-44179793D01*
X80562092Y-44281019D01*
X80564354Y-44295304D01*
X80621950Y-44408342D01*
X80711658Y-44498050D01*
X80720491Y-44502550D01*
X80720490Y-44502550D01*
X80730662Y-44507733D01*
X80782277Y-44556481D01*
X80799343Y-44625396D01*
X80776442Y-44692598D01*
X80730662Y-44732267D01*
X80711658Y-44741950D01*
X80621950Y-44831658D01*
X80564354Y-44944696D01*
X80544508Y-45070000D01*
X80100500Y-45070000D01*
X80100500Y-42210665D01*
X83245119Y-42210665D01*
X83245416Y-42215817D01*
X83245416Y-42215821D01*
X83250864Y-42310296D01*
X83258376Y-42440580D01*
X83259513Y-42445626D01*
X83259514Y-42445632D01*
X83281226Y-42541975D01*
X83309006Y-42665242D01*
X83310948Y-42670024D01*
X83310949Y-42670028D01*
X83348427Y-42762325D01*
X83395649Y-42878618D01*
X83515979Y-43074978D01*
X83666763Y-43249048D01*
X83843953Y-43396154D01*
X84042790Y-43512345D01*
X84257934Y-43594501D01*
X84263000Y-43595532D01*
X84263001Y-43595532D01*
X84363697Y-43616018D01*
X84483607Y-43640414D01*
X84613352Y-43645172D01*
X84708585Y-43648664D01*
X84708589Y-43648664D01*
X84713749Y-43648853D01*
X84718869Y-43648197D01*
X84718871Y-43648197D01*
X84788272Y-43639307D01*
X84942178Y-43619591D01*
X84947126Y-43618106D01*
X84947133Y-43618105D01*
X85157811Y-43554898D01*
X85157810Y-43554898D01*
X85162761Y-43553413D01*
X85369574Y-43452096D01*
X85557062Y-43318363D01*
X85720190Y-43155803D01*
X85778269Y-43074978D01*
X85851559Y-42972983D01*
X85854577Y-42968783D01*
X85956615Y-42762325D01*
X85987643Y-42660200D01*
X86022059Y-42546927D01*
X86022060Y-42546921D01*
X86023563Y-42541975D01*
X86053622Y-42313649D01*
X86055300Y-42245000D01*
X86052477Y-42210665D01*
X87845119Y-42210665D01*
X87845416Y-42215817D01*
X87845416Y-42215821D01*
X87850864Y-42310296D01*
X87858376Y-42440580D01*
X87859513Y-42445626D01*
X87859514Y-42445632D01*
X87881226Y-42541975D01*
X87909006Y-42665242D01*
X87910948Y-42670024D01*
X87910949Y-42670028D01*
X87948427Y-42762325D01*
X87995649Y-42878618D01*
X88115979Y-43074978D01*
X88266763Y-43249048D01*
X88443953Y-43396154D01*
X88642790Y-43512345D01*
X88857934Y-43594501D01*
X88863000Y-43595532D01*
X88863001Y-43595532D01*
X88963697Y-43616018D01*
X89083607Y-43640414D01*
X89213352Y-43645172D01*
X89308585Y-43648664D01*
X89308589Y-43648664D01*
X89313749Y-43648853D01*
X89318869Y-43648197D01*
X89318871Y-43648197D01*
X89388272Y-43639307D01*
X89542178Y-43619591D01*
X89547126Y-43618106D01*
X89547133Y-43618105D01*
X89757811Y-43554898D01*
X89757810Y-43554898D01*
X89762761Y-43553413D01*
X89969574Y-43452096D01*
X90157062Y-43318363D01*
X90320190Y-43155803D01*
X90378269Y-43074978D01*
X90451559Y-42972983D01*
X90454577Y-42968783D01*
X90556615Y-42762325D01*
X90587643Y-42660200D01*
X90622059Y-42546927D01*
X90622060Y-42546921D01*
X90623563Y-42541975D01*
X90653622Y-42313649D01*
X90655300Y-42245000D01*
X90636430Y-42015478D01*
X90580326Y-41792120D01*
X90488496Y-41580924D01*
X90363405Y-41387563D01*
X90342774Y-41364889D01*
X90211890Y-41221051D01*
X90211889Y-41221050D01*
X90208412Y-41217229D01*
X90204361Y-41214030D01*
X90204357Y-41214026D01*
X90031735Y-41077697D01*
X90031730Y-41077693D01*
X90027681Y-41074496D01*
X90023165Y-41072003D01*
X90023162Y-41072001D01*
X89830589Y-40965695D01*
X89830585Y-40965693D01*
X89826065Y-40963198D01*
X89821196Y-40961474D01*
X89821192Y-40961472D01*
X89613853Y-40888049D01*
X89613849Y-40888048D01*
X89608978Y-40886323D01*
X89603885Y-40885416D01*
X89603882Y-40885415D01*
X89507707Y-40868284D01*
X89382250Y-40845937D01*
X89295802Y-40844881D01*
X89157141Y-40843186D01*
X89157139Y-40843186D01*
X89151971Y-40843123D01*
X88924325Y-40877958D01*
X88705424Y-40949506D01*
X88501149Y-41055845D01*
X88316984Y-41194119D01*
X88157877Y-41360616D01*
X88028099Y-41550863D01*
X88025923Y-41555552D01*
X88025919Y-41555558D01*
X88014145Y-41580924D01*
X87931136Y-41759752D01*
X87869592Y-41981673D01*
X87845119Y-42210665D01*
X86052477Y-42210665D01*
X86036430Y-42015478D01*
X85980326Y-41792120D01*
X85888496Y-41580924D01*
X85763405Y-41387563D01*
X85742774Y-41364889D01*
X85611890Y-41221051D01*
X85611889Y-41221050D01*
X85608412Y-41217229D01*
X85604361Y-41214030D01*
X85604357Y-41214026D01*
X85431735Y-41077697D01*
X85431730Y-41077693D01*
X85427681Y-41074496D01*
X85423165Y-41072003D01*
X85423162Y-41072001D01*
X85230589Y-40965695D01*
X85230585Y-40965693D01*
X85226065Y-40963198D01*
X85221196Y-40961474D01*
X85221192Y-40961472D01*
X85013853Y-40888049D01*
X85013849Y-40888048D01*
X85008978Y-40886323D01*
X85003885Y-40885416D01*
X85003882Y-40885415D01*
X84907707Y-40868284D01*
X84782250Y-40845937D01*
X84695802Y-40844881D01*
X84557141Y-40843186D01*
X84557139Y-40843186D01*
X84551971Y-40843123D01*
X84324325Y-40877958D01*
X84105424Y-40949506D01*
X83901149Y-41055845D01*
X83716984Y-41194119D01*
X83557877Y-41360616D01*
X83428099Y-41550863D01*
X83425923Y-41555552D01*
X83425919Y-41555558D01*
X83414145Y-41580924D01*
X83331136Y-41759752D01*
X83269592Y-41981673D01*
X83245119Y-42210665D01*
X80100500Y-42210665D01*
X80100500Y-40226500D01*
X80120502Y-40158379D01*
X80174158Y-40111886D01*
X80226500Y-40100500D01*
X93773500Y-40100500D01*
X93841621Y-40120502D01*
G37*
G04 #@! TD.AperFunction*
M02*
