M48
; DRILL file {KiCad (6.0.4-0)} date Wednesday, May 04, 2022 at 08:02:47 pm
; FORMAT={-:-/ absolute / metric / decimal}
; #@! TF.CreationDate,2022-05-04T20:02:47-04:00
; #@! TF.GenerationSoftware,Kicad,Pcbnew,(6.0.4-0)
; #@! TF.FileFunction,Plated,1,4,PTH
FMAT,2
METRIC
; #@! TA.AperFunction,Plated,PTH,ViaDrill
T1C0.300
; #@! TA.AperFunction,Plated,PTH,ViaDrill
T2C0.350
; #@! TA.AperFunction,Plated,PTH,ComponentDrill
T3C0.350
; #@! TA.AperFunction,Plated,PTH,ViaDrill
T4C0.400
; #@! TA.AperFunction,Plated,PTH,ComponentDrill
T5C0.650
; #@! TA.AperFunction,Plated,PTH,ComponentDrill
T6C0.900
%
G90
G05
T1
X81.25Y-55.05
X82.05Y-55.05
X82.85Y-55.05
X85.1Y-66.15
X85.87Y-49.55
X86.45Y-54.4
X86.65Y-62.7
X86.87Y-51.79
X87.6Y-52.17
X87.8Y-49.0
X88.0Y-47.5
X88.4Y-51.9
X89.95Y-65.1
X90.8Y-56.9
X91.5Y-55.8
T2
X81.07Y-61.7
X83.2Y-49.5
X83.65Y-60.8
X83.8Y-66.25
X84.05Y-49.5
X84.55Y-55.4
X84.9Y-49.5
X85.1Y-47.6
X85.575Y-51.275
X88.48Y-60.6
X89.575Y-51.875
X89.98Y-61.3
X91.35Y-52.85
X92.45Y-50.7
X93.3Y-50.7
T3
X87.725Y-53.125
X87.725Y-54.4
X87.725Y-55.675
X89.0Y-53.125
X89.0Y-54.4
X89.0Y-55.675
X90.275Y-53.125
X90.275Y-54.4
X90.275Y-55.675
T4
X80.7Y-48.3
X81.2Y-50.2
X82.2Y-45.3
X83.8Y-58.85
X84.353Y-50.895
X91.5Y-46.0
X91.5Y-47.75
X92.75Y-46.0
X92.75Y-47.75
X93.31Y-58.46
T5
X91.59Y-61.2
X91.59Y-62.47
X91.59Y-63.74
X91.59Y-65.01
X91.59Y-66.28
X92.86Y-61.2
X92.86Y-62.47
X92.86Y-63.74
X92.86Y-65.01
X92.86Y-66.28
T6
X81.3Y-43.9G85X81.3Y-42.3
G05
X92.7Y-43.9G85X92.7Y-42.3
G05
T0
M30
