G04 #@! TF.GenerationSoftware,KiCad,Pcbnew,(6.0.4-0)*
G04 #@! TF.CreationDate,2022-05-04T20:04:51-04:00*
G04 #@! TF.ProjectId,pico_ducky_pcb,7069636f-5f64-4756-936b-795f7063622e,rev?*
G04 #@! TF.SameCoordinates,Original*
G04 #@! TF.FileFunction,Copper,L4,Bot*
G04 #@! TF.FilePolarity,Positive*
%FSLAX46Y46*%
G04 Gerber Fmt 4.6, Leading zero omitted, Abs format (unit mm)*
G04 Created by KiCad (PCBNEW (6.0.4-0)) date 2022-05-04 20:04:51*
%MOMM*%
%LPD*%
G01*
G04 APERTURE LIST*
G04 Aperture macros list*
%AMRoundRect*
0 Rectangle with rounded corners*
0 $1 Rounding radius*
0 $2 $3 $4 $5 $6 $7 $8 $9 X,Y pos of 4 corners*
0 Add a 4 corners polygon primitive as box body*
4,1,4,$2,$3,$4,$5,$6,$7,$8,$9,$2,$3,0*
0 Add four circle primitives for the rounded corners*
1,1,$1+$1,$2,$3*
1,1,$1+$1,$4,$5*
1,1,$1+$1,$6,$7*
1,1,$1+$1,$8,$9*
0 Add four rect primitives between the rounded corners*
20,1,$1+$1,$2,$3,$4,$5,0*
20,1,$1+$1,$4,$5,$6,$7,0*
20,1,$1+$1,$6,$7,$8,$9,0*
20,1,$1+$1,$8,$9,$2,$3,0*%
G04 Aperture macros list end*
G04 #@! TA.AperFunction,ComponentPad*
%ADD10C,0.600000*%
G04 #@! TD*
G04 #@! TA.AperFunction,ComponentPad*
%ADD11O,1.900000X3.500000*%
G04 #@! TD*
G04 #@! TA.AperFunction,SMDPad,CuDef*
%ADD12R,0.812800X0.508000*%
G04 #@! TD*
G04 #@! TA.AperFunction,SMDPad,CuDef*
%ADD13R,0.508000X0.889000*%
G04 #@! TD*
G04 #@! TA.AperFunction,SMDPad,CuDef*
%ADD14RoundRect,0.150000X-0.512500X-0.150000X0.512500X-0.150000X0.512500X0.150000X-0.512500X0.150000X0*%
G04 #@! TD*
G04 #@! TA.AperFunction,SMDPad,CuDef*
%ADD15RoundRect,0.140000X0.140000X0.170000X-0.140000X0.170000X-0.140000X-0.170000X0.140000X-0.170000X0*%
G04 #@! TD*
G04 #@! TA.AperFunction,SMDPad,CuDef*
%ADD16R,0.450000X0.600000*%
G04 #@! TD*
G04 #@! TA.AperFunction,SMDPad,CuDef*
%ADD17RoundRect,0.135000X0.135000X0.185000X-0.135000X0.185000X-0.135000X-0.185000X0.135000X-0.185000X0*%
G04 #@! TD*
G04 #@! TA.AperFunction,ComponentPad*
%ADD18R,1.000000X1.000000*%
G04 #@! TD*
G04 #@! TA.AperFunction,ComponentPad*
%ADD19O,1.000000X1.000000*%
G04 #@! TD*
G04 #@! TA.AperFunction,ViaPad*
%ADD20C,0.600000*%
G04 #@! TD*
G04 #@! TA.AperFunction,ViaPad*
%ADD21C,0.800000*%
G04 #@! TD*
G04 #@! TA.AperFunction,ViaPad*
%ADD22C,0.550000*%
G04 #@! TD*
G04 #@! TA.AperFunction,Conductor*
%ADD23C,0.300000*%
G04 #@! TD*
G04 #@! TA.AperFunction,Conductor*
%ADD24C,0.200000*%
G04 #@! TD*
G04 #@! TA.AperFunction,Conductor*
%ADD25C,0.150000*%
G04 #@! TD*
G04 APERTURE END LIST*
D10*
X89000000Y-55675000D03*
X90275000Y-54400000D03*
X89000000Y-53125000D03*
X90275000Y-53125000D03*
X90275000Y-55675000D03*
X89000000Y-54400000D03*
X87725000Y-55675000D03*
X87725000Y-53125000D03*
X87725000Y-54400000D03*
D11*
X81300000Y-43100000D03*
X92700000Y-43100000D03*
D12*
X81754201Y-59600002D03*
X81754201Y-56199998D03*
X82954199Y-56199998D03*
D13*
X84004199Y-57900000D03*
D12*
X82954199Y-59600002D03*
D14*
X81862500Y-48750000D03*
X81862500Y-47800000D03*
X81862500Y-46850000D03*
X84137500Y-46850000D03*
X84137500Y-48750000D03*
D15*
X91380000Y-52100000D03*
X90420000Y-52100000D03*
X91380000Y-51000000D03*
X90420000Y-51000000D03*
D16*
X85850000Y-58800000D03*
X85850000Y-56700000D03*
D12*
X81754201Y-66250002D03*
X81754201Y-62849998D03*
X82954199Y-62849998D03*
D13*
X84004199Y-64550000D03*
D12*
X82954199Y-66250002D03*
D17*
X86360000Y-55300000D03*
X85340000Y-55300000D03*
D15*
X86330000Y-53600000D03*
X85370000Y-53600000D03*
D18*
X92860000Y-61200000D03*
D19*
X91590000Y-61200000D03*
X92860000Y-62470000D03*
X91590000Y-62470000D03*
X92860000Y-63740000D03*
X91590000Y-63740000D03*
X92860000Y-65010000D03*
X91590000Y-65010000D03*
X92860000Y-66280000D03*
X91590000Y-66280000D03*
D20*
X86650000Y-62700000D03*
X85100000Y-66150000D03*
D21*
X92750000Y-46000000D03*
X91500000Y-46000000D03*
X83800000Y-58850000D03*
D20*
X83800000Y-66250000D03*
X81070000Y-61700000D03*
X89950000Y-65100000D03*
D21*
X81200000Y-50200000D03*
D20*
X85100000Y-47600000D03*
X91350000Y-52850000D03*
D21*
X92750000Y-47750000D03*
X91500000Y-47750000D03*
D20*
X89980000Y-61300000D03*
D21*
X80700000Y-48300000D03*
X82200000Y-45300000D03*
D20*
X84900000Y-49500000D03*
X88480000Y-60600000D03*
X83200000Y-49500000D03*
X84050000Y-49500000D03*
X93300000Y-50700000D03*
X89575000Y-51875000D03*
X92450000Y-50700000D03*
X85575000Y-51275000D03*
X84550000Y-55400000D03*
D21*
X93310000Y-58460000D03*
D20*
X83650000Y-60800000D03*
D22*
X86870000Y-51790000D03*
X81250000Y-55050000D03*
X91500000Y-55800000D03*
X85870000Y-49550000D03*
D21*
X84353008Y-50895359D03*
D22*
X86450000Y-54400000D03*
X90800000Y-56900000D03*
X82850000Y-55050000D03*
X88400000Y-51900000D03*
X82050000Y-55050000D03*
X87600000Y-52170000D03*
X87800000Y-49000000D03*
X88000000Y-47500000D03*
D23*
X81759321Y-66255122D02*
X83794878Y-66255122D01*
D24*
X87250000Y-53600000D02*
X87725000Y-53125000D01*
D23*
X91380000Y-51000000D02*
X91380000Y-52100000D01*
X81584994Y-47800000D02*
X80950480Y-47165486D01*
D24*
X86170000Y-53600000D02*
X87250000Y-53600000D01*
D23*
X83794878Y-66255122D02*
X83800000Y-66250000D01*
X80950480Y-47165486D02*
X80950480Y-43449520D01*
D24*
X91330000Y-52100000D02*
X91330000Y-52830000D01*
D23*
X83049998Y-59600002D02*
X83800000Y-58850000D01*
D24*
X91330000Y-52830000D02*
X91350000Y-52850000D01*
D23*
X81759321Y-59605122D02*
X82949079Y-59605122D01*
X90420000Y-52100000D02*
X89800000Y-52100000D01*
X89800000Y-52100000D02*
X89575000Y-51875000D01*
D24*
X85530000Y-53600000D02*
X84550000Y-54580000D01*
D23*
X90420000Y-51000000D02*
X90420000Y-52100000D01*
D24*
X84550000Y-54580000D02*
X84550000Y-55400000D01*
D25*
X85340000Y-55300000D02*
X85850000Y-55810000D01*
X85850000Y-55810000D02*
X85850000Y-56700000D01*
X81250000Y-55050000D02*
X84510000Y-51790000D01*
X84510000Y-51790000D02*
X86870000Y-51790000D01*
X84950000Y-57900000D02*
X85850000Y-58800000D01*
X84004199Y-57249998D02*
X84004199Y-57900000D01*
X91150489Y-56149511D02*
X90750489Y-56149511D01*
X84004199Y-57900000D02*
X84950000Y-57900000D01*
X91500000Y-55800000D02*
X91150489Y-56149511D01*
X81754201Y-56199998D02*
X82954199Y-56199998D01*
X82954199Y-56199998D02*
X84004199Y-57249998D01*
X90400000Y-56500000D02*
X88150000Y-56500000D01*
X88150000Y-56500000D02*
X85850000Y-58800000D01*
X90750489Y-56149511D02*
X90400000Y-56500000D01*
X86550000Y-54400000D02*
X86550000Y-55110000D01*
X85870000Y-49550000D02*
X85698367Y-49550000D01*
X85698367Y-49550000D02*
X84353008Y-50895359D01*
X90915489Y-57015489D02*
X90800000Y-56900000D01*
X91590000Y-66280000D02*
X90915489Y-65605489D01*
X88700000Y-56900000D02*
X90800000Y-56900000D01*
X82954199Y-62849998D02*
X84004199Y-63899998D01*
X81754201Y-62849998D02*
X82954199Y-62849998D01*
X82954199Y-62849998D02*
X82954199Y-62645801D01*
X90915489Y-65605489D02*
X90915489Y-57015489D01*
X82954199Y-62645801D02*
X88700000Y-56900000D01*
X84004199Y-63899998D02*
X84004199Y-64550000D01*
X82850000Y-55050000D02*
X83150000Y-55050000D01*
X85580489Y-52619511D02*
X87786195Y-52619511D01*
X83150000Y-55050000D02*
X85580489Y-52619511D01*
X87786195Y-52619511D02*
X88400000Y-52005706D01*
X88400000Y-52005706D02*
X88400000Y-51900000D01*
X82050000Y-55050000D02*
X84860489Y-52239511D01*
X87530489Y-52239511D02*
X87600000Y-52170000D01*
X84860489Y-52239511D02*
X87530489Y-52239511D01*
X88000000Y-48800000D02*
X88000000Y-47500000D01*
X87800000Y-49000000D02*
X88000000Y-48800000D01*
G04 #@! TA.AperFunction,Conductor*
G36*
X91666676Y-44528427D02*
G01*
X91668438Y-44530888D01*
X91668507Y-44530846D01*
X91669346Y-44532215D01*
X91801102Y-44708659D01*
X91801809Y-44709445D01*
X91963520Y-44858928D01*
X91964364Y-44859576D01*
X92150601Y-44977082D01*
X92151550Y-44977566D01*
X92356088Y-45059168D01*
X92357102Y-45059469D01*
X92570718Y-45101959D01*
X92572464Y-45101612D01*
X92573000Y-45100809D01*
X92573000Y-44525000D01*
X92827000Y-44525000D01*
X92827000Y-45097583D01*
X92827682Y-45099228D01*
X92828645Y-45099627D01*
X93012423Y-45068048D01*
X93013455Y-45067772D01*
X93220058Y-44991552D01*
X93221015Y-44991095D01*
X93410266Y-44878502D01*
X93411126Y-44877878D01*
X93576686Y-44732685D01*
X93577428Y-44731902D01*
X93713751Y-44558979D01*
X93714336Y-44558078D01*
X93728450Y-44531252D01*
X93735335Y-44525526D01*
X93738804Y-44525000D01*
X93818461Y-44525000D01*
X93821489Y-44525399D01*
X93890828Y-44543978D01*
X93897932Y-44549429D01*
X93899500Y-44555279D01*
X93899500Y-48969721D01*
X93896073Y-48977994D01*
X93890828Y-48981022D01*
X93821489Y-48999601D01*
X93818461Y-49000000D01*
X90531539Y-49000000D01*
X90528511Y-48999601D01*
X90443028Y-48976696D01*
X90437783Y-48973668D01*
X90376332Y-48912217D01*
X90373304Y-48906972D01*
X90350399Y-48821489D01*
X90350000Y-48818461D01*
X90350000Y-47650000D01*
X90006539Y-47650000D01*
X90003511Y-47649601D01*
X89918028Y-47626696D01*
X89912783Y-47623668D01*
X89851332Y-47562217D01*
X89848304Y-47556972D01*
X89825399Y-47471489D01*
X89825000Y-47468461D01*
X89825000Y-44706539D01*
X89825399Y-44703511D01*
X89848304Y-44618028D01*
X89851332Y-44612783D01*
X89912783Y-44551332D01*
X89918028Y-44548304D01*
X90003511Y-44525399D01*
X90006539Y-44525000D01*
X91658403Y-44525000D01*
X91666676Y-44528427D01*
G37*
G04 #@! TD.AperFunction*
G04 #@! TA.AperFunction,Conductor*
G36*
X80258290Y-44253009D02*
G01*
X80275710Y-44282375D01*
X80282881Y-44306819D01*
X80284385Y-44309739D01*
X80376652Y-44488887D01*
X80376655Y-44488891D01*
X80378159Y-44491812D01*
X80506699Y-44655451D01*
X80636203Y-44767829D01*
X80659980Y-44819943D01*
X80659980Y-47112625D01*
X80659582Y-47118051D01*
X80658118Y-47122314D01*
X80658357Y-47128682D01*
X80658357Y-47128683D01*
X80659931Y-47170606D01*
X80659980Y-47173195D01*
X80659980Y-47192505D01*
X80660560Y-47195623D01*
X80660853Y-47198794D01*
X80660699Y-47198808D01*
X80661138Y-47202770D01*
X80662178Y-47230458D01*
X80664693Y-47236311D01*
X80664693Y-47236312D01*
X80667743Y-47243410D01*
X80672181Y-47258017D01*
X80674762Y-47271877D01*
X80679640Y-47279790D01*
X80689300Y-47295461D01*
X80693961Y-47304433D01*
X80702974Y-47325413D01*
X80702976Y-47325416D01*
X80704898Y-47329890D01*
X80708775Y-47334610D01*
X80715204Y-47341039D01*
X80725149Y-47353618D01*
X80731549Y-47364001D01*
X80736620Y-47367857D01*
X80755449Y-47382175D01*
X80762474Y-47388309D01*
X81039290Y-47665125D01*
X81059500Y-47713915D01*
X81059500Y-47993158D01*
X81062514Y-48018489D01*
X81064615Y-48023218D01*
X81103857Y-48111568D01*
X81103859Y-48111570D01*
X81106444Y-48117391D01*
X81110952Y-48121891D01*
X81140834Y-48151721D01*
X81161086Y-48200494D01*
X81140919Y-48249302D01*
X81123412Y-48262033D01*
X81114413Y-48266618D01*
X81105734Y-48272924D01*
X81022924Y-48355734D01*
X81016617Y-48364415D01*
X80963451Y-48468759D01*
X80960134Y-48478968D01*
X80946425Y-48565523D01*
X80946000Y-48570917D01*
X80946000Y-48609276D01*
X80950020Y-48618980D01*
X80959724Y-48623000D01*
X81920500Y-48623000D01*
X81969290Y-48643210D01*
X81989500Y-48692000D01*
X81989500Y-48808000D01*
X81969290Y-48856790D01*
X81920500Y-48877000D01*
X80959725Y-48877000D01*
X80950021Y-48881020D01*
X80946001Y-48890724D01*
X80946001Y-48929078D01*
X80946425Y-48934474D01*
X80960003Y-49020207D01*
X80947674Y-49071558D01*
X80902645Y-49099151D01*
X80891852Y-49100000D01*
X80209500Y-49100000D01*
X80160710Y-49079790D01*
X80140500Y-49031000D01*
X80140500Y-44301799D01*
X80160710Y-44253009D01*
X80209500Y-44232799D01*
X80258290Y-44253009D01*
G37*
G04 #@! TD.AperFunction*
G04 #@! TA.AperFunction,Conductor*
G36*
X84179790Y-44220210D02*
G01*
X84200000Y-44269000D01*
X84200000Y-46340500D01*
X84179790Y-46389290D01*
X84131000Y-46409500D01*
X83581842Y-46409500D01*
X83556511Y-46412514D01*
X83510582Y-46432914D01*
X83463432Y-46453857D01*
X83463430Y-46453859D01*
X83457609Y-46456444D01*
X83381153Y-46533034D01*
X83337395Y-46632013D01*
X83334500Y-46656842D01*
X83334500Y-47043158D01*
X83337514Y-47068489D01*
X83339615Y-47073218D01*
X83378857Y-47161568D01*
X83378859Y-47161570D01*
X83381444Y-47167391D01*
X83385952Y-47171891D01*
X83385954Y-47171894D01*
X83396245Y-47182167D01*
X83416498Y-47230939D01*
X83396331Y-47279747D01*
X83347498Y-47300000D01*
X82788159Y-47300000D01*
X82739369Y-47279790D01*
X82719159Y-47231000D01*
X82726680Y-47199675D01*
X82761549Y-47131241D01*
X82764866Y-47121032D01*
X82778575Y-47034477D01*
X82779000Y-47029083D01*
X82779000Y-46990724D01*
X82774980Y-46981020D01*
X82765276Y-46977000D01*
X81804500Y-46977000D01*
X81755710Y-46956790D01*
X81735500Y-46908000D01*
X81735500Y-46709276D01*
X81989500Y-46709276D01*
X81993520Y-46718980D01*
X82003224Y-46723000D01*
X82765275Y-46723000D01*
X82774979Y-46718980D01*
X82778999Y-46709276D01*
X82778999Y-46670922D01*
X82778575Y-46665526D01*
X82764865Y-46578962D01*
X82761550Y-46568762D01*
X82708383Y-46464415D01*
X82702076Y-46455734D01*
X82619266Y-46372924D01*
X82610585Y-46366617D01*
X82506241Y-46313451D01*
X82496032Y-46310134D01*
X82409477Y-46296425D01*
X82404083Y-46296000D01*
X82003224Y-46296000D01*
X81993520Y-46300020D01*
X81989500Y-46309724D01*
X81989500Y-46709276D01*
X81735500Y-46709276D01*
X81735500Y-46309725D01*
X81731480Y-46300021D01*
X81721776Y-46296001D01*
X81320921Y-46296001D01*
X81315390Y-46296436D01*
X81265166Y-46280114D01*
X81240980Y-46227648D01*
X81240980Y-45060287D01*
X81261190Y-45011497D01*
X81306790Y-44991361D01*
X81451074Y-44984683D01*
X81451077Y-44984683D01*
X81454352Y-44984531D01*
X81457541Y-44983762D01*
X81457544Y-44983762D01*
X81653452Y-44936548D01*
X81656647Y-44935778D01*
X81846073Y-44849651D01*
X81932334Y-44788462D01*
X82013117Y-44731159D01*
X82013121Y-44731155D01*
X82015796Y-44729258D01*
X82159691Y-44578943D01*
X82272566Y-44404130D01*
X82337420Y-44243208D01*
X82374402Y-44205509D01*
X82401418Y-44200000D01*
X84131000Y-44200000D01*
X84179790Y-44220210D01*
G37*
G04 #@! TD.AperFunction*
G04 #@! TA.AperFunction,Conductor*
G36*
X84647155Y-47514352D02*
G01*
X84661507Y-47549000D01*
X84660924Y-47556534D01*
X84655003Y-47594563D01*
X84655455Y-47598020D01*
X84655455Y-47598023D01*
X84667847Y-47692785D01*
X84671364Y-47719677D01*
X84722182Y-47835171D01*
X84724428Y-47837843D01*
X84724430Y-47837846D01*
X84733687Y-47848858D01*
X84803373Y-47931759D01*
X84908410Y-48001678D01*
X85028848Y-48039305D01*
X85032338Y-48039369D01*
X85063972Y-48039949D01*
X85155006Y-48041617D01*
X85163487Y-48039305D01*
X85238112Y-48018960D01*
X85275315Y-48023693D01*
X85298275Y-48053347D01*
X85300000Y-48066235D01*
X85300000Y-49623308D01*
X85285648Y-49657956D01*
X85157956Y-49785648D01*
X85123308Y-49800000D01*
X82849000Y-49800000D01*
X82814352Y-49785648D01*
X82800000Y-49751000D01*
X82800000Y-48929870D01*
X83221001Y-48929870D01*
X83221302Y-48933693D01*
X83235381Y-49022591D01*
X83237735Y-49029836D01*
X83292331Y-49136987D01*
X83296811Y-49143153D01*
X83381847Y-49228189D01*
X83388013Y-49232669D01*
X83495164Y-49287265D01*
X83502410Y-49289619D01*
X83591307Y-49303699D01*
X83595129Y-49304000D01*
X84000753Y-49304000D01*
X84007645Y-49301145D01*
X84010500Y-49294253D01*
X84010500Y-49294252D01*
X84264500Y-49294252D01*
X84267355Y-49301144D01*
X84274247Y-49303999D01*
X84679870Y-49303999D01*
X84683693Y-49303698D01*
X84772591Y-49289619D01*
X84779836Y-49287265D01*
X84886987Y-49232669D01*
X84893153Y-49228189D01*
X84978189Y-49143153D01*
X84982669Y-49136987D01*
X85037265Y-49029836D01*
X85039619Y-49022590D01*
X85053699Y-48933693D01*
X85054000Y-48929871D01*
X85054000Y-48886747D01*
X85051145Y-48879855D01*
X85044253Y-48877000D01*
X84274247Y-48877000D01*
X84267355Y-48879855D01*
X84264500Y-48886747D01*
X84264500Y-49294252D01*
X84010500Y-49294252D01*
X84010500Y-48886747D01*
X84007645Y-48879855D01*
X84000753Y-48877000D01*
X83230748Y-48877000D01*
X83223856Y-48879855D01*
X83221001Y-48886747D01*
X83221001Y-48929870D01*
X82800000Y-48929870D01*
X82800000Y-48613253D01*
X83221000Y-48613253D01*
X83223855Y-48620145D01*
X83230747Y-48623000D01*
X84000753Y-48623000D01*
X84007645Y-48620145D01*
X84010500Y-48613253D01*
X84264500Y-48613253D01*
X84267355Y-48620145D01*
X84274247Y-48623000D01*
X85044252Y-48623000D01*
X85051144Y-48620145D01*
X85053999Y-48613253D01*
X85053999Y-48570130D01*
X85053698Y-48566307D01*
X85039619Y-48477409D01*
X85037265Y-48470164D01*
X84982669Y-48363013D01*
X84978189Y-48356847D01*
X84893153Y-48271811D01*
X84886987Y-48267331D01*
X84779836Y-48212735D01*
X84772590Y-48210381D01*
X84683693Y-48196301D01*
X84679871Y-48196000D01*
X84274247Y-48196000D01*
X84267355Y-48198855D01*
X84264500Y-48205747D01*
X84264500Y-48613253D01*
X84010500Y-48613253D01*
X84010500Y-48205748D01*
X84007645Y-48198856D01*
X84000753Y-48196001D01*
X83595130Y-48196001D01*
X83591307Y-48196302D01*
X83502409Y-48210381D01*
X83495164Y-48212735D01*
X83388013Y-48267331D01*
X83381847Y-48271811D01*
X83296811Y-48356847D01*
X83292331Y-48363013D01*
X83237735Y-48470164D01*
X83235381Y-48477410D01*
X83221301Y-48566307D01*
X83221000Y-48570129D01*
X83221000Y-48613253D01*
X82800000Y-48613253D01*
X82800000Y-47549000D01*
X82814352Y-47514352D01*
X82849000Y-47500000D01*
X84612507Y-47500000D01*
X84647155Y-47514352D01*
G37*
G04 #@! TD.AperFunction*
M02*
