G04 #@! TF.GenerationSoftware,KiCad,Pcbnew,(6.0.4-0)*
G04 #@! TF.CreationDate,2022-05-04T20:04:51-04:00*
G04 #@! TF.ProjectId,pico_ducky_pcb,7069636f-5f64-4756-936b-795f7063622e,rev?*
G04 #@! TF.SameCoordinates,Original*
G04 #@! TF.FileFunction,Paste,Top*
G04 #@! TF.FilePolarity,Positive*
%FSLAX46Y46*%
G04 Gerber Fmt 4.6, Leading zero omitted, Abs format (unit mm)*
G04 Created by KiCad (PCBNEW (6.0.4-0)) date 2022-05-04 20:04:51*
%MOMM*%
%LPD*%
G01*
G04 APERTURE LIST*
G04 Aperture macros list*
%AMRoundRect*
0 Rectangle with rounded corners*
0 $1 Rounding radius*
0 $2 $3 $4 $5 $6 $7 $8 $9 X,Y pos of 4 corners*
0 Add a 4 corners polygon primitive as box body*
4,1,4,$2,$3,$4,$5,$6,$7,$8,$9,$2,$3,0*
0 Add four circle primitives for the rounded corners*
1,1,$1+$1,$2,$3*
1,1,$1+$1,$4,$5*
1,1,$1+$1,$6,$7*
1,1,$1+$1,$8,$9*
0 Add four rect primitives between the rounded corners*
20,1,$1+$1,$2,$3,$4,$5,0*
20,1,$1+$1,$4,$5,$6,$7,0*
20,1,$1+$1,$6,$7,$8,$9,0*
20,1,$1+$1,$8,$9,$2,$3,0*%
G04 Aperture macros list end*
%ADD10RoundRect,0.135000X0.135000X0.185000X-0.135000X0.185000X-0.135000X-0.185000X0.135000X-0.185000X0*%
%ADD11RoundRect,0.140000X0.170000X-0.140000X0.170000X0.140000X-0.170000X0.140000X-0.170000X-0.140000X0*%
%ADD12R,0.500000X0.500000*%
%ADD13R,1.150000X1.000000*%
%ADD14RoundRect,0.079500X-0.100500X0.079500X-0.100500X-0.079500X0.100500X-0.079500X0.100500X0.079500X0*%
%ADD15RoundRect,0.140000X-0.170000X0.140000X-0.170000X-0.140000X0.170000X-0.140000X0.170000X0.140000X0*%
%ADD16RoundRect,0.079500X0.100500X-0.079500X0.100500X0.079500X-0.100500X0.079500X-0.100500X-0.079500X0*%
%ADD17RoundRect,0.250000X-0.292217X-0.292217X0.292217X-0.292217X0.292217X0.292217X-0.292217X0.292217X0*%
%ADD18RoundRect,0.050000X-0.387500X-0.050000X0.387500X-0.050000X0.387500X0.050000X-0.387500X0.050000X0*%
%ADD19RoundRect,0.050000X-0.050000X-0.387500X0.050000X-0.387500X0.050000X0.387500X-0.050000X0.387500X0*%
%ADD20RoundRect,0.135000X0.185000X-0.135000X0.185000X0.135000X-0.185000X0.135000X-0.185000X-0.135000X0*%
%ADD21R,0.350000X1.100000*%
%ADD22R,2.600000X0.300000*%
%ADD23R,1.100000X2.500000*%
G04 APERTURE END LIST*
D10*
X89610000Y-48200000D03*
X88590000Y-48200000D03*
D11*
X89925000Y-64330000D03*
X89925000Y-63370000D03*
D12*
X81900000Y-61675000D03*
X82800000Y-61675000D03*
X82800000Y-60775000D03*
X81900000Y-60775000D03*
D10*
X88785000Y-62150000D03*
X87765000Y-62150000D03*
D13*
X88400000Y-63700000D03*
X86650000Y-63700000D03*
X86650000Y-65100000D03*
X88400000Y-65100000D03*
D14*
X92500000Y-49445000D03*
X92500000Y-48755000D03*
X85630000Y-48105000D03*
X85630000Y-48795000D03*
D15*
X81100000Y-45820000D03*
X81100000Y-46780000D03*
D16*
X93300000Y-59255000D03*
X93300000Y-59945000D03*
D10*
X92430000Y-59400000D03*
X91410000Y-59400000D03*
D16*
X89980000Y-59955000D03*
X89980000Y-60645000D03*
X84300000Y-56945000D03*
X84300000Y-56255000D03*
D17*
X89637500Y-53762500D03*
X89637500Y-55037500D03*
X88362500Y-53762500D03*
X88362500Y-55037500D03*
D18*
X85562500Y-51800000D03*
X85562500Y-52200000D03*
X85562500Y-52600000D03*
X85562500Y-53000000D03*
X85562500Y-53400000D03*
X85562500Y-53800000D03*
X85562500Y-54200000D03*
X85562500Y-54600000D03*
X85562500Y-55000000D03*
X85562500Y-55400000D03*
X85562500Y-55800000D03*
X85562500Y-56200000D03*
X85562500Y-56600000D03*
X85562500Y-57000000D03*
D19*
X86400000Y-57837500D03*
X86800000Y-57837500D03*
X87200000Y-57837500D03*
X87600000Y-57837500D03*
X88000000Y-57837500D03*
X88400000Y-57837500D03*
X88800000Y-57837500D03*
X89200000Y-57837500D03*
X89600000Y-57837500D03*
X90000000Y-57837500D03*
X90400000Y-57837500D03*
X90800000Y-57837500D03*
X91200000Y-57837500D03*
X91600000Y-57837500D03*
D18*
X92437500Y-57000000D03*
X92437500Y-56600000D03*
X92437500Y-56200000D03*
X92437500Y-55800000D03*
X92437500Y-55400000D03*
X92437500Y-55000000D03*
X92437500Y-54600000D03*
X92437500Y-54200000D03*
X92437500Y-53800000D03*
X92437500Y-53400000D03*
X92437500Y-53000000D03*
X92437500Y-52600000D03*
X92437500Y-52200000D03*
X92437500Y-51800000D03*
D19*
X91600000Y-50962500D03*
X91200000Y-50962500D03*
X90800000Y-50962500D03*
X90400000Y-50962500D03*
X90000000Y-50962500D03*
X89600000Y-50962500D03*
X89200000Y-50962500D03*
X88800000Y-50962500D03*
X88400000Y-50962500D03*
X88000000Y-50962500D03*
X87600000Y-50962500D03*
X87200000Y-50962500D03*
X86800000Y-50962500D03*
X86400000Y-50962500D03*
D15*
X90700000Y-48420000D03*
X90700000Y-49380000D03*
D16*
X89180000Y-60645000D03*
X89180000Y-59955000D03*
D14*
X91660000Y-49445000D03*
X91660000Y-48755000D03*
D20*
X86640000Y-49200000D03*
X86640000Y-48180000D03*
D21*
X83650000Y-51300000D03*
X82850000Y-51300000D03*
X82050000Y-51300000D03*
X81250000Y-51300000D03*
X81250000Y-54100000D03*
X82050000Y-54100000D03*
X82850000Y-54100000D03*
X83650000Y-54100000D03*
D22*
X82450000Y-52700000D03*
D15*
X93450000Y-48420000D03*
X93450000Y-49380000D03*
D23*
X83500000Y-45850000D03*
X86000000Y-45850000D03*
X88000000Y-45850000D03*
X90500000Y-45850000D03*
D11*
X85125000Y-65110000D03*
X85125000Y-64150000D03*
D10*
X89610000Y-49250000D03*
X88590000Y-49250000D03*
M02*
