G04 #@! TF.GenerationSoftware,KiCad,Pcbnew,(6.0.4-0)*
G04 #@! TF.CreationDate,2022-05-04T20:04:51-04:00*
G04 #@! TF.ProjectId,pico_ducky_pcb,7069636f-5f64-4756-936b-795f7063622e,rev?*
G04 #@! TF.SameCoordinates,Original*
G04 #@! TF.FileFunction,Copper,L3,Inr*
G04 #@! TF.FilePolarity,Positive*
%FSLAX46Y46*%
G04 Gerber Fmt 4.6, Leading zero omitted, Abs format (unit mm)*
G04 Created by KiCad (PCBNEW (6.0.4-0)) date 2022-05-04 20:04:51*
%MOMM*%
%LPD*%
G01*
G04 APERTURE LIST*
G04 #@! TA.AperFunction,ComponentPad*
%ADD10C,0.600000*%
G04 #@! TD*
G04 #@! TA.AperFunction,ComponentPad*
%ADD11O,1.900000X3.500000*%
G04 #@! TD*
G04 #@! TA.AperFunction,ComponentPad*
%ADD12R,1.000000X1.000000*%
G04 #@! TD*
G04 #@! TA.AperFunction,ComponentPad*
%ADD13O,1.000000X1.000000*%
G04 #@! TD*
G04 #@! TA.AperFunction,ViaPad*
%ADD14C,0.600000*%
G04 #@! TD*
G04 #@! TA.AperFunction,ViaPad*
%ADD15C,0.800000*%
G04 #@! TD*
G04 #@! TA.AperFunction,ViaPad*
%ADD16C,0.550000*%
G04 #@! TD*
G04 APERTURE END LIST*
D10*
X89000000Y-55675000D03*
X90275000Y-54400000D03*
X89000000Y-53125000D03*
X90275000Y-53125000D03*
X90275000Y-55675000D03*
X89000000Y-54400000D03*
X87725000Y-55675000D03*
X87725000Y-53125000D03*
X87725000Y-54400000D03*
D11*
X81300000Y-43100000D03*
X92700000Y-43100000D03*
D12*
X92860000Y-61200000D03*
D13*
X91590000Y-61200000D03*
X92860000Y-62470000D03*
X91590000Y-62470000D03*
X92860000Y-63740000D03*
X91590000Y-63740000D03*
X92860000Y-65010000D03*
X91590000Y-65010000D03*
X92860000Y-66280000D03*
X91590000Y-66280000D03*
D14*
X86650000Y-62700000D03*
X85100000Y-66150000D03*
D15*
X92750000Y-46000000D03*
X91500000Y-46000000D03*
X83800000Y-58850000D03*
D14*
X83800000Y-66250000D03*
X81070000Y-61700000D03*
X89950000Y-65100000D03*
D15*
X81200000Y-50200000D03*
D14*
X85100000Y-47600000D03*
X91350000Y-52850000D03*
D15*
X92750000Y-47750000D03*
X91500000Y-47750000D03*
D14*
X89980000Y-61300000D03*
D15*
X80700000Y-48300000D03*
X82200000Y-45300000D03*
D14*
X84900000Y-49500000D03*
X88480000Y-60600000D03*
X83200000Y-49500000D03*
X84050000Y-49500000D03*
X93300000Y-50700000D03*
X89575000Y-51875000D03*
X92450000Y-50700000D03*
X85575000Y-51275000D03*
X84550000Y-55400000D03*
D15*
X93310000Y-58460000D03*
D14*
X83650000Y-60800000D03*
D16*
X86870000Y-51790000D03*
X81250000Y-55050000D03*
X91500000Y-55800000D03*
X85870000Y-49550000D03*
D15*
X84353008Y-50895359D03*
D16*
X86450000Y-54400000D03*
X90800000Y-56900000D03*
X82850000Y-55050000D03*
X88400000Y-51900000D03*
X82050000Y-55050000D03*
X87600000Y-52170000D03*
X87800000Y-49000000D03*
X88000000Y-47500000D03*
G04 #@! TA.AperFunction,Conductor*
G36*
X93433621Y-40528502D02*
G01*
X93480114Y-40582158D01*
X93491500Y-40634500D01*
X93491500Y-40857391D01*
X93471498Y-40925512D01*
X93417842Y-40972005D01*
X93347568Y-40982109D01*
X93309359Y-40969293D01*
X93309162Y-40969731D01*
X93304741Y-40967744D01*
X93304606Y-40967699D01*
X93299922Y-40965113D01*
X93120835Y-40901695D01*
X93078720Y-40886781D01*
X93078716Y-40886780D01*
X93073845Y-40885055D01*
X93068752Y-40884148D01*
X93068749Y-40884147D01*
X92842816Y-40843902D01*
X92842810Y-40843901D01*
X92837727Y-40842996D01*
X92750460Y-40841930D01*
X92603081Y-40840129D01*
X92603079Y-40840129D01*
X92597911Y-40840066D01*
X92360837Y-40876343D01*
X92132871Y-40950854D01*
X91920136Y-41061597D01*
X91916003Y-41064700D01*
X91916000Y-41064702D01*
X91889997Y-41084226D01*
X91728345Y-41205598D01*
X91562648Y-41378990D01*
X91427495Y-41577117D01*
X91326516Y-41794656D01*
X91262424Y-42025768D01*
X91258935Y-42058416D01*
X91241882Y-42217985D01*
X91241500Y-42221557D01*
X91241500Y-43960803D01*
X91241712Y-43963376D01*
X91241712Y-43963387D01*
X91255729Y-44133876D01*
X91255730Y-44133882D01*
X91256153Y-44139027D01*
X91314580Y-44371636D01*
X91316636Y-44376366D01*
X91316639Y-44376373D01*
X91408153Y-44586841D01*
X91410213Y-44591578D01*
X91413017Y-44595912D01*
X91413019Y-44595916D01*
X91537675Y-44788604D01*
X91540485Y-44792947D01*
X91620336Y-44880702D01*
X91651386Y-44944546D01*
X91642991Y-45015045D01*
X91597815Y-45069813D01*
X91527141Y-45091500D01*
X91404513Y-45091500D01*
X91398061Y-45092872D01*
X91398056Y-45092872D01*
X91317139Y-45110072D01*
X91217712Y-45131206D01*
X91211682Y-45133891D01*
X91211681Y-45133891D01*
X91049278Y-45206197D01*
X91049276Y-45206198D01*
X91043248Y-45208882D01*
X91037907Y-45212762D01*
X91037906Y-45212763D01*
X91007455Y-45234887D01*
X90888747Y-45321134D01*
X90884326Y-45326044D01*
X90884325Y-45326045D01*
X90856450Y-45357004D01*
X90760960Y-45463056D01*
X90665473Y-45628444D01*
X90606458Y-45810072D01*
X90605768Y-45816633D01*
X90605768Y-45816635D01*
X90603118Y-45841852D01*
X90586496Y-46000000D01*
X90587186Y-46006565D01*
X90603955Y-46166109D01*
X90606458Y-46189928D01*
X90665473Y-46371556D01*
X90760960Y-46536944D01*
X90888747Y-46678866D01*
X90894089Y-46682747D01*
X90894091Y-46682749D01*
X91018399Y-46773064D01*
X91061753Y-46829286D01*
X91067828Y-46900023D01*
X91034696Y-46962814D01*
X91018399Y-46976936D01*
X90938356Y-47035091D01*
X90888747Y-47071134D01*
X90884326Y-47076044D01*
X90884325Y-47076045D01*
X90862218Y-47100598D01*
X90760960Y-47213056D01*
X90665473Y-47378444D01*
X90606458Y-47560072D01*
X90605768Y-47566633D01*
X90605768Y-47566635D01*
X90596279Y-47656921D01*
X90586496Y-47750000D01*
X90587186Y-47756565D01*
X90594278Y-47824037D01*
X90606458Y-47939928D01*
X90665473Y-48121556D01*
X90668776Y-48127278D01*
X90668777Y-48127279D01*
X90686070Y-48157231D01*
X90760960Y-48286944D01*
X90765378Y-48291851D01*
X90765379Y-48291852D01*
X90875000Y-48413598D01*
X90888747Y-48428866D01*
X91043248Y-48541118D01*
X91049276Y-48543802D01*
X91049278Y-48543803D01*
X91134004Y-48581525D01*
X91217712Y-48618794D01*
X91311113Y-48638647D01*
X91398056Y-48657128D01*
X91398061Y-48657128D01*
X91404513Y-48658500D01*
X91595487Y-48658500D01*
X91601939Y-48657128D01*
X91601944Y-48657128D01*
X91688887Y-48638647D01*
X91782288Y-48618794D01*
X91865996Y-48581525D01*
X91950722Y-48543803D01*
X91950724Y-48543802D01*
X91956752Y-48541118D01*
X92050939Y-48472687D01*
X92117807Y-48448828D01*
X92186958Y-48464909D01*
X92199061Y-48472687D01*
X92293248Y-48541118D01*
X92299276Y-48543802D01*
X92299278Y-48543803D01*
X92384004Y-48581525D01*
X92467712Y-48618794D01*
X92561113Y-48638647D01*
X92648056Y-48657128D01*
X92648061Y-48657128D01*
X92654513Y-48658500D01*
X92845487Y-48658500D01*
X92851939Y-48657128D01*
X92851944Y-48657128D01*
X92938887Y-48638647D01*
X93032288Y-48618794D01*
X93115996Y-48581525D01*
X93200722Y-48543803D01*
X93200724Y-48543802D01*
X93206752Y-48541118D01*
X93291439Y-48479589D01*
X93358307Y-48455731D01*
X93427458Y-48471811D01*
X93476938Y-48522725D01*
X93491500Y-48581525D01*
X93491500Y-60066000D01*
X93471498Y-60134121D01*
X93417842Y-60180614D01*
X93365500Y-60192000D01*
X93132115Y-60192000D01*
X93116876Y-60196475D01*
X93115671Y-60197865D01*
X93114000Y-60205548D01*
X93114000Y-61328000D01*
X93093998Y-61396121D01*
X93040342Y-61442614D01*
X92988000Y-61454000D01*
X92732000Y-61454000D01*
X92663879Y-61433998D01*
X92617386Y-61380342D01*
X92606000Y-61328000D01*
X92606000Y-60210116D01*
X92601525Y-60194877D01*
X92600135Y-60193672D01*
X92592452Y-60192001D01*
X92315331Y-60192001D01*
X92308510Y-60192371D01*
X92257648Y-60197895D01*
X92242396Y-60201521D01*
X92121946Y-60246676D01*
X92098483Y-60259522D01*
X92097219Y-60257213D01*
X92043609Y-60277243D01*
X91986488Y-60267850D01*
X91982701Y-60265802D01*
X91976821Y-60263982D01*
X91976819Y-60263981D01*
X91899979Y-60240196D01*
X91793768Y-60207318D01*
X91787643Y-60206674D01*
X91787642Y-60206674D01*
X91603204Y-60187289D01*
X91603202Y-60187289D01*
X91597075Y-60186645D01*
X91534157Y-60192371D01*
X91406251Y-60204011D01*
X91406248Y-60204012D01*
X91400112Y-60204570D01*
X91394206Y-60206308D01*
X91394202Y-60206309D01*
X91289076Y-60237249D01*
X91210381Y-60260410D01*
X91204923Y-60263263D01*
X91204919Y-60263265D01*
X91114147Y-60310720D01*
X91035110Y-60352040D01*
X90880975Y-60475968D01*
X90877011Y-60480692D01*
X90871518Y-60487238D01*
X90753846Y-60627474D01*
X90750876Y-60632877D01*
X90750873Y-60632881D01*
X90727298Y-60675763D01*
X90676953Y-60725821D01*
X90607535Y-60740714D01*
X90541087Y-60715713D01*
X90527478Y-60703845D01*
X90499592Y-60675763D01*
X90489815Y-60665918D01*
X90478697Y-60658862D01*
X90421788Y-60622747D01*
X90336666Y-60568727D01*
X90307463Y-60558328D01*
X90172425Y-60510243D01*
X90172420Y-60510242D01*
X90165790Y-60507881D01*
X90158802Y-60507048D01*
X90158799Y-60507047D01*
X90035698Y-60492368D01*
X89985680Y-60486404D01*
X89978677Y-60487140D01*
X89978676Y-60487140D01*
X89812288Y-60504628D01*
X89812286Y-60504629D01*
X89805288Y-60505364D01*
X89633579Y-60563818D01*
X89627575Y-60567512D01*
X89485095Y-60655166D01*
X89485092Y-60655168D01*
X89479088Y-60658862D01*
X89474053Y-60663793D01*
X89474050Y-60663795D01*
X89371686Y-60764038D01*
X89349493Y-60785771D01*
X89251235Y-60938238D01*
X89248826Y-60944858D01*
X89248824Y-60944861D01*
X89206137Y-61062143D01*
X89189197Y-61108685D01*
X89166463Y-61288640D01*
X89184163Y-61469160D01*
X89241418Y-61641273D01*
X89245065Y-61647295D01*
X89245066Y-61647297D01*
X89306633Y-61748956D01*
X89335380Y-61796424D01*
X89461382Y-61926902D01*
X89467278Y-61930760D01*
X89591195Y-62011849D01*
X89613159Y-62026222D01*
X89619763Y-62028678D01*
X89619765Y-62028679D01*
X89776558Y-62086990D01*
X89776560Y-62086990D01*
X89783168Y-62089448D01*
X89850304Y-62098406D01*
X89955980Y-62112507D01*
X89955984Y-62112507D01*
X89962961Y-62113438D01*
X89969972Y-62112800D01*
X89969976Y-62112800D01*
X90128129Y-62098406D01*
X90143600Y-62096998D01*
X90150302Y-62094820D01*
X90150304Y-62094820D01*
X90309409Y-62043124D01*
X90309412Y-62043123D01*
X90316108Y-62040947D01*
X90445493Y-61963818D01*
X90465187Y-61952078D01*
X90533941Y-61934378D01*
X90601351Y-61956660D01*
X90646013Y-62011849D01*
X90653748Y-62082423D01*
X90649807Y-62098402D01*
X90598765Y-62259306D01*
X90576719Y-62455851D01*
X90577235Y-62461995D01*
X90592022Y-62638091D01*
X90593268Y-62652934D01*
X90647783Y-62843050D01*
X90650602Y-62848535D01*
X90724487Y-62992298D01*
X90738187Y-63018956D01*
X90742016Y-63023787D01*
X90743839Y-63026088D01*
X90744414Y-63027509D01*
X90745353Y-63028966D01*
X90745076Y-63029144D01*
X90770474Y-63091898D01*
X90757301Y-63161662D01*
X90753846Y-63167474D01*
X90658567Y-63340787D01*
X90656706Y-63346654D01*
X90656705Y-63346656D01*
X90604094Y-63512507D01*
X90598765Y-63529306D01*
X90576719Y-63725851D01*
X90577235Y-63731995D01*
X90588821Y-63869971D01*
X90593268Y-63922934D01*
X90647783Y-64113050D01*
X90650602Y-64118535D01*
X90711818Y-64237647D01*
X90738187Y-64288956D01*
X90742016Y-64293787D01*
X90743839Y-64296088D01*
X90744414Y-64297509D01*
X90745353Y-64298966D01*
X90745076Y-64299144D01*
X90770474Y-64361898D01*
X90757301Y-64431662D01*
X90753846Y-64437474D01*
X90720148Y-64498771D01*
X90669803Y-64548829D01*
X90600386Y-64563723D01*
X90533937Y-64538722D01*
X90520327Y-64526854D01*
X90492440Y-64498771D01*
X90459815Y-64465918D01*
X90448697Y-64458862D01*
X90378044Y-64414025D01*
X90306666Y-64368727D01*
X90229395Y-64341212D01*
X90142425Y-64310243D01*
X90142420Y-64310242D01*
X90135790Y-64307881D01*
X90128802Y-64307048D01*
X90128799Y-64307047D01*
X90005698Y-64292368D01*
X89955680Y-64286404D01*
X89948677Y-64287140D01*
X89948676Y-64287140D01*
X89782288Y-64304628D01*
X89782286Y-64304629D01*
X89775288Y-64305364D01*
X89603579Y-64363818D01*
X89550064Y-64396741D01*
X89455095Y-64455166D01*
X89455092Y-64455168D01*
X89449088Y-64458862D01*
X89444053Y-64463793D01*
X89444050Y-64463795D01*
X89324525Y-64580843D01*
X89319493Y-64585771D01*
X89221235Y-64738238D01*
X89218826Y-64744858D01*
X89218824Y-64744861D01*
X89161606Y-64902066D01*
X89159197Y-64908685D01*
X89136463Y-65088640D01*
X89154163Y-65269160D01*
X89211418Y-65441273D01*
X89215065Y-65447295D01*
X89215066Y-65447297D01*
X89282689Y-65558956D01*
X89305380Y-65596424D01*
X89310269Y-65601487D01*
X89310270Y-65601488D01*
X89358166Y-65651085D01*
X89431382Y-65726902D01*
X89583159Y-65826222D01*
X89589763Y-65828678D01*
X89589765Y-65828679D01*
X89746558Y-65886990D01*
X89746560Y-65886990D01*
X89753168Y-65889448D01*
X89836995Y-65900633D01*
X89925980Y-65912507D01*
X89925984Y-65912507D01*
X89932961Y-65913438D01*
X89939972Y-65912800D01*
X89939976Y-65912800D01*
X90082459Y-65899832D01*
X90113600Y-65896998D01*
X90120302Y-65894820D01*
X90120304Y-65894820D01*
X90279409Y-65843124D01*
X90279412Y-65843123D01*
X90286108Y-65840947D01*
X90441912Y-65748069D01*
X90447012Y-65743212D01*
X90447019Y-65743207D01*
X90460680Y-65730198D01*
X90523805Y-65697706D01*
X90594476Y-65704501D01*
X90650254Y-65748425D01*
X90673431Y-65815532D01*
X90663381Y-65871083D01*
X90661538Y-65875383D01*
X90658567Y-65880787D01*
X90656703Y-65886662D01*
X90656702Y-65886665D01*
X90611230Y-66030011D01*
X90598765Y-66069306D01*
X90576719Y-66265851D01*
X90577235Y-66271995D01*
X90584201Y-66354957D01*
X90569969Y-66424513D01*
X90520392Y-66475332D01*
X90458643Y-66491500D01*
X86013444Y-66491500D01*
X85945323Y-66471498D01*
X85898830Y-66417842D01*
X85888670Y-66347964D01*
X85912748Y-66176640D01*
X85912748Y-66176635D01*
X85913299Y-66172717D01*
X85913616Y-66150000D01*
X85893397Y-65969745D01*
X85873465Y-65912507D01*
X85836064Y-65805106D01*
X85836062Y-65805103D01*
X85833745Y-65798448D01*
X85804520Y-65751677D01*
X85741359Y-65650598D01*
X85737626Y-65644624D01*
X85716907Y-65623760D01*
X85614778Y-65520915D01*
X85614774Y-65520912D01*
X85609815Y-65515918D01*
X85602928Y-65511547D01*
X85513237Y-65454628D01*
X85456666Y-65418727D01*
X85416594Y-65404458D01*
X85292425Y-65360243D01*
X85292420Y-65360242D01*
X85285790Y-65357881D01*
X85278802Y-65357048D01*
X85278799Y-65357047D01*
X85155698Y-65342368D01*
X85105680Y-65336404D01*
X85098677Y-65337140D01*
X85098676Y-65337140D01*
X84932288Y-65354628D01*
X84932286Y-65354629D01*
X84925288Y-65355364D01*
X84753579Y-65413818D01*
X84747575Y-65417512D01*
X84605095Y-65505166D01*
X84605092Y-65505168D01*
X84599088Y-65508862D01*
X84487930Y-65617716D01*
X84425266Y-65651085D01*
X84354508Y-65645279D01*
X84321535Y-65623760D01*
X84320271Y-65625332D01*
X84314777Y-65620915D01*
X84309815Y-65615918D01*
X84298697Y-65608862D01*
X84220057Y-65558956D01*
X84156666Y-65518727D01*
X84118582Y-65505166D01*
X83992425Y-65460243D01*
X83992420Y-65460242D01*
X83985790Y-65457881D01*
X83978802Y-65457048D01*
X83978799Y-65457047D01*
X83846512Y-65441273D01*
X83805680Y-65436404D01*
X83798677Y-65437140D01*
X83798676Y-65437140D01*
X83632288Y-65454628D01*
X83632286Y-65454629D01*
X83625288Y-65455364D01*
X83453579Y-65513818D01*
X83405713Y-65543266D01*
X83337214Y-65561924D01*
X83269500Y-65540586D01*
X83224071Y-65486026D01*
X83213865Y-65442541D01*
X83213544Y-65436404D01*
X83212214Y-65411033D01*
X83162357Y-65230029D01*
X83119254Y-65148276D01*
X83077979Y-65069991D01*
X83077977Y-65069987D01*
X83074795Y-65063953D01*
X82953614Y-64920554D01*
X82947233Y-64915675D01*
X82871352Y-64857661D01*
X82804466Y-64806523D01*
X82672233Y-64744861D01*
X82640489Y-64730058D01*
X82640486Y-64730057D01*
X82634312Y-64727178D01*
X82627664Y-64725692D01*
X82627661Y-64725691D01*
X82456126Y-64687349D01*
X82456125Y-64687349D01*
X82451088Y-64686223D01*
X82445329Y-64685901D01*
X82307299Y-64685901D01*
X82167553Y-64701082D01*
X81989614Y-64760965D01*
X81828685Y-64857661D01*
X81823725Y-64862352D01*
X81823723Y-64862353D01*
X81762178Y-64920554D01*
X81692275Y-64986658D01*
X81586746Y-65141939D01*
X81584213Y-65148273D01*
X81584211Y-65148276D01*
X81519558Y-65309920D01*
X81519557Y-65309925D01*
X81517024Y-65316257D01*
X81515910Y-65322985D01*
X81515909Y-65322989D01*
X81487475Y-65494744D01*
X81486360Y-65501481D01*
X81486717Y-65508298D01*
X81486717Y-65508302D01*
X81492357Y-65615918D01*
X81496186Y-65688969D01*
X81497997Y-65695543D01*
X81497997Y-65695544D01*
X81507542Y-65730198D01*
X81546043Y-65869973D01*
X81549227Y-65876012D01*
X81630421Y-66030011D01*
X81630423Y-66030015D01*
X81633605Y-66036049D01*
X81754786Y-66179448D01*
X81903934Y-66293479D01*
X81973704Y-66326014D01*
X82067911Y-66369944D01*
X82067914Y-66369945D01*
X82074088Y-66372824D01*
X82080736Y-66374310D01*
X82080739Y-66374311D01*
X82252274Y-66412653D01*
X82252275Y-66412653D01*
X82257312Y-66413779D01*
X82263071Y-66414101D01*
X82401101Y-66414101D01*
X82540847Y-66398920D01*
X82547320Y-66396742D01*
X82553741Y-66395330D01*
X82624568Y-66400238D01*
X82681498Y-66442658D01*
X82706457Y-66509123D01*
X82691520Y-66578530D01*
X82667006Y-66608743D01*
X82667042Y-66608775D01*
X82666281Y-66609636D01*
X82666265Y-66609656D01*
X82661102Y-66615501D01*
X82661098Y-66615505D01*
X82647468Y-66630938D01*
X82635276Y-66642982D01*
X82619673Y-66656427D01*
X82619671Y-66656430D01*
X82612873Y-66662287D01*
X82607993Y-66669816D01*
X82607992Y-66669817D01*
X82598906Y-66683835D01*
X82587615Y-66698709D01*
X82576569Y-66711217D01*
X82570622Y-66717951D01*
X82558058Y-66744711D01*
X82549737Y-66759691D01*
X82538529Y-66776983D01*
X82538527Y-66776988D01*
X82533648Y-66784515D01*
X82531078Y-66793108D01*
X82531076Y-66793113D01*
X82526289Y-66809120D01*
X82519628Y-66826564D01*
X82508719Y-66849800D01*
X82507338Y-66858667D01*
X82507338Y-66858668D01*
X82504170Y-66879015D01*
X82500387Y-66895732D01*
X82494485Y-66915466D01*
X82494484Y-66915472D01*
X82491914Y-66924066D01*
X82491859Y-66933037D01*
X82491859Y-66933038D01*
X82491704Y-66958497D01*
X82491671Y-66959289D01*
X82491500Y-66960386D01*
X82491500Y-66991377D01*
X82491498Y-66992147D01*
X82491024Y-67069721D01*
X82491408Y-67071065D01*
X82491500Y-67072410D01*
X82491500Y-67178151D01*
X82471498Y-67246272D01*
X82417842Y-67292765D01*
X82347568Y-67302869D01*
X82337693Y-67301044D01*
X82257065Y-67282800D01*
X82257062Y-67282800D01*
X82248308Y-67280819D01*
X82102930Y-67289838D01*
X82094486Y-67292886D01*
X82094483Y-67292887D01*
X82027625Y-67317023D01*
X81956760Y-67321340D01*
X81941742Y-67316909D01*
X81937065Y-67315207D01*
X81932076Y-67312880D01*
X81719371Y-67255885D01*
X81500000Y-67236693D01*
X81280629Y-67255885D01*
X81228922Y-67269740D01*
X81073233Y-67311457D01*
X81073228Y-67311459D01*
X81067924Y-67312880D01*
X81062941Y-67315204D01*
X81058196Y-67316931D01*
X80987343Y-67321436D01*
X80970879Y-67316516D01*
X80963536Y-67313763D01*
X80906775Y-67271122D01*
X80882077Y-67204559D01*
X80887277Y-67158943D01*
X80887465Y-67158327D01*
X80891281Y-67150200D01*
X80895830Y-67120983D01*
X80899613Y-67104268D01*
X80905515Y-67084534D01*
X80905516Y-67084528D01*
X80908086Y-67075934D01*
X80908296Y-67041494D01*
X80908329Y-67040711D01*
X80908500Y-67039614D01*
X80908500Y-67008623D01*
X80908502Y-67007853D01*
X80908952Y-66934215D01*
X80908952Y-66934214D01*
X80908976Y-66930279D01*
X80908592Y-66928935D01*
X80908500Y-66927590D01*
X80908500Y-63501479D01*
X81486360Y-63501479D01*
X81486717Y-63508296D01*
X81486717Y-63508300D01*
X81487818Y-63529306D01*
X81496186Y-63688967D01*
X81546043Y-63869971D01*
X81549227Y-63876010D01*
X81630421Y-64030009D01*
X81630423Y-64030013D01*
X81633605Y-64036047D01*
X81754786Y-64179446D01*
X81903934Y-64293477D01*
X81973704Y-64326012D01*
X82067911Y-64369942D01*
X82067914Y-64369943D01*
X82074088Y-64372822D01*
X82080736Y-64374308D01*
X82080739Y-64374309D01*
X82252274Y-64412651D01*
X82252275Y-64412651D01*
X82257312Y-64413777D01*
X82263071Y-64414099D01*
X82401101Y-64414099D01*
X82540847Y-64398918D01*
X82718786Y-64339035D01*
X82879715Y-64242339D01*
X82884677Y-64237647D01*
X83011167Y-64118031D01*
X83011169Y-64118029D01*
X83016125Y-64113342D01*
X83121654Y-63958061D01*
X83124189Y-63951724D01*
X83188842Y-63790080D01*
X83188843Y-63790075D01*
X83191376Y-63783743D01*
X83192490Y-63777015D01*
X83192491Y-63777011D01*
X83220925Y-63605256D01*
X83220925Y-63605253D01*
X83222040Y-63598519D01*
X83218734Y-63535425D01*
X83212571Y-63417844D01*
X83212214Y-63411031D01*
X83191380Y-63335392D01*
X83164170Y-63236609D01*
X83162357Y-63230027D01*
X83119254Y-63148274D01*
X83077979Y-63069989D01*
X83077977Y-63069985D01*
X83074795Y-63063951D01*
X82953614Y-62920552D01*
X82804466Y-62806521D01*
X82702099Y-62758786D01*
X82640489Y-62730056D01*
X82640486Y-62730055D01*
X82634312Y-62727176D01*
X82627664Y-62725690D01*
X82627661Y-62725689D01*
X82461911Y-62688640D01*
X85836463Y-62688640D01*
X85854163Y-62869160D01*
X85911418Y-63041273D01*
X85915065Y-63047295D01*
X85915066Y-63047297D01*
X85984328Y-63161662D01*
X86005380Y-63196424D01*
X86131382Y-63326902D01*
X86163729Y-63348069D01*
X86259945Y-63411031D01*
X86283159Y-63426222D01*
X86289763Y-63428678D01*
X86289765Y-63428679D01*
X86446558Y-63486990D01*
X86446560Y-63486990D01*
X86453168Y-63489448D01*
X86536995Y-63500633D01*
X86625980Y-63512507D01*
X86625984Y-63512507D01*
X86632961Y-63513438D01*
X86639972Y-63512800D01*
X86639976Y-63512800D01*
X86782459Y-63499832D01*
X86813600Y-63496998D01*
X86820302Y-63494820D01*
X86820304Y-63494820D01*
X86979409Y-63443124D01*
X86979412Y-63443123D01*
X86986108Y-63440947D01*
X87141912Y-63348069D01*
X87273266Y-63222982D01*
X87373643Y-63071902D01*
X87438055Y-62902338D01*
X87439035Y-62895366D01*
X87462748Y-62726639D01*
X87462748Y-62726636D01*
X87463299Y-62722717D01*
X87463616Y-62700000D01*
X87443397Y-62519745D01*
X87441080Y-62513091D01*
X87386064Y-62355106D01*
X87386062Y-62355103D01*
X87383745Y-62348448D01*
X87287626Y-62194624D01*
X87207005Y-62113438D01*
X87164778Y-62070915D01*
X87164774Y-62070912D01*
X87159815Y-62065918D01*
X87148697Y-62058862D01*
X87091185Y-62022364D01*
X87006666Y-61968727D01*
X86959910Y-61952078D01*
X86842425Y-61910243D01*
X86842420Y-61910242D01*
X86835790Y-61907881D01*
X86828802Y-61907048D01*
X86828799Y-61907047D01*
X86705698Y-61892368D01*
X86655680Y-61886404D01*
X86648677Y-61887140D01*
X86648676Y-61887140D01*
X86482288Y-61904628D01*
X86482286Y-61904629D01*
X86475288Y-61905364D01*
X86303579Y-61963818D01*
X86297575Y-61967512D01*
X86155095Y-62055166D01*
X86155092Y-62055168D01*
X86149088Y-62058862D01*
X86144053Y-62063793D01*
X86144050Y-62063795D01*
X86024525Y-62180843D01*
X86019493Y-62185771D01*
X85921235Y-62338238D01*
X85918826Y-62344858D01*
X85918824Y-62344861D01*
X85883852Y-62440947D01*
X85859197Y-62508685D01*
X85836463Y-62688640D01*
X82461911Y-62688640D01*
X82456126Y-62687347D01*
X82456125Y-62687347D01*
X82451088Y-62686221D01*
X82445329Y-62685899D01*
X82307299Y-62685899D01*
X82167553Y-62701080D01*
X81989614Y-62760963D01*
X81828685Y-62857659D01*
X81823725Y-62862350D01*
X81823723Y-62862351D01*
X81762178Y-62920552D01*
X81692275Y-62986656D01*
X81586746Y-63141937D01*
X81584213Y-63148271D01*
X81584211Y-63148274D01*
X81519558Y-63309918D01*
X81519557Y-63309923D01*
X81517024Y-63316255D01*
X81515910Y-63322983D01*
X81515909Y-63322987D01*
X81488197Y-63490380D01*
X81486360Y-63501479D01*
X80908500Y-63501479D01*
X80908500Y-62638091D01*
X80928502Y-62569970D01*
X80982158Y-62523477D01*
X81038877Y-62515034D01*
X81038933Y-62512359D01*
X81045982Y-62512507D01*
X81052961Y-62513438D01*
X81059972Y-62512800D01*
X81059976Y-62512800D01*
X81202459Y-62499832D01*
X81233600Y-62496998D01*
X81240302Y-62494820D01*
X81240304Y-62494820D01*
X81399409Y-62443124D01*
X81399412Y-62443123D01*
X81406108Y-62440947D01*
X81502513Y-62383478D01*
X81555860Y-62351677D01*
X81555862Y-62351676D01*
X81561912Y-62348069D01*
X81693266Y-62222982D01*
X81793643Y-62071902D01*
X81845884Y-61934378D01*
X81855555Y-61908920D01*
X81855556Y-61908918D01*
X81858055Y-61902338D01*
X81860191Y-61887140D01*
X81882748Y-61726639D01*
X81882748Y-61726636D01*
X81883299Y-61722717D01*
X81883616Y-61700000D01*
X81863397Y-61519745D01*
X81860000Y-61509990D01*
X81806064Y-61355106D01*
X81806062Y-61355103D01*
X81803745Y-61348448D01*
X81707626Y-61194624D01*
X81702664Y-61189627D01*
X81584778Y-61070915D01*
X81584774Y-61070912D01*
X81579815Y-61065918D01*
X81426666Y-60968727D01*
X81397463Y-60958328D01*
X81262425Y-60910243D01*
X81262420Y-60910242D01*
X81255790Y-60907881D01*
X81248802Y-60907048D01*
X81248799Y-60907047D01*
X81125698Y-60892368D01*
X81075680Y-60886404D01*
X81047670Y-60889348D01*
X80977832Y-60876576D01*
X80925986Y-60828074D01*
X80908500Y-60764038D01*
X80908500Y-58851481D01*
X81486360Y-58851481D01*
X81496186Y-59038969D01*
X81546043Y-59219973D01*
X81549227Y-59226012D01*
X81630421Y-59380011D01*
X81630423Y-59380015D01*
X81633605Y-59386049D01*
X81754786Y-59529448D01*
X81903934Y-59643479D01*
X81973704Y-59676014D01*
X82067911Y-59719944D01*
X82067914Y-59719945D01*
X82074088Y-59722824D01*
X82080736Y-59724310D01*
X82080739Y-59724311D01*
X82252274Y-59762653D01*
X82252275Y-59762653D01*
X82257312Y-59763779D01*
X82263071Y-59764101D01*
X82401101Y-59764101D01*
X82540847Y-59748920D01*
X82718786Y-59689037D01*
X82879715Y-59592341D01*
X82952023Y-59523963D01*
X82983682Y-59494024D01*
X83046920Y-59461752D01*
X83117566Y-59468792D01*
X83163891Y-59501261D01*
X83188747Y-59528866D01*
X83195248Y-59533589D01*
X83269655Y-59587649D01*
X83343248Y-59641118D01*
X83349276Y-59643802D01*
X83349278Y-59643803D01*
X83442979Y-59685521D01*
X83517712Y-59718794D01*
X83611112Y-59738647D01*
X83698056Y-59757128D01*
X83698061Y-59757128D01*
X83704513Y-59758500D01*
X83895487Y-59758500D01*
X83901939Y-59757128D01*
X83901944Y-59757128D01*
X83988888Y-59738647D01*
X84082288Y-59718794D01*
X84157021Y-59685521D01*
X84250722Y-59643803D01*
X84250724Y-59643802D01*
X84256752Y-59641118D01*
X84411253Y-59528866D01*
X84539040Y-59386944D01*
X84634527Y-59221556D01*
X84693542Y-59039928D01*
X84713504Y-58850000D01*
X84693542Y-58660072D01*
X84634527Y-58478444D01*
X84539040Y-58313056D01*
X84411253Y-58171134D01*
X84256752Y-58058882D01*
X84250724Y-58056198D01*
X84250722Y-58056197D01*
X84088319Y-57983891D01*
X84088318Y-57983891D01*
X84082288Y-57981206D01*
X83988887Y-57961353D01*
X83901944Y-57942872D01*
X83901939Y-57942872D01*
X83895487Y-57941500D01*
X83704513Y-57941500D01*
X83698061Y-57942872D01*
X83698056Y-57942872D01*
X83611113Y-57961353D01*
X83517712Y-57981206D01*
X83511682Y-57983891D01*
X83511681Y-57983891D01*
X83349278Y-58056197D01*
X83349276Y-58056198D01*
X83343248Y-58058882D01*
X83188747Y-58171134D01*
X83117656Y-58250089D01*
X83057213Y-58287327D01*
X82986229Y-58285976D01*
X82947493Y-58265874D01*
X82871352Y-58207661D01*
X82804466Y-58156523D01*
X82702099Y-58108788D01*
X82640489Y-58080058D01*
X82640486Y-58080057D01*
X82634312Y-58077178D01*
X82627664Y-58075692D01*
X82627661Y-58075691D01*
X82456126Y-58037349D01*
X82456125Y-58037349D01*
X82451088Y-58036223D01*
X82445329Y-58035901D01*
X82307299Y-58035901D01*
X82167553Y-58051082D01*
X81989614Y-58110965D01*
X81828685Y-58207661D01*
X81823725Y-58212352D01*
X81823723Y-58212353D01*
X81711187Y-58318774D01*
X81692275Y-58336658D01*
X81586746Y-58491939D01*
X81584213Y-58498273D01*
X81584211Y-58498276D01*
X81519558Y-58659920D01*
X81519557Y-58659925D01*
X81517024Y-58666257D01*
X81515910Y-58672985D01*
X81515909Y-58672989D01*
X81487692Y-58843435D01*
X81486360Y-58851481D01*
X80908500Y-58851481D01*
X80908500Y-55937913D01*
X80928502Y-55869792D01*
X80982158Y-55823299D01*
X81052432Y-55813195D01*
X81056388Y-55813971D01*
X81059255Y-55815037D01*
X81066232Y-55815968D01*
X81226507Y-55837354D01*
X81226511Y-55837354D01*
X81233488Y-55838285D01*
X81240499Y-55837647D01*
X81240503Y-55837647D01*
X81401520Y-55822993D01*
X81408541Y-55822354D01*
X81415243Y-55820176D01*
X81415245Y-55820176D01*
X81569016Y-55770213D01*
X81569019Y-55770212D01*
X81575715Y-55768036D01*
X81581766Y-55764429D01*
X81584457Y-55762825D01*
X81586412Y-55762322D01*
X81588184Y-55761518D01*
X81588325Y-55761829D01*
X81653212Y-55745124D01*
X81693847Y-55755527D01*
X81694502Y-55753766D01*
X81852653Y-55812582D01*
X81852655Y-55812583D01*
X81859255Y-55815037D01*
X81866236Y-55815968D01*
X81866238Y-55815969D01*
X82026507Y-55837354D01*
X82026511Y-55837354D01*
X82033488Y-55838285D01*
X82036774Y-55837986D01*
X82103049Y-55858963D01*
X82148408Y-55913580D01*
X82157039Y-55984050D01*
X82126200Y-56047999D01*
X82072914Y-56082930D01*
X81989614Y-56110963D01*
X81828685Y-56207659D01*
X81823725Y-56212350D01*
X81823723Y-56212351D01*
X81706643Y-56323069D01*
X81692275Y-56336656D01*
X81586746Y-56491937D01*
X81584213Y-56498271D01*
X81584211Y-56498274D01*
X81519558Y-56659918D01*
X81519557Y-56659923D01*
X81517024Y-56666255D01*
X81515910Y-56672983D01*
X81515909Y-56672987D01*
X81487475Y-56844742D01*
X81486360Y-56851479D01*
X81486717Y-56858296D01*
X81486717Y-56858300D01*
X81490262Y-56925938D01*
X81496186Y-57038967D01*
X81546043Y-57219971D01*
X81549227Y-57226010D01*
X81630421Y-57380009D01*
X81630423Y-57380013D01*
X81633605Y-57386047D01*
X81754786Y-57529446D01*
X81903934Y-57643477D01*
X81950169Y-57665037D01*
X82067911Y-57719942D01*
X82067914Y-57719943D01*
X82074088Y-57722822D01*
X82080736Y-57724308D01*
X82080739Y-57724309D01*
X82252274Y-57762651D01*
X82252275Y-57762651D01*
X82257312Y-57763777D01*
X82263071Y-57764099D01*
X82401101Y-57764099D01*
X82540847Y-57748918D01*
X82718786Y-57689035D01*
X82745485Y-57672993D01*
X82873863Y-57595855D01*
X82879715Y-57592339D01*
X82884677Y-57587647D01*
X83011167Y-57468031D01*
X83011169Y-57468029D01*
X83016125Y-57463342D01*
X83121654Y-57308061D01*
X83150179Y-57236744D01*
X83188842Y-57140080D01*
X83188843Y-57140075D01*
X83191376Y-57133743D01*
X83192490Y-57127015D01*
X83192491Y-57127011D01*
X83220925Y-56955256D01*
X83220925Y-56955253D01*
X83222040Y-56948519D01*
X83220444Y-56918054D01*
X83212571Y-56767844D01*
X83212214Y-56761031D01*
X83162357Y-56580027D01*
X83119254Y-56498274D01*
X83077979Y-56419989D01*
X83077977Y-56419985D01*
X83074795Y-56413951D01*
X82953614Y-56270552D01*
X82804466Y-56156521D01*
X82702099Y-56108786D01*
X82640489Y-56080056D01*
X82640486Y-56080055D01*
X82634312Y-56077176D01*
X82627664Y-56075690D01*
X82627661Y-56075689D01*
X82456126Y-56037347D01*
X82456125Y-56037347D01*
X82451088Y-56036221D01*
X82445329Y-56035899D01*
X82346849Y-56035899D01*
X82278728Y-56015897D01*
X82232235Y-55962241D01*
X82222131Y-55891967D01*
X82251625Y-55827387D01*
X82307913Y-55790066D01*
X82369016Y-55770213D01*
X82369019Y-55770212D01*
X82375715Y-55768036D01*
X82381766Y-55764429D01*
X82384457Y-55762825D01*
X82386412Y-55762322D01*
X82388184Y-55761518D01*
X82388325Y-55761829D01*
X82453212Y-55745124D01*
X82493847Y-55755527D01*
X82494502Y-55753766D01*
X82652653Y-55812582D01*
X82652655Y-55812583D01*
X82659255Y-55815037D01*
X82666236Y-55815968D01*
X82666238Y-55815969D01*
X82826507Y-55837354D01*
X82826511Y-55837354D01*
X82833488Y-55838285D01*
X82840499Y-55837647D01*
X82840503Y-55837647D01*
X83001520Y-55822993D01*
X83008541Y-55822354D01*
X83015243Y-55820176D01*
X83015245Y-55820176D01*
X83169016Y-55770213D01*
X83169019Y-55770212D01*
X83175715Y-55768036D01*
X83326701Y-55678030D01*
X83331795Y-55673179D01*
X83331799Y-55673176D01*
X83433754Y-55576085D01*
X83453994Y-55556811D01*
X83551267Y-55410403D01*
X83613687Y-55246082D01*
X83622198Y-55185525D01*
X83637600Y-55075938D01*
X83637600Y-55075932D01*
X83638151Y-55072015D01*
X83638458Y-55050000D01*
X83618864Y-54875318D01*
X83561057Y-54709319D01*
X83467909Y-54560251D01*
X83344051Y-54435525D01*
X83294316Y-54403962D01*
X83270725Y-54388991D01*
X85661619Y-54388991D01*
X85678772Y-54563930D01*
X85734256Y-54730720D01*
X85737903Y-54736742D01*
X85737904Y-54736744D01*
X85773988Y-54796325D01*
X85825313Y-54881074D01*
X85830202Y-54886137D01*
X85830203Y-54886138D01*
X85889074Y-54947100D01*
X85947418Y-55007517D01*
X86094502Y-55103766D01*
X86101106Y-55106222D01*
X86252653Y-55162582D01*
X86252655Y-55162583D01*
X86259255Y-55165037D01*
X86266236Y-55165968D01*
X86266238Y-55165969D01*
X86426507Y-55187354D01*
X86426511Y-55187354D01*
X86433488Y-55188285D01*
X86440499Y-55187647D01*
X86440503Y-55187647D01*
X86601520Y-55172993D01*
X86608541Y-55172354D01*
X86615243Y-55170176D01*
X86615245Y-55170176D01*
X86769016Y-55120213D01*
X86769019Y-55120212D01*
X86775715Y-55118036D01*
X86781766Y-55114429D01*
X86781768Y-55114428D01*
X86876644Y-55057871D01*
X86945399Y-55040171D01*
X87012808Y-55062453D01*
X87057470Y-55117642D01*
X87065205Y-55188216D01*
X87047074Y-55234351D01*
X86996235Y-55313238D01*
X86993826Y-55319858D01*
X86993824Y-55319861D01*
X86936606Y-55477066D01*
X86934197Y-55483685D01*
X86911463Y-55663640D01*
X86929163Y-55844160D01*
X86986418Y-56016273D01*
X86990065Y-56022295D01*
X86990066Y-56022297D01*
X87073706Y-56160403D01*
X87080380Y-56171424D01*
X87085269Y-56176487D01*
X87085270Y-56176488D01*
X87115372Y-56207659D01*
X87206382Y-56301902D01*
X87358159Y-56401222D01*
X87364763Y-56403678D01*
X87364765Y-56403679D01*
X87521558Y-56461990D01*
X87521560Y-56461990D01*
X87528168Y-56464448D01*
X87611995Y-56475633D01*
X87700980Y-56487507D01*
X87700984Y-56487507D01*
X87707961Y-56488438D01*
X87714972Y-56487800D01*
X87714976Y-56487800D01*
X87876568Y-56473093D01*
X87888600Y-56471998D01*
X87895302Y-56469820D01*
X87895304Y-56469820D01*
X88054409Y-56418124D01*
X88054412Y-56418123D01*
X88061108Y-56415947D01*
X88194120Y-56336656D01*
X88210860Y-56326677D01*
X88210862Y-56326676D01*
X88216912Y-56323069D01*
X88222018Y-56318207D01*
X88274722Y-56268018D01*
X88337847Y-56235525D01*
X88408517Y-56242318D01*
X88452251Y-56271736D01*
X88481382Y-56301902D01*
X88633159Y-56401222D01*
X88639763Y-56403678D01*
X88639765Y-56403679D01*
X88796558Y-56461990D01*
X88796560Y-56461990D01*
X88803168Y-56464448D01*
X88886995Y-56475633D01*
X88975980Y-56487507D01*
X88975984Y-56487507D01*
X88982961Y-56488438D01*
X88989972Y-56487800D01*
X88989976Y-56487800D01*
X89151568Y-56473093D01*
X89163600Y-56471998D01*
X89170302Y-56469820D01*
X89170304Y-56469820D01*
X89329409Y-56418124D01*
X89329412Y-56418123D01*
X89336108Y-56415947D01*
X89469120Y-56336656D01*
X89485860Y-56326677D01*
X89485862Y-56326676D01*
X89491912Y-56323069D01*
X89497018Y-56318207D01*
X89549722Y-56268018D01*
X89612847Y-56235525D01*
X89683517Y-56242318D01*
X89727251Y-56271736D01*
X89756382Y-56301902D01*
X89908159Y-56401222D01*
X89914763Y-56403678D01*
X89914765Y-56403679D01*
X90001875Y-56436075D01*
X90058752Y-56478567D01*
X90083625Y-56545064D01*
X90076356Y-56597266D01*
X90036060Y-56707977D01*
X90036059Y-56707982D01*
X90033650Y-56714600D01*
X90011619Y-56888991D01*
X90028772Y-57063930D01*
X90084256Y-57230720D01*
X90087903Y-57236742D01*
X90087904Y-57236744D01*
X90134513Y-57313704D01*
X90175313Y-57381074D01*
X90297418Y-57507517D01*
X90444502Y-57603766D01*
X90451106Y-57606222D01*
X90602653Y-57662582D01*
X90602655Y-57662583D01*
X90609255Y-57665037D01*
X90616236Y-57665968D01*
X90616238Y-57665969D01*
X90776507Y-57687354D01*
X90776511Y-57687354D01*
X90783488Y-57688285D01*
X90790499Y-57687647D01*
X90790503Y-57687647D01*
X90951520Y-57672993D01*
X90958541Y-57672354D01*
X90965243Y-57670176D01*
X90965245Y-57670176D01*
X91119016Y-57620213D01*
X91119019Y-57620212D01*
X91125715Y-57618036D01*
X91276701Y-57528030D01*
X91281795Y-57523179D01*
X91281799Y-57523176D01*
X91351591Y-57456714D01*
X91403994Y-57406811D01*
X91501267Y-57260403D01*
X91563687Y-57096082D01*
X91572672Y-57032154D01*
X91587600Y-56925938D01*
X91587600Y-56925932D01*
X91588151Y-56922015D01*
X91588458Y-56900000D01*
X91568864Y-56725318D01*
X91567273Y-56720750D01*
X91571630Y-56650762D01*
X91613651Y-56593537D01*
X91658753Y-56573008D01*
X91658541Y-56572354D01*
X91664300Y-56570483D01*
X91664302Y-56570482D01*
X91742531Y-56545064D01*
X91819016Y-56520213D01*
X91819019Y-56520212D01*
X91825715Y-56518036D01*
X91976701Y-56428030D01*
X91981795Y-56423179D01*
X91981799Y-56423176D01*
X92066729Y-56342298D01*
X92103994Y-56306811D01*
X92201267Y-56160403D01*
X92242795Y-56051080D01*
X92261187Y-56002664D01*
X92261188Y-56002662D01*
X92263687Y-55996082D01*
X92280509Y-55876392D01*
X92287600Y-55825938D01*
X92287600Y-55825932D01*
X92288151Y-55822015D01*
X92288458Y-55800000D01*
X92268864Y-55625318D01*
X92211057Y-55459319D01*
X92117909Y-55310251D01*
X91994051Y-55185525D01*
X91986157Y-55180515D01*
X91891135Y-55120213D01*
X91845637Y-55091339D01*
X91764516Y-55062453D01*
X91686679Y-55034736D01*
X91686677Y-55034735D01*
X91680045Y-55032374D01*
X91673057Y-55031541D01*
X91673054Y-55031540D01*
X91553644Y-55017301D01*
X91505504Y-55011561D01*
X91498501Y-55012297D01*
X91498500Y-55012297D01*
X91449687Y-55017428D01*
X91330690Y-55029935D01*
X91324024Y-55032204D01*
X91324021Y-55032205D01*
X91170955Y-55084313D01*
X91170952Y-55084314D01*
X91164291Y-55086582D01*
X91041934Y-55161857D01*
X90973436Y-55180515D01*
X90905722Y-55159177D01*
X90886510Y-55143325D01*
X90870428Y-55127131D01*
X90836619Y-55064701D01*
X90841930Y-54993903D01*
X90872938Y-54947102D01*
X90898266Y-54922982D01*
X90998643Y-54771902D01*
X91063055Y-54602338D01*
X91069438Y-54556921D01*
X91087748Y-54426639D01*
X91087748Y-54426636D01*
X91088299Y-54422717D01*
X91088616Y-54400000D01*
X91068397Y-54219745D01*
X91064299Y-54207977D01*
X91011064Y-54055106D01*
X91011062Y-54055103D01*
X91008745Y-54048448D01*
X91005009Y-54042469D01*
X90916359Y-53900598D01*
X90912626Y-53894624D01*
X90870426Y-53852129D01*
X90836619Y-53789699D01*
X90841930Y-53718902D01*
X90872938Y-53672102D01*
X90898266Y-53647982D01*
X90902166Y-53642112D01*
X90906437Y-53637022D01*
X90965548Y-53597697D01*
X91036536Y-53596573D01*
X91046865Y-53599914D01*
X91153168Y-53639448D01*
X91236995Y-53650633D01*
X91325980Y-53662507D01*
X91325984Y-53662507D01*
X91332961Y-53663438D01*
X91339972Y-53662800D01*
X91339976Y-53662800D01*
X91482459Y-53649832D01*
X91513600Y-53646998D01*
X91520302Y-53644820D01*
X91520304Y-53644820D01*
X91679409Y-53593124D01*
X91679412Y-53593123D01*
X91686108Y-53590947D01*
X91841912Y-53498069D01*
X91973266Y-53372982D01*
X92073643Y-53221902D01*
X92138055Y-53052338D01*
X92163299Y-52872717D01*
X92163616Y-52850000D01*
X92143397Y-52669745D01*
X92134797Y-52645049D01*
X92086064Y-52505106D01*
X92086062Y-52505103D01*
X92083745Y-52498448D01*
X92018309Y-52393727D01*
X91991359Y-52350598D01*
X91987626Y-52344624D01*
X91978835Y-52335771D01*
X91864778Y-52220915D01*
X91864774Y-52220912D01*
X91859815Y-52215918D01*
X91848697Y-52208862D01*
X91799204Y-52177453D01*
X91706666Y-52118727D01*
X91661559Y-52102665D01*
X91542425Y-52060243D01*
X91542420Y-52060242D01*
X91535790Y-52057881D01*
X91528802Y-52057048D01*
X91528799Y-52057047D01*
X91405698Y-52042368D01*
X91355680Y-52036404D01*
X91348677Y-52037140D01*
X91348676Y-52037140D01*
X91182288Y-52054628D01*
X91182286Y-52054629D01*
X91175288Y-52055364D01*
X91003579Y-52113818D01*
X90941109Y-52152250D01*
X90855095Y-52205166D01*
X90855092Y-52205168D01*
X90849088Y-52208862D01*
X90844053Y-52213793D01*
X90844050Y-52213795D01*
X90743624Y-52312140D01*
X90719493Y-52335771D01*
X90718411Y-52337449D01*
X90661505Y-52376467D01*
X90590540Y-52378585D01*
X90580156Y-52375385D01*
X90510545Y-52350598D01*
X90467424Y-52335243D01*
X90467422Y-52335243D01*
X90460790Y-52332881D01*
X90453802Y-52332048D01*
X90453799Y-52332047D01*
X90330698Y-52317368D01*
X90280680Y-52311404D01*
X90273677Y-52312140D01*
X90273676Y-52312140D01*
X90107288Y-52329628D01*
X90107286Y-52329629D01*
X90100288Y-52330364D01*
X89928579Y-52388818D01*
X89922575Y-52392512D01*
X89780095Y-52480166D01*
X89780092Y-52480168D01*
X89774088Y-52483862D01*
X89744209Y-52513122D01*
X89725951Y-52531001D01*
X89663286Y-52564371D01*
X89592527Y-52558565D01*
X89548388Y-52529761D01*
X89514778Y-52495915D01*
X89514774Y-52495912D01*
X89509815Y-52490918D01*
X89498697Y-52483862D01*
X89450538Y-52453300D01*
X89356666Y-52393727D01*
X89208297Y-52340895D01*
X89150834Y-52299202D01*
X89125034Y-52233059D01*
X89132777Y-52177453D01*
X89161187Y-52102665D01*
X89161188Y-52102660D01*
X89163687Y-52096082D01*
X89171971Y-52037140D01*
X89187600Y-51925938D01*
X89187600Y-51925932D01*
X89188151Y-51922015D01*
X89188458Y-51900000D01*
X89168864Y-51725318D01*
X89111057Y-51559319D01*
X89017909Y-51410251D01*
X89003857Y-51396100D01*
X88914604Y-51306222D01*
X88894051Y-51285525D01*
X88873745Y-51272638D01*
X88836414Y-51248948D01*
X88745637Y-51191339D01*
X88671652Y-51164994D01*
X88586679Y-51134736D01*
X88586677Y-51134735D01*
X88580045Y-51132374D01*
X88573057Y-51131541D01*
X88573054Y-51131540D01*
X88453644Y-51117301D01*
X88405504Y-51111561D01*
X88398501Y-51112297D01*
X88398500Y-51112297D01*
X88349687Y-51117428D01*
X88230690Y-51129935D01*
X88224024Y-51132204D01*
X88224021Y-51132205D01*
X88070955Y-51184313D01*
X88070952Y-51184314D01*
X88064291Y-51186582D01*
X88058293Y-51190272D01*
X88058291Y-51190273D01*
X87920579Y-51274994D01*
X87920576Y-51274997D01*
X87914577Y-51278687D01*
X87909546Y-51283614D01*
X87909543Y-51283616D01*
X87830510Y-51361010D01*
X87767844Y-51394380D01*
X87727434Y-51396100D01*
X87612498Y-51382395D01*
X87605504Y-51381561D01*
X87605505Y-51381557D01*
X87540208Y-51361890D01*
X87502211Y-51323139D01*
X87487909Y-51300251D01*
X87473286Y-51285525D01*
X87427801Y-51239721D01*
X87364051Y-51175525D01*
X87215637Y-51081339D01*
X87161769Y-51062157D01*
X87056679Y-51024736D01*
X87056677Y-51024735D01*
X87050045Y-51022374D01*
X87043057Y-51021541D01*
X87043054Y-51021540D01*
X86923644Y-51007301D01*
X86875504Y-51001561D01*
X86868501Y-51002297D01*
X86868500Y-51002297D01*
X86819687Y-51007428D01*
X86700690Y-51019935D01*
X86694024Y-51022204D01*
X86694021Y-51022205D01*
X86540955Y-51074313D01*
X86540952Y-51074314D01*
X86534291Y-51076582D01*
X86528293Y-51080272D01*
X86528291Y-51080273D01*
X86390579Y-51164994D01*
X86390576Y-51164997D01*
X86384577Y-51168687D01*
X86258989Y-51291671D01*
X86163769Y-51439424D01*
X86161358Y-51446047D01*
X86161357Y-51446050D01*
X86106060Y-51597977D01*
X86106059Y-51597982D01*
X86103650Y-51604600D01*
X86081619Y-51778991D01*
X86098772Y-51953930D01*
X86154256Y-52120720D01*
X86157903Y-52126742D01*
X86157904Y-52126744D01*
X86211910Y-52215918D01*
X86245313Y-52271074D01*
X86250202Y-52276137D01*
X86250203Y-52276138D01*
X86307280Y-52335243D01*
X86367418Y-52397517D01*
X86514502Y-52493766D01*
X86521106Y-52496222D01*
X86672653Y-52552582D01*
X86672655Y-52552583D01*
X86679255Y-52555037D01*
X86686236Y-52555968D01*
X86686238Y-52555969D01*
X86738822Y-52562985D01*
X86853488Y-52578285D01*
X86860505Y-52577646D01*
X86862491Y-52577688D01*
X86930179Y-52599111D01*
X86967632Y-52638391D01*
X86975313Y-52651074D01*
X86976137Y-52651927D01*
X87001013Y-52715944D01*
X86993869Y-52769738D01*
X86934197Y-52933685D01*
X86911463Y-53113640D01*
X86929163Y-53294160D01*
X86986418Y-53466273D01*
X87048628Y-53568995D01*
X87066806Y-53637621D01*
X87044996Y-53705185D01*
X86990120Y-53750231D01*
X86919602Y-53758458D01*
X86873338Y-53740649D01*
X86850715Y-53726293D01*
X86795637Y-53691339D01*
X86741608Y-53672100D01*
X86636679Y-53634736D01*
X86636677Y-53634735D01*
X86630045Y-53632374D01*
X86623057Y-53631541D01*
X86623054Y-53631540D01*
X86503644Y-53617301D01*
X86455504Y-53611561D01*
X86448501Y-53612297D01*
X86448500Y-53612297D01*
X86399687Y-53617428D01*
X86280690Y-53629935D01*
X86274024Y-53632204D01*
X86274021Y-53632205D01*
X86120955Y-53684313D01*
X86120952Y-53684314D01*
X86114291Y-53686582D01*
X86108293Y-53690272D01*
X86108291Y-53690273D01*
X85970579Y-53774994D01*
X85970576Y-53774997D01*
X85964577Y-53778687D01*
X85838989Y-53901671D01*
X85743769Y-54049424D01*
X85741358Y-54056047D01*
X85741357Y-54056050D01*
X85686060Y-54207977D01*
X85686059Y-54207982D01*
X85683650Y-54214600D01*
X85661619Y-54388991D01*
X83270725Y-54388991D01*
X83259704Y-54381997D01*
X83195637Y-54341339D01*
X83141769Y-54322157D01*
X83036679Y-54284736D01*
X83036677Y-54284735D01*
X83030045Y-54282374D01*
X83023057Y-54281541D01*
X83023054Y-54281540D01*
X82903644Y-54267301D01*
X82855504Y-54261561D01*
X82848501Y-54262297D01*
X82848500Y-54262297D01*
X82799687Y-54267428D01*
X82680690Y-54279935D01*
X82674024Y-54282204D01*
X82674021Y-54282205D01*
X82621836Y-54299970D01*
X82514291Y-54336582D01*
X82508293Y-54340272D01*
X82503556Y-54342501D01*
X82433402Y-54353408D01*
X82397717Y-54342659D01*
X82395637Y-54341339D01*
X82363505Y-54329897D01*
X82236679Y-54284736D01*
X82236677Y-54284735D01*
X82230045Y-54282374D01*
X82223057Y-54281541D01*
X82223054Y-54281540D01*
X82103644Y-54267301D01*
X82055504Y-54261561D01*
X82048501Y-54262297D01*
X82048500Y-54262297D01*
X81999687Y-54267428D01*
X81880690Y-54279935D01*
X81874024Y-54282204D01*
X81874021Y-54282205D01*
X81821836Y-54299970D01*
X81714291Y-54336582D01*
X81708293Y-54340272D01*
X81703556Y-54342501D01*
X81633402Y-54353408D01*
X81597717Y-54342659D01*
X81595637Y-54341339D01*
X81563505Y-54329897D01*
X81436679Y-54284736D01*
X81436677Y-54284735D01*
X81430045Y-54282374D01*
X81423057Y-54281541D01*
X81423054Y-54281540D01*
X81303644Y-54267301D01*
X81255504Y-54261561D01*
X81248501Y-54262297D01*
X81248500Y-54262297D01*
X81199687Y-54267428D01*
X81080690Y-54279935D01*
X81074024Y-54282204D01*
X81074021Y-54282205D01*
X80920955Y-54334313D01*
X80920952Y-54334314D01*
X80914291Y-54336582D01*
X80908293Y-54340272D01*
X80908291Y-54340273D01*
X80770579Y-54424994D01*
X80770576Y-54424997D01*
X80764577Y-54428687D01*
X80738563Y-54454162D01*
X80722657Y-54469738D01*
X80659992Y-54503108D01*
X80589234Y-54497302D01*
X80532847Y-54454162D01*
X80508734Y-54387386D01*
X80508500Y-54379714D01*
X80508500Y-51067852D01*
X80528502Y-50999731D01*
X80582158Y-50953238D01*
X80652432Y-50943134D01*
X80708559Y-50965915D01*
X80743248Y-50991118D01*
X80749276Y-50993802D01*
X80749278Y-50993803D01*
X80911681Y-51066109D01*
X80917712Y-51068794D01*
X80994510Y-51085118D01*
X81098056Y-51107128D01*
X81098061Y-51107128D01*
X81104513Y-51108500D01*
X81295487Y-51108500D01*
X81301939Y-51107128D01*
X81301944Y-51107128D01*
X81405490Y-51085118D01*
X81482288Y-51068794D01*
X81488319Y-51066109D01*
X81650722Y-50993803D01*
X81650724Y-50993802D01*
X81656752Y-50991118D01*
X81691440Y-50965916D01*
X81722796Y-50943134D01*
X81788552Y-50895359D01*
X83439504Y-50895359D01*
X83440194Y-50901924D01*
X83458313Y-51074313D01*
X83459466Y-51085287D01*
X83518481Y-51266915D01*
X83521784Y-51272637D01*
X83521785Y-51272638D01*
X83541175Y-51306222D01*
X83613968Y-51432303D01*
X83618386Y-51437210D01*
X83618387Y-51437211D01*
X83737333Y-51569314D01*
X83741755Y-51574225D01*
X83896256Y-51686477D01*
X83902284Y-51689161D01*
X83902286Y-51689162D01*
X84064689Y-51761468D01*
X84070720Y-51764153D01*
X84164120Y-51784006D01*
X84251064Y-51802487D01*
X84251069Y-51802487D01*
X84257521Y-51803859D01*
X84448495Y-51803859D01*
X84454947Y-51802487D01*
X84454952Y-51802487D01*
X84541895Y-51784006D01*
X84635296Y-51764153D01*
X84641327Y-51761468D01*
X84803730Y-51689162D01*
X84803732Y-51689161D01*
X84809760Y-51686477D01*
X84964261Y-51574225D01*
X84968683Y-51569314D01*
X85087629Y-51437211D01*
X85087630Y-51437210D01*
X85092048Y-51432303D01*
X85164841Y-51306222D01*
X85184231Y-51272638D01*
X85184232Y-51272637D01*
X85187535Y-51266915D01*
X85246550Y-51085287D01*
X85247704Y-51074313D01*
X85265822Y-50901924D01*
X85266512Y-50895359D01*
X85264262Y-50873955D01*
X85247240Y-50711994D01*
X85247240Y-50711992D01*
X85246550Y-50705431D01*
X85187535Y-50523803D01*
X85092048Y-50358415D01*
X85073349Y-50337647D01*
X84968683Y-50221404D01*
X84968682Y-50221403D01*
X84964261Y-50216493D01*
X84809760Y-50104241D01*
X84803732Y-50101557D01*
X84803730Y-50101556D01*
X84641327Y-50029250D01*
X84641326Y-50029250D01*
X84635296Y-50026565D01*
X84541895Y-50006712D01*
X84454952Y-49988231D01*
X84454947Y-49988231D01*
X84448495Y-49986859D01*
X84257521Y-49986859D01*
X84251069Y-49988231D01*
X84251064Y-49988231D01*
X84164120Y-50006712D01*
X84070720Y-50026565D01*
X84064690Y-50029250D01*
X84064689Y-50029250D01*
X83902286Y-50101556D01*
X83902284Y-50101557D01*
X83896256Y-50104241D01*
X83741755Y-50216493D01*
X83737334Y-50221403D01*
X83737333Y-50221404D01*
X83632668Y-50337647D01*
X83613968Y-50358415D01*
X83518481Y-50523803D01*
X83459466Y-50705431D01*
X83458776Y-50711992D01*
X83458776Y-50711994D01*
X83441754Y-50873955D01*
X83439504Y-50895359D01*
X81788552Y-50895359D01*
X81811253Y-50878866D01*
X81939040Y-50736944D01*
X82034527Y-50571556D01*
X82093542Y-50389928D01*
X82113504Y-50200000D01*
X82103847Y-50108122D01*
X82094232Y-50016635D01*
X82094232Y-50016633D01*
X82093542Y-50010072D01*
X82034527Y-49828444D01*
X81939040Y-49663056D01*
X81907503Y-49628030D01*
X81827332Y-49538991D01*
X85081619Y-49538991D01*
X85098772Y-49713930D01*
X85154256Y-49880720D01*
X85157903Y-49886742D01*
X85157904Y-49886744D01*
X85232594Y-50010072D01*
X85245313Y-50031074D01*
X85367418Y-50157517D01*
X85514502Y-50253766D01*
X85521106Y-50256222D01*
X85672653Y-50312582D01*
X85672655Y-50312583D01*
X85679255Y-50315037D01*
X85686236Y-50315968D01*
X85686238Y-50315969D01*
X85846507Y-50337354D01*
X85846511Y-50337354D01*
X85853488Y-50338285D01*
X85860499Y-50337647D01*
X85860503Y-50337647D01*
X86021520Y-50322993D01*
X86028541Y-50322354D01*
X86035243Y-50320176D01*
X86035245Y-50320176D01*
X86189016Y-50270213D01*
X86189019Y-50270212D01*
X86195715Y-50268036D01*
X86346701Y-50178030D01*
X86351795Y-50173179D01*
X86351799Y-50173176D01*
X86427007Y-50101556D01*
X86473994Y-50056811D01*
X86571267Y-49910403D01*
X86618009Y-49787354D01*
X86631187Y-49752664D01*
X86631188Y-49752662D01*
X86633687Y-49746082D01*
X86637629Y-49718036D01*
X86657600Y-49575938D01*
X86657600Y-49575932D01*
X86658151Y-49572015D01*
X86658458Y-49550000D01*
X86638864Y-49375318D01*
X86581057Y-49209319D01*
X86487909Y-49060251D01*
X86417145Y-48988991D01*
X87011619Y-48988991D01*
X87028772Y-49163930D01*
X87030996Y-49170615D01*
X87030996Y-49170616D01*
X87046706Y-49217842D01*
X87084256Y-49330720D01*
X87087903Y-49336742D01*
X87087904Y-49336744D01*
X87133943Y-49412763D01*
X87175313Y-49481074D01*
X87180202Y-49486137D01*
X87180203Y-49486138D01*
X87218741Y-49526045D01*
X87297418Y-49607517D01*
X87444502Y-49703766D01*
X87451106Y-49706222D01*
X87602653Y-49762582D01*
X87602655Y-49762583D01*
X87609255Y-49765037D01*
X87616236Y-49765968D01*
X87616238Y-49765969D01*
X87776507Y-49787354D01*
X87776511Y-49787354D01*
X87783488Y-49788285D01*
X87790499Y-49787647D01*
X87790503Y-49787647D01*
X87951520Y-49772993D01*
X87958541Y-49772354D01*
X87965243Y-49770176D01*
X87965245Y-49770176D01*
X88119016Y-49720213D01*
X88119019Y-49720212D01*
X88125715Y-49718036D01*
X88276701Y-49628030D01*
X88281795Y-49623179D01*
X88281799Y-49623176D01*
X88362837Y-49546004D01*
X88403994Y-49506811D01*
X88501267Y-49360403D01*
X88558970Y-49208500D01*
X88561187Y-49202664D01*
X88561188Y-49202662D01*
X88563687Y-49196082D01*
X88569191Y-49156921D01*
X88587600Y-49025938D01*
X88587600Y-49025932D01*
X88588151Y-49022015D01*
X88588458Y-49000000D01*
X88568864Y-48825318D01*
X88553851Y-48782205D01*
X88513375Y-48665976D01*
X88511057Y-48659319D01*
X88417909Y-48510251D01*
X88397728Y-48489928D01*
X88337090Y-48428866D01*
X88314987Y-48406607D01*
X88281180Y-48344177D01*
X88286492Y-48273380D01*
X88329237Y-48216693D01*
X88339875Y-48209595D01*
X88470655Y-48131634D01*
X88476701Y-48128030D01*
X88481795Y-48123179D01*
X88481799Y-48123176D01*
X88551591Y-48056714D01*
X88603994Y-48006811D01*
X88701267Y-47860403D01*
X88763687Y-47696082D01*
X88773998Y-47622717D01*
X88787600Y-47525938D01*
X88787600Y-47525932D01*
X88788151Y-47522015D01*
X88788458Y-47500000D01*
X88768864Y-47325318D01*
X88711057Y-47159319D01*
X88617909Y-47010251D01*
X88566898Y-46958882D01*
X88499013Y-46890522D01*
X88494051Y-46885525D01*
X88487246Y-46881206D01*
X88371312Y-46807633D01*
X88345637Y-46791339D01*
X88291769Y-46772157D01*
X88186679Y-46734736D01*
X88186677Y-46734735D01*
X88180045Y-46732374D01*
X88173057Y-46731541D01*
X88173054Y-46731540D01*
X88053644Y-46717301D01*
X88005504Y-46711561D01*
X87998501Y-46712297D01*
X87998500Y-46712297D01*
X87973650Y-46714909D01*
X87830690Y-46729935D01*
X87824024Y-46732204D01*
X87824021Y-46732205D01*
X87670955Y-46784313D01*
X87670952Y-46784314D01*
X87664291Y-46786582D01*
X87658293Y-46790272D01*
X87658291Y-46790273D01*
X87520579Y-46874994D01*
X87520576Y-46874997D01*
X87514577Y-46878687D01*
X87388989Y-47001671D01*
X87293769Y-47149424D01*
X87291358Y-47156047D01*
X87291357Y-47156050D01*
X87236060Y-47307977D01*
X87236059Y-47307982D01*
X87233650Y-47314600D01*
X87211619Y-47488991D01*
X87228772Y-47663930D01*
X87284256Y-47830720D01*
X87287903Y-47836742D01*
X87287904Y-47836744D01*
X87351209Y-47941273D01*
X87375313Y-47981074D01*
X87455751Y-48064370D01*
X87484687Y-48094334D01*
X87517619Y-48157231D01*
X87511319Y-48227947D01*
X87467787Y-48284032D01*
X87460100Y-48289160D01*
X87314577Y-48378687D01*
X87188989Y-48501671D01*
X87093769Y-48649424D01*
X87091358Y-48656047D01*
X87091357Y-48656050D01*
X87036060Y-48807977D01*
X87036059Y-48807982D01*
X87033650Y-48814600D01*
X87011619Y-48988991D01*
X86417145Y-48988991D01*
X86364051Y-48935525D01*
X86215637Y-48841339D01*
X86121946Y-48807977D01*
X86056679Y-48784736D01*
X86056677Y-48784735D01*
X86050045Y-48782374D01*
X86043057Y-48781541D01*
X86043054Y-48781540D01*
X85923644Y-48767301D01*
X85875504Y-48761561D01*
X85868501Y-48762297D01*
X85868500Y-48762297D01*
X85819687Y-48767428D01*
X85700690Y-48779935D01*
X85694024Y-48782204D01*
X85694021Y-48782205D01*
X85540955Y-48834313D01*
X85540952Y-48834314D01*
X85534291Y-48836582D01*
X85528293Y-48840272D01*
X85528291Y-48840273D01*
X85390579Y-48924994D01*
X85390576Y-48924997D01*
X85384577Y-48928687D01*
X85258989Y-49051671D01*
X85163769Y-49199424D01*
X85161358Y-49206047D01*
X85161357Y-49206050D01*
X85106060Y-49357977D01*
X85106059Y-49357982D01*
X85103650Y-49364600D01*
X85081619Y-49538991D01*
X81827332Y-49538991D01*
X81815675Y-49526045D01*
X81815674Y-49526044D01*
X81811253Y-49521134D01*
X81656752Y-49408882D01*
X81650724Y-49406198D01*
X81650722Y-49406197D01*
X81488319Y-49333891D01*
X81488318Y-49333891D01*
X81482288Y-49331206D01*
X81388888Y-49311353D01*
X81301944Y-49292872D01*
X81301939Y-49292872D01*
X81295487Y-49291500D01*
X81268738Y-49291500D01*
X81200617Y-49271498D01*
X81154124Y-49217842D01*
X81144020Y-49147568D01*
X81173514Y-49082988D01*
X81194677Y-49063564D01*
X81251864Y-49022015D01*
X81311253Y-48978866D01*
X81345778Y-48940522D01*
X81434621Y-48841852D01*
X81434622Y-48841851D01*
X81439040Y-48836944D01*
X81534527Y-48671556D01*
X81593542Y-48489928D01*
X81601649Y-48412800D01*
X81612814Y-48306565D01*
X81613504Y-48300000D01*
X81595808Y-48131634D01*
X81594232Y-48116635D01*
X81594232Y-48116633D01*
X81593542Y-48110072D01*
X81534527Y-47928444D01*
X81439040Y-47763056D01*
X81433196Y-47756565D01*
X81315675Y-47626045D01*
X81315674Y-47626044D01*
X81311253Y-47621134D01*
X81266529Y-47588640D01*
X84286463Y-47588640D01*
X84304163Y-47769160D01*
X84361418Y-47941273D01*
X84365065Y-47947295D01*
X84365066Y-47947297D01*
X84404052Y-48011670D01*
X84455380Y-48096424D01*
X84460269Y-48101487D01*
X84460270Y-48101488D01*
X84485719Y-48127841D01*
X84581382Y-48226902D01*
X84587278Y-48230760D01*
X84693088Y-48300000D01*
X84733159Y-48326222D01*
X84739763Y-48328678D01*
X84739765Y-48328679D01*
X84896558Y-48386990D01*
X84896560Y-48386990D01*
X84903168Y-48389448D01*
X84986995Y-48400633D01*
X85075980Y-48412507D01*
X85075984Y-48412507D01*
X85082961Y-48413438D01*
X85089972Y-48412800D01*
X85089976Y-48412800D01*
X85232459Y-48399832D01*
X85263600Y-48396998D01*
X85270302Y-48394820D01*
X85270304Y-48394820D01*
X85429409Y-48343124D01*
X85429412Y-48343123D01*
X85436108Y-48340947D01*
X85543122Y-48277154D01*
X85585860Y-48251677D01*
X85585862Y-48251676D01*
X85591912Y-48248069D01*
X85723266Y-48122982D01*
X85823643Y-47971902D01*
X85888055Y-47802338D01*
X85889035Y-47795366D01*
X85912748Y-47626639D01*
X85912748Y-47626636D01*
X85913299Y-47622717D01*
X85913616Y-47600000D01*
X85893397Y-47419745D01*
X85890668Y-47411908D01*
X85836064Y-47255106D01*
X85836062Y-47255103D01*
X85833745Y-47248448D01*
X85737626Y-47094624D01*
X85723941Y-47080843D01*
X85614778Y-46970915D01*
X85614774Y-46970912D01*
X85609815Y-46965918D01*
X85598697Y-46958862D01*
X85538585Y-46920714D01*
X85456666Y-46868727D01*
X85404010Y-46849977D01*
X85292425Y-46810243D01*
X85292420Y-46810242D01*
X85285790Y-46807881D01*
X85278802Y-46807048D01*
X85278799Y-46807047D01*
X85127232Y-46788974D01*
X85105680Y-46786404D01*
X85098677Y-46787140D01*
X85098676Y-46787140D01*
X84932288Y-46804628D01*
X84932286Y-46804629D01*
X84925288Y-46805364D01*
X84753579Y-46863818D01*
X84694731Y-46900022D01*
X84605095Y-46955166D01*
X84605092Y-46955168D01*
X84599088Y-46958862D01*
X84594053Y-46963793D01*
X84594050Y-46963795D01*
X84479425Y-47076045D01*
X84469493Y-47085771D01*
X84371235Y-47238238D01*
X84368826Y-47244858D01*
X84368824Y-47244861D01*
X84361312Y-47265500D01*
X84309197Y-47408685D01*
X84286463Y-47588640D01*
X81266529Y-47588640D01*
X81212157Y-47549136D01*
X81162094Y-47512763D01*
X81162093Y-47512762D01*
X81156752Y-47508882D01*
X81150724Y-47506198D01*
X81150722Y-47506197D01*
X80988319Y-47433891D01*
X80988318Y-47433891D01*
X80982288Y-47431206D01*
X80876336Y-47408685D01*
X80801944Y-47392872D01*
X80801939Y-47392872D01*
X80795487Y-47391500D01*
X80634500Y-47391500D01*
X80566379Y-47371498D01*
X80519886Y-47317842D01*
X80508500Y-47265500D01*
X80508500Y-45342609D01*
X80528502Y-45274488D01*
X80582158Y-45227995D01*
X80652432Y-45217891D01*
X80690641Y-45230707D01*
X80690838Y-45230269D01*
X80695259Y-45232256D01*
X80695394Y-45232301D01*
X80700078Y-45234887D01*
X80811908Y-45274488D01*
X80921280Y-45313219D01*
X80921284Y-45313220D01*
X80926155Y-45314945D01*
X80931248Y-45315852D01*
X80931251Y-45315853D01*
X81157184Y-45356098D01*
X81157190Y-45356099D01*
X81162273Y-45357004D01*
X81174001Y-45357147D01*
X81180599Y-45357228D01*
X81248470Y-45378062D01*
X81294304Y-45432282D01*
X81304369Y-45470050D01*
X81306458Y-45489928D01*
X81365473Y-45671556D01*
X81460960Y-45836944D01*
X81588747Y-45978866D01*
X81743248Y-46091118D01*
X81749276Y-46093802D01*
X81749278Y-46093803D01*
X81911681Y-46166109D01*
X81917712Y-46168794D01*
X81986263Y-46183365D01*
X82098056Y-46207128D01*
X82098061Y-46207128D01*
X82104513Y-46208500D01*
X82295487Y-46208500D01*
X82301939Y-46207128D01*
X82301944Y-46207128D01*
X82413737Y-46183365D01*
X82482288Y-46168794D01*
X82488319Y-46166109D01*
X82650722Y-46093803D01*
X82650724Y-46093802D01*
X82656752Y-46091118D01*
X82811253Y-45978866D01*
X82939040Y-45836944D01*
X83034527Y-45671556D01*
X83093542Y-45489928D01*
X83095766Y-45468774D01*
X83112814Y-45306565D01*
X83113504Y-45300000D01*
X83096520Y-45138403D01*
X83094232Y-45116635D01*
X83094232Y-45116633D01*
X83093542Y-45110072D01*
X83034527Y-44928444D01*
X82939040Y-44763056D01*
X82811253Y-44621134D01*
X82716633Y-44552388D01*
X82673279Y-44496165D01*
X82667204Y-44425429D01*
X82671978Y-44408588D01*
X82673484Y-44405344D01*
X82737576Y-44174232D01*
X82748660Y-44070521D01*
X82758144Y-43981778D01*
X82758144Y-43981770D01*
X82758500Y-43978443D01*
X82758500Y-43092575D01*
X83636404Y-43092575D01*
X83655218Y-43299303D01*
X83656956Y-43305209D01*
X83656957Y-43305213D01*
X83700473Y-43453068D01*
X83713827Y-43498440D01*
X83809999Y-43682400D01*
X83940071Y-43844177D01*
X83944788Y-43848135D01*
X83944790Y-43848137D01*
X84048681Y-43935312D01*
X84099089Y-43977609D01*
X84104481Y-43980573D01*
X84104485Y-43980576D01*
X84275598Y-44074646D01*
X84280995Y-44077613D01*
X84478861Y-44140379D01*
X84484978Y-44141065D01*
X84484982Y-44141066D01*
X84561598Y-44149659D01*
X84640413Y-44158500D01*
X84752237Y-44158500D01*
X84755293Y-44158200D01*
X84755300Y-44158200D01*
X84900466Y-44143966D01*
X84900469Y-44143965D01*
X84906592Y-44143365D01*
X85038546Y-44103526D01*
X85099407Y-44085152D01*
X85099410Y-44085151D01*
X85105315Y-44083368D01*
X85112635Y-44079476D01*
X85283153Y-43988809D01*
X85283155Y-43988808D01*
X85288599Y-43985913D01*
X85348471Y-43937083D01*
X85444689Y-43858610D01*
X85444692Y-43858607D01*
X85449464Y-43854715D01*
X85581783Y-43694770D01*
X85585876Y-43687201D01*
X85677584Y-43517590D01*
X85677586Y-43517585D01*
X85680514Y-43512170D01*
X85741898Y-43313871D01*
X85743429Y-43299303D01*
X85762952Y-43113554D01*
X85762952Y-43113552D01*
X85763596Y-43107425D01*
X85762245Y-43092575D01*
X88236404Y-43092575D01*
X88255218Y-43299303D01*
X88256956Y-43305209D01*
X88256957Y-43305213D01*
X88300473Y-43453068D01*
X88313827Y-43498440D01*
X88409999Y-43682400D01*
X88540071Y-43844177D01*
X88544788Y-43848135D01*
X88544790Y-43848137D01*
X88648681Y-43935312D01*
X88699089Y-43977609D01*
X88704481Y-43980573D01*
X88704485Y-43980576D01*
X88875598Y-44074646D01*
X88880995Y-44077613D01*
X89078861Y-44140379D01*
X89084978Y-44141065D01*
X89084982Y-44141066D01*
X89161598Y-44149659D01*
X89240413Y-44158500D01*
X89352237Y-44158500D01*
X89355293Y-44158200D01*
X89355300Y-44158200D01*
X89500466Y-44143966D01*
X89500469Y-44143965D01*
X89506592Y-44143365D01*
X89638546Y-44103526D01*
X89699407Y-44085152D01*
X89699410Y-44085151D01*
X89705315Y-44083368D01*
X89712635Y-44079476D01*
X89883153Y-43988809D01*
X89883155Y-43988808D01*
X89888599Y-43985913D01*
X89948471Y-43937083D01*
X90044689Y-43858610D01*
X90044692Y-43858607D01*
X90049464Y-43854715D01*
X90181783Y-43694770D01*
X90185876Y-43687201D01*
X90277584Y-43517590D01*
X90277586Y-43517585D01*
X90280514Y-43512170D01*
X90341898Y-43313871D01*
X90343429Y-43299303D01*
X90362952Y-43113554D01*
X90362952Y-43113552D01*
X90363596Y-43107425D01*
X90344782Y-42900697D01*
X90342298Y-42892255D01*
X90287912Y-42707469D01*
X90286173Y-42701560D01*
X90190001Y-42517600D01*
X90059929Y-42355823D01*
X90047371Y-42345285D01*
X89905629Y-42226350D01*
X89900911Y-42222391D01*
X89895519Y-42219427D01*
X89895515Y-42219424D01*
X89724402Y-42125354D01*
X89719005Y-42122387D01*
X89521139Y-42059621D01*
X89515022Y-42058935D01*
X89515018Y-42058934D01*
X89438402Y-42050341D01*
X89359587Y-42041500D01*
X89247763Y-42041500D01*
X89244707Y-42041800D01*
X89244700Y-42041800D01*
X89099534Y-42056034D01*
X89099531Y-42056035D01*
X89093408Y-42056635D01*
X88961454Y-42096474D01*
X88900593Y-42114848D01*
X88900590Y-42114849D01*
X88894685Y-42116632D01*
X88889240Y-42119527D01*
X88889238Y-42119528D01*
X88716847Y-42211191D01*
X88716845Y-42211192D01*
X88711401Y-42214087D01*
X88680613Y-42239197D01*
X88555311Y-42341390D01*
X88555308Y-42341393D01*
X88550536Y-42345285D01*
X88418217Y-42505230D01*
X88415288Y-42510647D01*
X88415286Y-42510650D01*
X88322416Y-42682410D01*
X88322414Y-42682415D01*
X88319486Y-42687830D01*
X88258102Y-42886129D01*
X88257458Y-42892254D01*
X88257458Y-42892255D01*
X88255926Y-42906836D01*
X88236404Y-43092575D01*
X85762245Y-43092575D01*
X85744782Y-42900697D01*
X85742298Y-42892255D01*
X85687912Y-42707469D01*
X85686173Y-42701560D01*
X85590001Y-42517600D01*
X85459929Y-42355823D01*
X85447371Y-42345285D01*
X85305629Y-42226350D01*
X85300911Y-42222391D01*
X85295519Y-42219427D01*
X85295515Y-42219424D01*
X85124402Y-42125354D01*
X85119005Y-42122387D01*
X84921139Y-42059621D01*
X84915022Y-42058935D01*
X84915018Y-42058934D01*
X84838402Y-42050341D01*
X84759587Y-42041500D01*
X84647763Y-42041500D01*
X84644707Y-42041800D01*
X84644700Y-42041800D01*
X84499534Y-42056034D01*
X84499531Y-42056035D01*
X84493408Y-42056635D01*
X84361454Y-42096474D01*
X84300593Y-42114848D01*
X84300590Y-42114849D01*
X84294685Y-42116632D01*
X84289240Y-42119527D01*
X84289238Y-42119528D01*
X84116847Y-42211191D01*
X84116845Y-42211192D01*
X84111401Y-42214087D01*
X84080613Y-42239197D01*
X83955311Y-42341390D01*
X83955308Y-42341393D01*
X83950536Y-42345285D01*
X83818217Y-42505230D01*
X83815288Y-42510647D01*
X83815286Y-42510650D01*
X83722416Y-42682410D01*
X83722414Y-42682415D01*
X83719486Y-42687830D01*
X83658102Y-42886129D01*
X83657458Y-42892254D01*
X83657458Y-42892255D01*
X83655926Y-42906836D01*
X83636404Y-43092575D01*
X82758500Y-43092575D01*
X82758500Y-42239197D01*
X82757326Y-42224914D01*
X82744271Y-42066124D01*
X82744270Y-42066118D01*
X82743847Y-42060973D01*
X82685420Y-41828364D01*
X82683364Y-41823634D01*
X82683361Y-41823627D01*
X82591847Y-41613159D01*
X82591845Y-41613156D01*
X82589787Y-41608422D01*
X82572574Y-41581814D01*
X82462325Y-41411396D01*
X82462323Y-41411393D01*
X82459515Y-41407053D01*
X82430580Y-41375253D01*
X82301582Y-41233487D01*
X82301580Y-41233486D01*
X82298104Y-41229665D01*
X82294053Y-41226466D01*
X82294049Y-41226462D01*
X82113946Y-41084226D01*
X82109888Y-41081021D01*
X81899922Y-40965113D01*
X81720835Y-40901695D01*
X81678720Y-40886781D01*
X81678716Y-40886780D01*
X81673845Y-40885055D01*
X81668752Y-40884148D01*
X81668749Y-40884147D01*
X81442816Y-40843902D01*
X81442810Y-40843901D01*
X81437727Y-40842996D01*
X81350460Y-40841930D01*
X81203081Y-40840129D01*
X81203079Y-40840129D01*
X81197911Y-40840066D01*
X80960837Y-40876343D01*
X80732871Y-40950854D01*
X80728283Y-40953242D01*
X80728279Y-40953244D01*
X80692680Y-40971776D01*
X80623020Y-40985489D01*
X80557005Y-40959364D01*
X80515594Y-40901695D01*
X80508500Y-40860013D01*
X80508500Y-40634500D01*
X80528502Y-40566379D01*
X80582158Y-40519886D01*
X80634500Y-40508500D01*
X93365500Y-40508500D01*
X93433621Y-40528502D01*
G37*
G04 #@! TD.AperFunction*
M02*
