G04 #@! TF.GenerationSoftware,KiCad,Pcbnew,(6.0.4-0)*
G04 #@! TF.CreationDate,2022-05-04T20:04:52-04:00*
G04 #@! TF.ProjectId,pico_ducky_pcb,7069636f-5f64-4756-936b-795f7063622e,rev?*
G04 #@! TF.SameCoordinates,Original*
G04 #@! TF.FileFunction,Legend,Top*
G04 #@! TF.FilePolarity,Positive*
%FSLAX46Y46*%
G04 Gerber Fmt 4.6, Leading zero omitted, Abs format (unit mm)*
G04 Created by KiCad (PCBNEW (6.0.4-0)) date 2022-05-04 20:04:52*
%MOMM*%
%LPD*%
G01*
G04 APERTURE LIST*
G04 Aperture macros list*
%AMRoundRect*
0 Rectangle with rounded corners*
0 $1 Rounding radius*
0 $2 $3 $4 $5 $6 $7 $8 $9 X,Y pos of 4 corners*
0 Add a 4 corners polygon primitive as box body*
4,1,4,$2,$3,$4,$5,$6,$7,$8,$9,$2,$3,0*
0 Add four circle primitives for the rounded corners*
1,1,$1+$1,$2,$3*
1,1,$1+$1,$4,$5*
1,1,$1+$1,$6,$7*
1,1,$1+$1,$8,$9*
0 Add four rect primitives between the rounded corners*
20,1,$1+$1,$2,$3,$4,$5,0*
20,1,$1+$1,$4,$5,$6,$7,0*
20,1,$1+$1,$6,$7,$8,$9,0*
20,1,$1+$1,$8,$9,$2,$3,0*%
G04 Aperture macros list end*
%ADD10C,0.200000*%
%ADD11C,0.100000*%
%ADD12C,0.075000*%
%ADD13C,0.120000*%
%ADD14RoundRect,0.135000X0.135000X0.185000X-0.135000X0.185000X-0.135000X-0.185000X0.135000X-0.185000X0*%
%ADD15RoundRect,0.140000X0.170000X-0.140000X0.170000X0.140000X-0.170000X0.140000X-0.170000X-0.140000X0*%
%ADD16R,0.500000X0.500000*%
%ADD17R,1.150000X1.000000*%
%ADD18RoundRect,0.100000X-0.100000X0.130000X-0.100000X-0.130000X0.100000X-0.130000X0.100000X0.130000X0*%
%ADD19RoundRect,0.140000X-0.170000X0.140000X-0.170000X-0.140000X0.170000X-0.140000X0.170000X0.140000X0*%
%ADD20RoundRect,0.100000X0.100000X-0.130000X0.100000X0.130000X-0.100000X0.130000X-0.100000X-0.130000X0*%
%ADD21RoundRect,0.050000X-0.387500X-0.050000X0.387500X-0.050000X0.387500X0.050000X-0.387500X0.050000X0*%
%ADD22RoundRect,0.050000X-0.050000X-0.387500X0.050000X-0.387500X0.050000X0.387500X-0.050000X0.387500X0*%
%ADD23RoundRect,0.144000X-1.456000X-1.456000X1.456000X-1.456000X1.456000X1.456000X-1.456000X1.456000X0*%
%ADD24RoundRect,0.135000X0.185000X-0.135000X0.185000X0.135000X-0.185000X0.135000X-0.185000X-0.135000X0*%
%ADD25R,0.350000X1.100000*%
%ADD26R,2.600000X0.300000*%
%ADD27C,1.100000*%
%ADD28R,1.100000X2.500000*%
%ADD29O,1.900000X3.500000*%
%ADD30C,0.711200*%
%ADD31R,1.000000X1.000000*%
%ADD32O,1.000000X1.000000*%
G04 APERTURE END LIST*
D10*
X81892380Y-65147619D02*
X81416190Y-65480952D01*
X81892380Y-65719047D02*
X80892380Y-65719047D01*
X80892380Y-65338095D01*
X80940000Y-65242857D01*
X80987619Y-65195238D01*
X81082857Y-65147619D01*
X81225714Y-65147619D01*
X81320952Y-65195238D01*
X81368571Y-65242857D01*
X81416190Y-65338095D01*
X81416190Y-65719047D01*
X81844761Y-64766666D02*
X81892380Y-64623809D01*
X81892380Y-64385714D01*
X81844761Y-64290476D01*
X81797142Y-64242857D01*
X81701904Y-64195238D01*
X81606666Y-64195238D01*
X81511428Y-64242857D01*
X81463809Y-64290476D01*
X81416190Y-64385714D01*
X81368571Y-64576190D01*
X81320952Y-64671428D01*
X81273333Y-64719047D01*
X81178095Y-64766666D01*
X81082857Y-64766666D01*
X80987619Y-64719047D01*
X80940000Y-64671428D01*
X80892380Y-64576190D01*
X80892380Y-64338095D01*
X80940000Y-64195238D01*
X80892380Y-63909523D02*
X80892380Y-63338095D01*
X81892380Y-63623809D02*
X80892380Y-63623809D01*
X80682380Y-59151904D02*
X81491904Y-59151904D01*
X81587142Y-59104285D01*
X81634761Y-59056666D01*
X81682380Y-58961428D01*
X81682380Y-58770952D01*
X81634761Y-58675714D01*
X81587142Y-58628095D01*
X81491904Y-58580476D01*
X80682380Y-58580476D01*
X81634761Y-58151904D02*
X81682380Y-58009047D01*
X81682380Y-57770952D01*
X81634761Y-57675714D01*
X81587142Y-57628095D01*
X81491904Y-57580476D01*
X81396666Y-57580476D01*
X81301428Y-57628095D01*
X81253809Y-57675714D01*
X81206190Y-57770952D01*
X81158571Y-57961428D01*
X81110952Y-58056666D01*
X81063333Y-58104285D01*
X80968095Y-58151904D01*
X80872857Y-58151904D01*
X80777619Y-58104285D01*
X80730000Y-58056666D01*
X80682380Y-57961428D01*
X80682380Y-57723333D01*
X80730000Y-57580476D01*
X81158571Y-56818571D02*
X81206190Y-56675714D01*
X81253809Y-56628095D01*
X81349047Y-56580476D01*
X81491904Y-56580476D01*
X81587142Y-56628095D01*
X81634761Y-56675714D01*
X81682380Y-56770952D01*
X81682380Y-57151904D01*
X80682380Y-57151904D01*
X80682380Y-56818571D01*
X80730000Y-56723333D01*
X80777619Y-56675714D01*
X80872857Y-56628095D01*
X80968095Y-56628095D01*
X81063333Y-56675714D01*
X81110952Y-56723333D01*
X81158571Y-56818571D01*
X81158571Y-57151904D01*
D11*
X89196666Y-46826190D02*
X89030000Y-46588095D01*
X88910952Y-46826190D02*
X88910952Y-46326190D01*
X89101428Y-46326190D01*
X89149047Y-46350000D01*
X89172857Y-46373809D01*
X89196666Y-46421428D01*
X89196666Y-46492857D01*
X89172857Y-46540476D01*
X89149047Y-46564285D01*
X89101428Y-46588095D01*
X88910952Y-46588095D01*
X89363333Y-46326190D02*
X89696666Y-46326190D01*
X89482380Y-46826190D01*
X89618571Y-62748571D02*
X89594761Y-62772380D01*
X89523333Y-62796190D01*
X89475714Y-62796190D01*
X89404285Y-62772380D01*
X89356666Y-62724761D01*
X89332857Y-62677142D01*
X89309047Y-62581904D01*
X89309047Y-62510476D01*
X89332857Y-62415238D01*
X89356666Y-62367619D01*
X89404285Y-62320000D01*
X89475714Y-62296190D01*
X89523333Y-62296190D01*
X89594761Y-62320000D01*
X89618571Y-62343809D01*
X90094761Y-62796190D02*
X89809047Y-62796190D01*
X89951904Y-62796190D02*
X89951904Y-62296190D01*
X89904285Y-62367619D01*
X89856666Y-62415238D01*
X89809047Y-62439047D01*
X90523333Y-62296190D02*
X90428095Y-62296190D01*
X90380476Y-62320000D01*
X90356666Y-62343809D01*
X90309047Y-62415238D01*
X90285238Y-62510476D01*
X90285238Y-62700952D01*
X90309047Y-62748571D01*
X90332857Y-62772380D01*
X90380476Y-62796190D01*
X90475714Y-62796190D01*
X90523333Y-62772380D01*
X90547142Y-62748571D01*
X90570952Y-62700952D01*
X90570952Y-62581904D01*
X90547142Y-62534285D01*
X90523333Y-62510476D01*
X90475714Y-62486666D01*
X90380476Y-62486666D01*
X90332857Y-62510476D01*
X90309047Y-62534285D01*
X90285238Y-62581904D01*
X83580952Y-61926190D02*
X83580952Y-61426190D01*
X83700000Y-61426190D01*
X83771428Y-61450000D01*
X83819047Y-61497619D01*
X83842857Y-61545238D01*
X83866666Y-61640476D01*
X83866666Y-61711904D01*
X83842857Y-61807142D01*
X83819047Y-61854761D01*
X83771428Y-61902380D01*
X83700000Y-61926190D01*
X83580952Y-61926190D01*
X84342857Y-61926190D02*
X84057142Y-61926190D01*
X84200000Y-61926190D02*
X84200000Y-61426190D01*
X84152380Y-61497619D01*
X84104761Y-61545238D01*
X84057142Y-61569047D01*
D12*
X82035714Y-62064285D02*
X82035714Y-62235714D01*
X82035714Y-62150000D02*
X81735714Y-62150000D01*
X81778571Y-62178571D01*
X81807142Y-62207142D01*
X81821428Y-62235714D01*
D11*
X88296666Y-61526190D02*
X88130000Y-61288095D01*
X88010952Y-61526190D02*
X88010952Y-61026190D01*
X88201428Y-61026190D01*
X88249047Y-61050000D01*
X88272857Y-61073809D01*
X88296666Y-61121428D01*
X88296666Y-61192857D01*
X88272857Y-61240476D01*
X88249047Y-61264285D01*
X88201428Y-61288095D01*
X88010952Y-61288095D01*
X88463333Y-61026190D02*
X88772857Y-61026190D01*
X88606190Y-61216666D01*
X88677619Y-61216666D01*
X88725238Y-61240476D01*
X88749047Y-61264285D01*
X88772857Y-61311904D01*
X88772857Y-61430952D01*
X88749047Y-61478571D01*
X88725238Y-61502380D01*
X88677619Y-61526190D01*
X88534761Y-61526190D01*
X88487142Y-61502380D01*
X88463333Y-61478571D01*
X88661904Y-66288095D02*
X88661904Y-66526190D01*
X88495238Y-66026190D02*
X88661904Y-66288095D01*
X88828571Y-66026190D01*
X89257142Y-66526190D02*
X88971428Y-66526190D01*
X89114285Y-66526190D02*
X89114285Y-66026190D01*
X89066666Y-66097619D01*
X89019047Y-66145238D01*
X88971428Y-66169047D01*
X92616666Y-47078571D02*
X92592857Y-47102380D01*
X92521428Y-47126190D01*
X92473809Y-47126190D01*
X92402380Y-47102380D01*
X92354761Y-47054761D01*
X92330952Y-47007142D01*
X92307142Y-46911904D01*
X92307142Y-46840476D01*
X92330952Y-46745238D01*
X92354761Y-46697619D01*
X92402380Y-46650000D01*
X92473809Y-46626190D01*
X92521428Y-46626190D01*
X92592857Y-46650000D01*
X92616666Y-46673809D01*
X92783333Y-46626190D02*
X93116666Y-46626190D01*
X92902380Y-47126190D01*
X84178571Y-48678571D02*
X84154761Y-48702380D01*
X84083333Y-48726190D01*
X84035714Y-48726190D01*
X83964285Y-48702380D01*
X83916666Y-48654761D01*
X83892857Y-48607142D01*
X83869047Y-48511904D01*
X83869047Y-48440476D01*
X83892857Y-48345238D01*
X83916666Y-48297619D01*
X83964285Y-48250000D01*
X84035714Y-48226190D01*
X84083333Y-48226190D01*
X84154761Y-48250000D01*
X84178571Y-48273809D01*
X84654761Y-48726190D02*
X84369047Y-48726190D01*
X84511904Y-48726190D02*
X84511904Y-48226190D01*
X84464285Y-48297619D01*
X84416666Y-48345238D01*
X84369047Y-48369047D01*
X85107142Y-48226190D02*
X84869047Y-48226190D01*
X84845238Y-48464285D01*
X84869047Y-48440476D01*
X84916666Y-48416666D01*
X85035714Y-48416666D01*
X85083333Y-48440476D01*
X85107142Y-48464285D01*
X85130952Y-48511904D01*
X85130952Y-48630952D01*
X85107142Y-48678571D01*
X85083333Y-48702380D01*
X85035714Y-48726190D01*
X84916666Y-48726190D01*
X84869047Y-48702380D01*
X84845238Y-48678571D01*
X81016666Y-47778571D02*
X80992857Y-47802380D01*
X80921428Y-47826190D01*
X80873809Y-47826190D01*
X80802380Y-47802380D01*
X80754761Y-47754761D01*
X80730952Y-47707142D01*
X80707142Y-47611904D01*
X80707142Y-47540476D01*
X80730952Y-47445238D01*
X80754761Y-47397619D01*
X80802380Y-47350000D01*
X80873809Y-47326190D01*
X80921428Y-47326190D01*
X80992857Y-47350000D01*
X81016666Y-47373809D01*
X81492857Y-47826190D02*
X81207142Y-47826190D01*
X81350000Y-47826190D02*
X81350000Y-47326190D01*
X81302380Y-47397619D01*
X81254761Y-47445238D01*
X81207142Y-47469047D01*
X92396666Y-60438571D02*
X92372857Y-60462380D01*
X92301428Y-60486190D01*
X92253809Y-60486190D01*
X92182380Y-60462380D01*
X92134761Y-60414761D01*
X92110952Y-60367142D01*
X92087142Y-60271904D01*
X92087142Y-60200476D01*
X92110952Y-60105238D01*
X92134761Y-60057619D01*
X92182380Y-60010000D01*
X92253809Y-59986190D01*
X92301428Y-59986190D01*
X92372857Y-60010000D01*
X92396666Y-60033809D01*
X92825238Y-60152857D02*
X92825238Y-60486190D01*
X92706190Y-59962380D02*
X92587142Y-60319523D01*
X92896666Y-60319523D01*
X91836666Y-58786190D02*
X91670000Y-58548095D01*
X91550952Y-58786190D02*
X91550952Y-58286190D01*
X91741428Y-58286190D01*
X91789047Y-58310000D01*
X91812857Y-58333809D01*
X91836666Y-58381428D01*
X91836666Y-58452857D01*
X91812857Y-58500476D01*
X91789047Y-58524285D01*
X91741428Y-58548095D01*
X91550952Y-58548095D01*
X92289047Y-58286190D02*
X92050952Y-58286190D01*
X92027142Y-58524285D01*
X92050952Y-58500476D01*
X92098571Y-58476666D01*
X92217619Y-58476666D01*
X92265238Y-58500476D01*
X92289047Y-58524285D01*
X92312857Y-58571904D01*
X92312857Y-58690952D01*
X92289047Y-58738571D01*
X92265238Y-58762380D01*
X92217619Y-58786190D01*
X92098571Y-58786190D01*
X92050952Y-58762380D01*
X92027142Y-58738571D01*
X85058571Y-58351428D02*
X85082380Y-58375238D01*
X85106190Y-58446666D01*
X85106190Y-58494285D01*
X85082380Y-58565714D01*
X85034761Y-58613333D01*
X84987142Y-58637142D01*
X84891904Y-58660952D01*
X84820476Y-58660952D01*
X84725238Y-58637142D01*
X84677619Y-58613333D01*
X84630000Y-58565714D01*
X84606190Y-58494285D01*
X84606190Y-58446666D01*
X84630000Y-58375238D01*
X84653809Y-58351428D01*
X85106190Y-57875238D02*
X85106190Y-58160952D01*
X85106190Y-58018095D02*
X84606190Y-58018095D01*
X84677619Y-58065714D01*
X84725238Y-58113333D01*
X84749047Y-58160952D01*
X84606190Y-57565714D02*
X84606190Y-57518095D01*
X84630000Y-57470476D01*
X84653809Y-57446666D01*
X84701428Y-57422857D01*
X84796666Y-57399047D01*
X84915714Y-57399047D01*
X85010952Y-57422857D01*
X85058571Y-57446666D01*
X85082380Y-57470476D01*
X85106190Y-57518095D01*
X85106190Y-57565714D01*
X85082380Y-57613333D01*
X85058571Y-57637142D01*
X85010952Y-57660952D01*
X84915714Y-57684761D01*
X84796666Y-57684761D01*
X84701428Y-57660952D01*
X84653809Y-57637142D01*
X84630000Y-57613333D01*
X84606190Y-57565714D01*
X90516666Y-47778571D02*
X90492857Y-47802380D01*
X90421428Y-47826190D01*
X90373809Y-47826190D01*
X90302380Y-47802380D01*
X90254761Y-47754761D01*
X90230952Y-47707142D01*
X90207142Y-47611904D01*
X90207142Y-47540476D01*
X90230952Y-47445238D01*
X90254761Y-47397619D01*
X90302380Y-47350000D01*
X90373809Y-47326190D01*
X90421428Y-47326190D01*
X90492857Y-47350000D01*
X90516666Y-47373809D01*
X90707142Y-47373809D02*
X90730952Y-47350000D01*
X90778571Y-47326190D01*
X90897619Y-47326190D01*
X90945238Y-47350000D01*
X90969047Y-47373809D01*
X90992857Y-47421428D01*
X90992857Y-47469047D01*
X90969047Y-47540476D01*
X90683333Y-47826190D01*
X90992857Y-47826190D01*
X88858571Y-59428571D02*
X88834761Y-59452380D01*
X88763333Y-59476190D01*
X88715714Y-59476190D01*
X88644285Y-59452380D01*
X88596666Y-59404761D01*
X88572857Y-59357142D01*
X88549047Y-59261904D01*
X88549047Y-59190476D01*
X88572857Y-59095238D01*
X88596666Y-59047619D01*
X88644285Y-59000000D01*
X88715714Y-58976190D01*
X88763333Y-58976190D01*
X88834761Y-59000000D01*
X88858571Y-59023809D01*
X89334761Y-59476190D02*
X89049047Y-59476190D01*
X89191904Y-59476190D02*
X89191904Y-58976190D01*
X89144285Y-59047619D01*
X89096666Y-59095238D01*
X89049047Y-59119047D01*
X89501428Y-58976190D02*
X89810952Y-58976190D01*
X89644285Y-59166666D01*
X89715714Y-59166666D01*
X89763333Y-59190476D01*
X89787142Y-59214285D01*
X89810952Y-59261904D01*
X89810952Y-59380952D01*
X89787142Y-59428571D01*
X89763333Y-59452380D01*
X89715714Y-59476190D01*
X89572857Y-59476190D01*
X89525238Y-59452380D01*
X89501428Y-59428571D01*
X92128571Y-50278571D02*
X92104761Y-50302380D01*
X92033333Y-50326190D01*
X91985714Y-50326190D01*
X91914285Y-50302380D01*
X91866666Y-50254761D01*
X91842857Y-50207142D01*
X91819047Y-50111904D01*
X91819047Y-50040476D01*
X91842857Y-49945238D01*
X91866666Y-49897619D01*
X91914285Y-49850000D01*
X91985714Y-49826190D01*
X92033333Y-49826190D01*
X92104761Y-49850000D01*
X92128571Y-49873809D01*
X92604761Y-50326190D02*
X92319047Y-50326190D01*
X92461904Y-50326190D02*
X92461904Y-49826190D01*
X92414285Y-49897619D01*
X92366666Y-49945238D01*
X92319047Y-49969047D01*
X93080952Y-50326190D02*
X92795238Y-50326190D01*
X92938095Y-50326190D02*
X92938095Y-49826190D01*
X92890476Y-49897619D01*
X92842857Y-49945238D01*
X92795238Y-49969047D01*
X87516666Y-49926190D02*
X87350000Y-49688095D01*
X87230952Y-49926190D02*
X87230952Y-49426190D01*
X87421428Y-49426190D01*
X87469047Y-49450000D01*
X87492857Y-49473809D01*
X87516666Y-49521428D01*
X87516666Y-49592857D01*
X87492857Y-49640476D01*
X87469047Y-49664285D01*
X87421428Y-49688095D01*
X87230952Y-49688095D01*
X87707142Y-49473809D02*
X87730952Y-49450000D01*
X87778571Y-49426190D01*
X87897619Y-49426190D01*
X87945238Y-49450000D01*
X87969047Y-49473809D01*
X87992857Y-49521428D01*
X87992857Y-49569047D01*
X87969047Y-49640476D01*
X87683333Y-49926190D01*
X87992857Y-49926190D01*
X81869047Y-50076190D02*
X81869047Y-50480952D01*
X81892857Y-50528571D01*
X81916666Y-50552380D01*
X81964285Y-50576190D01*
X82059523Y-50576190D01*
X82107142Y-50552380D01*
X82130952Y-50528571D01*
X82154761Y-50480952D01*
X82154761Y-50076190D01*
X82369047Y-50123809D02*
X82392857Y-50100000D01*
X82440476Y-50076190D01*
X82559523Y-50076190D01*
X82607142Y-50100000D01*
X82630952Y-50123809D01*
X82654761Y-50171428D01*
X82654761Y-50219047D01*
X82630952Y-50290476D01*
X82345238Y-50576190D01*
X82654761Y-50576190D01*
X93678571Y-47321428D02*
X93702380Y-47345238D01*
X93726190Y-47416666D01*
X93726190Y-47464285D01*
X93702380Y-47535714D01*
X93654761Y-47583333D01*
X93607142Y-47607142D01*
X93511904Y-47630952D01*
X93440476Y-47630952D01*
X93345238Y-47607142D01*
X93297619Y-47583333D01*
X93250000Y-47535714D01*
X93226190Y-47464285D01*
X93226190Y-47416666D01*
X93250000Y-47345238D01*
X93273809Y-47321428D01*
X93726190Y-46845238D02*
X93726190Y-47130952D01*
X93726190Y-46988095D02*
X93226190Y-46988095D01*
X93297619Y-47035714D01*
X93345238Y-47083333D01*
X93369047Y-47130952D01*
X93392857Y-46416666D02*
X93726190Y-46416666D01*
X93202380Y-46535714D02*
X93559523Y-46654761D01*
X93559523Y-46345238D01*
X84798571Y-63508571D02*
X84774761Y-63532380D01*
X84703333Y-63556190D01*
X84655714Y-63556190D01*
X84584285Y-63532380D01*
X84536666Y-63484761D01*
X84512857Y-63437142D01*
X84489047Y-63341904D01*
X84489047Y-63270476D01*
X84512857Y-63175238D01*
X84536666Y-63127619D01*
X84584285Y-63080000D01*
X84655714Y-63056190D01*
X84703333Y-63056190D01*
X84774761Y-63080000D01*
X84798571Y-63103809D01*
X85274761Y-63556190D02*
X84989047Y-63556190D01*
X85131904Y-63556190D02*
X85131904Y-63056190D01*
X85084285Y-63127619D01*
X85036666Y-63175238D01*
X84989047Y-63199047D01*
X85465238Y-63103809D02*
X85489047Y-63080000D01*
X85536666Y-63056190D01*
X85655714Y-63056190D01*
X85703333Y-63080000D01*
X85727142Y-63103809D01*
X85750952Y-63151428D01*
X85750952Y-63199047D01*
X85727142Y-63270476D01*
X85441428Y-63556190D01*
X85750952Y-63556190D01*
X89176666Y-47626190D02*
X89010000Y-47388095D01*
X88890952Y-47626190D02*
X88890952Y-47126190D01*
X89081428Y-47126190D01*
X89129047Y-47150000D01*
X89152857Y-47173809D01*
X89176666Y-47221428D01*
X89176666Y-47292857D01*
X89152857Y-47340476D01*
X89129047Y-47364285D01*
X89081428Y-47388095D01*
X88890952Y-47388095D01*
X89605238Y-47126190D02*
X89510000Y-47126190D01*
X89462380Y-47150000D01*
X89438571Y-47173809D01*
X89390952Y-47245238D01*
X89367142Y-47340476D01*
X89367142Y-47530952D01*
X89390952Y-47578571D01*
X89414761Y-47602380D01*
X89462380Y-47626190D01*
X89557619Y-47626190D01*
X89605238Y-47602380D01*
X89629047Y-47578571D01*
X89652857Y-47530952D01*
X89652857Y-47411904D01*
X89629047Y-47364285D01*
X89605238Y-47340476D01*
X89557619Y-47316666D01*
X89462380Y-47316666D01*
X89414761Y-47340476D01*
X89390952Y-47364285D01*
X89367142Y-47411904D01*
D13*
X89253641Y-48580000D02*
X88946359Y-48580000D01*
X89253641Y-47820000D02*
X88946359Y-47820000D01*
X90285000Y-63957836D02*
X90285000Y-63742164D01*
X89565000Y-63957836D02*
X89565000Y-63742164D01*
D11*
X82150000Y-60375000D02*
X81500000Y-60375000D01*
X81500000Y-60375000D02*
X81500000Y-61025000D01*
D13*
X88428641Y-62530000D02*
X88121359Y-62530000D01*
X88428641Y-61770000D02*
X88121359Y-61770000D01*
X89175000Y-65800000D02*
X89175000Y-63000000D01*
X89175000Y-63000000D02*
X85875000Y-63000000D01*
X80740000Y-46192164D02*
X80740000Y-46407836D01*
X81460000Y-46192164D02*
X81460000Y-46407836D01*
X92073641Y-59780000D02*
X91766359Y-59780000D01*
X92073641Y-59020000D02*
X91766359Y-59020000D01*
X91960000Y-58010000D02*
X92610000Y-58010000D01*
X92610000Y-50790000D02*
X92610000Y-51440000D01*
X91960000Y-50790000D02*
X92610000Y-50790000D01*
X92610000Y-58010000D02*
X92610000Y-57360000D01*
X86040000Y-58010000D02*
X85390000Y-58010000D01*
X86040000Y-50790000D02*
X85390000Y-50790000D01*
X85390000Y-58010000D02*
X85390000Y-57360000D01*
X90340000Y-48792164D02*
X90340000Y-49007836D01*
X91060000Y-48792164D02*
X91060000Y-49007836D01*
X86260000Y-48843641D02*
X86260000Y-48536359D01*
X87020000Y-48843641D02*
X87020000Y-48536359D01*
X80350000Y-54200000D02*
X80350000Y-51200000D01*
X84550000Y-54200000D02*
X84550000Y-50950000D01*
X93090000Y-48792164D02*
X93090000Y-49007836D01*
X93810000Y-48792164D02*
X93810000Y-49007836D01*
X82600000Y-44220000D02*
X82600000Y-44975000D01*
X82600000Y-44220000D02*
X91400000Y-44220000D01*
X80855000Y-41050000D02*
X80855000Y-40000000D01*
X93145000Y-41050000D02*
X93145000Y-40000000D01*
X84765000Y-64737836D02*
X84765000Y-64522164D01*
X85485000Y-64737836D02*
X85485000Y-64522164D01*
X89253641Y-49630000D02*
X88946359Y-49630000D01*
X89253641Y-48870000D02*
X88946359Y-48870000D01*
%LPC*%
D14*
X89610000Y-48200000D03*
X88590000Y-48200000D03*
D15*
X89925000Y-64330000D03*
X89925000Y-63370000D03*
D16*
X81900000Y-61675000D03*
X82800000Y-61675000D03*
X82800000Y-60775000D03*
X81900000Y-60775000D03*
D14*
X88785000Y-62150000D03*
X87765000Y-62150000D03*
D17*
X88400000Y-63700000D03*
X86650000Y-63700000D03*
X86650000Y-65100000D03*
X88400000Y-65100000D03*
D18*
X92500000Y-48780000D03*
X92500000Y-49420000D03*
X85630000Y-48130000D03*
X85630000Y-48770000D03*
D19*
X81100000Y-45820000D03*
X81100000Y-46780000D03*
D20*
X93300000Y-59920000D03*
X93300000Y-59280000D03*
D14*
X92430000Y-59400000D03*
X91410000Y-59400000D03*
D20*
X89980000Y-60620000D03*
X89980000Y-59980000D03*
X84300000Y-56920000D03*
X84300000Y-56280000D03*
D21*
X85562500Y-51800000D03*
X85562500Y-52200000D03*
X85562500Y-52600000D03*
X85562500Y-53000000D03*
X85562500Y-53400000D03*
X85562500Y-53800000D03*
X85562500Y-54200000D03*
X85562500Y-54600000D03*
X85562500Y-55000000D03*
X85562500Y-55400000D03*
X85562500Y-55800000D03*
X85562500Y-56200000D03*
X85562500Y-56600000D03*
X85562500Y-57000000D03*
D22*
X86400000Y-57837500D03*
X86800000Y-57837500D03*
X87200000Y-57837500D03*
X87600000Y-57837500D03*
X88000000Y-57837500D03*
X88400000Y-57837500D03*
X88800000Y-57837500D03*
X89200000Y-57837500D03*
X89600000Y-57837500D03*
X90000000Y-57837500D03*
X90400000Y-57837500D03*
X90800000Y-57837500D03*
X91200000Y-57837500D03*
X91600000Y-57837500D03*
D21*
X92437500Y-57000000D03*
X92437500Y-56600000D03*
X92437500Y-56200000D03*
X92437500Y-55800000D03*
X92437500Y-55400000D03*
X92437500Y-55000000D03*
X92437500Y-54600000D03*
X92437500Y-54200000D03*
X92437500Y-53800000D03*
X92437500Y-53400000D03*
X92437500Y-53000000D03*
X92437500Y-52600000D03*
X92437500Y-52200000D03*
X92437500Y-51800000D03*
D22*
X91600000Y-50962500D03*
X91200000Y-50962500D03*
X90800000Y-50962500D03*
X90400000Y-50962500D03*
X90000000Y-50962500D03*
X89600000Y-50962500D03*
X89200000Y-50962500D03*
X88800000Y-50962500D03*
X88400000Y-50962500D03*
X88000000Y-50962500D03*
X87600000Y-50962500D03*
X87200000Y-50962500D03*
X86800000Y-50962500D03*
X86400000Y-50962500D03*
D23*
X89000000Y-54400000D03*
D19*
X90700000Y-48420000D03*
X90700000Y-49380000D03*
D20*
X89180000Y-60620000D03*
X89180000Y-59980000D03*
D18*
X91660000Y-48780000D03*
X91660000Y-49420000D03*
D24*
X86640000Y-49200000D03*
X86640000Y-48180000D03*
D25*
X83650000Y-51300000D03*
X82850000Y-51300000D03*
X82050000Y-51300000D03*
X81250000Y-51300000D03*
X81250000Y-54100000D03*
X82050000Y-54100000D03*
X82850000Y-54100000D03*
X83650000Y-54100000D03*
D26*
X82450000Y-52700000D03*
D19*
X93450000Y-48420000D03*
X93450000Y-49380000D03*
D27*
X84700000Y-43100000D03*
X89300000Y-43100000D03*
D28*
X83500000Y-45850000D03*
X86000000Y-45850000D03*
X88000000Y-45850000D03*
X90500000Y-45850000D03*
D29*
X81300000Y-43100000D03*
X92700000Y-43100000D03*
D15*
X85125000Y-65110000D03*
X85125000Y-64150000D03*
D14*
X89610000Y-49250000D03*
X88590000Y-49250000D03*
D30*
X82354200Y-56899999D03*
X82354200Y-58900001D03*
X82354200Y-65550001D03*
X82354200Y-63549999D03*
D31*
X92860000Y-61200000D03*
D32*
X91590000Y-61200000D03*
X92860000Y-62470000D03*
X91590000Y-62470000D03*
X92860000Y-63740000D03*
X91590000Y-63740000D03*
X92860000Y-65010000D03*
X91590000Y-65010000D03*
X92860000Y-66280000D03*
X91590000Y-66280000D03*
M02*
