G04 #@! TF.GenerationSoftware,KiCad,Pcbnew,(6.0.4-0)*
G04 #@! TF.CreationDate,2022-05-04T20:04:51-04:00*
G04 #@! TF.ProjectId,pico_ducky_pcb,7069636f-5f64-4756-936b-795f7063622e,rev?*
G04 #@! TF.SameCoordinates,Original*
G04 #@! TF.FileFunction,Copper,L1,Top*
G04 #@! TF.FilePolarity,Positive*
%FSLAX46Y46*%
G04 Gerber Fmt 4.6, Leading zero omitted, Abs format (unit mm)*
G04 Created by KiCad (PCBNEW (6.0.4-0)) date 2022-05-04 20:04:51*
%MOMM*%
%LPD*%
G01*
G04 APERTURE LIST*
G04 Aperture macros list*
%AMRoundRect*
0 Rectangle with rounded corners*
0 $1 Rounding radius*
0 $2 $3 $4 $5 $6 $7 $8 $9 X,Y pos of 4 corners*
0 Add a 4 corners polygon primitive as box body*
4,1,4,$2,$3,$4,$5,$6,$7,$8,$9,$2,$3,0*
0 Add four circle primitives for the rounded corners*
1,1,$1+$1,$2,$3*
1,1,$1+$1,$4,$5*
1,1,$1+$1,$6,$7*
1,1,$1+$1,$8,$9*
0 Add four rect primitives between the rounded corners*
20,1,$1+$1,$2,$3,$4,$5,0*
20,1,$1+$1,$4,$5,$6,$7,0*
20,1,$1+$1,$6,$7,$8,$9,0*
20,1,$1+$1,$8,$9,$2,$3,0*%
G04 Aperture macros list end*
G04 #@! TA.AperFunction,SMDPad,CuDef*
%ADD10RoundRect,0.135000X0.135000X0.185000X-0.135000X0.185000X-0.135000X-0.185000X0.135000X-0.185000X0*%
G04 #@! TD*
G04 #@! TA.AperFunction,SMDPad,CuDef*
%ADD11RoundRect,0.140000X0.170000X-0.140000X0.170000X0.140000X-0.170000X0.140000X-0.170000X-0.140000X0*%
G04 #@! TD*
G04 #@! TA.AperFunction,SMDPad,CuDef*
%ADD12R,0.500000X0.500000*%
G04 #@! TD*
G04 #@! TA.AperFunction,SMDPad,CuDef*
%ADD13R,1.150000X1.000000*%
G04 #@! TD*
G04 #@! TA.AperFunction,SMDPad,CuDef*
%ADD14RoundRect,0.100000X-0.100000X0.130000X-0.100000X-0.130000X0.100000X-0.130000X0.100000X0.130000X0*%
G04 #@! TD*
G04 #@! TA.AperFunction,SMDPad,CuDef*
%ADD15RoundRect,0.140000X-0.170000X0.140000X-0.170000X-0.140000X0.170000X-0.140000X0.170000X0.140000X0*%
G04 #@! TD*
G04 #@! TA.AperFunction,SMDPad,CuDef*
%ADD16RoundRect,0.100000X0.100000X-0.130000X0.100000X0.130000X-0.100000X0.130000X-0.100000X-0.130000X0*%
G04 #@! TD*
G04 #@! TA.AperFunction,SMDPad,CuDef*
%ADD17RoundRect,0.050000X-0.387500X-0.050000X0.387500X-0.050000X0.387500X0.050000X-0.387500X0.050000X0*%
G04 #@! TD*
G04 #@! TA.AperFunction,SMDPad,CuDef*
%ADD18RoundRect,0.050000X-0.050000X-0.387500X0.050000X-0.387500X0.050000X0.387500X-0.050000X0.387500X0*%
G04 #@! TD*
G04 #@! TA.AperFunction,ComponentPad*
%ADD19C,0.600000*%
G04 #@! TD*
G04 #@! TA.AperFunction,SMDPad,CuDef*
%ADD20RoundRect,0.144000X-1.456000X-1.456000X1.456000X-1.456000X1.456000X1.456000X-1.456000X1.456000X0*%
G04 #@! TD*
G04 #@! TA.AperFunction,SMDPad,CuDef*
%ADD21RoundRect,0.135000X0.185000X-0.135000X0.185000X0.135000X-0.185000X0.135000X-0.185000X-0.135000X0*%
G04 #@! TD*
G04 #@! TA.AperFunction,SMDPad,CuDef*
%ADD22R,0.350000X1.100000*%
G04 #@! TD*
G04 #@! TA.AperFunction,SMDPad,CuDef*
%ADD23R,2.600000X0.300000*%
G04 #@! TD*
G04 #@! TA.AperFunction,SMDPad,CuDef*
%ADD24R,1.100000X2.500000*%
G04 #@! TD*
G04 #@! TA.AperFunction,ComponentPad*
%ADD25O,1.900000X3.500000*%
G04 #@! TD*
G04 #@! TA.AperFunction,ComponentPad*
%ADD26R,1.000000X1.000000*%
G04 #@! TD*
G04 #@! TA.AperFunction,ComponentPad*
%ADD27O,1.000000X1.000000*%
G04 #@! TD*
G04 #@! TA.AperFunction,ViaPad*
%ADD28C,0.600000*%
G04 #@! TD*
G04 #@! TA.AperFunction,ViaPad*
%ADD29C,0.800000*%
G04 #@! TD*
G04 #@! TA.AperFunction,ViaPad*
%ADD30C,0.550000*%
G04 #@! TD*
G04 #@! TA.AperFunction,Conductor*
%ADD31C,0.200000*%
G04 #@! TD*
G04 #@! TA.AperFunction,Conductor*
%ADD32C,0.300000*%
G04 #@! TD*
G04 #@! TA.AperFunction,Conductor*
%ADD33C,0.150000*%
G04 #@! TD*
G04 APERTURE END LIST*
D10*
X89610000Y-48200000D03*
X88590000Y-48200000D03*
D11*
X89925000Y-64330000D03*
X89925000Y-63370000D03*
D12*
X81900000Y-61675000D03*
X82800000Y-61675000D03*
X82800000Y-60775000D03*
X81900000Y-60775000D03*
D10*
X88785000Y-62150000D03*
X87765000Y-62150000D03*
D13*
X88400000Y-63700000D03*
X86650000Y-63700000D03*
X86650000Y-65100000D03*
X88400000Y-65100000D03*
D14*
X92500000Y-48780000D03*
X92500000Y-49420000D03*
X85630000Y-48130000D03*
X85630000Y-48770000D03*
D15*
X81100000Y-45820000D03*
X81100000Y-46780000D03*
D16*
X93300000Y-59920000D03*
X93300000Y-59280000D03*
D10*
X92430000Y-59400000D03*
X91410000Y-59400000D03*
D16*
X89980000Y-60620000D03*
X89980000Y-59980000D03*
X84300000Y-56920000D03*
X84300000Y-56280000D03*
D17*
X85562500Y-51800000D03*
X85562500Y-52200000D03*
X85562500Y-52600000D03*
X85562500Y-53000000D03*
X85562500Y-53400000D03*
X85562500Y-53800000D03*
X85562500Y-54200000D03*
X85562500Y-54600000D03*
X85562500Y-55000000D03*
X85562500Y-55400000D03*
X85562500Y-55800000D03*
X85562500Y-56200000D03*
X85562500Y-56600000D03*
X85562500Y-57000000D03*
D18*
X86400000Y-57837500D03*
X86800000Y-57837500D03*
X87200000Y-57837500D03*
X87600000Y-57837500D03*
X88000000Y-57837500D03*
X88400000Y-57837500D03*
X88800000Y-57837500D03*
X89200000Y-57837500D03*
X89600000Y-57837500D03*
X90000000Y-57837500D03*
X90400000Y-57837500D03*
X90800000Y-57837500D03*
X91200000Y-57837500D03*
X91600000Y-57837500D03*
D17*
X92437500Y-57000000D03*
X92437500Y-56600000D03*
X92437500Y-56200000D03*
X92437500Y-55800000D03*
X92437500Y-55400000D03*
X92437500Y-55000000D03*
X92437500Y-54600000D03*
X92437500Y-54200000D03*
X92437500Y-53800000D03*
X92437500Y-53400000D03*
X92437500Y-53000000D03*
X92437500Y-52600000D03*
X92437500Y-52200000D03*
X92437500Y-51800000D03*
D18*
X91600000Y-50962500D03*
X91200000Y-50962500D03*
X90800000Y-50962500D03*
X90400000Y-50962500D03*
X90000000Y-50962500D03*
X89600000Y-50962500D03*
X89200000Y-50962500D03*
X88800000Y-50962500D03*
X88400000Y-50962500D03*
X88000000Y-50962500D03*
X87600000Y-50962500D03*
X87200000Y-50962500D03*
X86800000Y-50962500D03*
X86400000Y-50962500D03*
D19*
X89000000Y-55675000D03*
X90275000Y-54400000D03*
X89000000Y-53125000D03*
X90275000Y-53125000D03*
X90275000Y-55675000D03*
X89000000Y-54400000D03*
X87725000Y-55675000D03*
D20*
X89000000Y-54400000D03*
D19*
X87725000Y-53125000D03*
X87725000Y-54400000D03*
D15*
X90700000Y-48420000D03*
X90700000Y-49380000D03*
D16*
X89180000Y-60620000D03*
X89180000Y-59980000D03*
D14*
X91660000Y-48780000D03*
X91660000Y-49420000D03*
D21*
X86640000Y-49200000D03*
X86640000Y-48180000D03*
D22*
X83650000Y-51300000D03*
X82850000Y-51300000D03*
X82050000Y-51300000D03*
X81250000Y-51300000D03*
X81250000Y-54100000D03*
X82050000Y-54100000D03*
X82850000Y-54100000D03*
X83650000Y-54100000D03*
D23*
X82450000Y-52700000D03*
D15*
X93450000Y-48420000D03*
X93450000Y-49380000D03*
D24*
X83500000Y-45850000D03*
X86000000Y-45850000D03*
X88000000Y-45850000D03*
X90500000Y-45850000D03*
D25*
X81300000Y-43100000D03*
X92700000Y-43100000D03*
D11*
X85125000Y-65110000D03*
X85125000Y-64150000D03*
D10*
X89610000Y-49250000D03*
X88590000Y-49250000D03*
D26*
X92860000Y-61200000D03*
D27*
X91590000Y-61200000D03*
X92860000Y-62470000D03*
X91590000Y-62470000D03*
X92860000Y-63740000D03*
X91590000Y-63740000D03*
X92860000Y-65010000D03*
X91590000Y-65010000D03*
X92860000Y-66280000D03*
X91590000Y-66280000D03*
D28*
X86650000Y-62700000D03*
X85100000Y-66150000D03*
D29*
X92750000Y-46000000D03*
X91500000Y-46000000D03*
X83800000Y-58850000D03*
D28*
X83800000Y-66250000D03*
X81070000Y-61700000D03*
X89950000Y-65100000D03*
D29*
X81200000Y-50200000D03*
D28*
X85100000Y-47600000D03*
X91350000Y-52850000D03*
D29*
X92750000Y-47750000D03*
X91500000Y-47750000D03*
D28*
X89980000Y-61300000D03*
D29*
X80700000Y-48300000D03*
X82200000Y-45300000D03*
D28*
X84900000Y-49500000D03*
X88480000Y-60600000D03*
X83200000Y-49500000D03*
X84050000Y-49500000D03*
X93300000Y-50700000D03*
X89575000Y-51875000D03*
X92450000Y-50700000D03*
X85575000Y-51275000D03*
X84550000Y-55400000D03*
D29*
X93310000Y-58460000D03*
D28*
X83650000Y-60800000D03*
D30*
X86870000Y-51790000D03*
X81250000Y-55050000D03*
X91500000Y-55800000D03*
X85870000Y-49550000D03*
D29*
X84353008Y-50895359D03*
D30*
X86450000Y-54400000D03*
X90800000Y-56900000D03*
X82850000Y-55050000D03*
X88400000Y-51900000D03*
X82050000Y-55050000D03*
X87600000Y-52170000D03*
X87800000Y-49000000D03*
X88000000Y-47500000D03*
D31*
X81980000Y-52700000D02*
X81250000Y-51970000D01*
X88400000Y-65100000D02*
X89725000Y-65100000D01*
X89925000Y-64330000D02*
X89925000Y-65300000D01*
D32*
X81100000Y-45820000D02*
X81100000Y-43300000D01*
D31*
X87725000Y-55675000D02*
X88000000Y-55950000D01*
X89725000Y-65100000D02*
X89925000Y-65300000D01*
D32*
X85630000Y-48130000D02*
X85100000Y-47600000D01*
D31*
X89180000Y-60620000D02*
X89980000Y-60620000D01*
D32*
X84300000Y-56920000D02*
X84300000Y-58350000D01*
X92860000Y-62470000D02*
X93567106Y-62470000D01*
X84300000Y-58350000D02*
X83800000Y-58850000D01*
X81095000Y-61675000D02*
X81070000Y-61700000D01*
D31*
X81250000Y-51970000D02*
X81250000Y-51300000D01*
X88000000Y-55950000D02*
X88000000Y-57837500D01*
X86650000Y-63700000D02*
X86650000Y-62700000D01*
X85100000Y-66080000D02*
X85100000Y-65135000D01*
D32*
X93630000Y-62407106D02*
X93630000Y-60250000D01*
X93630000Y-60250000D02*
X93300000Y-59920000D01*
D31*
X89980000Y-60620000D02*
X89980000Y-61300000D01*
X81250000Y-51300000D02*
X81250000Y-50250000D01*
X81250000Y-50250000D02*
X81200000Y-50200000D01*
D32*
X93567106Y-62470000D02*
X93630000Y-62407106D01*
X81900000Y-61675000D02*
X81095000Y-61675000D01*
D31*
X89575000Y-51875000D02*
X89550000Y-51900000D01*
X85562500Y-51287500D02*
X85575000Y-51275000D01*
X93310000Y-58460000D02*
X93310000Y-59256415D01*
X92437500Y-55400000D02*
X93210000Y-55400000D01*
X89200000Y-57837500D02*
X89200000Y-59960000D01*
X92430000Y-59400000D02*
X93180000Y-59400000D01*
X89200000Y-51550000D02*
X89550000Y-51900000D01*
X89200000Y-50962500D02*
X89200000Y-51550000D01*
X84550000Y-55400000D02*
X85562500Y-55400000D01*
X88480000Y-60600000D02*
X89100000Y-59980000D01*
X85562500Y-51800000D02*
X85562500Y-51287500D01*
D32*
X83625000Y-60775000D02*
X83650000Y-60800000D01*
X83650000Y-54500000D02*
X84550000Y-55400000D01*
X84300000Y-55650000D02*
X84550000Y-55400000D01*
D31*
X93210000Y-55400000D02*
X93310000Y-55500000D01*
X93310000Y-55500000D02*
X93310000Y-58460000D01*
D33*
X86050000Y-48770000D02*
X86640000Y-48180000D01*
D31*
X89600000Y-50962500D02*
X89600000Y-51850000D01*
X93180000Y-59400000D02*
X93300000Y-59280000D01*
X91200000Y-50962500D02*
X91600000Y-50962500D01*
X89600000Y-51850000D02*
X89575000Y-51875000D01*
D32*
X85530000Y-48770000D02*
X84800000Y-49500000D01*
X85630000Y-48770000D02*
X85530000Y-48770000D01*
X84300000Y-56280000D02*
X84300000Y-55650000D01*
X82800000Y-60775000D02*
X83625000Y-60775000D01*
D33*
X85630000Y-48770000D02*
X86050000Y-48770000D01*
D31*
X89600000Y-59600000D02*
X89600000Y-57837500D01*
X89825489Y-52424511D02*
X90800000Y-51450000D01*
X90700000Y-49380000D02*
X91620000Y-49380000D01*
X89075489Y-51865489D02*
X89075489Y-52135489D01*
X89980000Y-59980000D02*
X89600000Y-59600000D01*
X90799520Y-52801710D02*
X90799520Y-56150480D01*
X88800000Y-51590000D02*
X89075489Y-51865489D01*
X89674511Y-52424511D02*
X90422321Y-52424511D01*
X90800000Y-50962500D02*
X90800000Y-49480000D01*
X90800000Y-51450000D02*
X90800000Y-50962500D01*
X90799520Y-56150480D02*
X89600000Y-57350000D01*
X89075489Y-52135489D02*
X89364511Y-52424511D01*
X89674511Y-52424511D02*
X89825489Y-52424511D01*
X90422321Y-52424511D02*
X90799520Y-52801710D01*
X88800000Y-50962500D02*
X88800000Y-51590000D01*
X89364511Y-52424511D02*
X89674511Y-52424511D01*
X89600000Y-57350000D02*
X89600000Y-57837500D01*
D33*
X89925000Y-63370000D02*
X89595000Y-63700000D01*
X88785000Y-62150000D02*
X88400000Y-62535000D01*
X89595000Y-63700000D02*
X88400000Y-63700000D01*
X88400000Y-62535000D02*
X88400000Y-63700000D01*
X89600000Y-49900000D02*
X89600000Y-49260000D01*
X90000000Y-50300000D02*
X89600000Y-49900000D01*
X90000000Y-50962500D02*
X90000000Y-50300000D01*
X81250000Y-54100000D02*
X81250000Y-55050000D01*
X87127519Y-51790000D02*
X87600000Y-51317519D01*
X86870000Y-51790000D02*
X87127519Y-51790000D01*
X85125000Y-64150000D02*
X85700000Y-64150000D01*
X85700000Y-64150000D02*
X86650000Y-65100000D01*
X88400000Y-58872126D02*
X85125000Y-62147126D01*
X85125000Y-62147126D02*
X85125000Y-64150000D01*
X88400000Y-57837500D02*
X88400000Y-58872126D01*
X86400000Y-58721061D02*
X86400000Y-57837500D01*
X82800000Y-61675000D02*
X83446061Y-61675000D01*
X83446061Y-61675000D02*
X86400000Y-58721061D01*
X92437500Y-55800000D02*
X91500000Y-55800000D01*
X91590000Y-61200000D02*
X90965480Y-60575480D01*
X90965480Y-60575480D02*
X90965480Y-59585480D01*
X90400000Y-59020000D02*
X90400000Y-57837500D01*
X90965480Y-59585480D02*
X90400000Y-59020000D01*
X90000000Y-59050500D02*
X90000000Y-57837500D01*
X90715961Y-61595961D02*
X90715961Y-59766461D01*
X90715961Y-59766461D02*
X90000000Y-59050500D01*
X91590000Y-62470000D02*
X90715961Y-61595961D01*
X86400000Y-54350000D02*
X86450000Y-54400000D01*
X86220000Y-49200000D02*
X85870000Y-49550000D01*
X84447878Y-50800489D02*
X86237989Y-50800489D01*
X86640000Y-49200000D02*
X86220000Y-49200000D01*
X83948367Y-51300000D02*
X84353008Y-50895359D01*
X86400000Y-50962500D02*
X86400000Y-54350000D01*
X86237989Y-50800489D02*
X86400000Y-50962500D01*
X84353008Y-50895359D02*
X84447878Y-50800489D01*
X83650000Y-51300000D02*
X83948367Y-51300000D01*
X87765000Y-59860000D02*
X88800000Y-58825000D01*
X88800000Y-58825000D02*
X88800000Y-57837500D01*
X87765000Y-62150000D02*
X87765000Y-59860000D01*
X91410000Y-59400000D02*
X90800000Y-58790000D01*
X90800000Y-57837500D02*
X90800000Y-56900000D01*
X90800000Y-58790000D02*
X90800000Y-57837500D01*
X86810000Y-50460000D02*
X86810000Y-50952500D01*
X86670000Y-50320000D02*
X86810000Y-50460000D01*
X82850000Y-51025978D02*
X83555978Y-50320000D01*
X83555978Y-50320000D02*
X86670000Y-50320000D01*
X86820481Y-50070481D02*
X87200000Y-50450000D01*
X82050000Y-50925000D02*
X82904519Y-50070481D01*
X82904519Y-50070481D02*
X86820481Y-50070481D01*
X87200000Y-50450000D02*
X87200000Y-50962500D01*
X82850000Y-54100000D02*
X82850000Y-55050000D01*
X88400000Y-50962500D02*
X88400000Y-51900000D01*
X82050000Y-54100000D02*
X82050000Y-55050000D01*
X87600000Y-51900000D02*
X88000000Y-51500000D01*
X88000000Y-51500000D02*
X88000000Y-50962500D01*
X87600000Y-52170000D02*
X87600000Y-51900000D01*
X87522482Y-48200000D02*
X86000000Y-46677518D01*
X88590000Y-48200000D02*
X87522482Y-48200000D01*
X88000000Y-47500000D02*
X88000000Y-45850000D01*
X88590000Y-49250000D02*
X88050000Y-49250000D01*
X88050000Y-49250000D02*
X87800000Y-49000000D01*
X90100000Y-49676219D02*
X90100000Y-48850000D01*
X90400000Y-49976219D02*
X90100000Y-49676219D01*
X90100000Y-48850000D02*
X89600000Y-48350000D01*
X90400000Y-50962500D02*
X90400000Y-49976219D01*
G04 #@! TA.AperFunction,Conductor*
G36*
X93556790Y-49273210D02*
G01*
X93577000Y-49322000D01*
X93577000Y-49900275D01*
X93581020Y-49909979D01*
X93590724Y-49913999D01*
X93648290Y-49913999D01*
X93653686Y-49913575D01*
X93737910Y-49900236D01*
X93748110Y-49896922D01*
X93759175Y-49891284D01*
X93811822Y-49887140D01*
X93851979Y-49921438D01*
X93859500Y-49952763D01*
X93859500Y-51831000D01*
X93839290Y-51879790D01*
X93790500Y-51900000D01*
X92406500Y-51900000D01*
X92357710Y-51879790D01*
X92337500Y-51831000D01*
X92337500Y-51686276D01*
X92537500Y-51686276D01*
X92541520Y-51695980D01*
X92551224Y-51700000D01*
X93114700Y-51700000D01*
X93124404Y-51695980D01*
X93127156Y-51689337D01*
X93126459Y-51683473D01*
X93123744Y-51673594D01*
X93082461Y-51580653D01*
X93075365Y-51570329D01*
X93004234Y-51499321D01*
X92993898Y-51492244D01*
X92900890Y-51451126D01*
X92890996Y-51448428D01*
X92872154Y-51446232D01*
X92868165Y-51446000D01*
X92551224Y-51446000D01*
X92541520Y-51450020D01*
X92537500Y-51459724D01*
X92537500Y-51686276D01*
X92337500Y-51686276D01*
X92337500Y-51459725D01*
X92333480Y-51450021D01*
X92323776Y-51446001D01*
X92023000Y-51446001D01*
X91974210Y-51425791D01*
X91954000Y-51377001D01*
X91954000Y-51076224D01*
X91949980Y-51066520D01*
X91940276Y-51062500D01*
X91700000Y-51062500D01*
X91700000Y-50862500D01*
X91940275Y-50862500D01*
X91949979Y-50858480D01*
X91953999Y-50848776D01*
X91953999Y-50531876D01*
X91953758Y-50527805D01*
X91951459Y-50508473D01*
X91948744Y-50498593D01*
X91907461Y-50405653D01*
X91900365Y-50395329D01*
X91829234Y-50324321D01*
X91818898Y-50317244D01*
X91741100Y-50282850D01*
X91704648Y-50244638D01*
X91700000Y-50219742D01*
X91700000Y-49859500D01*
X91720210Y-49810710D01*
X91769000Y-49790500D01*
X91783688Y-49790500D01*
X91787015Y-49789838D01*
X91787017Y-49789838D01*
X91847174Y-49777872D01*
X91847175Y-49777872D01*
X91853839Y-49776546D01*
X91933391Y-49723391D01*
X91957561Y-49687217D01*
X92001469Y-49657879D01*
X92053265Y-49668181D01*
X92076868Y-49695143D01*
X92105668Y-49753801D01*
X92112218Y-49762950D01*
X92187551Y-49838151D01*
X92196716Y-49844688D01*
X92292657Y-49891585D01*
X92302767Y-49894710D01*
X92361143Y-49903226D01*
X92368980Y-49899980D01*
X92373000Y-49890276D01*
X92627000Y-49890276D01*
X92631020Y-49899980D01*
X92638844Y-49903221D01*
X92697826Y-49894539D01*
X92707947Y-49891394D01*
X92803801Y-49844332D01*
X92812950Y-49837782D01*
X92877877Y-49772742D01*
X92926650Y-49752490D01*
X92975500Y-49772700D01*
X93041684Y-49838884D01*
X93050365Y-49845192D01*
X93151892Y-49896922D01*
X93162096Y-49900237D01*
X93246311Y-49913575D01*
X93251705Y-49914000D01*
X93309276Y-49914000D01*
X93318980Y-49909980D01*
X93323000Y-49900276D01*
X93323000Y-49520724D01*
X93318980Y-49511020D01*
X93309276Y-49507000D01*
X93007724Y-49507000D01*
X92991406Y-49513760D01*
X92963419Y-49541747D01*
X92937013Y-49547000D01*
X92640724Y-49547000D01*
X92631020Y-49551020D01*
X92627000Y-49560724D01*
X92627000Y-49890276D01*
X92373000Y-49890276D01*
X92373000Y-49362000D01*
X92393210Y-49313210D01*
X92442000Y-49293000D01*
X92832276Y-49293000D01*
X92848594Y-49286240D01*
X92876581Y-49258253D01*
X92902987Y-49253000D01*
X93508000Y-49253000D01*
X93556790Y-49273210D01*
G37*
G04 #@! TD.AperFunction*
G04 #@! TA.AperFunction,Conductor*
G36*
X91666676Y-44528427D02*
G01*
X91668438Y-44530888D01*
X91668507Y-44530846D01*
X91669346Y-44532215D01*
X91801102Y-44708659D01*
X91801809Y-44709445D01*
X91963520Y-44858928D01*
X91964364Y-44859576D01*
X92150601Y-44977082D01*
X92151550Y-44977566D01*
X92356088Y-45059168D01*
X92357102Y-45059469D01*
X92570718Y-45101959D01*
X92572464Y-45101612D01*
X92573000Y-45100809D01*
X92573000Y-44525000D01*
X92827000Y-44525000D01*
X92827000Y-45097583D01*
X92827682Y-45099228D01*
X92828645Y-45099627D01*
X93012423Y-45068048D01*
X93013455Y-45067772D01*
X93220058Y-44991552D01*
X93221015Y-44991095D01*
X93410266Y-44878502D01*
X93411126Y-44877878D01*
X93576686Y-44732685D01*
X93577428Y-44731902D01*
X93713751Y-44558979D01*
X93714336Y-44558078D01*
X93728450Y-44531252D01*
X93735335Y-44525526D01*
X93738804Y-44525000D01*
X93818461Y-44525000D01*
X93821489Y-44525399D01*
X93890828Y-44543978D01*
X93897932Y-44549429D01*
X93899500Y-44555279D01*
X93899500Y-47974054D01*
X93896073Y-47982327D01*
X93887800Y-47985754D01*
X93879527Y-47982327D01*
X93855125Y-47957925D01*
X93853655Y-47956857D01*
X93744090Y-47901031D01*
X93742360Y-47900469D01*
X93651462Y-47886072D01*
X93650546Y-47886000D01*
X93579327Y-47886000D01*
X93577682Y-47886682D01*
X93577000Y-47888327D01*
X93577000Y-48951672D01*
X93577682Y-48953317D01*
X93579327Y-48953999D01*
X93650546Y-48953999D01*
X93651461Y-48953927D01*
X93742360Y-48939531D01*
X93744090Y-48938969D01*
X93853655Y-48883143D01*
X93855125Y-48882075D01*
X93879527Y-48857673D01*
X93887800Y-48854246D01*
X93896073Y-48857673D01*
X93899500Y-48865946D01*
X93899500Y-48969721D01*
X93896073Y-48977994D01*
X93890828Y-48981022D01*
X93821489Y-48999601D01*
X93818461Y-49000000D01*
X93647353Y-49000000D01*
X93645071Y-48999775D01*
X93644259Y-48999613D01*
X93644253Y-48999612D01*
X93643688Y-48999500D01*
X93256312Y-48999500D01*
X93255747Y-48999612D01*
X93255741Y-48999613D01*
X93254929Y-48999775D01*
X93252647Y-49000000D01*
X92959295Y-49000000D01*
X92951022Y-48996573D01*
X92947595Y-48988300D01*
X92947718Y-48986611D01*
X92953938Y-48943977D01*
X92954000Y-48943130D01*
X92954000Y-48819446D01*
X92957427Y-48811173D01*
X92965700Y-48807746D01*
X92973973Y-48811173D01*
X93044875Y-48882075D01*
X93046345Y-48883143D01*
X93155910Y-48938969D01*
X93157640Y-48939531D01*
X93248538Y-48953928D01*
X93249453Y-48954000D01*
X93320673Y-48954000D01*
X93322318Y-48953318D01*
X93323000Y-48951673D01*
X93323000Y-47888328D01*
X93322318Y-47886683D01*
X93320673Y-47886001D01*
X93249455Y-47886001D01*
X93248539Y-47886073D01*
X93157640Y-47900469D01*
X93155910Y-47901031D01*
X93046345Y-47956857D01*
X93044875Y-47957925D01*
X92957925Y-48044875D01*
X92956857Y-48046345D01*
X92901031Y-48155910D01*
X92900469Y-48157640D01*
X92886072Y-48248538D01*
X92886000Y-48249453D01*
X92886001Y-48407061D01*
X92882574Y-48415334D01*
X92874301Y-48418761D01*
X92866035Y-48415341D01*
X92809096Y-48358501D01*
X92807542Y-48357393D01*
X92703349Y-48306462D01*
X92701632Y-48305932D01*
X92633977Y-48296062D01*
X92633130Y-48296000D01*
X92629327Y-48296000D01*
X92627682Y-48296682D01*
X92627000Y-48298327D01*
X92627000Y-48895300D01*
X92623573Y-48903573D01*
X92615300Y-48907000D01*
X91544700Y-48907000D01*
X91536427Y-48903573D01*
X91533000Y-48895300D01*
X91533000Y-48650673D01*
X91787000Y-48650673D01*
X91787682Y-48652318D01*
X91789327Y-48653000D01*
X92370673Y-48653000D01*
X92372318Y-48652318D01*
X92373000Y-48650673D01*
X92373000Y-48298327D01*
X92372318Y-48296682D01*
X92370673Y-48296000D01*
X92366879Y-48296000D01*
X92366015Y-48296063D01*
X92297772Y-48306109D01*
X92296047Y-48306645D01*
X92191950Y-48357754D01*
X92190394Y-48358868D01*
X92108501Y-48440904D01*
X92107393Y-48442458D01*
X92090493Y-48477033D01*
X92083782Y-48482961D01*
X92074844Y-48482406D01*
X92069480Y-48477052D01*
X92052244Y-48441948D01*
X92051132Y-48440394D01*
X91969096Y-48358501D01*
X91967542Y-48357393D01*
X91863349Y-48306462D01*
X91861632Y-48305932D01*
X91793977Y-48296062D01*
X91793130Y-48296000D01*
X91789327Y-48296000D01*
X91787682Y-48296682D01*
X91787000Y-48298327D01*
X91787000Y-48650673D01*
X91533000Y-48650673D01*
X91533000Y-48298327D01*
X91532318Y-48296682D01*
X91530673Y-48296000D01*
X91526879Y-48296000D01*
X91526015Y-48296063D01*
X91457772Y-48306109D01*
X91456047Y-48306645D01*
X91351950Y-48357754D01*
X91350394Y-48358868D01*
X91283980Y-48425399D01*
X91275710Y-48428833D01*
X91267434Y-48425413D01*
X91264000Y-48417133D01*
X91263999Y-48249455D01*
X91263927Y-48248539D01*
X91249531Y-48157640D01*
X91248969Y-48155910D01*
X91193143Y-48046345D01*
X91192075Y-48044875D01*
X91105125Y-47957925D01*
X91103655Y-47956857D01*
X90994090Y-47901031D01*
X90992360Y-47900469D01*
X90901462Y-47886072D01*
X90900546Y-47886000D01*
X90829327Y-47886000D01*
X90827682Y-47886682D01*
X90827000Y-47888327D01*
X90827000Y-48951672D01*
X90827682Y-48953317D01*
X90829327Y-48953999D01*
X90900546Y-48953999D01*
X90901461Y-48953927D01*
X90992360Y-48939531D01*
X90994090Y-48938969D01*
X91103655Y-48883143D01*
X91105125Y-48882075D01*
X91186027Y-48801173D01*
X91194300Y-48797746D01*
X91202573Y-48801173D01*
X91206000Y-48809446D01*
X91206000Y-48943121D01*
X91206063Y-48943985D01*
X91212336Y-48986596D01*
X91210151Y-48995280D01*
X91202465Y-48999875D01*
X91200761Y-49000000D01*
X90897353Y-49000000D01*
X90895071Y-48999775D01*
X90894259Y-48999613D01*
X90894253Y-48999612D01*
X90893688Y-48999500D01*
X90529673Y-48999500D01*
X90526645Y-48999101D01*
X90443028Y-48976696D01*
X90437783Y-48973668D01*
X90428356Y-48964241D01*
X90424929Y-48955968D01*
X90428356Y-48947695D01*
X90436629Y-48944268D01*
X90438459Y-48944412D01*
X90498538Y-48953928D01*
X90499453Y-48954000D01*
X90570673Y-48954000D01*
X90572318Y-48953318D01*
X90573000Y-48951673D01*
X90573000Y-47888328D01*
X90572318Y-47886683D01*
X90570673Y-47886001D01*
X90499455Y-47886001D01*
X90498539Y-47886073D01*
X90407640Y-47900469D01*
X90405910Y-47901031D01*
X90367012Y-47920850D01*
X90358084Y-47921552D01*
X90351275Y-47915737D01*
X90350000Y-47910425D01*
X90350000Y-47650000D01*
X90006539Y-47650000D01*
X90003511Y-47649601D01*
X89918028Y-47626696D01*
X89912783Y-47623668D01*
X89851332Y-47562217D01*
X89848304Y-47556972D01*
X89825399Y-47471489D01*
X89825000Y-47468461D01*
X89825000Y-47343850D01*
X89828427Y-47335577D01*
X89836700Y-47332150D01*
X89843200Y-47334122D01*
X89849936Y-47338623D01*
X89852024Y-47339488D01*
X89924414Y-47353887D01*
X89925563Y-47354000D01*
X90370673Y-47354000D01*
X90372318Y-47353318D01*
X90373000Y-47351673D01*
X90373000Y-47351672D01*
X90627000Y-47351672D01*
X90627682Y-47353317D01*
X90629327Y-47353999D01*
X91074436Y-47353999D01*
X91075586Y-47353886D01*
X91147972Y-47339489D01*
X91150067Y-47338621D01*
X91232166Y-47283764D01*
X91233764Y-47282166D01*
X91288623Y-47200064D01*
X91289488Y-47197976D01*
X91303887Y-47125586D01*
X91304000Y-47124437D01*
X91304000Y-45979327D01*
X91303318Y-45977682D01*
X91301673Y-45977000D01*
X90629327Y-45977000D01*
X90627682Y-45977682D01*
X90627000Y-45979327D01*
X90627000Y-47351672D01*
X90373000Y-47351672D01*
X90373000Y-45734700D01*
X90376427Y-45726427D01*
X90384700Y-45723000D01*
X91301672Y-45723000D01*
X91303317Y-45722318D01*
X91303999Y-45720673D01*
X91303999Y-44575564D01*
X91303886Y-44574414D01*
X91296839Y-44538982D01*
X91298586Y-44530200D01*
X91306032Y-44525225D01*
X91308314Y-44525000D01*
X91658403Y-44525000D01*
X91666676Y-44528427D01*
G37*
G04 #@! TD.AperFunction*
G04 #@! TA.AperFunction,Conductor*
G36*
X84179790Y-44220210D02*
G01*
X84200000Y-44269000D01*
X84200000Y-44286784D01*
X84179790Y-44335574D01*
X84131000Y-44355784D01*
X84117539Y-44354458D01*
X84078347Y-44346662D01*
X84071623Y-44346000D01*
X83640724Y-44346000D01*
X83631020Y-44350020D01*
X83627000Y-44359724D01*
X83627000Y-45908000D01*
X83606790Y-45956790D01*
X83558000Y-45977000D01*
X82709725Y-45977000D01*
X82700021Y-45981020D01*
X82696001Y-45990724D01*
X82696001Y-47121621D01*
X82696664Y-47128348D01*
X82709411Y-47192439D01*
X82714446Y-47204594D01*
X82714447Y-47257404D01*
X82677105Y-47294747D01*
X82650699Y-47300000D01*
X82600000Y-47300000D01*
X82600000Y-49031000D01*
X82579790Y-49079790D01*
X82531000Y-49100000D01*
X80209500Y-49100000D01*
X80160710Y-49079790D01*
X80140500Y-49031000D01*
X80140500Y-46948290D01*
X80536001Y-46948290D01*
X80536425Y-46953686D01*
X80549764Y-47037910D01*
X80553077Y-47048105D01*
X80604808Y-47149635D01*
X80611116Y-47158316D01*
X80691684Y-47238884D01*
X80700365Y-47245192D01*
X80801892Y-47296922D01*
X80812096Y-47300237D01*
X80896311Y-47313575D01*
X80901705Y-47314000D01*
X80959276Y-47314000D01*
X80968980Y-47309980D01*
X80973000Y-47300276D01*
X80973000Y-47300275D01*
X81227000Y-47300275D01*
X81231020Y-47309979D01*
X81240724Y-47313999D01*
X81298290Y-47313999D01*
X81303686Y-47313575D01*
X81387910Y-47300236D01*
X81398105Y-47296923D01*
X81499635Y-47245192D01*
X81508316Y-47238884D01*
X81588884Y-47158316D01*
X81595192Y-47149635D01*
X81646922Y-47048108D01*
X81650237Y-47037904D01*
X81663575Y-46953689D01*
X81664000Y-46948295D01*
X81664000Y-46920724D01*
X81659980Y-46911020D01*
X81650276Y-46907000D01*
X81240724Y-46907000D01*
X81231020Y-46911020D01*
X81227000Y-46920724D01*
X81227000Y-47300275D01*
X80973000Y-47300275D01*
X80973000Y-46920724D01*
X80968980Y-46911020D01*
X80959276Y-46907000D01*
X80549725Y-46907000D01*
X80540021Y-46911020D01*
X80536001Y-46920724D01*
X80536001Y-46948290D01*
X80140500Y-46948290D01*
X80140500Y-44301799D01*
X80160710Y-44253009D01*
X80209500Y-44232799D01*
X80258290Y-44253009D01*
X80275710Y-44282375D01*
X80282881Y-44306819D01*
X80284385Y-44309739D01*
X80376652Y-44488887D01*
X80376655Y-44488891D01*
X80378159Y-44491812D01*
X80380190Y-44494398D01*
X80380191Y-44494399D01*
X80446157Y-44578377D01*
X80506699Y-44655451D01*
X80663863Y-44791831D01*
X80775052Y-44856156D01*
X80807164Y-44898080D01*
X80809500Y-44915881D01*
X80809500Y-45381707D01*
X80789290Y-45430497D01*
X80778807Y-45437708D01*
X80779443Y-45438634D01*
X80774194Y-45442241D01*
X80768371Y-45444828D01*
X80694546Y-45518782D01*
X80652295Y-45614353D01*
X80649500Y-45638325D01*
X80649501Y-46001674D01*
X80649742Y-46003700D01*
X80651740Y-46020494D01*
X80652410Y-46026131D01*
X80654513Y-46030865D01*
X80654513Y-46030866D01*
X80692241Y-46115806D01*
X80692243Y-46115808D01*
X80694828Y-46121629D01*
X80699336Y-46126129D01*
X80757546Y-46184238D01*
X80777798Y-46233011D01*
X80757631Y-46281819D01*
X80740123Y-46294551D01*
X80700365Y-46314809D01*
X80691684Y-46321116D01*
X80611116Y-46401684D01*
X80604808Y-46410365D01*
X80553078Y-46511892D01*
X80549763Y-46522096D01*
X80536425Y-46606311D01*
X80536000Y-46611705D01*
X80536000Y-46639276D01*
X80540020Y-46648980D01*
X80549724Y-46653000D01*
X81650275Y-46653000D01*
X81659979Y-46648980D01*
X81663999Y-46639276D01*
X81663999Y-46611710D01*
X81663575Y-46606314D01*
X81650236Y-46522090D01*
X81646923Y-46511895D01*
X81595192Y-46410365D01*
X81588884Y-46401684D01*
X81508316Y-46321116D01*
X81499633Y-46314807D01*
X81459936Y-46294580D01*
X81425639Y-46254423D01*
X81429783Y-46201775D01*
X81442429Y-46184353D01*
X81442544Y-46184238D01*
X81505454Y-46121218D01*
X81547705Y-46025647D01*
X81550500Y-46001675D01*
X81550499Y-45709276D01*
X82696000Y-45709276D01*
X82700020Y-45718980D01*
X82709724Y-45723000D01*
X83359276Y-45723000D01*
X83368980Y-45718980D01*
X83373000Y-45709276D01*
X83373000Y-44359725D01*
X83368980Y-44350021D01*
X83359276Y-44346001D01*
X82928379Y-44346001D01*
X82921652Y-44346664D01*
X82857563Y-44359411D01*
X82845240Y-44364515D01*
X82772527Y-44413100D01*
X82763100Y-44422527D01*
X82714513Y-44495243D01*
X82709411Y-44507559D01*
X82696662Y-44571653D01*
X82696000Y-44578377D01*
X82696000Y-45709276D01*
X81550499Y-45709276D01*
X81550499Y-45638326D01*
X81550114Y-45635092D01*
X81548202Y-45619012D01*
X81548202Y-45619010D01*
X81547590Y-45613869D01*
X81545487Y-45609134D01*
X81507759Y-45524194D01*
X81507757Y-45524192D01*
X81505172Y-45518371D01*
X81468401Y-45481664D01*
X81435725Y-45449045D01*
X81431218Y-45444546D01*
X81425393Y-45441971D01*
X81420518Y-45438633D01*
X81391678Y-45394393D01*
X81390500Y-45381700D01*
X81390500Y-45053178D01*
X81410710Y-45004388D01*
X81449778Y-44984866D01*
X81451061Y-44984683D01*
X81454352Y-44984531D01*
X81656647Y-44935778D01*
X81787937Y-44876084D01*
X81843080Y-44851012D01*
X81843081Y-44851011D01*
X81846073Y-44849651D01*
X81925267Y-44793475D01*
X82013117Y-44731159D01*
X82013121Y-44731155D01*
X82015796Y-44729258D01*
X82159691Y-44578943D01*
X82272566Y-44404130D01*
X82337420Y-44243208D01*
X82374402Y-44205509D01*
X82401418Y-44200000D01*
X84131000Y-44200000D01*
X84179790Y-44220210D01*
G37*
G04 #@! TD.AperFunction*
M02*
