G04 #@! TF.GenerationSoftware,KiCad,Pcbnew,(6.0.4-0)*
G04 #@! TF.CreationDate,2022-05-04T20:04:51-04:00*
G04 #@! TF.ProjectId,pico_ducky_pcb,7069636f-5f64-4756-936b-795f7063622e,rev?*
G04 #@! TF.SameCoordinates,Original*
G04 #@! TF.FileFunction,Copper,L2,Inr*
G04 #@! TF.FilePolarity,Positive*
%FSLAX46Y46*%
G04 Gerber Fmt 4.6, Leading zero omitted, Abs format (unit mm)*
G04 Created by KiCad (PCBNEW (6.0.4-0)) date 2022-05-04 20:04:51*
%MOMM*%
%LPD*%
G01*
G04 APERTURE LIST*
G04 #@! TA.AperFunction,ComponentPad*
%ADD10C,0.600000*%
G04 #@! TD*
G04 #@! TA.AperFunction,ComponentPad*
%ADD11O,1.900000X3.500000*%
G04 #@! TD*
G04 #@! TA.AperFunction,ComponentPad*
%ADD12R,1.000000X1.000000*%
G04 #@! TD*
G04 #@! TA.AperFunction,ComponentPad*
%ADD13O,1.000000X1.000000*%
G04 #@! TD*
G04 #@! TA.AperFunction,ViaPad*
%ADD14C,0.600000*%
G04 #@! TD*
G04 #@! TA.AperFunction,ViaPad*
%ADD15C,0.800000*%
G04 #@! TD*
G04 #@! TA.AperFunction,ViaPad*
%ADD16C,0.550000*%
G04 #@! TD*
G04 APERTURE END LIST*
D10*
X89000000Y-55675000D03*
X90275000Y-54400000D03*
X89000000Y-53125000D03*
X90275000Y-53125000D03*
X90275000Y-55675000D03*
X89000000Y-54400000D03*
X87725000Y-55675000D03*
X87725000Y-53125000D03*
X87725000Y-54400000D03*
D11*
X81300000Y-43100000D03*
X92700000Y-43100000D03*
D12*
X92860000Y-61200000D03*
D13*
X91590000Y-61200000D03*
X92860000Y-62470000D03*
X91590000Y-62470000D03*
X92860000Y-63740000D03*
X91590000Y-63740000D03*
X92860000Y-65010000D03*
X91590000Y-65010000D03*
X92860000Y-66280000D03*
X91590000Y-66280000D03*
D14*
X86650000Y-62700000D03*
X85100000Y-66150000D03*
D15*
X92750000Y-46000000D03*
X91500000Y-46000000D03*
X83800000Y-58850000D03*
D14*
X83800000Y-66250000D03*
X81070000Y-61700000D03*
X89950000Y-65100000D03*
D15*
X81200000Y-50200000D03*
D14*
X85100000Y-47600000D03*
X91350000Y-52850000D03*
D15*
X92750000Y-47750000D03*
X91500000Y-47750000D03*
D14*
X89980000Y-61300000D03*
D15*
X80700000Y-48300000D03*
X82200000Y-45300000D03*
D14*
X84900000Y-49500000D03*
X88480000Y-60600000D03*
X83200000Y-49500000D03*
X84050000Y-49500000D03*
X93300000Y-50700000D03*
X89575000Y-51875000D03*
X92450000Y-50700000D03*
X85575000Y-51275000D03*
X84550000Y-55400000D03*
D15*
X93310000Y-58460000D03*
D14*
X83650000Y-60800000D03*
D16*
X86870000Y-51790000D03*
X81250000Y-55050000D03*
X91500000Y-55800000D03*
X85870000Y-49550000D03*
D15*
X84353008Y-50895359D03*
D16*
X86450000Y-54400000D03*
X90800000Y-56900000D03*
X82850000Y-55050000D03*
X88400000Y-51900000D03*
X82050000Y-55050000D03*
X87600000Y-52170000D03*
X87800000Y-49000000D03*
X88000000Y-47500000D03*
G04 #@! TA.AperFunction,Conductor*
G36*
X91668784Y-44531297D02*
G01*
X91669346Y-44532215D01*
X91801102Y-44708659D01*
X91801809Y-44709445D01*
X91963520Y-44858928D01*
X91964364Y-44859576D01*
X92150601Y-44977082D01*
X92151550Y-44977566D01*
X92356088Y-45059168D01*
X92357102Y-45059469D01*
X92570718Y-45101959D01*
X92572464Y-45101612D01*
X92573000Y-45100809D01*
X92573000Y-44525000D01*
X92827000Y-44525000D01*
X92827000Y-45097583D01*
X92827682Y-45099228D01*
X92828645Y-45099627D01*
X93012423Y-45068048D01*
X93013455Y-45067772D01*
X93220058Y-44991552D01*
X93221015Y-44991095D01*
X93410266Y-44878502D01*
X93411126Y-44877878D01*
X93576686Y-44732685D01*
X93577428Y-44731902D01*
X93713751Y-44558979D01*
X93714336Y-44558078D01*
X93731740Y-44525000D01*
X93899500Y-44525000D01*
X93899500Y-49000000D01*
X90350000Y-49000000D01*
X90350000Y-47650000D01*
X89825000Y-47650000D01*
X89825000Y-44525000D01*
X91665679Y-44525000D01*
X91668784Y-44531297D01*
G37*
G04 #@! TD.AperFunction*
G04 #@! TA.AperFunction,Conductor*
G36*
X93885148Y-40114852D02*
G01*
X93899500Y-40149500D01*
X93899500Y-41799799D01*
X93885148Y-41834447D01*
X93850500Y-41848799D01*
X93815852Y-41834447D01*
X93806553Y-41821471D01*
X93731973Y-41670236D01*
X93729631Y-41666415D01*
X93599923Y-41492714D01*
X93596930Y-41489389D01*
X93437740Y-41342236D01*
X93434189Y-41339511D01*
X93250847Y-41223832D01*
X93246858Y-41221799D01*
X93045503Y-41141466D01*
X93041215Y-41140197D01*
X92836561Y-41099489D01*
X92829243Y-41100944D01*
X92827000Y-41104302D01*
X92827000Y-45090163D01*
X92829855Y-45097055D01*
X92833889Y-45098726D01*
X93010740Y-45068337D01*
X93015060Y-45067180D01*
X93218448Y-44992146D01*
X93222486Y-44990220D01*
X93408794Y-44879378D01*
X93412414Y-44876748D01*
X93575401Y-44733812D01*
X93578485Y-44730562D01*
X93712693Y-44560321D01*
X93715133Y-44556564D01*
X93807136Y-44381694D01*
X93835969Y-44357713D01*
X93873315Y-44361145D01*
X93897296Y-44389978D01*
X93899500Y-44404509D01*
X93899500Y-58357725D01*
X93885148Y-58392373D01*
X93850500Y-58406725D01*
X93815852Y-58392373D01*
X93801995Y-58364671D01*
X93799030Y-58343968D01*
X93795323Y-58318082D01*
X93735984Y-58187572D01*
X93729261Y-58179769D01*
X93644680Y-58081609D01*
X93642400Y-58078963D01*
X93522095Y-58000985D01*
X93384739Y-57959907D01*
X93313681Y-57959473D01*
X93244868Y-57959052D01*
X93244866Y-57959052D01*
X93241376Y-57959031D01*
X93238021Y-57959990D01*
X93238020Y-57959990D01*
X93106884Y-57997469D01*
X93103529Y-57998428D01*
X92982280Y-58074930D01*
X92887377Y-58182388D01*
X92826447Y-58312163D01*
X92821495Y-58343968D01*
X92804927Y-58450377D01*
X92804927Y-58450381D01*
X92804391Y-58453823D01*
X92804843Y-58457280D01*
X92804843Y-58457283D01*
X92822527Y-58592517D01*
X92822980Y-58595979D01*
X92880720Y-58727203D01*
X92972970Y-58836948D01*
X93092313Y-58916390D01*
X93229157Y-58959142D01*
X93232647Y-58959206D01*
X93252558Y-58959571D01*
X93372499Y-58961770D01*
X93510817Y-58924060D01*
X93513788Y-58922236D01*
X93513790Y-58922235D01*
X93630018Y-58850871D01*
X93630021Y-58850869D01*
X93632991Y-58849045D01*
X93642188Y-58838885D01*
X93726855Y-58745345D01*
X93726856Y-58745344D01*
X93729200Y-58742754D01*
X93736735Y-58727203D01*
X93790189Y-58616872D01*
X93791710Y-58613733D01*
X93794160Y-58599174D01*
X93802179Y-58551507D01*
X93822080Y-58519720D01*
X93858630Y-58511316D01*
X93890417Y-58531217D01*
X93899500Y-58559637D01*
X93899500Y-69850500D01*
X93885148Y-69885148D01*
X93850500Y-69899500D01*
X91149500Y-69899500D01*
X91114852Y-69885148D01*
X91100500Y-69850500D01*
X91100500Y-68500000D01*
X91294815Y-68500000D01*
X91295083Y-68502550D01*
X91295083Y-68502552D01*
X91296579Y-68516781D01*
X91313503Y-68677803D01*
X91368750Y-68847835D01*
X91370034Y-68850060D01*
X91370035Y-68850061D01*
X91456569Y-68999942D01*
X91461464Y-69037124D01*
X91448783Y-69059089D01*
X91360574Y-69147298D01*
X91358823Y-69150735D01*
X91358822Y-69150736D01*
X91349670Y-69168699D01*
X91338523Y-69190576D01*
X91348739Y-69255081D01*
X91394919Y-69301261D01*
X91402584Y-69302475D01*
X91451758Y-69310263D01*
X91459424Y-69311477D01*
X91466340Y-69307953D01*
X91466341Y-69307953D01*
X91499264Y-69291178D01*
X91499265Y-69291177D01*
X91502702Y-69289426D01*
X91593836Y-69198292D01*
X91628484Y-69183940D01*
X91657286Y-69193298D01*
X91664160Y-69198292D01*
X91722407Y-69240612D01*
X91885733Y-69313329D01*
X91973171Y-69331915D01*
X92058100Y-69349967D01*
X92058103Y-69349967D01*
X92060609Y-69350500D01*
X92239391Y-69350500D01*
X92241897Y-69349967D01*
X92241900Y-69349967D01*
X92326829Y-69331915D01*
X92414267Y-69313329D01*
X92577593Y-69240612D01*
X92579669Y-69239104D01*
X92579674Y-69239101D01*
X92642715Y-69193299D01*
X92679181Y-69184544D01*
X92706164Y-69198293D01*
X92797298Y-69289427D01*
X92800735Y-69291178D01*
X92833659Y-69307953D01*
X92840577Y-69311478D01*
X92905082Y-69301261D01*
X92951261Y-69255082D01*
X92961478Y-69190577D01*
X92950332Y-69168700D01*
X92941178Y-69150735D01*
X92939427Y-69147298D01*
X92851218Y-69059089D01*
X92836866Y-69024441D01*
X92843431Y-68999942D01*
X92931250Y-68847835D01*
X92986497Y-68677803D01*
X93005185Y-68500000D01*
X92986497Y-68322197D01*
X92931250Y-68152165D01*
X92928753Y-68147839D01*
X92855337Y-68020680D01*
X92843431Y-68000057D01*
X92838536Y-67962877D01*
X92851218Y-67940911D01*
X92939427Y-67852702D01*
X92950331Y-67831301D01*
X92957955Y-67816338D01*
X92957955Y-67816337D01*
X92961478Y-67809423D01*
X92951261Y-67744918D01*
X92905082Y-67698739D01*
X92840577Y-67688522D01*
X92833663Y-67692045D01*
X92833662Y-67692045D01*
X92822907Y-67697525D01*
X92797298Y-67710573D01*
X92706164Y-67801707D01*
X92671516Y-67816059D01*
X92642715Y-67806701D01*
X92579674Y-67760899D01*
X92579668Y-67760895D01*
X92577593Y-67759388D01*
X92414267Y-67686671D01*
X92326829Y-67668085D01*
X92241900Y-67650033D01*
X92241897Y-67650033D01*
X92239391Y-67649500D01*
X92060609Y-67649500D01*
X92058103Y-67650033D01*
X92058100Y-67650033D01*
X91973171Y-67668085D01*
X91885733Y-67686671D01*
X91722408Y-67759388D01*
X91720334Y-67760895D01*
X91720332Y-67760896D01*
X91657286Y-67806702D01*
X91620819Y-67815457D01*
X91593836Y-67801708D01*
X91502702Y-67710574D01*
X91499265Y-67708823D01*
X91499264Y-67708822D01*
X91466341Y-67692047D01*
X91466340Y-67692047D01*
X91459424Y-67688523D01*
X91451758Y-67689737D01*
X91402584Y-67697525D01*
X91394919Y-67698739D01*
X91348739Y-67744919D01*
X91338523Y-67809424D01*
X91342047Y-67816340D01*
X91342047Y-67816341D01*
X91358822Y-67849264D01*
X91360574Y-67852702D01*
X91448782Y-67940910D01*
X91463134Y-67975558D01*
X91456569Y-68000058D01*
X91371248Y-68147839D01*
X91368750Y-68152165D01*
X91313503Y-68322197D01*
X91295530Y-68493199D01*
X91294815Y-68500000D01*
X91100500Y-68500000D01*
X91100500Y-66967346D01*
X91095939Y-66961068D01*
X91095938Y-66961066D01*
X91095224Y-66960084D01*
X91088266Y-66946428D01*
X91087890Y-66945271D01*
X91087888Y-66945269D01*
X91085490Y-66937888D01*
X91078226Y-66932610D01*
X91067388Y-66921772D01*
X91062112Y-66914510D01*
X91054731Y-66912112D01*
X91054729Y-66912110D01*
X91053572Y-66911734D01*
X91039916Y-66904776D01*
X91038934Y-66904062D01*
X91038932Y-66904061D01*
X91032654Y-66899500D01*
X82967346Y-66899500D01*
X82961068Y-66904061D01*
X82961066Y-66904062D01*
X82960084Y-66904776D01*
X82946428Y-66911734D01*
X82945271Y-66912110D01*
X82945269Y-66912112D01*
X82937888Y-66914510D01*
X82932612Y-66921772D01*
X82921774Y-66932610D01*
X82914510Y-66937888D01*
X82912112Y-66945269D01*
X82912110Y-66945271D01*
X82911734Y-66946428D01*
X82904776Y-66960084D01*
X82904062Y-66961066D01*
X82904061Y-66961068D01*
X82899500Y-66967346D01*
X82899500Y-69850500D01*
X82885148Y-69885148D01*
X82850500Y-69899500D01*
X80149500Y-69899500D01*
X80114852Y-69885148D01*
X80100500Y-69850500D01*
X80100500Y-68500000D01*
X80644815Y-68500000D01*
X80645083Y-68502550D01*
X80645083Y-68502552D01*
X80646579Y-68516781D01*
X80663503Y-68677803D01*
X80718750Y-68847835D01*
X80720034Y-68850060D01*
X80720035Y-68850061D01*
X80806569Y-68999942D01*
X80811464Y-69037124D01*
X80798783Y-69059089D01*
X80710574Y-69147298D01*
X80708823Y-69150735D01*
X80708822Y-69150736D01*
X80699670Y-69168699D01*
X80688523Y-69190576D01*
X80698739Y-69255081D01*
X80744919Y-69301261D01*
X80752584Y-69302475D01*
X80801758Y-69310263D01*
X80809424Y-69311477D01*
X80816340Y-69307953D01*
X80816341Y-69307953D01*
X80849264Y-69291178D01*
X80849265Y-69291177D01*
X80852702Y-69289426D01*
X80943836Y-69198292D01*
X80978484Y-69183940D01*
X81007286Y-69193298D01*
X81014160Y-69198292D01*
X81072407Y-69240612D01*
X81235733Y-69313329D01*
X81323171Y-69331915D01*
X81408100Y-69349967D01*
X81408103Y-69349967D01*
X81410609Y-69350500D01*
X81589391Y-69350500D01*
X81591897Y-69349967D01*
X81591900Y-69349967D01*
X81676829Y-69331915D01*
X81764267Y-69313329D01*
X81927593Y-69240612D01*
X81929669Y-69239104D01*
X81929674Y-69239101D01*
X81992715Y-69193299D01*
X82029181Y-69184544D01*
X82056164Y-69198293D01*
X82147298Y-69289427D01*
X82150735Y-69291178D01*
X82183659Y-69307953D01*
X82190577Y-69311478D01*
X82255082Y-69301261D01*
X82301261Y-69255082D01*
X82311478Y-69190577D01*
X82300332Y-69168700D01*
X82291178Y-69150735D01*
X82289427Y-69147298D01*
X82201218Y-69059089D01*
X82186866Y-69024441D01*
X82193431Y-68999942D01*
X82281250Y-68847835D01*
X82336497Y-68677803D01*
X82355185Y-68500000D01*
X82336497Y-68322197D01*
X82281250Y-68152165D01*
X82278753Y-68147839D01*
X82205337Y-68020680D01*
X82193431Y-68000057D01*
X82188536Y-67962877D01*
X82201218Y-67940911D01*
X82289427Y-67852702D01*
X82300331Y-67831301D01*
X82307955Y-67816338D01*
X82307955Y-67816337D01*
X82311478Y-67809423D01*
X82301261Y-67744918D01*
X82255082Y-67698739D01*
X82190577Y-67688522D01*
X82183663Y-67692045D01*
X82183662Y-67692045D01*
X82172907Y-67697525D01*
X82147298Y-67710573D01*
X82056164Y-67801707D01*
X82021516Y-67816059D01*
X81992715Y-67806701D01*
X81929674Y-67760899D01*
X81929668Y-67760895D01*
X81927593Y-67759388D01*
X81764267Y-67686671D01*
X81676829Y-67668085D01*
X81591900Y-67650033D01*
X81591897Y-67650033D01*
X81589391Y-67649500D01*
X81410609Y-67649500D01*
X81408103Y-67650033D01*
X81408100Y-67650033D01*
X81323171Y-67668085D01*
X81235733Y-67686671D01*
X81072408Y-67759388D01*
X81070334Y-67760895D01*
X81070332Y-67760896D01*
X81007286Y-67806702D01*
X80970819Y-67815457D01*
X80943836Y-67801708D01*
X80852702Y-67710574D01*
X80849265Y-67708823D01*
X80849264Y-67708822D01*
X80816341Y-67692047D01*
X80816340Y-67692047D01*
X80809424Y-67688523D01*
X80801758Y-67689737D01*
X80752584Y-67697525D01*
X80744919Y-67698739D01*
X80698739Y-67744919D01*
X80688523Y-67809424D01*
X80692047Y-67816340D01*
X80692047Y-67816341D01*
X80708822Y-67849264D01*
X80710574Y-67852702D01*
X80798782Y-67940910D01*
X80813134Y-67975558D01*
X80806569Y-68000058D01*
X80721248Y-68147839D01*
X80718750Y-68152165D01*
X80663503Y-68322197D01*
X80645530Y-68493199D01*
X80644815Y-68500000D01*
X80100500Y-68500000D01*
X80100500Y-67149500D01*
X80114852Y-67114852D01*
X80149500Y-67100500D01*
X80432654Y-67100500D01*
X80438932Y-67095939D01*
X80438934Y-67095938D01*
X80439916Y-67095224D01*
X80453572Y-67088266D01*
X80454729Y-67087890D01*
X80454731Y-67087888D01*
X80462112Y-67085490D01*
X80467390Y-67078226D01*
X80478226Y-67067390D01*
X80485490Y-67062112D01*
X80487888Y-67054731D01*
X80487890Y-67054729D01*
X80488266Y-67053572D01*
X80495224Y-67039916D01*
X80495938Y-67038934D01*
X80495939Y-67038932D01*
X80500500Y-67032654D01*
X80500500Y-66280000D01*
X90984318Y-66280000D01*
X91004956Y-66436762D01*
X91006183Y-66439724D01*
X91006184Y-66439728D01*
X91064235Y-66579875D01*
X91065464Y-66582841D01*
X91161718Y-66708282D01*
X91287159Y-66804536D01*
X91290122Y-66805763D01*
X91290125Y-66805765D01*
X91430272Y-66863816D01*
X91430276Y-66863817D01*
X91433238Y-66865044D01*
X91436419Y-66865463D01*
X91436420Y-66865463D01*
X91586817Y-66885263D01*
X91590000Y-66885682D01*
X91593183Y-66885263D01*
X91743580Y-66865463D01*
X91743581Y-66865463D01*
X91746762Y-66865044D01*
X91749724Y-66863817D01*
X91749728Y-66863816D01*
X91889875Y-66805765D01*
X91889878Y-66805763D01*
X91892841Y-66804536D01*
X92018282Y-66708282D01*
X92097340Y-66605251D01*
X92129818Y-66586499D01*
X92166043Y-66596206D01*
X92178127Y-66609697D01*
X92257415Y-66740617D01*
X92260736Y-66744930D01*
X92374442Y-66862676D01*
X92378629Y-66866140D01*
X92515595Y-66955768D01*
X92520453Y-66958222D01*
X92673873Y-67015279D01*
X92679148Y-67016594D01*
X92723340Y-67022490D01*
X92730547Y-67020572D01*
X92733000Y-67016341D01*
X92733000Y-67015853D01*
X92987000Y-67015853D01*
X92989855Y-67022745D01*
X92994992Y-67024873D01*
X93009840Y-67023522D01*
X93015178Y-67022426D01*
X93170845Y-66971847D01*
X93175808Y-66969596D01*
X93316396Y-66885789D01*
X93320740Y-66882491D01*
X93439265Y-66769621D01*
X93442770Y-66765445D01*
X93533345Y-66629118D01*
X93535838Y-66624267D01*
X93593960Y-66471261D01*
X93595314Y-66465986D01*
X93602248Y-66416652D01*
X93600380Y-66409430D01*
X93596255Y-66407000D01*
X92996747Y-66407000D01*
X92989855Y-66409855D01*
X92987000Y-66416747D01*
X92987000Y-67015853D01*
X92733000Y-67015853D01*
X92733000Y-66202000D01*
X92747352Y-66167352D01*
X92782000Y-66153000D01*
X93594779Y-66153000D01*
X93601671Y-66150145D01*
X93603666Y-66145330D01*
X93600221Y-66114619D01*
X93599013Y-66109303D01*
X93545184Y-65954732D01*
X93542833Y-65949823D01*
X93456097Y-65811016D01*
X93452713Y-65806746D01*
X93337381Y-65690606D01*
X93333133Y-65687191D01*
X93194933Y-65599487D01*
X93194720Y-65599383D01*
X93194657Y-65599312D01*
X93192623Y-65598021D01*
X93192996Y-65597433D01*
X93169876Y-65571290D01*
X93172174Y-65533857D01*
X93186381Y-65516473D01*
X93285733Y-65440238D01*
X93288282Y-65438282D01*
X93292110Y-65433294D01*
X93382580Y-65315390D01*
X93384536Y-65312841D01*
X93395150Y-65287217D01*
X93443816Y-65169728D01*
X93443817Y-65169724D01*
X93445044Y-65166762D01*
X93457525Y-65071963D01*
X93465263Y-65013183D01*
X93465682Y-65010000D01*
X93465263Y-65006817D01*
X93445463Y-64856420D01*
X93445463Y-64856419D01*
X93445044Y-64853238D01*
X93443817Y-64850276D01*
X93443816Y-64850272D01*
X93385765Y-64710125D01*
X93385763Y-64710122D01*
X93384536Y-64707159D01*
X93288282Y-64581718D01*
X93285733Y-64579762D01*
X93184844Y-64502347D01*
X93166092Y-64469869D01*
X93175799Y-64433644D01*
X93189583Y-64421384D01*
X93316396Y-64345789D01*
X93320740Y-64342491D01*
X93439265Y-64229621D01*
X93442770Y-64225445D01*
X93533345Y-64089118D01*
X93535838Y-64084267D01*
X93593960Y-63931261D01*
X93595314Y-63925986D01*
X93602248Y-63876652D01*
X93600380Y-63869430D01*
X93596255Y-63867000D01*
X92782000Y-63867000D01*
X92747352Y-63852648D01*
X92733000Y-63818000D01*
X92733000Y-63603253D01*
X92987000Y-63603253D01*
X92989855Y-63610145D01*
X92996747Y-63613000D01*
X93594779Y-63613000D01*
X93601671Y-63610145D01*
X93603666Y-63605330D01*
X93600221Y-63574619D01*
X93599013Y-63569303D01*
X93545184Y-63414732D01*
X93542833Y-63409823D01*
X93456097Y-63271016D01*
X93452713Y-63266746D01*
X93337382Y-63150608D01*
X93333128Y-63147187D01*
X93331576Y-63146202D01*
X93331151Y-63145598D01*
X93331000Y-63145476D01*
X93331035Y-63145432D01*
X93310012Y-63115519D01*
X93316461Y-63078575D01*
X93324041Y-63069346D01*
X93439269Y-62959616D01*
X93442770Y-62955445D01*
X93533345Y-62819118D01*
X93535838Y-62814267D01*
X93593960Y-62661261D01*
X93595314Y-62655986D01*
X93602248Y-62606652D01*
X93600380Y-62599430D01*
X93596255Y-62597000D01*
X92996747Y-62597000D01*
X92989855Y-62599855D01*
X92987000Y-62606747D01*
X92987000Y-63603253D01*
X92733000Y-63603253D01*
X92733000Y-62392000D01*
X92747352Y-62357352D01*
X92782000Y-62343000D01*
X93594779Y-62343000D01*
X93601671Y-62340145D01*
X93603666Y-62335330D01*
X93600221Y-62304619D01*
X93599013Y-62299303D01*
X93545184Y-62144732D01*
X93542833Y-62139823D01*
X93456097Y-62001016D01*
X93452713Y-61996746D01*
X93340274Y-61883519D01*
X93326043Y-61848821D01*
X93340516Y-61814223D01*
X93369669Y-61800499D01*
X93369898Y-61800499D01*
X93372261Y-61800029D01*
X93372262Y-61800029D01*
X93379769Y-61798536D01*
X93399213Y-61794669D01*
X93412992Y-61785463D01*
X93428446Y-61775137D01*
X93432457Y-61772457D01*
X93454669Y-61739213D01*
X93460500Y-61709899D01*
X93460500Y-61200000D01*
X93460499Y-60692506D01*
X93460499Y-60690102D01*
X93454669Y-60660787D01*
X93432457Y-60627543D01*
X93428446Y-60624863D01*
X93403226Y-60608012D01*
X93403225Y-60608012D01*
X93399213Y-60605331D01*
X93394479Y-60604389D01*
X93394478Y-60604389D01*
X93388450Y-60603190D01*
X93369899Y-60599500D01*
X93367489Y-60599500D01*
X92859365Y-60599501D01*
X92350102Y-60599501D01*
X92320787Y-60605331D01*
X92316775Y-60608012D01*
X92316774Y-60608012D01*
X92291554Y-60624863D01*
X92287543Y-60627543D01*
X92265331Y-60660787D01*
X92259500Y-60690101D01*
X92259500Y-61000794D01*
X92245148Y-61035442D01*
X92210500Y-61049794D01*
X92175852Y-61035442D01*
X92165230Y-61019545D01*
X92115766Y-60900128D01*
X92115765Y-60900127D01*
X92114536Y-60897159D01*
X92042905Y-60803807D01*
X92020238Y-60774267D01*
X92018282Y-60771718D01*
X91892841Y-60675464D01*
X91889878Y-60674237D01*
X91889875Y-60674235D01*
X91749728Y-60616184D01*
X91749724Y-60616183D01*
X91746762Y-60614956D01*
X91743581Y-60614537D01*
X91743580Y-60614537D01*
X91593183Y-60594737D01*
X91590000Y-60594318D01*
X91586817Y-60594737D01*
X91436420Y-60614537D01*
X91436419Y-60614537D01*
X91433238Y-60614956D01*
X91430276Y-60616183D01*
X91430272Y-60616184D01*
X91290125Y-60674235D01*
X91290122Y-60674237D01*
X91287159Y-60675464D01*
X91161718Y-60771718D01*
X91159762Y-60774267D01*
X91137095Y-60803807D01*
X91065464Y-60897159D01*
X91064237Y-60900122D01*
X91064235Y-60900125D01*
X91006184Y-61040272D01*
X91006183Y-61040276D01*
X91004956Y-61043238D01*
X90984318Y-61200000D01*
X91004956Y-61356762D01*
X91006183Y-61359724D01*
X91006184Y-61359728D01*
X91022536Y-61399205D01*
X91065464Y-61502841D01*
X91161718Y-61628282D01*
X91287159Y-61724536D01*
X91290122Y-61725763D01*
X91290125Y-61725765D01*
X91430272Y-61783816D01*
X91430276Y-61783817D01*
X91433238Y-61785044D01*
X91436419Y-61785463D01*
X91436420Y-61785463D01*
X91443682Y-61786419D01*
X91476160Y-61805171D01*
X91485867Y-61841396D01*
X91467115Y-61873874D01*
X91443682Y-61883581D01*
X91436420Y-61884537D01*
X91436419Y-61884537D01*
X91433238Y-61884956D01*
X91430276Y-61886183D01*
X91430272Y-61886184D01*
X91290125Y-61944235D01*
X91290122Y-61944237D01*
X91287159Y-61945464D01*
X91161718Y-62041718D01*
X91065464Y-62167159D01*
X91064237Y-62170122D01*
X91064235Y-62170125D01*
X91006184Y-62310272D01*
X91006183Y-62310276D01*
X91004956Y-62313238D01*
X91004537Y-62316419D01*
X91004537Y-62316420D01*
X91001414Y-62340145D01*
X90984318Y-62470000D01*
X91004956Y-62626762D01*
X91006183Y-62629724D01*
X91006184Y-62629728D01*
X91064235Y-62769875D01*
X91065464Y-62772841D01*
X91161718Y-62898282D01*
X91287159Y-62994536D01*
X91290122Y-62995763D01*
X91290125Y-62995765D01*
X91430272Y-63053816D01*
X91430276Y-63053817D01*
X91433238Y-63055044D01*
X91436419Y-63055463D01*
X91436420Y-63055463D01*
X91443682Y-63056419D01*
X91476160Y-63075171D01*
X91485867Y-63111396D01*
X91467115Y-63143874D01*
X91443682Y-63153581D01*
X91436420Y-63154537D01*
X91436419Y-63154537D01*
X91433238Y-63154956D01*
X91430276Y-63156183D01*
X91430272Y-63156184D01*
X91290125Y-63214235D01*
X91290122Y-63214237D01*
X91287159Y-63215464D01*
X91161718Y-63311718D01*
X91065464Y-63437159D01*
X91064237Y-63440122D01*
X91064235Y-63440125D01*
X91006184Y-63580272D01*
X91006183Y-63580276D01*
X91004956Y-63583238D01*
X91004537Y-63586419D01*
X91004537Y-63586420D01*
X91001414Y-63610145D01*
X90984318Y-63740000D01*
X90984737Y-63743183D01*
X90993542Y-63810060D01*
X91004956Y-63896762D01*
X91006183Y-63899724D01*
X91006184Y-63899728D01*
X91060752Y-64031466D01*
X91065464Y-64042841D01*
X91161718Y-64168282D01*
X91287159Y-64264536D01*
X91290122Y-64265763D01*
X91290125Y-64265765D01*
X91430272Y-64323816D01*
X91430276Y-64323817D01*
X91433238Y-64325044D01*
X91436419Y-64325463D01*
X91436420Y-64325463D01*
X91443682Y-64326419D01*
X91476160Y-64345171D01*
X91485867Y-64381396D01*
X91467115Y-64413874D01*
X91443682Y-64423581D01*
X91436420Y-64424537D01*
X91436419Y-64424537D01*
X91433238Y-64424956D01*
X91430276Y-64426183D01*
X91430272Y-64426184D01*
X91290125Y-64484235D01*
X91290122Y-64484237D01*
X91287159Y-64485464D01*
X91161718Y-64581718D01*
X91065464Y-64707159D01*
X91064237Y-64710122D01*
X91064235Y-64710125D01*
X91006184Y-64850272D01*
X91006183Y-64850276D01*
X91004956Y-64853238D01*
X91004537Y-64856419D01*
X91004537Y-64856420D01*
X90984737Y-65006817D01*
X90984318Y-65010000D01*
X90984737Y-65013183D01*
X90992476Y-65071963D01*
X91004956Y-65166762D01*
X91006183Y-65169724D01*
X91006184Y-65169728D01*
X91054850Y-65287217D01*
X91065464Y-65312841D01*
X91067420Y-65315390D01*
X91157891Y-65433294D01*
X91161718Y-65438282D01*
X91287159Y-65534536D01*
X91290122Y-65535763D01*
X91290125Y-65535765D01*
X91430272Y-65593816D01*
X91430276Y-65593817D01*
X91433238Y-65595044D01*
X91436419Y-65595463D01*
X91436420Y-65595463D01*
X91443682Y-65596419D01*
X91476160Y-65615171D01*
X91485867Y-65651396D01*
X91467115Y-65683874D01*
X91443682Y-65693581D01*
X91436420Y-65694537D01*
X91436419Y-65694537D01*
X91433238Y-65694956D01*
X91430276Y-65696183D01*
X91430272Y-65696184D01*
X91290125Y-65754235D01*
X91290122Y-65754237D01*
X91287159Y-65755464D01*
X91161718Y-65851718D01*
X91065464Y-65977159D01*
X91064237Y-65980122D01*
X91064235Y-65980125D01*
X91006184Y-66120272D01*
X91006183Y-66120276D01*
X91004956Y-66123238D01*
X91004537Y-66126419D01*
X91004537Y-66126420D01*
X91001414Y-66150145D01*
X90984318Y-66280000D01*
X80500500Y-66280000D01*
X80500500Y-65585247D01*
X81793980Y-65585247D01*
X81824095Y-65734603D01*
X81825611Y-65737579D01*
X81825612Y-65737581D01*
X81882771Y-65849762D01*
X81893266Y-65870359D01*
X81996396Y-65982512D01*
X82125887Y-66062800D01*
X82272200Y-66105307D01*
X82283012Y-66106101D01*
X82392365Y-66106101D01*
X82394012Y-66105875D01*
X82394018Y-66105875D01*
X82449053Y-66098336D01*
X82505152Y-66090651D01*
X82508219Y-66089324D01*
X82641917Y-66031468D01*
X82641918Y-66031467D01*
X82644983Y-66030141D01*
X82763391Y-65934256D01*
X82851651Y-65810062D01*
X82855808Y-65798518D01*
X82902129Y-65669856D01*
X82902130Y-65669854D01*
X82903262Y-65666708D01*
X82914420Y-65514755D01*
X82884305Y-65365399D01*
X82857526Y-65312841D01*
X82816653Y-65232624D01*
X82816653Y-65232623D01*
X82815134Y-65229643D01*
X82712004Y-65117490D01*
X82582513Y-65037202D01*
X82436200Y-64994695D01*
X82425388Y-64993901D01*
X82316035Y-64993901D01*
X82314388Y-64994127D01*
X82314382Y-64994127D01*
X82259347Y-65001666D01*
X82203248Y-65009351D01*
X82200182Y-65010678D01*
X82200181Y-65010678D01*
X82066483Y-65068534D01*
X82066482Y-65068535D01*
X82063417Y-65069861D01*
X81945009Y-65165746D01*
X81856749Y-65289940D01*
X81855618Y-65293080D01*
X81855617Y-65293083D01*
X81806271Y-65430146D01*
X81805138Y-65433294D01*
X81793980Y-65585247D01*
X80500500Y-65585247D01*
X80500500Y-63585245D01*
X81793980Y-63585245D01*
X81824095Y-63734601D01*
X81825611Y-63737577D01*
X81825612Y-63737579D01*
X81891747Y-63867376D01*
X81893266Y-63870357D01*
X81895528Y-63872817D01*
X81914621Y-63893580D01*
X81996396Y-63982510D01*
X82125887Y-64062798D01*
X82272200Y-64105305D01*
X82283012Y-64106099D01*
X82392365Y-64106099D01*
X82394012Y-64105873D01*
X82394018Y-64105873D01*
X82449053Y-64098334D01*
X82505152Y-64090649D01*
X82519900Y-64084267D01*
X82641917Y-64031466D01*
X82641918Y-64031465D01*
X82644983Y-64030139D01*
X82763391Y-63934254D01*
X82851651Y-63810060D01*
X82875729Y-63743183D01*
X82902129Y-63669854D01*
X82902130Y-63669852D01*
X82903262Y-63666706D01*
X82914420Y-63514753D01*
X82884305Y-63365397D01*
X82856955Y-63311718D01*
X82816653Y-63232622D01*
X82816653Y-63232621D01*
X82815134Y-63229641D01*
X82712004Y-63117488D01*
X82582513Y-63037200D01*
X82436200Y-62994693D01*
X82425388Y-62993899D01*
X82316035Y-62993899D01*
X82314388Y-62994125D01*
X82314382Y-62994125D01*
X82259347Y-63001664D01*
X82203248Y-63009349D01*
X82200182Y-63010676D01*
X82200181Y-63010676D01*
X82066483Y-63068532D01*
X82066482Y-63068533D01*
X82063417Y-63069859D01*
X82060822Y-63071960D01*
X82060821Y-63071961D01*
X82027920Y-63098604D01*
X81945009Y-63165744D01*
X81856749Y-63289938D01*
X81855618Y-63293078D01*
X81855617Y-63293081D01*
X81806271Y-63430144D01*
X81805138Y-63433292D01*
X81793980Y-63585245D01*
X80500500Y-63585245D01*
X80500500Y-60800000D01*
X83244508Y-60800000D01*
X83245111Y-60803807D01*
X83260367Y-60900128D01*
X83264354Y-60925304D01*
X83321950Y-61038342D01*
X83411658Y-61128050D01*
X83415091Y-61129799D01*
X83415092Y-61129800D01*
X83468177Y-61156848D01*
X83524696Y-61185646D01*
X83528501Y-61186249D01*
X83528502Y-61186249D01*
X83646193Y-61204889D01*
X83650000Y-61205492D01*
X83653807Y-61204889D01*
X83771498Y-61186249D01*
X83771499Y-61186249D01*
X83775304Y-61185646D01*
X83831823Y-61156848D01*
X83884908Y-61129800D01*
X83884909Y-61129799D01*
X83888342Y-61128050D01*
X83978050Y-61038342D01*
X84035646Y-60925304D01*
X84039634Y-60900128D01*
X84054889Y-60803807D01*
X84055492Y-60800000D01*
X84044205Y-60728738D01*
X84036249Y-60678502D01*
X84036249Y-60678501D01*
X84035646Y-60674696D01*
X83997586Y-60600000D01*
X88074508Y-60600000D01*
X88075111Y-60603807D01*
X88088779Y-60690102D01*
X88094354Y-60725304D01*
X88151950Y-60838342D01*
X88241658Y-60928050D01*
X88245091Y-60929799D01*
X88245092Y-60929800D01*
X88298177Y-60956848D01*
X88354696Y-60985646D01*
X88358501Y-60986249D01*
X88358502Y-60986249D01*
X88476193Y-61004889D01*
X88480000Y-61005492D01*
X88483807Y-61004889D01*
X88601498Y-60986249D01*
X88601499Y-60986249D01*
X88605304Y-60985646D01*
X88661823Y-60956848D01*
X88714908Y-60929800D01*
X88714909Y-60929799D01*
X88718342Y-60928050D01*
X88808050Y-60838342D01*
X88865646Y-60725304D01*
X88871222Y-60690102D01*
X88884889Y-60603807D01*
X88885492Y-60600000D01*
X88865646Y-60474696D01*
X88808050Y-60361658D01*
X88718342Y-60271950D01*
X88714909Y-60270201D01*
X88714908Y-60270200D01*
X88661823Y-60243152D01*
X88605304Y-60214354D01*
X88601499Y-60213751D01*
X88601498Y-60213751D01*
X88483807Y-60195111D01*
X88480000Y-60194508D01*
X88476193Y-60195111D01*
X88358502Y-60213751D01*
X88358501Y-60213751D01*
X88354696Y-60214354D01*
X88298177Y-60243152D01*
X88245092Y-60270200D01*
X88245091Y-60270201D01*
X88241658Y-60271950D01*
X88151950Y-60361658D01*
X88094354Y-60474696D01*
X88074508Y-60600000D01*
X83997586Y-60600000D01*
X83978050Y-60561658D01*
X83888342Y-60471950D01*
X83884909Y-60470201D01*
X83884908Y-60470200D01*
X83831823Y-60443152D01*
X83775304Y-60414354D01*
X83771499Y-60413751D01*
X83771498Y-60413751D01*
X83653807Y-60395111D01*
X83650000Y-60394508D01*
X83646193Y-60395111D01*
X83528502Y-60413751D01*
X83528501Y-60413751D01*
X83524696Y-60414354D01*
X83468177Y-60443152D01*
X83415092Y-60470200D01*
X83415091Y-60470201D01*
X83411658Y-60471950D01*
X83321950Y-60561658D01*
X83264354Y-60674696D01*
X83263751Y-60678501D01*
X83263751Y-60678502D01*
X83255795Y-60728738D01*
X83244508Y-60800000D01*
X80500500Y-60800000D01*
X80500500Y-58935247D01*
X81793980Y-58935247D01*
X81824095Y-59084603D01*
X81825611Y-59087579D01*
X81825612Y-59087581D01*
X81891747Y-59217378D01*
X81893266Y-59220359D01*
X81996396Y-59332512D01*
X82125887Y-59412800D01*
X82272200Y-59455307D01*
X82283012Y-59456101D01*
X82392365Y-59456101D01*
X82394012Y-59455875D01*
X82394018Y-59455875D01*
X82449053Y-59448336D01*
X82505152Y-59440651D01*
X82508219Y-59439324D01*
X82641917Y-59381468D01*
X82641918Y-59381467D01*
X82644983Y-59380141D01*
X82763391Y-59284256D01*
X82851651Y-59160062D01*
X82878819Y-59084603D01*
X82902129Y-59019856D01*
X82902130Y-59019854D01*
X82903262Y-59016708D01*
X82914420Y-58864755D01*
X82884305Y-58715399D01*
X82844470Y-58637217D01*
X82816653Y-58582624D01*
X82816653Y-58582623D01*
X82815134Y-58579643D01*
X82712004Y-58467490D01*
X82582513Y-58387202D01*
X82436200Y-58344695D01*
X82425388Y-58343901D01*
X82316035Y-58343901D01*
X82314388Y-58344127D01*
X82314382Y-58344127D01*
X82259347Y-58351666D01*
X82203248Y-58359351D01*
X82200182Y-58360678D01*
X82200181Y-58360678D01*
X82066483Y-58418534D01*
X82066482Y-58418535D01*
X82063417Y-58419861D01*
X81945009Y-58515746D01*
X81856749Y-58639940D01*
X81855618Y-58643080D01*
X81855617Y-58643083D01*
X81806271Y-58780146D01*
X81805138Y-58783294D01*
X81793980Y-58935247D01*
X80500500Y-58935247D01*
X80500500Y-56935245D01*
X81793980Y-56935245D01*
X81824095Y-57084601D01*
X81825611Y-57087577D01*
X81825612Y-57087579D01*
X81885363Y-57204847D01*
X81893266Y-57220357D01*
X81996396Y-57332510D01*
X82125887Y-57412798D01*
X82272200Y-57455305D01*
X82283012Y-57456099D01*
X82392365Y-57456099D01*
X82394012Y-57455873D01*
X82394018Y-57455873D01*
X82449053Y-57448334D01*
X82505152Y-57440649D01*
X82508219Y-57439322D01*
X82641917Y-57381466D01*
X82641918Y-57381465D01*
X82644983Y-57380139D01*
X82763391Y-57284254D01*
X82851651Y-57160060D01*
X82864827Y-57123465D01*
X82902129Y-57019854D01*
X82902130Y-57019852D01*
X82903262Y-57016706D01*
X82911832Y-56900000D01*
X90419819Y-56900000D01*
X90438426Y-57017482D01*
X90492427Y-57123465D01*
X90576535Y-57207573D01*
X90579968Y-57209322D01*
X90579969Y-57209323D01*
X90595774Y-57217376D01*
X90682518Y-57261574D01*
X90686323Y-57262177D01*
X90686324Y-57262177D01*
X90796193Y-57279578D01*
X90800000Y-57280181D01*
X90803807Y-57279578D01*
X90913676Y-57262177D01*
X90913677Y-57262177D01*
X90917482Y-57261574D01*
X91004226Y-57217376D01*
X91020031Y-57209323D01*
X91020032Y-57209322D01*
X91023465Y-57207573D01*
X91107573Y-57123465D01*
X91161574Y-57017482D01*
X91180181Y-56900000D01*
X91161574Y-56782518D01*
X91107573Y-56676535D01*
X91023465Y-56592427D01*
X91020032Y-56590678D01*
X91020031Y-56590677D01*
X90970474Y-56565427D01*
X90917482Y-56538426D01*
X90913677Y-56537823D01*
X90913676Y-56537823D01*
X90803807Y-56520422D01*
X90800000Y-56519819D01*
X90796193Y-56520422D01*
X90686324Y-56537823D01*
X90686323Y-56537823D01*
X90682518Y-56538426D01*
X90629526Y-56565427D01*
X90579969Y-56590677D01*
X90579968Y-56590678D01*
X90576535Y-56592427D01*
X90492427Y-56676535D01*
X90438426Y-56782518D01*
X90419819Y-56900000D01*
X82911832Y-56900000D01*
X82914420Y-56864753D01*
X82884305Y-56715397D01*
X82844470Y-56637215D01*
X82816653Y-56582622D01*
X82816653Y-56582621D01*
X82815134Y-56579641D01*
X82712004Y-56467488D01*
X82582513Y-56387200D01*
X82436200Y-56344693D01*
X82425388Y-56343899D01*
X82316035Y-56343899D01*
X82314388Y-56344125D01*
X82314382Y-56344125D01*
X82259347Y-56351664D01*
X82203248Y-56359349D01*
X82200182Y-56360676D01*
X82200181Y-56360676D01*
X82066483Y-56418532D01*
X82066482Y-56418533D01*
X82063417Y-56419859D01*
X81945009Y-56515744D01*
X81856749Y-56639938D01*
X81855618Y-56643078D01*
X81855617Y-56643081D01*
X81806653Y-56779084D01*
X81805138Y-56783292D01*
X81793980Y-56935245D01*
X80500500Y-56935245D01*
X80500500Y-56148097D01*
X87435546Y-56148097D01*
X87437427Y-56152639D01*
X87443061Y-56156962D01*
X87448580Y-56160148D01*
X87577408Y-56213510D01*
X87583561Y-56215159D01*
X87721817Y-56233361D01*
X87728183Y-56233361D01*
X87866439Y-56215159D01*
X87872592Y-56213510D01*
X88001420Y-56160148D01*
X88006939Y-56156962D01*
X88010760Y-56154030D01*
X88014185Y-56148097D01*
X88710546Y-56148097D01*
X88712427Y-56152639D01*
X88718061Y-56156962D01*
X88723580Y-56160148D01*
X88852408Y-56213510D01*
X88858561Y-56215159D01*
X88996817Y-56233361D01*
X89003183Y-56233361D01*
X89141439Y-56215159D01*
X89147592Y-56213510D01*
X89276420Y-56160148D01*
X89281939Y-56156962D01*
X89285760Y-56154030D01*
X89289185Y-56148097D01*
X89985546Y-56148097D01*
X89987427Y-56152639D01*
X89993061Y-56156962D01*
X89998580Y-56160148D01*
X90127408Y-56213510D01*
X90133561Y-56215159D01*
X90271817Y-56233361D01*
X90278183Y-56233361D01*
X90416439Y-56215159D01*
X90422592Y-56213510D01*
X90551420Y-56160148D01*
X90556939Y-56156962D01*
X90560760Y-56154030D01*
X90564489Y-56147570D01*
X90563217Y-56142822D01*
X90281893Y-55861498D01*
X90275000Y-55858643D01*
X90268107Y-55861498D01*
X89988401Y-56141204D01*
X89985546Y-56148097D01*
X89289185Y-56148097D01*
X89289489Y-56147570D01*
X89288217Y-56142822D01*
X89006893Y-55861498D01*
X89000000Y-55858643D01*
X88993107Y-55861498D01*
X88713401Y-56141204D01*
X88710546Y-56148097D01*
X88014185Y-56148097D01*
X88014489Y-56147570D01*
X88013217Y-56142822D01*
X87731893Y-55861498D01*
X87725000Y-55858643D01*
X87718107Y-55861498D01*
X87438401Y-56141204D01*
X87435546Y-56148097D01*
X80500500Y-56148097D01*
X80500500Y-55367346D01*
X80495939Y-55361068D01*
X80495938Y-55361066D01*
X80495224Y-55360084D01*
X80488266Y-55346428D01*
X80487890Y-55345271D01*
X80487888Y-55345269D01*
X80485490Y-55337888D01*
X80478226Y-55332610D01*
X80467388Y-55321772D01*
X80462112Y-55314510D01*
X80454731Y-55312112D01*
X80454729Y-55312110D01*
X80453572Y-55311734D01*
X80439916Y-55304776D01*
X80438934Y-55304062D01*
X80438932Y-55304061D01*
X80432654Y-55299500D01*
X80149500Y-55299500D01*
X80114852Y-55285148D01*
X80100500Y-55250500D01*
X80100500Y-55050000D01*
X80869819Y-55050000D01*
X80870422Y-55053807D01*
X80887504Y-55161658D01*
X80888426Y-55167482D01*
X80902941Y-55195970D01*
X80940676Y-55270028D01*
X80942427Y-55273465D01*
X81026535Y-55357573D01*
X81029968Y-55359322D01*
X81029969Y-55359323D01*
X81060949Y-55375108D01*
X81132518Y-55411574D01*
X81136323Y-55412177D01*
X81136324Y-55412177D01*
X81246193Y-55429578D01*
X81250000Y-55430181D01*
X81253807Y-55429578D01*
X81363676Y-55412177D01*
X81363677Y-55412177D01*
X81367482Y-55411574D01*
X81439051Y-55375108D01*
X81470031Y-55359323D01*
X81470032Y-55359322D01*
X81473465Y-55357573D01*
X81557573Y-55273465D01*
X81559323Y-55270031D01*
X81559325Y-55270028D01*
X81606341Y-55177753D01*
X81634858Y-55153396D01*
X81672245Y-55156339D01*
X81693659Y-55177753D01*
X81740675Y-55270028D01*
X81740677Y-55270031D01*
X81742427Y-55273465D01*
X81826535Y-55357573D01*
X81829968Y-55359322D01*
X81829969Y-55359323D01*
X81860949Y-55375108D01*
X81932518Y-55411574D01*
X81936323Y-55412177D01*
X81936324Y-55412177D01*
X82046193Y-55429578D01*
X82050000Y-55430181D01*
X82053807Y-55429578D01*
X82163676Y-55412177D01*
X82163677Y-55412177D01*
X82167482Y-55411574D01*
X82239051Y-55375108D01*
X82270031Y-55359323D01*
X82270032Y-55359322D01*
X82273465Y-55357573D01*
X82357573Y-55273465D01*
X82359323Y-55270031D01*
X82359325Y-55270028D01*
X82406341Y-55177753D01*
X82434858Y-55153396D01*
X82472245Y-55156339D01*
X82493659Y-55177753D01*
X82540675Y-55270028D01*
X82540677Y-55270031D01*
X82542427Y-55273465D01*
X82626535Y-55357573D01*
X82629968Y-55359322D01*
X82629969Y-55359323D01*
X82660949Y-55375108D01*
X82732518Y-55411574D01*
X82736323Y-55412177D01*
X82736324Y-55412177D01*
X82846193Y-55429578D01*
X82850000Y-55430181D01*
X82853807Y-55429578D01*
X82963676Y-55412177D01*
X82963677Y-55412177D01*
X82967482Y-55411574D01*
X82990197Y-55400000D01*
X84144508Y-55400000D01*
X84145111Y-55403807D01*
X84159579Y-55495153D01*
X84164354Y-55525304D01*
X84221950Y-55638342D01*
X84311658Y-55728050D01*
X84315091Y-55729799D01*
X84315092Y-55729800D01*
X84368177Y-55756848D01*
X84424696Y-55785646D01*
X84428501Y-55786249D01*
X84428502Y-55786249D01*
X84546193Y-55804889D01*
X84550000Y-55805492D01*
X84553807Y-55804889D01*
X84671498Y-55786249D01*
X84671499Y-55786249D01*
X84675304Y-55785646D01*
X84731823Y-55756848D01*
X84784908Y-55729800D01*
X84784909Y-55729799D01*
X84788342Y-55728050D01*
X84838209Y-55678183D01*
X87166639Y-55678183D01*
X87184841Y-55816439D01*
X87186490Y-55822592D01*
X87239852Y-55951420D01*
X87243038Y-55956939D01*
X87245970Y-55960760D01*
X87252430Y-55964489D01*
X87257178Y-55963217D01*
X87538502Y-55681893D01*
X87541357Y-55675000D01*
X87908643Y-55675000D01*
X87911498Y-55681893D01*
X88191204Y-55961599D01*
X88198097Y-55964454D01*
X88202639Y-55962573D01*
X88206962Y-55956939D01*
X88210148Y-55951420D01*
X88263510Y-55822592D01*
X88265159Y-55816439D01*
X88283361Y-55678183D01*
X88441639Y-55678183D01*
X88459841Y-55816439D01*
X88461490Y-55822592D01*
X88514852Y-55951420D01*
X88518038Y-55956939D01*
X88520970Y-55960760D01*
X88527430Y-55964489D01*
X88532178Y-55963217D01*
X88813502Y-55681893D01*
X88816357Y-55675000D01*
X89183643Y-55675000D01*
X89186498Y-55681893D01*
X89466204Y-55961599D01*
X89473097Y-55964454D01*
X89477639Y-55962573D01*
X89481962Y-55956939D01*
X89485148Y-55951420D01*
X89538510Y-55822592D01*
X89540159Y-55816439D01*
X89558361Y-55678183D01*
X89716639Y-55678183D01*
X89734841Y-55816439D01*
X89736490Y-55822592D01*
X89789852Y-55951420D01*
X89793038Y-55956939D01*
X89795970Y-55960760D01*
X89802430Y-55964489D01*
X89807178Y-55963217D01*
X90088502Y-55681893D01*
X90091357Y-55675000D01*
X90458643Y-55675000D01*
X90461498Y-55681893D01*
X90741204Y-55961599D01*
X90748097Y-55964454D01*
X90752639Y-55962573D01*
X90756962Y-55956939D01*
X90760148Y-55951420D01*
X90813510Y-55822592D01*
X90815159Y-55816439D01*
X90817323Y-55800000D01*
X91119819Y-55800000D01*
X91138426Y-55917482D01*
X91192427Y-56023465D01*
X91276535Y-56107573D01*
X91279968Y-56109322D01*
X91279969Y-56109323D01*
X91329526Y-56134573D01*
X91382518Y-56161574D01*
X91386323Y-56162177D01*
X91386324Y-56162177D01*
X91496193Y-56179578D01*
X91500000Y-56180181D01*
X91503807Y-56179578D01*
X91613676Y-56162177D01*
X91613677Y-56162177D01*
X91617482Y-56161574D01*
X91670474Y-56134573D01*
X91720031Y-56109323D01*
X91720032Y-56109322D01*
X91723465Y-56107573D01*
X91807573Y-56023465D01*
X91861574Y-55917482D01*
X91880181Y-55800000D01*
X91869063Y-55729800D01*
X91862177Y-55686324D01*
X91862177Y-55686323D01*
X91861574Y-55682518D01*
X91807573Y-55576535D01*
X91723465Y-55492427D01*
X91720032Y-55490678D01*
X91720031Y-55490677D01*
X91663968Y-55462112D01*
X91617482Y-55438426D01*
X91613677Y-55437823D01*
X91613676Y-55437823D01*
X91503807Y-55420422D01*
X91500000Y-55419819D01*
X91496193Y-55420422D01*
X91386324Y-55437823D01*
X91386323Y-55437823D01*
X91382518Y-55438426D01*
X91336032Y-55462112D01*
X91279969Y-55490677D01*
X91279968Y-55490678D01*
X91276535Y-55492427D01*
X91192427Y-55576535D01*
X91138426Y-55682518D01*
X91137823Y-55686323D01*
X91137823Y-55686324D01*
X91130937Y-55729800D01*
X91119819Y-55800000D01*
X90817323Y-55800000D01*
X90833361Y-55678183D01*
X90833361Y-55671817D01*
X90815159Y-55533561D01*
X90813510Y-55527408D01*
X90760148Y-55398580D01*
X90756962Y-55393061D01*
X90754030Y-55389240D01*
X90747570Y-55385511D01*
X90742822Y-55386783D01*
X90461498Y-55668107D01*
X90458643Y-55675000D01*
X90091357Y-55675000D01*
X90088502Y-55668107D01*
X89808796Y-55388401D01*
X89801903Y-55385546D01*
X89797361Y-55387427D01*
X89793038Y-55393061D01*
X89789852Y-55398580D01*
X89736490Y-55527408D01*
X89734841Y-55533561D01*
X89716639Y-55671817D01*
X89716639Y-55678183D01*
X89558361Y-55678183D01*
X89558361Y-55671817D01*
X89540159Y-55533561D01*
X89538510Y-55527408D01*
X89485148Y-55398580D01*
X89481962Y-55393061D01*
X89479030Y-55389240D01*
X89472570Y-55385511D01*
X89467822Y-55386783D01*
X89186498Y-55668107D01*
X89183643Y-55675000D01*
X88816357Y-55675000D01*
X88813502Y-55668107D01*
X88533796Y-55388401D01*
X88526903Y-55385546D01*
X88522361Y-55387427D01*
X88518038Y-55393061D01*
X88514852Y-55398580D01*
X88461490Y-55527408D01*
X88459841Y-55533561D01*
X88441639Y-55671817D01*
X88441639Y-55678183D01*
X88283361Y-55678183D01*
X88283361Y-55671817D01*
X88265159Y-55533561D01*
X88263510Y-55527408D01*
X88210148Y-55398580D01*
X88206962Y-55393061D01*
X88204030Y-55389240D01*
X88197570Y-55385511D01*
X88192822Y-55386783D01*
X87911498Y-55668107D01*
X87908643Y-55675000D01*
X87541357Y-55675000D01*
X87538502Y-55668107D01*
X87258796Y-55388401D01*
X87251903Y-55385546D01*
X87247361Y-55387427D01*
X87243038Y-55393061D01*
X87239852Y-55398580D01*
X87186490Y-55527408D01*
X87184841Y-55533561D01*
X87166639Y-55671817D01*
X87166639Y-55678183D01*
X84838209Y-55678183D01*
X84878050Y-55638342D01*
X84935646Y-55525304D01*
X84940422Y-55495153D01*
X84954889Y-55403807D01*
X84955492Y-55400000D01*
X84939575Y-55299500D01*
X84936249Y-55278502D01*
X84936249Y-55278501D01*
X84935646Y-55274696D01*
X84901244Y-55207178D01*
X84898825Y-55202430D01*
X87435511Y-55202430D01*
X87436783Y-55207178D01*
X87718107Y-55488502D01*
X87725000Y-55491357D01*
X87731893Y-55488502D01*
X88011599Y-55208796D01*
X88014236Y-55202430D01*
X88710511Y-55202430D01*
X88711783Y-55207178D01*
X88993107Y-55488502D01*
X89000000Y-55491357D01*
X89006893Y-55488502D01*
X89286599Y-55208796D01*
X89289236Y-55202430D01*
X89985511Y-55202430D01*
X89986783Y-55207178D01*
X90268107Y-55488502D01*
X90275000Y-55491357D01*
X90281893Y-55488502D01*
X90561599Y-55208796D01*
X90564454Y-55201903D01*
X90562573Y-55197361D01*
X90556939Y-55193038D01*
X90551420Y-55189852D01*
X90422592Y-55136490D01*
X90416439Y-55134841D01*
X90278183Y-55116639D01*
X90271817Y-55116639D01*
X90133561Y-55134841D01*
X90127408Y-55136490D01*
X89998580Y-55189852D01*
X89993061Y-55193038D01*
X89989240Y-55195970D01*
X89985511Y-55202430D01*
X89289236Y-55202430D01*
X89289454Y-55201903D01*
X89287573Y-55197361D01*
X89281939Y-55193038D01*
X89276420Y-55189852D01*
X89147592Y-55136490D01*
X89141439Y-55134841D01*
X89003183Y-55116639D01*
X88996817Y-55116639D01*
X88858561Y-55134841D01*
X88852408Y-55136490D01*
X88723580Y-55189852D01*
X88718061Y-55193038D01*
X88714240Y-55195970D01*
X88710511Y-55202430D01*
X88014236Y-55202430D01*
X88014454Y-55201903D01*
X88012573Y-55197361D01*
X88006939Y-55193038D01*
X88001420Y-55189852D01*
X87872592Y-55136490D01*
X87866439Y-55134841D01*
X87728183Y-55116639D01*
X87721817Y-55116639D01*
X87583561Y-55134841D01*
X87577408Y-55136490D01*
X87448580Y-55189852D01*
X87443061Y-55193038D01*
X87439240Y-55195970D01*
X87435511Y-55202430D01*
X84898825Y-55202430D01*
X84879800Y-55165092D01*
X84879799Y-55165091D01*
X84878050Y-55161658D01*
X84788342Y-55071950D01*
X84784909Y-55070201D01*
X84784908Y-55070200D01*
X84731823Y-55043152D01*
X84675304Y-55014354D01*
X84671499Y-55013751D01*
X84671498Y-55013751D01*
X84553807Y-54995111D01*
X84550000Y-54994508D01*
X84546193Y-54995111D01*
X84428502Y-55013751D01*
X84428501Y-55013751D01*
X84424696Y-55014354D01*
X84368177Y-55043152D01*
X84315092Y-55070200D01*
X84315091Y-55070201D01*
X84311658Y-55071950D01*
X84221950Y-55161658D01*
X84220201Y-55165091D01*
X84220200Y-55165092D01*
X84198756Y-55207178D01*
X84164354Y-55274696D01*
X84163751Y-55278501D01*
X84163751Y-55278502D01*
X84160425Y-55299500D01*
X84144508Y-55400000D01*
X82990197Y-55400000D01*
X83039051Y-55375108D01*
X83070031Y-55359323D01*
X83070032Y-55359322D01*
X83073465Y-55357573D01*
X83157573Y-55273465D01*
X83159325Y-55270028D01*
X83197059Y-55195970D01*
X83211574Y-55167482D01*
X83212497Y-55161658D01*
X83229578Y-55053807D01*
X83230181Y-55050000D01*
X83226618Y-55027504D01*
X83212177Y-54936324D01*
X83212177Y-54936323D01*
X83211574Y-54932518D01*
X83181297Y-54873097D01*
X87435546Y-54873097D01*
X87437427Y-54877639D01*
X87443061Y-54881962D01*
X87448580Y-54885148D01*
X87577408Y-54938510D01*
X87583561Y-54940159D01*
X87721817Y-54958361D01*
X87728183Y-54958361D01*
X87866439Y-54940159D01*
X87872592Y-54938510D01*
X88001420Y-54885148D01*
X88006939Y-54881962D01*
X88010760Y-54879030D01*
X88014185Y-54873097D01*
X88710546Y-54873097D01*
X88712427Y-54877639D01*
X88718061Y-54881962D01*
X88723580Y-54885148D01*
X88852408Y-54938510D01*
X88858561Y-54940159D01*
X88996817Y-54958361D01*
X89003183Y-54958361D01*
X89141439Y-54940159D01*
X89147592Y-54938510D01*
X89276420Y-54885148D01*
X89281939Y-54881962D01*
X89285760Y-54879030D01*
X89289185Y-54873097D01*
X89985546Y-54873097D01*
X89987427Y-54877639D01*
X89993061Y-54881962D01*
X89998580Y-54885148D01*
X90127408Y-54938510D01*
X90133561Y-54940159D01*
X90271817Y-54958361D01*
X90278183Y-54958361D01*
X90416439Y-54940159D01*
X90422592Y-54938510D01*
X90551420Y-54885148D01*
X90556939Y-54881962D01*
X90560760Y-54879030D01*
X90564489Y-54872570D01*
X90563217Y-54867822D01*
X90281893Y-54586498D01*
X90275000Y-54583643D01*
X90268107Y-54586498D01*
X89988401Y-54866204D01*
X89985546Y-54873097D01*
X89289185Y-54873097D01*
X89289489Y-54872570D01*
X89288217Y-54867822D01*
X89006893Y-54586498D01*
X89000000Y-54583643D01*
X88993107Y-54586498D01*
X88713401Y-54866204D01*
X88710546Y-54873097D01*
X88014185Y-54873097D01*
X88014489Y-54872570D01*
X88013217Y-54867822D01*
X87731893Y-54586498D01*
X87725000Y-54583643D01*
X87718107Y-54586498D01*
X87438401Y-54866204D01*
X87435546Y-54873097D01*
X83181297Y-54873097D01*
X83177785Y-54866204D01*
X83159323Y-54829969D01*
X83159322Y-54829968D01*
X83157573Y-54826535D01*
X83073465Y-54742427D01*
X83070032Y-54740678D01*
X83070031Y-54740677D01*
X82999710Y-54704847D01*
X82967482Y-54688426D01*
X82963677Y-54687823D01*
X82963676Y-54687823D01*
X82853807Y-54670422D01*
X82850000Y-54669819D01*
X82846193Y-54670422D01*
X82736324Y-54687823D01*
X82736323Y-54687823D01*
X82732518Y-54688426D01*
X82700290Y-54704847D01*
X82629969Y-54740677D01*
X82629968Y-54740678D01*
X82626535Y-54742427D01*
X82542427Y-54826535D01*
X82540678Y-54829968D01*
X82540675Y-54829972D01*
X82493659Y-54922247D01*
X82465142Y-54946604D01*
X82427755Y-54943661D01*
X82406341Y-54922247D01*
X82359325Y-54829972D01*
X82359322Y-54829968D01*
X82357573Y-54826535D01*
X82273465Y-54742427D01*
X82270032Y-54740678D01*
X82270031Y-54740677D01*
X82199710Y-54704847D01*
X82167482Y-54688426D01*
X82163677Y-54687823D01*
X82163676Y-54687823D01*
X82053807Y-54670422D01*
X82050000Y-54669819D01*
X82046193Y-54670422D01*
X81936324Y-54687823D01*
X81936323Y-54687823D01*
X81932518Y-54688426D01*
X81900290Y-54704847D01*
X81829969Y-54740677D01*
X81829968Y-54740678D01*
X81826535Y-54742427D01*
X81742427Y-54826535D01*
X81740678Y-54829968D01*
X81740675Y-54829972D01*
X81693659Y-54922247D01*
X81665142Y-54946604D01*
X81627755Y-54943661D01*
X81606341Y-54922247D01*
X81559325Y-54829972D01*
X81559322Y-54829968D01*
X81557573Y-54826535D01*
X81473465Y-54742427D01*
X81470032Y-54740678D01*
X81470031Y-54740677D01*
X81399710Y-54704847D01*
X81367482Y-54688426D01*
X81363677Y-54687823D01*
X81363676Y-54687823D01*
X81253807Y-54670422D01*
X81250000Y-54669819D01*
X81246193Y-54670422D01*
X81136324Y-54687823D01*
X81136323Y-54687823D01*
X81132518Y-54688426D01*
X81100290Y-54704847D01*
X81029969Y-54740677D01*
X81029968Y-54740678D01*
X81026535Y-54742427D01*
X80942427Y-54826535D01*
X80940678Y-54829968D01*
X80940677Y-54829969D01*
X80922215Y-54866204D01*
X80888426Y-54932518D01*
X80887823Y-54936323D01*
X80887823Y-54936324D01*
X80873382Y-55027504D01*
X80869819Y-55050000D01*
X80100500Y-55050000D01*
X80100500Y-54400000D01*
X86069819Y-54400000D01*
X86088426Y-54517482D01*
X86142427Y-54623465D01*
X86226535Y-54707573D01*
X86229968Y-54709322D01*
X86229969Y-54709323D01*
X86279526Y-54734573D01*
X86332518Y-54761574D01*
X86336323Y-54762177D01*
X86336324Y-54762177D01*
X86446193Y-54779578D01*
X86450000Y-54780181D01*
X86453807Y-54779578D01*
X86563676Y-54762177D01*
X86563677Y-54762177D01*
X86567482Y-54761574D01*
X86620474Y-54734573D01*
X86670031Y-54709323D01*
X86670032Y-54709322D01*
X86673465Y-54707573D01*
X86757573Y-54623465D01*
X86811574Y-54517482D01*
X86829677Y-54403183D01*
X87166639Y-54403183D01*
X87184841Y-54541439D01*
X87186490Y-54547592D01*
X87239852Y-54676420D01*
X87243038Y-54681939D01*
X87245970Y-54685760D01*
X87252430Y-54689489D01*
X87257178Y-54688217D01*
X87538502Y-54406893D01*
X87541357Y-54400000D01*
X87908643Y-54400000D01*
X87911498Y-54406893D01*
X88191204Y-54686599D01*
X88198097Y-54689454D01*
X88202639Y-54687573D01*
X88206962Y-54681939D01*
X88210148Y-54676420D01*
X88263510Y-54547592D01*
X88265159Y-54541439D01*
X88283361Y-54403183D01*
X88441639Y-54403183D01*
X88459841Y-54541439D01*
X88461490Y-54547592D01*
X88514852Y-54676420D01*
X88518038Y-54681939D01*
X88520970Y-54685760D01*
X88527430Y-54689489D01*
X88532178Y-54688217D01*
X88813502Y-54406893D01*
X88816357Y-54400000D01*
X89183643Y-54400000D01*
X89186498Y-54406893D01*
X89466204Y-54686599D01*
X89473097Y-54689454D01*
X89477639Y-54687573D01*
X89481962Y-54681939D01*
X89485148Y-54676420D01*
X89538510Y-54547592D01*
X89540159Y-54541439D01*
X89558361Y-54403183D01*
X89716639Y-54403183D01*
X89734841Y-54541439D01*
X89736490Y-54547592D01*
X89789852Y-54676420D01*
X89793038Y-54681939D01*
X89795970Y-54685760D01*
X89802430Y-54689489D01*
X89807178Y-54688217D01*
X90088502Y-54406893D01*
X90091357Y-54400000D01*
X90458643Y-54400000D01*
X90461498Y-54406893D01*
X90741204Y-54686599D01*
X90748097Y-54689454D01*
X90752639Y-54687573D01*
X90756962Y-54681939D01*
X90760148Y-54676420D01*
X90813510Y-54547592D01*
X90815159Y-54541439D01*
X90833361Y-54403183D01*
X90833361Y-54396817D01*
X90815159Y-54258561D01*
X90813510Y-54252408D01*
X90760148Y-54123580D01*
X90756962Y-54118061D01*
X90754030Y-54114240D01*
X90747570Y-54110511D01*
X90742822Y-54111783D01*
X90461498Y-54393107D01*
X90458643Y-54400000D01*
X90091357Y-54400000D01*
X90088502Y-54393107D01*
X89808796Y-54113401D01*
X89801903Y-54110546D01*
X89797361Y-54112427D01*
X89793038Y-54118061D01*
X89789852Y-54123580D01*
X89736490Y-54252408D01*
X89734841Y-54258561D01*
X89716639Y-54396817D01*
X89716639Y-54403183D01*
X89558361Y-54403183D01*
X89558361Y-54396817D01*
X89540159Y-54258561D01*
X89538510Y-54252408D01*
X89485148Y-54123580D01*
X89481962Y-54118061D01*
X89479030Y-54114240D01*
X89472570Y-54110511D01*
X89467822Y-54111783D01*
X89186498Y-54393107D01*
X89183643Y-54400000D01*
X88816357Y-54400000D01*
X88813502Y-54393107D01*
X88533796Y-54113401D01*
X88526903Y-54110546D01*
X88522361Y-54112427D01*
X88518038Y-54118061D01*
X88514852Y-54123580D01*
X88461490Y-54252408D01*
X88459841Y-54258561D01*
X88441639Y-54396817D01*
X88441639Y-54403183D01*
X88283361Y-54403183D01*
X88283361Y-54396817D01*
X88265159Y-54258561D01*
X88263510Y-54252408D01*
X88210148Y-54123580D01*
X88206962Y-54118061D01*
X88204030Y-54114240D01*
X88197570Y-54110511D01*
X88192822Y-54111783D01*
X87911498Y-54393107D01*
X87908643Y-54400000D01*
X87541357Y-54400000D01*
X87538502Y-54393107D01*
X87258796Y-54113401D01*
X87251903Y-54110546D01*
X87247361Y-54112427D01*
X87243038Y-54118061D01*
X87239852Y-54123580D01*
X87186490Y-54252408D01*
X87184841Y-54258561D01*
X87166639Y-54396817D01*
X87166639Y-54403183D01*
X86829677Y-54403183D01*
X86830181Y-54400000D01*
X86811574Y-54282518D01*
X86757573Y-54176535D01*
X86673465Y-54092427D01*
X86670032Y-54090678D01*
X86670031Y-54090677D01*
X86620473Y-54065426D01*
X86567482Y-54038426D01*
X86563677Y-54037823D01*
X86563676Y-54037823D01*
X86453807Y-54020422D01*
X86450000Y-54019819D01*
X86446193Y-54020422D01*
X86336324Y-54037823D01*
X86336323Y-54037823D01*
X86332518Y-54038426D01*
X86279527Y-54065426D01*
X86229969Y-54090677D01*
X86229968Y-54090678D01*
X86226535Y-54092427D01*
X86142427Y-54176535D01*
X86088426Y-54282518D01*
X86069819Y-54400000D01*
X80100500Y-54400000D01*
X80100500Y-53927430D01*
X87435511Y-53927430D01*
X87436783Y-53932178D01*
X87718107Y-54213502D01*
X87725000Y-54216357D01*
X87731893Y-54213502D01*
X88011599Y-53933796D01*
X88014236Y-53927430D01*
X88710511Y-53927430D01*
X88711783Y-53932178D01*
X88993107Y-54213502D01*
X89000000Y-54216357D01*
X89006893Y-54213502D01*
X89286599Y-53933796D01*
X89289236Y-53927430D01*
X89985511Y-53927430D01*
X89986783Y-53932178D01*
X90268107Y-54213502D01*
X90275000Y-54216357D01*
X90281893Y-54213502D01*
X90561599Y-53933796D01*
X90564454Y-53926903D01*
X90562573Y-53922361D01*
X90556939Y-53918038D01*
X90551420Y-53914852D01*
X90422592Y-53861490D01*
X90416439Y-53859841D01*
X90278183Y-53841639D01*
X90271817Y-53841639D01*
X90133561Y-53859841D01*
X90127408Y-53861490D01*
X89998580Y-53914852D01*
X89993061Y-53918038D01*
X89989240Y-53920970D01*
X89985511Y-53927430D01*
X89289236Y-53927430D01*
X89289454Y-53926903D01*
X89287573Y-53922361D01*
X89281939Y-53918038D01*
X89276420Y-53914852D01*
X89147592Y-53861490D01*
X89141439Y-53859841D01*
X89003183Y-53841639D01*
X88996817Y-53841639D01*
X88858561Y-53859841D01*
X88852408Y-53861490D01*
X88723580Y-53914852D01*
X88718061Y-53918038D01*
X88714240Y-53920970D01*
X88710511Y-53927430D01*
X88014236Y-53927430D01*
X88014454Y-53926903D01*
X88012573Y-53922361D01*
X88006939Y-53918038D01*
X88001420Y-53914852D01*
X87872592Y-53861490D01*
X87866439Y-53859841D01*
X87728183Y-53841639D01*
X87721817Y-53841639D01*
X87583561Y-53859841D01*
X87577408Y-53861490D01*
X87448580Y-53914852D01*
X87443061Y-53918038D01*
X87439240Y-53920970D01*
X87435511Y-53927430D01*
X80100500Y-53927430D01*
X80100500Y-53598097D01*
X87435546Y-53598097D01*
X87437427Y-53602639D01*
X87443061Y-53606962D01*
X87448580Y-53610148D01*
X87577408Y-53663510D01*
X87583561Y-53665159D01*
X87721817Y-53683361D01*
X87728183Y-53683361D01*
X87866439Y-53665159D01*
X87872592Y-53663510D01*
X88001420Y-53610148D01*
X88006939Y-53606962D01*
X88010760Y-53604030D01*
X88014185Y-53598097D01*
X88710546Y-53598097D01*
X88712427Y-53602639D01*
X88718061Y-53606962D01*
X88723580Y-53610148D01*
X88852408Y-53663510D01*
X88858561Y-53665159D01*
X88996817Y-53683361D01*
X89003183Y-53683361D01*
X89141439Y-53665159D01*
X89147592Y-53663510D01*
X89276420Y-53610148D01*
X89281939Y-53606962D01*
X89285760Y-53604030D01*
X89289185Y-53598097D01*
X89985546Y-53598097D01*
X89987427Y-53602639D01*
X89993061Y-53606962D01*
X89998580Y-53610148D01*
X90127408Y-53663510D01*
X90133561Y-53665159D01*
X90271817Y-53683361D01*
X90278183Y-53683361D01*
X90416439Y-53665159D01*
X90422592Y-53663510D01*
X90551420Y-53610148D01*
X90556939Y-53606962D01*
X90560760Y-53604030D01*
X90564489Y-53597570D01*
X90563217Y-53592822D01*
X90281893Y-53311498D01*
X90275000Y-53308643D01*
X90268107Y-53311498D01*
X89988401Y-53591204D01*
X89985546Y-53598097D01*
X89289185Y-53598097D01*
X89289489Y-53597570D01*
X89288217Y-53592822D01*
X89006893Y-53311498D01*
X89000000Y-53308643D01*
X88993107Y-53311498D01*
X88713401Y-53591204D01*
X88710546Y-53598097D01*
X88014185Y-53598097D01*
X88014489Y-53597570D01*
X88013217Y-53592822D01*
X87731893Y-53311498D01*
X87725000Y-53308643D01*
X87718107Y-53311498D01*
X87438401Y-53591204D01*
X87435546Y-53598097D01*
X80100500Y-53598097D01*
X80100500Y-53128183D01*
X87166639Y-53128183D01*
X87184841Y-53266439D01*
X87186490Y-53272592D01*
X87239852Y-53401420D01*
X87243038Y-53406939D01*
X87245970Y-53410760D01*
X87252430Y-53414489D01*
X87257178Y-53413217D01*
X87538502Y-53131893D01*
X87541357Y-53125000D01*
X87908643Y-53125000D01*
X87911498Y-53131893D01*
X88191204Y-53411599D01*
X88198097Y-53414454D01*
X88202639Y-53412573D01*
X88206962Y-53406939D01*
X88210148Y-53401420D01*
X88263510Y-53272592D01*
X88265159Y-53266439D01*
X88283361Y-53128183D01*
X88441639Y-53128183D01*
X88459841Y-53266439D01*
X88461490Y-53272592D01*
X88514852Y-53401420D01*
X88518038Y-53406939D01*
X88520970Y-53410760D01*
X88527430Y-53414489D01*
X88532178Y-53413217D01*
X88813502Y-53131893D01*
X88816357Y-53125000D01*
X89183643Y-53125000D01*
X89186498Y-53131893D01*
X89466204Y-53411599D01*
X89473097Y-53414454D01*
X89477639Y-53412573D01*
X89481962Y-53406939D01*
X89485148Y-53401420D01*
X89538510Y-53272592D01*
X89540159Y-53266439D01*
X89558361Y-53128183D01*
X89716639Y-53128183D01*
X89734841Y-53266439D01*
X89736490Y-53272592D01*
X89789852Y-53401420D01*
X89793038Y-53406939D01*
X89795970Y-53410760D01*
X89802430Y-53414489D01*
X89807178Y-53413217D01*
X90088502Y-53131893D01*
X90091357Y-53125000D01*
X90458643Y-53125000D01*
X90461498Y-53131893D01*
X90741204Y-53411599D01*
X90748097Y-53414454D01*
X90752639Y-53412573D01*
X90756962Y-53406939D01*
X90760148Y-53401420D01*
X90813510Y-53272592D01*
X90815159Y-53266439D01*
X90833361Y-53128183D01*
X90833361Y-53121817D01*
X90815159Y-52983561D01*
X90813510Y-52977408D01*
X90760148Y-52848580D01*
X90756962Y-52843061D01*
X90754030Y-52839240D01*
X90747570Y-52835511D01*
X90742822Y-52836783D01*
X90461498Y-53118107D01*
X90458643Y-53125000D01*
X90091357Y-53125000D01*
X90088502Y-53118107D01*
X89808796Y-52838401D01*
X89801903Y-52835546D01*
X89797361Y-52837427D01*
X89793038Y-52843061D01*
X89789852Y-52848580D01*
X89736490Y-52977408D01*
X89734841Y-52983561D01*
X89716639Y-53121817D01*
X89716639Y-53128183D01*
X89558361Y-53128183D01*
X89558361Y-53121817D01*
X89540159Y-52983561D01*
X89538510Y-52977408D01*
X89485148Y-52848580D01*
X89481962Y-52843061D01*
X89479030Y-52839240D01*
X89472570Y-52835511D01*
X89467822Y-52836783D01*
X89186498Y-53118107D01*
X89183643Y-53125000D01*
X88816357Y-53125000D01*
X88813502Y-53118107D01*
X88533796Y-52838401D01*
X88526903Y-52835546D01*
X88522361Y-52837427D01*
X88518038Y-52843061D01*
X88514852Y-52848580D01*
X88461490Y-52977408D01*
X88459841Y-52983561D01*
X88441639Y-53121817D01*
X88441639Y-53128183D01*
X88283361Y-53128183D01*
X88283361Y-53121817D01*
X88265159Y-52983561D01*
X88263510Y-52977408D01*
X88210148Y-52848580D01*
X88206962Y-52843061D01*
X88204030Y-52839240D01*
X88197570Y-52835511D01*
X88192822Y-52836783D01*
X87911498Y-53118107D01*
X87908643Y-53125000D01*
X87541357Y-53125000D01*
X87538502Y-53118107D01*
X87258796Y-52838401D01*
X87251903Y-52835546D01*
X87247361Y-52837427D01*
X87243038Y-52843061D01*
X87239852Y-52848580D01*
X87186490Y-52977408D01*
X87184841Y-52983561D01*
X87166639Y-53121817D01*
X87166639Y-53128183D01*
X80100500Y-53128183D01*
X80100500Y-51790000D01*
X86489819Y-51790000D01*
X86508426Y-51907482D01*
X86562427Y-52013465D01*
X86646535Y-52097573D01*
X86649968Y-52099322D01*
X86649969Y-52099323D01*
X86690605Y-52120028D01*
X86752518Y-52151574D01*
X86756323Y-52152177D01*
X86756324Y-52152177D01*
X86866193Y-52169578D01*
X86870000Y-52170181D01*
X86873807Y-52169578D01*
X86983676Y-52152177D01*
X86983677Y-52152177D01*
X86987482Y-52151574D01*
X87049395Y-52120028D01*
X87090031Y-52099323D01*
X87090032Y-52099322D01*
X87093465Y-52097573D01*
X87150591Y-52040447D01*
X87185239Y-52026095D01*
X87219887Y-52040447D01*
X87234239Y-52075095D01*
X87233636Y-52082760D01*
X87222737Y-52151574D01*
X87219819Y-52170000D01*
X87220422Y-52173807D01*
X87237270Y-52280181D01*
X87238426Y-52287482D01*
X87292427Y-52393465D01*
X87376535Y-52477573D01*
X87379966Y-52479321D01*
X87379969Y-52479323D01*
X87467535Y-52523940D01*
X87482518Y-52531574D01*
X87484963Y-52531961D01*
X87513050Y-52555954D01*
X87515990Y-52593341D01*
X87488140Y-52623466D01*
X87448580Y-52639852D01*
X87443061Y-52643038D01*
X87439240Y-52645970D01*
X87435511Y-52652430D01*
X87436783Y-52657178D01*
X87718107Y-52938502D01*
X87725000Y-52941357D01*
X87731893Y-52938502D01*
X88011599Y-52658796D01*
X88014236Y-52652430D01*
X88710511Y-52652430D01*
X88711783Y-52657178D01*
X88993107Y-52938502D01*
X89000000Y-52941357D01*
X89006893Y-52938502D01*
X89286599Y-52658796D01*
X89289236Y-52652430D01*
X89985511Y-52652430D01*
X89986783Y-52657178D01*
X90268107Y-52938502D01*
X90275000Y-52941357D01*
X90281893Y-52938502D01*
X90561599Y-52658796D01*
X90564454Y-52651903D01*
X90562573Y-52647361D01*
X90556939Y-52643038D01*
X90551420Y-52639852D01*
X90422592Y-52586490D01*
X90416439Y-52584841D01*
X90278183Y-52566639D01*
X90271817Y-52566639D01*
X90133561Y-52584841D01*
X90127408Y-52586490D01*
X89998580Y-52639852D01*
X89993061Y-52643038D01*
X89989240Y-52645970D01*
X89985511Y-52652430D01*
X89289236Y-52652430D01*
X89289454Y-52651903D01*
X89287573Y-52647361D01*
X89281939Y-52643038D01*
X89276420Y-52639852D01*
X89147592Y-52586490D01*
X89141439Y-52584841D01*
X89003183Y-52566639D01*
X88996817Y-52566639D01*
X88858561Y-52584841D01*
X88852408Y-52586490D01*
X88723580Y-52639852D01*
X88718061Y-52643038D01*
X88714240Y-52645970D01*
X88710511Y-52652430D01*
X88014236Y-52652430D01*
X88014454Y-52651903D01*
X88012573Y-52647361D01*
X88006939Y-52643038D01*
X88001420Y-52639852D01*
X87872592Y-52586490D01*
X87866439Y-52584841D01*
X87821447Y-52578917D01*
X87788968Y-52560165D01*
X87779262Y-52523940D01*
X87798014Y-52491461D01*
X87805592Y-52486680D01*
X87823465Y-52477573D01*
X87907573Y-52393465D01*
X87961574Y-52287482D01*
X87962731Y-52280181D01*
X87979578Y-52173807D01*
X87980181Y-52170000D01*
X87967254Y-52088380D01*
X87976009Y-52051913D01*
X88007986Y-52032318D01*
X88044453Y-52041073D01*
X88059310Y-52058470D01*
X88090675Y-52120028D01*
X88090677Y-52120031D01*
X88092427Y-52123465D01*
X88176535Y-52207573D01*
X88179968Y-52209322D01*
X88179969Y-52209323D01*
X88229526Y-52234573D01*
X88282518Y-52261574D01*
X88286323Y-52262177D01*
X88286324Y-52262177D01*
X88396193Y-52279578D01*
X88400000Y-52280181D01*
X88403807Y-52279578D01*
X88513676Y-52262177D01*
X88513677Y-52262177D01*
X88517482Y-52261574D01*
X88570473Y-52234574D01*
X88620031Y-52209323D01*
X88620032Y-52209322D01*
X88623465Y-52207573D01*
X88707573Y-52123465D01*
X88709325Y-52120028D01*
X88743722Y-52052518D01*
X88761574Y-52017482D01*
X88764898Y-51996498D01*
X88779578Y-51903807D01*
X88780181Y-51900000D01*
X88776221Y-51875000D01*
X89169508Y-51875000D01*
X89170111Y-51878807D01*
X89178838Y-51933905D01*
X89189354Y-52000304D01*
X89218152Y-52056823D01*
X89231368Y-52082760D01*
X89246950Y-52113342D01*
X89336658Y-52203050D01*
X89340091Y-52204799D01*
X89340092Y-52204800D01*
X89348969Y-52209323D01*
X89449696Y-52260646D01*
X89453501Y-52261249D01*
X89453502Y-52261249D01*
X89571193Y-52279889D01*
X89575000Y-52280492D01*
X89578807Y-52279889D01*
X89696498Y-52261249D01*
X89696499Y-52261249D01*
X89700304Y-52260646D01*
X89801031Y-52209323D01*
X89809908Y-52204800D01*
X89809909Y-52204799D01*
X89813342Y-52203050D01*
X89903050Y-52113342D01*
X89918633Y-52082760D01*
X89931848Y-52056823D01*
X89960646Y-52000304D01*
X89971163Y-51933905D01*
X89979889Y-51878807D01*
X89980492Y-51875000D01*
X89969852Y-51807823D01*
X89961249Y-51753502D01*
X89961249Y-51753501D01*
X89960646Y-51749696D01*
X89925077Y-51679889D01*
X89904800Y-51640092D01*
X89904799Y-51640091D01*
X89903050Y-51636658D01*
X89813342Y-51546950D01*
X89809909Y-51545201D01*
X89809908Y-51545200D01*
X89740643Y-51509908D01*
X89700304Y-51489354D01*
X89696499Y-51488751D01*
X89696498Y-51488751D01*
X89578807Y-51470111D01*
X89575000Y-51469508D01*
X89571193Y-51470111D01*
X89453502Y-51488751D01*
X89453501Y-51488751D01*
X89449696Y-51489354D01*
X89409357Y-51509908D01*
X89340092Y-51545200D01*
X89340091Y-51545201D01*
X89336658Y-51546950D01*
X89246950Y-51636658D01*
X89245201Y-51640091D01*
X89245200Y-51640092D01*
X89224923Y-51679889D01*
X89189354Y-51749696D01*
X89188751Y-51753501D01*
X89188751Y-51753502D01*
X89180148Y-51807823D01*
X89169508Y-51875000D01*
X88776221Y-51875000D01*
X88762177Y-51786324D01*
X88762177Y-51786323D01*
X88761574Y-51782518D01*
X88707573Y-51676535D01*
X88623465Y-51592427D01*
X88620032Y-51590678D01*
X88620031Y-51590677D01*
X88534211Y-51546950D01*
X88517482Y-51538426D01*
X88513677Y-51537823D01*
X88513676Y-51537823D01*
X88403807Y-51520422D01*
X88400000Y-51519819D01*
X88396193Y-51520422D01*
X88286324Y-51537823D01*
X88286323Y-51537823D01*
X88282518Y-51538426D01*
X88265789Y-51546950D01*
X88179969Y-51590677D01*
X88179968Y-51590678D01*
X88176535Y-51592427D01*
X88092427Y-51676535D01*
X88038426Y-51782518D01*
X88037823Y-51786323D01*
X88037823Y-51786324D01*
X88023779Y-51875000D01*
X88019819Y-51900000D01*
X88020422Y-51903807D01*
X88032746Y-51981620D01*
X88023991Y-52018087D01*
X87992014Y-52037682D01*
X87955547Y-52028927D01*
X87940690Y-52011530D01*
X87909325Y-51949972D01*
X87909322Y-51949968D01*
X87907573Y-51946535D01*
X87823465Y-51862427D01*
X87820032Y-51860678D01*
X87820031Y-51860677D01*
X87770473Y-51835426D01*
X87717482Y-51808426D01*
X87713677Y-51807823D01*
X87713676Y-51807823D01*
X87603807Y-51790422D01*
X87600000Y-51789819D01*
X87596193Y-51790422D01*
X87486324Y-51807823D01*
X87486323Y-51807823D01*
X87482518Y-51808426D01*
X87429526Y-51835427D01*
X87379969Y-51860677D01*
X87379968Y-51860678D01*
X87376535Y-51862427D01*
X87319409Y-51919553D01*
X87284761Y-51933905D01*
X87250113Y-51919553D01*
X87235761Y-51884905D01*
X87236364Y-51877240D01*
X87249578Y-51793807D01*
X87250181Y-51790000D01*
X87232754Y-51679969D01*
X87232177Y-51676324D01*
X87232177Y-51676323D01*
X87231574Y-51672518D01*
X87177573Y-51566535D01*
X87093465Y-51482427D01*
X87090032Y-51480678D01*
X87090031Y-51480677D01*
X87040473Y-51455426D01*
X86987482Y-51428426D01*
X86983677Y-51427823D01*
X86983676Y-51427823D01*
X86873807Y-51410422D01*
X86870000Y-51409819D01*
X86866193Y-51410422D01*
X86756324Y-51427823D01*
X86756323Y-51427823D01*
X86752518Y-51428426D01*
X86699527Y-51455426D01*
X86649969Y-51480677D01*
X86649968Y-51480678D01*
X86646535Y-51482427D01*
X86562427Y-51566535D01*
X86508426Y-51672518D01*
X86507823Y-51676323D01*
X86507823Y-51676324D01*
X86507246Y-51679969D01*
X86489819Y-51790000D01*
X80100500Y-51790000D01*
X80100500Y-50889182D01*
X83847399Y-50889182D01*
X83847851Y-50892639D01*
X83847851Y-50892642D01*
X83865535Y-51027876D01*
X83865988Y-51031338D01*
X83923728Y-51162562D01*
X84015978Y-51272307D01*
X84135321Y-51351749D01*
X84272165Y-51394501D01*
X84275655Y-51394565D01*
X84295566Y-51394930D01*
X84415507Y-51397129D01*
X84553825Y-51359419D01*
X84556796Y-51357595D01*
X84556798Y-51357594D01*
X84673026Y-51286230D01*
X84673029Y-51286228D01*
X84675999Y-51284404D01*
X84681066Y-51278807D01*
X84684512Y-51275000D01*
X85169508Y-51275000D01*
X85170111Y-51278807D01*
X85182879Y-51359419D01*
X85189354Y-51400304D01*
X85246950Y-51513342D01*
X85336658Y-51603050D01*
X85340091Y-51604799D01*
X85340092Y-51604800D01*
X85393177Y-51631848D01*
X85449696Y-51660646D01*
X85453501Y-51661249D01*
X85453502Y-51661249D01*
X85571193Y-51679889D01*
X85575000Y-51680492D01*
X85578807Y-51679889D01*
X85696498Y-51661249D01*
X85696499Y-51661249D01*
X85700304Y-51660646D01*
X85756823Y-51631848D01*
X85809908Y-51604800D01*
X85809909Y-51604799D01*
X85813342Y-51603050D01*
X85903050Y-51513342D01*
X85960646Y-51400304D01*
X85967122Y-51359419D01*
X85979889Y-51278807D01*
X85980492Y-51275000D01*
X85960646Y-51149696D01*
X85910985Y-51052231D01*
X85904800Y-51040092D01*
X85904799Y-51040091D01*
X85903050Y-51036658D01*
X85813342Y-50946950D01*
X85809909Y-50945201D01*
X85809908Y-50945200D01*
X85712089Y-50895359D01*
X85700304Y-50889354D01*
X85696499Y-50888751D01*
X85696498Y-50888751D01*
X85578807Y-50870111D01*
X85575000Y-50869508D01*
X85571193Y-50870111D01*
X85453502Y-50888751D01*
X85453501Y-50888751D01*
X85449696Y-50889354D01*
X85437911Y-50895359D01*
X85340092Y-50945200D01*
X85340091Y-50945201D01*
X85336658Y-50946950D01*
X85246950Y-51036658D01*
X85245201Y-51040091D01*
X85245200Y-51040092D01*
X85239015Y-51052231D01*
X85189354Y-51149696D01*
X85169508Y-51275000D01*
X84684512Y-51275000D01*
X84769863Y-51180704D01*
X84769864Y-51180703D01*
X84772208Y-51178113D01*
X84779743Y-51162562D01*
X84833197Y-51052231D01*
X84834718Y-51049092D01*
X84836233Y-51040092D01*
X84858191Y-50909575D01*
X84858191Y-50909572D01*
X84858504Y-50907713D01*
X84858655Y-50895359D01*
X84838331Y-50753441D01*
X84814033Y-50700000D01*
X92044508Y-50700000D01*
X92045111Y-50703807D01*
X92061835Y-50809397D01*
X92064354Y-50825304D01*
X92121950Y-50938342D01*
X92211658Y-51028050D01*
X92215091Y-51029799D01*
X92215092Y-51029800D01*
X92252955Y-51049092D01*
X92324696Y-51085646D01*
X92328501Y-51086249D01*
X92328502Y-51086249D01*
X92446193Y-51104889D01*
X92450000Y-51105492D01*
X92453807Y-51104889D01*
X92571498Y-51086249D01*
X92571499Y-51086249D01*
X92575304Y-51085646D01*
X92647045Y-51049092D01*
X92684908Y-51029800D01*
X92684909Y-51029799D01*
X92688342Y-51028050D01*
X92778050Y-50938342D01*
X92793657Y-50907713D01*
X92831341Y-50833753D01*
X92859858Y-50809397D01*
X92897246Y-50812340D01*
X92918659Y-50833753D01*
X92956344Y-50907713D01*
X92971950Y-50938342D01*
X93061658Y-51028050D01*
X93065091Y-51029799D01*
X93065092Y-51029800D01*
X93102955Y-51049092D01*
X93174696Y-51085646D01*
X93178501Y-51086249D01*
X93178502Y-51086249D01*
X93296193Y-51104889D01*
X93300000Y-51105492D01*
X93303807Y-51104889D01*
X93421498Y-51086249D01*
X93421499Y-51086249D01*
X93425304Y-51085646D01*
X93497045Y-51049092D01*
X93534908Y-51029800D01*
X93534909Y-51029799D01*
X93538342Y-51028050D01*
X93628050Y-50938342D01*
X93685646Y-50825304D01*
X93688166Y-50809397D01*
X93704889Y-50703807D01*
X93705492Y-50700000D01*
X93692050Y-50615128D01*
X93686249Y-50578502D01*
X93686249Y-50578501D01*
X93685646Y-50574696D01*
X93628050Y-50461658D01*
X93538342Y-50371950D01*
X93534909Y-50370201D01*
X93534908Y-50370200D01*
X93481823Y-50343152D01*
X93425304Y-50314354D01*
X93421499Y-50313751D01*
X93421498Y-50313751D01*
X93303807Y-50295111D01*
X93300000Y-50294508D01*
X93296193Y-50295111D01*
X93178502Y-50313751D01*
X93178501Y-50313751D01*
X93174696Y-50314354D01*
X93118177Y-50343152D01*
X93065092Y-50370200D01*
X93065091Y-50370201D01*
X93061658Y-50371950D01*
X92971950Y-50461658D01*
X92970201Y-50465091D01*
X92970200Y-50465092D01*
X92918659Y-50566247D01*
X92890142Y-50590603D01*
X92852754Y-50587660D01*
X92831341Y-50566247D01*
X92779800Y-50465092D01*
X92779799Y-50465091D01*
X92778050Y-50461658D01*
X92688342Y-50371950D01*
X92684909Y-50370201D01*
X92684908Y-50370200D01*
X92631823Y-50343152D01*
X92575304Y-50314354D01*
X92571499Y-50313751D01*
X92571498Y-50313751D01*
X92453807Y-50295111D01*
X92450000Y-50294508D01*
X92446193Y-50295111D01*
X92328502Y-50313751D01*
X92328501Y-50313751D01*
X92324696Y-50314354D01*
X92268177Y-50343152D01*
X92215092Y-50370200D01*
X92215091Y-50370201D01*
X92211658Y-50371950D01*
X92121950Y-50461658D01*
X92064354Y-50574696D01*
X92063751Y-50578501D01*
X92063751Y-50578502D01*
X92057950Y-50615128D01*
X92044508Y-50700000D01*
X84814033Y-50700000D01*
X84778992Y-50622931D01*
X84772269Y-50615128D01*
X84687688Y-50516968D01*
X84685408Y-50514322D01*
X84565103Y-50436344D01*
X84427747Y-50395266D01*
X84356689Y-50394832D01*
X84287876Y-50394411D01*
X84287874Y-50394411D01*
X84284384Y-50394390D01*
X84281029Y-50395349D01*
X84281028Y-50395349D01*
X84149892Y-50432828D01*
X84146537Y-50433787D01*
X84025288Y-50510289D01*
X83930385Y-50617747D01*
X83869455Y-50747522D01*
X83860230Y-50806774D01*
X83847935Y-50885736D01*
X83847935Y-50885740D01*
X83847399Y-50889182D01*
X80100500Y-50889182D01*
X80100500Y-49500000D01*
X82794508Y-49500000D01*
X82795111Y-49503807D01*
X82811835Y-49609397D01*
X82814354Y-49625304D01*
X82871950Y-49738342D01*
X82961658Y-49828050D01*
X82965091Y-49829799D01*
X82965092Y-49829800D01*
X83014250Y-49854847D01*
X83074696Y-49885646D01*
X83078501Y-49886249D01*
X83078502Y-49886249D01*
X83196193Y-49904889D01*
X83200000Y-49905492D01*
X83203807Y-49904889D01*
X83321498Y-49886249D01*
X83321499Y-49886249D01*
X83325304Y-49885646D01*
X83385750Y-49854847D01*
X83434908Y-49829800D01*
X83434909Y-49829799D01*
X83438342Y-49828050D01*
X83528050Y-49738342D01*
X83562406Y-49670916D01*
X83581341Y-49633753D01*
X83609858Y-49609397D01*
X83647246Y-49612340D01*
X83668659Y-49633753D01*
X83687595Y-49670916D01*
X83721950Y-49738342D01*
X83811658Y-49828050D01*
X83815091Y-49829799D01*
X83815092Y-49829800D01*
X83864250Y-49854847D01*
X83924696Y-49885646D01*
X83928501Y-49886249D01*
X83928502Y-49886249D01*
X84046193Y-49904889D01*
X84050000Y-49905492D01*
X84053807Y-49904889D01*
X84171498Y-49886249D01*
X84171499Y-49886249D01*
X84175304Y-49885646D01*
X84235750Y-49854847D01*
X84284908Y-49829800D01*
X84284909Y-49829799D01*
X84288342Y-49828050D01*
X84378050Y-49738342D01*
X84412406Y-49670916D01*
X84431341Y-49633753D01*
X84459858Y-49609397D01*
X84497246Y-49612340D01*
X84518659Y-49633753D01*
X84537595Y-49670916D01*
X84571950Y-49738342D01*
X84661658Y-49828050D01*
X84665091Y-49829799D01*
X84665092Y-49829800D01*
X84714250Y-49854847D01*
X84774696Y-49885646D01*
X84778501Y-49886249D01*
X84778502Y-49886249D01*
X84896193Y-49904889D01*
X84900000Y-49905492D01*
X84903807Y-49904889D01*
X85021498Y-49886249D01*
X85021499Y-49886249D01*
X85025304Y-49885646D01*
X85085750Y-49854847D01*
X85134908Y-49829800D01*
X85134909Y-49829799D01*
X85138342Y-49828050D01*
X85228050Y-49738342D01*
X85285646Y-49625304D01*
X85288166Y-49609397D01*
X85297573Y-49550000D01*
X85489819Y-49550000D01*
X85490422Y-49553807D01*
X85499693Y-49612340D01*
X85508426Y-49667482D01*
X85562427Y-49773465D01*
X85646535Y-49857573D01*
X85649968Y-49859322D01*
X85649969Y-49859323D01*
X85698197Y-49883896D01*
X85752518Y-49911574D01*
X85756323Y-49912177D01*
X85756324Y-49912177D01*
X85866193Y-49929578D01*
X85870000Y-49930181D01*
X85873807Y-49929578D01*
X85983676Y-49912177D01*
X85983677Y-49912177D01*
X85987482Y-49911574D01*
X86041803Y-49883896D01*
X86090031Y-49859323D01*
X86090032Y-49859322D01*
X86093465Y-49857573D01*
X86177573Y-49773465D01*
X86231574Y-49667482D01*
X86240308Y-49612340D01*
X86249578Y-49553807D01*
X86250181Y-49550000D01*
X86231574Y-49432518D01*
X86197807Y-49366247D01*
X86179323Y-49329969D01*
X86179322Y-49329968D01*
X86177573Y-49326535D01*
X86093465Y-49242427D01*
X86090032Y-49240678D01*
X86090031Y-49240677D01*
X86040473Y-49215426D01*
X85987482Y-49188426D01*
X85983677Y-49187823D01*
X85983676Y-49187823D01*
X85873807Y-49170422D01*
X85870000Y-49169819D01*
X85866193Y-49170422D01*
X85756324Y-49187823D01*
X85756323Y-49187823D01*
X85752518Y-49188426D01*
X85699526Y-49215427D01*
X85649969Y-49240677D01*
X85649968Y-49240678D01*
X85646535Y-49242427D01*
X85562427Y-49326535D01*
X85560678Y-49329968D01*
X85560677Y-49329969D01*
X85542193Y-49366247D01*
X85508426Y-49432518D01*
X85489819Y-49550000D01*
X85297573Y-49550000D01*
X85304889Y-49503807D01*
X85305492Y-49500000D01*
X85294260Y-49429084D01*
X85286249Y-49378502D01*
X85286249Y-49378501D01*
X85285646Y-49374696D01*
X85228050Y-49261658D01*
X85138342Y-49171950D01*
X85134909Y-49170201D01*
X85134908Y-49170200D01*
X85081823Y-49143152D01*
X85025304Y-49114354D01*
X85021499Y-49113751D01*
X85021498Y-49113751D01*
X84903807Y-49095111D01*
X84900000Y-49094508D01*
X84896193Y-49095111D01*
X84778502Y-49113751D01*
X84778501Y-49113751D01*
X84774696Y-49114354D01*
X84718177Y-49143152D01*
X84665092Y-49170200D01*
X84665091Y-49170201D01*
X84661658Y-49171950D01*
X84571950Y-49261658D01*
X84570201Y-49265091D01*
X84570200Y-49265092D01*
X84518659Y-49366247D01*
X84490142Y-49390603D01*
X84452754Y-49387660D01*
X84431341Y-49366247D01*
X84379800Y-49265092D01*
X84379799Y-49265091D01*
X84378050Y-49261658D01*
X84288342Y-49171950D01*
X84284909Y-49170201D01*
X84284908Y-49170200D01*
X84231823Y-49143152D01*
X84175304Y-49114354D01*
X84171499Y-49113751D01*
X84171498Y-49113751D01*
X84053807Y-49095111D01*
X84050000Y-49094508D01*
X84046193Y-49095111D01*
X83928502Y-49113751D01*
X83928501Y-49113751D01*
X83924696Y-49114354D01*
X83868177Y-49143152D01*
X83815092Y-49170200D01*
X83815091Y-49170201D01*
X83811658Y-49171950D01*
X83721950Y-49261658D01*
X83720201Y-49265091D01*
X83720200Y-49265092D01*
X83668659Y-49366247D01*
X83640142Y-49390603D01*
X83602754Y-49387660D01*
X83581341Y-49366247D01*
X83529800Y-49265092D01*
X83529799Y-49265091D01*
X83528050Y-49261658D01*
X83438342Y-49171950D01*
X83434909Y-49170201D01*
X83434908Y-49170200D01*
X83381823Y-49143152D01*
X83325304Y-49114354D01*
X83321499Y-49113751D01*
X83321498Y-49113751D01*
X83203807Y-49095111D01*
X83200000Y-49094508D01*
X83196193Y-49095111D01*
X83078502Y-49113751D01*
X83078501Y-49113751D01*
X83074696Y-49114354D01*
X83018177Y-49143152D01*
X82965092Y-49170200D01*
X82965091Y-49170201D01*
X82961658Y-49171950D01*
X82871950Y-49261658D01*
X82814354Y-49374696D01*
X82813751Y-49378501D01*
X82813751Y-49378502D01*
X82805740Y-49429084D01*
X82794508Y-49500000D01*
X80100500Y-49500000D01*
X80100500Y-49000000D01*
X87419819Y-49000000D01*
X87438426Y-49117482D01*
X87440176Y-49120916D01*
X87474267Y-49187823D01*
X87492427Y-49223465D01*
X87576535Y-49307573D01*
X87579968Y-49309322D01*
X87579969Y-49309323D01*
X87608400Y-49323809D01*
X87682518Y-49361574D01*
X87686323Y-49362177D01*
X87686324Y-49362177D01*
X87796193Y-49379578D01*
X87800000Y-49380181D01*
X87803807Y-49379578D01*
X87913676Y-49362177D01*
X87913677Y-49362177D01*
X87917482Y-49361574D01*
X87991600Y-49323809D01*
X88020031Y-49309323D01*
X88020032Y-49309322D01*
X88023465Y-49307573D01*
X88107573Y-49223465D01*
X88125734Y-49187823D01*
X88159824Y-49120916D01*
X88161574Y-49117482D01*
X88180181Y-49000000D01*
X88161574Y-48882518D01*
X88119964Y-48800853D01*
X88109323Y-48779969D01*
X88109322Y-48779968D01*
X88107573Y-48776535D01*
X88023465Y-48692427D01*
X88020032Y-48690678D01*
X88020031Y-48690677D01*
X87970474Y-48665427D01*
X87917482Y-48638426D01*
X87913677Y-48637823D01*
X87913676Y-48637823D01*
X87803807Y-48620422D01*
X87800000Y-48619819D01*
X87796193Y-48620422D01*
X87686324Y-48637823D01*
X87686323Y-48637823D01*
X87682518Y-48638426D01*
X87629526Y-48665427D01*
X87579969Y-48690677D01*
X87579968Y-48690678D01*
X87576535Y-48692427D01*
X87492427Y-48776535D01*
X87490678Y-48779968D01*
X87490677Y-48779969D01*
X87480036Y-48800853D01*
X87438426Y-48882518D01*
X87419819Y-49000000D01*
X80100500Y-49000000D01*
X80100500Y-48328433D01*
X80114272Y-48295186D01*
X80111969Y-48293783D01*
X80184144Y-48293783D01*
X80184148Y-48293785D01*
X80198086Y-48322080D01*
X80212980Y-48435979D01*
X80270720Y-48567203D01*
X80362970Y-48676948D01*
X80482313Y-48756390D01*
X80619157Y-48799142D01*
X80622647Y-48799206D01*
X80642558Y-48799571D01*
X80762499Y-48801770D01*
X80900817Y-48764060D01*
X80903788Y-48762236D01*
X80903790Y-48762235D01*
X81020018Y-48690871D01*
X81020021Y-48690869D01*
X81022991Y-48689045D01*
X81032188Y-48678885D01*
X81116855Y-48585345D01*
X81116856Y-48585344D01*
X81119200Y-48582754D01*
X81126735Y-48567203D01*
X81180189Y-48456872D01*
X81181710Y-48453733D01*
X81184160Y-48439174D01*
X81205183Y-48314216D01*
X81205183Y-48314213D01*
X81205496Y-48312354D01*
X81205647Y-48300000D01*
X81185323Y-48158082D01*
X81125984Y-48027572D01*
X81119261Y-48019769D01*
X81034680Y-47921609D01*
X81032400Y-47918963D01*
X80912095Y-47840985D01*
X80774739Y-47799907D01*
X80703681Y-47799473D01*
X80634868Y-47799052D01*
X80634866Y-47799052D01*
X80631376Y-47799031D01*
X80628021Y-47799990D01*
X80628020Y-47799990D01*
X80611026Y-47804847D01*
X80493529Y-47838428D01*
X80372280Y-47914930D01*
X80277377Y-48022388D01*
X80216447Y-48152163D01*
X80200540Y-48254329D01*
X80197917Y-48271176D01*
X80184144Y-48293783D01*
X80111969Y-48293783D01*
X80109934Y-48292543D01*
X80100500Y-48263638D01*
X80100500Y-47500000D01*
X87619819Y-47500000D01*
X87638426Y-47617482D01*
X87692427Y-47723465D01*
X87776535Y-47807573D01*
X87779968Y-47809322D01*
X87779969Y-47809323D01*
X87829526Y-47834573D01*
X87882518Y-47861574D01*
X87886323Y-47862177D01*
X87886324Y-47862177D01*
X87996193Y-47879578D01*
X88000000Y-47880181D01*
X88003807Y-47879578D01*
X88113676Y-47862177D01*
X88113677Y-47862177D01*
X88117482Y-47861574D01*
X88170474Y-47834573D01*
X88220031Y-47809323D01*
X88220032Y-47809322D01*
X88223465Y-47807573D01*
X88307573Y-47723465D01*
X88361574Y-47617482D01*
X88380181Y-47500000D01*
X88361574Y-47382518D01*
X88307573Y-47276535D01*
X88223465Y-47192427D01*
X88220032Y-47190678D01*
X88220031Y-47190677D01*
X88170473Y-47165426D01*
X88117482Y-47138426D01*
X88113677Y-47137823D01*
X88113676Y-47137823D01*
X88003807Y-47120422D01*
X88000000Y-47119819D01*
X87996193Y-47120422D01*
X87886324Y-47137823D01*
X87886323Y-47137823D01*
X87882518Y-47138426D01*
X87829527Y-47165426D01*
X87779969Y-47190677D01*
X87779968Y-47190678D01*
X87776535Y-47192427D01*
X87692427Y-47276535D01*
X87638426Y-47382518D01*
X87619819Y-47500000D01*
X80100500Y-47500000D01*
X80100500Y-44400201D01*
X80114852Y-44365553D01*
X80149500Y-44351201D01*
X80184148Y-44365553D01*
X80193447Y-44378529D01*
X80268027Y-44529764D01*
X80270369Y-44533585D01*
X80400077Y-44707286D01*
X80403070Y-44710611D01*
X80562260Y-44857764D01*
X80565811Y-44860489D01*
X80749153Y-44976168D01*
X80753142Y-44978201D01*
X80954497Y-45058534D01*
X80958785Y-45059803D01*
X81163439Y-45100511D01*
X81170757Y-45099056D01*
X81173000Y-45095698D01*
X81173000Y-45090163D01*
X81427000Y-45090163D01*
X81429855Y-45097055D01*
X81433889Y-45098726D01*
X81610740Y-45068337D01*
X81615060Y-45067180D01*
X81673855Y-45045489D01*
X81711329Y-45046961D01*
X81736786Y-45074500D01*
X81735170Y-45112285D01*
X81716447Y-45152163D01*
X81707222Y-45211415D01*
X81694927Y-45290377D01*
X81694927Y-45290381D01*
X81694391Y-45293823D01*
X81694843Y-45297280D01*
X81694843Y-45297283D01*
X81712527Y-45432517D01*
X81712980Y-45435979D01*
X81770720Y-45567203D01*
X81862970Y-45676948D01*
X81982313Y-45756390D01*
X82119157Y-45799142D01*
X82122647Y-45799206D01*
X82142558Y-45799571D01*
X82262499Y-45801770D01*
X82400817Y-45764060D01*
X82403788Y-45762236D01*
X82403790Y-45762235D01*
X82520018Y-45690871D01*
X82520021Y-45690869D01*
X82522991Y-45689045D01*
X82532188Y-45678885D01*
X82616855Y-45585345D01*
X82616856Y-45585344D01*
X82619200Y-45582754D01*
X82626735Y-45567203D01*
X82680189Y-45456872D01*
X82681710Y-45453733D01*
X82684160Y-45439174D01*
X82705183Y-45314216D01*
X82705183Y-45314213D01*
X82705496Y-45312354D01*
X82705647Y-45300000D01*
X82685323Y-45158082D01*
X82625984Y-45027572D01*
X82532400Y-44918963D01*
X82412095Y-44840985D01*
X82274739Y-44799907D01*
X82224781Y-44799602D01*
X82190222Y-44785039D01*
X82176082Y-44750304D01*
X82186601Y-44720267D01*
X82312693Y-44560321D01*
X82315133Y-44556564D01*
X82416067Y-44364719D01*
X82417783Y-44360577D01*
X82482068Y-44153546D01*
X82483000Y-44149162D01*
X82503829Y-43973174D01*
X82504000Y-43970285D01*
X82504000Y-43955019D01*
X91496000Y-43955019D01*
X91496103Y-43957254D01*
X91510883Y-44118108D01*
X91511700Y-44122520D01*
X91570545Y-44331162D01*
X91572146Y-44335335D01*
X91668027Y-44529764D01*
X91670369Y-44533585D01*
X91800077Y-44707286D01*
X91803070Y-44710611D01*
X91962260Y-44857764D01*
X91965811Y-44860489D01*
X92149153Y-44976168D01*
X92153142Y-44978201D01*
X92354497Y-45058534D01*
X92358785Y-45059803D01*
X92563439Y-45100511D01*
X92570757Y-45099056D01*
X92573000Y-45095698D01*
X92573000Y-43236747D01*
X92570145Y-43229855D01*
X92563253Y-43227000D01*
X91505747Y-43227000D01*
X91498855Y-43229855D01*
X91496000Y-43236747D01*
X91496000Y-43955019D01*
X82504000Y-43955019D01*
X82504000Y-43236747D01*
X82501145Y-43229855D01*
X82494253Y-43227000D01*
X81436747Y-43227000D01*
X81429855Y-43229855D01*
X81427000Y-43236747D01*
X81427000Y-45090163D01*
X81173000Y-45090163D01*
X81173000Y-43140862D01*
X83945497Y-43140862D01*
X83975134Y-43313340D01*
X83976249Y-43315960D01*
X83976250Y-43315964D01*
X84011399Y-43398568D01*
X84043654Y-43474373D01*
X84147383Y-43615324D01*
X84149551Y-43617166D01*
X84149553Y-43617168D01*
X84278588Y-43726791D01*
X84280755Y-43728632D01*
X84436616Y-43808219D01*
X84439384Y-43808896D01*
X84439383Y-43808896D01*
X84604487Y-43849297D01*
X84604493Y-43849298D01*
X84606606Y-43849815D01*
X84617648Y-43850500D01*
X84743822Y-43850500D01*
X84873828Y-43835343D01*
X85038331Y-43775631D01*
X85040708Y-43774072D01*
X85040711Y-43774071D01*
X85091613Y-43740698D01*
X85184685Y-43679677D01*
X85305040Y-43552628D01*
X85310222Y-43543706D01*
X85391508Y-43403763D01*
X85391510Y-43403758D01*
X85392939Y-43401298D01*
X85443667Y-43233807D01*
X85449433Y-43140862D01*
X88545497Y-43140862D01*
X88575134Y-43313340D01*
X88576249Y-43315960D01*
X88576250Y-43315964D01*
X88611399Y-43398568D01*
X88643654Y-43474373D01*
X88747383Y-43615324D01*
X88749551Y-43617166D01*
X88749553Y-43617168D01*
X88878588Y-43726791D01*
X88880755Y-43728632D01*
X89036616Y-43808219D01*
X89039384Y-43808896D01*
X89039383Y-43808896D01*
X89204487Y-43849297D01*
X89204493Y-43849298D01*
X89206606Y-43849815D01*
X89217648Y-43850500D01*
X89343822Y-43850500D01*
X89473828Y-43835343D01*
X89638331Y-43775631D01*
X89640708Y-43774072D01*
X89640711Y-43774071D01*
X89691613Y-43740698D01*
X89784685Y-43679677D01*
X89905040Y-43552628D01*
X89910222Y-43543706D01*
X89991508Y-43403763D01*
X89991510Y-43403758D01*
X89992939Y-43401298D01*
X90043667Y-43233807D01*
X90054503Y-43059138D01*
X90038027Y-42963253D01*
X91496000Y-42963253D01*
X91498855Y-42970145D01*
X91505747Y-42973000D01*
X92563253Y-42973000D01*
X92570145Y-42970145D01*
X92573000Y-42963253D01*
X92573000Y-41109837D01*
X92570145Y-41102945D01*
X92566111Y-41101274D01*
X92389260Y-41131663D01*
X92384940Y-41132820D01*
X92181552Y-41207854D01*
X92177514Y-41209780D01*
X91991206Y-41320622D01*
X91987586Y-41323252D01*
X91824599Y-41466188D01*
X91821515Y-41469438D01*
X91687307Y-41639679D01*
X91684867Y-41643436D01*
X91583933Y-41835281D01*
X91582217Y-41839423D01*
X91517932Y-42046454D01*
X91517000Y-42050838D01*
X91496171Y-42226826D01*
X91496000Y-42229715D01*
X91496000Y-42963253D01*
X90038027Y-42963253D01*
X90024866Y-42886660D01*
X90023751Y-42884040D01*
X90023750Y-42884036D01*
X89957462Y-42728250D01*
X89956346Y-42725627D01*
X89852617Y-42584676D01*
X89850449Y-42582834D01*
X89850447Y-42582832D01*
X89721412Y-42473209D01*
X89719245Y-42471368D01*
X89563384Y-42391781D01*
X89539317Y-42385892D01*
X89395513Y-42350703D01*
X89395507Y-42350702D01*
X89393394Y-42350185D01*
X89382352Y-42349500D01*
X89256178Y-42349500D01*
X89126172Y-42364657D01*
X88961669Y-42424369D01*
X88959292Y-42425928D01*
X88959289Y-42425929D01*
X88908387Y-42459302D01*
X88815315Y-42520323D01*
X88694960Y-42647372D01*
X88693530Y-42649834D01*
X88608492Y-42796237D01*
X88608490Y-42796242D01*
X88607061Y-42798702D01*
X88556333Y-42966193D01*
X88545497Y-43140862D01*
X85449433Y-43140862D01*
X85454503Y-43059138D01*
X85424866Y-42886660D01*
X85423751Y-42884040D01*
X85423750Y-42884036D01*
X85357462Y-42728250D01*
X85356346Y-42725627D01*
X85252617Y-42584676D01*
X85250449Y-42582834D01*
X85250447Y-42582832D01*
X85121412Y-42473209D01*
X85119245Y-42471368D01*
X84963384Y-42391781D01*
X84939317Y-42385892D01*
X84795513Y-42350703D01*
X84795507Y-42350702D01*
X84793394Y-42350185D01*
X84782352Y-42349500D01*
X84656178Y-42349500D01*
X84526172Y-42364657D01*
X84361669Y-42424369D01*
X84359292Y-42425928D01*
X84359289Y-42425929D01*
X84308387Y-42459302D01*
X84215315Y-42520323D01*
X84094960Y-42647372D01*
X84093530Y-42649834D01*
X84008492Y-42796237D01*
X84008490Y-42796242D01*
X84007061Y-42798702D01*
X83956333Y-42966193D01*
X83945497Y-43140862D01*
X81173000Y-43140862D01*
X81173000Y-42963253D01*
X81427000Y-42963253D01*
X81429855Y-42970145D01*
X81436747Y-42973000D01*
X82494253Y-42973000D01*
X82501145Y-42970145D01*
X82504000Y-42963253D01*
X82504000Y-42244981D01*
X82503897Y-42242746D01*
X82489117Y-42081892D01*
X82488300Y-42077480D01*
X82429455Y-41868838D01*
X82427854Y-41864665D01*
X82331973Y-41670236D01*
X82329631Y-41666415D01*
X82199923Y-41492714D01*
X82196930Y-41489389D01*
X82037740Y-41342236D01*
X82034189Y-41339511D01*
X81850847Y-41223832D01*
X81846858Y-41221799D01*
X81645503Y-41141466D01*
X81641215Y-41140197D01*
X81436561Y-41099489D01*
X81429243Y-41100944D01*
X81427000Y-41104302D01*
X81427000Y-42963253D01*
X81173000Y-42963253D01*
X81173000Y-41109837D01*
X81170145Y-41102945D01*
X81166111Y-41101274D01*
X80989260Y-41131663D01*
X80984940Y-41132820D01*
X80781552Y-41207854D01*
X80777514Y-41209780D01*
X80591206Y-41320622D01*
X80587586Y-41323252D01*
X80424599Y-41466188D01*
X80421515Y-41469438D01*
X80287307Y-41639679D01*
X80284867Y-41643436D01*
X80192864Y-41818306D01*
X80164031Y-41842287D01*
X80126685Y-41838855D01*
X80102704Y-41810022D01*
X80100500Y-41795491D01*
X80100500Y-40149500D01*
X80114852Y-40114852D01*
X80149500Y-40100500D01*
X93850500Y-40100500D01*
X93885148Y-40114852D01*
G37*
G04 #@! TD.AperFunction*
M02*
