<?xml version="1.0" standalone="no"?>
<!DOCTYPE svg PUBLIC "-//W3C//DTD SVG 1.1//EN" "http://www.w3.org/Graphics/SVG/1.1/DTD/svg11.dtd">
<svg width="6mm" height="4mm" viewBox="-3 -2 6 4" xmlns="http://www.w3.org/2000/svg" version="1.1">
<title>OpenSCAD Model</title>
<path d="
M 2.28911,1.24692 L 2.32724,1.23776 L 2.36349,1.22275 L 2.39694,1.20224 L 2.42677,1.17677 L 2.45224,1.14694
 L 2.47275,1.11349 L 2.48776,1.07724 L 2.49692,1.03911 L 2.5,1 L 2.5,-1 L 2.49692,-1.03911
 L 2.48776,-1.07724 L 2.47275,-1.11349 L 2.45224,-1.14694 L 2.42677,-1.17677 L 2.39694,-1.20224 L 2.36349,-1.22275
 L 2.32724,-1.23776 L 2.28911,-1.24692 L 2.25,-1.25 L -2.25,-1.25 L -2.28911,-1.24692 L -2.32724,-1.23776
 L -2.36349,-1.22275 L -2.39694,-1.20224 L -2.42677,-1.17677 L -2.45224,-1.14694 L -2.47275,-1.11349 L -2.48776,-1.07724
 L -2.49692,-1.03911 L -2.5,-1 L -2.5,1 L -2.49692,1.03911 L -2.48776,1.07724 L -2.47275,1.11349
 L -2.45224,1.14694 L -2.42677,1.17677 L -2.39694,1.20224 L -2.36349,1.22275 L -2.32724,1.23776 L -2.28911,1.24692
 L -2.25,1.25 L 2.25,1.25 z
M -0.630875,0.574524 L -0.685699,0.568558 L -0.737839,0.558609 L -0.787292,0.544693 L -0.834045,0.526794 L -0.878113,0.504913
 L -0.919159,0.479263 L -0.956818,0.450073 L -0.991119,0.417328 L -1.02205,0.381042 L -1.04962,0.341202 L -1.07382,0.297821
 L -1.09445,0.251389 L -1.11134,0.202469 L -1.12448,0.151031 L -1.13385,0.0970764 L -1.13948,0.0406342 L -1.14136,-0.0183258
 L -1.13718,-0.106674 L -1.12463,-0.188339 L -1.10373,-0.263351 L -1.07445,-0.331696 L -1.03682,-0.393372 L -0.990814,-0.44838
 L -0.937363,-0.495743 L -0.87735,-0.5345 L -0.810776,-0.564651 L -0.737656,-0.586182 L -0.657974,-0.599106 L -0.571732,-0.603409
 L -0.514709,-0.601471 L -0.460251,-0.595673 L -0.408371,-0.586014 L -0.359085,-0.572479 L -0.312363,-0.555084 L -0.268219,-0.533829
 L -0.227036,-0.508881 L -0.18924,-0.480438 L -0.1548,-0.448486 L -0.123718,-0.413025 L -0.0960236,-0.374069 L -0.0716858,-0.331604
 L -0.0509338,-0.286057 L -0.0339355,-0.237854 L -0.0207214,-0.186966 L -0.0112915,-0.133423 L -0.00561523,-0.0772095 L -0.0037384,-0.0183258
 L -0.00564575,0.0403595 L -0.0113831,0.0965881 L -0.0209351,0.150314 L -0.0343018,0.201569 L -0.0514984,0.25032 L -0.0725098,0.296585
 L -0.0970917,0.339874 L -0.125,0.379684 L -0.156219,0.416016 L -0.190765,0.448853 L -0.228638,0.47821 L -0.269836,0.504089
 L -0.31398,0.52623 L -0.360703,0.544327 L -0.410004,0.558411 L -0.461884,0.568466 L -0.516327,0.574509 L -0.573364,0.576508
 z
M -0.50975,0.446976 L -0.451263,0.436783 L -0.397903,0.419769 L -0.34967,0.39595 L -0.30658,0.365341 L -0.268616,0.327927
 L -0.236176,0.284286 L -0.209625,0.235016 L -0.18898,0.180115 L -0.174225,0.119598 L -0.165375,0.0534515 L -0.16243,-0.0183258
 L -0.16539,-0.0870972 L -0.174316,-0.150772 L -0.189178,-0.209351 L -0.209976,-0.262802 L -0.236725,-0.311157 L -0.269424,-0.354401
 L -0.307541,-0.391693 L -0.350571,-0.422211 L -0.398499,-0.445938 L -0.45134,-0.462891 L -0.509079,-0.473068 L -0.571732,-0.476456
 L -0.634888,-0.473114 L -0.693069,-0.463074 L -0.746292,-0.44635 L -0.794525,-0.422928 L -0.837799,-0.392822 L -0.876083,-0.356033
 L -0.908905,-0.313187 L -0.93576,-0.264984 L -0.95665,-0.21138 L -0.971558,-0.152405 L -0.980515,-0.0880585 L -0.983505,-0.0183258
 L -0.980484,0.0510712 L -0.971436,0.115524 L -0.956345,0.175034 L -0.935211,0.229599 L -0.908051,0.279205 L -0.874863,0.323853
 L -0.836319,0.362518 L -0.793076,0.39415 L -0.745163,0.418747 L -0.692581,0.436325 L -0.635315,0.446869 L -0.573364,0.450378
 z
M 0.635101,0.574524 L 0.580276,0.568558 L 0.528137,0.558609 L 0.478699,0.544693 L 0.431946,0.526794 L 0.387863,0.504913
 L 0.346832,0.479263 L 0.309158,0.450073 L 0.274857,0.417328 L 0.243927,0.381042 L 0.216354,0.341202 L 0.192169,0.297821
 L 0.171524,0.251389 L 0.154648,0.202469 L 0.14151,0.151031 L 0.132126,0.0970764 L 0.126495,0.0406342 L 0.124619,-0.0183258
 L 0.128815,-0.106674 L 0.141357,-0.188339 L 0.162262,-0.263351 L 0.191528,-0.331696 L 0.229172,-0.393372 L 0.275162,-0.44838
 L 0.328629,-0.495743 L 0.388641,-0.5345 L 0.4552,-0.564651 L 0.528336,-0.586182 L 0.608017,-0.599106 L 0.69426,-0.603409
 L 0.751282,-0.601471 L 0.805725,-0.595673 L 0.857605,-0.586014 L 0.906906,-0.572479 L 0.953629,-0.555084 L 0.997772,-0.533829
 L 1.03894,-0.508881 L 1.07675,-0.480438 L 1.11119,-0.448486 L 1.14226,-0.413025 L 1.16997,-0.374069 L 1.19429,-0.331604
 L 1.21506,-0.286057 L 1.23204,-0.237854 L 1.24525,-0.186966 L 1.2547,-0.133423 L 1.26036,-0.0772095 L 1.26225,-0.0183258
 L 1.26035,0.0403595 L 1.25461,0.0965881 L 1.24506,0.150314 L 1.23169,0.201569 L 1.21449,0.25032 L 1.19348,0.296585
 L 1.1689,0.339874 L 1.14099,0.379684 L 1.10977,0.416016 L 1.07521,0.448853 L 1.03734,0.47821 L 0.996155,0.504089
 L 0.952011,0.52623 L 0.905289,0.544327 L 0.855988,0.558411 L 0.804108,0.568466 L 0.749649,0.574509 L 0.692627,0.576508
 z
M 0.756241,0.446976 L 0.814728,0.436783 L 0.868088,0.419769 L 0.916306,0.39595 L 0.959396,0.365341 L 0.99736,0.327927
 L 1.02982,0.284286 L 1.05637,0.235016 L 1.07701,0.180115 L 1.09177,0.119598 L 1.10062,0.0534515 L 1.10356,-0.0183258
 L 1.10059,-0.0870972 L 1.09167,-0.150772 L 1.07681,-0.209351 L 1.056,-0.262802 L 1.02925,-0.311157 L 0.996552,-0.354401
 L 0.958435,-0.391693 L 0.915405,-0.422211 L 0.867477,-0.445938 L 0.814636,-0.462891 L 0.756897,-0.473068 L 0.69426,-0.476456
 L 0.631104,-0.473114 L 0.572906,-0.463074 L 0.519699,-0.44635 L 0.471466,-0.422928 L 0.428192,-0.392822 L 0.389893,-0.356033
 L 0.357071,-0.313187 L 0.330231,-0.264984 L 0.309341,-0.21138 L 0.294418,-0.152405 L 0.285477,-0.0880585 L 0.282486,-0.0183258
 L 0.285507,0.0510712 L 0.294556,0.115524 L 0.309647,0.175034 L 0.330765,0.229599 L 0.357925,0.279205 L 0.391129,0.323853
 L 0.429672,0.362518 L 0.4729,0.39415 L 0.520813,0.418747 L 0.57341,0.436325 L 0.630676,0.446869 L 0.692627,0.450378
 z
M -2.16917,0.560242 L -2.16917,-0.586319 L -1.75255,-0.586319 L -1.62921,-0.578583 L -1.52831,-0.555389 L -1.44983,-0.516739
 L -1.39377,-0.462631 L -1.36014,-0.393051 L -1.34892,-0.308014 L -1.35051,-0.275009 L -1.35526,-0.24382 L -1.36316,-0.214432
 L -1.37424,-0.186859 L -1.38847,-0.161087 L -1.40588,-0.137115 L -1.42618,-0.115326 L -1.44911,-0.0960693 L -1.47466,-0.0793457
 L -1.50281,-0.065155 L -1.5336,-0.0534973 L -1.567,-0.0443573 L -1.52318,-0.0372925 L -1.48283,-0.026947 L -1.44597,-0.0133362
 L -1.41258,0.0035553 L -1.38268,0.0237274 L -1.35625,0.0471802 L -1.33362,0.0733643 L -1.31511,0.101746 L -1.30072,0.132309
 L -1.29044,0.16507 L -1.28426,0.200027 L -1.2822,0.237183 L -1.28529,0.286285 L -1.29459,0.331619 L -1.31007,0.373184
 L -1.33174,0.410965 L -1.35962,0.444977 L -1.39368,0.475204 L -1.43326,0.50119 L -1.47768,0.522446 L -1.52693,0.538986
 L -1.58102,0.550797 L -1.63995,0.557877 L -1.70372,0.560242 z
M -1.7128,-0.100174 L -1.67654,-0.10408 L -1.6438,-0.11058 L -1.61456,-0.119675 L -1.58884,-0.131363 L -1.5666,-0.14566
 L -1.54782,-0.162659 L -1.53247,-0.182419 L -1.52052,-0.204971 L -1.51199,-0.230301 L -1.50687,-0.258408 L -1.50516,-0.289291
 L -1.50693,-0.318756 L -1.51221,-0.345261 L -1.52103,-0.368835 L -1.53337,-0.389481 L -1.54924,-0.407181 L -1.56863,-0.421936
 L -1.59138,-0.434128 L -1.61728,-0.444092 L -1.64635,-0.451843 L -1.67859,-0.457382 L -1.71397,-0.460709 L -1.75255,-0.461823
 L -2.01376,-0.461823 L -2.01376,-0.098877 L -1.75255,-0.098877 z
M -1.66653,0.43428 L -1.62552,0.429871 L -1.58878,0.422516 L -1.55635,0.412231 L -1.5282,0.399002 L -1.50436,0.382843
 L -1.48447,0.36377 L -1.46819,0.341797 L -1.45554,0.316925 L -1.44649,0.289169 L -1.44107,0.258514 L -1.43925,0.224976
 L -1.44717,0.163055 L -1.4709,0.112411 L -1.51045,0.0730133 L -1.56584,0.0448608 L -1.63704,0.0279846 L -1.72406,0.0223541
 L -2.01376,0.0223541 L -2.01376,0.435745 L -1.71187,0.435745 z
M 1.74298,0.560242 L 1.74298,-0.459366 L 1.34912,-0.459366 L 1.34912,-0.586319 L 2.29144,-0.586319 L 2.29144,-0.459366
 L 1.89758,-0.459366 L 1.89758,0.560242 z
" stroke="black" fill="lightgray" stroke-width="0.5"/>
</svg>
