<?xml version="1.0" standalone="no"?>
<!DOCTYPE svg PUBLIC "-//W3C//DTD SVG 1.1//EN" "http://www.w3.org/Graphics/SVG/1.1/DTD/svg11.dtd">
<svg width="6mm" height="2mm" viewBox="-3 -1 6 2" xmlns="http://www.w3.org/2000/svg" version="1.1">
<title>OpenSCAD Model</title>
<path d="
M 2.03911,0.996918 L 2.07724,0.987762 L 2.11349,0.972748 L 2.14694,0.95224 L 2.17677,0.926773 L 2.20224,0.896942
 L 2.22275,0.863495 L 2.23776,0.82724 L 2.24692,0.789108 L 2.25,0.75 L 2.25,-0.75 L 2.24692,-0.789108
 L 2.23776,-0.82724 L 2.22275,-0.863495 L 2.20224,-0.896942 L 2.17677,-0.926773 L 2.14694,-0.95224 L 2.11349,-0.972748
 L 2.07724,-0.987762 L 2.03911,-0.996918 L 2,-1 L -2,-1 L -2.03911,-0.996918 L -2.07724,-0.987762
 L -2.11349,-0.972748 L -2.14694,-0.95224 L -2.17677,-0.926773 L -2.20224,-0.896942 L -2.22275,-0.863495 L -2.23776,-0.82724
 L -2.24692,-0.789108 L -2.25,-0.75 L -2.25,0.75 L -2.24692,0.789108 L -2.23776,0.82724 L -2.22275,0.863495
 L -2.20224,0.896942 L -2.17677,0.926773 L -2.14694,0.95224 L -2.11349,0.972748 L -2.07724,0.987762 L -2.03911,0.996918
 L -2,1 L 2,1 z
M 1.44058,0.57547 L 1.38531,0.56839 L 1.33426,0.55658 L 1.2874,0.540039 L 1.24475,0.518784 L 1.2063,0.492798
 L 1.17245,0.462372 L 1.14363,0.42775 L 1.11983,0.388947 L 1.10104,0.345963 L 1.08728,0.298798 L 1.07854,0.247452
 L 1.31128,0.227097 L 1.3226,0.277573 L 1.34192,0.318878 L 1.36925,0.350998 L 1.40459,0.373932 L 1.44791,0.387711
 L 1.49924,0.392288 L 1.52562,0.391159 L 1.54996,0.387772 L 1.57227,0.382126 L 1.59254,0.374207 L 1.61079,0.364044
 L 1.627,0.351608 L 1.64091,0.336853 L 1.65231,0.319687 L 1.66118,0.30014 L 1.66751,0.278183 L 1.67131,0.253845
 L 1.67256,0.227097 L 1.67104,0.202606 L 1.66643,0.180084 L 1.65874,0.159561 L 1.64798,0.141037 L 1.63414,0.124481
 L 1.61723,0.10994 L 1.59731,0.0975037 L 1.57439,0.087326 L 1.54848,0.079422 L 1.51959,0.073761 L 1.48772,0.0703735
 L 1.45287,0.0692444 L 1.37311,0.0692444 L 1.37311,-0.115479 L 1.44798,-0.115479 L 1.47945,-0.116592 L 1.50819,-0.119949
 L 1.53424,-0.125534 L 1.55756,-0.133377 L 1.57817,-0.143433 L 1.59608,-0.155746 L 1.61125,-0.170135 L 1.62366,-0.186447
 L 1.63332,-0.204666 L 1.64021,-0.224823 L 1.64435,-0.246902 L 1.64572,-0.270889 L 1.64462,-0.29364 L 1.64134,-0.314697
 L 1.63586,-0.334061 L 1.62819,-0.351715 L 1.61832,-0.367691 L 1.60626,-0.381973 L 1.5921,-0.394272 L 1.57593,-0.404343
 L 1.55774,-0.412186 L 1.53754,-0.41777 L 1.51532,-0.421127 L 1.4911,-0.422256 L 1.46826,-0.421173 L 1.44693,-0.417908
 L 1.42712,-0.412491 L 1.40883,-0.404892 L 1.39204,-0.395126 L 1.37677,-0.383194 L 1.3633,-0.369263 L 1.35187,-0.353531
 L 1.3425,-0.335999 L 1.33519,-0.316635 L 1.32993,-0.295486 L 1.32674,-0.272522 L 1.09807,-0.288803 L 1.10646,-0.33638
 L 1.11967,-0.380386 L 1.13774,-0.420822 L 1.16063,-0.457703 L 1.18837,-0.490982 L 1.22093,-0.520706 L 1.25772,-0.546326
 L 1.29807,-0.567276 L 1.34198,-0.583572 L 1.38948,-0.595215 L 1.44054,-0.602203 L 1.49518,-0.604538 L 1.55293,-0.60228
 L 1.60634,-0.595535 L 1.65538,-0.58429 L 1.70006,-0.568542 L 1.74037,-0.548294 L 1.77632,-0.52356 L 1.80728,-0.494843
 L 1.83261,-0.462662 L 1.85231,-0.427032 L 1.86638,-0.387939 L 1.87482,-0.345383 L 1.87764,-0.299377 L 1.87589,-0.264633
 L 1.87064,-0.23201 L 1.86186,-0.201523 L 1.84961,-0.173157 L 1.83383,-0.146912 L 1.81456,-0.122787 L 1.79199,-0.101028
 L 1.76633,-0.0818329 L 1.73756,-0.0652161 L 1.70572,-0.051178 L 1.67076,-0.0397186 L 1.63271,-0.030838 L 1.63271,-0.0275879
 L 1.67496,-0.020874 L 1.71385,-0.0110779 L 1.74937,0.00180054 L 1.78152,0.0177917 L 1.8103,0.0368958 L 1.83572,0.059082
 L 1.85748,0.0839081 L 1.87527,0.110931 L 1.88913,0.140137 L 1.89902,0.171539 L 1.90495,0.205139 L 1.90694,0.240936
 L 1.90399,0.292618 L 1.89517,0.34021 L 1.88048,0.383759 L 1.85991,0.423218 L 1.83347,0.458618 L 1.80113,0.489944
 L 1.7634,0.5168 L 1.72067,0.538773 L 1.67297,0.555862 L 1.62032,0.568069 L 1.56267,0.575394 L 1.50006,0.577835
 z
M -1.834,0.559113 L -1.834,-0.587448 L -1.26112,-0.587448 L -1.19536,-0.584991 L -1.13481,-0.577637 L -1.07945,-0.565369
 L -1.0293,-0.548203 L -0.984329,-0.526123 L -0.94458,-0.499146 L -0.910507,-0.46759 L -0.882629,-0.431747 L -0.860947,-0.391632
 L -0.845474,-0.34726 L -0.836182,-0.298599 L -0.833084,-0.245667 L -0.834976,-0.206436 L -0.840683,-0.169037 L -0.850174,-0.133469
 L -0.863464,-0.0997314 L -0.880554,-0.0678253 L -0.901443,-0.0377502 L -0.925568,-0.0102539 L -0.952347,0.0139008 L -0.981796,0.0347595
 L -1.01392,0.0522919 L -1.04871,0.0664978 L -1.08617,0.0773773 L -0.776123,0.559113 L -1.04628,0.559113 L -1.31238,0.123764
 L -1.59393,0.123764 L -1.59393,0.559113 z
M -1.24756,-0.0638428 L -1.21799,-0.0676422 L -1.19113,-0.0739594 L -1.16699,-0.0828247 L -1.14557,-0.094223 L -1.12685,-0.108139
 L -1.11095,-0.124344 L -1.09792,-0.142593 L -1.0878,-0.162872 L -1.08057,-0.185181 L -1.07622,-0.209518 L -1.07477,-0.235901
 L -1.08064,-0.286377 L -1.09828,-0.327682 L -1.12767,-0.359802 L -1.16881,-0.382736 L -1.22169,-0.3965 L -1.28635,-0.401093
 L -1.59393,-0.401093 L -1.59393,-0.0625763 L -1.27983,-0.0625763 z
M -0.356857,0.572128 L -0.415375,0.562317 L -0.468796,0.54599 L -0.51709,0.523132 L -0.560287,0.493729 L -0.598389,0.457794
 L -0.630951,0.415604 L -0.657608,0.367432 L -0.678329,0.313263 L -0.69313,0.253098 L -0.702011,0.186951 L -0.704971,0.114807
 L -0.701965,0.0449219 L -0.692947,-0.0193481 L -0.677917,-0.0780334 L -0.656876,-0.131104 L -0.629822,-0.178574 L -0.596756,-0.220428
 L -0.558167,-0.256241 L -0.514557,-0.285538 L -0.465942,-0.308319 L -0.412308,-0.3246 L -0.353638,-0.334366 L -0.289963,-0.337616
 L -0.229248,-0.334122 L -0.173508,-0.323639 L -0.122742,-0.306183 L -0.0769348,-0.281738 L -0.0361176,-0.250305 L -0.000259399,-0.211899
 L 0.030304,-0.166733 L 0.0553284,-0.115097 L 0.0747833,-0.0569763 L 0.0886841,0.00762939 L 0.0970306,0.0787201 L 0.0998077,0.156311
 L 0.0998077,0.162811 L -0.46492,0.162811 L -0.463593,0.203918 L -0.459625,0.241531 L -0.453018,0.275635 L -0.443756,0.306229
 L -0.431854,0.333313 L -0.417313,0.356903 L -0.40033,0.376923 L -0.381104,0.393295 L -0.359634,0.406021 L -0.335938,0.415131
 L -0.309998,0.420578 L -0.28183,0.422394 L -0.243896,0.419479 L -0.210938,0.410736 L -0.182953,0.396164 L -0.159943,0.375748
 L -0.141907,0.349503 L -0.128845,0.317444 L 0.086792,0.336151 L 0.0502319,0.409241 L 0.00297546,0.469055 L -0.0549927,0.515579
 L -0.123688,0.548813 L -0.203094,0.568741 L -0.293228,0.575394 z
M -0.124756,-0.0144348 L -0.130112,-0.0455322 L -0.137589,-0.0736542 L -0.147202,-0.0988312 L -0.158936,-0.121033 L -0.172791,-0.140289
 L -0.188568,-0.15657 L -0.206055,-0.169907 L -0.225266,-0.180267 L -0.246201,-0.187668 L -0.26886,-0.192108 L -0.293228,-0.193588
 L -0.319046,-0.192032 L -0.342819,-0.187347 L -0.364517,-0.17955 L -0.384171,-0.168625 L -0.401779,-0.154587 L -0.417313,-0.137436
 L -0.430679,-0.117477 L -0.441772,-0.0950317 L -0.450577,-0.0700989 L -0.457108,-0.0426788 L -0.461334,-0.0127716 L -0.463303,0.0195923
 L -0.121521,0.0195923 z
M 0.456528,0.559113 L 0.141617,-0.32135 L 0.383301,-0.32135 L 0.537079,0.170959 L 0.542084,0.187912 L 0.548935,0.211639
 L 0.557632,0.242157 L 0.568192,0.279465 L 0.594864,0.374405 L 0.598053,0.361877 L 0.602188,0.346542 L 0.607269,0.328415
 L 0.613312,0.307495 L 0.620285,0.283752 L 0.62822,0.257217 L 0.640442,0.217865 L 0.660233,0.155685 L 0.687637,0.0706635
 L 0.722626,-0.0371704 L 0.765213,-0.167831 L 0.815384,-0.32135 L 1.05463,-0.32135 L 0.72995,0.559113 z
" stroke="black" fill="lightgray" stroke-width="0.5"/>
</svg>
