<?xml version="1.0" standalone="no"?>
<!DOCTYPE svg PUBLIC "-//W3C//DTD SVG 1.1//EN" "http://www.w3.org/Graphics/SVG/1.1/DTD/svg11.dtd">
<svg width="4mm" height="4mm" viewBox="-2 -2 4 4" xmlns="http://www.w3.org/2000/svg" version="1.1">
<title>OpenSCAD Model</title>
<path d="
M 1.53911,1.24692 L 1.57724,1.23776 L 1.61349,1.22275 L 1.64694,1.20224 L 1.67677,1.17677 L 1.70224,1.14694
 L 1.72275,1.11349 L 1.73776,1.07724 L 1.74692,1.03911 L 1.75,1 L 1.75,-1 L 1.74692,-1.03911
 L 1.73776,-1.07724 L 1.72275,-1.11349 L 1.70224,-1.14694 L 1.67677,-1.17677 L 1.64694,-1.20224 L 1.61349,-1.22275
 L 1.57724,-1.23776 L 1.53911,-1.24692 L 1.5,-1.25 L -1.5,-1.25 L -1.53911,-1.24692 L -1.57724,-1.23776
 L -1.61349,-1.22275 L -1.64694,-1.20224 L -1.67677,-1.17677 L -1.70224,-1.14694 L -1.72275,-1.11349 L -1.73776,-1.07724
 L -1.74692,-1.03911 L -1.75,-1 L -1.75,1 L -1.74692,1.03911 L -1.73776,1.07724 L -1.72275,1.11349
 L -1.70224,1.14694 L -1.67677,1.17677 L -1.64694,1.20224 L -1.61349,1.22275 L -1.57724,1.23776 L -1.53911,1.24692
 L -1.5,1.25 L 1.5,1.25 z
M -0.0206146,0.56842 L -0.130951,0.544144 L -0.221695,0.503677 L -0.292877,0.447037 L -0.344482,0.374207 L -0.376511,0.285187
 L -0.225967,0.255081 L -0.215668,0.28801 L -0.202103,0.317871 L -0.185287,0.344696 L -0.165207,0.368469 L -0.141891,0.389175
 L -0.115311,0.406845 L -0.0854034,0.421646 L -0.0521088,0.433746 L -0.0154114,0.443161 L 0.0246429,0.44989 L 0.0681152,0.453918
 L 0.114975,0.455261 L 0.163239,0.453827 L 0.207703,0.449524 L 0.248322,0.442352 L 0.285141,0.432297 L 0.31813,0.419388
 L 0.347305,0.403595 L 0.372284,0.385025 L 0.392731,0.36377 L 0.40863,0.339813 L 0.419998,0.313171 L 0.426804,0.283844
 L 0.429077,0.251831 L 0.428375,0.233704 L 0.426239,0.216751 L 0.422668,0.200974 L 0.417694,0.186371 L 0.411285,0.172943
 L 0.403442,0.16069 L 0.394333,0.149368 L 0.384048,0.138718 L 0.37262,0.128754 L 0.360046,0.119461 L 0.346313,0.110855
 L 0.331421,0.102921 L 0.315475,0.0955353 L 0.298523,0.0885468 L 0.280563,0.0819702 L 0.261627,0.0757904 L 0.241699,0.0700378
 L 0.220764,0.064682 L 0.198944,0.0594482 L 0.153015,0.0485992 L 0.104019,0.0372009 L 0.0783539,0.031311 L 0.0348816,0.0212708
 L -0.00494385,0.0112305 L -0.041153,0.00120544 L -0.0737152,-0.00881958 L -0.102631,-0.0188599 L -0.127914,-0.0289001 L -0.150558,-0.0391235
 L -0.171539,-0.0497284 L -0.190872,-0.06073 L -0.208572,-0.072113 L -0.224609,-0.0838776 L -0.238998,-0.0960236 L -0.252029,-0.108719
 L -0.263992,-0.122116 L -0.274902,-0.1362 L -0.284744,-0.151001 L -0.293533,-0.166489 L -0.301254,-0.182693 L -0.307831,-0.199646
 L -0.313232,-0.217407 L -0.317413,-0.235992 L -0.320419,-0.255386 L -0.32222,-0.275604 L -0.322815,-0.296631 L -0.319687,-0.343842
 L -0.310287,-0.387314 L -0.294632,-0.427032 L -0.27272,-0.462982 L -0.244537,-0.495193 L -0.210114,-0.523651 L -0.169846,-0.548019
 L -0.124161,-0.567963 L -0.0730896,-0.583466 L -0.0166168,-0.594543 L 0.0452576,-0.601196 L 0.112534,-0.603409 L 0.175079,-0.601746
 L 0.232513,-0.596756 L 0.284851,-0.588455 L 0.332062,-0.576813 L 0.374176,-0.561859 L 0.411179,-0.543579 L 0.443909,-0.521317
 L 0.473206,-0.494354 L 0.499069,-0.462723 L 0.521484,-0.426407 L 0.540482,-0.385422 L 0.55603,-0.339752 L 0.403046,-0.312897
 L 0.393372,-0.341888 L 0.381165,-0.368103 L 0.366425,-0.391525 L 0.349152,-0.41217 L 0.329346,-0.430038 L 0.307022,-0.445129
 L 0.281906,-0.457687 L 0.253754,-0.467957 L 0.222595,-0.475952 L 0.188385,-0.481659 L 0.151154,-0.485092 L 0.110901,-0.486221
 L 0.066864,-0.484955 L 0.0264587,-0.481155 L -0.0103302,-0.474838 L -0.0435181,-0.465973 L -0.0730896,-0.454575 L -0.0990295,-0.440643
 L -0.12117,-0.424225 L -0.139267,-0.405304 L -0.153351,-0.383896 L -0.163406,-0.360001 L -0.169449,-0.333633 L -0.171463,-0.304764
 L -0.17067,-0.287643 L -0.168335,-0.27153 L -0.164444,-0.256439 L -0.158981,-0.242371 L -0.151962,-0.229324 L -0.143387,-0.217285
 L -0.133331,-0.206055 L -0.121918,-0.195404 L -0.1091,-0.185349 L -0.0949249,-0.175873 L -0.079361,-0.166977 L -0.0624084,-0.158691
 L -0.0418701,-0.150375 L -0.0154877,-0.141464 L 0.0167084,-0.131943 L 0.0547638,-0.121796 L 0.0986328,-0.111053 L 0.148346,-0.0997009
 L 0.183548,-0.091507 L 0.218674,-0.0832367 L 0.253708,-0.0748749 L 0.271088,-0.0705414 L 0.288208,-0.0659332 L 0.305084,-0.0610504
 L 0.321701,-0.0558929 L 0.338089,-0.0504608 L 0.354218,-0.0447693 L 0.370041,-0.0387726 L 0.385544,-0.0324249 L 0.400696,-0.0257416
 L 0.415512,-0.0187225 L 0.429993,-0.0113678 L 0.444122,-0.00367737 L 0.457794,0.00447083 L 0.470856,0.0132141 L 0.483292,0.0225525
 L 0.495132,0.032486 L 0.506363,0.0429993 L 0.516968,0.0540924 L 0.526901,0.0658264 L 0.536087,0.0782318 L 0.54454,0.0913239
 L 0.552231,0.105087 L 0.559189,0.119522 L 0.565384,0.134644 L 0.57074,0.150558 L 0.575104,0.167374 L 0.578506,0.185104
 L 0.580948,0.20372 L 0.582397,0.223251 L 0.582886,0.243698 L 0.579437,0.294601 L 0.569092,0.341522 L 0.551865,0.384476
 L 0.527725,0.423431 L 0.496704,0.458435 L 0.458786,0.489441 L 0.414597,0.516052 L 0.364792,0.537811 L 0.309357,0.554749
 L 0.248291,0.566833 L 0.18161,0.574097 L 0.109283,0.576508 z
M -1.49088,0.560242 L -1.49088,-0.586319 L -0.95137,-0.586319 L -0.889267,-0.583908 L -0.832062,-0.576691 L -0.77977,-0.564651
 L -0.732376,-0.547806 L -0.689896,-0.526138 L -0.652328,-0.499649 L -0.620117,-0.468872 L -0.593781,-0.434326 L -0.573288,-0.395996
 L -0.558655,-0.353897 L -0.549866,-0.308029 L -0.546936,-0.258377 L -0.549011,-0.216919 L -0.555206,-0.177719 L -0.565552,-0.140793
 L -0.580032,-0.10611 L -0.598648,-0.0737 L -0.621399,-0.0435486 L -0.647781,-0.0163116 L -0.677322,0.00733948 L -0.709991,0.0274353
 L -0.745804,0.0439606 L -0.78476,0.0569153 L -0.826859,0.0662994 L -0.501358,0.560242 L -0.680389,0.560242 L -0.978226,0.084198
 L -1.33546,0.084198 L -1.33546,0.560242 z
M -0.920914,-0.0402527 L -0.884598,-0.0450439 L -0.851379,-0.053009 L -0.821259,-0.0641632 L -0.794235,-0.0785065 L -0.770325,-0.0960388
 L -0.749802,-0.11644 L -0.733017,-0.139389 L -0.719955,-0.164902 L -0.710632,-0.192963 L -0.705048,-0.223572 L -0.703171,-0.256744
 L -0.705063,-0.288788 L -0.710724,-0.318192 L -0.720169,-0.34494 L -0.733383,-0.369049 L -0.750366,-0.390518 L -0.771133,-0.409332
 L -0.795441,-0.425369 L -0.823074,-0.438492 L -0.854034,-0.4487 L -0.888306,-0.455994 L -0.925903,-0.460358 L -0.966827,-0.461823
 L -1.33546,-0.461823 L -1.33546,-0.0386658 L -0.960327,-0.0386658 z
M 1.06468,0.560242 L 1.06468,-0.459366 L 0.670822,-0.459366 L 0.670822,-0.586319 L 1.61314,-0.586319 L 1.61314,-0.459366
 L 1.21928,-0.459366 L 1.21928,0.560242 z
" stroke="black" fill="lightgray" stroke-width="0.5"/>
</svg>
