<?xml version="1.0" standalone="no"?>
<!DOCTYPE svg PUBLIC "-//W3C//DTD SVG 1.1//EN" "http://www.w3.org/Graphics/SVG/1.1/DTD/svg11.dtd">
<svg width="6mm" height="4mm" viewBox="-3 -2 6 4" xmlns="http://www.w3.org/2000/svg" version="1.1">
<title>OpenSCAD Model</title>
<path d="
M 2.28911,1.24692 L 2.32724,1.23776 L 2.36349,1.22275 L 2.39694,1.20224 L 2.42677,1.17677 L 2.45224,1.14694
 L 2.47275,1.11349 L 2.48776,1.07724 L 2.49692,1.03911 L 2.5,1 L 2.5,-1 L 2.49692,-1.03911
 L 2.48776,-1.07724 L 2.47275,-1.11349 L 2.45224,-1.14694 L 2.42677,-1.17677 L 2.39694,-1.20224 L 2.36349,-1.22275
 L 2.32724,-1.23776 L 2.28911,-1.24692 L 2.25,-1.25 L -2.25,-1.25 L -2.28911,-1.24692 L -2.32724,-1.23776
 L -2.36349,-1.22275 L -2.39694,-1.20224 L -2.42677,-1.17677 L -2.45224,-1.14694 L -2.47275,-1.11349 L -2.48776,-1.07724
 L -2.49692,-1.03911 L -2.5,-1 L -2.5,1 L -2.49692,1.03911 L -2.48776,1.07724 L -2.47275,1.11349
 L -2.45224,1.14694 L -2.42677,1.17677 L -2.39694,1.20224 L -2.36349,1.22275 L -2.32724,1.23776 L -2.28911,1.24692
 L -2.25,1.25 L 2.25,1.25 z
M 0.0398865,0.717926 L -0.0420685,0.709793 L -0.117432,0.696228 L -0.186172,0.677246 L -0.248306,0.652832 L -0.303833,0.623001
 L -0.352936,0.587646 L -0.395828,0.546707 L -0.432495,0.500168 L -0.462967,0.448044 L -0.487198,0.39032 L -0.505234,0.326996
 L -0.215332,0.27919 L -0.203949,0.31543 L -0.189453,0.34819 L -0.171844,0.377487 L -0.151138,0.40329 L -0.127319,0.425629
 L -0.100403,0.444489 L -0.0700684,0.46019 L -0.036087,0.473022 L 0.00157166,0.483017 L 0.0429077,0.490143 L 0.0879211,0.494431
 L 0.136597,0.49585 L 0.232635,0.49054 L 0.311218,0.474609 L 0.37233,0.448044 L 0.415985,0.410858 L 0.442184,0.363052
 L 0.450912,0.304626 L 0.449905,0.284866 L 0.446899,0.266312 L 0.441879,0.248932 L 0.43486,0.232742 L 0.425827,0.217743
 L 0.414795,0.203918 L 0.401932,0.191071 L 0.387451,0.17894 L 0.371307,0.167557 L 0.353546,0.156906 L 0.334122,0.146988
 L 0.31308,0.137802 L 0.287857,0.128677 L 0.255951,0.118927 L 0.217331,0.108551 L 0.172028,0.0975647 L 0.120026,0.0859528
 L 0.0613403,0.0737152 L 0.0104675,0.0615692 L -0.0349579,0.0502625 L -0.0749664,0.0397644 L -0.109558,0.0300903 L -0.138718,0.0212402
 L -0.162445,0.0131989 L -0.183136,0.00534058 L -0.20314,-0.00294495 L -0.222458,-0.0117035 L -0.241104,-0.0209198 L -0.259079,-0.0305786
 L -0.276382,-0.0406952 L -0.292908,-0.0513916 L -0.308578,-0.0627899 L -0.32341,-0.0749054 L -0.337402,-0.0877228 L -0.35054,-0.101242
 L -0.362839,-0.115463 L -0.374268,-0.130478 L -0.384811,-0.146332 L -0.394485,-0.163025 L -0.40329,-0.180573 L -0.411209,-0.198959
 L -0.418259,-0.218201 L -0.424316,-0.238358 L -0.429276,-0.25946 L -0.433136,-0.281525 L -0.435883,-0.30455 L -0.437546,-0.328537
 L -0.438095,-0.353485 L -0.434036,-0.415726 L -0.421875,-0.4729 L -0.401596,-0.525009 L -0.373215,-0.572067 L -0.336731,-0.614075
 L -0.29213,-0.651016 L -0.239777,-0.682556 L -0.180069,-0.708374 L -0.112976,-0.728455 L -0.0385132,-0.742783 L 0.0433044,-0.751389
 L 0.132523,-0.754257 L 0.217667,-0.751938 L 0.295441,-0.744995 L 0.365845,-0.733414 L 0.428864,-0.717194 L 0.484512,-0.696335
 L 0.532776,-0.670837 L 0.574738,-0.640015 L 0.611389,-0.603149 L 0.642776,-0.560226 L 0.668869,-0.511261 L 0.689682,-0.456253
 L 0.705215,-0.395187 L 0.414276,-0.355515 L 0.405548,-0.385101 L 0.394226,-0.41214 L 0.380341,-0.43663 L 0.363876,-0.458588
 L 0.344849,-0.477997 L 0.323242,-0.494858 L 0.298706,-0.509171 L 0.270874,-0.520859 L 0.239716,-0.529968 L 0.205261,-0.536469
 L 0.167496,-0.540359 L 0.126434,-0.541672 L 0.0431366,-0.536911 L -0.0249939,-0.522675 L -0.0780029,-0.498947 L -0.115875,-0.465714
 L -0.138596,-0.423004 L -0.146164,-0.370789 L -0.145355,-0.352707 L -0.142944,-0.335739 L -0.138916,-0.319916 L -0.133286,-0.305222
 L -0.126038,-0.291656 L -0.117188,-0.279221 L -0.106735,-0.267654 L -0.0947418,-0.256683 L -0.081192,-0.246292 L -0.0661011,-0.236511
 L -0.0494385,-0.22731 L -0.0312347,-0.218704 L -0.00898743,-0.210037 L 0.0197296,-0.200684 L 0.0549622,-0.190598 L 0.0966949,-0.179825
 L 0.144928,-0.168335 L 0.199661,-0.156143 L 0.265228,-0.141754 L 0.324265,-0.127731 L 0.376785,-0.114059 L 0.42276,-0.100769
 L 0.462219,-0.0878448 L 0.495148,-0.0752869 L 0.523788,-0.0625763 L 0.550369,-0.0491791 L 0.574875,-0.0351105 L 0.597321,-0.0203552
 L 0.617706,-0.00492859 L 0.636032,0.0111542 L 0.652649,0.0281372 L 0.667908,0.0462036 L 0.681808,0.0653229 L 0.694351,0.0855408
 L 0.705551,0.106812 L 0.715378,0.129166 L 0.72377,0.152634 L 0.730637,0.177246 L 0.735977,0.203033 L 0.739792,0.229965
 L 0.742081,0.258072 L 0.742844,0.287323 L 0.73851,0.354752 L 0.725494,0.416672 L 0.703812,0.473083 L 0.673447,0.523987
 L 0.634399,0.569382 L 0.5867,0.609268 L 0.530594,0.643295 L 0.466385,0.671143 L 0.394073,0.692795 L 0.313644,0.708267
 L 0.225098,0.717545 L 0.128464,0.720642 z
M -1.89514,0.700302 L -1.89514,-0.732895 L -1.17905,-0.732895 L -1.09685,-0.729828 L -1.02116,-0.720642 L -0.951965,-0.705307
 L -0.889267,-0.683853 L -0.833069,-0.65625 L -0.783371,-0.622528 L -0.740784,-0.583069 L -0.705933,-0.538284 L -0.678833,-0.488144
 L -0.659485,-0.432663 L -0.647873,-0.371841 L -0.643997,-0.305679 L -0.646378,-0.256638 L -0.653488,-0.2099 L -0.665359,-0.165436
 L -0.681976,-0.12326 L -0.703339,-0.083374 L -0.729462,-0.0457764 L -0.759598,-0.0114136 L -0.793076,0.0187836 L -0.829895,0.0448608
 L -0.870041,0.0667725 L -0.913528,0.0845184 L -0.960342,0.0981293 L -0.5728,0.700302 L -0.910507,0.700302 L -1.24313,0.156097
 L -1.59508,0.156097 L -1.59508,0.700302 z
M -1.16209,-0.0783997 L -1.12514,-0.0831451 L -1.09157,-0.0910492 L -1.0614,-0.102127 L -1.03461,-0.116364 L -1.01122,-0.133774
 L -0.991318,-0.154037 L -0.975052,-0.176834 L -0.962387,-0.202179 L -0.953354,-0.230072 L -0.947922,-0.260498 L -0.946121,-0.293472
 L -0.953461,-0.356567 L -0.975494,-0.408188 L -1.01224,-0.448349 L -1.06366,-0.47702 L -1.12978,-0.494232 L -1.21059,-0.499969
 L -1.59508,-0.499969 L -1.59508,-0.0768127 L -1.20244,-0.0768127 z
M 1.27795,0.700302 L 1.27795,-0.500992 L 0.81514,-0.500992 L 0.81514,-0.732895 L 2.04187,-0.732895 L 2.04187,-0.500992
 L 1.57802,-0.500992 L 1.57802,0.700302 z
" stroke="black" fill="lightgray" stroke-width="0.5"/>
</svg>
