<?xml version="1.0" standalone="no"?>
<!DOCTYPE svg PUBLIC "-//W3C//DTD SVG 1.1//EN" "http://www.w3.org/Graphics/SVG/1.1/DTD/svg11.dtd">
<svg width="10mm" height="6mm" viewBox="-5 -3 10 6" xmlns="http://www.w3.org/2000/svg" version="1.1">
<title>OpenSCAD Model</title>
<path d="
M 4.53911,2.74692 L 4.57724,2.73776 L 4.61349,2.72275 L 4.64694,2.70224 L 4.67677,2.67677 L 4.70224,2.64694
 L 4.72275,2.61349 L 4.73776,2.57724 L 4.74692,2.53911 L 4.75,2.5 L 4.75,-2.5 L 4.74692,-2.53911
 L 4.73776,-2.57724 L 4.72275,-2.61349 L 4.70224,-2.64694 L 4.67677,-2.67677 L 4.64694,-2.70224 L 4.61349,-2.72275
 L 4.57724,-2.73776 L 4.53911,-2.74692 L 4.5,-2.75 L -4.5,-2.75 L -4.53911,-2.74692 L -4.57724,-2.73776
 L -4.61349,-2.72275 L -4.64694,-2.70224 L -4.67677,-2.67677 L -4.70224,-2.64694 L -4.72275,-2.61349 L -4.73776,-2.57724
 L -4.74692,-2.53911 L -4.75,-2.5 L -4.75,2.5 L -4.74692,2.53911 L -4.73776,2.57724 L -4.72275,2.61349
 L -4.70224,2.64694 L -4.67677,2.67677 L -4.64694,2.70224 L -4.61349,2.72275 L -4.57724,2.73776 L -4.53911,2.74692
 L -4.5,2.75 L 4.5,2.75 z
M -3.30293,-1.886 L -3.30293,-2.02597 L -3.15645,-2.02597 L -3.15645,-1.886 z
M 2.12511,-0.818375 L 2.12511,-2.02597 L 2.27158,-2.02597 L 2.27158,-1.27164 L 2.65811,-1.69884 L 2.82982,-1.69884
 L 2.47258,-1.32045 L 2.84853,-0.818375 L 2.67682,-0.818375 L 2.379,-1.22037 L 2.27158,-1.13167 L 2.27158,-0.818375
 z
M -4.3633,-0.818375 L -4.3633,-1.96494 L -3.88075,-1.96494 L -3.81888,-1.96243 L -3.76184,-1.9549 L -3.70966,-1.94235
 L -3.66229,-1.92479 L -3.61978,-1.90221 L -3.58211,-1.8746 L -3.54977,-1.84244 L -3.52333,-1.80615 L -3.50276,-1.76576
 L -3.48807,-1.72125 L -3.47925,-1.67264 L -3.47632,-1.6199 L -3.47926,-1.5675 L -3.48811,-1.51881 L -3.50287,-1.47383
 L -3.52351,-1.43256 L -3.55006,-1.395 L -3.5825,-1.36115 L -3.62003,-1.3318 L -3.66176,-1.3078 L -3.70772,-1.28912
 L -3.75792,-1.27579 L -3.81233,-1.26779 L -3.87099,-1.26512 L -4.20787,-1.26512 L -4.20787,-0.818375 z
M -3.81339,-1.39439 L -3.74829,-1.41357 L -3.69765,-1.44556 L -3.66148,-1.49034 L -3.63979,-1.54791 L -3.63255,-1.61829
 L -3.63997,-1.68616 L -3.6622,-1.7417 L -3.69928,-1.7849 L -3.75117,-1.81575 L -3.8179,-1.83426 L -3.89946,-1.84044
 L -4.20787,-1.84044 L -4.20787,-1.388 L -3.89294,-1.388 z
M -0.744888,-0.818375 L -0.744888,-1.96494 L -0.365677,-1.96494 L -0.272263,-1.96088 L -0.186249,-1.9487 L -0.10762,-1.92842
 L -0.0363922,-1.90001 L 0.0274658,-1.86349 L 0.0839081,-1.81886 L 0.132278,-1.76675 L 0.171844,-1.70779 L 0.202621,-1.64197
 L 0.224609,-1.56932 L 0.237793,-1.48981 L 0.242188,-1.40344 L 0.240265,-1.34557 L 0.234512,-1.29013 L 0.224899,-1.23715
 L 0.211456,-1.18665 L 0.194153,-1.1386 L 0.173019,-1.093 L 0.148361,-1.05038 L 0.120483,-1.01123 L 0.0894165,-0.975525
 L 0.0551147,-0.943283 L 0.0176239,-0.91449 L -0.0230865,-0.88916 L -0.0664978,-0.867538 L -0.112061,-0.849838 L -0.159805,-0.836075
 L -0.209717,-0.826248 L -0.261795,-0.820343 L -0.31604,-0.818375 z
M -0.29274,-0.944412 L -0.25325,-0.94902 L -0.215439,-0.956711 L -0.179321,-0.967468 L -0.144913,-0.981308 L -0.112198,-0.998215
 L -0.0815582,-1.01801 L -0.0533752,-1.04053 L -0.0276642,-1.06575 L -0.00442505,-1.09369 L 0.0163727,-1.12434 L 0.0346832,-1.15771
 L 0.050354,-1.19347 L 0.0631714,-1.23131 L 0.0731354,-1.27122 L 0.0802612,-1.31323 L 0.0845337,-1.3573 L 0.0859528,-1.40344
 L 0.0827026,-1.47169 L 0.0729828,-1.53432 L 0.0567627,-1.59132 L 0.0340576,-1.64268 L 0.00485229,-1.68843 L -0.0308228,-1.72853
 L -0.0726471,-1.76273 L -0.120285,-1.79071 L -0.173737,-1.81247 L -0.232986,-1.828 L -0.298065,-1.83733 L -0.368927,-1.84044
 L -0.589462,-1.84044 L -0.589462,-0.942871 L -0.333939,-0.942871 z
M -2.66194,-0.805344 L -2.71623,-0.815079 L -2.76566,-0.831299 L -2.81021,-0.854004 L -2.84991,-0.883194 L -2.88477,-0.918869
 L -2.91447,-0.96077 L -2.93878,-1.00862 L -2.95769,-1.06239 L -2.97119,-1.12213 L -2.97929,-1.18781 L -2.98199,-1.25943
 L -2.97929,-1.33055 L -2.97115,-1.39581 L -2.9576,-1.45522 L -2.9386,-1.50877 L -2.9142,-1.55649 L -2.88435,-1.59834
 L -2.84946,-1.63402 L -2.80984,-1.66321 L -2.76555,-1.68591 L -2.71654,-1.70213 L -2.66283,-1.71187 L -2.60442,-1.7151
 L -2.56067,-1.71317 L -2.51947,-1.70734 L -2.48083,-1.69762 L -2.44475,-1.68401 L -2.41121,-1.6665 L -2.38023,-1.64513
 L -2.35237,-1.62033 L -2.3282,-1.59261 L -2.30771,-1.56192 L -2.29091,-1.52832 L -2.27779,-1.49176 L -2.26834,-1.45227
 L -2.41888,-1.44089 L -2.42366,-1.46446 L -2.43037,-1.48636 L -2.43903,-1.50659 L -2.44963,-1.52515 L -2.46217,-1.54204
 L -2.47667,-1.55725 L -2.49321,-1.57043 L -2.51193,-1.58121 L -2.53281,-1.5896 L -2.55586,-1.59558 L -2.5811,-1.59918
 L -2.60849,-1.60037 L -2.64549,-1.59824 L -2.67892,-1.59178 L -2.70879,-1.58105 L -2.73508,-1.56601 L -2.7578,-1.54669
 L -2.77695,-1.52306 L -2.79286,-1.49435 L -2.80588,-1.45978 L -2.81601,-1.41931 L -2.82324,-1.37299 L -2.82758,-1.32079
 L -2.82903,-1.2627 L -2.82748,-1.20663 L -2.82288,-1.15562 L -2.81519,-1.1097 L -2.80443,-1.06883 L -2.7906,-1.03302
 L -2.7737,-1.00227 L -2.75369,-0.976425 L -2.73056,-0.955261 L -2.70432,-0.938812 L -2.67496,-0.927048 L -2.64247,-0.919998
 L -2.60687,-0.917648 L -2.58154,-0.918823 L -2.55763,-0.922348 L -2.53516,-0.928238 L -2.5141,-0.936462 L -2.49446,-0.947037
 L -2.47626,-0.959961 L -2.45988,-0.975342 L -2.44574,-0.99324 L -2.43384,-1.01367 L -2.42418,-1.03664 L -2.41675,-1.06213
 L -2.41158,-1.09016 L -2.26346,-1.08041 L -2.27122,-1.03952 L -2.28308,-1.00148 L -2.29907,-0.966278 L -2.31917,-0.933929
 L -2.34337,-0.904434 L -2.37169,-0.877777 L -2.40343,-0.85466 L -2.43788,-0.835739 L -2.47504,-0.82103 L -2.51491,-0.810516
 L -2.5575,-0.804199 L -2.6028,-0.802109 z
M -1.84088,-0.805374 L -1.89731,-0.81517 L -1.94849,-0.831497 L -1.99442,-0.85437 L -2.0351,-0.883759 L -2.07054,-0.919693
 L -2.10063,-0.961792 L -2.12524,-1.0097 L -2.14439,-1.06342 L -2.15807,-1.12294 L -2.16628,-1.18828 L -2.16901,-1.25943
 L -2.15805,-1.39867 L -2.12515,-1.51257 L -2.07034,-1.60118 L -1.99361,-1.66447 L -1.89493,-1.70245 L -1.77434,-1.7151
 L -1.71004,-1.71202 L -1.65164,-1.70277 L -1.59918,-1.68735 L -1.55264,-1.66574 L -1.51202,-1.63797 L -1.47733,-1.60403
 L -1.44823,-1.56361 L -1.42442,-1.51637 L -1.40591,-1.46234 L -1.39268,-1.4015 L -1.38475,-1.33388 L -1.38211,-1.25943
 L -1.38493,-1.18567 L -1.39342,-1.11847 L -1.40753,-1.05783 L -1.42732,-1.00374 L -1.45274,-0.956192 L -1.48383,-0.915222
 L -1.52029,-0.880661 L -1.56186,-0.852371 L -1.60854,-0.830383 L -1.66032,-0.814667 L -1.71722,-0.805252 L -1.77922,-0.802109
 z
M -1.739,-0.912689 L -1.70132,-0.919739 L -1.66785,-0.931488 L -1.63853,-0.947937 L -1.61342,-0.969101 L -1.59247,-0.994949
 L -1.57518,-1.02582 L -1.56105,-1.06195 L -1.55005,-1.10339 L -1.54219,-1.15012 L -1.53748,-1.20212 L -1.53592,-1.25943
 L -1.53741,-1.31741 L -1.54193,-1.36987 L -1.54944,-1.41676 L -1.55997,-1.45815 L -1.5735,-1.49399 L -1.59003,-1.52429
 L -1.61011,-1.54953 L -1.63429,-1.57018 L -1.66255,-1.58623 L -1.69492,-1.5977 L -1.73137,-1.60458 L -1.77191,-1.60689
 L -1.81279,-1.60454 L -1.8497,-1.59752 L -1.88268,-1.58583 L -1.91168,-1.56944 L -1.93674,-1.54839 L -1.95784,-1.52266
 L -1.97537,-1.49194 L -1.98972,-1.45598 L -2.00087,-1.41473 L -2.00883,-1.36824 L -2.01363,-1.31647 L -2.01521,-1.25943
 L -2.01364,-1.20378 L -2.00893,-1.15297 L -2.00108,-1.10695 L -1.99008,-1.06577 L -1.97594,-1.02937 L -1.95866,-0.997818
 L -1.938,-0.971085 L -1.91377,-0.949219 L -1.88593,-0.932205 L -1.85451,-0.920059 L -1.81947,-0.912766 L -1.78085,-0.910339
 z
M 1.58986,-0.805344 L 1.53557,-0.815079 L 1.48615,-0.831299 L 1.44159,-0.854004 L 1.40187,-0.883194 L 1.36703,-0.918869
 L 1.33733,-0.96077 L 1.31302,-1.00862 L 1.2941,-1.06239 L 1.28059,-1.12213 L 1.27249,-1.18781 L 1.26979,-1.25943
 L 1.27251,-1.33055 L 1.28064,-1.39581 L 1.2942,-1.45522 L 1.31319,-1.50877 L 1.3376,-1.55649 L 1.36745,-1.59834
 L 1.40234,-1.63402 L 1.44194,-1.66321 L 1.48625,-1.68591 L 1.53526,-1.70213 L 1.58897,-1.71187 L 1.64737,-1.7151
 L 1.69113,-1.71317 L 1.73233,-1.70734 L 1.77097,-1.69762 L 1.80705,-1.68401 L 1.84058,-1.6665 L 1.87157,-1.64513
 L 1.89941,-1.62033 L 1.9236,-1.59261 L 1.94409,-1.56192 L 1.96089,-1.52832 L 1.97401,-1.49176 L 1.98344,-1.45227
 L 1.8329,-1.44089 L 1.82814,-1.46446 L 1.82143,-1.48636 L 1.81277,-1.50659 L 1.80217,-1.52515 L 1.78963,-1.54204
 L 1.77513,-1.55725 L 1.75859,-1.57043 L 1.73987,-1.58121 L 1.71898,-1.5896 L 1.69592,-1.59558 L 1.6707,-1.59918
 L 1.64331,-1.60037 L 1.60631,-1.59824 L 1.57286,-1.59178 L 1.543,-1.58105 L 1.51672,-1.56601 L 1.494,-1.54669
 L 1.47485,-1.52306 L 1.45894,-1.49435 L 1.44592,-1.45978 L 1.43579,-1.41931 L 1.42856,-1.37299 L 1.42422,-1.32079
 L 1.42278,-1.2627 L 1.42432,-1.20663 L 1.42892,-1.15562 L 1.4366,-1.1097 L 1.44736,-1.06883 L 1.4612,-1.03302
 L 1.4781,-1.00227 L 1.49811,-0.976425 L 1.52124,-0.955261 L 1.54749,-0.938812 L 1.57684,-0.927048 L 1.60933,-0.919998
 L 1.64493,-0.917648 L 1.67026,-0.918823 L 1.69415,-0.922348 L 1.71664,-0.928238 L 1.7377,-0.936462 L 1.75732,-0.947037
 L 1.77554,-0.959961 L 1.79192,-0.975342 L 1.80605,-0.99324 L 1.81795,-1.01367 L 1.82762,-1.03664 L 1.83504,-1.06213
 L 1.84023,-1.09016 L 1.98833,-1.08041 L 1.98058,-1.03952 L 1.96872,-1.00148 L 1.95273,-0.966278 L 1.93263,-0.933929
 L 1.90843,-0.904434 L 1.88011,-0.877777 L 1.84837,-0.85466 L 1.81392,-0.835739 L 1.77676,-0.82103 L 1.73688,-0.810516
 L 1.69429,-0.804199 L 1.649,-0.802109 z
M -3.30293,-0.818375 L -3.30293,-1.69884 L -3.15645,-1.69884 L -3.15645,-0.818375 z
M 0.635025,-0.804108 L 0.593216,-0.810104 L 0.555725,-0.820114 L 0.522552,-0.834106 L 0.493698,-0.852112 L 0.469162,-0.874115
 L 0.448654,-0.900742 L 0.43187,-0.932571 L 0.418808,-0.969635 L 0.409485,-1.01192 L 0.4039,-1.05942 L 0.402039,-1.11214
 L 0.402039,-1.69884 L 0.549316,-1.69884 L 0.549316,-1.14062 L 0.549789,-1.11269 L 0.551224,-1.08691 L 0.553589,-1.06332
 L 0.556915,-1.04189 L 0.561188,-1.02263 L 0.566406,-1.00554 L 0.572662,-0.99028 L 0.580063,-0.976517 L 0.588577,-0.964249
 L 0.598236,-0.953461 L 0.609009,-0.944168 L 0.620926,-0.936371 L 0.634384,-0.929901 L 0.649765,-0.924622 L 0.667114,-0.920502
 L 0.686386,-0.917572 L 0.707611,-0.915802 L 0.730789,-0.915222 L 0.764801,-0.917221 L 0.796341,-0.923264 L 0.825394,-0.933319
 L 0.851944,-0.947403 L 0.876022,-0.965515 L 0.897614,-0.98764 L 0.91626,-1.01334 L 0.931519,-1.04216 L 0.94339,-1.0741
 L 0.951859,-1.10916 L 0.95694,-1.14734 L 0.958633,-1.18863 L 0.958633,-1.69884 L 1.10512,-1.69884 L 1.10512,-1.00636
 L 1.10526,-0.958405 L 1.10565,-0.917114 L 1.10634,-0.882462 L 1.10728,-0.854446 L 1.10851,-0.833084 L 1.11,-0.818375
 L 0.971664,-0.818375 L 0.97139,-0.820114 L 0.971115,-0.822632 L 0.97084,-0.825897 L 0.970566,-0.829956 L 0.967987,-0.881439
 L 0.967575,-0.890305 L 0.967133,-0.901459 L 0.966675,-0.914902 L 0.966187,-0.930618 L 0.965149,-0.968918 L 0.962708,-0.968918
 L 0.94545,-0.940018 L 0.927307,-0.914078 L 0.908295,-0.891098 L 0.888382,-0.871094 L 0.867599,-0.854034 L 0.845932,-0.839935
 L 0.822937,-0.828384 L 0.798157,-0.818924 L 0.771576,-0.811569 L 0.743225,-0.806305 L 0.713074,-0.803162 L 0.681152,-0.802109
 z
M -1.58392,-0.486008 L -1.58392,-0.625977 L -1.43744,-0.625977 L -1.43744,-0.486008 z
M -4.3633,0.581619 L -4.3633,-0.564941 L -4.20787,-0.564941 L -4.20787,0.009552 L -3.65533,-0.564941 L -3.47224,-0.564941
 L -3.96049,-0.066925 L -3.40715,0.581619 L -3.59999,0.581619 L -4.05815,0.0282593 L -4.20787,0.142197 L -4.20787,0.581619
 z
M 0.160309,0.581619 L 0.160309,-0.564941 L 0.315735,-0.564941 L 0.315735,0.454666 L 0.895111,0.454666 L 0.895111,0.581619
 z
M 2.08298,0.589096 L 2.03905,0.572479 L 2.00487,0.5448 L 1.98045,0.506027 L 1.96581,0.456192 L 1.96092,0.395264
 L 1.96092,-0.192245 L 1.85921,-0.192245 L 1.85921,-0.298843 L 1.96661,-0.298843 L 2.00975,-0.495773 L 2.10739,-0.495773
 L 2.10739,-0.298843 L 2.27016,-0.298843 L 2.27016,-0.192245 L 2.10739,-0.192245 L 2.10739,0.363525 L 2.10797,0.383636
 L 2.1097,0.401642 L 2.11258,0.417542 L 2.11662,0.431351 L 2.12181,0.443039 L 2.12814,0.452637 L 2.13591,0.46048
 L 2.14537,0.466888 L 2.15652,0.471863 L 2.16937,0.475418 L 2.18393,0.477554 L 2.20016,0.478271 L 2.21066,0.477951
 L 2.2226,0.477005 L 2.23598,0.475418 L 2.25079,0.473206 L 2.26707,0.470352 L 2.28479,0.466873 L 2.28479,0.575104
 L 2.26056,0.58107 L 2.23615,0.585953 L 2.21156,0.589752 L 2.18678,0.592468 L 2.16182,0.594101 L 2.13669,0.594635
 z
M -3.00656,0.59465 L -3.0639,0.584961 L -3.11606,0.568802 L -3.16304,0.546173 L -3.20485,0.517075 L -3.24149,0.481522
 L -3.27269,0.43959 L -3.29822,0.391388 L -3.31807,0.336884 L -3.33226,0.276108 L -3.34077,0.20903 L -3.34361,0.135681
 L -3.34077,0.0658112 L -3.33226,0.00160217 L -3.31807,-0.0569611 L -3.29822,-0.109879 L -3.27269,-0.157135 L -3.24149,-0.198746
 L -3.20502,-0.234314 L -3.16368,-0.263397 L -3.11749,-0.286026 L -3.06644,-0.302185 L -3.01053,-0.31189 L -2.94975,-0.315109
 L -2.83115,-0.302124 L -2.7341,-0.263123 L -2.65863,-0.198135 L -2.60472,-0.107162 L -2.57237,0.00979614 L -2.56158,0.152771
 L -2.56158,0.172302 L -3.18982,0.172302 L -3.18808,0.220825 L -3.18285,0.265518 L -3.17415,0.306366 L -3.16197,0.343369
 L -3.1463,0.376526 L -3.12717,0.405853 L -3.10468,0.430969 L -3.07896,0.451508 L -3.05005,0.467499 L -3.01793,0.478912
 L -2.98259,0.485764 L -2.94406,0.488037 L -2.91338,0.486984 L -2.88478,0.483795 L -2.85831,0.478485 L -2.83394,0.471039
 L -2.81166,0.461487 L -2.79149,0.449799 L -2.77339,0.436478 L -2.75735,0.422028 L -2.74336,0.406464 L -2.73145,0.389755
 L -2.72157,0.371918 L -2.71376,0.352951 L -2.58519,0.389572 L -2.6171,0.453217 L -2.66016,0.50531 L -2.71437,0.545807
 L -2.77977,0.574738 L -2.85632,0.592102 L -2.94406,0.597885 z
M -2.71831,0.0157013 L -2.72624,-0.0243835 L -2.73676,-0.060318 L -2.74985,-0.0920563 L -2.76552,-0.119629 L -2.78375,-0.143005
 L -2.8047,-0.162537 L -2.82851,-0.178497 L -2.85516,-0.190918 L -2.88466,-0.199783 L -2.91699,-0.205109 L -2.95219,-0.206894
 L -2.9865,-0.20491 L -3.01834,-0.198975 L -3.04771,-0.189087 L -3.07462,-0.175232 L -3.09908,-0.15744 L -3.12105,-0.135681
 L -3.14021,-0.110474 L -3.15617,-0.0822906 L -3.16896,-0.0511627 L -3.17856,-0.0170593 L -3.18497,0.019989 L -3.18819,0.0599976
 L -2.71295,0.0599976 z
M -1.21825,0.581619 L -1.21825,-0.11087 L -1.21838,-0.158813 L -1.2188,-0.200104 L -1.21947,-0.234756 L -1.22041,-0.262772
 L -1.22163,-0.284134 L -1.22313,-0.298843 L -1.08479,-0.298843 L -1.08452,-0.297104 L -1.08424,-0.294601 L -1.08371,-0.287277
 L -1.08344,-0.282455 L -1.0807,-0.226898 L -1.08026,-0.215744 L -1.0798,-0.202316 L -1.07932,-0.1866 L -1.07828,-0.1483
 L -1.07584,-0.1483 L -1.05858,-0.1772 L -1.04044,-0.20314 L -1.02142,-0.22612 L -1.00153,-0.24614 L -0.980743,-0.263184
 L -0.959076,-0.277283 L -0.936081,-0.288834 L -0.911285,-0.298294 L -0.88472,-0.305649 L -0.856354,-0.310913 L -0.826218,-0.314072
 L -0.794281,-0.315109 L -0.748154,-0.31311 L -0.70636,-0.307114 L -0.668869,-0.297119 L -0.635696,-0.283112 L -0.606842,-0.265106
 L -0.582306,-0.243103 L -0.561798,-0.216492 L -0.545013,-0.184647 L -0.531952,-0.147598 L -0.522629,-0.105316 L -0.517044,-0.0578156
 L -0.515167,-0.00508118 L -0.515167,0.581619 L -0.66246,0.581619 L -0.66246,0.0233917 L -0.662933,-0.00453186 L -0.664352,-0.030304
 L -0.666733,-0.0539093 L -0.670059,-0.0753326 L -0.674332,-0.0945892 L -0.67955,-0.111679 L -0.685806,-0.126938 L -0.693207,-0.140701
 L -0.701721,-0.152985 L -0.71138,-0.163757 L -0.722168,-0.17305 L -0.73407,-0.180847 L -0.747528,-0.187317 L -0.762924,-0.192596
 L -0.780258,-0.196716 L -0.79953,-0.199646 L -0.820755,-0.201416 L -0.843918,-0.201996 L -0.877945,-0.199997 L -0.90947,-0.193954
 L -0.938522,-0.183899 L -0.965073,-0.169815 L -0.989151,-0.151718 L -1.01074,-0.129578 L -1.02939,-0.103882 L -1.04465,-0.075058
 L -1.0565,-0.0431213 L -1.06499,-0.00805664 L -1.07007,0.0301056 L -1.07176,0.0713959 L -1.07176,0.581619 z
M 3.50783,0.59465 L 3.45049,0.584961 L 3.39833,0.568802 L 3.35135,0.546173 L 3.30954,0.517075 L 3.2729,0.481522
 L 3.2417,0.43959 L 3.21617,0.391388 L 3.19632,0.336884 L 3.18213,0.276108 L 3.17363,0.20903 L 3.17079,0.135681
 L 3.17363,0.0658112 L 3.18213,0.00160217 L 3.19632,-0.0569611 L 3.21617,-0.109879 L 3.2417,-0.157135 L 3.2729,-0.198746
 L 3.30939,-0.234314 L 3.35071,-0.263397 L 3.39691,-0.286026 L 3.44795,-0.302185 L 3.50388,-0.31189 L 3.56464,-0.315109
 L 3.68324,-0.302124 L 3.78029,-0.263123 L 3.85576,-0.198135 L 3.90967,-0.107162 L 3.94202,0.00979614 L 3.9528,0.152771
 L 3.9528,0.172302 L 3.32458,0.172302 L 3.32632,0.220825 L 3.33154,0.265518 L 3.34024,0.306366 L 3.35243,0.343369
 L 3.36809,0.376526 L 3.38724,0.405853 L 3.40973,0.430969 L 3.43542,0.451508 L 3.46434,0.467499 L 3.49646,0.478912
 L 3.5318,0.485764 L 3.57034,0.488037 L 3.60103,0.486984 L 3.62961,0.483795 L 3.65608,0.478485 L 3.68047,0.471039
 L 3.70274,0.461487 L 3.72292,0.449799 L 3.741,0.436478 L 3.75705,0.422028 L 3.77103,0.406464 L 3.78294,0.389755
 L 3.79282,0.371918 L 3.80063,0.352951 L 3.9292,0.389572 L 3.89731,0.453217 L 3.85425,0.50531 L 3.80002,0.545807
 L 3.73462,0.574738 L 3.65807,0.592102 L 3.57034,0.597885 z
M 3.79608,0.0157013 L 3.78815,-0.0243835 L 3.77763,-0.060318 L 3.76454,-0.0920563 L 3.74889,-0.119629 L 3.73064,-0.143005
 L 3.70969,-0.162537 L 3.68588,-0.178497 L 3.65924,-0.190918 L 3.62975,-0.199783 L 3.5974,-0.205109 L 3.56221,-0.206894
 L 3.52789,-0.20491 L 3.49606,-0.198975 L 3.46669,-0.189087 L 3.43977,-0.175232 L 3.41533,-0.15744 L 3.39334,-0.135681
 L 3.37419,-0.110474 L 3.35822,-0.0822906 L 3.34544,-0.0511627 L 3.33585,-0.0170593 L 3.32944,0.019989 L 3.32622,0.0599976
 L 3.80144,0.0599976 z
M 4.12073,0.581619 L 4.12073,-0.0937805 L 4.12059,-0.125244 L 4.12019,-0.157791 L 4.11951,-0.191422 L 4.11856,-0.226151
 L 4.11734,-0.261948 L 4.11586,-0.298843 L 4.2542,-0.298843 L 4.25618,-0.252258 L 4.25781,-0.212311 L 4.25906,-0.179016
 L 4.25998,-0.152374 L 4.26051,-0.13237 L 4.2607,-0.119019 L 4.26395,-0.119019 L 4.27591,-0.154724 L 4.28845,-0.186462
 L 4.30159,-0.214218 L 4.31531,-0.237991 L 4.32961,-0.257797 L 4.3445,-0.273621 L 4.36073,-0.286301 L 4.37904,-0.296677
 L 4.39943,-0.304749 L 4.42191,-0.310501 L 4.44646,-0.313965 L 4.47308,-0.315109 L 4.48286,-0.314896 L 4.49271,-0.314209
 L 4.50258,-0.31308 L 4.51251,-0.311493 L 4.52248,-0.309464 L 4.5325,-0.306976 L 4.5325,-0.172714 L 4.52219,-0.175201
 L 4.51079,-0.177231 L 4.49831,-0.178818 L 4.48476,-0.179947 L 4.47011,-0.180618 L 4.45438,-0.180847 L 4.4252,-0.178665
 L 4.39841,-0.172119 L 4.37402,-0.161209 L 4.35202,-0.14595 L 4.33243,-0.126312 L 4.31523,-0.102325 L 4.30055,-0.0742645
 L 4.28854,-0.0424194 L 4.27922,-0.00680542 L 4.27255,0.0325623 L 4.26854,0.0757294 L 4.26721,0.122665 L 4.26721,0.581619
 z
M 2.35371,0.581619 L 2.35371,0.470139 L 2.84604,-0.18573 L 2.38139,-0.18573 L 2.38139,-0.298843 L 3.01936,-0.298843
 L 3.01936,-0.187363 L 2.52625,0.468506 L 3.03645,0.468506 L 3.03645,0.581619 z
M 1.27,0.595886 L 1.2282,0.58989 L 1.1907,0.57988 L 1.15753,0.565887 L 1.12868,0.547882 L 1.10414,0.525879
 L 1.08363,0.499252 L 1.06685,0.467422 L 1.0538,0.430359 L 1.04448,0.388077 L 1.03888,0.340576 L 1.03702,0.287857
 L 1.03702,-0.298843 L 1.1843,-0.298843 L 1.1843,0.259369 L 1.18477,0.287308 L 1.1862,0.31308 L 1.18857,0.33667
 L 1.19189,0.358109 L 1.19617,0.377365 L 1.20139,0.394455 L 1.20766,0.409714 L 1.21504,0.423477 L 1.22356,0.435745
 L 1.23322,0.446533 L 1.24399,0.455826 L 1.25591,0.463623 L 1.26936,0.470093 L 1.28476,0.475372 L 1.30209,0.479492
 L 1.32137,0.482422 L 1.34259,0.484192 L 1.36577,0.484772 L 1.39978,0.482773 L 1.43132,0.47673 L 1.46037,0.466675
 L 1.48692,0.452591 L 1.511,0.434479 L 1.53259,0.412354 L 1.55124,0.386658 L 1.5665,0.357834 L 1.57837,0.325897
 L 1.58684,0.290833 L 1.59192,0.252655 L 1.59363,0.211365 L 1.59363,-0.298843 L 1.7401,-0.298843 L 1.7401,0.393631
 L 1.74023,0.441589 L 1.74063,0.48288 L 1.74132,0.517532 L 1.74226,0.545547 L 1.74348,0.56691 L 1.74498,0.581619
 L 1.60664,0.581619 L 1.60637,0.57988 L 1.60609,0.577362 L 1.60582,0.574097 L 1.60529,0.565231 L 1.60297,0.518555
 L 1.60255,0.509689 L 1.60211,0.498535 L 1.60165,0.485092 L 1.60117,0.469376 L 1.60013,0.431076 L 1.59769,0.431076
 L 1.58043,0.459976 L 1.56229,0.485916 L 1.54327,0.508896 L 1.52338,0.5289 L 1.50258,0.545959 L 1.48091,0.560059
 L 1.45792,0.571609 L 1.43314,0.58107 L 1.40656,0.588425 L 1.3782,0.593689 L 1.34807,0.596832 L 1.31613,0.597885
 z
M -2.18372,0.581619 L -2.50351,-0.298843 L -2.34727,-0.298843 L -2.15361,0.274017 L -2.14911,0.288422 L -2.14267,0.309906
 L -2.13428,0.338501 L -2.12395,0.374191 L -2.11168,0.416992 L -2.09746,0.466873 L -2.06897,0.371658 L -2.03725,0.275635
 L -1.83705,-0.298843 L -1.68164,-0.298843 L -2.01039,0.581619 z
M -1.58392,0.581619 L -1.58392,-0.298843 L -1.43744,-0.298843 L -1.43744,0.581619 z
M -1.49413,0.913986 L -1.49413,0.774017 L -1.34764,0.774017 L -1.34764,0.913986 z
M -0.31871,0.913986 L -0.31871,0.774017 L -0.172226,0.774017 L -0.172226,0.913986 z
M 2.27782,1.98161 L 2.27782,1.87827 L 2.29216,1.84715 L 2.30753,1.81728 L 2.3239,1.78865 L 2.34129,1.76128
 L 2.3597,1.73512 L 2.37912,1.71024 L 2.39923,1.68634 L 2.41968,1.66321 L 2.44046,1.64085 L 2.46159,1.61926
 L 2.48305,1.59845 L 2.50485,1.5784 L 2.52678,1.55898 L 2.54866,1.54001 L 2.57047,1.52153 L 2.59219,1.50352
 L 2.61386,1.48601 L 2.65668,1.45213 L 2.67719,1.43532 L 2.69699,1.4185 L 2.71611,1.40169 L 2.73451,1.38489
 L 2.75223,1.36807 L 2.76903,1.3511 L 2.78473,1.33388 L 2.79933,1.31639 L 2.81281,1.29861 L 2.82518,1.28058
 L 2.83646,1.26227 L 2.84628,1.24342 L 2.85431,1.22375 L 2.86057,1.20328 L 2.86504,1.18198 L 2.86771,1.15988
 L 2.86861,1.13696 L 2.86707,1.10666 L 2.86246,1.07872 L 2.85477,1.05313 L 2.84401,1.02989 L 2.83017,1.009
 L 2.81326,0.990479 L 2.79362,0.974564 L 2.77158,0.961548 L 2.74715,0.951416 L 2.72032,0.944183 L 2.69109,0.939835
 L 2.65947,0.9384 L 2.62918,0.939804 L 2.60074,0.944046 L 2.57413,0.951111 L 2.54933,0.960999 L 2.52638,0.973724
 L 2.50525,0.989258 L 2.48643,1.00735 L 2.4704,1.02774 L 2.45714,1.0504 L 2.44667,1.07533 L 2.43898,1.10257
 L 2.43407,1.13208 L 2.28432,1.11824 L 2.29208,1.07396 L 2.30453,1.03279 L 2.32166,0.994751 L 2.34346,0.959839
 L 2.36993,0.928024 L 2.40109,0.899353 L 2.43619,0.874481 L 2.47447,0.854126 L 2.51595,0.838303 L 2.56059,0.827011
 L 2.60844,0.820221 L 2.65947,0.817963 L 2.71501,0.820236 L 2.76611,0.827042 L 2.81276,0.838409 L 2.85495,0.854309
 L 2.89268,0.874756 L 2.92596,0.89975 L 2.95444,0.928909 L 2.97774,0.961899 L 2.99585,0.998718 L 3.00879,1.03935
 L 3.01656,1.0838 L 3.01915,1.13208 L 3.0183,1.1543 L 3.01575,1.17647 L 3.01152,1.19859 L 3.00558,1.22067
 L 2.99796,1.24272 L 2.98863,1.26471 L 2.97763,1.28668 L 2.96498,1.30865 L 2.95068,1.33063 L 2.93474,1.3526
 L 2.91714,1.37457 L 2.8979,1.39655 L 2.87477,1.42052 L 2.84555,1.44852 L 2.81021,1.48055 L 2.76878,1.5166
 L 2.72124,1.55669 L 2.6676,1.60078 L 2.63747,1.62585 L 2.60947,1.6501 L 2.58359,1.67351 L 2.55983,1.69608
 L 2.53819,1.7178 L 2.51868,1.73871 L 2.5011,1.75906 L 2.48523,1.77917 L 2.47108,1.79903 L 2.45865,1.81863
 L 2.44794,1.838 L 2.43895,1.85712 L 3.03705,1.85712 L 3.03705,1.98161 z
M -4.3633,1.98161 L -4.3633,0.835052 L -3.82378,0.835052 L -3.76167,0.837463 L -3.70448,0.844681 L -3.65218,0.85672
 L -3.6048,0.873566 L -3.5623,0.895233 L -3.52473,0.921707 L -3.49254,0.952484 L -3.46619,0.987045 L -3.44569,1.02536
 L -3.43106,1.06747 L -3.42227,1.11334 L -3.41934,1.16299 L -3.42142,1.20445 L -3.42763,1.24365 L -3.43796,1.28058
 L -3.45244,1.31526 L -3.47105,1.34767 L -3.4938,1.37782 L -3.5202,1.40504 L -3.54973,1.42871 L -3.5824,1.44881
 L -3.61823,1.46533 L -3.65718,1.47829 L -3.69926,1.48767 L -3.37376,1.98161 L -3.5528,1.98161 L -3.85065,1.50557
 L -4.20787,1.50557 L -4.20787,1.98161 z
M -3.79332,1.38112 L -3.757,1.37633 L -3.7238,1.36836 L -3.69368,1.35721 L -3.66666,1.34286 L -3.64273,1.32533
 L -3.62221,1.30493 L -3.60542,1.28198 L -3.59238,1.25647 L -3.58305,1.22841 L -3.57745,1.19778 L -3.57559,1.16461
 L -3.57747,1.13258 L -3.58315,1.10318 L -3.59258,1.07643 L -3.60579,1.05232 L -3.62277,1.03085 L -3.64354,1.01204
 L -3.66785,0.996002 L -3.69548,0.98288 L -3.72644,0.972672 L -3.76071,0.965378 L -3.79832,0.961014 L -3.83923,0.959549
 L -4.20787,0.959549 L -4.20787,1.38271 L -3.83273,1.38271 z
M -2.91676,1.99464 L -2.97411,1.98495 L -3.02626,1.9688 L -3.07324,1.94617 L -3.11505,1.91707 L -3.15169,1.88152
 L -3.18289,1.83958 L -3.20842,1.79138 L -3.22827,1.73688 L -3.24246,1.6761 L -3.25096,1.60902 L -3.2538,1.53568
 L -3.25096,1.46581 L -3.24246,1.4016 L -3.22827,1.34303 L -3.20842,1.29012 L -3.18289,1.24286 L -3.15169,1.20125
 L -3.11522,1.16568 L -3.07388,1.1366 L -3.02768,1.11397 L -2.97664,1.09781 L -2.92073,1.0881 L -2.85995,1.08488
 L -2.74135,1.09787 L -2.6443,1.13687 L -2.56883,1.20186 L -2.51492,1.29283 L -2.48257,1.40979 L -2.47179,1.55276
 L -2.47179,1.5723 L -3.10001,1.5723 L -3.09827,1.62082 L -3.09305,1.66551 L -3.08435,1.70636 L -3.07217,1.74336
 L -3.0565,1.77652 L -3.03737,1.80585 L -3.01486,1.83096 L -2.98917,1.8515 L -2.96025,1.86749 L -2.92813,1.87891
 L -2.89279,1.88576 L -2.85425,1.88803 L -2.82356,1.88698 L -2.79498,1.88379 L -2.76851,1.87848 L -2.74413,1.87103
 L -2.72186,1.86148 L -2.70169,1.84979 L -2.68359,1.83647 L -2.66756,1.82202 L -2.65356,1.80646 L -2.64165,1.78975
 L -2.63177,1.77191 L -2.62396,1.75294 L -2.49539,1.78957 L -2.52728,1.85321 L -2.57034,1.9053 L -2.62457,1.9458
 L -2.68997,1.97473 L -2.76653,1.9921 L -2.85425,1.99788 z
M -2.62851,1.4157 L -2.63644,1.37561 L -2.64696,1.33968 L -2.66005,1.30794 L -2.67572,1.28036 L -2.69395,1.25699
 L -2.7149,1.23746 L -2.73871,1.2215 L -2.76535,1.20908 L -2.79486,1.20021 L -2.82719,1.19489 L -2.8624,1.1931
 L -2.8967,1.19508 L -2.92853,1.20102 L -2.95792,1.21091 L -2.98482,1.22476 L -3.00926,1.24255 L -3.03125,1.26431
 L -3.05042,1.28952 L -3.06638,1.3177 L -3.07916,1.34883 L -3.08875,1.38293 L -3.09515,1.41998 L -3.09839,1.45999
 L -2.62315,1.45999 z
M 0.329514,1.99461 L 0.273102,1.98482 L 0.221924,1.96849 L 0.175995,1.94562 L 0.1353,1.91623 L 0.0998535,1.88029
 L 0.0697784,1.8382 L 0.0451508,1.79028 L 0.0260162,1.73657 L 0.0123444,1.67705 L 0.00413513,1.61171 L 0.00140381,1.54056
 L 0.0123596,1.40132 L 0.0452576,1.28741 L 0.100067,1.19881 L 0.176804,1.13551 L 0.275467,1.09753 L 0.396072,1.08488
 L 0.460373,1.08797 L 0.518753,1.09721 L 0.571228,1.11264 L 0.617767,1.13425 L 0.658386,1.16202 L 0.693085,1.19595
 L 0.722168,1.23637 L 0.745972,1.28362 L 0.764496,1.33765 L 0.777725,1.39848 L 0.78566,1.46611 L 0.7883,1.54056
 L 0.785477,1.61432 L 0.776993,1.68152 L 0.762863,1.74216 L 0.743088,1.79625 L 0.717651,1.8438 L 0.686569,1.88477
 L 0.650116,1.91933 L 0.608536,1.94762 L 0.561859,1.9696 L 0.510071,1.98532 L 0.453186,1.99474 L 0.39119,1.99788
 z
M 0.431396,1.8873 L 0.46907,1.88025 L 0.502563,1.8685 L 0.531876,1.85205 L 0.556992,1.83089 L 0.577942,1.80504
 L 0.595215,1.77417 L 0.60936,1.73804 L 0.620361,1.69659 L 0.628204,1.64987 L 0.632919,1.59787 L 0.634491,1.54056
 L 0.632996,1.48257 L 0.628479,1.43011 L 0.620972,1.38322 L 0.610443,1.34184 L 0.596909,1.306 L 0.580368,1.2757
 L 0.560287,1.25046 L 0.536118,1.22981 L 0.507858,1.21376 L 0.475494,1.20229 L 0.439041,1.1954 L 0.398499,1.1931
 L 0.35762,1.19545 L 0.320694,1.20247 L 0.287735,1.21416 L 0.258728,1.23055 L 0.233658,1.2516 L 0.212555,1.27733
 L 0.195038,1.30804 L 0.180695,1.34401 L 0.16954,1.38525 L 0.16156,1.43175 L 0.156784,1.48352 L 0.155197,1.54056
 L 0.156769,1.59621 L 0.161469,1.64702 L 0.169327,1.69304 L 0.180328,1.73422 L 0.194458,1.77061 L 0.211746,1.80217
 L 0.232391,1.8289 L 0.256638,1.85077 L 0.28447,1.86778 L 0.315903,1.87993 L 0.350937,1.88722 L 0.389557,1.88965
 z
M 0.952148,1.98161 L 0.952148,1.28912 L 0.952011,1.24118 L 0.951614,1.19989 L 0.950943,1.16524 L 0.949982,1.13722
 L 0.948776,1.11586 L 0.947281,1.10115 L 1.08562,1.10115 L 1.08589,1.10289 L 1.08615,1.10539 L 1.08643,1.10867
 L 1.0867,1.11272 L 1.08928,1.16422 L 1.08969,1.1731 L 1.09013,1.18425 L 1.09061,1.19768 L 1.0916,1.2314
 L 1.09212,1.25169 L 1.09457,1.25169 L 1.11183,1.22279 L 1.12996,1.19685 L 1.14899,1.17387 L 1.16888,1.15385
 L 1.18967,1.13681 L 1.21133,1.12271 L 1.23433,1.11116 L 1.25912,1.1017 L 1.28569,1.09435 L 1.31406,1.08908
 L 1.34419,1.08592 L 1.37613,1.08488 L 1.42224,1.08688 L 1.46405,1.09288 L 1.50154,1.10287 L 1.53471,1.11688
 L 1.56355,1.13489 L 1.58809,1.15689 L 1.60861,1.1835 L 1.6254,1.21535 L 1.63844,1.2524 L 1.64777,1.29468
 L 1.65337,1.34218 L 1.65523,1.39491 L 1.65523,1.98161 L 1.50795,1.98161 L 1.50795,1.42339 L 1.50748,1.39546
 L 1.50604,1.36969 L 1.50368,1.34608 L 1.50035,1.32466 L 1.49608,1.3054 L 1.49086,1.28831 L 1.4846,1.27306
 L 1.4772,1.25929 L 1.46869,1.24701 L 1.45903,1.23624 L 1.44824,1.22694 L 1.43633,1.21915 L 1.42288,1.21268
 L 1.40749,1.2074 L 1.39015,1.20328 L 1.37088,1.20035 L 1.34966,1.19858 L 1.32648,1.198 L 1.29247,1.2
 L 1.26094,1.20604 L 1.23189,1.21609 L 1.20532,1.23018 L 1.18126,1.24828 L 1.15967,1.27042 L 1.14102,1.29611
 L 1.12576,1.32494 L 1.11389,1.35687 L 1.10542,1.39194 L 1.10033,1.4301 L 1.09863,1.47139 L 1.09863,1.98161
 z
M -0.880875,1.99638 L -0.929398,1.99187 L -0.97374,1.98436 L -1.0139,1.97383 L -1.04987,1.96031 L -1.08167,1.94377
 L -1.10963,1.92406 L -1.13416,1.90096 L -1.1552,1.8745 L -1.17281,1.84468 L -1.18694,1.81148 L -1.19762,1.77492
 L -1.06822,1.74969 L -1.06088,1.77223 L -1.05132,1.79268 L -1.03955,1.81104 L -1.02556,1.82727 L -1.00935,1.84142
 L -0.990936,1.85345 L -0.970139,1.86353 L -0.946808,1.87177 L -0.920944,1.87816 L -0.892548,1.88274 L -0.861633,1.88548
 L -0.828171,1.8864 L -0.792679,1.88545 L -0.760498,1.8826 L -0.731644,1.87785 L -0.7061,1.87122 L -0.683899,1.86267
 L -0.665009,1.85223 L -0.649216,1.83989 L -0.636307,1.82564 L -0.626251,1.80951 L -0.61908,1.79146 L -0.614777,1.77153
 L -0.613342,1.74969 L -0.614334,1.73286 L -0.617325,1.71713 L -0.622299,1.70248 L -0.629257,1.68893 L -0.638214,1.67645
 L -0.649155,1.66507 L -0.662308,1.65453 L -0.677902,1.64462 L -0.695938,1.63536 L -0.716415,1.62672 L -0.739334,1.61871
 L -0.764694,1.61136 L -0.869675,1.58369 L -0.909698,1.57288 L -0.945663,1.56212 L -0.9776,1.55144 L -1.00548,1.54083
 L -1.02931,1.53029 L -1.0491,1.51982 L -1.06624,1.509 L -1.08206,1.49744 L -1.09662,1.48512 L -1.10986,1.47208
 L -1.12184,1.45827 L -1.13252,1.44373 L -1.14172,1.42824 L -1.14925,1.41162 L -1.15511,1.39389 L -1.15929,1.37502
 L -1.16179,1.35501 L -1.16263,1.33388 L -1.16025,1.29533 L -1.15309,1.25996 L -1.14116,1.22778 L -1.12447,1.19881
 L -1.10301,1.173 L -1.07678,1.15039 L -1.04597,1.13112 L -1.01082,1.11534 L -0.971298,1.10309 L -0.927399,1.09433
 L -0.87915,1.08907 L -0.826538,1.08731 L -0.779648,1.08875 L -0.736084,1.09302 L -0.695847,1.10013 L -0.65892,1.11009
 L -0.62532,1.12291 L -0.595047,1.13858 L -0.568176,1.15738 L -0.544815,1.17963 L -0.524948,1.20531 L -0.508591,1.23442
 L -0.495743,1.26697 L -0.486404,1.30295 L -0.618225,1.31924 L -0.623428,1.30046 L -0.63092,1.2832 L -0.640701,1.26746
 L -0.652756,1.25323 L -0.667099,1.24052 L -0.683731,1.22932 L -0.702499,1.21974 L -0.723297,1.21191 L -0.746094,1.20583
 L -0.770889,1.20148 L -0.797714,1.19887 L -0.826538,1.198 L -0.858185,1.19882 L -0.886948,1.20134 L -0.912796,1.20552
 L -0.935776,1.21136 L -0.955841,1.2189 L -0.973022,1.2281 L -0.987442,1.239 L -0.999252,1.2516 L -1.00842,1.26593
 L -1.01498,1.28198 L -1.01891,1.29976 L -1.02022,1.31924 L -1.01968,1.33136 L -1.01805,1.34274 L -1.01535,1.35341
 L -1.01155,1.36336 L -1.00667,1.37259 L -1.0007,1.38109 L -0.993668,1.38902 L -0.985596,1.39655 L -0.976486,1.40366
 L -0.966339,1.41035 L -0.955154,1.41667 L -0.942917,1.42256 L -0.927811,1.42862 L -0.90802,1.43541 L -0.883514,1.44292
 L -0.854294,1.45114 L -0.820389,1.46008 L -0.781784,1.46976 L -0.744797,1.4794 L -0.711441,1.4888 L -0.681702,1.49794
 L -0.655563,1.50684 L -0.633057,1.51549 L -0.614151,1.52388 L -0.597672,1.5323 L -0.582382,1.54102 L -0.568283,1.55002
 L -0.555389,1.55933 L -0.543686,1.56892 L -0.533188,1.57881 L -0.523666,1.5891 L -0.514877,1.59991 L -0.506851,1.61125
 L -0.499557,1.62311 L -0.493011,1.63548 L -0.487213,1.64838 L -0.482239,1.66185 L -0.47818,1.67592 L -0.475006,1.6906
 L -0.472748,1.70589 L -0.47139,1.72179 L -0.470932,1.7383 L -0.473541,1.77821 L -0.481384,1.81497 L -0.494431,1.84856
 L -0.512711,1.87898 L -0.536209,1.90625 L -0.564926,1.93034 L -0.598358,1.95099 L -0.635956,1.96786 L -0.677734,1.981
 L -0.723694,1.99037 L -0.773849,1.996 L -0.828171,1.99788 z
M -2.09392,1.98161 L -2.41371,1.10115 L -2.25748,1.10115 L -2.06381,1.67401 L -2.05931,1.68842 L -2.05286,1.7099
 L -2.04448,1.73849 L -2.03415,1.77419 L -2.02188,1.81699 L -2.00766,1.86687 L -1.97917,1.77165 L -1.94745,1.67563
 L -1.74725,1.10115 L -1.59183,1.10115 L -1.92059,1.98161 z
M -1.49413,1.98161 L -1.49413,1.10115 L -1.34764,1.10115 L -1.34764,1.98161 z
M -0.31871,1.98161 L -0.31871,1.10115 L -0.172226,1.10115 L -0.172226,1.98161 z
" stroke="black" fill="lightgray" stroke-width="0.5"/>
</svg>
