%TF.GenerationSoftware,KiCad,Pcbnew,(6.0.5-0)*%
%TF.CreationDate,2022-06-14T21:43:59-04:00*%
%TF.ProjectId,pico_ducky_pcb,7069636f-5f64-4756-936b-795f7063622e,rev?*%
%TF.SameCoordinates,Original*%
%TF.FileFunction,Copper,L2,Inr*%
%TF.FilePolarity,Positive*%
%FSLAX46Y46*%
G04 Gerber Fmt 4.6, Leading zero omitted, Abs format (unit mm)*
G04 Created by KiCad (PCBNEW (6.0.5-0)) date 2022-06-14 21:43:59*
%MOMM*%
%LPD*%
G01*
G04 APERTURE LIST*
%TA.AperFunction,ComponentPad*%
%ADD10C,0.600000*%
%TD*%
%TA.AperFunction,ViaPad*%
%ADD11C,0.600000*%
%TD*%
G04 APERTURE END LIST*
D10*
%TO.N,GND*%
%TO.C,U3*%
X85825000Y-56725000D03*
X87100000Y-59275000D03*
X88375000Y-58000000D03*
X87100000Y-58000000D03*
X88375000Y-56725000D03*
X85825000Y-59275000D03*
X88375000Y-59275000D03*
X87100000Y-56725000D03*
X85825000Y-58000000D03*
%TD*%
D11*
%TO.N,GND*%
X92050000Y-56570000D03*
X85950000Y-55750000D03*
X92250000Y-45170000D03*
X93250000Y-44170000D03*
X84000000Y-51500000D03*
X82150000Y-60400000D03*
X85150000Y-49130000D03*
X92150000Y-52970000D03*
X82850000Y-63770000D03*
X86200000Y-62800000D03*
X84000000Y-50500000D03*
X92250000Y-44170000D03*
X81700000Y-53100000D03*
X81680000Y-54180000D03*
X92250000Y-46170000D03*
X93250000Y-46170000D03*
X88000000Y-66200000D03*
X90450000Y-54470000D03*
X84000000Y-49500000D03*
X92850000Y-67170000D03*
X80970000Y-47720000D03*
X93250000Y-45170000D03*
X81250000Y-57770000D03*
X92050000Y-57800000D03*
X85600000Y-66400000D03*
X91250000Y-46170000D03*
X80440000Y-48480000D03*
%TO.N,+5V*%
X80750000Y-44170000D03*
X80750000Y-45170000D03*
X81750000Y-45170000D03*
X81750000Y-44170000D03*
%TO.N,+3V3*%
X89800000Y-51700000D03*
X84150000Y-47570000D03*
X92750000Y-60870000D03*
X92050000Y-59600000D03*
X83290000Y-47570000D03*
X93050000Y-50670000D03*
X87300000Y-53650000D03*
X87300000Y-60500000D03*
X81700000Y-55050000D03*
X81540000Y-59080000D03*
X81000000Y-60900000D03*
X82750000Y-55800000D03*
X86080000Y-47870000D03*
X92050000Y-54770000D03*
%TO.N,+1V1*%
X89000000Y-53700000D03*
X86900000Y-55750000D03*
%TO.N,/RGB_DI*%
X93050000Y-52970000D03*
X91346675Y-56005695D03*
%TO.N,/QSPI_CS*%
X80400000Y-55600000D03*
X83160000Y-54560000D03*
%TO.N,/USB_+*%
X88100000Y-47600000D03*
X88089477Y-49310523D03*
%TO.N,/QSPI_SD1*%
X84890723Y-53300980D03*
X84900000Y-55550000D03*
%TD*%
%TA.AperFunction,Conductor*%
%TO.N,GND*%
G36*
X93841621Y-40120502D02*
G01*
X93888114Y-40174158D01*
X93899500Y-40226500D01*
X93899500Y-69773500D01*
X93879498Y-69841621D01*
X93825842Y-69888114D01*
X93773500Y-69899500D01*
X91226500Y-69899500D01*
X91158379Y-69879498D01*
X91111886Y-69825842D01*
X91100500Y-69773500D01*
X91100500Y-69279453D01*
X91120502Y-69211332D01*
X91128740Y-69204194D01*
X91109750Y-69180281D01*
X91100500Y-69132895D01*
X91100500Y-68817779D01*
X91120502Y-68749658D01*
X91174158Y-68703165D01*
X91244432Y-68693061D01*
X91309012Y-68722555D01*
X91346333Y-68778843D01*
X91368750Y-68847835D01*
X91372053Y-68853557D01*
X91372054Y-68853558D01*
X91427027Y-68948774D01*
X91443765Y-69017769D01*
X91420544Y-69084861D01*
X91407004Y-69100868D01*
X91360574Y-69147298D01*
X91349252Y-69169519D01*
X91338767Y-69190097D01*
X91324749Y-69204940D01*
X91340355Y-69225480D01*
X91345905Y-69237188D01*
X91348739Y-69255081D01*
X91394919Y-69301261D01*
X91409919Y-69303637D01*
X91409920Y-69303637D01*
X91420977Y-69305388D01*
X91459424Y-69311477D01*
X91477205Y-69302417D01*
X91477206Y-69302417D01*
X91482165Y-69299890D01*
X91502702Y-69289426D01*
X91547333Y-69244795D01*
X91609645Y-69210769D01*
X91680460Y-69215834D01*
X91710488Y-69231953D01*
X91717065Y-69236732D01*
X91717073Y-69236737D01*
X91722407Y-69240612D01*
X91728434Y-69243295D01*
X91728435Y-69243296D01*
X91865806Y-69304457D01*
X91885733Y-69313329D01*
X91973171Y-69331914D01*
X92054152Y-69349128D01*
X92054156Y-69349128D01*
X92060609Y-69350500D01*
X92239391Y-69350500D01*
X92245844Y-69349128D01*
X92245848Y-69349128D01*
X92326829Y-69331914D01*
X92414267Y-69313329D01*
X92434194Y-69304457D01*
X92571563Y-69243297D01*
X92571565Y-69243296D01*
X92577593Y-69240612D01*
X92582931Y-69236734D01*
X92582934Y-69236732D01*
X92589511Y-69231953D01*
X92656379Y-69208095D01*
X92725531Y-69224177D01*
X92752666Y-69244795D01*
X92797298Y-69289427D01*
X92840577Y-69311478D01*
X92905082Y-69301261D01*
X92951261Y-69255082D01*
X92961478Y-69190577D01*
X92939427Y-69147298D01*
X92892997Y-69100868D01*
X92858971Y-69038556D01*
X92864036Y-68967741D01*
X92872973Y-68948774D01*
X92931250Y-68847835D01*
X92978256Y-68703165D01*
X92984457Y-68684082D01*
X92984457Y-68684080D01*
X92986497Y-68677803D01*
X92989597Y-68648314D01*
X93004495Y-68506565D01*
X93005185Y-68500000D01*
X92995821Y-68410905D01*
X92987187Y-68328761D01*
X92987187Y-68328760D01*
X92986497Y-68322197D01*
X92980196Y-68302803D01*
X92946497Y-68199089D01*
X92931250Y-68152165D01*
X92927663Y-68145951D01*
X92875696Y-68055943D01*
X92872973Y-68051225D01*
X92856235Y-67982232D01*
X92879455Y-67915140D01*
X92892997Y-67899132D01*
X92939427Y-67852702D01*
X92961478Y-67809423D01*
X92951261Y-67744918D01*
X92905082Y-67698739D01*
X92840577Y-67688522D01*
X92797298Y-67710573D01*
X92752666Y-67755205D01*
X92690354Y-67789231D01*
X92619539Y-67784166D01*
X92589511Y-67768047D01*
X92582934Y-67763268D01*
X92582931Y-67763266D01*
X92577593Y-67759388D01*
X92571565Y-67756704D01*
X92571563Y-67756703D01*
X92420298Y-67689356D01*
X92420297Y-67689356D01*
X92414267Y-67686671D01*
X92326829Y-67668085D01*
X92245848Y-67650872D01*
X92245844Y-67650872D01*
X92239391Y-67649500D01*
X92060609Y-67649500D01*
X92054156Y-67650872D01*
X92054152Y-67650872D01*
X91973171Y-67668085D01*
X91885733Y-67686671D01*
X91879703Y-67689356D01*
X91879702Y-67689356D01*
X91728438Y-67756703D01*
X91728436Y-67756704D01*
X91722408Y-67759388D01*
X91717067Y-67763268D01*
X91717066Y-67763269D01*
X91710490Y-67768047D01*
X91643623Y-67791905D01*
X91574471Y-67775825D01*
X91547334Y-67755206D01*
X91502702Y-67710574D01*
X91482165Y-67700110D01*
X91477206Y-67697583D01*
X91477205Y-67697583D01*
X91459424Y-67688523D01*
X91424082Y-67694120D01*
X91412812Y-67695905D01*
X91412811Y-67695905D01*
X91394919Y-67698739D01*
X91348739Y-67744919D01*
X91346363Y-67759921D01*
X91337087Y-67776908D01*
X91323544Y-67790450D01*
X91338767Y-67809903D01*
X91360574Y-67852702D01*
X91407003Y-67899131D01*
X91441029Y-67961443D01*
X91435964Y-68032258D01*
X91427027Y-68051226D01*
X91372338Y-68145951D01*
X91368750Y-68152165D01*
X91353503Y-68199089D01*
X91346333Y-68221157D01*
X91306259Y-68279763D01*
X91240863Y-68307400D01*
X91170906Y-68295293D01*
X91118600Y-68247287D01*
X91100500Y-68182221D01*
X91100500Y-67867105D01*
X91120502Y-67798984D01*
X91130638Y-67790201D01*
X91108444Y-67760552D01*
X91100500Y-67716521D01*
X91100500Y-66967346D01*
X91090662Y-66953805D01*
X91085490Y-66937888D01*
X91071950Y-66928050D01*
X91062112Y-66914510D01*
X91046195Y-66909338D01*
X91032654Y-66899500D01*
X82967346Y-66899500D01*
X82953805Y-66909338D01*
X82937888Y-66914510D01*
X82928050Y-66928050D01*
X82914510Y-66937888D01*
X82909338Y-66953805D01*
X82899500Y-66967346D01*
X82899500Y-69773500D01*
X82879498Y-69841621D01*
X82825842Y-69888114D01*
X82773500Y-69899500D01*
X80226500Y-69899500D01*
X80158379Y-69879498D01*
X80111886Y-69825842D01*
X80100500Y-69773500D01*
X80100500Y-68488753D01*
X80694514Y-68488753D01*
X80695617Y-68499996D01*
X80695616Y-68500000D01*
X80695617Y-68500000D01*
X80712039Y-68667486D01*
X80714262Y-68674168D01*
X80714262Y-68674169D01*
X80753811Y-68793058D01*
X80768726Y-68837896D01*
X80812317Y-68909873D01*
X80830495Y-68978500D01*
X80808685Y-69046063D01*
X80793635Y-69064237D01*
X80757715Y-69100157D01*
X80735664Y-69143435D01*
X80741722Y-69181689D01*
X80742759Y-69188231D01*
X80745880Y-69207940D01*
X80792060Y-69254120D01*
X80807060Y-69256496D01*
X80807061Y-69256496D01*
X80820322Y-69258596D01*
X80856565Y-69264336D01*
X80874346Y-69255276D01*
X80874347Y-69255276D01*
X80879306Y-69252749D01*
X80899843Y-69242285D01*
X80935213Y-69206915D01*
X80997525Y-69172889D01*
X81068340Y-69177954D01*
X81093301Y-69190578D01*
X81130891Y-69215177D01*
X81130895Y-69215179D01*
X81136789Y-69219036D01*
X81305116Y-69281636D01*
X81312097Y-69282567D01*
X81312099Y-69282568D01*
X81476149Y-69304457D01*
X81476153Y-69304457D01*
X81483130Y-69305388D01*
X81490142Y-69304750D01*
X81490146Y-69304750D01*
X81654960Y-69289751D01*
X81654961Y-69289751D01*
X81661981Y-69289112D01*
X81832782Y-69233615D01*
X81846429Y-69225480D01*
X81910613Y-69187219D01*
X81979368Y-69169519D01*
X82046778Y-69191801D01*
X82064225Y-69206353D01*
X82100157Y-69242285D01*
X82143435Y-69264337D01*
X82158436Y-69261961D01*
X82188231Y-69257242D01*
X82207941Y-69254120D01*
X82254120Y-69207941D01*
X82264337Y-69143435D01*
X82257443Y-69129906D01*
X82257443Y-69129904D01*
X82246789Y-69108996D01*
X82246788Y-69108995D01*
X82242285Y-69100157D01*
X82207122Y-69064994D01*
X82173096Y-69002682D01*
X82178161Y-68931867D01*
X82191270Y-68906170D01*
X82192949Y-68903644D01*
X82216483Y-68868222D01*
X82218985Y-68861636D01*
X82277757Y-68706919D01*
X82277758Y-68706914D01*
X82280257Y-68700336D01*
X82281237Y-68693364D01*
X82304700Y-68526416D01*
X82304700Y-68526411D01*
X82305251Y-68522493D01*
X82305403Y-68511576D01*
X82305510Y-68503963D01*
X82305510Y-68503958D01*
X82305565Y-68500000D01*
X82285546Y-68321528D01*
X82279427Y-68303955D01*
X82257411Y-68240736D01*
X82226485Y-68151927D01*
X82188729Y-68091505D01*
X82169593Y-68023136D01*
X82190458Y-67955274D01*
X82206488Y-67935640D01*
X82242285Y-67899843D01*
X82249357Y-67885965D01*
X82256112Y-67872707D01*
X82264337Y-67856565D01*
X82261215Y-67836854D01*
X82257242Y-67811769D01*
X82254120Y-67792059D01*
X82207941Y-67745880D01*
X82188231Y-67742758D01*
X82163152Y-67738786D01*
X82143435Y-67735663D01*
X82129906Y-67742557D01*
X82129904Y-67742557D01*
X82108996Y-67753211D01*
X82100157Y-67757715D01*
X82064470Y-67793402D01*
X82002158Y-67827428D01*
X81931343Y-67822363D01*
X81907862Y-67810693D01*
X81880910Y-67793589D01*
X81853136Y-67775963D01*
X81799048Y-67756703D01*
X81690586Y-67718081D01*
X81690581Y-67718080D01*
X81683951Y-67715719D01*
X81676965Y-67714886D01*
X81676961Y-67714885D01*
X81531856Y-67697583D01*
X81505624Y-67694455D01*
X81498621Y-67695191D01*
X81498620Y-67695191D01*
X81334025Y-67712490D01*
X81334021Y-67712491D01*
X81327017Y-67713227D01*
X81320346Y-67715498D01*
X81163677Y-67768832D01*
X81163674Y-67768833D01*
X81157007Y-67771103D01*
X81151004Y-67774796D01*
X81151002Y-67774797D01*
X81090833Y-67811812D01*
X81022332Y-67830470D01*
X80954618Y-67809131D01*
X80935717Y-67793589D01*
X80899843Y-67757715D01*
X80879306Y-67747251D01*
X80874347Y-67744724D01*
X80874346Y-67744724D01*
X80856565Y-67735664D01*
X80821223Y-67741261D01*
X80809953Y-67743046D01*
X80809952Y-67743046D01*
X80792060Y-67745880D01*
X80745880Y-67792060D01*
X80743504Y-67807060D01*
X80743504Y-67807061D01*
X80742752Y-67811812D01*
X80735664Y-67856565D01*
X80757715Y-67899843D01*
X80793259Y-67935387D01*
X80827285Y-67997699D01*
X80822220Y-68068514D01*
X80810075Y-68092737D01*
X80782265Y-68135889D01*
X80782261Y-68135898D01*
X80778446Y-68141817D01*
X80776037Y-68148437D01*
X80776036Y-68148438D01*
X80772392Y-68158450D01*
X80717022Y-68310578D01*
X80694514Y-68488753D01*
X80100500Y-68488753D01*
X80100500Y-65735247D01*
X81189780Y-65735247D01*
X81219895Y-65884603D01*
X81289066Y-66020359D01*
X81392196Y-66132512D01*
X81399498Y-66137040D01*
X81399500Y-66137041D01*
X81460288Y-66174731D01*
X81521687Y-66212800D01*
X81529936Y-66215196D01*
X81529937Y-66215197D01*
X81605812Y-66237240D01*
X81668000Y-66255307D01*
X81675365Y-66255848D01*
X81676505Y-66255932D01*
X81676516Y-66255932D01*
X81678812Y-66256101D01*
X81788165Y-66256101D01*
X81792410Y-66255519D01*
X81792417Y-66255519D01*
X81892443Y-66241817D01*
X81892446Y-66241816D01*
X81900952Y-66240651D01*
X82040783Y-66180141D01*
X82159191Y-66084256D01*
X82164167Y-66077254D01*
X82164169Y-66077252D01*
X82242475Y-65967064D01*
X82247451Y-65960062D01*
X82299062Y-65816708D01*
X82305044Y-65735247D01*
X91689780Y-65735247D01*
X91719895Y-65884603D01*
X91789066Y-66020359D01*
X91892196Y-66132512D01*
X91899498Y-66137040D01*
X91899500Y-66137041D01*
X91960288Y-66174731D01*
X92021687Y-66212800D01*
X92029936Y-66215196D01*
X92029937Y-66215197D01*
X92105812Y-66237240D01*
X92168000Y-66255307D01*
X92175365Y-66255848D01*
X92176505Y-66255932D01*
X92176516Y-66255932D01*
X92178812Y-66256101D01*
X92288165Y-66256101D01*
X92292410Y-66255519D01*
X92292417Y-66255519D01*
X92392443Y-66241817D01*
X92392446Y-66241816D01*
X92400952Y-66240651D01*
X92540783Y-66180141D01*
X92659191Y-66084256D01*
X92664167Y-66077254D01*
X92664169Y-66077252D01*
X92742475Y-65967064D01*
X92747451Y-65960062D01*
X92799062Y-65816708D01*
X92810220Y-65664755D01*
X92780105Y-65515399D01*
X92710934Y-65379643D01*
X92607804Y-65267490D01*
X92600502Y-65262962D01*
X92600500Y-65262961D01*
X92485614Y-65191729D01*
X92485615Y-65191729D01*
X92478313Y-65187202D01*
X92470064Y-65184806D01*
X92470063Y-65184805D01*
X92338340Y-65146537D01*
X92338341Y-65146537D01*
X92332000Y-65144695D01*
X92324635Y-65144154D01*
X92323495Y-65144070D01*
X92323484Y-65144070D01*
X92321188Y-65143901D01*
X92211835Y-65143901D01*
X92207590Y-65144483D01*
X92207583Y-65144483D01*
X92107557Y-65158185D01*
X92107554Y-65158186D01*
X92099048Y-65159351D01*
X91959217Y-65219861D01*
X91840809Y-65315746D01*
X91835833Y-65322748D01*
X91835831Y-65322750D01*
X91757525Y-65432938D01*
X91752549Y-65439940D01*
X91700938Y-65583294D01*
X91689780Y-65735247D01*
X82305044Y-65735247D01*
X82310220Y-65664755D01*
X82280105Y-65515399D01*
X82210934Y-65379643D01*
X82107804Y-65267490D01*
X82100502Y-65262962D01*
X82100500Y-65262961D01*
X81985614Y-65191729D01*
X81985615Y-65191729D01*
X81978313Y-65187202D01*
X81970064Y-65184806D01*
X81970063Y-65184805D01*
X81838340Y-65146537D01*
X81838341Y-65146537D01*
X81832000Y-65144695D01*
X81824635Y-65144154D01*
X81823495Y-65144070D01*
X81823484Y-65144070D01*
X81821188Y-65143901D01*
X81711835Y-65143901D01*
X81707590Y-65144483D01*
X81707583Y-65144483D01*
X81607557Y-65158185D01*
X81607554Y-65158186D01*
X81599048Y-65159351D01*
X81459217Y-65219861D01*
X81340809Y-65315746D01*
X81335833Y-65322748D01*
X81335831Y-65322750D01*
X81257525Y-65432938D01*
X81252549Y-65439940D01*
X81200938Y-65583294D01*
X81189780Y-65735247D01*
X80100500Y-65735247D01*
X80100500Y-63735245D01*
X81189780Y-63735245D01*
X81219895Y-63884601D01*
X81289066Y-64020357D01*
X81392196Y-64132510D01*
X81399498Y-64137038D01*
X81399500Y-64137039D01*
X81460288Y-64174729D01*
X81521687Y-64212798D01*
X81529936Y-64215194D01*
X81529937Y-64215195D01*
X81605812Y-64237238D01*
X81668000Y-64255305D01*
X81675365Y-64255846D01*
X81676505Y-64255930D01*
X81676516Y-64255930D01*
X81678812Y-64256099D01*
X81788165Y-64256099D01*
X81792410Y-64255517D01*
X81792417Y-64255517D01*
X81892443Y-64241815D01*
X81892446Y-64241814D01*
X81900952Y-64240649D01*
X82040783Y-64180139D01*
X82159191Y-64084254D01*
X82164167Y-64077252D01*
X82164169Y-64077250D01*
X82242475Y-63967062D01*
X82247451Y-63960060D01*
X82299062Y-63816706D01*
X82305044Y-63735245D01*
X91689780Y-63735245D01*
X91719895Y-63884601D01*
X91789066Y-64020357D01*
X91892196Y-64132510D01*
X91899498Y-64137038D01*
X91899500Y-64137039D01*
X91960288Y-64174729D01*
X92021687Y-64212798D01*
X92029936Y-64215194D01*
X92029937Y-64215195D01*
X92105812Y-64237238D01*
X92168000Y-64255305D01*
X92175365Y-64255846D01*
X92176505Y-64255930D01*
X92176516Y-64255930D01*
X92178812Y-64256099D01*
X92288165Y-64256099D01*
X92292410Y-64255517D01*
X92292417Y-64255517D01*
X92392443Y-64241815D01*
X92392446Y-64241814D01*
X92400952Y-64240649D01*
X92540783Y-64180139D01*
X92659191Y-64084254D01*
X92664167Y-64077252D01*
X92664169Y-64077250D01*
X92742475Y-63967062D01*
X92747451Y-63960060D01*
X92799062Y-63816706D01*
X92810220Y-63664753D01*
X92780105Y-63515397D01*
X92710934Y-63379641D01*
X92607804Y-63267488D01*
X92600502Y-63262960D01*
X92600500Y-63262959D01*
X92485614Y-63191727D01*
X92485615Y-63191727D01*
X92478313Y-63187200D01*
X92470064Y-63184804D01*
X92470063Y-63184803D01*
X92338340Y-63146535D01*
X92338341Y-63146535D01*
X92332000Y-63144693D01*
X92324635Y-63144152D01*
X92323495Y-63144068D01*
X92323484Y-63144068D01*
X92321188Y-63143899D01*
X92211835Y-63143899D01*
X92207590Y-63144481D01*
X92207583Y-63144481D01*
X92107557Y-63158183D01*
X92107554Y-63158184D01*
X92099048Y-63159349D01*
X91959217Y-63219859D01*
X91840809Y-63315744D01*
X91835833Y-63322746D01*
X91835831Y-63322748D01*
X91757525Y-63432936D01*
X91752549Y-63439938D01*
X91700938Y-63583292D01*
X91689780Y-63735245D01*
X82305044Y-63735245D01*
X82310220Y-63664753D01*
X82280105Y-63515397D01*
X82210934Y-63379641D01*
X82107804Y-63267488D01*
X82100502Y-63262960D01*
X82100500Y-63262959D01*
X81985614Y-63191727D01*
X81985615Y-63191727D01*
X81978313Y-63187200D01*
X81970064Y-63184804D01*
X81970063Y-63184803D01*
X81838340Y-63146535D01*
X81838341Y-63146535D01*
X81832000Y-63144693D01*
X81824635Y-63144152D01*
X81823495Y-63144068D01*
X81823484Y-63144068D01*
X81821188Y-63143899D01*
X81711835Y-63143899D01*
X81707590Y-63144481D01*
X81707583Y-63144481D01*
X81607557Y-63158183D01*
X81607554Y-63158184D01*
X81599048Y-63159349D01*
X81459217Y-63219859D01*
X81340809Y-63315744D01*
X81335833Y-63322746D01*
X81335831Y-63322748D01*
X81257525Y-63432936D01*
X81252549Y-63439938D01*
X81200938Y-63583292D01*
X81189780Y-63735245D01*
X80100500Y-63735245D01*
X80100500Y-60900000D01*
X80594508Y-60900000D01*
X80596059Y-60909793D01*
X80611002Y-61004137D01*
X80614354Y-61025304D01*
X80671950Y-61138342D01*
X80761658Y-61228050D01*
X80874696Y-61285646D01*
X80884485Y-61287196D01*
X80884487Y-61287197D01*
X80990207Y-61303941D01*
X81000000Y-61305492D01*
X81009793Y-61303941D01*
X81115513Y-61287197D01*
X81115515Y-61287196D01*
X81125304Y-61285646D01*
X81238342Y-61228050D01*
X81328050Y-61138342D01*
X81385646Y-61025304D01*
X81388999Y-61004137D01*
X81403941Y-60909793D01*
X81405492Y-60900000D01*
X81400741Y-60870000D01*
X81387197Y-60784487D01*
X81387196Y-60784485D01*
X81385646Y-60774696D01*
X81328050Y-60661658D01*
X81238342Y-60571950D01*
X81125304Y-60514354D01*
X81115515Y-60512804D01*
X81115513Y-60512803D01*
X81009793Y-60496059D01*
X81000000Y-60494508D01*
X80990207Y-60496059D01*
X80884487Y-60512803D01*
X80884485Y-60512804D01*
X80874696Y-60514354D01*
X80761658Y-60571950D01*
X80671950Y-60661658D01*
X80614354Y-60774696D01*
X80612804Y-60784485D01*
X80612803Y-60784487D01*
X80599259Y-60870000D01*
X80594508Y-60900000D01*
X80100500Y-60900000D01*
X80100500Y-60000354D01*
X85464475Y-60000354D01*
X85467258Y-60004073D01*
X85621680Y-60061502D01*
X85635278Y-60064892D01*
X85800990Y-60087004D01*
X85814986Y-60087297D01*
X85981477Y-60072144D01*
X85995204Y-60069327D01*
X86154202Y-60017666D01*
X86166953Y-60011881D01*
X86173769Y-60007818D01*
X86180690Y-60000354D01*
X86739475Y-60000354D01*
X86742258Y-60004073D01*
X86896684Y-60061503D01*
X86903901Y-60063303D01*
X86965157Y-60099194D01*
X86997286Y-60162505D01*
X86990086Y-60233135D01*
X86977055Y-60256553D01*
X86971950Y-60261658D01*
X86914354Y-60374696D01*
X86894508Y-60500000D01*
X86896059Y-60509793D01*
X86905904Y-60571950D01*
X86914354Y-60625304D01*
X86971950Y-60738342D01*
X87061658Y-60828050D01*
X87174696Y-60885646D01*
X87184485Y-60887196D01*
X87184487Y-60887197D01*
X87290207Y-60903941D01*
X87300000Y-60905492D01*
X87309793Y-60903941D01*
X87415513Y-60887197D01*
X87415515Y-60887196D01*
X87425304Y-60885646D01*
X87456011Y-60870000D01*
X92344508Y-60870000D01*
X92346059Y-60879793D01*
X92350811Y-60909793D01*
X92364354Y-60995304D01*
X92421950Y-61108342D01*
X92511658Y-61198050D01*
X92624696Y-61255646D01*
X92634485Y-61257196D01*
X92634487Y-61257197D01*
X92740207Y-61273941D01*
X92750000Y-61275492D01*
X92759793Y-61273941D01*
X92865513Y-61257197D01*
X92865515Y-61257196D01*
X92875304Y-61255646D01*
X92988342Y-61198050D01*
X93078050Y-61108342D01*
X93135646Y-60995304D01*
X93149190Y-60909793D01*
X93153941Y-60879793D01*
X93155492Y-60870000D01*
X93148848Y-60828050D01*
X93137197Y-60754487D01*
X93137196Y-60754485D01*
X93135646Y-60744696D01*
X93078050Y-60631658D01*
X92988342Y-60541950D01*
X92875304Y-60484354D01*
X92865515Y-60482804D01*
X92865513Y-60482803D01*
X92759793Y-60466059D01*
X92750000Y-60464508D01*
X92740207Y-60466059D01*
X92634487Y-60482803D01*
X92634485Y-60482804D01*
X92624696Y-60484354D01*
X92511658Y-60541950D01*
X92421950Y-60631658D01*
X92364354Y-60744696D01*
X92362804Y-60754485D01*
X92362803Y-60754487D01*
X92351152Y-60828050D01*
X92344508Y-60870000D01*
X87456011Y-60870000D01*
X87538342Y-60828050D01*
X87628050Y-60738342D01*
X87685646Y-60625304D01*
X87694097Y-60571950D01*
X87703941Y-60509793D01*
X87705492Y-60500000D01*
X87685646Y-60374696D01*
X87628050Y-60261658D01*
X87538342Y-60171950D01*
X87529511Y-60167450D01*
X87529509Y-60167449D01*
X87520636Y-60162928D01*
X87469022Y-60114179D01*
X87451957Y-60045264D01*
X87453797Y-60028547D01*
X87458823Y-60000354D01*
X88014475Y-60000354D01*
X88017258Y-60004073D01*
X88171680Y-60061502D01*
X88185278Y-60064892D01*
X88350990Y-60087004D01*
X88364986Y-60087297D01*
X88531477Y-60072144D01*
X88545204Y-60069327D01*
X88704202Y-60017666D01*
X88716953Y-60011881D01*
X88723769Y-60007818D01*
X88733358Y-59997476D01*
X88729852Y-59989062D01*
X88387812Y-59647022D01*
X88373868Y-59639408D01*
X88372035Y-59639539D01*
X88365421Y-59643790D01*
X88021232Y-59987979D01*
X88014475Y-60000354D01*
X87458823Y-60000354D01*
X87459043Y-59999121D01*
X87454852Y-59989062D01*
X87112812Y-59647022D01*
X87098868Y-59639408D01*
X87097035Y-59639539D01*
X87090421Y-59643790D01*
X86746232Y-59987979D01*
X86739475Y-60000354D01*
X86180690Y-60000354D01*
X86183358Y-59997476D01*
X86179852Y-59989062D01*
X85837812Y-59647022D01*
X85823868Y-59639408D01*
X85822035Y-59639539D01*
X85815421Y-59643790D01*
X85471232Y-59987979D01*
X85464475Y-60000354D01*
X80100500Y-60000354D01*
X80100500Y-59080000D01*
X81134508Y-59080000D01*
X81154354Y-59205304D01*
X81211950Y-59318342D01*
X81301658Y-59408050D01*
X81414696Y-59465646D01*
X81424485Y-59467196D01*
X81424487Y-59467197D01*
X81530207Y-59483941D01*
X81540000Y-59485492D01*
X81549793Y-59483941D01*
X81655513Y-59467197D01*
X81655515Y-59467196D01*
X81665304Y-59465646D01*
X81778342Y-59408050D01*
X81868050Y-59318342D01*
X81892345Y-59270660D01*
X85012654Y-59270660D01*
X85028968Y-59437047D01*
X85031879Y-59450741D01*
X85084650Y-59609375D01*
X85090524Y-59622088D01*
X85091768Y-59624143D01*
X85102174Y-59633657D01*
X85110794Y-59629995D01*
X85452979Y-59287811D01*
X85460592Y-59273868D01*
X85460461Y-59272034D01*
X85456210Y-59265421D01*
X85112458Y-58921669D01*
X85100083Y-58914912D01*
X85094926Y-58918772D01*
X85094273Y-58920089D01*
X85037096Y-59077180D01*
X85033803Y-59090795D01*
X85012850Y-59256653D01*
X85012654Y-59270660D01*
X81892345Y-59270660D01*
X81925646Y-59205304D01*
X81945492Y-59080000D01*
X81933595Y-59004885D01*
X81927197Y-58964487D01*
X81927196Y-58964485D01*
X81925646Y-58954696D01*
X81868050Y-58841658D01*
X81778342Y-58751950D01*
X81665304Y-58694354D01*
X81655515Y-58692804D01*
X81655513Y-58692803D01*
X81549793Y-58676059D01*
X81540000Y-58674508D01*
X81530207Y-58676059D01*
X81424487Y-58692803D01*
X81424485Y-58692804D01*
X81414696Y-58694354D01*
X81301658Y-58751950D01*
X81211950Y-58841658D01*
X81154354Y-58954696D01*
X81152804Y-58964485D01*
X81152803Y-58964487D01*
X81146405Y-59004885D01*
X81134508Y-59080000D01*
X80100500Y-59080000D01*
X80100500Y-58638632D01*
X85551909Y-58638632D01*
X85552040Y-58640467D01*
X85556288Y-58647077D01*
X85825000Y-58915790D01*
X86449689Y-59540478D01*
X86463632Y-59548091D01*
X86465467Y-59547960D01*
X86472077Y-59543712D01*
X87010905Y-59004885D01*
X87073217Y-58970860D01*
X87144033Y-58975925D01*
X87189095Y-59004885D01*
X87724692Y-59540481D01*
X87738630Y-59548092D01*
X87740466Y-59547960D01*
X87747078Y-59543711D01*
X88014657Y-59276132D01*
X88739408Y-59276132D01*
X88739539Y-59277966D01*
X88743790Y-59284579D01*
X89087504Y-59628293D01*
X89099879Y-59635050D01*
X89103696Y-59632193D01*
X89115925Y-59600000D01*
X91644508Y-59600000D01*
X91646059Y-59609793D01*
X91651444Y-59643790D01*
X91664354Y-59725304D01*
X91721950Y-59838342D01*
X91811658Y-59928050D01*
X91924696Y-59985646D01*
X91934485Y-59987196D01*
X91934487Y-59987197D01*
X92040207Y-60003941D01*
X92050000Y-60005492D01*
X92059793Y-60003941D01*
X92165513Y-59987197D01*
X92165515Y-59987196D01*
X92175304Y-59985646D01*
X92288342Y-59928050D01*
X92378050Y-59838342D01*
X92435646Y-59725304D01*
X92448557Y-59643790D01*
X92453941Y-59609793D01*
X92455492Y-59600000D01*
X92435646Y-59474696D01*
X92378050Y-59361658D01*
X92288342Y-59271950D01*
X92175304Y-59214354D01*
X92165515Y-59212804D01*
X92165513Y-59212803D01*
X92059793Y-59196059D01*
X92050000Y-59194508D01*
X92040207Y-59196059D01*
X91934487Y-59212803D01*
X91934485Y-59212804D01*
X91924696Y-59214354D01*
X91811658Y-59271950D01*
X91721950Y-59361658D01*
X91664354Y-59474696D01*
X91644508Y-59600000D01*
X89115925Y-59600000D01*
X89160065Y-59483802D01*
X89163549Y-59470233D01*
X89187244Y-59301627D01*
X89187851Y-59293741D01*
X89188058Y-59278962D01*
X89187671Y-59271061D01*
X89168692Y-59101855D01*
X89165590Y-59088202D01*
X89110610Y-58930322D01*
X89107281Y-58923372D01*
X89098605Y-58915659D01*
X89089558Y-58919653D01*
X88747021Y-59262189D01*
X88739408Y-59276132D01*
X88014657Y-59276132D01*
X88375000Y-58915790D01*
X88640478Y-58650311D01*
X88648091Y-58636368D01*
X88647960Y-58634533D01*
X88643710Y-58627920D01*
X88104885Y-58089095D01*
X88070859Y-58026783D01*
X88072694Y-58001132D01*
X88739408Y-58001132D01*
X88739539Y-58002966D01*
X88743790Y-58009579D01*
X89087504Y-58353293D01*
X89099879Y-58360050D01*
X89103696Y-58357193D01*
X89160065Y-58208802D01*
X89163549Y-58195233D01*
X89187244Y-58026627D01*
X89187851Y-58018741D01*
X89188058Y-58003962D01*
X89187671Y-57996061D01*
X89168692Y-57826855D01*
X89165590Y-57813202D01*
X89110610Y-57655322D01*
X89107281Y-57648372D01*
X89098605Y-57640659D01*
X89089558Y-57644653D01*
X88747021Y-57987189D01*
X88739408Y-58001132D01*
X88072694Y-58001132D01*
X88075924Y-57955968D01*
X88104885Y-57910905D01*
X88375000Y-57640790D01*
X88640477Y-57375312D01*
X88648091Y-57361368D01*
X88647960Y-57359533D01*
X88643712Y-57352923D01*
X88016922Y-56726132D01*
X88739408Y-56726132D01*
X88739539Y-56727966D01*
X88743790Y-56734579D01*
X89087504Y-57078293D01*
X89099879Y-57085050D01*
X89103696Y-57082193D01*
X89160065Y-56933802D01*
X89163549Y-56920233D01*
X89187244Y-56751627D01*
X89187851Y-56743741D01*
X89188058Y-56728962D01*
X89187671Y-56721061D01*
X89168692Y-56551855D01*
X89165590Y-56538202D01*
X89110610Y-56380322D01*
X89107281Y-56373372D01*
X89098605Y-56365659D01*
X89089558Y-56369653D01*
X88747021Y-56712189D01*
X88739408Y-56726132D01*
X88016922Y-56726132D01*
X88015790Y-56725000D01*
X87750311Y-56459522D01*
X87736368Y-56451909D01*
X87734533Y-56452040D01*
X87727923Y-56456288D01*
X87189095Y-56995115D01*
X87126783Y-57029140D01*
X87055967Y-57024075D01*
X87010905Y-56995115D01*
X86475308Y-56459519D01*
X86461370Y-56451908D01*
X86459534Y-56452040D01*
X86452922Y-56456289D01*
X85825000Y-57084210D01*
X85559522Y-57349689D01*
X85551909Y-57363632D01*
X85552040Y-57365467D01*
X85556290Y-57372080D01*
X86095115Y-57910905D01*
X86129141Y-57973217D01*
X86124076Y-58044032D01*
X86095115Y-58089095D01*
X85825000Y-58359210D01*
X85559523Y-58624688D01*
X85551909Y-58638632D01*
X80100500Y-58638632D01*
X80100500Y-57995660D01*
X85012654Y-57995660D01*
X85028968Y-58162047D01*
X85031879Y-58175741D01*
X85084650Y-58334375D01*
X85090524Y-58347088D01*
X85091768Y-58349143D01*
X85102174Y-58358657D01*
X85110794Y-58354995D01*
X85452979Y-58012811D01*
X85460592Y-57998868D01*
X85460461Y-57997034D01*
X85456210Y-57990421D01*
X85112458Y-57646669D01*
X85100083Y-57639912D01*
X85094926Y-57643772D01*
X85094273Y-57645089D01*
X85037096Y-57802180D01*
X85033803Y-57815795D01*
X85012850Y-57981653D01*
X85012654Y-57995660D01*
X80100500Y-57995660D01*
X80100500Y-56720660D01*
X85012654Y-56720660D01*
X85028968Y-56887047D01*
X85031879Y-56900741D01*
X85084650Y-57059375D01*
X85090524Y-57072088D01*
X85091768Y-57074143D01*
X85102174Y-57083657D01*
X85110794Y-57079995D01*
X85452979Y-56737811D01*
X85460592Y-56723868D01*
X85460461Y-56722034D01*
X85456210Y-56715421D01*
X85112458Y-56371669D01*
X85100083Y-56364912D01*
X85094926Y-56368772D01*
X85094273Y-56370089D01*
X85037096Y-56527180D01*
X85033803Y-56540795D01*
X85012850Y-56706653D01*
X85012654Y-56720660D01*
X80100500Y-56720660D01*
X80100500Y-56100840D01*
X80120502Y-56032719D01*
X80174158Y-55986226D01*
X80244432Y-55976122D01*
X80265435Y-55981006D01*
X80265861Y-55981145D01*
X80274696Y-55985646D01*
X80400000Y-56005492D01*
X80409793Y-56003941D01*
X80515513Y-55987197D01*
X80515515Y-55987196D01*
X80525304Y-55985646D01*
X80638342Y-55928050D01*
X80728050Y-55838342D01*
X80747586Y-55800000D01*
X82344508Y-55800000D01*
X82346059Y-55809793D01*
X82362349Y-55912643D01*
X82364354Y-55925304D01*
X82421950Y-56038342D01*
X82511658Y-56128050D01*
X82624696Y-56185646D01*
X82634485Y-56187196D01*
X82634487Y-56187197D01*
X82740207Y-56203941D01*
X82750000Y-56205492D01*
X82759793Y-56203941D01*
X82865513Y-56187197D01*
X82865515Y-56187196D01*
X82875304Y-56185646D01*
X82988342Y-56128050D01*
X83078050Y-56038342D01*
X83096670Y-56001799D01*
X85466016Y-56001799D01*
X85469840Y-56010629D01*
X85812189Y-56352979D01*
X85826132Y-56360592D01*
X85827966Y-56360461D01*
X85834579Y-56356210D01*
X86177914Y-56012875D01*
X86184671Y-56000500D01*
X86180105Y-55994400D01*
X86174802Y-55991813D01*
X86017309Y-55935732D01*
X86003685Y-55932536D01*
X85837670Y-55912741D01*
X85823673Y-55912643D01*
X85657404Y-55930118D01*
X85643725Y-55933126D01*
X85485463Y-55987002D01*
X85474855Y-55991994D01*
X85466016Y-56001799D01*
X83096670Y-56001799D01*
X83135646Y-55925304D01*
X83137652Y-55912643D01*
X83153941Y-55809793D01*
X83155492Y-55800000D01*
X83146022Y-55740207D01*
X83137197Y-55684487D01*
X83137196Y-55684485D01*
X83135646Y-55674696D01*
X83078050Y-55561658D01*
X83066392Y-55550000D01*
X84494508Y-55550000D01*
X84496059Y-55559793D01*
X84506339Y-55624696D01*
X84514354Y-55675304D01*
X84571950Y-55788342D01*
X84661658Y-55878050D01*
X84774696Y-55935646D01*
X84784485Y-55937196D01*
X84784487Y-55937197D01*
X84890207Y-55953941D01*
X84900000Y-55955492D01*
X84909793Y-55953941D01*
X85015513Y-55937197D01*
X85015515Y-55937196D01*
X85025304Y-55935646D01*
X85138342Y-55878050D01*
X85228050Y-55788342D01*
X85247586Y-55750000D01*
X86494508Y-55750000D01*
X86514354Y-55875304D01*
X86571950Y-55988342D01*
X86661658Y-56078050D01*
X86706386Y-56100840D01*
X86765576Y-56130999D01*
X86774696Y-56135646D01*
X86784487Y-56137197D01*
X86784488Y-56137197D01*
X86847329Y-56147150D01*
X86916713Y-56182504D01*
X87087189Y-56352980D01*
X87101130Y-56360592D01*
X87102966Y-56360461D01*
X87109579Y-56356210D01*
X87452914Y-56012875D01*
X87458962Y-56001799D01*
X88016016Y-56001799D01*
X88019840Y-56010629D01*
X88362189Y-56352979D01*
X88376132Y-56360592D01*
X88377966Y-56360461D01*
X88384579Y-56356210D01*
X88727914Y-56012875D01*
X88731834Y-56005695D01*
X90941183Y-56005695D01*
X90942734Y-56015488D01*
X90959452Y-56121039D01*
X90961029Y-56130999D01*
X91018625Y-56244037D01*
X91108333Y-56333745D01*
X91221371Y-56391341D01*
X91231160Y-56392891D01*
X91231162Y-56392892D01*
X91336882Y-56409636D01*
X91346675Y-56411187D01*
X91356468Y-56409636D01*
X91462188Y-56392892D01*
X91462190Y-56392891D01*
X91471979Y-56391341D01*
X91585017Y-56333745D01*
X91674725Y-56244037D01*
X91732321Y-56130999D01*
X91733899Y-56121039D01*
X91750616Y-56015488D01*
X91752167Y-56005695D01*
X91749206Y-55987002D01*
X91733872Y-55890182D01*
X91733871Y-55890180D01*
X91732321Y-55880391D01*
X91674725Y-55767353D01*
X91585017Y-55677645D01*
X91471979Y-55620049D01*
X91462190Y-55618499D01*
X91462188Y-55618498D01*
X91356468Y-55601754D01*
X91346675Y-55600203D01*
X91336882Y-55601754D01*
X91231162Y-55618498D01*
X91231160Y-55618499D01*
X91221371Y-55620049D01*
X91108333Y-55677645D01*
X91018625Y-55767353D01*
X90961029Y-55880391D01*
X90959479Y-55890180D01*
X90959478Y-55890182D01*
X90944144Y-55987002D01*
X90941183Y-56005695D01*
X88731834Y-56005695D01*
X88734671Y-56000500D01*
X88730105Y-55994400D01*
X88724802Y-55991813D01*
X88567309Y-55935732D01*
X88553685Y-55932536D01*
X88387670Y-55912741D01*
X88373673Y-55912643D01*
X88207404Y-55930118D01*
X88193725Y-55933126D01*
X88035463Y-55987002D01*
X88024855Y-55991994D01*
X88016016Y-56001799D01*
X87458962Y-56001799D01*
X87459671Y-56000500D01*
X87455105Y-55994400D01*
X87449804Y-55991815D01*
X87375487Y-55965351D01*
X87318024Y-55923656D01*
X87292224Y-55857513D01*
X87293306Y-55826942D01*
X87303941Y-55759794D01*
X87303941Y-55759793D01*
X87305492Y-55750000D01*
X87295116Y-55684487D01*
X87287197Y-55634487D01*
X87287196Y-55634485D01*
X87285646Y-55624696D01*
X87228050Y-55511658D01*
X87138342Y-55421950D01*
X87025304Y-55364354D01*
X87015515Y-55362804D01*
X87015513Y-55362803D01*
X86909793Y-55346059D01*
X86900000Y-55344508D01*
X86890207Y-55346059D01*
X86784487Y-55362803D01*
X86784485Y-55362804D01*
X86774696Y-55364354D01*
X86661658Y-55421950D01*
X86571950Y-55511658D01*
X86514354Y-55624696D01*
X86512804Y-55634485D01*
X86512803Y-55634487D01*
X86504884Y-55684487D01*
X86494508Y-55750000D01*
X85247586Y-55750000D01*
X85285646Y-55675304D01*
X85293662Y-55624696D01*
X85303941Y-55559793D01*
X85305492Y-55550000D01*
X85293130Y-55471950D01*
X85287197Y-55434487D01*
X85287196Y-55434485D01*
X85285646Y-55424696D01*
X85228050Y-55311658D01*
X85138342Y-55221950D01*
X85025304Y-55164354D01*
X85015515Y-55162804D01*
X85015513Y-55162803D01*
X84909793Y-55146059D01*
X84900000Y-55144508D01*
X84890207Y-55146059D01*
X84784487Y-55162803D01*
X84784485Y-55162804D01*
X84774696Y-55164354D01*
X84661658Y-55221950D01*
X84571950Y-55311658D01*
X84514354Y-55424696D01*
X84512804Y-55434485D01*
X84512803Y-55434487D01*
X84506870Y-55471950D01*
X84494508Y-55550000D01*
X83066392Y-55550000D01*
X82988342Y-55471950D01*
X82875304Y-55414354D01*
X82865515Y-55412804D01*
X82865513Y-55412803D01*
X82759793Y-55396059D01*
X82750000Y-55394508D01*
X82740207Y-55396059D01*
X82634487Y-55412803D01*
X82634485Y-55412804D01*
X82624696Y-55414354D01*
X82511658Y-55471950D01*
X82421950Y-55561658D01*
X82364354Y-55674696D01*
X82362804Y-55684485D01*
X82362803Y-55684487D01*
X82353978Y-55740207D01*
X82344508Y-55800000D01*
X80747586Y-55800000D01*
X80785646Y-55725304D01*
X80793195Y-55677645D01*
X80803941Y-55609793D01*
X80805492Y-55600000D01*
X80785646Y-55474696D01*
X80728050Y-55361658D01*
X80638342Y-55271950D01*
X80525304Y-55214354D01*
X80515515Y-55212804D01*
X80515513Y-55212803D01*
X80409793Y-55196059D01*
X80400000Y-55194508D01*
X80274696Y-55214354D01*
X80265861Y-55218855D01*
X80265435Y-55218994D01*
X80194467Y-55221020D01*
X80133670Y-55184357D01*
X80102345Y-55120644D01*
X80100500Y-55099160D01*
X80100500Y-55050000D01*
X81294508Y-55050000D01*
X81296059Y-55059793D01*
X81312620Y-55164354D01*
X81314354Y-55175304D01*
X81371950Y-55288342D01*
X81461658Y-55378050D01*
X81574696Y-55435646D01*
X81584485Y-55437196D01*
X81584487Y-55437197D01*
X81690207Y-55453941D01*
X81700000Y-55455492D01*
X81709793Y-55453941D01*
X81815513Y-55437197D01*
X81815515Y-55437196D01*
X81825304Y-55435646D01*
X81938342Y-55378050D01*
X82028050Y-55288342D01*
X82085646Y-55175304D01*
X82087381Y-55164354D01*
X82103941Y-55059793D01*
X82105492Y-55050000D01*
X82097495Y-54999509D01*
X82087197Y-54934487D01*
X82087196Y-54934485D01*
X82085646Y-54924696D01*
X82028050Y-54811658D01*
X81938342Y-54721950D01*
X81825304Y-54664354D01*
X81815515Y-54662804D01*
X81815513Y-54662803D01*
X81709793Y-54646059D01*
X81700000Y-54644508D01*
X81690207Y-54646059D01*
X81584487Y-54662803D01*
X81584485Y-54662804D01*
X81574696Y-54664354D01*
X81461658Y-54721950D01*
X81371950Y-54811658D01*
X81314354Y-54924696D01*
X81312804Y-54934485D01*
X81312803Y-54934487D01*
X81302505Y-54999509D01*
X81294508Y-55050000D01*
X80100500Y-55050000D01*
X80100500Y-54560000D01*
X82754508Y-54560000D01*
X82756059Y-54569793D01*
X82767893Y-54644508D01*
X82774354Y-54685304D01*
X82831950Y-54798342D01*
X82921658Y-54888050D01*
X83034696Y-54945646D01*
X83044485Y-54947196D01*
X83044487Y-54947197D01*
X83150207Y-54963941D01*
X83160000Y-54965492D01*
X83169793Y-54963941D01*
X83275513Y-54947197D01*
X83275515Y-54947196D01*
X83285304Y-54945646D01*
X83398342Y-54888050D01*
X83488050Y-54798342D01*
X83502491Y-54770000D01*
X91644508Y-54770000D01*
X91646059Y-54779793D01*
X91662095Y-54881039D01*
X91664354Y-54895304D01*
X91721950Y-55008342D01*
X91811658Y-55098050D01*
X91924696Y-55155646D01*
X91934485Y-55157196D01*
X91934487Y-55157197D01*
X92040207Y-55173941D01*
X92050000Y-55175492D01*
X92059793Y-55173941D01*
X92165513Y-55157197D01*
X92165515Y-55157196D01*
X92175304Y-55155646D01*
X92288342Y-55098050D01*
X92378050Y-55008342D01*
X92435646Y-54895304D01*
X92437906Y-54881039D01*
X92453941Y-54779793D01*
X92455492Y-54770000D01*
X92440527Y-54675513D01*
X92437197Y-54654487D01*
X92437196Y-54654485D01*
X92435646Y-54644696D01*
X92378050Y-54531658D01*
X92288342Y-54441950D01*
X92175304Y-54384354D01*
X92165515Y-54382804D01*
X92165513Y-54382803D01*
X92059793Y-54366059D01*
X92050000Y-54364508D01*
X92040207Y-54366059D01*
X91934487Y-54382803D01*
X91934485Y-54382804D01*
X91924696Y-54384354D01*
X91811658Y-54441950D01*
X91721950Y-54531658D01*
X91664354Y-54644696D01*
X91662804Y-54654485D01*
X91662803Y-54654487D01*
X91659473Y-54675513D01*
X91644508Y-54770000D01*
X83502491Y-54770000D01*
X83545646Y-54685304D01*
X83552108Y-54644508D01*
X83563941Y-54569793D01*
X83565492Y-54560000D01*
X83559893Y-54524647D01*
X83547197Y-54444487D01*
X83547196Y-54444485D01*
X83545646Y-54434696D01*
X83488050Y-54321658D01*
X83398342Y-54231950D01*
X83285304Y-54174354D01*
X83275515Y-54172804D01*
X83275513Y-54172803D01*
X83169793Y-54156059D01*
X83160000Y-54154508D01*
X83150207Y-54156059D01*
X83044487Y-54172803D01*
X83044485Y-54172804D01*
X83034696Y-54174354D01*
X82921658Y-54231950D01*
X82831950Y-54321658D01*
X82774354Y-54434696D01*
X82772804Y-54444485D01*
X82772803Y-54444487D01*
X82760107Y-54524647D01*
X82754508Y-54560000D01*
X80100500Y-54560000D01*
X80100500Y-53300980D01*
X84485231Y-53300980D01*
X84505077Y-53426284D01*
X84562673Y-53539322D01*
X84652381Y-53629030D01*
X84765419Y-53686626D01*
X84775208Y-53688176D01*
X84775210Y-53688177D01*
X84880930Y-53704921D01*
X84890723Y-53706472D01*
X84900516Y-53704921D01*
X85006236Y-53688177D01*
X85006238Y-53688176D01*
X85016027Y-53686626D01*
X85087909Y-53650000D01*
X86894508Y-53650000D01*
X86896059Y-53659793D01*
X86903207Y-53704921D01*
X86914354Y-53775304D01*
X86971950Y-53888342D01*
X87061658Y-53978050D01*
X87174696Y-54035646D01*
X87184485Y-54037196D01*
X87184487Y-54037197D01*
X87290207Y-54053941D01*
X87300000Y-54055492D01*
X87309793Y-54053941D01*
X87415513Y-54037197D01*
X87415515Y-54037196D01*
X87425304Y-54035646D01*
X87538342Y-53978050D01*
X87628050Y-53888342D01*
X87685646Y-53775304D01*
X87696794Y-53704921D01*
X87697573Y-53700000D01*
X88594508Y-53700000D01*
X88614354Y-53825304D01*
X88671950Y-53938342D01*
X88761658Y-54028050D01*
X88874696Y-54085646D01*
X88884485Y-54087196D01*
X88884487Y-54087197D01*
X88990207Y-54103941D01*
X89000000Y-54105492D01*
X89009793Y-54103941D01*
X89115513Y-54087197D01*
X89115515Y-54087196D01*
X89125304Y-54085646D01*
X89238342Y-54028050D01*
X89328050Y-53938342D01*
X89385646Y-53825304D01*
X89405492Y-53700000D01*
X89385646Y-53574696D01*
X89328050Y-53461658D01*
X89238342Y-53371950D01*
X89125304Y-53314354D01*
X89115515Y-53312804D01*
X89115513Y-53312803D01*
X89009793Y-53296059D01*
X89000000Y-53294508D01*
X88990207Y-53296059D01*
X88884487Y-53312803D01*
X88884485Y-53312804D01*
X88874696Y-53314354D01*
X88761658Y-53371950D01*
X88671950Y-53461658D01*
X88614354Y-53574696D01*
X88594508Y-53700000D01*
X87697573Y-53700000D01*
X87703941Y-53659793D01*
X87705492Y-53650000D01*
X87685646Y-53524696D01*
X87628050Y-53411658D01*
X87538342Y-53321950D01*
X87425304Y-53264354D01*
X87415515Y-53262804D01*
X87415513Y-53262803D01*
X87309793Y-53246059D01*
X87300000Y-53244508D01*
X87290207Y-53246059D01*
X87184487Y-53262803D01*
X87184485Y-53262804D01*
X87174696Y-53264354D01*
X87061658Y-53321950D01*
X86971950Y-53411658D01*
X86914354Y-53524696D01*
X86894508Y-53650000D01*
X85087909Y-53650000D01*
X85129065Y-53629030D01*
X85218773Y-53539322D01*
X85276369Y-53426284D01*
X85296215Y-53300980D01*
X85290414Y-53264354D01*
X85277920Y-53185467D01*
X85277919Y-53185465D01*
X85276369Y-53175676D01*
X85218773Y-53062638D01*
X85129065Y-52972930D01*
X85123315Y-52970000D01*
X92644508Y-52970000D01*
X92664354Y-53095304D01*
X92721950Y-53208342D01*
X92811658Y-53298050D01*
X92924696Y-53355646D01*
X92934485Y-53357196D01*
X92934487Y-53357197D01*
X93040207Y-53373941D01*
X93050000Y-53375492D01*
X93059793Y-53373941D01*
X93165513Y-53357197D01*
X93165515Y-53357196D01*
X93175304Y-53355646D01*
X93288342Y-53298050D01*
X93378050Y-53208342D01*
X93435646Y-53095304D01*
X93455492Y-52970000D01*
X93435646Y-52844696D01*
X93378050Y-52731658D01*
X93288342Y-52641950D01*
X93175304Y-52584354D01*
X93165515Y-52582804D01*
X93165513Y-52582803D01*
X93059793Y-52566059D01*
X93050000Y-52564508D01*
X93040207Y-52566059D01*
X92934487Y-52582803D01*
X92934485Y-52582804D01*
X92924696Y-52584354D01*
X92811658Y-52641950D01*
X92721950Y-52731658D01*
X92664354Y-52844696D01*
X92644508Y-52970000D01*
X85123315Y-52970000D01*
X85016027Y-52915334D01*
X85006238Y-52913784D01*
X85006236Y-52913783D01*
X84900516Y-52897039D01*
X84890723Y-52895488D01*
X84880930Y-52897039D01*
X84775210Y-52913783D01*
X84775208Y-52913784D01*
X84765419Y-52915334D01*
X84652381Y-52972930D01*
X84562673Y-53062638D01*
X84505077Y-53175676D01*
X84503527Y-53185465D01*
X84503526Y-53185467D01*
X84491032Y-53264354D01*
X84485231Y-53300980D01*
X80100500Y-53300980D01*
X80100500Y-51700000D01*
X89394508Y-51700000D01*
X89414354Y-51825304D01*
X89471950Y-51938342D01*
X89561658Y-52028050D01*
X89674696Y-52085646D01*
X89684485Y-52087196D01*
X89684487Y-52087197D01*
X89790207Y-52103941D01*
X89800000Y-52105492D01*
X89809793Y-52103941D01*
X89915513Y-52087197D01*
X89915515Y-52087196D01*
X89925304Y-52085646D01*
X90038342Y-52028050D01*
X90128050Y-51938342D01*
X90185646Y-51825304D01*
X90205492Y-51700000D01*
X90185646Y-51574696D01*
X90128050Y-51461658D01*
X90038342Y-51371950D01*
X89925304Y-51314354D01*
X89915515Y-51312804D01*
X89915513Y-51312803D01*
X89809793Y-51296059D01*
X89800000Y-51294508D01*
X89790207Y-51296059D01*
X89684487Y-51312803D01*
X89684485Y-51312804D01*
X89674696Y-51314354D01*
X89561658Y-51371950D01*
X89471950Y-51461658D01*
X89414354Y-51574696D01*
X89394508Y-51700000D01*
X80100500Y-51700000D01*
X80100500Y-50670000D01*
X92644508Y-50670000D01*
X92664354Y-50795304D01*
X92721950Y-50908342D01*
X92811658Y-50998050D01*
X92924696Y-51055646D01*
X92934485Y-51057196D01*
X92934487Y-51057197D01*
X93040207Y-51073941D01*
X93050000Y-51075492D01*
X93059793Y-51073941D01*
X93165513Y-51057197D01*
X93165515Y-51057196D01*
X93175304Y-51055646D01*
X93288342Y-50998050D01*
X93378050Y-50908342D01*
X93435646Y-50795304D01*
X93455492Y-50670000D01*
X93435646Y-50544696D01*
X93378050Y-50431658D01*
X93288342Y-50341950D01*
X93175304Y-50284354D01*
X93165515Y-50282804D01*
X93165513Y-50282803D01*
X93059793Y-50266059D01*
X93050000Y-50264508D01*
X93040207Y-50266059D01*
X92934487Y-50282803D01*
X92934485Y-50282804D01*
X92924696Y-50284354D01*
X92811658Y-50341950D01*
X92721950Y-50431658D01*
X92664354Y-50544696D01*
X92644508Y-50670000D01*
X80100500Y-50670000D01*
X80100500Y-49310523D01*
X87683985Y-49310523D01*
X87703831Y-49435827D01*
X87761427Y-49548865D01*
X87851135Y-49638573D01*
X87964173Y-49696169D01*
X87973962Y-49697719D01*
X87973964Y-49697720D01*
X88079684Y-49714464D01*
X88089477Y-49716015D01*
X88099270Y-49714464D01*
X88204990Y-49697720D01*
X88204992Y-49697719D01*
X88214781Y-49696169D01*
X88327819Y-49638573D01*
X88417527Y-49548865D01*
X88475123Y-49435827D01*
X88494969Y-49310523D01*
X88475123Y-49185219D01*
X88417527Y-49072181D01*
X88327819Y-48982473D01*
X88214781Y-48924877D01*
X88204992Y-48923327D01*
X88204990Y-48923326D01*
X88099270Y-48906582D01*
X88089477Y-48905031D01*
X88079684Y-48906582D01*
X87973964Y-48923326D01*
X87973962Y-48923327D01*
X87964173Y-48924877D01*
X87851135Y-48982473D01*
X87761427Y-49072181D01*
X87703831Y-49185219D01*
X87683985Y-49310523D01*
X80100500Y-49310523D01*
X80100500Y-47570000D01*
X82884508Y-47570000D01*
X82886059Y-47579793D01*
X82895673Y-47640491D01*
X82904354Y-47695304D01*
X82961950Y-47808342D01*
X83051658Y-47898050D01*
X83164696Y-47955646D01*
X83174485Y-47957196D01*
X83174487Y-47957197D01*
X83280207Y-47973941D01*
X83290000Y-47975492D01*
X83299793Y-47973941D01*
X83405513Y-47957197D01*
X83405515Y-47957196D01*
X83415304Y-47955646D01*
X83528342Y-47898050D01*
X83618050Y-47808342D01*
X83620273Y-47803980D01*
X83674287Y-47762329D01*
X83745024Y-47756254D01*
X83807815Y-47789386D01*
X83818681Y-47801927D01*
X83821950Y-47808342D01*
X83911658Y-47898050D01*
X84024696Y-47955646D01*
X84034485Y-47957196D01*
X84034487Y-47957197D01*
X84140207Y-47973941D01*
X84150000Y-47975492D01*
X84159793Y-47973941D01*
X84265513Y-47957197D01*
X84265515Y-47957196D01*
X84275304Y-47955646D01*
X84388342Y-47898050D01*
X84416392Y-47870000D01*
X85674508Y-47870000D01*
X85676059Y-47879793D01*
X85688319Y-47957197D01*
X85694354Y-47995304D01*
X85751950Y-48108342D01*
X85841658Y-48198050D01*
X85954696Y-48255646D01*
X85964485Y-48257196D01*
X85964487Y-48257197D01*
X86070207Y-48273941D01*
X86080000Y-48275492D01*
X86089793Y-48273941D01*
X86195513Y-48257197D01*
X86195515Y-48257196D01*
X86205304Y-48255646D01*
X86318342Y-48198050D01*
X86408050Y-48108342D01*
X86465646Y-47995304D01*
X86471682Y-47957197D01*
X86483941Y-47879793D01*
X86485492Y-47870000D01*
X86476837Y-47815353D01*
X86467197Y-47754487D01*
X86467196Y-47754485D01*
X86465646Y-47744696D01*
X86408050Y-47631658D01*
X86376392Y-47600000D01*
X87694508Y-47600000D01*
X87696059Y-47609793D01*
X87711002Y-47704137D01*
X87714354Y-47725304D01*
X87771950Y-47838342D01*
X87861658Y-47928050D01*
X87974696Y-47985646D01*
X87984485Y-47987196D01*
X87984487Y-47987197D01*
X88090207Y-48003941D01*
X88100000Y-48005492D01*
X88109793Y-48003941D01*
X88215513Y-47987197D01*
X88215515Y-47987196D01*
X88225304Y-47985646D01*
X88338342Y-47928050D01*
X88428050Y-47838342D01*
X88485646Y-47725304D01*
X88488999Y-47704137D01*
X88503941Y-47609793D01*
X88505492Y-47600000D01*
X88500741Y-47570000D01*
X88487197Y-47484487D01*
X88487196Y-47484485D01*
X88485646Y-47474696D01*
X88428050Y-47361658D01*
X88338342Y-47271950D01*
X88225304Y-47214354D01*
X88215515Y-47212804D01*
X88215513Y-47212803D01*
X88109793Y-47196059D01*
X88100000Y-47194508D01*
X88090207Y-47196059D01*
X87984487Y-47212803D01*
X87984485Y-47212804D01*
X87974696Y-47214354D01*
X87861658Y-47271950D01*
X87771950Y-47361658D01*
X87714354Y-47474696D01*
X87712804Y-47484485D01*
X87712803Y-47484487D01*
X87699259Y-47570000D01*
X87694508Y-47600000D01*
X86376392Y-47600000D01*
X86318342Y-47541950D01*
X86205304Y-47484354D01*
X86195515Y-47482804D01*
X86195513Y-47482803D01*
X86089793Y-47466059D01*
X86080000Y-47464508D01*
X86070207Y-47466059D01*
X85964487Y-47482803D01*
X85964485Y-47482804D01*
X85954696Y-47484354D01*
X85841658Y-47541950D01*
X85751950Y-47631658D01*
X85694354Y-47744696D01*
X85692804Y-47754485D01*
X85692803Y-47754487D01*
X85683163Y-47815353D01*
X85674508Y-47870000D01*
X84416392Y-47870000D01*
X84478050Y-47808342D01*
X84535646Y-47695304D01*
X84544328Y-47640491D01*
X84553941Y-47579793D01*
X84555492Y-47570000D01*
X84541927Y-47484354D01*
X84537197Y-47454487D01*
X84537196Y-47454485D01*
X84535646Y-47444696D01*
X84478050Y-47331658D01*
X84388342Y-47241950D01*
X84275304Y-47184354D01*
X84265515Y-47182804D01*
X84265513Y-47182803D01*
X84159793Y-47166059D01*
X84150000Y-47164508D01*
X84140207Y-47166059D01*
X84034487Y-47182803D01*
X84034485Y-47182804D01*
X84024696Y-47184354D01*
X83911658Y-47241950D01*
X83821950Y-47331658D01*
X83819727Y-47336020D01*
X83765713Y-47377671D01*
X83694976Y-47383746D01*
X83632185Y-47350614D01*
X83621319Y-47338073D01*
X83618050Y-47331658D01*
X83528342Y-47241950D01*
X83415304Y-47184354D01*
X83405515Y-47182804D01*
X83405513Y-47182803D01*
X83299793Y-47166059D01*
X83290000Y-47164508D01*
X83280207Y-47166059D01*
X83174487Y-47182803D01*
X83174485Y-47182804D01*
X83164696Y-47184354D01*
X83051658Y-47241950D01*
X82961950Y-47331658D01*
X82904354Y-47444696D01*
X82902804Y-47454485D01*
X82902803Y-47454487D01*
X82898073Y-47484354D01*
X82884508Y-47570000D01*
X80100500Y-47570000D01*
X80100500Y-45230378D01*
X80118159Y-45170236D01*
X80331558Y-45170236D01*
X80347396Y-45194880D01*
X80350949Y-45210668D01*
X80362092Y-45281019D01*
X80364354Y-45295304D01*
X80421950Y-45408342D01*
X80511658Y-45498050D01*
X80624696Y-45555646D01*
X80634485Y-45557196D01*
X80634487Y-45557197D01*
X80740207Y-45573941D01*
X80750000Y-45575492D01*
X80759793Y-45573941D01*
X80865513Y-45557197D01*
X80865515Y-45557196D01*
X80875304Y-45555646D01*
X80988342Y-45498050D01*
X81078050Y-45408342D01*
X81135646Y-45295304D01*
X81137588Y-45296294D01*
X81170241Y-45248542D01*
X81235638Y-45220905D01*
X81305595Y-45233012D01*
X81357900Y-45281019D01*
X81364317Y-45295068D01*
X81364354Y-45295304D01*
X81421950Y-45408342D01*
X81511658Y-45498050D01*
X81624696Y-45555646D01*
X81634485Y-45557196D01*
X81634487Y-45557197D01*
X81740207Y-45573941D01*
X81750000Y-45575492D01*
X81759793Y-45573941D01*
X81865513Y-45557197D01*
X81865515Y-45557196D01*
X81875304Y-45555646D01*
X81988342Y-45498050D01*
X82078050Y-45408342D01*
X82135646Y-45295304D01*
X82137909Y-45281019D01*
X82153941Y-45179793D01*
X82155492Y-45170000D01*
X82143052Y-45091458D01*
X82137197Y-45054487D01*
X82137196Y-45054485D01*
X82135646Y-45044696D01*
X82078050Y-44931658D01*
X81988342Y-44841950D01*
X81875304Y-44784354D01*
X81876294Y-44782412D01*
X81828542Y-44749759D01*
X81800905Y-44684362D01*
X81813012Y-44614405D01*
X81861019Y-44562100D01*
X81875068Y-44555683D01*
X81875304Y-44555646D01*
X81988342Y-44498050D01*
X82078050Y-44408342D01*
X82135646Y-44295304D01*
X82137909Y-44281019D01*
X82153941Y-44179793D01*
X82155492Y-44170000D01*
X82143052Y-44091458D01*
X82137197Y-44054487D01*
X82137196Y-44054485D01*
X82135646Y-44044696D01*
X82078050Y-43931658D01*
X81988342Y-43841950D01*
X81875304Y-43784354D01*
X81865515Y-43782804D01*
X81865513Y-43782803D01*
X81759793Y-43766059D01*
X81750000Y-43764508D01*
X81740207Y-43766059D01*
X81634487Y-43782803D01*
X81634485Y-43782804D01*
X81624696Y-43784354D01*
X81511658Y-43841950D01*
X81421950Y-43931658D01*
X81364354Y-44044696D01*
X81362412Y-44043706D01*
X81329759Y-44091458D01*
X81264362Y-44119095D01*
X81194405Y-44106988D01*
X81142100Y-44058981D01*
X81135683Y-44044932D01*
X81135646Y-44044696D01*
X81078050Y-43931658D01*
X80988342Y-43841950D01*
X80875304Y-43784354D01*
X80865515Y-43782804D01*
X80865513Y-43782803D01*
X80759793Y-43766059D01*
X80750000Y-43764508D01*
X80740207Y-43766059D01*
X80634487Y-43782803D01*
X80634485Y-43782804D01*
X80624696Y-43784354D01*
X80511658Y-43841950D01*
X80421950Y-43931658D01*
X80364354Y-44044696D01*
X80362803Y-44054487D01*
X80362803Y-44054488D01*
X80350949Y-44129332D01*
X80331558Y-44170236D01*
X80347396Y-44194880D01*
X80350949Y-44210668D01*
X80362092Y-44281019D01*
X80364354Y-44295304D01*
X80421950Y-44408342D01*
X80511658Y-44498050D01*
X80623367Y-44554969D01*
X80624696Y-44555646D01*
X80623706Y-44557588D01*
X80671458Y-44590241D01*
X80699095Y-44655638D01*
X80686988Y-44725595D01*
X80638981Y-44777900D01*
X80624932Y-44784317D01*
X80624696Y-44784354D01*
X80511658Y-44841950D01*
X80421950Y-44931658D01*
X80364354Y-45044696D01*
X80362803Y-45054487D01*
X80362803Y-45054488D01*
X80350949Y-45129332D01*
X80331558Y-45170236D01*
X80118159Y-45170236D01*
X80119330Y-45166248D01*
X80101539Y-45125771D01*
X80100500Y-45109622D01*
X80100500Y-44230378D01*
X80119330Y-44166248D01*
X80101539Y-44125771D01*
X80100500Y-44109622D01*
X80100500Y-42335654D01*
X83598133Y-42335654D01*
X83633941Y-42544047D01*
X83707127Y-42742425D01*
X83815238Y-42924144D01*
X83954655Y-43083119D01*
X84120708Y-43214024D01*
X84125819Y-43216713D01*
X84125822Y-43216715D01*
X84156241Y-43232719D01*
X84307836Y-43312477D01*
X84509773Y-43375180D01*
X84515510Y-43375859D01*
X84677768Y-43395064D01*
X84677775Y-43395064D01*
X84681455Y-43395500D01*
X84803641Y-43395500D01*
X84960560Y-43381081D01*
X84966122Y-43379512D01*
X84966124Y-43379512D01*
X85022225Y-43363690D01*
X85164069Y-43323686D01*
X85169247Y-43321133D01*
X85169251Y-43321131D01*
X85348531Y-43232719D01*
X85353710Y-43230165D01*
X85523133Y-43103651D01*
X85666663Y-42948381D01*
X85679215Y-42928488D01*
X85776416Y-42774434D01*
X85776416Y-42774433D01*
X85779495Y-42769554D01*
X85857848Y-42573160D01*
X85858973Y-42567503D01*
X85858975Y-42567497D01*
X85897972Y-42371442D01*
X85897972Y-42371440D01*
X85899099Y-42365775D01*
X85899494Y-42335654D01*
X88098133Y-42335654D01*
X88133941Y-42544047D01*
X88207127Y-42742425D01*
X88315238Y-42924144D01*
X88454655Y-43083119D01*
X88620708Y-43214024D01*
X88625819Y-43216713D01*
X88625822Y-43216715D01*
X88656241Y-43232719D01*
X88807836Y-43312477D01*
X89009773Y-43375180D01*
X89015510Y-43375859D01*
X89177768Y-43395064D01*
X89177775Y-43395064D01*
X89181455Y-43395500D01*
X89303641Y-43395500D01*
X89460560Y-43381081D01*
X89466122Y-43379512D01*
X89466124Y-43379512D01*
X89522225Y-43363690D01*
X89664069Y-43323686D01*
X89669247Y-43321133D01*
X89669251Y-43321131D01*
X89848531Y-43232719D01*
X89853710Y-43230165D01*
X90023133Y-43103651D01*
X90166663Y-42948381D01*
X90179215Y-42928488D01*
X90276416Y-42774434D01*
X90276416Y-42774433D01*
X90279495Y-42769554D01*
X90357848Y-42573160D01*
X90358973Y-42567503D01*
X90358975Y-42567497D01*
X90397972Y-42371442D01*
X90397972Y-42371440D01*
X90399099Y-42365775D01*
X90399494Y-42335654D01*
X90401791Y-42160128D01*
X90401867Y-42154346D01*
X90366059Y-41945953D01*
X90292873Y-41747575D01*
X90184762Y-41565856D01*
X90045345Y-41406881D01*
X89879292Y-41275976D01*
X89874181Y-41273287D01*
X89874178Y-41273285D01*
X89779362Y-41223400D01*
X89692164Y-41177523D01*
X89490227Y-41114820D01*
X89475801Y-41113113D01*
X89322232Y-41094936D01*
X89322225Y-41094936D01*
X89318545Y-41094500D01*
X89196359Y-41094500D01*
X89039440Y-41108919D01*
X89033878Y-41110488D01*
X89033876Y-41110488D01*
X88977775Y-41126310D01*
X88835931Y-41166314D01*
X88830753Y-41168867D01*
X88830749Y-41168869D01*
X88655508Y-41255289D01*
X88646290Y-41259835D01*
X88476867Y-41386349D01*
X88333337Y-41541619D01*
X88330256Y-41546502D01*
X88318045Y-41565856D01*
X88220505Y-41720446D01*
X88142152Y-41916840D01*
X88141027Y-41922497D01*
X88141025Y-41922503D01*
X88102028Y-42118558D01*
X88100901Y-42124225D01*
X88100825Y-42130000D01*
X88100825Y-42130004D01*
X88100431Y-42160128D01*
X88098133Y-42335654D01*
X85899494Y-42335654D01*
X85901791Y-42160128D01*
X85901867Y-42154346D01*
X85866059Y-41945953D01*
X85792873Y-41747575D01*
X85684762Y-41565856D01*
X85545345Y-41406881D01*
X85379292Y-41275976D01*
X85374181Y-41273287D01*
X85374178Y-41273285D01*
X85279362Y-41223400D01*
X85192164Y-41177523D01*
X84990227Y-41114820D01*
X84975801Y-41113113D01*
X84822232Y-41094936D01*
X84822225Y-41094936D01*
X84818545Y-41094500D01*
X84696359Y-41094500D01*
X84539440Y-41108919D01*
X84533878Y-41110488D01*
X84533876Y-41110488D01*
X84477775Y-41126310D01*
X84335931Y-41166314D01*
X84330753Y-41168867D01*
X84330749Y-41168869D01*
X84155508Y-41255289D01*
X84146290Y-41259835D01*
X83976867Y-41386349D01*
X83833337Y-41541619D01*
X83830256Y-41546502D01*
X83818045Y-41565856D01*
X83720505Y-41720446D01*
X83642152Y-41916840D01*
X83641027Y-41922497D01*
X83641025Y-41922503D01*
X83602028Y-42118558D01*
X83600901Y-42124225D01*
X83600825Y-42130000D01*
X83600825Y-42130004D01*
X83600431Y-42160128D01*
X83598133Y-42335654D01*
X80100500Y-42335654D01*
X80100500Y-40226500D01*
X80120502Y-40158379D01*
X80174158Y-40111886D01*
X80226500Y-40100500D01*
X93773500Y-40100500D01*
X93841621Y-40120502D01*
G37*
%TD.AperFunction*%
%TD*%
M02*
