%TF.GenerationSoftware,KiCad,Pcbnew,(6.0.5-0)*%
%TF.CreationDate,2022-06-14T21:43:59-04:00*%
%TF.ProjectId,pico_ducky_pcb,7069636f-5f64-4756-936b-795f7063622e,rev?*%
%TF.SameCoordinates,Original*%
%TF.FileFunction,Copper,L4,Bot*%
%TF.FilePolarity,Positive*%
%FSLAX46Y46*%
G04 Gerber Fmt 4.6, Leading zero omitted, Abs format (unit mm)*
G04 Created by KiCad (PCBNEW (6.0.5-0)) date 2022-06-14 21:43:59*
%MOMM*%
%LPD*%
G01*
G04 APERTURE LIST*
G04 Aperture macros list*
%AMRoundRect*
0 Rectangle with rounded corners*
0 $1 Rounding radius*
0 $2 $3 $4 $5 $6 $7 $8 $9 X,Y pos of 4 corners*
0 Add a 4 corners polygon primitive as box body*
4,1,4,$2,$3,$4,$5,$6,$7,$8,$9,$2,$3,0*
0 Add four circle primitives for the rounded corners*
1,1,$1+$1,$2,$3*
1,1,$1+$1,$4,$5*
1,1,$1+$1,$6,$7*
1,1,$1+$1,$8,$9*
0 Add four rect primitives between the rounded corners*
20,1,$1+$1,$2,$3,$4,$5,0*
20,1,$1+$1,$4,$5,$6,$7,0*
20,1,$1+$1,$6,$7,$8,$9,0*
20,1,$1+$1,$8,$9,$2,$3,0*%
%AMRotRect*
0 Rectangle, with rotation*
0 The origin of the aperture is its center*
0 $1 length*
0 $2 width*
0 $3 Rotation angle, in degrees counterclockwise*
0 Add horizontal line*
21,1,$1,$2,0,0,$3*%
%AMFreePoly0*
4,1,22,0.500000,-0.750000,0.000000,-0.750000,0.000000,-0.745033,-0.079941,-0.743568,-0.215256,-0.701293,-0.333266,-0.622738,-0.424486,-0.514219,-0.481581,-0.384460,-0.499164,-0.250000,-0.500000,-0.250000,-0.500000,0.250000,-0.499164,0.250000,-0.499963,0.256109,-0.478152,0.396186,-0.417904,0.524511,-0.324060,0.630769,-0.204165,0.706417,-0.067858,0.745374,0.000000,0.744959,0.000000,0.750000,
0.500000,0.750000,0.500000,-0.750000,0.500000,-0.750000,$1*%
%AMFreePoly1*
4,1,20,0.000000,0.744959,0.073905,0.744508,0.209726,0.703889,0.328688,0.626782,0.421226,0.519385,0.479903,0.390333,0.500000,0.250000,0.500000,-0.250000,0.499851,-0.262216,0.476331,-0.402017,0.414519,-0.529596,0.319384,-0.634700,0.198574,-0.708877,0.061801,-0.746166,0.000000,-0.745033,0.000000,-0.750000,-0.500000,-0.750000,-0.500000,0.750000,0.000000,0.750000,0.000000,0.744959,
0.000000,0.744959,$1*%
%AMFreePoly2*
4,1,5,0.360000,-0.125000,-0.110000,-0.125000,-0.110000,0.125000,0.110000,0.125000,0.360000,-0.125000,0.360000,-0.125000,$1*%
%AMFreePoly3*
4,1,6,0.290000,0.055000,0.110000,-0.125000,-0.110000,-0.125000,-0.110000,0.125000,0.290000,0.125000,0.290000,0.055000,0.290000,0.055000,$1*%
%AMFreePoly4*
4,1,6,0.110000,-0.125000,-0.110000,-0.125000,-0.290000,0.055000,-0.290000,0.125000,0.110000,0.125000,0.110000,-0.125000,0.110000,-0.125000,$1*%
%AMFreePoly5*
4,1,6,0.110000,-0.125000,-0.290000,-0.125000,-0.290000,-0.055000,-0.110000,0.125000,0.110000,0.125000,0.110000,-0.125000,0.110000,-0.125000,$1*%
G04 Aperture macros list end*
%TA.AperFunction,ComponentPad*%
%ADD10C,0.600000*%
%TD*%
%TA.AperFunction,SMDPad,CuDef*%
%ADD11RoundRect,0.140000X0.170000X-0.140000X0.170000X0.140000X-0.170000X0.140000X-0.170000X-0.140000X0*%
%TD*%
%TA.AperFunction,SMDPad,CuDef*%
%ADD12RoundRect,0.100000X0.130000X0.100000X-0.130000X0.100000X-0.130000X-0.100000X0.130000X-0.100000X0*%
%TD*%
%TA.AperFunction,SMDPad,CuDef*%
%ADD13FreePoly0,90.000000*%
%TD*%
%TA.AperFunction,SMDPad,CuDef*%
%ADD14FreePoly1,90.000000*%
%TD*%
%TA.AperFunction,SMDPad,CuDef*%
%ADD15RoundRect,0.140000X-0.140000X-0.170000X0.140000X-0.170000X0.140000X0.170000X-0.140000X0.170000X0*%
%TD*%
%TA.AperFunction,SMDPad,CuDef*%
%ADD16RoundRect,0.100000X-0.130000X-0.100000X0.130000X-0.100000X0.130000X0.100000X-0.130000X0.100000X0*%
%TD*%
%TA.AperFunction,SMDPad,CuDef*%
%ADD17FreePoly2,90.000000*%
%TD*%
%TA.AperFunction,SMDPad,CuDef*%
%ADD18FreePoly3,90.000000*%
%TD*%
%TA.AperFunction,SMDPad,CuDef*%
%ADD19FreePoly4,90.000000*%
%TD*%
%TA.AperFunction,SMDPad,CuDef*%
%ADD20FreePoly5,90.000000*%
%TD*%
%TA.AperFunction,SMDPad,CuDef*%
%ADD21RotRect,0.480000X0.480000X45.000000*%
%TD*%
%TA.AperFunction,SMDPad,CuDef*%
%ADD22RoundRect,0.100000X0.100000X-0.130000X0.100000X0.130000X-0.100000X0.130000X-0.100000X-0.130000X0*%
%TD*%
%TA.AperFunction,SMDPad,CuDef*%
%ADD23RoundRect,0.140000X0.140000X0.170000X-0.140000X0.170000X-0.140000X-0.170000X0.140000X-0.170000X0*%
%TD*%
%TA.AperFunction,ViaPad*%
%ADD24C,0.600000*%
%TD*%
%TA.AperFunction,Conductor*%
%ADD25C,0.300000*%
%TD*%
%TA.AperFunction,Conductor*%
%ADD26C,0.200000*%
%TD*%
%TA.AperFunction,Conductor*%
%ADD27C,0.150000*%
%TD*%
G04 APERTURE END LIST*
D10*
%TO.P,U3,57,GND*%
%TO.N,GND*%
X85825000Y-56725000D03*
X87100000Y-59275000D03*
X88375000Y-58000000D03*
X87100000Y-58000000D03*
X88375000Y-56725000D03*
X85825000Y-59275000D03*
X88375000Y-59275000D03*
X87100000Y-56725000D03*
X85825000Y-58000000D03*
%TD*%
D11*
%TO.P,C1,1*%
%TO.N,GND*%
X80600000Y-46980000D03*
%TO.P,C1,2*%
%TO.N,+5V*%
X80600000Y-46020000D03*
%TD*%
D12*
%TO.P,C8,1*%
%TO.N,GND*%
X88620000Y-60500000D03*
%TO.P,C8,2*%
%TO.N,+3V3*%
X87980000Y-60500000D03*
%TD*%
D13*
%TO.P,JP1,1,A*%
%TO.N,GND*%
X81250000Y-57820000D03*
D14*
%TO.P,JP1,2,B*%
%TO.N,/QSPI_CS*%
X81250000Y-56520000D03*
%TD*%
D15*
%TO.P,C6,1*%
%TO.N,GND*%
X81670000Y-48170000D03*
%TO.P,C6,2*%
%TO.N,+3V3*%
X82630000Y-48170000D03*
%TD*%
D16*
%TO.P,C15,1*%
%TO.N,GND*%
X85960000Y-54200000D03*
%TO.P,C15,2*%
%TO.N,+3V3*%
X86600000Y-54200000D03*
%TD*%
D17*
%TO.P,U1,1,VOUT*%
%TO.N,+3V3*%
X82475000Y-47040000D03*
D18*
%TO.P,U1,2,GND*%
%TO.N,GND*%
X81825000Y-47040000D03*
D19*
%TO.P,U1,3,EN*%
%TO.N,+5V*%
X81825000Y-45960000D03*
D20*
%TO.P,U1,4,VIN*%
X82475000Y-45960000D03*
D21*
%TO.P,U1,5,EP*%
%TO.N,GND*%
X82150000Y-46500000D03*
%TD*%
D12*
%TO.P,C9,1*%
%TO.N,GND*%
X89620000Y-54500000D03*
%TO.P,C9,2*%
%TO.N,+1V1*%
X88980000Y-54500000D03*
%TD*%
D22*
%TO.P,C10,1*%
%TO.N,GND*%
X85750000Y-49140000D03*
%TO.P,C10,2*%
%TO.N,+3V3*%
X85750000Y-48500000D03*
%TD*%
D23*
%TO.P,C2,1*%
%TO.N,GND*%
X89980000Y-55500000D03*
%TO.P,C2,2*%
%TO.N,+1V1*%
X89020000Y-55500000D03*
%TD*%
D16*
%TO.P,C11,1*%
%TO.N,GND*%
X85960000Y-55050000D03*
%TO.P,C11,2*%
%TO.N,+1V1*%
X86600000Y-55050000D03*
%TD*%
D24*
%TO.N,GND*%
X92050000Y-56570000D03*
X85950000Y-55750000D03*
X92250000Y-45170000D03*
X93250000Y-44170000D03*
X84000000Y-51500000D03*
X82150000Y-60400000D03*
X85150000Y-49130000D03*
X92150000Y-52970000D03*
X82850000Y-63770000D03*
X86200000Y-62800000D03*
X84000000Y-50500000D03*
X92250000Y-44170000D03*
X81700000Y-53100000D03*
X81680000Y-54180000D03*
X92250000Y-46170000D03*
X93250000Y-46170000D03*
X88000000Y-66200000D03*
X90450000Y-54470000D03*
X84000000Y-49500000D03*
X92850000Y-67170000D03*
X80970000Y-47720000D03*
X93250000Y-45170000D03*
X81250000Y-57770000D03*
X92050000Y-57800000D03*
X85600000Y-66400000D03*
X91250000Y-46170000D03*
X80440000Y-48480000D03*
%TO.N,+5V*%
X80750000Y-44170000D03*
X80750000Y-45170000D03*
X81750000Y-45170000D03*
X81750000Y-44170000D03*
%TO.N,+3V3*%
X89800000Y-51700000D03*
X84150000Y-47570000D03*
X92750000Y-60870000D03*
X92050000Y-59600000D03*
X83290000Y-47570000D03*
X93050000Y-50670000D03*
X87300000Y-53650000D03*
X87300000Y-60500000D03*
X81700000Y-55050000D03*
X81540000Y-59080000D03*
X81000000Y-60900000D03*
X82750000Y-55800000D03*
X86080000Y-47870000D03*
X92050000Y-54770000D03*
%TO.N,+1V1*%
X89000000Y-53700000D03*
X86900000Y-55750000D03*
%TO.N,/RGB_DI*%
X93050000Y-52970000D03*
X91346675Y-56005695D03*
%TO.N,/QSPI_CS*%
X80400000Y-55600000D03*
X83160000Y-54560000D03*
%TO.N,/USB_+*%
X88100000Y-47600000D03*
X88089477Y-49310523D03*
%TO.N,/QSPI_SD1*%
X84890723Y-53300980D03*
X84900000Y-55550000D03*
%TD*%
D25*
%TO.N,GND*%
X85960000Y-55050000D02*
X85960000Y-54200000D01*
X85160000Y-49140000D02*
X85150000Y-49130000D01*
X90420000Y-54500000D02*
X90450000Y-54470000D01*
X85960000Y-55050000D02*
X85960000Y-55740000D01*
X89620000Y-55140000D02*
X89980000Y-55500000D01*
X85960000Y-55740000D02*
X85950000Y-55750000D01*
X88375000Y-59275000D02*
X88620000Y-59520000D01*
X89620000Y-54500000D02*
X90420000Y-54500000D01*
X85750000Y-49140000D02*
X85160000Y-49140000D01*
X89620000Y-54500000D02*
X89620000Y-55140000D01*
D26*
X85960000Y-54200000D02*
X85960000Y-55740000D01*
D25*
X88620000Y-59520000D02*
X88620000Y-60500000D01*
%TO.N,+3V3*%
X86600000Y-54200000D02*
X86750000Y-54200000D01*
X86750000Y-54200000D02*
X87300000Y-53650000D01*
X86080000Y-48170000D02*
X85750000Y-48500000D01*
X86080000Y-47870000D02*
X86080000Y-48170000D01*
X87300000Y-60500000D02*
X87980000Y-60500000D01*
%TO.N,+1V1*%
X86600000Y-55050000D02*
X86600000Y-55450000D01*
D26*
X89020000Y-54600000D02*
X89020000Y-55560000D01*
D25*
X88980000Y-55460000D02*
X89020000Y-55500000D01*
X88980000Y-54500000D02*
X88980000Y-55460000D01*
D26*
X89000000Y-54580000D02*
X89020000Y-54600000D01*
D25*
X88980000Y-53720000D02*
X89000000Y-53700000D01*
X88980000Y-54500000D02*
X88980000Y-53720000D01*
D26*
X89000000Y-53700000D02*
X89000000Y-54580000D01*
D25*
X86600000Y-55450000D02*
X86900000Y-55750000D01*
D27*
%TO.N,/RGB_DI*%
X93050000Y-54441061D02*
X91485366Y-56005695D01*
X93050000Y-52970000D02*
X93050000Y-54441061D01*
X91485366Y-56005695D02*
X91346675Y-56005695D01*
%TO.N,/QSPI_CS*%
X81470000Y-56250000D02*
X83160000Y-54560000D01*
X81050000Y-56250000D02*
X80400000Y-55600000D01*
X81050000Y-56250000D02*
X81470000Y-56250000D01*
%TO.N,/USB_+*%
X88089477Y-49310523D02*
X88100000Y-49300000D01*
X88100000Y-49300000D02*
X88100000Y-47600000D01*
%TO.N,/QSPI_SD1*%
X84890723Y-53300980D02*
X84890723Y-55540723D01*
X84890723Y-55540723D02*
X84900000Y-55550000D01*
%TD*%
%TA.AperFunction,Conductor*%
%TO.N,+5V*%
G36*
X84359191Y-43588907D02*
G01*
X84395155Y-43638407D01*
X84400000Y-43669000D01*
X84400000Y-46301000D01*
X84381093Y-46359191D01*
X84331593Y-46395155D01*
X84301000Y-46400000D01*
X82572547Y-46400000D01*
X82514356Y-46381093D01*
X82502544Y-46371004D01*
X82217504Y-46085965D01*
X82214065Y-46082526D01*
X82210016Y-46079820D01*
X82197321Y-46071338D01*
X82197322Y-46071338D01*
X82189213Y-46065920D01*
X82179649Y-46064017D01*
X82179648Y-46064017D01*
X82159566Y-46060022D01*
X82150000Y-46058119D01*
X82140434Y-46060022D01*
X82120352Y-46064017D01*
X82120351Y-46064017D01*
X82110787Y-46065920D01*
X82085935Y-46082525D01*
X81919383Y-46249078D01*
X81797458Y-46371003D01*
X81742941Y-46398781D01*
X81727454Y-46400000D01*
X81291780Y-46400000D01*
X81233589Y-46381093D01*
X81197625Y-46331593D01*
X81198373Y-46268197D01*
X81205087Y-46249078D01*
X81207656Y-46237371D01*
X81209782Y-46214886D01*
X81210000Y-46210250D01*
X81210000Y-46185680D01*
X81205878Y-46172995D01*
X81201757Y-46170000D01*
X80549000Y-46170000D01*
X80490809Y-46151093D01*
X80454845Y-46101593D01*
X80450000Y-46071000D01*
X80450000Y-45854320D01*
X80750000Y-45854320D01*
X80754122Y-45867005D01*
X80758243Y-45870000D01*
X81194319Y-45870000D01*
X81207004Y-45865878D01*
X81209999Y-45861757D01*
X81209999Y-45829753D01*
X81209780Y-45825110D01*
X81207655Y-45802626D01*
X81205090Y-45790930D01*
X81165700Y-45678766D01*
X81158853Y-45665833D01*
X81089041Y-45571316D01*
X81078684Y-45560959D01*
X80984167Y-45491147D01*
X80971234Y-45484300D01*
X80859073Y-45444912D01*
X80847371Y-45442344D01*
X80824886Y-45440218D01*
X80820250Y-45440000D01*
X80765680Y-45440000D01*
X80752995Y-45444122D01*
X80750000Y-45448243D01*
X80750000Y-45854320D01*
X80450000Y-45854320D01*
X80450000Y-45455681D01*
X80445878Y-45442996D01*
X80441757Y-45440001D01*
X80379753Y-45440001D01*
X80375110Y-45440220D01*
X80352626Y-45442345D01*
X80340930Y-45444910D01*
X80232302Y-45483058D01*
X80171134Y-45484499D01*
X80120801Y-45449712D01*
X80100500Y-45389650D01*
X80100500Y-43669000D01*
X80119407Y-43610809D01*
X80168907Y-43574845D01*
X80199500Y-43570000D01*
X84301000Y-43570000D01*
X84359191Y-43588907D01*
G37*
%TD.AperFunction*%
%TD*%
%TA.AperFunction,Conductor*%
%TO.N,GND*%
G36*
X81518445Y-46618907D02*
G01*
X81546205Y-46649874D01*
X81555541Y-46666208D01*
X81565162Y-46678368D01*
X81568960Y-46682635D01*
X81651011Y-46764686D01*
X81662894Y-46770740D01*
X81667924Y-46769944D01*
X81837868Y-46600000D01*
X82050000Y-46600000D01*
X82050000Y-46812134D01*
X81885316Y-46976818D01*
X81879261Y-46988702D01*
X81880057Y-46993732D01*
X81967316Y-47080991D01*
X81971692Y-47084877D01*
X81984246Y-47094762D01*
X81999949Y-47103694D01*
X82041181Y-47148900D01*
X82050000Y-47189746D01*
X82050000Y-47478220D01*
X82031093Y-47536411D01*
X81981593Y-47572375D01*
X81918197Y-47571627D01*
X81899078Y-47564913D01*
X81887371Y-47562344D01*
X81864886Y-47560218D01*
X81860250Y-47560000D01*
X81835680Y-47560000D01*
X81822995Y-47564122D01*
X81820000Y-47568243D01*
X81820000Y-48764319D01*
X81824122Y-48777004D01*
X81828243Y-48779999D01*
X81860247Y-48779999D01*
X81864890Y-48779780D01*
X81887374Y-48777655D01*
X81899074Y-48775089D01*
X81918197Y-48768373D01*
X81979365Y-48766931D01*
X82029699Y-48801718D01*
X82050000Y-48861780D01*
X82050000Y-48971000D01*
X82031093Y-49029191D01*
X81981593Y-49065155D01*
X81951000Y-49070000D01*
X80199500Y-49070000D01*
X80141309Y-49051093D01*
X80105345Y-49001593D01*
X80100500Y-48971000D01*
X80100500Y-48390247D01*
X81090001Y-48390247D01*
X81090220Y-48394890D01*
X81092345Y-48417374D01*
X81094910Y-48429070D01*
X81134300Y-48541234D01*
X81141147Y-48554167D01*
X81210959Y-48648684D01*
X81221316Y-48659041D01*
X81315833Y-48728853D01*
X81328766Y-48735700D01*
X81440927Y-48775088D01*
X81452629Y-48777656D01*
X81475114Y-48779782D01*
X81479750Y-48780000D01*
X81504320Y-48780000D01*
X81517005Y-48775878D01*
X81520000Y-48771757D01*
X81520000Y-48335680D01*
X81515878Y-48322995D01*
X81511757Y-48320000D01*
X81105681Y-48320000D01*
X81092996Y-48324122D01*
X81090001Y-48328243D01*
X81090001Y-48390247D01*
X80100500Y-48390247D01*
X80100500Y-48004320D01*
X81090000Y-48004320D01*
X81094122Y-48017005D01*
X81098243Y-48020000D01*
X81504320Y-48020000D01*
X81517005Y-48015878D01*
X81520000Y-48011757D01*
X81520000Y-47575681D01*
X81515878Y-47562996D01*
X81511757Y-47560001D01*
X81479753Y-47560001D01*
X81475110Y-47560220D01*
X81452626Y-47562345D01*
X81440930Y-47564910D01*
X81328766Y-47604300D01*
X81315833Y-47611147D01*
X81221316Y-47680959D01*
X81210959Y-47691316D01*
X81141147Y-47785833D01*
X81134300Y-47798766D01*
X81094912Y-47910927D01*
X81092344Y-47922629D01*
X81090218Y-47945114D01*
X81090000Y-47949750D01*
X81090000Y-48004320D01*
X80100500Y-48004320D01*
X80100500Y-47610350D01*
X80119407Y-47552159D01*
X80168907Y-47516195D01*
X80232302Y-47516942D01*
X80340927Y-47555088D01*
X80352629Y-47557656D01*
X80375114Y-47559782D01*
X80379750Y-47560000D01*
X80434320Y-47560000D01*
X80447005Y-47555878D01*
X80450000Y-47551757D01*
X80450000Y-47544319D01*
X80750000Y-47544319D01*
X80754122Y-47557004D01*
X80758243Y-47559999D01*
X80820247Y-47559999D01*
X80824890Y-47559780D01*
X80847374Y-47557655D01*
X80859070Y-47555090D01*
X80971234Y-47515700D01*
X80984167Y-47508853D01*
X81078684Y-47439041D01*
X81089041Y-47428684D01*
X81158853Y-47334167D01*
X81165700Y-47321234D01*
X81205088Y-47209073D01*
X81207656Y-47197371D01*
X81209782Y-47174886D01*
X81210000Y-47170250D01*
X81210000Y-47145680D01*
X81205878Y-47132995D01*
X81201757Y-47130000D01*
X80765680Y-47130000D01*
X80752995Y-47134122D01*
X80750000Y-47138243D01*
X80750000Y-47544319D01*
X80450000Y-47544319D01*
X80450000Y-46929000D01*
X80468907Y-46870809D01*
X80518407Y-46834845D01*
X80549000Y-46830000D01*
X81194319Y-46830000D01*
X81207004Y-46825878D01*
X81209999Y-46821757D01*
X81209999Y-46789753D01*
X81209780Y-46785110D01*
X81207655Y-46762626D01*
X81205089Y-46750926D01*
X81198373Y-46731803D01*
X81196931Y-46670635D01*
X81231718Y-46620301D01*
X81291780Y-46600000D01*
X81460254Y-46600000D01*
X81518445Y-46618907D01*
G37*
%TD.AperFunction*%
%TD*%
%TA.AperFunction,Conductor*%
%TO.N,+3V3*%
G36*
X84359191Y-46618907D02*
G01*
X84395155Y-46668407D01*
X84400000Y-46699000D01*
X84400000Y-48971000D01*
X84381093Y-49029191D01*
X84331593Y-49065155D01*
X84301000Y-49070000D01*
X82349000Y-49070000D01*
X82290809Y-49051093D01*
X82254845Y-49001593D01*
X82250000Y-48971000D01*
X82250000Y-48861780D01*
X82268907Y-48803589D01*
X82318407Y-48767625D01*
X82381803Y-48768373D01*
X82400922Y-48775087D01*
X82412629Y-48777656D01*
X82435114Y-48779782D01*
X82439750Y-48780000D01*
X82464320Y-48780000D01*
X82477005Y-48775878D01*
X82480000Y-48771757D01*
X82480000Y-48764319D01*
X82780000Y-48764319D01*
X82784122Y-48777004D01*
X82788243Y-48779999D01*
X82820247Y-48779999D01*
X82824890Y-48779780D01*
X82847374Y-48777655D01*
X82859070Y-48775090D01*
X82971234Y-48735700D01*
X82984167Y-48728853D01*
X83078684Y-48659041D01*
X83089041Y-48648684D01*
X83158853Y-48554167D01*
X83165700Y-48541234D01*
X83205088Y-48429073D01*
X83207656Y-48417371D01*
X83209782Y-48394886D01*
X83210000Y-48390250D01*
X83210000Y-48335680D01*
X83205878Y-48322995D01*
X83201757Y-48320000D01*
X82795680Y-48320000D01*
X82782995Y-48324122D01*
X82780000Y-48328243D01*
X82780000Y-48764319D01*
X82480000Y-48764319D01*
X82480000Y-48004320D01*
X82780000Y-48004320D01*
X82784122Y-48017005D01*
X82788243Y-48020000D01*
X83194319Y-48020000D01*
X83207004Y-48015878D01*
X83209999Y-48011757D01*
X83209999Y-47949753D01*
X83209780Y-47945110D01*
X83207655Y-47922626D01*
X83205090Y-47910930D01*
X83165700Y-47798766D01*
X83158853Y-47785833D01*
X83089041Y-47691316D01*
X83078684Y-47680959D01*
X82984167Y-47611147D01*
X82971234Y-47604300D01*
X82859073Y-47564912D01*
X82847371Y-47562344D01*
X82824886Y-47560218D01*
X82820250Y-47560000D01*
X82795680Y-47560000D01*
X82782995Y-47564122D01*
X82780000Y-47568243D01*
X82780000Y-48004320D01*
X82480000Y-48004320D01*
X82480000Y-47575681D01*
X82475878Y-47562996D01*
X82471757Y-47560001D01*
X82439753Y-47560001D01*
X82435110Y-47560220D01*
X82412626Y-47562345D01*
X82400926Y-47564911D01*
X82381803Y-47571627D01*
X82320635Y-47573069D01*
X82270301Y-47538282D01*
X82250000Y-47478220D01*
X82250000Y-46922547D01*
X82268907Y-46864356D01*
X82278996Y-46852544D01*
X82502542Y-46628997D01*
X82557059Y-46601219D01*
X82572546Y-46600000D01*
X84301000Y-46600000D01*
X84359191Y-46618907D01*
G37*
%TD.AperFunction*%
%TD*%
M02*
