%TF.GenerationSoftware,KiCad,Pcbnew,(6.0.5-0)*%
%TF.CreationDate,2022-06-14T21:43:59-04:00*%
%TF.ProjectId,pico_ducky_pcb,7069636f-5f64-4756-936b-795f7063622e,rev?*%
%TF.SameCoordinates,Original*%
%TF.FileFunction,Legend,Bot*%
%TF.FilePolarity,Positive*%
%FSLAX46Y46*%
G04 Gerber Fmt 4.6, Leading zero omitted, Abs format (unit mm)*
G04 Created by KiCad (PCBNEW (6.0.5-0)) date 2022-06-14 21:43:59*
%MOMM*%
%LPD*%
G01*
G04 APERTURE LIST*
G04 Aperture macros list*
%AMRoundRect*
0 Rectangle with rounded corners*
0 $1 Rounding radius*
0 $2 $3 $4 $5 $6 $7 $8 $9 X,Y pos of 4 corners*
0 Add a 4 corners polygon primitive as box body*
4,1,4,$2,$3,$4,$5,$6,$7,$8,$9,$2,$3,0*
0 Add four circle primitives for the rounded corners*
1,1,$1+$1,$2,$3*
1,1,$1+$1,$4,$5*
1,1,$1+$1,$6,$7*
1,1,$1+$1,$8,$9*
0 Add four rect primitives between the rounded corners*
20,1,$1+$1,$2,$3,$4,$5,0*
20,1,$1+$1,$4,$5,$6,$7,0*
20,1,$1+$1,$6,$7,$8,$9,0*
20,1,$1+$1,$8,$9,$2,$3,0*%
%AMRotRect*
0 Rectangle, with rotation*
0 The origin of the aperture is its center*
0 $1 length*
0 $2 width*
0 $3 Rotation angle, in degrees counterclockwise*
0 Add horizontal line*
21,1,$1,$2,0,0,$3*%
%AMFreePoly0*
4,1,22,0.500000,-0.750000,0.000000,-0.750000,0.000000,-0.745033,-0.079941,-0.743568,-0.215256,-0.701293,-0.333266,-0.622738,-0.424486,-0.514219,-0.481581,-0.384460,-0.499164,-0.250000,-0.500000,-0.250000,-0.500000,0.250000,-0.499164,0.250000,-0.499963,0.256109,-0.478152,0.396186,-0.417904,0.524511,-0.324060,0.630769,-0.204165,0.706417,-0.067858,0.745374,0.000000,0.744959,0.000000,0.750000,
0.500000,0.750000,0.500000,-0.750000,0.500000,-0.750000,$1*%
%AMFreePoly1*
4,1,20,0.000000,0.744959,0.073905,0.744508,0.209726,0.703889,0.328688,0.626782,0.421226,0.519385,0.479903,0.390333,0.500000,0.250000,0.500000,-0.250000,0.499851,-0.262216,0.476331,-0.402017,0.414519,-0.529596,0.319384,-0.634700,0.198574,-0.708877,0.061801,-0.746166,0.000000,-0.745033,0.000000,-0.750000,-0.500000,-0.750000,-0.500000,0.750000,0.000000,0.750000,0.000000,0.744959,
0.000000,0.744959,$1*%
%AMFreePoly2*
4,1,5,0.360000,-0.125000,-0.110000,-0.125000,-0.110000,0.125000,0.110000,0.125000,0.360000,-0.125000,0.360000,-0.125000,$1*%
%AMFreePoly3*
4,1,6,0.290000,0.055000,0.110000,-0.125000,-0.110000,-0.125000,-0.110000,0.125000,0.290000,0.125000,0.290000,0.055000,0.290000,0.055000,$1*%
%AMFreePoly4*
4,1,6,0.110000,-0.125000,-0.110000,-0.125000,-0.290000,0.055000,-0.290000,0.125000,0.110000,0.125000,0.110000,-0.125000,0.110000,-0.125000,$1*%
%AMFreePoly5*
4,1,6,0.110000,-0.125000,-0.290000,-0.125000,-0.290000,-0.055000,-0.110000,0.125000,0.110000,0.125000,0.110000,-0.125000,0.110000,-0.125000,$1*%
G04 Aperture macros list end*
%ADD10C,0.150000*%
%ADD11C,0.100000*%
%ADD12C,0.120000*%
%ADD13C,0.711200*%
%ADD14C,1.900000*%
%ADD15RoundRect,0.140000X0.170000X-0.140000X0.170000X0.140000X-0.170000X0.140000X-0.170000X-0.140000X0*%
%ADD16RoundRect,0.100000X0.130000X0.100000X-0.130000X0.100000X-0.130000X-0.100000X0.130000X-0.100000X0*%
%ADD17FreePoly0,90.000000*%
%ADD18FreePoly1,90.000000*%
%ADD19RoundRect,0.140000X-0.140000X-0.170000X0.140000X-0.170000X0.140000X0.170000X-0.140000X0.170000X0*%
%ADD20RoundRect,0.100000X-0.130000X-0.100000X0.130000X-0.100000X0.130000X0.100000X-0.130000X0.100000X0*%
%ADD21FreePoly2,90.000000*%
%ADD22FreePoly3,90.000000*%
%ADD23FreePoly4,90.000000*%
%ADD24FreePoly5,90.000000*%
%ADD25RotRect,0.480000X0.480000X45.000000*%
%ADD26RoundRect,0.100000X0.100000X-0.130000X0.100000X0.130000X-0.100000X0.130000X-0.100000X-0.130000X0*%
%ADD27RoundRect,0.140000X0.140000X0.170000X-0.140000X0.170000X-0.140000X-0.170000X0.140000X-0.170000X0*%
G04 APERTURE END LIST*
D10*
X82445238Y-58312857D02*
X82397619Y-58170000D01*
X82397619Y-57931904D01*
X82445238Y-57836666D01*
X82492857Y-57789047D01*
X82588095Y-57741428D01*
X82683333Y-57741428D01*
X82778571Y-57789047D01*
X82826190Y-57836666D01*
X82873809Y-57931904D01*
X82921428Y-58122380D01*
X82969047Y-58217619D01*
X83016666Y-58265238D01*
X83111904Y-58312857D01*
X83207142Y-58312857D01*
X83302380Y-58265238D01*
X83350000Y-58217619D01*
X83397619Y-58122380D01*
X83397619Y-57884285D01*
X83350000Y-57741428D01*
X82921428Y-57312857D02*
X82921428Y-56979523D01*
X82397619Y-56836666D02*
X82397619Y-57312857D01*
X83397619Y-57312857D01*
X83397619Y-56836666D01*
X82397619Y-55931904D02*
X82397619Y-56408095D01*
X83397619Y-56408095D01*
X80345238Y-66365238D02*
X80297619Y-66222380D01*
X80297619Y-65984285D01*
X80345238Y-65889047D01*
X80392857Y-65841428D01*
X80488095Y-65793809D01*
X80583333Y-65793809D01*
X80678571Y-65841428D01*
X80726190Y-65889047D01*
X80773809Y-65984285D01*
X80821428Y-66174761D01*
X80869047Y-66270000D01*
X80916666Y-66317619D01*
X81011904Y-66365238D01*
X81107142Y-66365238D01*
X81202380Y-66317619D01*
X81250000Y-66270000D01*
X81297619Y-66174761D01*
X81297619Y-65936666D01*
X81250000Y-65793809D01*
X80583333Y-65412857D02*
X80583333Y-64936666D01*
X80297619Y-65508095D02*
X81297619Y-65174761D01*
X80297619Y-64841428D01*
X80821428Y-64174761D02*
X80821428Y-64508095D01*
X80297619Y-64508095D02*
X81297619Y-64508095D01*
X81297619Y-64031904D01*
X80821428Y-63650952D02*
X80821428Y-63317619D01*
X80297619Y-63174761D02*
X80297619Y-63650952D01*
X81297619Y-63650952D01*
X81297619Y-63174761D01*
X84121428Y-58627142D02*
X84073809Y-58484285D01*
X84026190Y-58436666D01*
X83930952Y-58389047D01*
X83788095Y-58389047D01*
X83692857Y-58436666D01*
X83645238Y-58484285D01*
X83597619Y-58579523D01*
X83597619Y-58960476D01*
X84597619Y-58960476D01*
X84597619Y-58627142D01*
X84550000Y-58531904D01*
X84502380Y-58484285D01*
X84407142Y-58436666D01*
X84311904Y-58436666D01*
X84216666Y-58484285D01*
X84169047Y-58531904D01*
X84121428Y-58627142D01*
X84121428Y-58960476D01*
X84597619Y-57770000D02*
X84597619Y-57579523D01*
X84550000Y-57484285D01*
X84454761Y-57389047D01*
X84264285Y-57341428D01*
X83930952Y-57341428D01*
X83740476Y-57389047D01*
X83645238Y-57484285D01*
X83597619Y-57579523D01*
X83597619Y-57770000D01*
X83645238Y-57865238D01*
X83740476Y-57960476D01*
X83930952Y-58008095D01*
X84264285Y-58008095D01*
X84454761Y-57960476D01*
X84550000Y-57865238D01*
X84597619Y-57770000D01*
X84597619Y-56722380D02*
X84597619Y-56531904D01*
X84550000Y-56436666D01*
X84454761Y-56341428D01*
X84264285Y-56293809D01*
X83930952Y-56293809D01*
X83740476Y-56341428D01*
X83645238Y-56436666D01*
X83597619Y-56531904D01*
X83597619Y-56722380D01*
X83645238Y-56817619D01*
X83740476Y-56912857D01*
X83930952Y-56960476D01*
X84264285Y-56960476D01*
X84454761Y-56912857D01*
X84550000Y-56817619D01*
X84597619Y-56722380D01*
X84597619Y-56008095D02*
X84597619Y-55436666D01*
X83597619Y-55722380D02*
X84597619Y-55722380D01*
X92897619Y-66222380D02*
X93373809Y-66555714D01*
X92897619Y-66793809D02*
X93897619Y-66793809D01*
X93897619Y-66412857D01*
X93850000Y-66317619D01*
X93802380Y-66270000D01*
X93707142Y-66222380D01*
X93564285Y-66222380D01*
X93469047Y-66270000D01*
X93421428Y-66317619D01*
X93373809Y-66412857D01*
X93373809Y-66793809D01*
X93421428Y-65793809D02*
X93421428Y-65460476D01*
X92897619Y-65317619D02*
X92897619Y-65793809D01*
X93897619Y-65793809D01*
X93897619Y-65317619D01*
X92945238Y-64936666D02*
X92897619Y-64793809D01*
X92897619Y-64555714D01*
X92945238Y-64460476D01*
X92992857Y-64412857D01*
X93088095Y-64365238D01*
X93183333Y-64365238D01*
X93278571Y-64412857D01*
X93326190Y-64460476D01*
X93373809Y-64555714D01*
X93421428Y-64746190D01*
X93469047Y-64841428D01*
X93516666Y-64889047D01*
X93611904Y-64936666D01*
X93707142Y-64936666D01*
X93802380Y-64889047D01*
X93850000Y-64841428D01*
X93897619Y-64746190D01*
X93897619Y-64508095D01*
X93850000Y-64365238D01*
X93421428Y-63936666D02*
X93421428Y-63603333D01*
X92897619Y-63460476D02*
X92897619Y-63936666D01*
X93897619Y-63936666D01*
X93897619Y-63460476D01*
X93897619Y-63174761D02*
X93897619Y-62603333D01*
X92897619Y-62889047D02*
X93897619Y-62889047D01*
X84102619Y-66191309D02*
X84578809Y-66524642D01*
X84102619Y-66762738D02*
X85102619Y-66762738D01*
X85102619Y-66381785D01*
X85055000Y-66286547D01*
X85007380Y-66238928D01*
X84912142Y-66191309D01*
X84769285Y-66191309D01*
X84674047Y-66238928D01*
X84626428Y-66286547D01*
X84578809Y-66381785D01*
X84578809Y-66762738D01*
X84102619Y-65762738D02*
X85102619Y-65762738D01*
X85102619Y-65381785D01*
X85055000Y-65286547D01*
X85007380Y-65238928D01*
X84912142Y-65191309D01*
X84769285Y-65191309D01*
X84674047Y-65238928D01*
X84626428Y-65286547D01*
X84578809Y-65381785D01*
X84578809Y-65762738D01*
X84102619Y-64000833D02*
X85102619Y-64000833D01*
X85102619Y-63762738D01*
X85055000Y-63619880D01*
X84959761Y-63524642D01*
X84864523Y-63477023D01*
X84674047Y-63429404D01*
X84531190Y-63429404D01*
X84340714Y-63477023D01*
X84245476Y-63524642D01*
X84150238Y-63619880D01*
X84102619Y-63762738D01*
X84102619Y-64000833D01*
X84769285Y-62572261D02*
X84102619Y-62572261D01*
X84769285Y-63000833D02*
X84245476Y-63000833D01*
X84150238Y-62953214D01*
X84102619Y-62857976D01*
X84102619Y-62715119D01*
X84150238Y-62619880D01*
X84197857Y-62572261D01*
X84150238Y-61667500D02*
X84102619Y-61762738D01*
X84102619Y-61953214D01*
X84150238Y-62048452D01*
X84197857Y-62096071D01*
X84293095Y-62143690D01*
X84578809Y-62143690D01*
X84674047Y-62096071D01*
X84721666Y-62048452D01*
X84769285Y-61953214D01*
X84769285Y-61762738D01*
X84721666Y-61667500D01*
X84102619Y-61238928D02*
X85102619Y-61238928D01*
X84483571Y-61143690D02*
X84102619Y-60857976D01*
X84769285Y-60857976D02*
X84388333Y-61238928D01*
X83492619Y-62381785D02*
X82492619Y-62048452D01*
X83492619Y-61715119D01*
X83397380Y-61429404D02*
X83445000Y-61381785D01*
X83492619Y-61286547D01*
X83492619Y-61048452D01*
X83445000Y-60953214D01*
X83397380Y-60905595D01*
X83302142Y-60857976D01*
X83206904Y-60857976D01*
X83064047Y-60905595D01*
X82492619Y-61477023D01*
X82492619Y-60857976D01*
X89297619Y-66698571D02*
X90297619Y-66698571D01*
X89297619Y-66127142D02*
X89869047Y-66555714D01*
X90297619Y-66127142D02*
X89726190Y-66698571D01*
X89345238Y-65317619D02*
X89297619Y-65412857D01*
X89297619Y-65603333D01*
X89345238Y-65698571D01*
X89440476Y-65746190D01*
X89821428Y-65746190D01*
X89916666Y-65698571D01*
X89964285Y-65603333D01*
X89964285Y-65412857D01*
X89916666Y-65317619D01*
X89821428Y-65269999D01*
X89726190Y-65269999D01*
X89630952Y-65746190D01*
X89964285Y-64936666D02*
X89297619Y-64698571D01*
X89964285Y-64460476D01*
X89297619Y-64079523D02*
X89964285Y-64079523D01*
X90297619Y-64079523D02*
X90250000Y-64127142D01*
X90202380Y-64079523D01*
X90250000Y-64031904D01*
X90297619Y-64079523D01*
X90202380Y-64079523D01*
X89964285Y-63603333D02*
X89297619Y-63603333D01*
X89869047Y-63603333D02*
X89916666Y-63555714D01*
X89964285Y-63460476D01*
X89964285Y-63317619D01*
X89916666Y-63222380D01*
X89821428Y-63174761D01*
X89297619Y-63174761D01*
X89297619Y-61460476D02*
X89297619Y-61936666D01*
X90297619Y-61936666D01*
X89964285Y-60698571D02*
X89297619Y-60698571D01*
X89964285Y-61127142D02*
X89440476Y-61127142D01*
X89345238Y-61079523D01*
X89297619Y-60984285D01*
X89297619Y-60841428D01*
X89345238Y-60746190D01*
X89392857Y-60698571D01*
X89964285Y-60365238D02*
X89964285Y-59984285D01*
X90297619Y-60222380D02*
X89440476Y-60222380D01*
X89345238Y-60174761D01*
X89297619Y-60079523D01*
X89297619Y-59984285D01*
X89964285Y-59746190D02*
X89964285Y-59222380D01*
X89297619Y-59746190D01*
X89297619Y-59222380D01*
X89345238Y-58460476D02*
X89297619Y-58555714D01*
X89297619Y-58746190D01*
X89345238Y-58841428D01*
X89440476Y-58889047D01*
X89821428Y-58889047D01*
X89916666Y-58841428D01*
X89964285Y-58746190D01*
X89964285Y-58555714D01*
X89916666Y-58460476D01*
X89821428Y-58412857D01*
X89726190Y-58412857D01*
X89630952Y-58889047D01*
X89297619Y-57984285D02*
X89964285Y-57984285D01*
X89773809Y-57984285D02*
X89869047Y-57936666D01*
X89916666Y-57889047D01*
X89964285Y-57793809D01*
X89964285Y-57698571D01*
D11*
%TO.C,C1*%
X80683333Y-45438571D02*
X80707142Y-45462380D01*
X80778571Y-45486190D01*
X80826190Y-45486190D01*
X80897619Y-45462380D01*
X80945238Y-45414761D01*
X80969047Y-45367142D01*
X80992857Y-45271904D01*
X80992857Y-45200476D01*
X80969047Y-45105238D01*
X80945238Y-45057619D01*
X80897619Y-45010000D01*
X80826190Y-44986190D01*
X80778571Y-44986190D01*
X80707142Y-45010000D01*
X80683333Y-45033809D01*
X80207142Y-45486190D02*
X80492857Y-45486190D01*
X80350000Y-45486190D02*
X80350000Y-44986190D01*
X80397619Y-45057619D01*
X80445238Y-45105238D01*
X80492857Y-45129047D01*
%TO.C,C8*%
X88383333Y-61378571D02*
X88407142Y-61402380D01*
X88478571Y-61426190D01*
X88526190Y-61426190D01*
X88597619Y-61402380D01*
X88645238Y-61354761D01*
X88669047Y-61307142D01*
X88692857Y-61211904D01*
X88692857Y-61140476D01*
X88669047Y-61045238D01*
X88645238Y-60997619D01*
X88597619Y-60950000D01*
X88526190Y-60926190D01*
X88478571Y-60926190D01*
X88407142Y-60950000D01*
X88383333Y-60973809D01*
X88097619Y-61140476D02*
X88145238Y-61116666D01*
X88169047Y-61092857D01*
X88192857Y-61045238D01*
X88192857Y-61021428D01*
X88169047Y-60973809D01*
X88145238Y-60950000D01*
X88097619Y-60926190D01*
X88002380Y-60926190D01*
X87954761Y-60950000D01*
X87930952Y-60973809D01*
X87907142Y-61021428D01*
X87907142Y-61045238D01*
X87930952Y-61092857D01*
X87954761Y-61116666D01*
X88002380Y-61140476D01*
X88097619Y-61140476D01*
X88145238Y-61164285D01*
X88169047Y-61188095D01*
X88192857Y-61235714D01*
X88192857Y-61330952D01*
X88169047Y-61378571D01*
X88145238Y-61402380D01*
X88097619Y-61426190D01*
X88002380Y-61426190D01*
X87954761Y-61402380D01*
X87930952Y-61378571D01*
X87907142Y-61330952D01*
X87907142Y-61235714D01*
X87930952Y-61188095D01*
X87954761Y-61164285D01*
X88002380Y-61140476D01*
%TO.C,C6*%
X83633333Y-48378571D02*
X83657142Y-48402380D01*
X83728571Y-48426190D01*
X83776190Y-48426190D01*
X83847619Y-48402380D01*
X83895238Y-48354761D01*
X83919047Y-48307142D01*
X83942857Y-48211904D01*
X83942857Y-48140476D01*
X83919047Y-48045238D01*
X83895238Y-47997619D01*
X83847619Y-47950000D01*
X83776190Y-47926190D01*
X83728571Y-47926190D01*
X83657142Y-47950000D01*
X83633333Y-47973809D01*
X83204761Y-47926190D02*
X83300000Y-47926190D01*
X83347619Y-47950000D01*
X83371428Y-47973809D01*
X83419047Y-48045238D01*
X83442857Y-48140476D01*
X83442857Y-48330952D01*
X83419047Y-48378571D01*
X83395238Y-48402380D01*
X83347619Y-48426190D01*
X83252380Y-48426190D01*
X83204761Y-48402380D01*
X83180952Y-48378571D01*
X83157142Y-48330952D01*
X83157142Y-48211904D01*
X83180952Y-48164285D01*
X83204761Y-48140476D01*
X83252380Y-48116666D01*
X83347619Y-48116666D01*
X83395238Y-48140476D01*
X83419047Y-48164285D01*
X83442857Y-48211904D01*
%TO.C,C15*%
X86601428Y-52948571D02*
X86625238Y-52972380D01*
X86696666Y-52996190D01*
X86744285Y-52996190D01*
X86815714Y-52972380D01*
X86863333Y-52924761D01*
X86887142Y-52877142D01*
X86910952Y-52781904D01*
X86910952Y-52710476D01*
X86887142Y-52615238D01*
X86863333Y-52567619D01*
X86815714Y-52520000D01*
X86744285Y-52496190D01*
X86696666Y-52496190D01*
X86625238Y-52520000D01*
X86601428Y-52543809D01*
X86125238Y-52996190D02*
X86410952Y-52996190D01*
X86268095Y-52996190D02*
X86268095Y-52496190D01*
X86315714Y-52567619D01*
X86363333Y-52615238D01*
X86410952Y-52639047D01*
X85672857Y-52496190D02*
X85910952Y-52496190D01*
X85934761Y-52734285D01*
X85910952Y-52710476D01*
X85863333Y-52686666D01*
X85744285Y-52686666D01*
X85696666Y-52710476D01*
X85672857Y-52734285D01*
X85649047Y-52781904D01*
X85649047Y-52900952D01*
X85672857Y-52948571D01*
X85696666Y-52972380D01*
X85744285Y-52996190D01*
X85863333Y-52996190D01*
X85910952Y-52972380D01*
X85934761Y-52948571D01*
%TO.C,U1*%
X82480952Y-44996190D02*
X82480952Y-45400952D01*
X82457142Y-45448571D01*
X82433333Y-45472380D01*
X82385714Y-45496190D01*
X82290476Y-45496190D01*
X82242857Y-45472380D01*
X82219047Y-45448571D01*
X82195238Y-45400952D01*
X82195238Y-44996190D01*
X81695238Y-45496190D02*
X81980952Y-45496190D01*
X81838095Y-45496190D02*
X81838095Y-44996190D01*
X81885714Y-45067619D01*
X81933333Y-45115238D01*
X81980952Y-45139047D01*
%TO.C,C9*%
X89883333Y-53248571D02*
X89907142Y-53272380D01*
X89978571Y-53296190D01*
X90026190Y-53296190D01*
X90097619Y-53272380D01*
X90145238Y-53224761D01*
X90169047Y-53177142D01*
X90192857Y-53081904D01*
X90192857Y-53010476D01*
X90169047Y-52915238D01*
X90145238Y-52867619D01*
X90097619Y-52820000D01*
X90026190Y-52796190D01*
X89978571Y-52796190D01*
X89907142Y-52820000D01*
X89883333Y-52843809D01*
X89645238Y-53296190D02*
X89550000Y-53296190D01*
X89502380Y-53272380D01*
X89478571Y-53248571D01*
X89430952Y-53177142D01*
X89407142Y-53081904D01*
X89407142Y-52891428D01*
X89430952Y-52843809D01*
X89454761Y-52820000D01*
X89502380Y-52796190D01*
X89597619Y-52796190D01*
X89645238Y-52820000D01*
X89669047Y-52843809D01*
X89692857Y-52891428D01*
X89692857Y-53010476D01*
X89669047Y-53058095D01*
X89645238Y-53081904D01*
X89597619Y-53105714D01*
X89502380Y-53105714D01*
X89454761Y-53081904D01*
X89430952Y-53058095D01*
X89407142Y-53010476D01*
%TO.C,C10*%
X86071428Y-50098571D02*
X86095238Y-50122380D01*
X86166666Y-50146190D01*
X86214285Y-50146190D01*
X86285714Y-50122380D01*
X86333333Y-50074761D01*
X86357142Y-50027142D01*
X86380952Y-49931904D01*
X86380952Y-49860476D01*
X86357142Y-49765238D01*
X86333333Y-49717619D01*
X86285714Y-49670000D01*
X86214285Y-49646190D01*
X86166666Y-49646190D01*
X86095238Y-49670000D01*
X86071428Y-49693809D01*
X85595238Y-50146190D02*
X85880952Y-50146190D01*
X85738095Y-50146190D02*
X85738095Y-49646190D01*
X85785714Y-49717619D01*
X85833333Y-49765238D01*
X85880952Y-49789047D01*
X85285714Y-49646190D02*
X85238095Y-49646190D01*
X85190476Y-49670000D01*
X85166666Y-49693809D01*
X85142857Y-49741428D01*
X85119047Y-49836666D01*
X85119047Y-49955714D01*
X85142857Y-50050952D01*
X85166666Y-50098571D01*
X85190476Y-50122380D01*
X85238095Y-50146190D01*
X85285714Y-50146190D01*
X85333333Y-50122380D01*
X85357142Y-50098571D01*
X85380952Y-50050952D01*
X85404761Y-49955714D01*
X85404761Y-49836666D01*
X85380952Y-49741428D01*
X85357142Y-49693809D01*
X85333333Y-49670000D01*
X85285714Y-49646190D01*
%TO.C,C2*%
X89883333Y-53908571D02*
X89907142Y-53932380D01*
X89978571Y-53956190D01*
X90026190Y-53956190D01*
X90097619Y-53932380D01*
X90145238Y-53884761D01*
X90169047Y-53837142D01*
X90192857Y-53741904D01*
X90192857Y-53670476D01*
X90169047Y-53575238D01*
X90145238Y-53527619D01*
X90097619Y-53480000D01*
X90026190Y-53456190D01*
X89978571Y-53456190D01*
X89907142Y-53480000D01*
X89883333Y-53503809D01*
X89692857Y-53503809D02*
X89669047Y-53480000D01*
X89621428Y-53456190D01*
X89502380Y-53456190D01*
X89454761Y-53480000D01*
X89430952Y-53503809D01*
X89407142Y-53551428D01*
X89407142Y-53599047D01*
X89430952Y-53670476D01*
X89716666Y-53956190D01*
X89407142Y-53956190D01*
%TO.C,C11*%
X86591428Y-53648571D02*
X86615238Y-53672380D01*
X86686666Y-53696190D01*
X86734285Y-53696190D01*
X86805714Y-53672380D01*
X86853333Y-53624761D01*
X86877142Y-53577142D01*
X86900952Y-53481904D01*
X86900952Y-53410476D01*
X86877142Y-53315238D01*
X86853333Y-53267619D01*
X86805714Y-53220000D01*
X86734285Y-53196190D01*
X86686666Y-53196190D01*
X86615238Y-53220000D01*
X86591428Y-53243809D01*
X86115238Y-53696190D02*
X86400952Y-53696190D01*
X86258095Y-53696190D02*
X86258095Y-53196190D01*
X86305714Y-53267619D01*
X86353333Y-53315238D01*
X86400952Y-53339047D01*
X85639047Y-53696190D02*
X85924761Y-53696190D01*
X85781904Y-53696190D02*
X85781904Y-53196190D01*
X85829523Y-53267619D01*
X85877142Y-53315238D01*
X85924761Y-53339047D01*
D12*
%TO.C,C1*%
X80240000Y-46607836D02*
X80240000Y-46392164D01*
X80960000Y-46607836D02*
X80960000Y-46392164D01*
%TO.C,JP1*%
X82250000Y-57870000D02*
X82250000Y-56470000D01*
X81550000Y-55770000D02*
X80950000Y-55770000D01*
X80250000Y-56470000D02*
X80250000Y-57870000D01*
X80950000Y-58570000D02*
X81550000Y-58570000D01*
X81550000Y-58570000D02*
G75*
G03*
X82250000Y-57870000I1J699999D01*
G01*
X80950000Y-55770000D02*
G75*
G03*
X80250000Y-56470000I0J-700000D01*
G01*
X82250000Y-56470000D02*
G75*
G03*
X81550000Y-55770000I-700000J0D01*
G01*
X80250000Y-57870000D02*
G75*
G03*
X80950000Y-58570000I699999J-1D01*
G01*
%TO.C,C6*%
X82042164Y-47810000D02*
X82257836Y-47810000D01*
X82042164Y-48530000D02*
X82257836Y-48530000D01*
%TO.C,U1*%
X82780000Y-45890000D02*
X82780000Y-46500000D01*
X81520000Y-45890000D02*
X81520000Y-47110000D01*
%TO.C,C2*%
X89607836Y-55140000D02*
X89392164Y-55140000D01*
X89607836Y-55860000D02*
X89392164Y-55860000D01*
%TD*%
%LPC*%
D13*
%TO.C,SW1*%
X81750000Y-65700001D03*
X81750000Y-63699999D03*
%TD*%
%TO.C,SW2*%
X92250000Y-63699999D03*
X92250000Y-65700001D03*
%TD*%
D14*
%TO.C,J1*%
X84750000Y-42245000D03*
X89250000Y-42245000D03*
%TD*%
D15*
%TO.C,C1*%
X80600000Y-46980000D03*
X80600000Y-46020000D03*
%TD*%
D16*
%TO.C,C8*%
X88620000Y-60500000D03*
X87980000Y-60500000D03*
%TD*%
D17*
%TO.C,JP1*%
X81250000Y-57820000D03*
D18*
X81250000Y-56520000D03*
%TD*%
D19*
%TO.C,C6*%
X81670000Y-48170000D03*
X82630000Y-48170000D03*
%TD*%
D20*
%TO.C,C15*%
X85960000Y-54200000D03*
X86600000Y-54200000D03*
%TD*%
D21*
%TO.C,U1*%
X82475000Y-47040000D03*
D22*
X81825000Y-47040000D03*
D23*
X81825000Y-45960000D03*
D24*
X82475000Y-45960000D03*
D25*
X82150000Y-46500000D03*
%TD*%
D16*
%TO.C,C9*%
X89620000Y-54500000D03*
X88980000Y-54500000D03*
%TD*%
D26*
%TO.C,C10*%
X85750000Y-49140000D03*
X85750000Y-48500000D03*
%TD*%
D27*
%TO.C,C2*%
X89980000Y-55500000D03*
X89020000Y-55500000D03*
%TD*%
D20*
%TO.C,C11*%
X85960000Y-55050000D03*
X86600000Y-55050000D03*
%TD*%
M02*
