M48
; DRILL file {KiCad (6.0.5-0)} date Tuesday, June 14, 2022 at 09:44:01 pm
; FORMAT={-:-/ absolute / metric / decimal}
; #@! TF.CreationDate,2022-06-14T21:44:01-04:00
; #@! TF.GenerationSoftware,Kicad,Pcbnew,(6.0.5-0)
; #@! TF.FileFunction,Plated,1,4,PTH
FMAT,2
METRIC
; #@! TA.AperFunction,Plated,PTH,ViaDrill
T1C0.350
; #@! TA.AperFunction,Plated,PTH,ComponentDrill
T2C0.350
%
G90
G05
T1
X80.4Y-55.6
X80.44Y-48.48
X80.75Y-44.17
X80.75Y-45.17
X80.97Y-47.72
X81.0Y-60.9
X81.25Y-57.77
X81.54Y-59.08
X81.68Y-54.18
X81.7Y-53.1
X81.7Y-55.05
X81.75Y-44.17
X81.75Y-45.17
X82.15Y-60.4
X82.75Y-55.8
X82.85Y-63.77
X83.16Y-54.56
X83.29Y-47.57
X84.0Y-49.5
X84.0Y-50.5
X84.0Y-51.5
X84.15Y-47.57
X84.891Y-53.301
X84.9Y-55.55
X85.15Y-49.13
X85.6Y-66.4
X85.95Y-55.75
X86.08Y-47.87
X86.2Y-62.8
X86.9Y-55.75
X87.3Y-53.65
X87.3Y-60.5
X88.0Y-66.2
X88.089Y-49.311
X88.1Y-47.6
X89.0Y-53.7
X89.8Y-51.7
X90.45Y-54.47
X91.25Y-46.17
X91.347Y-56.006
X92.05Y-54.77
X92.05Y-56.57
X92.05Y-57.8
X92.05Y-59.6
X92.15Y-52.97
X92.25Y-44.17
X92.25Y-45.17
X92.25Y-46.17
X92.75Y-60.87
X92.85Y-67.17
X93.05Y-50.67
X93.05Y-52.97
X93.25Y-44.17
X93.25Y-45.17
X93.25Y-46.17
T2
X85.825Y-56.725
X85.825Y-58.0
X85.825Y-59.275
X87.1Y-56.725
X87.1Y-58.0
X87.1Y-59.275
X88.375Y-56.725
X88.375Y-58.0
X88.375Y-59.275
T0
M30
