%TF.GenerationSoftware,KiCad,Pcbnew,(6.0.5-0)*%
%TF.CreationDate,2022-06-14T21:43:59-04:00*%
%TF.ProjectId,pico_ducky_pcb,7069636f-5f64-4756-936b-795f7063622e,rev?*%
%TF.SameCoordinates,Original*%
%TF.FileFunction,Copper,L3,Inr*%
%TF.FilePolarity,Positive*%
%FSLAX46Y46*%
G04 Gerber Fmt 4.6, Leading zero omitted, Abs format (unit mm)*
G04 Created by KiCad (PCBNEW (6.0.5-0)) date 2022-06-14 21:43:59*
%MOMM*%
%LPD*%
G01*
G04 APERTURE LIST*
%TA.AperFunction,ComponentPad*%
%ADD10C,0.600000*%
%TD*%
%TA.AperFunction,ViaPad*%
%ADD11C,0.600000*%
%TD*%
G04 APERTURE END LIST*
D10*
%TO.N,GND*%
%TO.C,U3*%
X85825000Y-56725000D03*
X87100000Y-59275000D03*
X88375000Y-58000000D03*
X87100000Y-58000000D03*
X88375000Y-56725000D03*
X85825000Y-59275000D03*
X88375000Y-59275000D03*
X87100000Y-56725000D03*
X85825000Y-58000000D03*
%TD*%
D11*
%TO.N,GND*%
X92050000Y-56570000D03*
X85950000Y-55750000D03*
X92250000Y-45170000D03*
X93250000Y-44170000D03*
X84000000Y-51500000D03*
X82150000Y-60400000D03*
X85150000Y-49130000D03*
X92150000Y-52970000D03*
X82850000Y-63770000D03*
X86200000Y-62800000D03*
X84000000Y-50500000D03*
X92250000Y-44170000D03*
X81700000Y-53100000D03*
X81680000Y-54180000D03*
X92250000Y-46170000D03*
X93250000Y-46170000D03*
X88000000Y-66200000D03*
X90450000Y-54470000D03*
X84000000Y-49500000D03*
X92850000Y-67170000D03*
X80970000Y-47720000D03*
X93250000Y-45170000D03*
X81250000Y-57770000D03*
X92050000Y-57800000D03*
X85600000Y-66400000D03*
X91250000Y-46170000D03*
X80440000Y-48480000D03*
%TO.N,+5V*%
X80750000Y-44170000D03*
X80750000Y-45170000D03*
X81750000Y-45170000D03*
X81750000Y-44170000D03*
%TO.N,+3V3*%
X89800000Y-51700000D03*
X84150000Y-47570000D03*
X92750000Y-60870000D03*
X92050000Y-59600000D03*
X83290000Y-47570000D03*
X93050000Y-50670000D03*
X87300000Y-53650000D03*
X87300000Y-60500000D03*
X81700000Y-55050000D03*
X81540000Y-59080000D03*
X81000000Y-60900000D03*
X82750000Y-55800000D03*
X86080000Y-47870000D03*
X92050000Y-54770000D03*
%TO.N,+1V1*%
X89000000Y-53700000D03*
X86900000Y-55750000D03*
%TO.N,/RGB_DI*%
X93050000Y-52970000D03*
X91346675Y-56005695D03*
%TO.N,/QSPI_CS*%
X80400000Y-55600000D03*
X83160000Y-54560000D03*
%TO.N,/USB_+*%
X88100000Y-47600000D03*
X88089477Y-49310523D03*
%TO.N,/QSPI_SD1*%
X84890723Y-53300980D03*
X84900000Y-55550000D03*
%TD*%
%TA.AperFunction,Conductor*%
%TO.N,+3V3*%
G36*
X93841621Y-40120502D02*
G01*
X93888114Y-40174158D01*
X93899500Y-40226500D01*
X93899500Y-44109622D01*
X93880670Y-44173752D01*
X93898461Y-44214229D01*
X93899500Y-44230378D01*
X93899500Y-45109622D01*
X93880670Y-45173752D01*
X93898461Y-45214229D01*
X93899500Y-45230378D01*
X93899500Y-46109622D01*
X93880670Y-46173752D01*
X93898461Y-46214229D01*
X93899500Y-46230378D01*
X93899500Y-69773500D01*
X93879498Y-69841621D01*
X93825842Y-69888114D01*
X93773500Y-69899500D01*
X91226500Y-69899500D01*
X91158379Y-69879498D01*
X91111886Y-69825842D01*
X91100500Y-69773500D01*
X91100500Y-69279453D01*
X91120502Y-69211332D01*
X91128740Y-69204194D01*
X91109750Y-69180281D01*
X91100500Y-69132895D01*
X91100500Y-68817779D01*
X91120502Y-68749658D01*
X91174158Y-68703165D01*
X91244432Y-68693061D01*
X91309012Y-68722555D01*
X91346333Y-68778843D01*
X91368750Y-68847835D01*
X91372053Y-68853557D01*
X91372054Y-68853558D01*
X91427027Y-68948774D01*
X91443765Y-69017769D01*
X91420544Y-69084861D01*
X91407004Y-69100868D01*
X91360574Y-69147298D01*
X91349252Y-69169519D01*
X91338767Y-69190097D01*
X91324749Y-69204940D01*
X91340355Y-69225480D01*
X91345905Y-69237188D01*
X91348739Y-69255081D01*
X91394919Y-69301261D01*
X91409919Y-69303637D01*
X91409920Y-69303637D01*
X91420977Y-69305388D01*
X91459424Y-69311477D01*
X91477205Y-69302417D01*
X91477206Y-69302417D01*
X91482165Y-69299890D01*
X91502702Y-69289426D01*
X91547333Y-69244795D01*
X91609645Y-69210769D01*
X91680460Y-69215834D01*
X91710488Y-69231953D01*
X91717065Y-69236732D01*
X91717073Y-69236737D01*
X91722407Y-69240612D01*
X91728434Y-69243295D01*
X91728435Y-69243296D01*
X91865806Y-69304457D01*
X91885733Y-69313329D01*
X91973171Y-69331914D01*
X92054152Y-69349128D01*
X92054156Y-69349128D01*
X92060609Y-69350500D01*
X92239391Y-69350500D01*
X92245844Y-69349128D01*
X92245848Y-69349128D01*
X92326829Y-69331914D01*
X92414267Y-69313329D01*
X92434194Y-69304457D01*
X92571563Y-69243297D01*
X92571565Y-69243296D01*
X92577593Y-69240612D01*
X92582931Y-69236734D01*
X92582934Y-69236732D01*
X92589511Y-69231953D01*
X92656379Y-69208095D01*
X92725531Y-69224177D01*
X92752666Y-69244795D01*
X92797298Y-69289427D01*
X92840577Y-69311478D01*
X92905082Y-69301261D01*
X92951261Y-69255082D01*
X92961478Y-69190577D01*
X92939427Y-69147298D01*
X92892997Y-69100868D01*
X92858971Y-69038556D01*
X92864036Y-68967741D01*
X92872973Y-68948774D01*
X92931250Y-68847835D01*
X92978256Y-68703165D01*
X92984457Y-68684082D01*
X92984457Y-68684080D01*
X92986497Y-68677803D01*
X92989597Y-68648314D01*
X93004495Y-68506565D01*
X93005185Y-68500000D01*
X92995821Y-68410905D01*
X92987187Y-68328761D01*
X92987187Y-68328760D01*
X92986497Y-68322197D01*
X92980196Y-68302803D01*
X92946497Y-68199089D01*
X92931250Y-68152165D01*
X92927663Y-68145951D01*
X92875696Y-68055943D01*
X92872973Y-68051225D01*
X92856235Y-67982232D01*
X92879455Y-67915140D01*
X92892997Y-67899132D01*
X92939427Y-67852702D01*
X92961478Y-67809423D01*
X92951261Y-67744918D01*
X92937149Y-67730806D01*
X92931363Y-67719451D01*
X92918258Y-67649674D01*
X92944957Y-67583889D01*
X92986426Y-67549979D01*
X93079510Y-67502550D01*
X93079509Y-67502550D01*
X93088342Y-67498050D01*
X93178050Y-67408342D01*
X93235646Y-67295304D01*
X93255492Y-67170000D01*
X93253941Y-67160207D01*
X93237197Y-67054487D01*
X93237196Y-67054485D01*
X93235646Y-67044696D01*
X93178050Y-66931658D01*
X93088342Y-66841950D01*
X92975304Y-66784354D01*
X92965515Y-66782804D01*
X92965513Y-66782803D01*
X92859793Y-66766059D01*
X92850000Y-66764508D01*
X92840207Y-66766059D01*
X92734487Y-66782803D01*
X92734485Y-66782804D01*
X92724696Y-66784354D01*
X92611658Y-66841950D01*
X92521950Y-66931658D01*
X92464354Y-67044696D01*
X92462804Y-67054485D01*
X92462803Y-67054487D01*
X92446059Y-67160207D01*
X92444508Y-67170000D01*
X92464354Y-67295304D01*
X92521950Y-67408342D01*
X92611658Y-67498050D01*
X92620489Y-67502550D01*
X92620491Y-67502551D01*
X92624801Y-67504747D01*
X92676415Y-67553496D01*
X92693480Y-67622412D01*
X92670578Y-67689613D01*
X92614979Y-67733764D01*
X92544337Y-67740848D01*
X92516349Y-67732121D01*
X92435007Y-67695905D01*
X92420298Y-67689356D01*
X92420297Y-67689356D01*
X92414267Y-67686671D01*
X92326829Y-67668085D01*
X92245848Y-67650872D01*
X92245844Y-67650872D01*
X92239391Y-67649500D01*
X92060609Y-67649500D01*
X92054156Y-67650872D01*
X92054152Y-67650872D01*
X91973171Y-67668085D01*
X91885733Y-67686671D01*
X91879703Y-67689356D01*
X91879702Y-67689356D01*
X91728438Y-67756703D01*
X91728436Y-67756704D01*
X91722408Y-67759388D01*
X91717067Y-67763268D01*
X91717066Y-67763269D01*
X91710490Y-67768047D01*
X91643623Y-67791905D01*
X91574471Y-67775825D01*
X91547334Y-67755206D01*
X91502702Y-67710574D01*
X91482165Y-67700110D01*
X91477206Y-67697583D01*
X91477205Y-67697583D01*
X91459424Y-67688523D01*
X91424082Y-67694120D01*
X91412812Y-67695905D01*
X91412811Y-67695905D01*
X91394919Y-67698739D01*
X91348739Y-67744919D01*
X91346363Y-67759921D01*
X91337087Y-67776908D01*
X91323544Y-67790450D01*
X91338767Y-67809903D01*
X91360574Y-67852702D01*
X91407003Y-67899131D01*
X91441029Y-67961443D01*
X91435964Y-68032258D01*
X91427027Y-68051226D01*
X91372338Y-68145951D01*
X91368750Y-68152165D01*
X91353503Y-68199089D01*
X91346333Y-68221157D01*
X91306259Y-68279763D01*
X91240863Y-68307400D01*
X91170906Y-68295293D01*
X91118600Y-68247287D01*
X91100500Y-68182221D01*
X91100500Y-67867105D01*
X91120502Y-67798984D01*
X91130638Y-67790201D01*
X91108444Y-67760552D01*
X91100500Y-67716521D01*
X91100500Y-66967346D01*
X91090662Y-66953805D01*
X91085490Y-66937888D01*
X91071950Y-66928050D01*
X91062112Y-66914510D01*
X91046195Y-66909338D01*
X91032654Y-66899500D01*
X85971082Y-66899500D01*
X85902961Y-66879498D01*
X85856468Y-66825842D01*
X85846364Y-66755568D01*
X85875858Y-66690988D01*
X85881987Y-66684405D01*
X85928050Y-66638342D01*
X85985646Y-66525304D01*
X86005492Y-66400000D01*
X86003941Y-66390207D01*
X85987197Y-66284487D01*
X85987196Y-66284485D01*
X85985646Y-66274696D01*
X85947586Y-66200000D01*
X87594508Y-66200000D01*
X87596059Y-66209793D01*
X87606339Y-66274696D01*
X87614354Y-66325304D01*
X87671950Y-66438342D01*
X87761658Y-66528050D01*
X87874696Y-66585646D01*
X87884485Y-66587196D01*
X87884487Y-66587197D01*
X87990207Y-66603941D01*
X88000000Y-66605492D01*
X88009793Y-66603941D01*
X88115513Y-66587197D01*
X88115515Y-66587196D01*
X88125304Y-66585646D01*
X88238342Y-66528050D01*
X88328050Y-66438342D01*
X88385646Y-66325304D01*
X88393662Y-66274696D01*
X88403941Y-66209793D01*
X88405492Y-66200000D01*
X88398309Y-66154647D01*
X88387197Y-66084487D01*
X88387196Y-66084485D01*
X88385646Y-66074696D01*
X88328050Y-65961658D01*
X88238342Y-65871950D01*
X88125304Y-65814354D01*
X88115515Y-65812804D01*
X88115513Y-65812803D01*
X88009793Y-65796059D01*
X88000000Y-65794508D01*
X87990207Y-65796059D01*
X87884487Y-65812803D01*
X87884485Y-65812804D01*
X87874696Y-65814354D01*
X87761658Y-65871950D01*
X87671950Y-65961658D01*
X87614354Y-66074696D01*
X87612804Y-66084485D01*
X87612803Y-66084487D01*
X87601691Y-66154647D01*
X87594508Y-66200000D01*
X85947586Y-66200000D01*
X85928050Y-66161658D01*
X85838342Y-66071950D01*
X85725304Y-66014354D01*
X85715515Y-66012804D01*
X85715513Y-66012803D01*
X85609793Y-65996059D01*
X85600000Y-65994508D01*
X85590207Y-65996059D01*
X85484487Y-66012803D01*
X85484485Y-66012804D01*
X85474696Y-66014354D01*
X85361658Y-66071950D01*
X85271950Y-66161658D01*
X85214354Y-66274696D01*
X85212804Y-66284485D01*
X85212803Y-66284487D01*
X85196059Y-66390207D01*
X85194508Y-66400000D01*
X85214354Y-66525304D01*
X85271950Y-66638342D01*
X85318013Y-66684405D01*
X85352039Y-66746717D01*
X85346974Y-66817532D01*
X85304427Y-66874368D01*
X85237907Y-66899179D01*
X85228918Y-66899500D01*
X82967346Y-66899500D01*
X82953805Y-66909338D01*
X82937888Y-66914510D01*
X82928050Y-66928050D01*
X82914510Y-66937888D01*
X82909338Y-66953805D01*
X82899500Y-66967346D01*
X82899500Y-69773500D01*
X82879498Y-69841621D01*
X82825842Y-69888114D01*
X82773500Y-69899500D01*
X80226500Y-69899500D01*
X80158379Y-69879498D01*
X80111886Y-69825842D01*
X80100500Y-69773500D01*
X80100500Y-68488753D01*
X80694514Y-68488753D01*
X80695617Y-68499996D01*
X80695616Y-68500000D01*
X80695617Y-68500000D01*
X80712039Y-68667486D01*
X80714262Y-68674168D01*
X80714262Y-68674169D01*
X80753811Y-68793058D01*
X80768726Y-68837896D01*
X80812317Y-68909873D01*
X80830495Y-68978500D01*
X80808685Y-69046063D01*
X80793635Y-69064237D01*
X80757715Y-69100157D01*
X80735664Y-69143435D01*
X80741722Y-69181689D01*
X80742759Y-69188231D01*
X80745880Y-69207940D01*
X80792060Y-69254120D01*
X80807060Y-69256496D01*
X80807061Y-69256496D01*
X80820322Y-69258596D01*
X80856565Y-69264336D01*
X80874346Y-69255276D01*
X80874347Y-69255276D01*
X80879306Y-69252749D01*
X80899843Y-69242285D01*
X80935213Y-69206915D01*
X80997525Y-69172889D01*
X81068340Y-69177954D01*
X81093301Y-69190578D01*
X81130891Y-69215177D01*
X81130895Y-69215179D01*
X81136789Y-69219036D01*
X81305116Y-69281636D01*
X81312097Y-69282567D01*
X81312099Y-69282568D01*
X81476149Y-69304457D01*
X81476153Y-69304457D01*
X81483130Y-69305388D01*
X81490142Y-69304750D01*
X81490146Y-69304750D01*
X81654960Y-69289751D01*
X81654961Y-69289751D01*
X81661981Y-69289112D01*
X81832782Y-69233615D01*
X81846429Y-69225480D01*
X81910613Y-69187219D01*
X81979368Y-69169519D01*
X82046778Y-69191801D01*
X82064225Y-69206353D01*
X82100157Y-69242285D01*
X82143435Y-69264337D01*
X82158436Y-69261961D01*
X82188231Y-69257242D01*
X82207941Y-69254120D01*
X82254120Y-69207941D01*
X82264337Y-69143435D01*
X82257443Y-69129906D01*
X82257443Y-69129904D01*
X82246789Y-69108996D01*
X82246788Y-69108995D01*
X82242285Y-69100157D01*
X82207122Y-69064994D01*
X82173096Y-69002682D01*
X82178161Y-68931867D01*
X82191270Y-68906170D01*
X82192949Y-68903644D01*
X82216483Y-68868222D01*
X82218985Y-68861636D01*
X82277757Y-68706919D01*
X82277758Y-68706914D01*
X82280257Y-68700336D01*
X82281237Y-68693364D01*
X82304700Y-68526416D01*
X82304700Y-68526411D01*
X82305251Y-68522493D01*
X82305403Y-68511576D01*
X82305510Y-68503963D01*
X82305510Y-68503958D01*
X82305565Y-68500000D01*
X82285546Y-68321528D01*
X82279427Y-68303955D01*
X82257411Y-68240736D01*
X82226485Y-68151927D01*
X82188729Y-68091505D01*
X82169593Y-68023136D01*
X82190458Y-67955274D01*
X82206488Y-67935640D01*
X82242285Y-67899843D01*
X82249357Y-67885965D01*
X82256112Y-67872707D01*
X82264337Y-67856565D01*
X82261215Y-67836854D01*
X82257242Y-67811769D01*
X82254120Y-67792059D01*
X82207941Y-67745880D01*
X82188231Y-67742758D01*
X82163152Y-67738786D01*
X82143435Y-67735663D01*
X82129906Y-67742557D01*
X82129904Y-67742557D01*
X82108996Y-67753211D01*
X82100157Y-67757715D01*
X82064470Y-67793402D01*
X82002158Y-67827428D01*
X81931343Y-67822363D01*
X81907862Y-67810693D01*
X81880910Y-67793589D01*
X81853136Y-67775963D01*
X81799048Y-67756703D01*
X81690586Y-67718081D01*
X81690581Y-67718080D01*
X81683951Y-67715719D01*
X81676965Y-67714886D01*
X81676961Y-67714885D01*
X81531856Y-67697583D01*
X81505624Y-67694455D01*
X81498621Y-67695191D01*
X81498620Y-67695191D01*
X81334025Y-67712490D01*
X81334021Y-67712491D01*
X81327017Y-67713227D01*
X81320346Y-67715498D01*
X81163677Y-67768832D01*
X81163674Y-67768833D01*
X81157007Y-67771103D01*
X81151004Y-67774796D01*
X81151002Y-67774797D01*
X81090833Y-67811812D01*
X81022332Y-67830470D01*
X80954618Y-67809131D01*
X80935717Y-67793589D01*
X80899843Y-67757715D01*
X80879306Y-67747251D01*
X80874347Y-67744724D01*
X80874346Y-67744724D01*
X80856565Y-67735664D01*
X80823833Y-67740848D01*
X80809953Y-67743046D01*
X80809952Y-67743046D01*
X80792060Y-67745880D01*
X80745880Y-67792060D01*
X80743504Y-67807060D01*
X80743504Y-67807061D01*
X80742752Y-67811812D01*
X80735664Y-67856565D01*
X80757715Y-67899843D01*
X80793259Y-67935387D01*
X80827285Y-67997699D01*
X80822220Y-68068514D01*
X80810075Y-68092737D01*
X80782265Y-68135889D01*
X80782261Y-68135898D01*
X80778446Y-68141817D01*
X80776037Y-68148437D01*
X80776036Y-68148438D01*
X80772392Y-68158450D01*
X80717022Y-68310578D01*
X80694514Y-68488753D01*
X80100500Y-68488753D01*
X80100500Y-65735247D01*
X81189780Y-65735247D01*
X81219895Y-65884603D01*
X81289066Y-66020359D01*
X81392196Y-66132512D01*
X81399498Y-66137040D01*
X81399500Y-66137041D01*
X81453450Y-66170491D01*
X81521687Y-66212800D01*
X81529936Y-66215196D01*
X81529937Y-66215197D01*
X81605812Y-66237240D01*
X81668000Y-66255307D01*
X81675365Y-66255848D01*
X81676505Y-66255932D01*
X81676516Y-66255932D01*
X81678812Y-66256101D01*
X81788165Y-66256101D01*
X81792410Y-66255519D01*
X81792417Y-66255519D01*
X81892443Y-66241817D01*
X81892446Y-66241816D01*
X81900952Y-66240651D01*
X82040783Y-66180141D01*
X82063608Y-66161658D01*
X82152513Y-66089664D01*
X82152514Y-66089663D01*
X82159191Y-66084256D01*
X82164167Y-66077254D01*
X82164169Y-66077252D01*
X82242475Y-65967064D01*
X82247451Y-65960062D01*
X82299062Y-65816708D01*
X82300579Y-65796059D01*
X82305044Y-65735247D01*
X91689780Y-65735247D01*
X91719895Y-65884603D01*
X91789066Y-66020359D01*
X91892196Y-66132512D01*
X91899498Y-66137040D01*
X91899500Y-66137041D01*
X91953450Y-66170491D01*
X92021687Y-66212800D01*
X92029936Y-66215196D01*
X92029937Y-66215197D01*
X92105812Y-66237240D01*
X92168000Y-66255307D01*
X92175365Y-66255848D01*
X92176505Y-66255932D01*
X92176516Y-66255932D01*
X92178812Y-66256101D01*
X92288165Y-66256101D01*
X92292410Y-66255519D01*
X92292417Y-66255519D01*
X92392443Y-66241817D01*
X92392446Y-66241816D01*
X92400952Y-66240651D01*
X92540783Y-66180141D01*
X92563608Y-66161658D01*
X92652513Y-66089664D01*
X92652514Y-66089663D01*
X92659191Y-66084256D01*
X92664167Y-66077254D01*
X92664169Y-66077252D01*
X92742475Y-65967064D01*
X92747451Y-65960062D01*
X92799062Y-65816708D01*
X92800579Y-65796059D01*
X92809591Y-65673318D01*
X92810220Y-65664755D01*
X92780105Y-65515399D01*
X92710934Y-65379643D01*
X92607804Y-65267490D01*
X92600502Y-65262962D01*
X92600500Y-65262961D01*
X92485614Y-65191729D01*
X92485615Y-65191729D01*
X92478313Y-65187202D01*
X92470064Y-65184806D01*
X92470063Y-65184805D01*
X92338340Y-65146537D01*
X92338341Y-65146537D01*
X92332000Y-65144695D01*
X92324635Y-65144154D01*
X92323495Y-65144070D01*
X92323484Y-65144070D01*
X92321188Y-65143901D01*
X92211835Y-65143901D01*
X92207590Y-65144483D01*
X92207583Y-65144483D01*
X92107557Y-65158185D01*
X92107554Y-65158186D01*
X92099048Y-65159351D01*
X91959217Y-65219861D01*
X91840809Y-65315746D01*
X91835833Y-65322748D01*
X91835831Y-65322750D01*
X91757525Y-65432938D01*
X91752549Y-65439940D01*
X91700938Y-65583294D01*
X91689780Y-65735247D01*
X82305044Y-65735247D01*
X82309591Y-65673318D01*
X82310220Y-65664755D01*
X82280105Y-65515399D01*
X82210934Y-65379643D01*
X82107804Y-65267490D01*
X82100502Y-65262962D01*
X82100500Y-65262961D01*
X81985614Y-65191729D01*
X81985615Y-65191729D01*
X81978313Y-65187202D01*
X81970064Y-65184806D01*
X81970063Y-65184805D01*
X81838340Y-65146537D01*
X81838341Y-65146537D01*
X81832000Y-65144695D01*
X81824635Y-65144154D01*
X81823495Y-65144070D01*
X81823484Y-65144070D01*
X81821188Y-65143901D01*
X81711835Y-65143901D01*
X81707590Y-65144483D01*
X81707583Y-65144483D01*
X81607557Y-65158185D01*
X81607554Y-65158186D01*
X81599048Y-65159351D01*
X81459217Y-65219861D01*
X81340809Y-65315746D01*
X81335833Y-65322748D01*
X81335831Y-65322750D01*
X81257525Y-65432938D01*
X81252549Y-65439940D01*
X81200938Y-65583294D01*
X81189780Y-65735247D01*
X80100500Y-65735247D01*
X80100500Y-63735245D01*
X81189780Y-63735245D01*
X81219895Y-63884601D01*
X81289066Y-64020357D01*
X81392196Y-64132510D01*
X81399498Y-64137038D01*
X81399500Y-64137039D01*
X81422251Y-64151145D01*
X81521687Y-64212798D01*
X81529936Y-64215194D01*
X81529937Y-64215195D01*
X81605812Y-64237238D01*
X81668000Y-64255305D01*
X81675365Y-64255846D01*
X81676505Y-64255930D01*
X81676516Y-64255930D01*
X81678812Y-64256099D01*
X81788165Y-64256099D01*
X81792410Y-64255517D01*
X81792417Y-64255517D01*
X81892443Y-64241815D01*
X81892446Y-64241814D01*
X81900952Y-64240649D01*
X82040783Y-64180139D01*
X82069114Y-64157197D01*
X82152513Y-64089662D01*
X82152514Y-64089661D01*
X82159191Y-64084254D01*
X82164167Y-64077252D01*
X82164169Y-64077250D01*
X82242475Y-63967062D01*
X82247451Y-63960060D01*
X82252287Y-63946628D01*
X82294180Y-63889310D01*
X82360413Y-63863740D01*
X82429955Y-63878037D01*
X82483105Y-63932105D01*
X82521950Y-64008342D01*
X82611658Y-64098050D01*
X82724696Y-64155646D01*
X82734485Y-64157196D01*
X82734487Y-64157197D01*
X82840207Y-64173941D01*
X82850000Y-64175492D01*
X82859793Y-64173941D01*
X82965513Y-64157197D01*
X82965515Y-64157196D01*
X82975304Y-64155646D01*
X83088342Y-64098050D01*
X83178050Y-64008342D01*
X83235646Y-63895304D01*
X83249451Y-63808145D01*
X83253941Y-63779793D01*
X83255492Y-63770000D01*
X83251321Y-63743664D01*
X83249988Y-63735245D01*
X91689780Y-63735245D01*
X91719895Y-63884601D01*
X91789066Y-64020357D01*
X91892196Y-64132510D01*
X91899498Y-64137038D01*
X91899500Y-64137039D01*
X91922251Y-64151145D01*
X92021687Y-64212798D01*
X92029936Y-64215194D01*
X92029937Y-64215195D01*
X92105812Y-64237238D01*
X92168000Y-64255305D01*
X92175365Y-64255846D01*
X92176505Y-64255930D01*
X92176516Y-64255930D01*
X92178812Y-64256099D01*
X92288165Y-64256099D01*
X92292410Y-64255517D01*
X92292417Y-64255517D01*
X92392443Y-64241815D01*
X92392446Y-64241814D01*
X92400952Y-64240649D01*
X92540783Y-64180139D01*
X92569114Y-64157197D01*
X92652513Y-64089662D01*
X92652514Y-64089661D01*
X92659191Y-64084254D01*
X92664167Y-64077252D01*
X92664169Y-64077250D01*
X92742475Y-63967062D01*
X92747451Y-63960060D01*
X92799062Y-63816706D01*
X92810220Y-63664753D01*
X92780105Y-63515397D01*
X92710934Y-63379641D01*
X92697019Y-63364508D01*
X92613622Y-63273815D01*
X92607804Y-63267488D01*
X92600502Y-63262960D01*
X92600500Y-63262959D01*
X92485614Y-63191727D01*
X92485615Y-63191727D01*
X92478313Y-63187200D01*
X92470064Y-63184804D01*
X92470063Y-63184803D01*
X92338340Y-63146535D01*
X92338341Y-63146535D01*
X92332000Y-63144693D01*
X92324635Y-63144152D01*
X92323495Y-63144068D01*
X92323484Y-63144068D01*
X92321188Y-63143899D01*
X92211835Y-63143899D01*
X92207590Y-63144481D01*
X92207583Y-63144481D01*
X92107557Y-63158183D01*
X92107554Y-63158184D01*
X92099048Y-63159349D01*
X91959217Y-63219859D01*
X91840809Y-63315744D01*
X91835833Y-63322746D01*
X91835831Y-63322748D01*
X91788852Y-63388855D01*
X91752549Y-63439938D01*
X91728138Y-63507742D01*
X91719528Y-63531658D01*
X91700938Y-63583292D01*
X91689780Y-63735245D01*
X83249988Y-63735245D01*
X83237197Y-63654487D01*
X83237196Y-63654485D01*
X83235646Y-63644696D01*
X83178050Y-63531658D01*
X83088342Y-63441950D01*
X82975304Y-63384354D01*
X82965515Y-63382804D01*
X82965513Y-63382803D01*
X82859793Y-63366059D01*
X82850000Y-63364508D01*
X82840207Y-63366059D01*
X82734487Y-63382803D01*
X82734485Y-63382804D01*
X82724696Y-63384354D01*
X82611658Y-63441950D01*
X82521950Y-63531658D01*
X82517449Y-63540491D01*
X82517448Y-63540493D01*
X82515029Y-63545240D01*
X82466281Y-63596855D01*
X82397366Y-63613920D01*
X82330164Y-63591019D01*
X82283770Y-63529469D01*
X82281804Y-63523822D01*
X82280105Y-63515397D01*
X82210934Y-63379641D01*
X82197019Y-63364508D01*
X82113622Y-63273815D01*
X82107804Y-63267488D01*
X82100502Y-63262960D01*
X82100500Y-63262959D01*
X81985614Y-63191727D01*
X81985615Y-63191727D01*
X81978313Y-63187200D01*
X81970064Y-63184804D01*
X81970063Y-63184803D01*
X81838340Y-63146535D01*
X81838341Y-63146535D01*
X81832000Y-63144693D01*
X81824635Y-63144152D01*
X81823495Y-63144068D01*
X81823484Y-63144068D01*
X81821188Y-63143899D01*
X81711835Y-63143899D01*
X81707590Y-63144481D01*
X81707583Y-63144481D01*
X81607557Y-63158183D01*
X81607554Y-63158184D01*
X81599048Y-63159349D01*
X81459217Y-63219859D01*
X81340809Y-63315744D01*
X81335833Y-63322746D01*
X81335831Y-63322748D01*
X81288852Y-63388855D01*
X81252549Y-63439938D01*
X81228138Y-63507742D01*
X81219528Y-63531658D01*
X81200938Y-63583292D01*
X81189780Y-63735245D01*
X80100500Y-63735245D01*
X80100500Y-62800000D01*
X85794508Y-62800000D01*
X85814354Y-62925304D01*
X85871950Y-63038342D01*
X85961658Y-63128050D01*
X86074696Y-63185646D01*
X86084485Y-63187196D01*
X86084487Y-63187197D01*
X86190207Y-63203941D01*
X86200000Y-63205492D01*
X86209793Y-63203941D01*
X86315513Y-63187197D01*
X86315515Y-63187196D01*
X86325304Y-63185646D01*
X86438342Y-63128050D01*
X86528050Y-63038342D01*
X86585646Y-62925304D01*
X86605492Y-62800000D01*
X86585646Y-62674696D01*
X86528050Y-62561658D01*
X86438342Y-62471950D01*
X86325304Y-62414354D01*
X86315515Y-62412804D01*
X86315513Y-62412803D01*
X86209793Y-62396059D01*
X86200000Y-62394508D01*
X86190207Y-62396059D01*
X86084487Y-62412803D01*
X86084485Y-62412804D01*
X86074696Y-62414354D01*
X85961658Y-62471950D01*
X85871950Y-62561658D01*
X85814354Y-62674696D01*
X85794508Y-62800000D01*
X80100500Y-62800000D01*
X80100500Y-60400000D01*
X81744508Y-60400000D01*
X81764354Y-60525304D01*
X81821950Y-60638342D01*
X81911658Y-60728050D01*
X82024696Y-60785646D01*
X82034485Y-60787196D01*
X82034487Y-60787197D01*
X82140207Y-60803941D01*
X82150000Y-60805492D01*
X82159793Y-60803941D01*
X82265513Y-60787197D01*
X82265515Y-60787196D01*
X82275304Y-60785646D01*
X82388342Y-60728050D01*
X82478050Y-60638342D01*
X82535646Y-60525304D01*
X82555492Y-60400000D01*
X82535646Y-60274696D01*
X82478050Y-60161658D01*
X82388342Y-60071950D01*
X82275304Y-60014354D01*
X82265515Y-60012804D01*
X82265513Y-60012803D01*
X82159793Y-59996059D01*
X82150000Y-59994508D01*
X82140207Y-59996059D01*
X82034487Y-60012803D01*
X82034485Y-60012804D01*
X82024696Y-60014354D01*
X81911658Y-60071950D01*
X81821950Y-60161658D01*
X81764354Y-60274696D01*
X81744508Y-60400000D01*
X80100500Y-60400000D01*
X80100500Y-59275000D01*
X85419508Y-59275000D01*
X85439354Y-59400304D01*
X85496950Y-59513342D01*
X85586658Y-59603050D01*
X85699696Y-59660646D01*
X85709485Y-59662196D01*
X85709487Y-59662197D01*
X85815207Y-59678941D01*
X85825000Y-59680492D01*
X85834793Y-59678941D01*
X85940513Y-59662197D01*
X85940515Y-59662196D01*
X85950304Y-59660646D01*
X86063342Y-59603050D01*
X86153050Y-59513342D01*
X86210646Y-59400304D01*
X86230492Y-59275000D01*
X86694508Y-59275000D01*
X86714354Y-59400304D01*
X86771950Y-59513342D01*
X86861658Y-59603050D01*
X86974696Y-59660646D01*
X86984485Y-59662196D01*
X86984487Y-59662197D01*
X87090207Y-59678941D01*
X87100000Y-59680492D01*
X87109793Y-59678941D01*
X87215513Y-59662197D01*
X87215515Y-59662196D01*
X87225304Y-59660646D01*
X87338342Y-59603050D01*
X87428050Y-59513342D01*
X87485646Y-59400304D01*
X87505492Y-59275000D01*
X87969508Y-59275000D01*
X87989354Y-59400304D01*
X88046950Y-59513342D01*
X88136658Y-59603050D01*
X88249696Y-59660646D01*
X88259485Y-59662196D01*
X88259487Y-59662197D01*
X88365207Y-59678941D01*
X88375000Y-59680492D01*
X88384793Y-59678941D01*
X88490513Y-59662197D01*
X88490515Y-59662196D01*
X88500304Y-59660646D01*
X88613342Y-59603050D01*
X88703050Y-59513342D01*
X88760646Y-59400304D01*
X88780492Y-59275000D01*
X88760646Y-59149696D01*
X88703050Y-59036658D01*
X88613342Y-58946950D01*
X88500304Y-58889354D01*
X88490515Y-58887804D01*
X88490513Y-58887803D01*
X88384793Y-58871059D01*
X88375000Y-58869508D01*
X88365207Y-58871059D01*
X88259487Y-58887803D01*
X88259485Y-58887804D01*
X88249696Y-58889354D01*
X88136658Y-58946950D01*
X88046950Y-59036658D01*
X87989354Y-59149696D01*
X87969508Y-59275000D01*
X87505492Y-59275000D01*
X87485646Y-59149696D01*
X87428050Y-59036658D01*
X87338342Y-58946950D01*
X87225304Y-58889354D01*
X87215515Y-58887804D01*
X87215513Y-58887803D01*
X87109793Y-58871059D01*
X87100000Y-58869508D01*
X87090207Y-58871059D01*
X86984487Y-58887803D01*
X86984485Y-58887804D01*
X86974696Y-58889354D01*
X86861658Y-58946950D01*
X86771950Y-59036658D01*
X86714354Y-59149696D01*
X86694508Y-59275000D01*
X86230492Y-59275000D01*
X86210646Y-59149696D01*
X86153050Y-59036658D01*
X86063342Y-58946950D01*
X85950304Y-58889354D01*
X85940515Y-58887804D01*
X85940513Y-58887803D01*
X85834793Y-58871059D01*
X85825000Y-58869508D01*
X85815207Y-58871059D01*
X85709487Y-58887803D01*
X85709485Y-58887804D01*
X85699696Y-58889354D01*
X85586658Y-58946950D01*
X85496950Y-59036658D01*
X85439354Y-59149696D01*
X85419508Y-59275000D01*
X80100500Y-59275000D01*
X80100500Y-57770000D01*
X80844508Y-57770000D01*
X80846059Y-57779793D01*
X80850811Y-57809793D01*
X80864354Y-57895304D01*
X80921950Y-58008342D01*
X81011658Y-58098050D01*
X81124696Y-58155646D01*
X81134485Y-58157196D01*
X81134487Y-58157197D01*
X81240207Y-58173941D01*
X81250000Y-58175492D01*
X81259793Y-58173941D01*
X81365513Y-58157197D01*
X81365515Y-58157196D01*
X81375304Y-58155646D01*
X81488342Y-58098050D01*
X81578050Y-58008342D01*
X81582300Y-58000000D01*
X85419508Y-58000000D01*
X85439354Y-58125304D01*
X85496950Y-58238342D01*
X85586658Y-58328050D01*
X85699696Y-58385646D01*
X85709485Y-58387196D01*
X85709487Y-58387197D01*
X85815207Y-58403941D01*
X85825000Y-58405492D01*
X85834793Y-58403941D01*
X85940513Y-58387197D01*
X85940515Y-58387196D01*
X85950304Y-58385646D01*
X86063342Y-58328050D01*
X86153050Y-58238342D01*
X86210646Y-58125304D01*
X86230492Y-58000000D01*
X86694508Y-58000000D01*
X86714354Y-58125304D01*
X86771950Y-58238342D01*
X86861658Y-58328050D01*
X86974696Y-58385646D01*
X86984485Y-58387196D01*
X86984487Y-58387197D01*
X87090207Y-58403941D01*
X87100000Y-58405492D01*
X87109793Y-58403941D01*
X87215513Y-58387197D01*
X87215515Y-58387196D01*
X87225304Y-58385646D01*
X87338342Y-58328050D01*
X87428050Y-58238342D01*
X87485646Y-58125304D01*
X87505492Y-58000000D01*
X87969508Y-58000000D01*
X87989354Y-58125304D01*
X88046950Y-58238342D01*
X88136658Y-58328050D01*
X88249696Y-58385646D01*
X88259485Y-58387196D01*
X88259487Y-58387197D01*
X88365207Y-58403941D01*
X88375000Y-58405492D01*
X88384793Y-58403941D01*
X88490513Y-58387197D01*
X88490515Y-58387196D01*
X88500304Y-58385646D01*
X88613342Y-58328050D01*
X88703050Y-58238342D01*
X88760646Y-58125304D01*
X88780492Y-58000000D01*
X88778941Y-57990207D01*
X88762197Y-57884487D01*
X88762196Y-57884485D01*
X88760646Y-57874696D01*
X88722586Y-57800000D01*
X91644508Y-57800000D01*
X91646059Y-57809793D01*
X91661002Y-57904137D01*
X91664354Y-57925304D01*
X91721950Y-58038342D01*
X91811658Y-58128050D01*
X91924696Y-58185646D01*
X91934485Y-58187196D01*
X91934487Y-58187197D01*
X92040207Y-58203941D01*
X92050000Y-58205492D01*
X92059793Y-58203941D01*
X92165513Y-58187197D01*
X92165515Y-58187196D01*
X92175304Y-58185646D01*
X92288342Y-58128050D01*
X92378050Y-58038342D01*
X92435646Y-57925304D01*
X92438999Y-57904137D01*
X92453941Y-57809793D01*
X92455492Y-57800000D01*
X92449419Y-57761658D01*
X92437197Y-57684487D01*
X92437196Y-57684485D01*
X92435646Y-57674696D01*
X92378050Y-57561658D01*
X92288342Y-57471950D01*
X92175304Y-57414354D01*
X92165515Y-57412804D01*
X92165513Y-57412803D01*
X92059793Y-57396059D01*
X92050000Y-57394508D01*
X92040207Y-57396059D01*
X91934487Y-57412803D01*
X91934485Y-57412804D01*
X91924696Y-57414354D01*
X91811658Y-57471950D01*
X91721950Y-57561658D01*
X91664354Y-57674696D01*
X91662804Y-57684485D01*
X91662803Y-57684487D01*
X91650581Y-57761658D01*
X91644508Y-57800000D01*
X88722586Y-57800000D01*
X88703050Y-57761658D01*
X88613342Y-57671950D01*
X88500304Y-57614354D01*
X88490515Y-57612804D01*
X88490513Y-57612803D01*
X88384793Y-57596059D01*
X88375000Y-57594508D01*
X88365207Y-57596059D01*
X88259487Y-57612803D01*
X88259485Y-57612804D01*
X88249696Y-57614354D01*
X88136658Y-57671950D01*
X88046950Y-57761658D01*
X87989354Y-57874696D01*
X87987804Y-57884485D01*
X87987803Y-57884487D01*
X87971059Y-57990207D01*
X87969508Y-58000000D01*
X87505492Y-58000000D01*
X87503941Y-57990207D01*
X87487197Y-57884487D01*
X87487196Y-57884485D01*
X87485646Y-57874696D01*
X87428050Y-57761658D01*
X87338342Y-57671950D01*
X87225304Y-57614354D01*
X87215515Y-57612804D01*
X87215513Y-57612803D01*
X87109793Y-57596059D01*
X87100000Y-57594508D01*
X87090207Y-57596059D01*
X86984487Y-57612803D01*
X86984485Y-57612804D01*
X86974696Y-57614354D01*
X86861658Y-57671950D01*
X86771950Y-57761658D01*
X86714354Y-57874696D01*
X86712804Y-57884485D01*
X86712803Y-57884487D01*
X86696059Y-57990207D01*
X86694508Y-58000000D01*
X86230492Y-58000000D01*
X86228941Y-57990207D01*
X86212197Y-57884487D01*
X86212196Y-57884485D01*
X86210646Y-57874696D01*
X86153050Y-57761658D01*
X86063342Y-57671950D01*
X85950304Y-57614354D01*
X85940515Y-57612804D01*
X85940513Y-57612803D01*
X85834793Y-57596059D01*
X85825000Y-57594508D01*
X85815207Y-57596059D01*
X85709487Y-57612803D01*
X85709485Y-57612804D01*
X85699696Y-57614354D01*
X85586658Y-57671950D01*
X85496950Y-57761658D01*
X85439354Y-57874696D01*
X85437804Y-57884485D01*
X85437803Y-57884487D01*
X85421059Y-57990207D01*
X85419508Y-58000000D01*
X81582300Y-58000000D01*
X81635646Y-57895304D01*
X81649190Y-57809793D01*
X81653941Y-57779793D01*
X81655492Y-57770000D01*
X81641073Y-57678961D01*
X81637197Y-57654487D01*
X81637196Y-57654485D01*
X81635646Y-57644696D01*
X81578050Y-57531658D01*
X81488342Y-57441950D01*
X81375304Y-57384354D01*
X81365515Y-57382804D01*
X81365513Y-57382803D01*
X81259793Y-57366059D01*
X81250000Y-57364508D01*
X81240207Y-57366059D01*
X81134487Y-57382803D01*
X81134485Y-57382804D01*
X81124696Y-57384354D01*
X81011658Y-57441950D01*
X80921950Y-57531658D01*
X80864354Y-57644696D01*
X80862804Y-57654485D01*
X80862803Y-57654487D01*
X80858927Y-57678961D01*
X80844508Y-57770000D01*
X80100500Y-57770000D01*
X80100500Y-56725000D01*
X85419508Y-56725000D01*
X85439354Y-56850304D01*
X85496950Y-56963342D01*
X85586658Y-57053050D01*
X85699696Y-57110646D01*
X85709485Y-57112196D01*
X85709487Y-57112197D01*
X85815207Y-57128941D01*
X85825000Y-57130492D01*
X85834793Y-57128941D01*
X85940513Y-57112197D01*
X85940515Y-57112196D01*
X85950304Y-57110646D01*
X86063342Y-57053050D01*
X86153050Y-56963342D01*
X86210646Y-56850304D01*
X86230492Y-56725000D01*
X86210646Y-56599696D01*
X86153050Y-56486658D01*
X86063342Y-56396950D01*
X86020475Y-56375108D01*
X85968860Y-56326359D01*
X85951794Y-56257444D01*
X85974695Y-56190243D01*
X86030293Y-56146091D01*
X86057967Y-56138392D01*
X86065512Y-56137197D01*
X86065513Y-56137197D01*
X86075304Y-56135646D01*
X86188342Y-56078050D01*
X86278050Y-55988342D01*
X86312733Y-55920273D01*
X86361481Y-55868658D01*
X86430396Y-55851592D01*
X86497598Y-55874493D01*
X86537267Y-55920273D01*
X86571950Y-55988342D01*
X86661658Y-56078050D01*
X86774696Y-56135646D01*
X86784485Y-56137196D01*
X86784487Y-56137197D01*
X86849248Y-56147454D01*
X86913401Y-56177867D01*
X86950928Y-56238135D01*
X86949914Y-56309124D01*
X86910681Y-56368296D01*
X86886740Y-56384170D01*
X86861658Y-56396950D01*
X86771950Y-56486658D01*
X86714354Y-56599696D01*
X86694508Y-56725000D01*
X86714354Y-56850304D01*
X86771950Y-56963342D01*
X86861658Y-57053050D01*
X86974696Y-57110646D01*
X86984485Y-57112196D01*
X86984487Y-57112197D01*
X87090207Y-57128941D01*
X87100000Y-57130492D01*
X87109793Y-57128941D01*
X87215513Y-57112197D01*
X87215515Y-57112196D01*
X87225304Y-57110646D01*
X87338342Y-57053050D01*
X87428050Y-56963342D01*
X87485646Y-56850304D01*
X87505492Y-56725000D01*
X87969508Y-56725000D01*
X87989354Y-56850304D01*
X88046950Y-56963342D01*
X88136658Y-57053050D01*
X88249696Y-57110646D01*
X88259485Y-57112196D01*
X88259487Y-57112197D01*
X88365207Y-57128941D01*
X88375000Y-57130492D01*
X88384793Y-57128941D01*
X88490513Y-57112197D01*
X88490515Y-57112196D01*
X88500304Y-57110646D01*
X88613342Y-57053050D01*
X88703050Y-56963342D01*
X88760646Y-56850304D01*
X88780492Y-56725000D01*
X88760646Y-56599696D01*
X88703050Y-56486658D01*
X88613342Y-56396950D01*
X88500304Y-56339354D01*
X88490515Y-56337804D01*
X88490513Y-56337803D01*
X88384793Y-56321059D01*
X88375000Y-56319508D01*
X88365207Y-56321059D01*
X88259487Y-56337803D01*
X88259485Y-56337804D01*
X88249696Y-56339354D01*
X88136658Y-56396950D01*
X88046950Y-56486658D01*
X87989354Y-56599696D01*
X87969508Y-56725000D01*
X87505492Y-56725000D01*
X87485646Y-56599696D01*
X87428050Y-56486658D01*
X87338342Y-56396950D01*
X87225304Y-56339354D01*
X87215515Y-56337804D01*
X87215513Y-56337803D01*
X87150752Y-56327546D01*
X87086599Y-56297133D01*
X87049072Y-56236865D01*
X87050086Y-56165876D01*
X87089319Y-56106704D01*
X87113260Y-56090830D01*
X87113842Y-56090533D01*
X87138342Y-56078050D01*
X87210697Y-56005695D01*
X90941183Y-56005695D01*
X90942734Y-56015487D01*
X90942734Y-56015488D01*
X90953356Y-56082550D01*
X90961029Y-56130999D01*
X91018625Y-56244037D01*
X91108333Y-56333745D01*
X91221371Y-56391341D01*
X91231160Y-56392891D01*
X91231162Y-56392892D01*
X91336882Y-56409636D01*
X91346675Y-56411187D01*
X91471979Y-56391341D01*
X91480816Y-56386838D01*
X91488422Y-56384367D01*
X91559389Y-56382339D01*
X91620187Y-56419001D01*
X91651513Y-56482713D01*
X91651808Y-56523909D01*
X91644508Y-56570000D01*
X91664354Y-56695304D01*
X91721950Y-56808342D01*
X91811658Y-56898050D01*
X91924696Y-56955646D01*
X91934485Y-56957196D01*
X91934487Y-56957197D01*
X92040207Y-56973941D01*
X92050000Y-56975492D01*
X92059793Y-56973941D01*
X92165513Y-56957197D01*
X92165515Y-56957196D01*
X92175304Y-56955646D01*
X92288342Y-56898050D01*
X92378050Y-56808342D01*
X92435646Y-56695304D01*
X92455492Y-56570000D01*
X92435646Y-56444696D01*
X92378050Y-56331658D01*
X92288342Y-56241950D01*
X92175304Y-56184354D01*
X92165515Y-56182804D01*
X92165513Y-56182803D01*
X92059793Y-56166059D01*
X92050000Y-56164508D01*
X91924696Y-56184354D01*
X91915859Y-56188857D01*
X91908253Y-56191328D01*
X91837286Y-56193356D01*
X91776488Y-56156694D01*
X91745162Y-56092982D01*
X91744867Y-56051784D01*
X91750616Y-56015487D01*
X91752167Y-56005695D01*
X91749237Y-55987197D01*
X91733872Y-55890182D01*
X91733871Y-55890180D01*
X91732321Y-55880391D01*
X91674725Y-55767353D01*
X91585017Y-55677645D01*
X91471979Y-55620049D01*
X91462190Y-55618499D01*
X91462188Y-55618498D01*
X91356468Y-55601754D01*
X91346675Y-55600203D01*
X91336882Y-55601754D01*
X91231162Y-55618498D01*
X91231160Y-55618499D01*
X91221371Y-55620049D01*
X91108333Y-55677645D01*
X91018625Y-55767353D01*
X90961029Y-55880391D01*
X90959479Y-55890180D01*
X90959478Y-55890182D01*
X90944113Y-55987197D01*
X90941183Y-56005695D01*
X87210697Y-56005695D01*
X87228050Y-55988342D01*
X87285646Y-55875304D01*
X87305492Y-55750000D01*
X87295143Y-55684656D01*
X87287197Y-55634487D01*
X87287196Y-55634485D01*
X87285646Y-55624696D01*
X87228050Y-55511658D01*
X87138342Y-55421950D01*
X87025304Y-55364354D01*
X87015515Y-55362804D01*
X87015513Y-55362803D01*
X86909793Y-55346059D01*
X86900000Y-55344508D01*
X86890207Y-55346059D01*
X86784487Y-55362803D01*
X86784485Y-55362804D01*
X86774696Y-55364354D01*
X86661658Y-55421950D01*
X86571950Y-55511658D01*
X86552414Y-55550000D01*
X86537267Y-55579727D01*
X86488519Y-55631342D01*
X86419604Y-55648408D01*
X86352402Y-55625507D01*
X86312733Y-55579727D01*
X86297586Y-55550000D01*
X86278050Y-55511658D01*
X86188342Y-55421950D01*
X86075304Y-55364354D01*
X86065515Y-55362804D01*
X86065513Y-55362803D01*
X85959793Y-55346059D01*
X85950000Y-55344508D01*
X85940207Y-55346059D01*
X85834487Y-55362803D01*
X85834485Y-55362804D01*
X85824696Y-55364354D01*
X85711658Y-55421950D01*
X85621950Y-55511658D01*
X85564354Y-55624696D01*
X85562804Y-55634485D01*
X85562803Y-55634487D01*
X85554857Y-55684656D01*
X85544508Y-55750000D01*
X85564354Y-55875304D01*
X85621950Y-55988342D01*
X85711658Y-56078050D01*
X85740964Y-56092982D01*
X85754525Y-56099892D01*
X85806140Y-56148641D01*
X85823206Y-56217556D01*
X85800305Y-56284757D01*
X85744707Y-56328909D01*
X85717033Y-56336608D01*
X85709488Y-56337803D01*
X85709487Y-56337803D01*
X85699696Y-56339354D01*
X85586658Y-56396950D01*
X85496950Y-56486658D01*
X85439354Y-56599696D01*
X85419508Y-56725000D01*
X80100500Y-56725000D01*
X80100500Y-56100840D01*
X80120502Y-56032719D01*
X80174158Y-55986226D01*
X80244432Y-55976122D01*
X80265435Y-55981006D01*
X80265861Y-55981145D01*
X80274696Y-55985646D01*
X80400000Y-56005492D01*
X80409793Y-56003941D01*
X80515513Y-55987197D01*
X80515515Y-55987196D01*
X80525304Y-55985646D01*
X80638342Y-55928050D01*
X80728050Y-55838342D01*
X80785646Y-55725304D01*
X80793195Y-55677645D01*
X80803941Y-55609793D01*
X80805492Y-55600000D01*
X80797573Y-55550000D01*
X84494508Y-55550000D01*
X84496059Y-55559793D01*
X84506339Y-55624696D01*
X84514354Y-55675304D01*
X84571950Y-55788342D01*
X84661658Y-55878050D01*
X84774696Y-55935646D01*
X84784485Y-55937196D01*
X84784487Y-55937197D01*
X84890207Y-55953941D01*
X84900000Y-55955492D01*
X84909793Y-55953941D01*
X85015513Y-55937197D01*
X85015515Y-55937196D01*
X85025304Y-55935646D01*
X85138342Y-55878050D01*
X85228050Y-55788342D01*
X85285646Y-55675304D01*
X85293662Y-55624696D01*
X85303941Y-55559793D01*
X85305492Y-55550000D01*
X85285646Y-55424696D01*
X85228050Y-55311658D01*
X85138342Y-55221950D01*
X85025304Y-55164354D01*
X85015515Y-55162804D01*
X85015513Y-55162803D01*
X84909793Y-55146059D01*
X84900000Y-55144508D01*
X84890207Y-55146059D01*
X84784487Y-55162803D01*
X84784485Y-55162804D01*
X84774696Y-55164354D01*
X84661658Y-55221950D01*
X84571950Y-55311658D01*
X84514354Y-55424696D01*
X84494508Y-55550000D01*
X80797573Y-55550000D01*
X80785646Y-55474696D01*
X80728050Y-55361658D01*
X80638342Y-55271950D01*
X80525304Y-55214354D01*
X80515515Y-55212804D01*
X80515513Y-55212803D01*
X80409793Y-55196059D01*
X80400000Y-55194508D01*
X80274696Y-55214354D01*
X80265861Y-55218855D01*
X80265435Y-55218994D01*
X80194467Y-55221020D01*
X80133670Y-55184357D01*
X80102345Y-55120644D01*
X80100500Y-55099160D01*
X80100500Y-54180000D01*
X81274508Y-54180000D01*
X81294354Y-54305304D01*
X81351950Y-54418342D01*
X81441658Y-54508050D01*
X81554696Y-54565646D01*
X81564485Y-54567196D01*
X81564487Y-54567197D01*
X81670207Y-54583941D01*
X81680000Y-54585492D01*
X81689793Y-54583941D01*
X81795513Y-54567197D01*
X81795515Y-54567196D01*
X81805304Y-54565646D01*
X81816385Y-54560000D01*
X82754508Y-54560000D01*
X82756059Y-54569793D01*
X82761499Y-54604137D01*
X82774354Y-54685304D01*
X82831950Y-54798342D01*
X82921658Y-54888050D01*
X83034696Y-54945646D01*
X83044485Y-54947196D01*
X83044487Y-54947197D01*
X83150207Y-54963941D01*
X83160000Y-54965492D01*
X83169793Y-54963941D01*
X83275513Y-54947197D01*
X83275515Y-54947196D01*
X83285304Y-54945646D01*
X83398342Y-54888050D01*
X83488050Y-54798342D01*
X83545646Y-54685304D01*
X83558502Y-54604137D01*
X83563941Y-54569793D01*
X83565492Y-54560000D01*
X83551238Y-54470000D01*
X90044508Y-54470000D01*
X90046059Y-54479793D01*
X90059657Y-54565646D01*
X90064354Y-54595304D01*
X90121950Y-54708342D01*
X90211658Y-54798050D01*
X90324696Y-54855646D01*
X90334485Y-54857196D01*
X90334487Y-54857197D01*
X90440207Y-54873941D01*
X90450000Y-54875492D01*
X90459793Y-54873941D01*
X90565513Y-54857197D01*
X90565515Y-54857196D01*
X90575304Y-54855646D01*
X90688342Y-54798050D01*
X90778050Y-54708342D01*
X90835646Y-54595304D01*
X90840344Y-54565646D01*
X90853941Y-54479793D01*
X90855492Y-54470000D01*
X90851451Y-54444487D01*
X90837197Y-54354487D01*
X90837196Y-54354485D01*
X90835646Y-54344696D01*
X90778050Y-54231658D01*
X90688342Y-54141950D01*
X90575304Y-54084354D01*
X90565515Y-54082804D01*
X90565513Y-54082803D01*
X90459793Y-54066059D01*
X90450000Y-54064508D01*
X90440207Y-54066059D01*
X90334487Y-54082803D01*
X90334485Y-54082804D01*
X90324696Y-54084354D01*
X90211658Y-54141950D01*
X90121950Y-54231658D01*
X90064354Y-54344696D01*
X90062804Y-54354485D01*
X90062803Y-54354487D01*
X90048549Y-54444487D01*
X90044508Y-54470000D01*
X83551238Y-54470000D01*
X83545646Y-54434696D01*
X83488050Y-54321658D01*
X83398342Y-54231950D01*
X83285304Y-54174354D01*
X83275515Y-54172804D01*
X83275513Y-54172803D01*
X83169793Y-54156059D01*
X83160000Y-54154508D01*
X83150207Y-54156059D01*
X83044487Y-54172803D01*
X83044485Y-54172804D01*
X83034696Y-54174354D01*
X82921658Y-54231950D01*
X82831950Y-54321658D01*
X82774354Y-54434696D01*
X82754508Y-54560000D01*
X81816385Y-54560000D01*
X81918342Y-54508050D01*
X82008050Y-54418342D01*
X82065646Y-54305304D01*
X82085492Y-54180000D01*
X82070548Y-54085646D01*
X82067197Y-54064487D01*
X82067196Y-54064485D01*
X82065646Y-54054696D01*
X82008050Y-53941658D01*
X81918342Y-53851950D01*
X81805304Y-53794354D01*
X81795515Y-53792804D01*
X81795513Y-53792803D01*
X81689793Y-53776059D01*
X81680000Y-53774508D01*
X81670207Y-53776059D01*
X81564487Y-53792803D01*
X81564485Y-53792804D01*
X81554696Y-53794354D01*
X81441658Y-53851950D01*
X81351950Y-53941658D01*
X81294354Y-54054696D01*
X81292804Y-54064485D01*
X81292803Y-54064487D01*
X81289452Y-54085646D01*
X81274508Y-54180000D01*
X80100500Y-54180000D01*
X80100500Y-53100000D01*
X81294508Y-53100000D01*
X81296059Y-53109793D01*
X81311668Y-53208342D01*
X81314354Y-53225304D01*
X81371950Y-53338342D01*
X81461658Y-53428050D01*
X81574696Y-53485646D01*
X81584485Y-53487196D01*
X81584487Y-53487197D01*
X81690207Y-53503941D01*
X81700000Y-53505492D01*
X81709793Y-53503941D01*
X81815513Y-53487197D01*
X81815515Y-53487196D01*
X81825304Y-53485646D01*
X81938342Y-53428050D01*
X82028050Y-53338342D01*
X82047087Y-53300980D01*
X84485231Y-53300980D01*
X84486782Y-53310773D01*
X84489750Y-53329509D01*
X84505077Y-53426284D01*
X84562673Y-53539322D01*
X84652381Y-53629030D01*
X84765419Y-53686626D01*
X84775208Y-53688176D01*
X84775210Y-53688177D01*
X84880930Y-53704921D01*
X84890723Y-53706472D01*
X84900516Y-53704921D01*
X84931587Y-53700000D01*
X88594508Y-53700000D01*
X88614354Y-53825304D01*
X88671950Y-53938342D01*
X88761658Y-54028050D01*
X88874696Y-54085646D01*
X88884485Y-54087196D01*
X88884487Y-54087197D01*
X88990207Y-54103941D01*
X89000000Y-54105492D01*
X89009793Y-54103941D01*
X89115513Y-54087197D01*
X89115515Y-54087196D01*
X89125304Y-54085646D01*
X89238342Y-54028050D01*
X89328050Y-53938342D01*
X89385646Y-53825304D01*
X89405492Y-53700000D01*
X89385646Y-53574696D01*
X89328050Y-53461658D01*
X89238342Y-53371950D01*
X89125304Y-53314354D01*
X89115515Y-53312804D01*
X89115513Y-53312803D01*
X89009793Y-53296059D01*
X89000000Y-53294508D01*
X88990207Y-53296059D01*
X88884487Y-53312803D01*
X88884485Y-53312804D01*
X88874696Y-53314354D01*
X88761658Y-53371950D01*
X88671950Y-53461658D01*
X88614354Y-53574696D01*
X88594508Y-53700000D01*
X84931587Y-53700000D01*
X85006236Y-53688177D01*
X85006238Y-53688176D01*
X85016027Y-53686626D01*
X85129065Y-53629030D01*
X85218773Y-53539322D01*
X85276369Y-53426284D01*
X85291697Y-53329509D01*
X85294664Y-53310773D01*
X85296215Y-53300980D01*
X85284229Y-53225304D01*
X85277920Y-53185467D01*
X85277919Y-53185465D01*
X85276369Y-53175676D01*
X85218773Y-53062638D01*
X85129065Y-52972930D01*
X85123315Y-52970000D01*
X91744508Y-52970000D01*
X91764354Y-53095304D01*
X91821950Y-53208342D01*
X91911658Y-53298050D01*
X92024696Y-53355646D01*
X92034485Y-53357196D01*
X92034487Y-53357197D01*
X92140207Y-53373941D01*
X92150000Y-53375492D01*
X92159793Y-53373941D01*
X92265513Y-53357197D01*
X92265515Y-53357196D01*
X92275304Y-53355646D01*
X92388342Y-53298050D01*
X92478050Y-53208342D01*
X92487733Y-53189338D01*
X92536481Y-53137723D01*
X92605396Y-53120657D01*
X92672598Y-53143558D01*
X92712267Y-53189338D01*
X92721950Y-53208342D01*
X92811658Y-53298050D01*
X92924696Y-53355646D01*
X92934485Y-53357196D01*
X92934487Y-53357197D01*
X93040207Y-53373941D01*
X93050000Y-53375492D01*
X93059793Y-53373941D01*
X93165513Y-53357197D01*
X93165515Y-53357196D01*
X93175304Y-53355646D01*
X93288342Y-53298050D01*
X93378050Y-53208342D01*
X93435646Y-53095304D01*
X93455492Y-52970000D01*
X93443691Y-52895488D01*
X93437197Y-52854487D01*
X93437196Y-52854485D01*
X93435646Y-52844696D01*
X93378050Y-52731658D01*
X93288342Y-52641950D01*
X93175304Y-52584354D01*
X93165515Y-52582804D01*
X93165513Y-52582803D01*
X93059793Y-52566059D01*
X93050000Y-52564508D01*
X93040207Y-52566059D01*
X92934487Y-52582803D01*
X92934485Y-52582804D01*
X92924696Y-52584354D01*
X92811658Y-52641950D01*
X92721950Y-52731658D01*
X92717450Y-52740490D01*
X92712267Y-52750662D01*
X92663519Y-52802277D01*
X92594604Y-52819343D01*
X92527402Y-52796442D01*
X92487733Y-52750662D01*
X92482550Y-52740490D01*
X92478050Y-52731658D01*
X92388342Y-52641950D01*
X92275304Y-52584354D01*
X92265515Y-52582804D01*
X92265513Y-52582803D01*
X92159793Y-52566059D01*
X92150000Y-52564508D01*
X92140207Y-52566059D01*
X92034487Y-52582803D01*
X92034485Y-52582804D01*
X92024696Y-52584354D01*
X91911658Y-52641950D01*
X91821950Y-52731658D01*
X91764354Y-52844696D01*
X91762804Y-52854485D01*
X91762803Y-52854487D01*
X91756309Y-52895488D01*
X91744508Y-52970000D01*
X85123315Y-52970000D01*
X85016027Y-52915334D01*
X85006238Y-52913784D01*
X85006236Y-52913783D01*
X84900516Y-52897039D01*
X84890723Y-52895488D01*
X84880930Y-52897039D01*
X84775210Y-52913783D01*
X84775208Y-52913784D01*
X84765419Y-52915334D01*
X84652381Y-52972930D01*
X84562673Y-53062638D01*
X84505077Y-53175676D01*
X84503527Y-53185465D01*
X84503526Y-53185467D01*
X84497217Y-53225304D01*
X84485231Y-53300980D01*
X82047087Y-53300980D01*
X82085646Y-53225304D01*
X82088333Y-53208342D01*
X82103941Y-53109793D01*
X82105492Y-53100000D01*
X82103198Y-53085513D01*
X82087197Y-52984487D01*
X82087196Y-52984485D01*
X82085646Y-52974696D01*
X82028050Y-52861658D01*
X81938342Y-52771950D01*
X81825304Y-52714354D01*
X81815515Y-52712804D01*
X81815513Y-52712803D01*
X81709793Y-52696059D01*
X81700000Y-52694508D01*
X81690207Y-52696059D01*
X81584487Y-52712803D01*
X81584485Y-52712804D01*
X81574696Y-52714354D01*
X81461658Y-52771950D01*
X81371950Y-52861658D01*
X81314354Y-52974696D01*
X81312804Y-52984485D01*
X81312803Y-52984487D01*
X81296802Y-53085513D01*
X81294508Y-53100000D01*
X80100500Y-53100000D01*
X80100500Y-51500000D01*
X83594508Y-51500000D01*
X83614354Y-51625304D01*
X83671950Y-51738342D01*
X83761658Y-51828050D01*
X83874696Y-51885646D01*
X83884485Y-51887196D01*
X83884487Y-51887197D01*
X83990207Y-51903941D01*
X84000000Y-51905492D01*
X84009793Y-51903941D01*
X84115513Y-51887197D01*
X84115515Y-51887196D01*
X84125304Y-51885646D01*
X84238342Y-51828050D01*
X84328050Y-51738342D01*
X84385646Y-51625304D01*
X84405492Y-51500000D01*
X84385646Y-51374696D01*
X84328050Y-51261658D01*
X84238342Y-51171950D01*
X84125304Y-51114354D01*
X84126294Y-51112412D01*
X84078542Y-51079759D01*
X84050905Y-51014362D01*
X84063012Y-50944405D01*
X84111019Y-50892100D01*
X84125068Y-50885683D01*
X84125304Y-50885646D01*
X84238342Y-50828050D01*
X84328050Y-50738342D01*
X84385646Y-50625304D01*
X84405492Y-50500000D01*
X84385646Y-50374696D01*
X84328050Y-50261658D01*
X84238342Y-50171950D01*
X84125304Y-50114354D01*
X84126294Y-50112412D01*
X84078542Y-50079759D01*
X84050905Y-50014362D01*
X84063012Y-49944405D01*
X84111019Y-49892100D01*
X84125068Y-49885683D01*
X84125304Y-49885646D01*
X84238342Y-49828050D01*
X84328050Y-49738342D01*
X84385646Y-49625304D01*
X84405492Y-49500000D01*
X84398848Y-49458050D01*
X84387197Y-49384487D01*
X84387196Y-49384485D01*
X84385646Y-49374696D01*
X84328050Y-49261658D01*
X84238342Y-49171950D01*
X84156011Y-49130000D01*
X84744508Y-49130000D01*
X84746059Y-49139793D01*
X84752263Y-49178961D01*
X84764354Y-49255304D01*
X84821950Y-49368342D01*
X84911658Y-49458050D01*
X85024696Y-49515646D01*
X85034485Y-49517196D01*
X85034487Y-49517197D01*
X85140207Y-49533941D01*
X85150000Y-49535492D01*
X85159793Y-49533941D01*
X85265513Y-49517197D01*
X85265515Y-49517196D01*
X85275304Y-49515646D01*
X85388342Y-49458050D01*
X85478050Y-49368342D01*
X85507510Y-49310523D01*
X87683985Y-49310523D01*
X87685536Y-49320316D01*
X87695700Y-49384487D01*
X87703831Y-49435827D01*
X87761427Y-49548865D01*
X87851135Y-49638573D01*
X87964173Y-49696169D01*
X87973962Y-49697719D01*
X87973964Y-49697720D01*
X88079684Y-49714464D01*
X88089477Y-49716015D01*
X88099270Y-49714464D01*
X88204990Y-49697720D01*
X88204992Y-49697719D01*
X88214781Y-49696169D01*
X88327819Y-49638573D01*
X88417527Y-49548865D01*
X88475123Y-49435827D01*
X88483255Y-49384487D01*
X88493418Y-49320316D01*
X88494969Y-49310523D01*
X88475123Y-49185219D01*
X88417527Y-49072181D01*
X88327819Y-48982473D01*
X88214781Y-48924877D01*
X88204992Y-48923327D01*
X88204990Y-48923326D01*
X88099270Y-48906582D01*
X88089477Y-48905031D01*
X88079684Y-48906582D01*
X87973964Y-48923326D01*
X87973962Y-48923327D01*
X87964173Y-48924877D01*
X87851135Y-48982473D01*
X87761427Y-49072181D01*
X87703831Y-49185219D01*
X87683985Y-49310523D01*
X85507510Y-49310523D01*
X85535646Y-49255304D01*
X85547738Y-49178961D01*
X85553941Y-49139793D01*
X85555492Y-49130000D01*
X85549871Y-49094508D01*
X85537197Y-49014487D01*
X85537196Y-49014485D01*
X85535646Y-49004696D01*
X85478050Y-48891658D01*
X85388342Y-48801950D01*
X85275304Y-48744354D01*
X85265515Y-48742804D01*
X85265513Y-48742803D01*
X85159793Y-48726059D01*
X85150000Y-48724508D01*
X85140207Y-48726059D01*
X85034487Y-48742803D01*
X85034485Y-48742804D01*
X85024696Y-48744354D01*
X84911658Y-48801950D01*
X84821950Y-48891658D01*
X84764354Y-49004696D01*
X84762804Y-49014485D01*
X84762803Y-49014487D01*
X84750129Y-49094508D01*
X84744508Y-49130000D01*
X84156011Y-49130000D01*
X84125304Y-49114354D01*
X84115515Y-49112804D01*
X84115513Y-49112803D01*
X84009793Y-49096059D01*
X84000000Y-49094508D01*
X83990207Y-49096059D01*
X83884487Y-49112803D01*
X83884485Y-49112804D01*
X83874696Y-49114354D01*
X83761658Y-49171950D01*
X83671950Y-49261658D01*
X83614354Y-49374696D01*
X83612804Y-49384485D01*
X83612803Y-49384487D01*
X83601152Y-49458050D01*
X83594508Y-49500000D01*
X83614354Y-49625304D01*
X83671950Y-49738342D01*
X83761658Y-49828050D01*
X83873367Y-49884969D01*
X83874696Y-49885646D01*
X83873706Y-49887588D01*
X83921458Y-49920241D01*
X83949095Y-49985638D01*
X83936988Y-50055595D01*
X83888981Y-50107900D01*
X83874932Y-50114317D01*
X83874696Y-50114354D01*
X83761658Y-50171950D01*
X83671950Y-50261658D01*
X83614354Y-50374696D01*
X83594508Y-50500000D01*
X83614354Y-50625304D01*
X83671950Y-50738342D01*
X83761658Y-50828050D01*
X83873367Y-50884969D01*
X83874696Y-50885646D01*
X83873706Y-50887588D01*
X83921458Y-50920241D01*
X83949095Y-50985638D01*
X83936988Y-51055595D01*
X83888981Y-51107900D01*
X83874932Y-51114317D01*
X83874696Y-51114354D01*
X83761658Y-51171950D01*
X83671950Y-51261658D01*
X83614354Y-51374696D01*
X83594508Y-51500000D01*
X80100500Y-51500000D01*
X80100500Y-48962121D01*
X80120502Y-48894000D01*
X80174158Y-48847507D01*
X80244432Y-48837403D01*
X80283704Y-48849855D01*
X80305861Y-48861145D01*
X80305865Y-48861146D01*
X80314696Y-48865646D01*
X80324485Y-48867196D01*
X80324487Y-48867197D01*
X80430207Y-48883941D01*
X80440000Y-48885492D01*
X80449793Y-48883941D01*
X80555513Y-48867197D01*
X80555515Y-48867196D01*
X80565304Y-48865646D01*
X80678342Y-48808050D01*
X80768050Y-48718342D01*
X80825646Y-48605304D01*
X80845492Y-48480000D01*
X80825646Y-48354696D01*
X80821144Y-48345860D01*
X80798204Y-48300836D01*
X80785100Y-48231059D01*
X80811801Y-48165275D01*
X80869829Y-48124369D01*
X80930180Y-48119185D01*
X80970000Y-48125492D01*
X80979793Y-48123941D01*
X81085513Y-48107197D01*
X81085515Y-48107196D01*
X81095304Y-48105646D01*
X81208342Y-48048050D01*
X81298050Y-47958342D01*
X81355646Y-47845304D01*
X81375492Y-47720000D01*
X81356486Y-47600000D01*
X87694508Y-47600000D01*
X87714354Y-47725304D01*
X87771950Y-47838342D01*
X87861658Y-47928050D01*
X87974696Y-47985646D01*
X87984485Y-47987196D01*
X87984487Y-47987197D01*
X88090207Y-48003941D01*
X88100000Y-48005492D01*
X88109793Y-48003941D01*
X88215513Y-47987197D01*
X88215515Y-47987196D01*
X88225304Y-47985646D01*
X88338342Y-47928050D01*
X88428050Y-47838342D01*
X88485646Y-47725304D01*
X88505492Y-47600000D01*
X88485646Y-47474696D01*
X88428050Y-47361658D01*
X88338342Y-47271950D01*
X88225304Y-47214354D01*
X88215515Y-47212804D01*
X88215513Y-47212803D01*
X88109793Y-47196059D01*
X88100000Y-47194508D01*
X88090207Y-47196059D01*
X87984487Y-47212803D01*
X87984485Y-47212804D01*
X87974696Y-47214354D01*
X87861658Y-47271950D01*
X87771950Y-47361658D01*
X87714354Y-47474696D01*
X87694508Y-47600000D01*
X81356486Y-47600000D01*
X81355646Y-47594696D01*
X81298050Y-47481658D01*
X81208342Y-47391950D01*
X81095304Y-47334354D01*
X81085515Y-47332804D01*
X81085513Y-47332803D01*
X80979793Y-47316059D01*
X80970000Y-47314508D01*
X80960207Y-47316059D01*
X80854487Y-47332803D01*
X80854485Y-47332804D01*
X80844696Y-47334354D01*
X80731658Y-47391950D01*
X80641950Y-47481658D01*
X80584354Y-47594696D01*
X80564508Y-47720000D01*
X80584354Y-47845304D01*
X80588855Y-47854137D01*
X80588856Y-47854140D01*
X80611796Y-47899164D01*
X80624900Y-47968941D01*
X80598199Y-48034725D01*
X80540171Y-48075631D01*
X80479820Y-48080815D01*
X80440000Y-48074508D01*
X80430207Y-48076059D01*
X80324487Y-48092803D01*
X80324485Y-48092804D01*
X80314696Y-48094354D01*
X80305865Y-48098854D01*
X80305861Y-48098855D01*
X80283704Y-48110145D01*
X80213927Y-48123250D01*
X80148142Y-48096550D01*
X80107235Y-48038523D01*
X80100500Y-47997879D01*
X80100500Y-46170000D01*
X90844508Y-46170000D01*
X90846059Y-46179793D01*
X90862092Y-46281019D01*
X90864354Y-46295304D01*
X90921950Y-46408342D01*
X91011658Y-46498050D01*
X91124696Y-46555646D01*
X91134485Y-46557196D01*
X91134487Y-46557197D01*
X91240207Y-46573941D01*
X91250000Y-46575492D01*
X91259793Y-46573941D01*
X91365513Y-46557197D01*
X91365515Y-46557196D01*
X91375304Y-46555646D01*
X91488342Y-46498050D01*
X91578050Y-46408342D01*
X91635646Y-46295304D01*
X91637588Y-46296294D01*
X91670241Y-46248542D01*
X91735638Y-46220905D01*
X91805595Y-46233012D01*
X91857900Y-46281019D01*
X91864317Y-46295068D01*
X91864354Y-46295304D01*
X91921950Y-46408342D01*
X92011658Y-46498050D01*
X92124696Y-46555646D01*
X92134485Y-46557196D01*
X92134487Y-46557197D01*
X92240207Y-46573941D01*
X92250000Y-46575492D01*
X92259793Y-46573941D01*
X92365513Y-46557197D01*
X92365515Y-46557196D01*
X92375304Y-46555646D01*
X92488342Y-46498050D01*
X92578050Y-46408342D01*
X92635646Y-46295304D01*
X92637588Y-46296294D01*
X92670241Y-46248542D01*
X92735638Y-46220905D01*
X92805595Y-46233012D01*
X92857900Y-46281019D01*
X92864317Y-46295068D01*
X92864354Y-46295304D01*
X92921950Y-46408342D01*
X93011658Y-46498050D01*
X93124696Y-46555646D01*
X93134485Y-46557196D01*
X93134487Y-46557197D01*
X93240207Y-46573941D01*
X93250000Y-46575492D01*
X93259793Y-46573941D01*
X93365513Y-46557197D01*
X93365515Y-46557196D01*
X93375304Y-46555646D01*
X93488342Y-46498050D01*
X93578050Y-46408342D01*
X93635646Y-46295304D01*
X93637909Y-46281019D01*
X93649051Y-46210668D01*
X93668442Y-46169764D01*
X93652604Y-46145120D01*
X93649051Y-46129332D01*
X93637197Y-46054488D01*
X93637197Y-46054487D01*
X93635646Y-46044696D01*
X93578050Y-45931658D01*
X93488342Y-45841950D01*
X93375304Y-45784354D01*
X93376294Y-45782412D01*
X93328542Y-45749759D01*
X93300905Y-45684362D01*
X93313012Y-45614405D01*
X93361019Y-45562100D01*
X93375068Y-45555683D01*
X93375304Y-45555646D01*
X93488342Y-45498050D01*
X93578050Y-45408342D01*
X93635646Y-45295304D01*
X93637909Y-45281019D01*
X93649051Y-45210668D01*
X93668442Y-45169764D01*
X93652604Y-45145120D01*
X93649051Y-45129332D01*
X93637197Y-45054488D01*
X93637197Y-45054487D01*
X93635646Y-45044696D01*
X93578050Y-44931658D01*
X93488342Y-44841950D01*
X93375304Y-44784354D01*
X93376294Y-44782412D01*
X93328542Y-44749759D01*
X93300905Y-44684362D01*
X93313012Y-44614405D01*
X93361019Y-44562100D01*
X93375068Y-44555683D01*
X93375304Y-44555646D01*
X93488342Y-44498050D01*
X93578050Y-44408342D01*
X93635646Y-44295304D01*
X93637909Y-44281019D01*
X93649051Y-44210668D01*
X93668442Y-44169764D01*
X93652604Y-44145120D01*
X93649051Y-44129332D01*
X93637197Y-44054488D01*
X93637197Y-44054487D01*
X93635646Y-44044696D01*
X93578050Y-43931658D01*
X93488342Y-43841950D01*
X93375304Y-43784354D01*
X93365515Y-43782804D01*
X93365513Y-43782803D01*
X93259793Y-43766059D01*
X93250000Y-43764508D01*
X93240207Y-43766059D01*
X93134487Y-43782803D01*
X93134485Y-43782804D01*
X93124696Y-43784354D01*
X93011658Y-43841950D01*
X92921950Y-43931658D01*
X92864354Y-44044696D01*
X92862412Y-44043706D01*
X92829759Y-44091458D01*
X92764362Y-44119095D01*
X92694405Y-44106988D01*
X92642100Y-44058981D01*
X92635683Y-44044932D01*
X92635646Y-44044696D01*
X92578050Y-43931658D01*
X92488342Y-43841950D01*
X92375304Y-43784354D01*
X92365515Y-43782804D01*
X92365513Y-43782803D01*
X92259793Y-43766059D01*
X92250000Y-43764508D01*
X92240207Y-43766059D01*
X92134487Y-43782803D01*
X92134485Y-43782804D01*
X92124696Y-43784354D01*
X92011658Y-43841950D01*
X91921950Y-43931658D01*
X91864354Y-44044696D01*
X91862804Y-44054485D01*
X91862803Y-44054487D01*
X91846059Y-44160207D01*
X91844508Y-44170000D01*
X91846059Y-44179793D01*
X91862092Y-44281019D01*
X91864354Y-44295304D01*
X91921950Y-44408342D01*
X92011658Y-44498050D01*
X92123367Y-44554969D01*
X92124696Y-44555646D01*
X92123706Y-44557588D01*
X92171458Y-44590241D01*
X92199095Y-44655638D01*
X92186988Y-44725595D01*
X92138981Y-44777900D01*
X92124932Y-44784317D01*
X92124696Y-44784354D01*
X92011658Y-44841950D01*
X91921950Y-44931658D01*
X91864354Y-45044696D01*
X91862804Y-45054485D01*
X91862803Y-45054487D01*
X91846059Y-45160207D01*
X91844508Y-45170000D01*
X91846059Y-45179793D01*
X91862092Y-45281019D01*
X91864354Y-45295304D01*
X91921950Y-45408342D01*
X92011658Y-45498050D01*
X92115862Y-45551145D01*
X92124696Y-45555646D01*
X92123706Y-45557588D01*
X92171458Y-45590241D01*
X92199095Y-45655638D01*
X92186988Y-45725595D01*
X92138981Y-45777900D01*
X92124932Y-45784317D01*
X92124696Y-45784354D01*
X92011658Y-45841950D01*
X91921950Y-45931658D01*
X91864354Y-46044696D01*
X91862412Y-46043706D01*
X91829759Y-46091458D01*
X91764362Y-46119095D01*
X91694405Y-46106988D01*
X91642100Y-46058981D01*
X91635683Y-46044932D01*
X91635646Y-46044696D01*
X91578050Y-45931658D01*
X91488342Y-45841950D01*
X91375304Y-45784354D01*
X91365515Y-45782804D01*
X91365513Y-45782803D01*
X91259793Y-45766059D01*
X91250000Y-45764508D01*
X91240207Y-45766059D01*
X91134487Y-45782803D01*
X91134485Y-45782804D01*
X91124696Y-45784354D01*
X91011658Y-45841950D01*
X90921950Y-45931658D01*
X90864354Y-46044696D01*
X90862804Y-46054485D01*
X90862803Y-46054487D01*
X90846059Y-46160207D01*
X90844508Y-46170000D01*
X80100500Y-46170000D01*
X80100500Y-45230378D01*
X80118159Y-45170236D01*
X80331558Y-45170236D01*
X80347396Y-45194880D01*
X80350949Y-45210668D01*
X80362092Y-45281019D01*
X80364354Y-45295304D01*
X80421950Y-45408342D01*
X80511658Y-45498050D01*
X80624696Y-45555646D01*
X80634485Y-45557196D01*
X80634487Y-45557197D01*
X80740207Y-45573941D01*
X80750000Y-45575492D01*
X80759793Y-45573941D01*
X80865513Y-45557197D01*
X80865515Y-45557196D01*
X80875304Y-45555646D01*
X80988342Y-45498050D01*
X81078050Y-45408342D01*
X81135646Y-45295304D01*
X81137588Y-45296294D01*
X81170241Y-45248542D01*
X81235638Y-45220905D01*
X81305595Y-45233012D01*
X81357900Y-45281019D01*
X81364317Y-45295068D01*
X81364354Y-45295304D01*
X81421950Y-45408342D01*
X81511658Y-45498050D01*
X81624696Y-45555646D01*
X81634485Y-45557196D01*
X81634487Y-45557197D01*
X81740207Y-45573941D01*
X81750000Y-45575492D01*
X81759793Y-45573941D01*
X81865513Y-45557197D01*
X81865515Y-45557196D01*
X81875304Y-45555646D01*
X81988342Y-45498050D01*
X82078050Y-45408342D01*
X82135646Y-45295304D01*
X82137909Y-45281019D01*
X82153941Y-45179793D01*
X82155492Y-45170000D01*
X82153941Y-45160207D01*
X82137197Y-45054487D01*
X82137196Y-45054485D01*
X82135646Y-45044696D01*
X82078050Y-44931658D01*
X81988342Y-44841950D01*
X81875304Y-44784354D01*
X81876294Y-44782412D01*
X81828542Y-44749759D01*
X81800905Y-44684362D01*
X81813012Y-44614405D01*
X81861019Y-44562100D01*
X81875068Y-44555683D01*
X81875304Y-44555646D01*
X81988342Y-44498050D01*
X82078050Y-44408342D01*
X82135646Y-44295304D01*
X82137909Y-44281019D01*
X82153941Y-44179793D01*
X82155492Y-44170000D01*
X82153941Y-44160207D01*
X82137197Y-44054487D01*
X82137196Y-44054485D01*
X82135646Y-44044696D01*
X82078050Y-43931658D01*
X81988342Y-43841950D01*
X81875304Y-43784354D01*
X81865515Y-43782804D01*
X81865513Y-43782803D01*
X81759793Y-43766059D01*
X81750000Y-43764508D01*
X81740207Y-43766059D01*
X81634487Y-43782803D01*
X81634485Y-43782804D01*
X81624696Y-43784354D01*
X81511658Y-43841950D01*
X81421950Y-43931658D01*
X81364354Y-44044696D01*
X81362412Y-44043706D01*
X81329759Y-44091458D01*
X81264362Y-44119095D01*
X81194405Y-44106988D01*
X81142100Y-44058981D01*
X81135683Y-44044932D01*
X81135646Y-44044696D01*
X81078050Y-43931658D01*
X80988342Y-43841950D01*
X80875304Y-43784354D01*
X80865515Y-43782804D01*
X80865513Y-43782803D01*
X80759793Y-43766059D01*
X80750000Y-43764508D01*
X80740207Y-43766059D01*
X80634487Y-43782803D01*
X80634485Y-43782804D01*
X80624696Y-43784354D01*
X80511658Y-43841950D01*
X80421950Y-43931658D01*
X80364354Y-44044696D01*
X80362803Y-44054487D01*
X80362803Y-44054488D01*
X80350949Y-44129332D01*
X80331558Y-44170236D01*
X80347396Y-44194880D01*
X80350949Y-44210668D01*
X80362092Y-44281019D01*
X80364354Y-44295304D01*
X80421950Y-44408342D01*
X80511658Y-44498050D01*
X80623367Y-44554969D01*
X80624696Y-44555646D01*
X80623706Y-44557588D01*
X80671458Y-44590241D01*
X80699095Y-44655638D01*
X80686988Y-44725595D01*
X80638981Y-44777900D01*
X80624932Y-44784317D01*
X80624696Y-44784354D01*
X80511658Y-44841950D01*
X80421950Y-44931658D01*
X80364354Y-45044696D01*
X80362803Y-45054487D01*
X80362803Y-45054488D01*
X80350949Y-45129332D01*
X80331558Y-45170236D01*
X80118159Y-45170236D01*
X80119330Y-45166248D01*
X80101539Y-45125771D01*
X80100500Y-45109622D01*
X80100500Y-44230378D01*
X80119330Y-44166248D01*
X80101539Y-44125771D01*
X80100500Y-44109622D01*
X80100500Y-42335654D01*
X83598133Y-42335654D01*
X83633941Y-42544047D01*
X83707127Y-42742425D01*
X83815238Y-42924144D01*
X83954655Y-43083119D01*
X84120708Y-43214024D01*
X84125819Y-43216713D01*
X84125822Y-43216715D01*
X84156241Y-43232719D01*
X84307836Y-43312477D01*
X84509773Y-43375180D01*
X84515510Y-43375859D01*
X84677768Y-43395064D01*
X84677775Y-43395064D01*
X84681455Y-43395500D01*
X84803641Y-43395500D01*
X84960560Y-43381081D01*
X84966122Y-43379512D01*
X84966124Y-43379512D01*
X85022225Y-43363690D01*
X85164069Y-43323686D01*
X85169247Y-43321133D01*
X85169251Y-43321131D01*
X85348531Y-43232719D01*
X85353710Y-43230165D01*
X85523133Y-43103651D01*
X85666663Y-42948381D01*
X85679215Y-42928488D01*
X85776416Y-42774434D01*
X85776416Y-42774433D01*
X85779495Y-42769554D01*
X85857848Y-42573160D01*
X85858973Y-42567503D01*
X85858975Y-42567497D01*
X85897972Y-42371442D01*
X85897972Y-42371440D01*
X85899099Y-42365775D01*
X85899494Y-42335654D01*
X88098133Y-42335654D01*
X88133941Y-42544047D01*
X88207127Y-42742425D01*
X88315238Y-42924144D01*
X88454655Y-43083119D01*
X88620708Y-43214024D01*
X88625819Y-43216713D01*
X88625822Y-43216715D01*
X88656241Y-43232719D01*
X88807836Y-43312477D01*
X89009773Y-43375180D01*
X89015510Y-43375859D01*
X89177768Y-43395064D01*
X89177775Y-43395064D01*
X89181455Y-43395500D01*
X89303641Y-43395500D01*
X89460560Y-43381081D01*
X89466122Y-43379512D01*
X89466124Y-43379512D01*
X89522225Y-43363690D01*
X89664069Y-43323686D01*
X89669247Y-43321133D01*
X89669251Y-43321131D01*
X89848531Y-43232719D01*
X89853710Y-43230165D01*
X90023133Y-43103651D01*
X90166663Y-42948381D01*
X90179215Y-42928488D01*
X90276416Y-42774434D01*
X90276416Y-42774433D01*
X90279495Y-42769554D01*
X90357848Y-42573160D01*
X90358973Y-42567503D01*
X90358975Y-42567497D01*
X90397972Y-42371442D01*
X90397972Y-42371440D01*
X90399099Y-42365775D01*
X90399494Y-42335654D01*
X90401791Y-42160128D01*
X90401867Y-42154346D01*
X90366059Y-41945953D01*
X90292873Y-41747575D01*
X90184762Y-41565856D01*
X90045345Y-41406881D01*
X89879292Y-41275976D01*
X89874181Y-41273287D01*
X89874178Y-41273285D01*
X89779362Y-41223400D01*
X89692164Y-41177523D01*
X89490227Y-41114820D01*
X89475801Y-41113113D01*
X89322232Y-41094936D01*
X89322225Y-41094936D01*
X89318545Y-41094500D01*
X89196359Y-41094500D01*
X89039440Y-41108919D01*
X89033878Y-41110488D01*
X89033876Y-41110488D01*
X88977775Y-41126310D01*
X88835931Y-41166314D01*
X88830753Y-41168867D01*
X88830749Y-41168869D01*
X88655508Y-41255289D01*
X88646290Y-41259835D01*
X88476867Y-41386349D01*
X88333337Y-41541619D01*
X88330256Y-41546502D01*
X88318045Y-41565856D01*
X88220505Y-41720446D01*
X88142152Y-41916840D01*
X88141027Y-41922497D01*
X88141025Y-41922503D01*
X88102028Y-42118558D01*
X88100901Y-42124225D01*
X88100825Y-42130000D01*
X88100825Y-42130004D01*
X88100431Y-42160128D01*
X88098133Y-42335654D01*
X85899494Y-42335654D01*
X85901791Y-42160128D01*
X85901867Y-42154346D01*
X85866059Y-41945953D01*
X85792873Y-41747575D01*
X85684762Y-41565856D01*
X85545345Y-41406881D01*
X85379292Y-41275976D01*
X85374181Y-41273287D01*
X85374178Y-41273285D01*
X85279362Y-41223400D01*
X85192164Y-41177523D01*
X84990227Y-41114820D01*
X84975801Y-41113113D01*
X84822232Y-41094936D01*
X84822225Y-41094936D01*
X84818545Y-41094500D01*
X84696359Y-41094500D01*
X84539440Y-41108919D01*
X84533878Y-41110488D01*
X84533876Y-41110488D01*
X84477775Y-41126310D01*
X84335931Y-41166314D01*
X84330753Y-41168867D01*
X84330749Y-41168869D01*
X84155508Y-41255289D01*
X84146290Y-41259835D01*
X83976867Y-41386349D01*
X83833337Y-41541619D01*
X83830256Y-41546502D01*
X83818045Y-41565856D01*
X83720505Y-41720446D01*
X83642152Y-41916840D01*
X83641027Y-41922497D01*
X83641025Y-41922503D01*
X83602028Y-42118558D01*
X83600901Y-42124225D01*
X83600825Y-42130000D01*
X83600825Y-42130004D01*
X83600431Y-42160128D01*
X83598133Y-42335654D01*
X80100500Y-42335654D01*
X80100500Y-40226500D01*
X80120502Y-40158379D01*
X80174158Y-40111886D01*
X80226500Y-40100500D01*
X93773500Y-40100500D01*
X93841621Y-40120502D01*
G37*
%TD.AperFunction*%
%TD*%
M02*
